<?xml version="1.0" encoding="UTF-8" standalone="no"?>
<!-- Created with Inkscape (http://www.inkscape.org/) -->

<svg
   xmlns:dc="http://purl.org/dc/elements/1.1/"
   xmlns:cc="http://creativecommons.org/ns#"
   xmlns:rdf="http://www.w3.org/1999/02/22-rdf-syntax-ns#"
   xmlns:svg="http://www.w3.org/2000/svg"
   xmlns="http://www.w3.org/2000/svg"
   xmlns:sodipodi="http://sodipodi.sourceforge.net/DTD/sodipodi-0.dtd"
   xmlns:inkscape="http://www.inkscape.org/namespaces/inkscape"
   width="0.26458335mm"
   height="0.47625294mm"
   viewBox="0 0 0.26458335 0.47625294"
   version="1.1"
   id="svg20779"
   inkscape:version="0.92.4 (5da689c313, 2019-01-14)"
   sodipodi:docname="arcade_wall.svg">
  <defs
     id="defs20773" />
  <sodipodi:namedview
     id="base"
     pagecolor="#ffffff"
     bordercolor="#666666"
     borderopacity="1.0"
     inkscape:pageopacity="0.0"
     inkscape:pageshadow="2"
     inkscape:zoom="256"
     inkscape:cx="1.1556306"
     inkscape:cy="0.47733919"
     inkscape:document-units="mm"
     inkscape:current-layer="layer1"
     showgrid="false"
     inkscape:snap-center="false"
     inkscape:snap-object-midpoints="true"
     inkscape:snap-midpoints="true"
     inkscape:snap-smooth-nodes="true"
     inkscape:snap-intersection-paths="true"
     inkscape:object-paths="true"
     fit-margin-top="0"
     fit-margin-left="0"
     fit-margin-right="0"
     fit-margin-bottom="0"
     inkscape:window-width="1920"
     inkscape:window-height="1057"
     inkscape:window-x="-8"
     inkscape:window-y="-8"
     inkscape:window-maximized="1">
    <inkscape:grid
       type="xygrid"
       id="grid21348"
       originx="281.78124"
       originy="-187.85414" />
  </sodipodi:namedview>
  <metadata
     id="metadata20776">
    <rdf:RDF>
      <cc:Work
         rdf:about="">
        <dc:format>image/svg+xml</dc:format>
        <dc:type
           rdf:resource="http://purl.org/dc/dcmitype/StillImage" />
        <dc:title></dc:title>
      </cc:Work>
    </rdf:RDF>
  </metadata>
  <g
     inkscape:label="Layer 1"
     inkscape:groupmode="layer"
     id="layer1"
     transform="translate(281.78125,-108.6696)">
    <g
       transform="matrix(0.04999996,0,0,0.04999996,-284.66521,170.15185)"
       id="g8630">
      <rect
         style="opacity:0.18000004;fill:#000000;fill-opacity:0.99590167;fill-rule:nonzero;stroke:none;stroke-width:3.93964863;stroke-linecap:round;stroke-linejoin:round;stroke-miterlimit:4;stroke-dasharray:none;stroke-dashoffset:0;stroke-opacity:1;paint-order:markers stroke fill;filter:url(#filter1957)"
         id="rect19227-0-4-9-2-7-4-7"
         width="5.2916665"
         height="3.174943"
         x="57.679165"
         y="-1223.2958"
         ry="1.0583171" />
      <path
         inkscape:connector-curvature="0"
         style="color:#000000;font-style:normal;font-variant:normal;font-weight:normal;font-stretch:normal;font-size:medium;line-height:normal;font-family:sans-serif;font-variant-ligatures:normal;font-variant-position:normal;font-variant-caps:normal;font-variant-numeric:normal;font-variant-alternates:normal;font-feature-settings:normal;text-indent:0;text-align:start;text-decoration:none;text-decoration-line:none;text-decoration-style:solid;text-decoration-color:#000000;letter-spacing:normal;word-spacing:normal;text-transform:none;writing-mode:lr-tb;direction:ltr;text-orientation:mixed;dominant-baseline:auto;baseline-shift:baseline;text-anchor:start;white-space:normal;shape-padding:0;clip-rule:nonzero;display:inline;overflow:visible;visibility:visible;opacity:1;isolation:auto;mix-blend-mode:normal;color-interpolation:sRGB;color-interpolation-filters:linearRGB;solid-color:#000000;solid-opacity:1;vector-effect:none;fill:#143c88;fill-opacity:1;fill-rule:nonzero;stroke:none;stroke-width:1.05838537;stroke-linecap:round;stroke-linejoin:round;stroke-miterlimit:4;stroke-dasharray:none;stroke-dashoffset:0;stroke-opacity:1;paint-order:markers stroke fill;color-rendering:auto;image-rendering:auto;shape-rendering:auto;text-rendering:auto;enable-background:accumulate"
         d="m 58.738115,-1229.6459 c -0.57721,0 -1.058955,0.4812 -1.058955,1.0584 v 5.8202 c 0,0.5773 0.481745,1.0589 1.058955,1.0589 h 0.575731 a 0.52927113,0.52921936 0 0 0 0.500275,-0.3513 c 0.03692,-0.1045 0.124684,-0.1778 0.246005,-0.1778 h 0.529735 c 0.121319,0 0.209077,0.073 0.246003,0.1778 a 0.52927113,0.52921936 0 0 0 0.499761,0.3513 h 0.576249 c 0.577209,0 1.058953,-0.4816 1.058953,-1.0589 v -5.8202 c 0,-0.5772 -0.481744,-1.0584 -1.058953,-1.0584 z"
         id="path8654" />
      <path
         inkscape:connector-curvature="0"
         id="rect8579"
         d="m 58.737501,-1229.1167 c -0.293177,0 -0.529167,0.236 -0.529167,0.5292 v 5.8208 c 0,0.2932 0.23599,0.5292 0.529167,0.5292 h 0.577225 c 0.1089,-0.3082 0.399304,-0.5292 0.745691,-0.5292 h 0.529167 c 0.346387,0 0.636791,0.221 0.745691,0.5292 h 0.577226 c 0.293177,0 0.529166,-0.236 0.529166,-0.5292 v -5.8208 c 0,-0.2932 -0.235989,-0.5292 -0.529166,-0.5292 z"
         style="opacity:1;fill:#788cd0;fill-opacity:1;fill-rule:nonzero;stroke:none;stroke-width:1.05833328;stroke-linecap:round;stroke-linejoin:round;stroke-miterlimit:4;stroke-dasharray:none;stroke-dashoffset:0;stroke-opacity:1;paint-order:markers stroke fill" />
      <path
         inkscape:connector-curvature="0"
         id="rect8581"
         d="m 59.002084,-1229.1167 c -0.293177,0 -0.529167,0.236 -0.529167,0.5292 v 5.8208 c 0,0.2932 0.23599,0.5292 0.529167,0.5292 h 0.312642 c 0.1089,-0.3082 0.399304,-0.5292 0.745691,-0.5292 h 0.529167 c 0.346387,0 0.636791,0.221 0.745691,0.5292 h 0.312642 c 0.293177,0 0.529167,-0.236 0.529167,-0.5292 v -5.8208 c 0,-0.2932 -0.23599,-0.5292 -0.529167,-0.5292 z"
         style="opacity:1;fill:#5870c0;fill-opacity:1;fill-rule:nonzero;stroke:none;stroke-width:3;stroke-linecap:round;stroke-linejoin:miter;stroke-miterlimit:4;stroke-dasharray:none;stroke-dashoffset:0;stroke-opacity:1;paint-order:markers stroke fill" />
      <rect
         style="opacity:1;fill:#b8b4f0;fill-opacity:1;fill-rule:nonzero;stroke:none;stroke-width:3;stroke-linecap:round;stroke-linejoin:miter;stroke-miterlimit:4;stroke-dasharray:none;stroke-dashoffset:0;stroke-opacity:1;paint-order:markers stroke fill"
         id="rect8583"
         width="4.2333302"
         height="4.233366"
         x="58.208332"
         y="-1229.1167"
         ry="0.52919924" />
      <path
         inkscape:connector-curvature="0"
         id="rect8596"
         d="m 59.002084,-1229.1167 c -0.293177,0 -0.529167,0.2361 -0.529167,0.5294 v 3.631 c 0.07806,0.045 0.167495,0.073 0.264584,0.073 h 3.175 c 0.09709,0 0.186526,-0.029 0.264583,-0.073 v -3.631 c 0,-0.2933 -0.23599,-0.5294 -0.529167,-0.5294 z"
         style="opacity:1;fill:#a49cec;fill-opacity:1;fill-rule:nonzero;stroke:none;stroke-width:2.99993753;stroke-linecap:round;stroke-linejoin:miter;stroke-miterlimit:4;stroke-dasharray:none;stroke-dashoffset:0;stroke-opacity:1;paint-order:markers stroke fill" />
      <rect
         ry="0.79383141"
         y="-1228.323"
         x="59.002079"
         height="2.6458583"
         width="2.6458361"
         id="rect8585"
         style="opacity:1;fill:#7470bc;fill-opacity:1;fill-rule:nonzero;stroke:none;stroke-width:1.87500322;stroke-linecap:round;stroke-linejoin:miter;stroke-miterlimit:4;stroke-dasharray:none;stroke-dashoffset:0;stroke-opacity:1;paint-order:markers stroke fill" />
      <path
         inkscape:connector-curvature="0"
         id="rect8587"
         d="m 59.795834,-1227.7938 c -0.439782,0 -0.79375,0.354 -0.79375,0.7938 v 0.5291 c 0,0.4398 0.353968,0.7938 0.79375,0.7938 h 1.058333 c 0.439783,0 0.79375,-0.354 0.79375,-0.7938 V -1227 c 0,-0.4398 -0.353967,-0.7938 -0.79375,-0.7938 z"
         style="opacity:1;fill:#8480d4;fill-opacity:1;fill-rule:nonzero;stroke:none;stroke-width:1.87500322;stroke-linecap:round;stroke-linejoin:miter;stroke-miterlimit:4;stroke-dasharray:none;stroke-dashoffset:0;stroke-opacity:1;paint-order:markers stroke fill" />
    </g>
  </g>
</svg>
