<?xml version="1.0" encoding="UTF-8" standalone="no"?>
<!-- Created with Inkscape (http://www.inkscape.org/) -->

<svg
   xmlns:dc="http://purl.org/dc/elements/1.1/"
   xmlns:cc="http://creativecommons.org/ns#"
   xmlns:rdf="http://www.w3.org/1999/02/22-rdf-syntax-ns#"
   xmlns:svg="http://www.w3.org/2000/svg"
   xmlns="http://www.w3.org/2000/svg"
   xmlns:xlink="http://www.w3.org/1999/xlink"
   xmlns:sodipodi="http://sodipodi.sourceforge.net/DTD/sodipodi-0.dtd"
   xmlns:inkscape="http://www.inkscape.org/namespaces/inkscape"
   width="0.26991633mm"
   height="0.44614384mm"
   viewBox="0 0 0.26991633 0.44614384"
   version="1.1"
   id="svg17613"
   inkscape:version="0.92.3 (2405546, 2018-03-11)"
   sodipodi:docname="mineral_red.svg">
  <defs
     id="defs17607">
    <linearGradient
       inkscape:collect="always"
       xlink:href="#linearGradient15704"
       id="linearGradient15634"
       gradientUnits="userSpaceOnUse"
       gradientTransform="matrix(0.26458333,0,0,0.26458333,-18.184093,-0.0010451)"
       x1="-1269.9629"
       y1="-2530.6133"
       x2="-1266.3248"
       y2="-2509.7996" />
    <linearGradient
       id="linearGradient15704"
       inkscape:collect="always">
      <stop
         id="stop15700"
         offset="0"
         style="stop-color:#d64145;stop-opacity:0.98039216" />
      <stop
         id="stop15702"
         offset="1"
         style="stop-color:#dd40fd;stop-opacity:0;" />
    </linearGradient>
    <linearGradient
       inkscape:collect="always"
       xlink:href="#linearGradient15710"
       id="linearGradient15636"
       gradientUnits="userSpaceOnUse"
       gradientTransform="matrix(0.26458333,0,0,0.26458333,-18.184093,0.2562019)"
       x1="-1271.0039"
       y1="-2528.0708"
       x2="-1265.1855"
       y2="-2528.0708" />
    <linearGradient
       id="linearGradient15710"
       inkscape:collect="always">
      <stop
         style="stop-color:#d64145;stop-opacity:0.24180327"
         offset="0"
         id="stop15706" />
      <stop
         style="stop-color:#cc383c;stop-opacity:0.98039216"
         offset="1"
         id="stop15708" />
    </linearGradient>
    <linearGradient
       inkscape:collect="always"
       xlink:href="#linearGradient15716"
       id="linearGradient15638"
       gradientUnits="userSpaceOnUse"
       gradientTransform="translate(-18.184093,-0.0010451)"
       x1="-334.55011"
       y1="-663.33173"
       x2="-333.62"
       y2="-666.22247" />
    <linearGradient
       id="linearGradient15716"
       inkscape:collect="always">
      <stop
         style="stop-color:#d0383c;stop-opacity:0.98039216"
         offset="0"
         id="stop15712" />
      <stop
         style="stop-color:#e24b4f;stop-opacity:0.98039216"
         offset="1"
         id="stop15714" />
    </linearGradient>
  </defs>
  <sodipodi:namedview
     id="base"
     pagecolor="#ffffff"
     bordercolor="#666666"
     borderopacity="1.0"
     inkscape:pageopacity="0.0"
     inkscape:pageshadow="2"
     inkscape:zoom="179.2"
     inkscape:cx="1.8683547"
     inkscape:cy="1.2070538"
     inkscape:document-units="mm"
     inkscape:current-layer="layer1"
     showgrid="false"
     inkscape:window-width="1920"
     inkscape:window-height="1057"
     inkscape:window-x="-8"
     inkscape:window-y="-8"
     inkscape:window-maximized="1" />
  <metadata
     id="metadata17610">
    <rdf:RDF>
      <cc:Work
         rdf:about="">
        <dc:format>image/svg+xml</dc:format>
        <dc:type
           rdf:resource="http://purl.org/dc/dcmitype/StillImage" />
        <dc:title></dc:title>
      </cc:Work>
    </rdf:RDF>
  </metadata>
  <g
     inkscape:label="Layer 1"
     inkscape:groupmode="layer"
     id="layer1"
     transform="translate(-20.013695,-58.483451)">
    <g
       transform="matrix(0.04859629,0,0,0.04859629,37.311803,91.101946)"
       id="g13816-0-2">
      <rect
         style="opacity:0.18000004;fill:#000000;fill-opacity:0.99590167;fill-rule:nonzero;stroke:none;stroke-width:4.05429649;stroke-linecap:round;stroke-linejoin:round;stroke-miterlimit:4;stroke-dasharray:none;stroke-dashoffset:0;stroke-opacity:1;paint-order:markers stroke fill;filter:url(#filter1957)"
         id="rect13151-1-5-6"
         width="5.4455767"
         height="5.4933634"
         x="-355.95532"
         y="-667.52643"
         ry="2.7227886" />
      <path
         style="opacity:1;fill:none;fill-opacity:1;stroke:#a70f13;stroke-width:0.89999998;stroke-linecap:butt;stroke-linejoin:round;stroke-miterlimit:4;stroke-dasharray:none;stroke-opacity:0.98039216"
         d="m -354.21881,-670.76368 -1.00563,1.20404 0.34883,1.90842 v 0 l -0.38447,0.95601 0.83458,2.64272 c 0.33874,0.1956 1.72775,0.26064 2.17918,0 l 1.39526,-3.40289 -0.59635,-1.21595 -0.30591,0.003 0.0837,-0.786 -0.79531,-1.29812 z"
         id="path13585-7-0-7"
         inkscape:connector-curvature="0" />
      <path
         sodipodi:nodetypes="ccccccc"
         inkscape:connector-curvature="0"
         id="path13551-9-9-3"
         d="m -354.21872,-670.76395 -1.0056,1.20438 1.0056,5.50741 h 1.97236 l 0.57672,-5.40218 -0.79513,-1.29792 z"
         style="opacity:1;fill:#ec575b;fill-opacity:0.98039216;stroke:none;stroke-width:0.26458332px;stroke-linecap:butt;stroke-linejoin:miter;stroke-opacity:1" />
      <path
         style="opacity:0.39200003;fill:url(#linearGradient15634);fill-opacity:1;stroke:none;stroke-width:0.26458332px;stroke-linecap:butt;stroke-linejoin:miter;stroke-opacity:1"
         d="m -354.1951,-669.55914 c -0.29417,-0.0106 -0.71313,0.14782 -0.99063,0.21084 v 0 l 0.96687,5.29633 h 1.42936 c -0.008,-0.68945 -0.0646,-4.73806 -0.30644,-5.1103 -0.16471,-0.25344 -0.60889,-0.37923 -1.09916,-0.39687 z"
         id="path13553-5-4-0"
         inkscape:connector-curvature="0"
         sodipodi:nodetypes="ccccccc" />
      <path
         style="opacity:1;fill:url(#linearGradient15636);fill-opacity:1;stroke:none;stroke-width:0.26458332px;stroke-linecap:butt;stroke-linejoin:miter;stroke-opacity:1"
         d="m -353.92689,-669.5365 c -0.30814,0.24257 -0.53756,0.54536 -0.54349,0.92239 -0.008,0.52879 0.27044,0.9217 0.71157,0.89045 0.2779,-0.0196 0.64744,-0.11205 0.82773,-0.34988 -0.0423,-0.55843 -0.096,-0.98232 -0.16486,-1.08831 -0.13391,-0.20606 -0.45316,-0.32687 -0.83095,-0.37465 z"
         id="path13555-1-2-6"
         inkscape:connector-curvature="0"
         sodipodi:nodetypes="cccccc" />
      <path
         style="fill:#ff666b;fill-opacity:0.98039216;stroke:none;stroke-width:0.26458332px;stroke-linecap:butt;stroke-linejoin:miter;stroke-opacity:1"
         d="m -352.76078,-669.91839 c 0.33675,1.25678 -0.18241,1.74374 -0.11167,2.5772 l 0.85632,1.13252 0.26255,-2.4593 0.0839,-0.78637 -0.79512,-1.29802 z"
         id="path13557-0-2-0"
         inkscape:connector-curvature="0"
         sodipodi:nodetypes="ccccccc" />
      <path
         inkscape:connector-curvature="0"
         id="path13559-6-4-6"
         d="m -354.72152,-670.16176 c 0.50259,0.20278 1.56032,0.30316 2.74552,0.2073 l -0.48877,-0.79783 -1.75395,-0.0116 z"
         style="opacity:1;fill:#ff777b;fill-opacity:0.98039216;stroke:none;stroke-width:0.26458332px;stroke-linecap:butt;stroke-linejoin:miter;stroke-opacity:1"
         sodipodi:nodetypes="ccccc" />
      <path
         inkscape:connector-curvature="0"
         id="path13561-6-2-6"
         d="m -353.53475,-670.75925 c 0,0 0.11434,0.27663 0.38801,0.41984 0.27366,0.1432 1.01958,0.13818 1.01958,0.13818 l -0.33761,-0.55113 z"
         style="opacity:1;fill:#fffafa;fill-opacity:0.98039216;stroke:none;stroke-width:0.26458332px;stroke-linecap:butt;stroke-linejoin:miter;stroke-opacity:1"
         sodipodi:nodetypes="czccc" />
      <path
         sodipodi:nodetypes="cccccccc"
         inkscape:connector-curvature="0"
         id="path13563-5-0-7"
         d="m -352.67524,-668.65922 -1.06408,1.04069 -0.72906,2.19903 0.24966,1.36734 h 1.97236 l 1.39523,-3.40267 -0.59634,-1.21608 z"
         style="opacity:1;fill:#ff777b;fill-opacity:0.98039216;stroke:none;stroke-width:0.26458332px;stroke-linecap:butt;stroke-linejoin:miter;stroke-opacity:1" />
      <path
         style="fill:#ef5d61;fill-opacity:0.98039216;stroke:none;stroke-width:0.26458332px;stroke-linecap:butt;stroke-linejoin:miter;stroke-opacity:1"
         d="m -353.20728,-668.13886 c 0,0 0.31142,0.1528 0.84616,0.1528 0.53474,0 0.74719,0.87783 0.74719,0.87783 l -0.0527,0.18875 -2.07272,-0.69905 z"
         id="path13565-7-2-3"
         inkscape:connector-curvature="0"
         sodipodi:nodetypes="czcccc" />
      <path
         style="opacity:1;fill:#d74246;fill-opacity:0.98039216;stroke:none;stroke-width:0.26458332px;stroke-linecap:butt;stroke-linejoin:miter;stroke-opacity:1"
         d="m -352.73937,-667.68896 c -0.36888,-0.25556 -0.99994,0.0703 -0.99994,0.0703 l -0.47955,3.56672 1.97252,-1.9e-4 1.08635,-2.6494 -0.45394,-0.40667 c 0,0 -0.75655,-0.32517 -1.12544,-0.58073 z"
         id="path13567-7-6-0"
         inkscape:connector-curvature="0"
         sodipodi:nodetypes="zcccccz" />
      <path
         sodipodi:nodetypes="ccccccc"
         inkscape:connector-curvature="0"
         id="path13569-3-7-3"
         d="m -355.26022,-666.69476 0.38438,-0.95629 1.13652,0.0325 0.28996,0.5311 1.20302,3.0353 c -0.45142,0.26063 -1.84033,0.19555 -2.17909,-3e-5 z"
         style="opacity:1;fill:#ff666b;fill-opacity:0.98039216;stroke:none;stroke-width:0.26458332px;stroke-linecap:butt;stroke-linejoin:miter;stroke-opacity:1" />
      <path
         inkscape:connector-curvature="0"
         id="path13571-0-8-7"
         d="m -352.67525,-668.65923 c 0,0 0.36038,0.47471 0.68318,0.47471 0.32279,0 0.79653,0.0278 0.79653,0.0278 l -0.25194,-0.51374 z"
         style="opacity:1;fill:#fffafa;fill-opacity:0.98039216;stroke:none;stroke-width:0.26458332px;stroke-linecap:butt;stroke-linejoin:miter;stroke-opacity:1"
         sodipodi:nodetypes="czccc" />
      <path
         inkscape:connector-curvature="0"
         id="path13573-8-4-8"
         d="m -352.94496,-665.81481 0.49189,1.76265 h 0.20672 l 1.08635,-2.64941 c -0.20232,-0.45081 -0.56391,-0.64726 -0.9649,-0.37831 -0.40099,0.26895 -0.82006,1.26507 -0.82006,1.26507 z"
         style="opacity:1;fill:url(#linearGradient15638);fill-opacity:1;stroke:none;stroke-width:0.26458332px;stroke-linecap:butt;stroke-linejoin:miter;stroke-opacity:1"
         sodipodi:nodetypes="cccccc" />
      <path
         inkscape:connector-curvature="0"
         id="path13575-0-1-5"
         d="m -353.44936,-667.08743 c -0.99709,0.56782 -1.15232,1.6045 -1.1402,2.51566 l -0.67066,-2.12299 0.38438,-0.95629 1.13652,0.0325 z"
         style="fill:#ff777b;fill-opacity:0.98039216;stroke:none;stroke-width:0.26458332px;stroke-linecap:butt;stroke-linejoin:miter;stroke-opacity:1"
         sodipodi:nodetypes="cccccc" />
      <path
         inkscape:connector-curvature="0"
         id="path13577-7-0-2"
         d="m -354.87584,-667.65105 c 0,0 -0.025,0.76586 0.13387,0.97432 0.18441,0.24201 0.28755,-0.31367 0.40676,-0.44716 0.21444,-0.24013 0.74087,-0.2291 0.74087,-0.2291 l -0.14498,-0.26554 z"
         style="fill:#fffafa;fill-opacity:0.98039216;stroke:none;stroke-width:0.26458332px;stroke-linecap:butt;stroke-linejoin:miter;stroke-opacity:1"
         sodipodi:nodetypes="cssccc" />
      <path
         style="fill:#ec575b;fill-opacity:0.98039216;stroke:none;stroke-width:0.26458332px;stroke-linecap:butt;stroke-linejoin:miter;stroke-opacity:1"
         d="m -353.11552,-666.2451 c -0.83342,1.03413 -0.46284,2.17824 -1.30998,2.19313 0.35531,0.16357 1.72775,0.26065 2.17918,0 z"
         id="path13705-5-7"
         inkscape:connector-curvature="0"
         sodipodi:nodetypes="cccc" />
      <rect
         y="-669.00311"
         x="-355.95477"
         height="5.4445133"
         width="5.4445133"
         id="rect13163-0-7-7"
         style="opacity:1;fill:none;fill-opacity:1;fill-rule:nonzero;stroke:none;stroke-width:0.04788959;stroke-linecap:round;stroke-linejoin:round;stroke-miterlimit:4;stroke-dasharray:none;stroke-dashoffset:0;stroke-opacity:1;paint-order:markers stroke fill" />
    </g>
  </g>
</svg>
