<?xml version="1.0" encoding="UTF-8" standalone="no"?>
<svg
   xmlns:dc="http://purl.org/dc/elements/1.1/"
   xmlns:cc="http://creativecommons.org/ns#"
   xmlns:rdf="http://www.w3.org/1999/02/22-rdf-syntax-ns#"
   xmlns:svg="http://www.w3.org/2000/svg"
   xmlns="http://www.w3.org/2000/svg"
   xmlns:sodipodi="http://sodipodi.sourceforge.net/DTD/sodipodi-0.dtd"
   xmlns:inkscape="http://www.inkscape.org/namespaces/inkscape"
   sodipodi:docname="gift_fence_l.svg"
   inkscape:version="1.0 (4035a4fb49, 2020-05-01)"
   id="svg3893"
   version="1.1"
   viewBox="0 0 0.26458332 0.38364583"
   height="0.38364583mm"
   width="0.26458332mm">
  <defs
     id="defs3887" />
  <sodipodi:namedview
     inkscape:window-maximized="1"
     inkscape:window-y="-8"
     inkscape:window-x="-8"
     inkscape:window-height="1057"
     inkscape:window-width="1920"
     showgrid="false"
     inkscape:document-rotation="0"
     inkscape:current-layer="layer1"
     inkscape:document-units="px"
     inkscape:cy="0.97146515"
     inkscape:cx="1.3813714"
     inkscape:zoom="126.71353"
     inkscape:pageshadow="2"
     inkscape:pageopacity="0.0"
     borderopacity="1.0"
     bordercolor="#666666"
     pagecolor="#ffffff"
     id="base" />
  <metadata
     id="metadata3890">
    <rdf:RDF>
      <cc:Work
         rdf:about="">
        <dc:format>image/svg+xml</dc:format>
        <dc:type
           rdf:resource="http://purl.org/dc/dcmitype/StillImage" />
        <dc:title></dc:title>
      </cc:Work>
    </rdf:RDF>
  </metadata>
  <g
     transform="translate(-196.50037,-136.29822)"
     id="layer1"
     inkscape:groupmode="layer"
     inkscape:label="Layer 1">
    <g
       style="stroke-width:20"
       id="g2290"
       transform="matrix(-0.05,0,0,0.05,202.71808,140.6903)">
      <path
         sodipodi:nodetypes="sccsccs"
         transform="scale(0.26458333)"
         d="m 456,-315 c -2.18143,0 -4,1.81861 -4,4 0,1.33333 0,2.66667 0,4 0,2.18139 1.81857,4 4,4 h 14 v -12 z"
         style="color:#000000;font-style:normal;font-variant:normal;font-weight:normal;font-stretch:normal;font-size:medium;line-height:normal;font-family:sans-serif;font-variant-ligatures:normal;font-variant-position:normal;font-variant-caps:normal;font-variant-numeric:normal;font-variant-alternates:normal;font-variant-east-asian:normal;font-feature-settings:normal;font-variation-settings:normal;text-indent:0;text-align:start;text-decoration:none;text-decoration-line:none;text-decoration-style:solid;text-decoration-color:#000000;letter-spacing:normal;word-spacing:normal;text-transform:none;writing-mode:lr-tb;direction:ltr;text-orientation:mixed;dominant-baseline:auto;baseline-shift:baseline;text-anchor:start;white-space:normal;shape-padding:0;shape-margin:0;inline-size:0;clip-rule:nonzero;display:inline;overflow:visible;visibility:visible;isolation:auto;mix-blend-mode:normal;color-interpolation:sRGB;color-interpolation-filters:linearRGB;solid-color:#000000;solid-opacity:1;vector-effect:none;fill:#601020;fill-opacity:1;fill-rule:nonzero;stroke:none;stroke-width:79.9998;stroke-linecap:square;stroke-linejoin:round;stroke-miterlimit:4;stroke-dasharray:none;stroke-dashoffset:0;stroke-opacity:1;paint-order:markers fill stroke;color-rendering:auto;image-rendering:auto;shape-rendering:auto;text-rendering:auto;enable-background:accumulate;stop-color:#000000"
         id="path2270" />
      <path
         transform="scale(0.26458333)"
         d="m 456,-312 c -1.10801,0 -2,0.89201 -2,2 v 3 c 0,1.10799 0.89199,2 2,2 h 14 v -7 z"
         style="opacity:1;fill:#642434;fill-opacity:1;stroke:none;stroke-width:79.9998;stroke-linecap:square;stroke-linejoin:round;stroke-miterlimit:4;stroke-dasharray:none;paint-order:markers fill stroke"
         id="path2272" />
      <path
         transform="scale(0.26458333)"
         d="m 456,-313 c -1.10801,0 -2,0.89201 -2,2 v 1 c 0,1.10799 0.89199,2 2,2 h 14 v -5 z"
         style="opacity:1;fill:#682c3c;fill-opacity:1;stroke:none;stroke-width:79.9998;stroke-linecap:square;stroke-linejoin:round;stroke-miterlimit:4;stroke-dasharray:none;paint-order:markers fill stroke"
         id="path2274" />
      <path
         style="color:#000000;font-style:normal;font-variant:normal;font-weight:normal;font-stretch:normal;font-size:medium;line-height:normal;font-family:sans-serif;font-variant-ligatures:normal;font-variant-position:normal;font-variant-caps:normal;font-variant-numeric:normal;font-variant-alternates:normal;font-feature-settings:normal;text-indent:0;text-align:start;text-decoration:none;text-decoration-line:none;text-decoration-style:solid;text-decoration-color:#000000;letter-spacing:normal;word-spacing:normal;text-transform:none;writing-mode:lr-tb;direction:ltr;text-orientation:mixed;dominant-baseline:auto;baseline-shift:baseline;text-anchor:start;white-space:normal;shape-padding:0;clip-rule:nonzero;display:inline;overflow:visible;visibility:visible;opacity:1;isolation:auto;mix-blend-mode:normal;color-interpolation:sRGB;color-interpolation-filters:linearRGB;solid-color:#000000;solid-opacity:1;vector-effect:none;fill:#642c0c;fill-opacity:1;fill-rule:nonzero;stroke:none;stroke-width:21.1666;stroke-linecap:round;stroke-linejoin:round;stroke-miterlimit:4;stroke-dasharray:none;stroke-dashoffset:0;stroke-opacity:1;paint-order:markers stroke fill;color-rendering:auto;image-rendering:auto;shape-rendering:auto;text-rendering:auto;enable-background:accumulate"
         d="m 123.20358,-84.931251 a 0.52921958,0.52921958 0 0 1 0.18965,0.273897 c 0.15066,0.518292 0.38444,1.25902 0.42376,1.843802 0.005,0.04331 0.008,0.08726 0.008,0.131259 0,0.797402 -0.65778,1.455209 -1.45521,1.455209 -0.79742,0 -1.4552,-0.657807 -1.4552,-1.455209 0,-0.04929 0.004,-0.09723 0.009,-0.146235 0.0423,-0.581289 0.27318,-1.315984 0.42272,-1.830387 a 0.52921958,0.52921958 0 0 1 0.18756,-0.272336 z"
         id="path2276" />
      <path
         style="opacity:1;fill:#88441c;fill-opacity:1;fill-rule:nonzero;stroke:none;stroke-width:21.1666;stroke-linecap:round;stroke-linejoin:round;stroke-miterlimit:4;stroke-dasharray:none;stroke-dashoffset:0;stroke-opacity:1;paint-order:markers stroke fill"
         d="m 122.91677,-84.402084 c 0.14939,0.514694 0.34597,1.201605 0.37362,1.623668 a 0.92604164,0.92604164 0 0 1 0.006,0.09612 0.92604164,0.92604164 0 0 1 -0.92604,0.926042 0.92604164,0.92604164 0 0 1 -0.92604,-0.926042 0.92604164,0.92604164 0 0 1 0.006,-0.102817 c 0.0295,-0.422989 0.22461,-1.105191 0.37312,-1.616974 z"
         id="path2278" />
      <path
         id="path2280"
         d="m 121.84089,-84.402016 a 0.66145828,1.1906871 0 0 0 -0.0176,0 c -0.14848,0.5117 -0.34364,1.1932 -0.37312,1.6159 a 0.92604164,0.92604164 0 0 0 -0.006,0.1029 0.92604164,0.92604164 0 0 0 0.24858,0.6299 0.66145828,1.1906871 0 0 0 0.1483,0.032 0.66145828,1.1906871 0 0 0 0.66146,-1.1906 0.66145828,1.1906871 0 0 0 -0.66146,-1.1906 z"
         style="opacity:1;fill:#d46c2c;fill-opacity:1;fill-rule:nonzero;stroke:none;stroke-width:21.1672;stroke-linecap:round;stroke-linejoin:round;stroke-miterlimit:4;stroke-dasharray:none;stroke-dashoffset:0;stroke-opacity:1;paint-order:markers stroke fill"
         inkscape:connector-curvature="0" />
      <path
         sodipodi:nodetypes="sssccccs"
         transform="scale(0.26458333)"
         d="m 458,-332 c -4.39461,0 -8,3.60541 -8,8 v 2 c 0,3.29002 2.70996,6 6,6 1.13186,-3.5e-4 2.1881,-0.40598 3.13672,-1 3.62109,0 7.24219,0 10.86328,0 v -15 z"
         style="color:#000000;font-style:normal;font-variant:normal;font-weight:normal;font-stretch:normal;font-size:medium;line-height:normal;font-family:sans-serif;font-variant-ligatures:normal;font-variant-position:normal;font-variant-caps:normal;font-variant-numeric:normal;font-variant-alternates:normal;font-variant-east-asian:normal;font-feature-settings:normal;font-variation-settings:normal;text-indent:0;text-align:start;text-decoration:none;text-decoration-line:none;text-decoration-style:solid;text-decoration-color:#000000;letter-spacing:normal;word-spacing:normal;text-transform:none;writing-mode:lr-tb;direction:ltr;text-orientation:mixed;dominant-baseline:auto;baseline-shift:baseline;text-anchor:start;white-space:normal;shape-padding:0;shape-margin:0;inline-size:0;clip-rule:nonzero;display:inline;overflow:visible;visibility:visible;isolation:auto;mix-blend-mode:normal;color-interpolation:sRGB;color-interpolation-filters:linearRGB;solid-color:#000000;solid-opacity:1;vector-effect:none;fill:#642c0c;fill-opacity:1;fill-rule:nonzero;stroke:none;stroke-width:79.9998;stroke-linecap:square;stroke-linejoin:round;stroke-miterlimit:4;stroke-dasharray:none;stroke-dashoffset:0;stroke-opacity:1;paint-order:markers fill stroke;color-rendering:auto;image-rendering:auto;shape-rendering:auto;text-rendering:auto;enable-background:accumulate;stop-color:#000000"
         id="path2282" />
      <path
         sodipodi:nodetypes="sccccs"
         transform="scale(0.26458333)"
         d="m 458,-330 c -3.32398,0 -6,2.67601 -6,6 v 2 l 18,-2 v -6 z"
         style="opacity:1;fill:#d46c2c;fill-opacity:1;stroke:none;stroke-width:79.9998;stroke-linecap:square;stroke-linejoin:round;stroke-miterlimit:4;stroke-dasharray:none;paint-order:markers fill stroke"
         id="path2284" />
      <path
         d="m 119.94982,-85.989586 h 4.40434 v 1.587509 h -4.40434 z"
         style="opacity:1;fill:#88441c;fill-opacity:1;stroke:none;stroke-width:21.1666;stroke-linecap:square;stroke-linejoin:round;stroke-miterlimit:4;stroke-dasharray:none;paint-order:markers fill stroke"
         id="path2286" />
      <path
         sodipodi:nodetypes="ccsscccccccscccc"
         transform="scale(0.26458333)"
         d="m 455.93945,-326 c -2.18546,0.0331 -3.9397,1.81429 -3.93945,4 0,2.20914 1.79086,4 4,4 2.07008,0 3.81422,-1.57278 3.95898,-3.59375 0.0171,-0.23904 -0.25058,-0.40582 -0.49023,-0.40625 H 456 l 1.41406,1.41406 c -0.37501,0.37509 -0.88366,0.58586 -1.41406,0.58594 -1.10457,0 -2,-0.89543 -2,-2 -3.3e-4,-1.08578 0.86571,-1.97349 1.95117,-2 0.0163,-2e-4 0.0326,-2e-4 0.0488,0 1.00004,0 3,1 4,1 h 10 v -3 h -14 c -0.0202,-1.5e-4 -0.0405,-1.5e-4 -0.0605,0 z"
         style="opacity:1;fill:#cc804c;fill-opacity:1;stroke:none;stroke-width:79.9998;stroke-linecap:square;stroke-linejoin:round;stroke-miterlimit:4;stroke-dasharray:none;paint-order:markers fill stroke"
         id="path2288" />
    </g>
  </g>
</svg>
