<?xml version="1.0" encoding="UTF-8" standalone="no"?>
<!-- Created with Inkscape (http://www.inkscape.org/) -->

<svg
   xmlns:dc="http://purl.org/dc/elements/1.1/"
   xmlns:cc="http://creativecommons.org/ns#"
   xmlns:rdf="http://www.w3.org/1999/02/22-rdf-syntax-ns#"
   xmlns:svg="http://www.w3.org/2000/svg"
   xmlns="http://www.w3.org/2000/svg"
   xmlns:sodipodi="http://sodipodi.sourceforge.net/DTD/sodipodi-0.dtd"
   xmlns:inkscape="http://www.inkscape.org/namespaces/inkscape"
   width="0.26458332mm"
   height="0.43825409mm"
   viewBox="0 0 0.26458332 0.43825409"
   version="1.1"
   id="svg10904"
   inkscape:version="0.92.4 (5da689c313, 2019-01-14)"
   sodipodi:docname="neon_railing_t.svg">
  <defs
     id="defs10898" />
  <sodipodi:namedview
     id="base"
     pagecolor="#ffffff"
     bordercolor="#666666"
     borderopacity="1.0"
     inkscape:pageopacity="0.0"
     inkscape:pageshadow="2"
     inkscape:zoom="256"
     inkscape:cx="0.95899777"
     inkscape:cy="1.3189934"
     inkscape:document-units="mm"
     inkscape:current-layer="g897"
     showgrid="false"
     inkscape:window-width="1920"
     inkscape:window-height="1057"
     inkscape:window-x="-8"
     inkscape:window-y="-8"
     inkscape:window-maximized="1"
     inkscape:snap-smooth-nodes="true"
     showguides="false"
     inkscape:object-paths="true" />
  <metadata
     id="metadata10901">
    <rdf:RDF>
      <cc:Work
         rdf:about="">
        <dc:format>image/svg+xml</dc:format>
        <dc:type
           rdf:resource="http://purl.org/dc/dcmitype/StillImage" />
        <dc:title />
      </cc:Work>
    </rdf:RDF>
  </metadata>
  <g
     inkscape:label="Layer 1"
     inkscape:groupmode="layer"
     id="layer1"
     transform="translate(97.895839,-118.04424)">
    <g
       id="g897">
      <rect
         ry="0"
         y="118.21791"
         x="97.631256"
         height="0.26458332"
         width="0.26458332"
         id="rect8145-6-4"
         style="opacity:1;fill:none;fill-opacity:1;fill-rule:nonzero;stroke:none;stroke-width:0.16203777;stroke-linecap:round;stroke-linejoin:round;stroke-miterlimit:4;stroke-dasharray:none;stroke-dashoffset:0;stroke-opacity:1;paint-order:markers stroke fill;filter:url(#filter1957)"
         transform="scale(-1,1)" />
      <path
         style="opacity:1;fill:#343b70;fill-opacity:1;fill-rule:nonzero;stroke:#1c2440;stroke-width:0.04999996;stroke-linecap:round;stroke-linejoin:miter;stroke-miterlimit:4;stroke-dasharray:none;stroke-dashoffset:0;stroke-opacity:1;paint-order:markers stroke fill"
         d="m -97.763559,118.28712 a 0.03892951,0.03892951 0 0 0 -0.02328,0.008 h -0.01563 v 0.0311 a 0.03892951,0.03892951 0 0 0 0.03891,0.0389 0.03892951,0.03892951 0 0 0 0.03894,-0.0389 v -0.0311 h -0.01566 a 0.03892951,0.03892951 0 0 0 -0.02328,-0.008 z"
         id="path10776-5-4"
         inkscape:connector-curvature="0" />
      <path
         inkscape:connector-curvature="0"
         id="path5112-9-4-87-7-1-7-8-7-4"
         d="m -97.763559,118.28712 a 0.03892951,0.03892951 0 0 0 -0.02328,0.008 h -0.01563 v 0.0311 a 0.03892951,0.03892951 0 0 0 0.03891,0.0389 0.03892951,0.03892951 0 0 0 0.03894,-0.0389 v -0.0311 h -0.01566 a 0.03892951,0.03892951 0 0 0 -0.02328,-0.008 z"
         style="opacity:1;fill:#343b70;fill-opacity:1;fill-rule:nonzero;stroke:none;stroke-width:0.05121982;stroke-linecap:round;stroke-linejoin:miter;stroke-miterlimit:4;stroke-dasharray:none;stroke-dashoffset:0;stroke-opacity:1;paint-order:fill markers stroke" />
      <path
         inkscape:connector-curvature="0"
         style="opacity:1;fill:#2d3860;fill-opacity:1;fill-rule:nonzero;stroke:#1c2440;stroke-width:0.04026549;stroke-linecap:round;stroke-linejoin:miter;stroke-miterlimit:4;stroke-dasharray:none;stroke-dashoffset:0;stroke-opacity:1;paint-order:stroke markers fill"
         d="m -97.817959,118.176 v 0.0804 a 0.05441261,0.05441261 0 0 0 0.05442,0.0544 0.05441261,0.05441261 0 0 0 0.05441,-0.0544 v -0.0804 z"
         id="path10786-7-5" />
      <path
         inkscape:connector-curvature="0"
         id="path10633-8-6"
         d="m -97.817959,118.176 v 0.0804 a 0.05441261,0.05441261 0 0 0 0.05442,0.0544 0.05441261,0.05441261 0 0 0 0.05441,-0.0544 v -0.0804 z"
         style="opacity:1;fill:#2d3860;fill-opacity:1;fill-rule:nonzero;stroke:none;stroke-width:0.04026549;stroke-linecap:round;stroke-linejoin:miter;stroke-miterlimit:4;stroke-dasharray:none;stroke-dashoffset:0;stroke-opacity:1;paint-order:stroke markers fill" />
      <path
         inkscape:connector-curvature="0"
         id="circle10635-8-8"
         d="m -97.817964,118.16139 v 0.0824 2e-4 h 5e-5 a 0.05573508,0.05573508 0 0 0 0.05436,0.0438 0.05573508,0.05573508 0 0 0 0.05441,-0.0438 v -0.0826 z"
         style="opacity:1;fill:#545d8b;fill-opacity:1;fill-rule:nonzero;stroke:none;stroke-width:0.04124412;stroke-linecap:round;stroke-linejoin:miter;stroke-miterlimit:4;stroke-dasharray:none;stroke-dashoffset:0;stroke-opacity:1;paint-order:stroke markers fill" />
      <path
         inkscape:connector-curvature="0"
         id="path10796-7-8"
         d="m -97.856122,118.04607 v 0.0804 0.005 0.0252 1.6e-4 0.004 1.6e-4 c 0,0.004 3.57e-4,0.008 8.07e-4,0.0114 v 5.1e-4 l 1.32e-4,4.9e-4 c 0,2.5e-4 1.32e-4,8.5e-4 2.91e-4,0.002 v 0 0 c 3.97e-4,0.003 9.79e-4,0.005 0.0017,0.008 v 0 0 c 1.46e-4,5.5e-4 3.97e-4,0.002 8.47e-4,0.003 0.001,0.004 0.0023,0.007 0.0038,0.0106 0.0016,0.004 0.0034,0.007 0.0056,0.011 0.0018,0.003 0.0037,0.006 0.006,0.009 v 0 0 c 0.01737,0.0226 0.04436,0.0361 0.07325,0.0362 v 0 c 0.0289,0 0.05584,-0.0136 0.07317,-0.0361 v 0 c 0.0021,-0.003 0.004,-0.005 0.0058,-0.008 v 0 0 c 0.0016,-0.003 0.003,-0.005 0.0043,-0.008 l 0.0025,-0.005 v -9.6e-4 c 3.04e-4,-7.1e-4 6.08e-4,-0.001 8.73e-4,-0.002 v -1.3e-4 -1.3e-4 c 1.98e-4,-5.3e-4 4.49e-4,-0.001 6.74e-4,-0.002 l 1.33e-4,-2.7e-4 c 7.27e-4,-0.002 0.0014,-0.004 0.0019,-0.006 l 1.33e-4,-3e-4 1.32e-4,-2.8e-4 c 1.32e-4,-4.5e-4 2.38e-4,-0.001 3.84e-4,-0.002 l 1.32e-4,-4.6e-4 c 3.97e-4,-0.002 8.2e-4,-0.004 0.0012,-0.006 v -1.3e-4 -1.3e-4 c 1.46e-4,-10e-4 3.18e-4,-0.002 4.63e-4,-0.003 v 0 c 2.51e-4,-0.002 3.84e-4,-0.003 4.9e-4,-0.005 2.51e-4,-0.003 2.51e-4,-0.005 2.51e-4,-0.005 v -2.7e-4 -4.1e-4 -0.11615 h -0.0501 v 0.11622 -3.8e-4 c 0,0.002 -1.33e-4,0.002 0,0.001 v 5.1e-4 4.4e-4 c 0,9.8e-4 -1.59e-4,0.002 -2.65e-4,0.002 v 4.1e-4 3.8e-4 c 0,4.5e-4 -1.32e-4,9.5e-4 -2.11e-4,0.001 -1.46e-4,8.3e-4 -3.05e-4,0.002 -5.69e-4,0.003 v 2.6e-4 l -1.33e-4,2.3e-4 c 0,1.5e-4 -1.32e-4,5.5e-4 -2.11e-4,9e-4 -2.52e-4,9.4e-4 -5.56e-4,0.002 -8.47e-4,0.003 v 1.9e-4 l -1.32e-4,2.5e-4 c 0,1.4e-4 -1.59e-4,4.5e-4 -3.18e-4,8.2e-4 -3.97e-4,10e-4 -8.6e-4,0.002 -0.0014,0.003 l -6.75e-4,10e-4 c -4.49e-4,8.7e-4 -8.99e-4,0.002 -0.0014,0.003 -7.94e-4,0.001 -0.0017,0.003 -0.0026,0.004 v 1.3e-4 0 c -0.008,0.0105 -0.02033,0.0167 -0.03356,0.0167 -0.01329,0 -0.02572,-0.006 -0.03372,-0.0167 v 0 0 c -6.88e-4,-8.8e-4 -0.0018,-0.003 -0.0029,-0.004 -6.22e-4,-10e-4 -0.0019,-0.003 -0.0025,-0.005 -7.01e-4,-0.002 -0.0012,-0.003 -0.0017,-0.005 v 0 0 c 0,0 -1.85e-4,-6.2e-4 -4.36e-4,-0.002 v 0 c -2.52e-4,-10e-4 -5.16e-4,-0.002 -7.28e-4,-0.004 v -1.3e-4 c 0,-3.1e-4 -1.59e-4,-0.001 -2.65e-4,-0.002 v 0 c -2.51e-4,-0.002 -3.57e-4,-0.003 -3.57e-4,-0.005 v -1.6e-4 -0.004 -1.6e-4 -0.0252 -0.005 -0.0804 z"
         style="color:#000000;font-style:normal;font-variant:normal;font-weight:normal;font-stretch:normal;font-size:medium;line-height:normal;font-family:sans-serif;font-variant-ligatures:normal;font-variant-position:normal;font-variant-caps:normal;font-variant-numeric:normal;font-variant-alternates:normal;font-feature-settings:normal;text-indent:0;text-align:start;text-decoration:none;text-decoration-line:none;text-decoration-style:solid;text-decoration-color:#000000;letter-spacing:normal;word-spacing:normal;text-transform:none;writing-mode:lr-tb;direction:ltr;text-orientation:mixed;dominant-baseline:auto;baseline-shift:baseline;text-anchor:start;white-space:normal;shape-padding:0;clip-rule:nonzero;display:inline;overflow:visible;visibility:visible;opacity:1;isolation:auto;mix-blend-mode:normal;color-interpolation:sRGB;color-interpolation-filters:linearRGB;solid-color:#000000;solid-opacity:1;vector-effect:none;fill:#7c182c;fill-opacity:1;fill-rule:nonzero;stroke:none;stroke-width:0.04999997;stroke-linecap:round;stroke-linejoin:miter;stroke-miterlimit:4;stroke-dasharray:none;stroke-dashoffset:0;stroke-opacity:1;paint-order:markers stroke fill;color-rendering:auto;image-rendering:auto;shape-rendering:auto;text-rendering:auto;enable-background:accumulate"
         sodipodi:nodetypes="ccccccscccccccccccccccccccccccccccccccccccccccccsccccccccsccscccccccccccccccccccccccccccsccsccccccc" />
      <path
         inkscape:connector-curvature="0"
         id="path10647-6-1"
         d="m -97.735044,118.04542 v 0 0 h -0.04803 -0.04803 v 0.081 0.005 0 0.0252 1.6e-4 0.004 1.3e-4 c 0,0.003 2.11e-4,0.005 5.69e-4,0.008 1.32e-4,7.7e-4 2.38e-4,0.002 3.57e-4,0.002 3.17e-4,0.002 7.27e-4,0.004 0.0012,0.006 2.11e-4,8.2e-4 4.1e-4,0.002 6.48e-4,0.002 7.54e-4,0.003 0.0017,0.005 0.0027,0.008 0,1.4e-4 1.33e-4,2.5e-4 1.86e-4,3.9e-4 0.0012,0.003 0.0025,0.005 0.004,0.008 0,1.3e-4 1.33e-4,2e-4 1.59e-4,3e-4 0.0013,0.002 0.0027,0.004 0.0042,0.006 v 0 c 0.01268,0.0165 0.03235,0.0264 0.05346,0.0265 0.0211,0 0.04075,-0.01 0.05343,-0.0265 v 0 c 0.0015,-0.002 0.0029,-0.004 0.0042,-0.006 0.0012,-0.002 0.0022,-0.004 0.0032,-0.006 v -1.6e-4 c 0,-1.4e-4 1.32e-4,-2.5e-4 1.59e-4,-3.9e-4 8.33e-4,-0.002 0.0016,-0.004 0.0023,-0.005 1.85e-4,-5.2e-4 3.7e-4,-0.001 5.42e-4,-0.002 5.56e-4,-0.002 0.001,-0.003 0.0015,-0.005 1.32e-4,-5.7e-4 2.64e-4,-10e-4 3.83e-4,-0.002 3.58e-4,-0.002 6.75e-4,-0.003 9.26e-4,-0.005 1.46e-4,-9.3e-4 2.65e-4,-0.002 3.58e-4,-0.003 1.72e-4,-0.001 2.91e-4,-0.003 3.83e-4,-0.004 1.33e-4,-0.001 1.33e-4,-0.002 1.59e-4,-0.004 v -1.6e-4 -0.11527 l -0.01947,9e-4 z"
         style="opacity:1;fill:#eb315d;fill-opacity:1;fill-rule:nonzero;stroke:none;stroke-width:0.01617215;stroke-linecap:round;stroke-linejoin:miter;stroke-miterlimit:4;stroke-dasharray:none;stroke-dashoffset:0;stroke-opacity:1;paint-order:fill markers stroke"
         sodipodi:nodetypes="ccccccccccccccccccccccccccccccccccccccccc" />
      <path
         inkscape:connector-curvature="0"
         id="path10649-2-5"
         d="m -97.831111,118.04603 v 0.085 0.0297 1.3e-4 c 0,0.0122 0.0034,0.0242 0.0097,0.0347 0,1.4e-4 1.32e-4,2e-4 1.59e-4,3.1e-4 0.0013,0.002 0.0027,0.004 0.0042,0.006 h 0.01473 v -0.15599 z"
         style="opacity:1;fill:#cc3054;fill-opacity:1;fill-rule:nonzero;stroke:none;stroke-width:0.031213;stroke-linecap:round;stroke-linejoin:miter;stroke-miterlimit:4;stroke-dasharray:none;stroke-dashoffset:0;stroke-opacity:1;paint-order:markers stroke fill"
         sodipodi:nodetypes="cccccccccc" />
      <path
         sodipodi:nodetypes="csccccccccccccccccccccccccc"
         inkscape:connector-curvature="0"
         id="path10651-7-8"
         d="m -97.735049,118.09892 v 0.0483 c 0,0.0191 -0.006,0.0427 -0.03491,0.041 -0.03767,-0.002 -0.04881,-0.0351 -0.06116,-0.0618 v 0.005 0.0252 1.5e-4 0.004 1.5e-4 c 3e-5,0.0122 0.0034,0.0242 0.0097,0.0347 l 1.5e-4,3e-4 c 0.01223,0.0202 0.03411,0.0326 0.05772,0.0326 0.02361,-3e-5 0.0455,-0.0124 0.05772,-0.0326 0.0012,-0.002 0.0022,-0.004 0.0032,-0.006 v -1.5e-4 c 5e-5,-1.5e-4 1e-4,-2.5e-4 1.5e-4,-4e-4 8.35e-4,-0.002 0.0016,-0.004 0.0023,-0.005 2e-4,-5.2e-4 3.5e-4,-0.001 5.45e-4,-0.002 5.5e-4,-0.002 0.001,-0.003 0.0015,-0.005 1.5e-4,-5.6e-4 2.5e-4,-10e-4 4e-4,-0.002 3.5e-4,-0.002 6.75e-4,-0.003 9.3e-4,-0.005 1.5e-4,-9.4e-4 2.5e-4,-0.002 3.5e-4,-0.003 1.5e-4,-0.001 3e-4,-0.003 4e-4,-0.004 1e-4,-0.001 1.5e-4,-0.002 1.5e-4,-0.004 v -1.5e-4 c 0,0 0.0013,-0.0569 0,-0.0618 z"
         style="opacity:1;fill:#e04870;fill-opacity:1;fill-rule:nonzero;stroke:none;stroke-width:0.09482518;stroke-linecap:round;stroke-linejoin:round;stroke-miterlimit:4;stroke-dasharray:none;stroke-dashoffset:0;stroke-opacity:1;paint-order:stroke markers fill" />
      <path
         style="opacity:1;fill:#e04870;fill-opacity:1;fill-rule:nonzero;stroke:none;stroke-width:0.09482518;stroke-linecap:round;stroke-linejoin:round;stroke-miterlimit:4;stroke-dasharray:none;stroke-dashoffset:0;stroke-opacity:1;paint-order:stroke markers fill"
         d="m -97.735049,118.04542 v 0.10179 c 0,0.0191 -0.006,0.0427 -0.03491,0.041 -0.03767,-0.002 -0.04881,-0.0351 -0.06116,-0.0618 v 0.005 0.0252 1.5e-4 0.004 1.5e-4 c 3e-5,0.0122 0.0034,0.0242 0.0097,0.0347 l 1.5e-4,3e-4 c 0.01223,0.0202 0.03411,0.0326 0.05772,0.0326 0.02361,-3e-5 0.0455,-0.0124 0.05772,-0.0326 0.0012,-0.002 0.0022,-0.004 0.0032,-0.006 v -1.5e-4 c 5e-5,-1.5e-4 1e-4,-2.5e-4 1.5e-4,-4e-4 8.35e-4,-0.002 0.0016,-0.004 0.0023,-0.005 2e-4,-5.2e-4 3.5e-4,-0.001 5.45e-4,-0.002 5.5e-4,-0.002 0.001,-0.003 0.0015,-0.005 1.5e-4,-5.6e-4 2.5e-4,-10e-4 4e-4,-0.002 3.5e-4,-0.002 6.75e-4,-0.003 9.3e-4,-0.005 1.5e-4,-9.4e-4 2.5e-4,-0.002 3.5e-4,-0.003 1.5e-4,-0.001 3e-4,-0.003 4e-4,-0.004 1e-4,-10e-4 1.5e-4,-0.002 1.5e-4,-0.004 v -1.5e-4 -0.11374 z"
         id="path10788-8-7"
         inkscape:connector-curvature="0"
         sodipodi:nodetypes="csccccccccccccccccccccccccc" />
      <rect
         ry="0"
         y="118.12539"
         x="97.631256"
         height="0.26458332"
         width="0.26458332"
         id="rect8145-6-4-4"
         style="opacity:1;fill:none;fill-opacity:1;fill-rule:nonzero;stroke:none;stroke-width:0.16203777;stroke-linecap:round;stroke-linejoin:round;stroke-miterlimit:4;stroke-dasharray:none;stroke-dashoffset:0;stroke-opacity:1;paint-order:markers stroke fill;filter:url(#filter1957)"
         transform="scale(-1,1)" />
    </g>
  </g>
</svg>
