<?xml version="1.0" encoding="UTF-8" standalone="no"?>
<!-- Created with Inkscape (http://www.inkscape.org/) -->

<svg
   xmlns:dc="http://purl.org/dc/elements/1.1/"
   xmlns:cc="http://creativecommons.org/ns#"
   xmlns:rdf="http://www.w3.org/1999/02/22-rdf-syntax-ns#"
   xmlns:svg="http://www.w3.org/2000/svg"
   xmlns="http://www.w3.org/2000/svg"
   xmlns:sodipodi="http://sodipodi.sourceforge.net/DTD/sodipodi-0.dtd"
   xmlns:inkscape="http://www.inkscape.org/namespaces/inkscape"
   width="0.26458332mm"
   height="0.39685071mm"
   viewBox="0 0 0.26458332 0.3968507"
   version="1.1"
   id="svg6890"
   sodipodi:docname="neon_railing_tr.svg"
   inkscape:version="0.92.3 (2405546, 2018-03-11)">
  <defs
     id="defs6884" />
  <sodipodi:namedview
     id="base"
     pagecolor="#ffffff"
     bordercolor="#666666"
     borderopacity="1.0"
     inkscape:pageopacity="0.0"
     inkscape:pageshadow="2"
     inkscape:zoom="256"
     inkscape:cx="0.80975921"
     inkscape:cy="0.12444842"
     inkscape:document-units="mm"
     inkscape:current-layer="layer1"
     showgrid="false"
     inkscape:window-width="1920"
     inkscape:window-height="1057"
     inkscape:window-x="-8"
     inkscape:window-y="-8"
     inkscape:window-maximized="1" />
  <metadata
     id="metadata6887">
    <rdf:RDF>
      <cc:Work
         rdf:about="">
        <dc:format>image/svg+xml</dc:format>
        <dc:type
           rdf:resource="http://purl.org/dc/dcmitype/StillImage" />
      </cc:Work>
    </rdf:RDF>
  </metadata>
  <g
     inkscape:label="Layer 1"
     inkscape:groupmode="layer"
     id="layer1"
     transform="translate(214.80416,-143.87377)">
    <g
       id="g6860-9-1"
       transform="matrix(0.05000009,0,0,0.05000009,-228.50308,195.20837)">
      <path
         id="path4788-0-5-7"
         d="m 277.97608,-1021.6476 v 0.9999 h 1.29347 v -0.9999 z"
         style="color:#000000;font-style:normal;font-variant:normal;font-weight:normal;font-stretch:normal;font-size:medium;line-height:normal;font-family:sans-serif;font-variant-ligatures:normal;font-variant-position:normal;font-variant-caps:normal;font-variant-numeric:normal;font-variant-alternates:normal;font-feature-settings:normal;text-indent:0;text-align:start;text-decoration:none;text-decoration-line:none;text-decoration-style:solid;text-decoration-color:#000000;letter-spacing:normal;word-spacing:normal;text-transform:none;writing-mode:lr-tb;direction:ltr;text-orientation:mixed;dominant-baseline:auto;baseline-shift:baseline;text-anchor:start;white-space:normal;shape-padding:0;clip-rule:nonzero;display:inline;overflow:visible;visibility:visible;opacity:1;isolation:auto;mix-blend-mode:normal;color-interpolation:sRGB;color-interpolation-filters:linearRGB;solid-color:#000000;solid-opacity:1;vector-effect:none;fill:#202440;fill-opacity:1;fill-rule:nonzero;stroke:none;stroke-width:1;stroke-linecap:round;stroke-linejoin:miter;stroke-miterlimit:4;stroke-dasharray:none;stroke-dashoffset:0;stroke-opacity:1;paint-order:markers stroke fill;color-rendering:auto;image-rendering:auto;shape-rendering:auto;text-rendering:auto;enable-background:accumulate"
         inkscape:connector-curvature="0"
         sodipodi:nodetypes="ccccc" />
      <path
         id="path4802-3-2-2"
         d="m 277.97608,-1026.19 v 5.0426 h 1.29347 v -5.0426 z"
         style="opacity:1;fill:#303860;fill-opacity:1;fill-rule:nonzero;stroke:none;stroke-width:0.85260379;stroke-linecap:round;stroke-linejoin:miter;stroke-miterlimit:4;stroke-dasharray:none;stroke-dashoffset:0;stroke-opacity:1;paint-order:fill markers stroke"
         inkscape:connector-curvature="0"
         sodipodi:nodetypes="ccccc" />
      <path
         id="path4804-5-6-6"
         d="m 277.97608,-1026.19 v 4.2726 h 1.29347 v -4.2726 z"
         style="opacity:1;fill:#54608c;fill-opacity:1;fill-rule:nonzero;stroke:none;stroke-width:0.78478551;stroke-linecap:round;stroke-linejoin:miter;stroke-miterlimit:4;stroke-dasharray:none;stroke-dashoffset:0;stroke-opacity:1;paint-order:fill markers stroke"
         inkscape:connector-curvature="0"
         sodipodi:nodetypes="ccccc" />
      <path
         sodipodi:nodetypes="cccccccccccccccc"
         inkscape:connector-curvature="0"
         id="path4808-6-2-8"
         d="m 276.96117,-1026.6902 c -1.20306,-2e-4 -2.18938,0.986 -2.18954,2.189 v 5.748 h 3.7047 v -3.5481 -0.4496 h 0.79322 v -1.0005 c -0.37206,-0.059 -0.37849,-1.9394 0,-1.9394 v -0.9994 h -0.22479 -0.56896 -0.73226 v 0 h -0.003 z"
         style="color:#000000;font-style:normal;font-variant:normal;font-weight:normal;font-stretch:normal;font-size:medium;line-height:normal;font-family:sans-serif;font-variant-ligatures:normal;font-variant-position:normal;font-variant-caps:normal;font-variant-numeric:normal;font-variant-alternates:normal;font-feature-settings:normal;text-indent:0;text-align:start;text-decoration:none;text-decoration-line:none;text-decoration-style:solid;text-decoration-color:#000000;letter-spacing:normal;word-spacing:normal;text-transform:none;writing-mode:lr-tb;direction:ltr;text-orientation:mixed;dominant-baseline:auto;baseline-shift:baseline;text-anchor:start;white-space:normal;shape-padding:0;clip-rule:nonzero;display:inline;overflow:visible;visibility:visible;opacity:1;isolation:auto;mix-blend-mode:normal;color-interpolation:sRGB;color-interpolation-filters:linearRGB;solid-color:#000000;solid-opacity:1;vector-effect:none;fill:#7c182c;fill-opacity:1;fill-rule:nonzero;stroke:none;stroke-width:1;stroke-linecap:round;stroke-linejoin:miter;stroke-miterlimit:4;stroke-dasharray:none;stroke-dashoffset:0;stroke-opacity:1;paint-order:markers stroke fill;color-rendering:auto;image-rendering:auto;shape-rendering:auto;text-rendering:auto;enable-background:accumulate" />
      <path
         inkscape:connector-curvature="0"
         id="path4812-3-5-2"
         d="m 276.96117,-1026.19 c -0.93284,-10e-5 -1.68918,0.756 -1.68931,1.6888 v 5.748 h 0.7829 1.92132 v -3.5481 -0.9509 h 0.49972 0.36743 0.42632 v -1.0754 -0.3906 -1.4718 h -0.40203 -0.39172 -0.73226 c -0.0496,0 -0.0983,0 -0.14676,0.01 a 1.6890157,1.6890157 0 0 1 0.14676,-0.01 z m 0.55139,0.018 c -0.0262,0 -0.0527,0.01 -0.0786,0.012 a 1.6890157,1.6890157 0 0 1 0.0786,-0.012 z m -0.1819,0.035 c -0.0183,0 -0.0367,0.01 -0.0548,0.015 a 1.6890157,1.6890157 0 0 1 0.0548,-0.015 z m -0.1628,0.05 c -0.0169,0.01 -0.0343,0.012 -0.0511,0.019 a 1.6890157,1.6890157 0 0 1 0.0511,-0.019 z m -0.14467,0.06 c -0.0214,0.01 -0.0432,0.02 -0.0641,0.031 a 1.6890157,1.6890157 0 0 1 0.0641,-0.031 z m -0.14986,0.08 c -0.018,0.011 -0.0358,0.021 -0.0532,0.033 a 1.6890157,1.6890157 0 0 1 0.0532,-0.033 z m -0.14367,0.097 c -0.0146,0.011 -0.0297,0.021 -0.0439,0.033 a 1.6890157,1.6890157 0 0 1 0.0439,-0.033 z m -0.14058,0.1179 c -0.008,0.01 -0.0172,0.015 -0.0254,0.023 a 1.6890157,1.6890157 0 0 1 0.0254,-0.023 z m -0.52554,1.0588 c -0.006,0.056 -0.009,0.1136 -0.009,0.1716 a 1.6890157,1.6890157 0 0 1 0.009,-0.1716 z"
         style="opacity:1;fill:#eb315d;fill-opacity:1;fill-rule:nonzero;stroke:none;stroke-width:0.51812226;stroke-linecap:round;stroke-linejoin:miter;stroke-miterlimit:4;stroke-dasharray:none;stroke-dashoffset:0;stroke-opacity:1;paint-order:fill markers stroke" />
      <path
         inkscape:connector-curvature="0"
         style="opacity:1;fill:#e04870;fill-opacity:1;fill-rule:nonzero;stroke:none;stroke-width:1.17420912;stroke-linecap:round;stroke-linejoin:miter;stroke-miterlimit:4;stroke-dasharray:none;stroke-dashoffset:0;stroke-opacity:1;paint-order:fill markers stroke"
         d="m 1139.0879,-3822.8301 v 0 a 5.2137303,5.2137303 0 0 0 -5.1856,5.2109 v 1.3828 17.0039 h 2.959 v -17.0039 h 4.8887 v -4.0664 -2.5293 z"
         transform="matrix(0.26458333,0,0,0.26458333,-22.818455,-13.539931)"
         id="path4814-6-9-4" />
      <path
         inkscape:connector-curvature="0"
         style="opacity:1;fill:#9c1c3c;fill-opacity:1;fill-rule:nonzero;stroke:none;stroke-width:3.77952766;stroke-linecap:round;stroke-linejoin:miter;stroke-miterlimit:4;stroke-dasharray:none;stroke-dashoffset:0;stroke-opacity:1;paint-order:markers stroke fill"
         d="m 1140.9258,-3820.3008 c -2.245,-4e-4 -4.065,1.8214 -4.0645,4.0664 h 2.1758 2.7129 v -4.0664 z"
         transform="matrix(0.26458333,0,0,0.26458333,-22.818455,-13.539931)"
         id="path4810-7-1-7" />
      <path
         inkscape:connector-curvature="0"
         id="circle4880-7-6-2"
         d="m 276.96117,-1026.19 c -0.93284,-10e-5 -1.68918,0.756 -1.68931,1.6888 v 5.748 h 0.57571 v -4.3238 -1.4242 c 1.1e-4,-0.9326 0.75613,-1.6887 1.68877,-1.6888 z"
         style="opacity:1;fill:#cc3054;fill-opacity:1;fill-rule:nonzero;stroke:none;stroke-width:3.03800344;stroke-linecap:round;stroke-linejoin:round;stroke-miterlimit:4;stroke-dasharray:none;stroke-dashoffset:0;stroke-opacity:1;paint-order:stroke markers fill"
         sodipodi:nodetypes="cccccccc" />
      <rect
         y="-1024.0449"
         x="273.97791"
         height="5.2916546"
         width="5.2916546"
         id="rect5485-6-7-04-8"
         style="opacity:1;fill:none;fill-opacity:1;fill-rule:nonzero;stroke:none;stroke-width:1.04928815;stroke-linecap:round;stroke-linejoin:miter;stroke-miterlimit:4;stroke-dasharray:none;stroke-dashoffset:0;stroke-opacity:1;paint-order:stroke markers fill" />
    </g>
  </g>
</svg>
