<?xml version="1.0" encoding="UTF-8" standalone="no"?>
<!-- Created with Inkscape (http://www.inkscape.org/) -->

<svg
   xmlns:dc="http://purl.org/dc/elements/1.1/"
   xmlns:cc="http://creativecommons.org/ns#"
   xmlns:rdf="http://www.w3.org/1999/02/22-rdf-syntax-ns#"
   xmlns:svg="http://www.w3.org/2000/svg"
   xmlns="http://www.w3.org/2000/svg"
   xmlns:xlink="http://www.w3.org/1999/xlink"
   xmlns:sodipodi="http://sodipodi.sourceforge.net/DTD/sodipodi-0.dtd"
   xmlns:inkscape="http://www.inkscape.org/namespaces/inkscape"
   width="0.26458332mm"
   height="0.36086458mm"
   viewBox="0 0 0.26458332 0.36086458"
   version="1.1"
   id="svg16176"
   inkscape:version="0.92.3 (2405546, 2018-03-11)"
   sodipodi:docname="present_mini.svg">
  <defs
     id="defs16170">
    <linearGradient
       inkscape:collect="always"
       xlink:href="#linearGradient15234"
       id="linearGradient15408"
       gradientUnits="userSpaceOnUse"
       gradientTransform="matrix(0.67267734,0,0,0.67267734,-64.98422,-809.61412)"
       x1="-358.94037"
       y1="-2358.5725"
       x2="-358.94037"
       y2="-2355.8242" />
    <linearGradient
       id="linearGradient15234"
       inkscape:collect="always">
      <stop
         id="stop15230"
         offset="0"
         style="stop-color:#f83d7a;stop-opacity:0.98039216" />
      <stop
         id="stop15232"
         offset="1"
         style="stop-color:#e01844;stop-opacity:0.98039216" />
    </linearGradient>
    <linearGradient
       inkscape:collect="always"
       xlink:href="#linearGradient15283"
       id="linearGradient15410"
       gradientUnits="userSpaceOnUse"
       gradientTransform="matrix(0.67267732,0,0,0.67267732,-64.984218,-809.61412)"
       x1="-358.94037"
       y1="-2358.5725"
       x2="-358.94037"
       y2="-2355.8242" />
    <linearGradient
       inkscape:collect="always"
       id="linearGradient15283">
      <stop
         style="stop-color:#ed4b8c;stop-opacity:0.98039216"
         offset="0"
         id="stop15279" />
      <stop
         style="stop-color:#c02c54;stop-opacity:0.98039216"
         offset="1"
         id="stop15281" />
    </linearGradient>
    <radialGradient
       inkscape:collect="always"
       xlink:href="#linearGradient19501"
       id="radialGradient19503-1-0-9"
       cx="-1315.7932"
       cy="-8758.8984"
       fx="-1315.7932"
       fy="-8758.8984"
       r="6.261692"
       gradientTransform="matrix(0.31227423,-1.7831792e-6,1.6914486e-6,0.29621021,104.15437,196.02488)"
       gradientUnits="userSpaceOnUse" />
    <linearGradient
       inkscape:collect="always"
       id="linearGradient19501">
      <stop
         style="stop-color:#ffda00;stop-opacity:1;"
         offset="0"
         id="stop19497" />
      <stop
         id="stop19505"
         offset="0.60002607"
         style="stop-color:#ffda00;stop-opacity:0.98039216" />
      <stop
         style="stop-color:#ea9c01;stop-opacity:0.98039216"
         offset="1"
         id="stop19499" />
    </linearGradient>
    <radialGradient
       inkscape:collect="always"
       xlink:href="#linearGradient15520"
       id="radialGradient15522-7"
       cx="-795.5166"
       cy="-8881.3359"
       fx="-795.5166"
       fy="-8881.3359"
       r="6.911974"
       gradientTransform="matrix(0.30943099,-0.10259821,0.02857484,0.08618026,193.58006,-1713.7879)"
       gradientUnits="userSpaceOnUse" />
    <linearGradient
       inkscape:collect="always"
       id="linearGradient15520">
      <stop
         style="stop-color:#ffc800;stop-opacity:1;"
         offset="0"
         id="stop15516" />
      <stop
         style="stop-color:#f2a101;stop-opacity:1"
         offset="1"
         id="stop15518" />
    </linearGradient>
    <radialGradient
       inkscape:collect="always"
       xlink:href="#linearGradient15528"
       id="radialGradient15072-3-1-7"
       cx="-358.81519"
       cy="-2235.261"
       fx="-358.81519"
       fy="-2235.261"
       r="0.57050782"
       gradientUnits="userSpaceOnUse"
       gradientTransform="matrix(0.85548991,0,0,0.85548991,0.37156811,-485.69821)" />
    <linearGradient
       id="linearGradient15528"
       inkscape:collect="always">
      <stop
         id="stop15524"
         offset="0"
         style="stop-color:#f9b200;stop-opacity:1" />
      <stop
         id="stop15526"
         offset="1"
         style="stop-color:#fba000;stop-opacity:1" />
    </linearGradient>
  </defs>
  <sodipodi:namedview
     id="base"
     pagecolor="#ffffff"
     bordercolor="#666666"
     borderopacity="1.0"
     inkscape:pageopacity="0.0"
     inkscape:pageshadow="2"
     inkscape:zoom="256"
     inkscape:cx="1.8898928"
     inkscape:cy="0.43036989"
     inkscape:document-units="mm"
     inkscape:current-layer="layer1"
     showgrid="false"
     inkscape:window-width="1920"
     inkscape:window-height="1057"
     inkscape:window-x="-8"
     inkscape:window-y="-8"
     inkscape:window-maximized="1" />
  <metadata
     id="metadata16173">
    <rdf:RDF>
      <cc:Work
         rdf:about="">
        <dc:format>image/svg+xml</dc:format>
        <dc:type
           rdf:resource="http://purl.org/dc/dcmitype/StillImage" />
        <dc:title />
      </cc:Work>
    </rdf:RDF>
  </metadata>
  <g
     inkscape:label="Layer 1"
     inkscape:groupmode="layer"
     id="layer1"
     transform="translate(109.31215,-155.20995)">
    <g
       id="g16034"
       transform="matrix(0.04858558,0,0,0.04858558,-94.280558,271.80493)">
      <rect
         ry="0.96177655"
         y="-2396.0989"
         x="-308.72595"
         height="3.7404785"
         width="4.130074"
         id="rect11214-7-7-7-4-9"
         style="opacity:0.18000004;fill:#000000;fill-opacity:0.99590167;fill-rule:nonzero;stroke:none;stroke-width:4.05429649;stroke-linecap:round;stroke-linejoin:round;stroke-miterlimit:4;stroke-dasharray:none;stroke-dashoffset:0;stroke-opacity:1;paint-order:markers stroke fill;filter:url(#filter1957)" />
      <rect
         style="opacity:1;fill:url(#linearGradient15408);fill-opacity:1;fill-rule:nonzero;stroke:#981834;stroke-width:1.00901604;stroke-linecap:round;stroke-linejoin:round;stroke-miterlimit:4;stroke-dasharray:none;stroke-dashoffset:0;stroke-opacity:0.98039216;paint-order:markers stroke fill"
         id="rect19112-5-7"
         width="3.3877258"
         height="5.0918455"
         x="-308.35464"
         y="-2399.2432"
         ry="0.5277018" />
      <path
         inkscape:connector-curvature="0"
         id="rect15274-8"
         d="m -308.09701,-2399.1673 c -0.15396,0.092 -0.25786,0.2586 -0.25786,0.4517 v 4.0364 c 0,0.1931 0.1039,0.3597 0.25786,0.4517 z m 2.87272,0 v 4.9387 c 0.15377,-0.092 0.25733,-0.2581 0.25733,-0.4511 v -4.0365 c 0,-0.1929 -0.10356,-0.3591 -0.25733,-0.4511 z"
         style="opacity:1;fill:url(#linearGradient15410);fill-opacity:1;fill-rule:nonzero;stroke:none;stroke-width:1.00901604;stroke-linecap:round;stroke-linejoin:round;stroke-miterlimit:4;stroke-dasharray:none;stroke-dashoffset:0;stroke-opacity:0.98039216;paint-order:markers stroke fill" />
      <path
         inkscape:connector-curvature="0"
         id="rect15236-8"
         d="m -307.82674,-2399.2432 c -0.29233,0 -0.52813,0.2352 -0.52813,0.5276 v 2.0247 c 0,0.2923 0.2358,0.5276 0.52813,0.5276 h 2.33217 c 0.29234,0 0.52761,-0.2353 0.52761,-0.5276 v -2.0247 c 0,-0.2924 -0.23527,-0.5276 -0.52761,-0.5276 z"
         style="opacity:1;fill:#f85389;fill-opacity:0.98039216;fill-rule:nonzero;stroke:none;stroke-width:1.00901604;stroke-linecap:round;stroke-linejoin:round;stroke-miterlimit:4;stroke-dasharray:none;stroke-dashoffset:0;stroke-opacity:0.98039216;paint-order:markers stroke fill" />
      <path
         inkscape:connector-curvature="0"
         id="path15268-4"
         d="m -308.09701,-2399.1667 c -0.15391,0.092 -0.25786,0.2581 -0.25786,0.4511 v 2.0247 c 0,0.1929 0.10395,0.3591 0.25786,0.4511 z m 2.87272,0 v 2.9269 c 0.15375,-0.092 0.25733,-0.2582 0.25733,-0.4511 v -2.0247 c 0,-0.193 -0.10358,-0.3592 -0.25733,-0.4511 z"
         style="opacity:1;fill:#e9709a;fill-opacity:0.98039216;fill-rule:nonzero;stroke:none;stroke-width:1.00901604;stroke-linecap:round;stroke-linejoin:round;stroke-miterlimit:4;stroke-dasharray:none;stroke-dashoffset:0;stroke-opacity:0.98039216;paint-order:markers stroke fill" />
      <rect
         style="opacity:1;fill:none;fill-opacity:1;fill-rule:nonzero;stroke:none;stroke-width:3.33509946;stroke-linecap:round;stroke-linejoin:round;stroke-miterlimit:4;stroke-dasharray:none;stroke-dashoffset:0;stroke-opacity:1;paint-order:markers stroke fill;filter:url(#filter1957)"
         id="rect11250-6-8-6-1"
         width="5.4457169"
         height="5.4457169"
         x="-309.38376"
         y="-2398.2983"
         ry="0" />
      <path
         inkscape:connector-curvature="0"
         style="opacity:0.41199999;fill:#000000;fill-opacity:1;stroke:#000000;stroke-width:0.50024408;stroke-linecap:butt;stroke-linejoin:round;stroke-miterlimit:4;stroke-dasharray:none;stroke-opacity:0.98039216;paint-order:markers stroke fill"
         d="m -305.76101,-2399.2164 c -0.0666,0 -0.1318,0.01 -0.19312,0.044 -0.42772,0.247 -0.55604,0.9 -0.58349,1.0708 a 0.48806369,0.48806369 0 0 0 -0.002,0 0.48806367,0.48806367 0 0 0 -0.051,0 0.48806367,0.48806367 0 0 0 -0.23124,0.059 c -0.0952,-0.083 -0.48875,-0.3964 -1.04225,-0.4036 -0.63306,-0.01 -0.58479,1.4973 0.0581,1.4973 0.51729,0 0.7023,-0.08 0.92,-0.2739 a 0.48806369,0.48806369 0 0 0 0.012,0.01 c -0.18814,0.2175 -0.19605,0.3672 -0.2242,0.6783 0.17109,0.1328 0.49318,0.2417 0.75257,0.074 -0.0252,-0.2416 -0.009,-0.3553 0.0734,-0.4989 0.20534,0.068 0.28994,0.1126 0.43389,0.3842 0.31594,-0.067 0.45999,-0.2878 0.49646,-0.5048 -0.18347,-0.1847 -0.25708,-0.2802 -0.50558,-0.3999 0.22933,-0.092 0.52288,-0.2376 0.73807,-0.4529 0.34352,-0.3436 -0.18427,-1.2466 -0.65022,-1.2773 z"
         id="path15537-3" />
      <path
         id="path15243-9-9-3"
         d="m -305.76013,-2399.5352 c -0.0666,0 -0.13269,0.01 -0.194,0.038 -0.42772,0.247 -0.55604,0.9001 -0.58349,1.0709 -8e-4,0 -0.002,0 -0.002,0 -0.017,0 -0.034,0 -0.051,0 -0.0807,1e-4 -0.16019,0.02 -0.23124,0.058 -0.0952,-0.083 -0.48875,-0.3965 -1.04224,-0.4037 -0.63306,-0.01 -0.58479,1.4973 0.058,1.4973 0.51729,0 0.70229,-0.08 0.91999,-0.2739 0.004,0 0.008,0.01 0.012,0.01 -0.18814,0.2175 -0.19606,0.3671 -0.2242,0.6784 0.17108,0.1327 0.49317,0.2415 0.75257,0.074 -0.0252,-0.2416 -0.009,-0.3554 0.0734,-0.4989 0.20534,0.068 0.28995,0.1125 0.43389,0.3841 0.31594,-0.067 0.45999,-0.2878 0.49647,-0.5047 -0.18347,-0.1847 -0.25709,-0.2803 -0.50559,-0.4 0.22934,-0.092 0.52288,-0.2376 0.73807,-0.4529 0.34352,-0.3435 -0.18426,-1.2466 -0.65021,-1.2772 z"
         style="opacity:1;fill:#ffda00;fill-opacity:1;stroke:#a36d06;stroke-width:0.5;stroke-linecap:butt;stroke-linejoin:round;stroke-miterlimit:4;stroke-dasharray:none;stroke-opacity:0.98039216;paint-order:markers stroke fill"
         inkscape:connector-curvature="0"
         sodipodi:nodetypes="cccccccsccccccccccc" />
      <path
         id="path19515-3-9-8"
         d="m -305.76077,-2399.5411 c -0.0666,0 -0.13207,0.01 -0.19338,0.044 -0.49038,0.2832 -0.5956,1.1416 -0.5956,1.1416 l 0.32523,0.591 -0.27123,0.3987 c 0.38711,0.1382 0.46874,0.1049 0.65624,0.4587 0.31594,-0.067 0.45985,-0.2876 0.49634,-0.5045 -0.18348,-0.1847 -0.25701,-0.2804 -0.50549,-0.4 0.22932,-0.092 0.52312,-0.2377 0.73831,-0.453 0.34352,-0.3435 -0.18448,-1.2463 -0.65042,-1.277 z m -2.10425,0.7642 c -0.63304,-0.01 -0.58479,1.4974 0.058,1.4974 0.56485,0 0.7324,-0.089 0.98027,-0.3248 -0.24605,0.2541 -0.24194,0.3978 -0.27268,0.7379 0.17108,0.1328 0.49339,0.2412 0.75277,0.074 -0.0365,-0.3521 0.002,-0.4291 0.23011,-0.7294 l -0.69443,-0.097 c 0.0294,-0.028 0.055,-0.05 0.0878,-0.084 l -0.058,-0.6369 c 0,0 -0.45061,-0.4302 -1.08363,-0.4384 z"
         style="opacity:1;fill:url(#radialGradient19503-1-0-9);fill-opacity:1;stroke:none;stroke-width:0.50024408;stroke-linecap:butt;stroke-linejoin:miter;stroke-miterlimit:4;stroke-dasharray:none;stroke-opacity:0.98039216;paint-order:markers stroke fill"
         inkscape:connector-curvature="0"
         sodipodi:nodetypes="ccccccccccccsccccccccc" />
      <path
         id="path15499-7"
         d="m -305.31801,-2398.5343 c -0.29713,-0.01 -0.74531,0.2206 -0.95356,0.4973 l 0.0551,0.051 -0.0945,0.064 0.0866,0.1571 -0.0705,0.1036 v 0 c 0.1575,-0.043 0.29345,-0.087 0.44632,-0.1513 0.22932,-0.092 0.52287,-0.2377 0.73807,-0.4529 0.0277,-0.028 0.0478,-0.06 0.0646,-0.094 -0.0375,-0.1177 -0.13934,-0.1709 -0.27226,-0.1753 z m -1.78114,0.6062 c -0.55205,0 -1.06387,0.3179 -0.81514,0.6325 0.0338,0.01 0.0694,0.016 0.10733,0.016 0.56486,0 0.73221,-0.089 0.98008,-0.3249 -0.0125,0.013 -0.0219,0.024 -0.0331,0.037 l 0.0767,-0.047 h -0.0278 c 0.0294,-0.028 0.055,-0.05 0.0879,-0.084 l -0.0162,-0.179 c -0.11686,-0.032 -0.23917,-0.047 -0.35972,-0.047 z"
         style="opacity:1;fill:url(#radialGradient15522-7);fill-opacity:1;stroke:none;stroke-width:0.21217835px;stroke-linecap:butt;stroke-linejoin:miter;stroke-opacity:1"
         inkscape:connector-curvature="0" />
      <path
         sodipodi:nodetypes="ccsc"
         inkscape:connector-curvature="0"
         id="path15495-5"
         d="m -307.91364,-2397.2944 c -0.20723,-0.3751 0.69377,-0.5174 1.185,-0.4685 -0.0198,-0.01 0.0288,-0.1088 0.01,-0.1144 -0.65557,-0.1925 -1.50379,0.1952 -1.19476,0.5829 z"
         style="opacity:1;fill:#f59900;fill-opacity:1;stroke:none;stroke-width:0.21217835px;stroke-linecap:butt;stroke-linejoin:miter;stroke-opacity:1" />
      <path
         sodipodi:nodetypes="cccc"
         inkscape:connector-curvature="0"
         id="path15497-5"
         d="m -305.0432,-2398.3543 c -0.11523,-0.3895 -0.92545,-0.085 -1.22836,0.3173 l 0.13384,0.1243 c 0.24675,-0.2467 0.88529,-0.7886 1.09452,-0.4416 z"
         style="opacity:1;fill:#f59900;fill-opacity:1;stroke:none;stroke-width:0.21217835px;stroke-linecap:butt;stroke-linejoin:miter;stroke-opacity:1" />
      <circle
         style="opacity:1;fill:url(#radialGradient15072-3-1-7);fill-opacity:1;fill-rule:nonzero;stroke:none;stroke-width:1.31175113;stroke-linecap:round;stroke-linejoin:round;stroke-miterlimit:4;stroke-dasharray:none;stroke-dashoffset:0;stroke-opacity:0.98039216;paint-order:markers stroke fill"
         id="path19474-3-7-7"
         cx="-306.59116"
         cy="-2397.9412"
         r="0.48806366" />
    </g>
  </g>
</svg>
