<?xml version="1.0" encoding="UTF-8" standalone="no"?>
<!-- Created with Inkscape (http://www.inkscape.org/) -->

<svg
   xmlns:dc="http://purl.org/dc/elements/1.1/"
   xmlns:cc="http://creativecommons.org/ns#"
   xmlns:rdf="http://www.w3.org/1999/02/22-rdf-syntax-ns#"
   xmlns:svg="http://www.w3.org/2000/svg"
   xmlns="http://www.w3.org/2000/svg"
   xmlns:sodipodi="http://sodipodi.sourceforge.net/DTD/sodipodi-0.dtd"
   xmlns:inkscape="http://www.inkscape.org/namespaces/inkscape"
   width="0.22489642mm"
   height="0.60854167mm"
   viewBox="0 0 0.22489642 0.60854167"
   version="1.1"
   id="svg11511"
   inkscape:version="0.92.4 (5da689c313, 2019-01-14)"
   sodipodi:docname="wall_sand_br.svg">
  <defs
     id="defs11505" />
  <sodipodi:namedview
     id="base"
     pagecolor="#ffffff"
     bordercolor="#666666"
     borderopacity="1.0"
     inkscape:pageopacity="0.0"
     inkscape:pageshadow="2"
     inkscape:zoom="89.6"
     inkscape:cx="1.1723046"
     inkscape:cy="2.6431442"
     inkscape:document-units="mm"
     inkscape:current-layer="layer1"
     showgrid="false"
     inkscape:window-width="1920"
     inkscape:window-height="1057"
     inkscape:window-x="-8"
     inkscape:window-y="-8"
     inkscape:window-maximized="1" />
  <metadata
     id="metadata11508">
    <rdf:RDF>
      <cc:Work
         rdf:about="">
        <dc:format>image/svg+xml</dc:format>
        <dc:type
           rdf:resource="http://purl.org/dc/dcmitype/StillImage" />
        <dc:title></dc:title>
      </cc:Work>
    </rdf:RDF>
  </metadata>
  <g
     inkscape:label="Layer 1"
     inkscape:groupmode="layer"
     id="layer1"
     transform="translate(99.010877,-139.19115)">
    <g
       id="g10029"
       transform="matrix(-0.04999989,0,0,0.04999989,-82.580287,206.00465)"
       style="stroke-width:20.00004387">
      <path
         inkscape:connector-curvature="0"
         style="opacity:0.18000004;fill:#000000;fill-opacity:0.99590167;fill-rule:nonzero;stroke:none;stroke-width:297.80575562;stroke-linecap:round;stroke-linejoin:round;stroke-miterlimit:4;stroke-dasharray:none;stroke-dashoffset:0;stroke-opacity:1;paint-order:markers stroke fill;filter:url(#filter1957)"
         d="m 1268,-5022.4805 v 9.5332 2.4688 2.4668 c 0,1.9569 1.5763,3.5312 3.5332,3.5312 h 5.5918 4.3418 3.5332 v -3.5312 -4.9356 -3.5332 h -3.5332 -4.3418 -1.25 v -6 z"
         transform="matrix(-0.26458333,0,0,0.26458333,664.10418,0)"
         id="rect19227-0-4-9-9-3-8-0-6" />
      <path
         sodipodi:nodetypes="ccccsccsccc"
         inkscape:connector-curvature="0"
         style="opacity:1;fill:#743828;fill-opacity:1;fill-rule:nonzero;stroke:none;stroke-width:80.00016785;stroke-linecap:square;stroke-linejoin:round;stroke-miterlimit:4;stroke-dasharray:none;stroke-dashoffset:0;stroke-opacity:1;paint-order:markers stroke fill"
         d="m 1228,-5050.4806 v 6.5001 c 0,1.228 -0.8597,2.2172 -1.9941,2.4493 v 0 c -0.1636,0.038 -0.3296,0.049 -0.5039,0.049 H 1225 v 31.0018 h 9 c 4.3945,0 8,-3.6052 8,-8 v -32 z"
         transform="scale(0.26458333)"
         id="path10017" />
      <path
         style="opacity:1;fill:#b06048;fill-opacity:1;fill-rule:nonzero;stroke:none;stroke-width:21.16671181;stroke-linecap:round;stroke-linejoin:round;stroke-miterlimit:4;stroke-dasharray:none;stroke-dashoffset:0;stroke-opacity:1;paint-order:markers stroke fill"
         d="m 325.4375,-1335.7437 v 1.1906 c 0,0.6575 -0.53306,1.1906 -1.19063,1.1906 h -0.13229 v 7.1437 h 2.38125 c 0.87675,0 1.5875,-0.7107 1.5875,-1.5875 v -7.9374 z"
         id="path10019"
         inkscape:connector-curvature="0"
         sodipodi:nodetypes="cssccsccc" />
      <path
         style="opacity:1;fill:#ffb88c;fill-opacity:1;fill-rule:nonzero;stroke:none;stroke-width:21.16671181;stroke-linecap:round;stroke-linejoin:round;stroke-miterlimit:4;stroke-dasharray:none;stroke-dashoffset:0;stroke-opacity:1;paint-order:markers stroke fill"
         d="m 325.4375,-1336.2729 v 1.7198 c 0,0.6575 -0.53306,1.1906 -1.19063,1.1906 h -0.13229 v 2.6458 h 1.32292 c 1.46124,0 2.64583,-1.1846 2.64583,-2.6458 v -2.9104 z"
         id="path10021"
         inkscape:connector-curvature="0"
         sodipodi:nodetypes="cccccsccc" />
      <path
         sodipodi:nodetypes="csccssc"
         inkscape:connector-curvature="0"
         style="opacity:1;fill:#9c4840;fill-opacity:1;fill-rule:nonzero;stroke:none;stroke-width:21.16671181;stroke-linecap:round;stroke-linejoin:round;stroke-miterlimit:4;stroke-dasharray:none;stroke-dashoffset:0;stroke-opacity:1;paint-order:markers stroke fill"
         d="m 328.08333,-1330.7167 c 0,0.8768 -0.71075,1.5875 -1.5875,1.5875 h -2.38125 v 2.9104 h 2.38125 c 0.87675,0 1.5875,-0.7108 1.5875,-1.5875 z"
         id="path10023" />
      <path
         sodipodi:nodetypes="ccsccccc"
         inkscape:connector-curvature="0"
         style="opacity:1;fill:#984440;fill-opacity:1;fill-rule:nonzero;stroke:none;stroke-width:21.16671181;stroke-linecap:round;stroke-linejoin:round;stroke-miterlimit:4;stroke-dasharray:none;stroke-dashoffset:0;stroke-opacity:1;paint-order:markers stroke fill"
         d="m 324.11458,-1329.1291 v 2.9104 l 1.5875,-1e-4 c 0.43837,0 0.79374,-0.4738 0.79375,-1.0583 v -1.8521 h -0.79375 -0.52916 z"
         id="path10025" />
      <path
         sodipodi:nodetypes="ccccccc"
         inkscape:connector-curvature="0"
         style="opacity:1;fill:#a45c44;fill-opacity:1;fill-rule:nonzero;stroke:none;stroke-width:21.16671181;stroke-linecap:round;stroke-linejoin:round;stroke-miterlimit:4;stroke-dasharray:none;stroke-dashoffset:0;stroke-opacity:1;paint-order:markers stroke fill"
         d="m 326.49583,-1330.9384 c -0.3243,0.1419 -0.68175,0.2217 -1.05833,0.2217 h -1.32292 v 1.5875 h 1.32292 c 0.58449,0 1.05832,-0.5923 1.05833,-1.3229 z"
         id="path10027" />
    </g>
  </g>
</svg>
