<?xml version="1.0" encoding="UTF-8" standalone="no"?>
<svg
   xmlns:dc="http://purl.org/dc/elements/1.1/"
   xmlns:cc="http://creativecommons.org/ns#"
   xmlns:rdf="http://www.w3.org/1999/02/22-rdf-syntax-ns#"
   xmlns:svg="http://www.w3.org/2000/svg"
   xmlns="http://www.w3.org/2000/svg"
   xmlns:sodipodi="http://sodipodi.sourceforge.net/DTD/sodipodi-0.dtd"
   xmlns:inkscape="http://www.inkscape.org/namespaces/inkscape"
   width="0.26458189mm"
   height="0.26458317mm"
   viewBox="0 0 0.26458189 0.26458317"
   version="1.1"
   id="svg32014"
   inkscape:version="1.0 (4035a4fb49, 2020-05-01)"
   sodipodi:docname="00000000.svg">
  <defs
     id="defs32008" />
  <sodipodi:namedview
     id="base"
     pagecolor="#ffffff"
     bordercolor="#666666"
     borderopacity="1.0"
     inkscape:pageopacity="0.0"
     inkscape:pageshadow="2"
     inkscape:zoom="256"
     inkscape:cx="0.99408607"
     inkscape:cy="0.17792983"
     inkscape:document-units="mm"
     inkscape:current-layer="g21249"
     showgrid="false"
     inkscape:window-width="1920"
     inkscape:window-height="1057"
     inkscape:window-x="-8"
     inkscape:window-y="-8"
     inkscape:window-maximized="1"
     inkscape:document-rotation="0" />
  <metadata
     id="metadata32011">
    <rdf:RDF>
      <cc:Work
         rdf:about="">
        <dc:format>image/svg+xml</dc:format>
        <dc:type
           rdf:resource="http://purl.org/dc/dcmitype/StillImage" />
        <dc:title />
      </cc:Work>
    </rdf:RDF>
  </metadata>
  <g
     inkscape:label="Layer 1"
     inkscape:groupmode="layer"
     id="layer1"
     transform="translate(-3.6474708,-324.08199)">
    <g
       inkscape:export-ydpi="450"
       inkscape:export-xdpi="450"
       inkscape:export-filename="C:\Users\Donatas\Documents\ShareX\Screenshots\2019-01\BSMGWaterTileSet.png"
       id="g21249"
       style="opacity:1;filter:url(#filter1957)"
       transform="matrix(0.04858588,0,0,0.04858588,77.286238,379.83984)">
      <path
         style="opacity:1;fill:#89412b;fill-opacity:1;fill-rule:nonzero;stroke:none;stroke-width:10.58267689;stroke-linecap:round;stroke-linejoin:round;stroke-miterlimit:4;stroke-dasharray:none;stroke-dashoffset:0;stroke-opacity:1;paint-order:markers stroke fill"
         d="m -5721.957,-4337.4395 c -3.5747,0 -6.4512,2.8785 -6.4512,6.4532 v 3.8379 3.8379 c 0,3.5746 2.8765,6.4531 6.4512,6.4531 h 3.8398 3.8399 c 3.5746,0 6.4511,-2.8785 6.4511,-6.4531 v -3.8379 -3.8379 c 0,-3.5747 -2.8765,-6.4532 -6.4511,-6.4532 h -3.8399 z"
         transform="scale(0.26458333)"
         id="path21241"
         inkscape:connector-curvature="0" />
      <path
         style="opacity:1;fill:#b56651;fill-opacity:1;fill-rule:nonzero;stroke:none;stroke-width:10.61747932;stroke-linecap:round;stroke-linejoin:round;stroke-miterlimit:4;stroke-dasharray:none;stroke-dashoffset:0;stroke-opacity:1;paint-order:markers stroke fill"
         d="m -5721.4961,-4335.4766 c -2.7417,0 -4.9492,2.2076 -4.9492,4.9493 v 3.3789 3.3789 c 0,2.7413 2.2075,4.9492 4.9492,4.9492 h 3.3789 3.3789 c 2.7417,0 4.9492,-2.2076 4.9492,-4.9492 v -3.3789 -3.3789 c 0,-2.7417 -2.2075,-4.9493 -4.9492,-4.9493 h -3.3789 z"
         transform="scale(0.26458333)"
         id="path21243"
         inkscape:connector-curvature="0" />
      <path
         style="opacity:1;fill:#4eb9f6;fill-opacity:1;fill-rule:nonzero;stroke:none;stroke-width:10.66916656;stroke-linecap:round;stroke-linejoin:round;stroke-miterlimit:4;stroke-dasharray:none;stroke-dashoffset:0;stroke-opacity:1;paint-order:markers stroke fill"
         d="m -5720.4883,-4333.5117 c -2.2121,0 -3.9941,1.7804 -3.9941,3.9922 v 2.3711 2.3711 c 0,2.2125 1.782,3.9921 3.9941,3.9921 h 2.3711 2.3711 c 2.2122,0 3.9941,-1.7796 3.9941,-3.9921 v -2.3711 -2.3711 c 0,-2.2118 -1.7819,-3.9922 -3.9941,-3.9922 h -2.3711 z"
         transform="scale(0.26458333)"
         id="path21245"
         inkscape:connector-curvature="0" />
      <path
         style="opacity:1;fill:#1f97df;fill-opacity:1;fill-rule:nonzero;stroke:none;stroke-width:10.71935654;stroke-linecap:round;stroke-linejoin:round;stroke-miterlimit:4;stroke-dasharray:none;stroke-dashoffset:0;stroke-opacity:1;paint-order:markers stroke fill"
         d="m -5719.7832,-4331.5488 c -1.5152,0 -2.7344,1.2191 -2.7344,2.7343 v 1.6661 1.666 c 0,1.5152 1.2192,2.7344 2.7344,2.7344 h 1.666 1.666 c 1.5152,0 2.7344,-1.2192 2.7344,-2.7344 v -1.666 -1.6661 c 0,-1.5152 -1.2192,-2.7343 -2.7344,-2.7343 h -1.666 z"
         transform="scale(0.26458333)"
         id="path21247"
         inkscape:connector-curvature="0" />
    </g>
  </g>
</svg>
