<?xml version="1.0" encoding="UTF-8" standalone="no"?>
<!-- Created with Inkscape (http://www.inkscape.org/) -->

<svg
   xmlns:dc="http://purl.org/dc/elements/1.1/"
   xmlns:cc="http://creativecommons.org/ns#"
   xmlns:rdf="http://www.w3.org/1999/02/22-rdf-syntax-ns#"
   xmlns:svg="http://www.w3.org/2000/svg"
   xmlns="http://www.w3.org/2000/svg"
   xmlns:sodipodi="http://sodipodi.sourceforge.net/DTD/sodipodi-0.dtd"
   xmlns:inkscape="http://www.inkscape.org/namespaces/inkscape"
   width="0.29104167mm"
   height="0.44979334mm"
   viewBox="0 0 0.29104167 0.44979334"
   version="1.1"
   id="svg27006"
   inkscape:version="0.92.4 (5da689c313, 2019-01-14)"
   sodipodi:docname="arcade_fence_hor.svg">
  <defs
     id="defs27000" />
  <sodipodi:namedview
     id="base"
     pagecolor="#ffffff"
     bordercolor="#666666"
     borderopacity="1.0"
     inkscape:pageopacity="0.0"
     inkscape:pageshadow="2"
     inkscape:zoom="253.42707"
     inkscape:cx="1.610575"
     inkscape:cy="0.64288761"
     inkscape:document-units="mm"
     inkscape:current-layer="layer1"
     showgrid="false"
     fit-margin-top="0"
     fit-margin-left="0"
     fit-margin-right="0"
     fit-margin-bottom="0"
     inkscape:window-width="1920"
     inkscape:window-height="1057"
     inkscape:window-x="-8"
     inkscape:window-y="-8"
     inkscape:window-maximized="1" />
  <metadata
     id="metadata27003">
    <rdf:RDF>
      <cc:Work
         rdf:about="">
        <dc:format>image/svg+xml</dc:format>
        <dc:type
           rdf:resource="http://purl.org/dc/dcmitype/StillImage" />
        <dc:title></dc:title>
      </cc:Work>
    </rdf:RDF>
  </metadata>
  <g
     inkscape:label="Layer 1"
     inkscape:groupmode="layer"
     id="layer1"
     transform="translate(246.32709,-96.940975)">
    <g
       id="g9089"
       transform="matrix(0.05,0,0,0.05,-245.66563,158.39681)">
      <rect
         style="opacity:0.18000004;fill:#000000;fill-opacity:0.99590167;fill-rule:nonzero;stroke:none;stroke-width:3.93964863;stroke-linecap:round;stroke-linejoin:round;stroke-miterlimit:4;stroke-dasharray:none;stroke-dashoffset:0;stroke-opacity:1;paint-order:markers stroke fill;filter:url(#filter1957)"
         id="rect19227-0-4-9-2-7-4-7-0-5-4"
         width="5.2916665"
         height="3.174943"
         x="-12.964581"
         y="-1223.2958"
         ry="1.0583171" />
      <path
         id="path9065"
         transform="scale(0.26458333)"
         d="m -39,-4645.4805 c -6.059403,0 -11,4.9407 -11,11 v 14 c 0,1.6275 1.372551,3 3,3 h 16 c 1.627453,0 3,-1.3725 3,-3 v -14 c 0,-6.0593 -4.940595,-11 -11,-11 z"
         style="opacity:1;fill:#282c58;fill-opacity:1;fill-rule:nonzero;stroke:none;stroke-width:3.99999976;stroke-linecap:round;stroke-linejoin:round;stroke-miterlimit:4;stroke-dasharray:none;stroke-dashoffset:0;stroke-opacity:1;paint-order:markers stroke fill"
         inkscape:connector-curvature="0" />
      <path
         sodipodi:nodetypes="sccssccs"
         inkscape:connector-curvature="0"
         id="rect8929-3"
         transform="scale(0.26458333)"
         d="m -39,-4643.4805 c -4.986,0 -9,4.014 -9,9 0,4.6667 0,9.3333 0,14 0,0.554 0.446051,1 1,1 h 16 c 0.553949,0 1,-0.446 1,-1 0,-4.6667 0,-9.3333 0,-14 0,-4.986 -4.014,-9 -9,-9 z"
         style="opacity:1;fill:#cccce8;fill-opacity:1;fill-rule:nonzero;stroke:none;stroke-width:3.99999976;stroke-linecap:round;stroke-linejoin:round;stroke-miterlimit:4;stroke-dasharray:none;stroke-dashoffset:0;stroke-opacity:1;paint-order:markers stroke fill" />
      <path
         id="path9057"
         transform="scale(0.26458333)"
         d="M -43.667969,-4642.1719 C -46.2656,-4640.5968 -48,-4637.7525 -48,-4634.4805 v 7.334 l 7,-9.334 c -0.428915,-1.6064 -1.124119,-3.8516 -2.667969,-5.6914 z"
         style="opacity:1;fill:#8c90d0;fill-opacity:1;fill-rule:nonzero;stroke:none;stroke-width:3.99999976;stroke-linecap:round;stroke-linejoin:round;stroke-miterlimit:4;stroke-dasharray:none;stroke-dashoffset:0;stroke-opacity:1;paint-order:markers stroke fill"
         inkscape:connector-curvature="0" />
      <path
         sodipodi:nodetypes="sscscss"
         inkscape:connector-curvature="0"
         id="path9046"
         transform="scale(0.26458333)"
         d="m -39,-4640.4805 c -4.985998,0 -9,4.0141 -9,9 v 2 c 0,-4.986 4.014,-9 9,-9 4.986,0 9,4.014 9,9 v -2 c 0,-4.9859 -4.014,-9 -9,-9 z"
         style="opacity:1;fill:#e0e4f4;fill-opacity:1;fill-rule:nonzero;stroke:none;stroke-width:3.99999976;stroke-linecap:round;stroke-linejoin:round;stroke-miterlimit:4;stroke-dasharray:none;stroke-dashoffset:0;stroke-opacity:1;paint-order:markers stroke fill" />
      <path
         style="opacity:1;fill:#9ca0dc;fill-opacity:1;fill-rule:nonzero;stroke:none;stroke-width:3.99999976;stroke-linecap:round;stroke-linejoin:round;stroke-miterlimit:4;stroke-dasharray:none;stroke-dashoffset:0;stroke-opacity:1;paint-order:markers stroke fill"
         d="m -39,-4638.4805 c -4.986,0 -9,4.014 -9,9 v 9 c 0,0.554 0.446051,1 1,1 h 16 c 0.553949,0 1,-0.446 1,-1 v -9 c 0,-4.986 -4.014,-9 -9,-9 z"
         transform="scale(0.26458333)"
         id="path9044"
         inkscape:connector-curvature="0"
         sodipodi:nodetypes="sccssccs" />
      <path
         style="opacity:1;fill:#7074b8;fill-opacity:1;fill-rule:nonzero;stroke:none;stroke-width:1.05833328;stroke-linecap:round;stroke-linejoin:round;stroke-miterlimit:4;stroke-dasharray:none;stroke-dashoffset:0;stroke-opacity:1;paint-order:markers stroke fill"
         d="m -10.31875,-1225.9417 c -1.026054,0 -1.852083,0.8261 -1.852083,1.8521 0,0.3528 0,0.7056 0,1.0584 0,0.1466 0.11799,0.2645 0.264583,0.2645 1.058333,0 2.1166668,0 3.1750001,0 0.1465932,0 0.2645833,-0.1179 0.2645833,-0.2645 0,-0.3528 0,-0.7056 0,-1.0584 0,-1.026 -0.8260291,-1.8521 -1.8520834,-1.8521 z"
         id="path9015"
         inkscape:connector-curvature="0"
         sodipodi:nodetypes="sccccccs" />
      <path
         sodipodi:nodetypes="sccccccs"
         inkscape:connector-curvature="0"
         id="rect8964"
         transform="scale(0.26458333)"
         d="m -39,-4635.4805 c -3.878,0 -7,3.122 -7,7 0,1.3333 0,2.6667 0,4 0,0.5541 0.445947,1 1,1 4,0 8,0 12,0 0.554053,0 1,-0.4459 1,-1 0,-1.3333 0,-2.6667 0,-4 0,-3.878 -3.122,-7 -7,-7 z"
         style="opacity:1;fill:#f4a408;fill-opacity:1;fill-rule:nonzero;stroke:none;stroke-width:3.99999976;stroke-linecap:round;stroke-linejoin:round;stroke-miterlimit:4;stroke-dasharray:none;stroke-dashoffset:0;stroke-opacity:1;paint-order:markers stroke fill" />
      <path
         id="path8970"
         transform="scale(0.26458333)"
         d="m -42.523438,-4634.5293 c -1.84042,1.0711 -3.140104,2.9557 -3.416015,5.1699 L -43,-4623.4805 h 6 z"
         style="opacity:1;fill:#684800;fill-opacity:1;stroke:none;stroke-width:0.99999994px;stroke-linecap:butt;stroke-linejoin:miter;stroke-opacity:1"
         inkscape:connector-curvature="0" />
      <path
         id="path8972"
         transform="scale(0.26458333)"
         d="m -39,-4635.4805 6,12 c 0.554053,0 1,-0.4459 1,-1 v -4 c 0,-3.878 -3.122,-7 -7,-7 z"
         style="opacity:1;fill:#684800;fill-opacity:1;stroke:none;stroke-width:0.99999994px;stroke-linecap:butt;stroke-linejoin:miter;stroke-opacity:1"
         inkscape:connector-curvature="0" />
      <path
         id="path8994"
         transform="scale(0.26458333)"
         d="m -39,-4635.4805 c -3.878,0 -7,3.122 -7,7 v 3 c 0,-3.8781 3.122001,-7 7,-7 3.878001,0 7,3.1219 7,7 v -3 c 0,-3.878 -3.122,-7 -7,-7 z"
         style="opacity:0.15;fill:#000000;fill-opacity:1;fill-rule:nonzero;stroke:none;stroke-width:3.99999976;stroke-linecap:round;stroke-linejoin:round;stroke-miterlimit:4;stroke-dasharray:none;stroke-dashoffset:0;stroke-opacity:1;paint-order:markers stroke fill"
         inkscape:connector-curvature="0" />
      <path
         id="path9055"
         transform="scale(0.26458333)"
         d="m -42.201172,-4639.8867 c -3.393784,1.2866 -5.798828,4.5508 -5.798828,8.4062 v 2 c 0,-4.1201 2.744355,-7.5683 6.509766,-8.6445 -0.191592,-0.5685 -0.424656,-1.1645 -0.710938,-1.7617 z"
         style="opacity:1;fill:#c0c4e4;fill-opacity:1;stroke:none;stroke-width:0.99999994px;stroke-linecap:butt;stroke-linejoin:miter;stroke-opacity:1"
         inkscape:connector-curvature="0" />
    </g>
  </g>
</svg>
