<?xml version="1.0" encoding="UTF-8" standalone="no"?>
<!-- Created with Inkscape (http://www.inkscape.org/) -->

<svg
   xmlns:dc="http://purl.org/dc/elements/1.1/"
   xmlns:cc="http://creativecommons.org/ns#"
   xmlns:rdf="http://www.w3.org/1999/02/22-rdf-syntax-ns#"
   xmlns:svg="http://www.w3.org/2000/svg"
   xmlns="http://www.w3.org/2000/svg"
   xmlns:sodipodi="http://sodipodi.sourceforge.net/DTD/sodipodi-0.dtd"
   xmlns:inkscape="http://www.inkscape.org/namespaces/inkscape"
   width="0.26458332mm"
   height="0.46105766mm"
   viewBox="0 0 0.26458332 0.46105766"
   version="1.1"
   id="svg16951"
   inkscape:version="0.92.3 (2405546, 2018-03-11)"
   sodipodi:docname="grass_blue.svg">
  <defs
     id="defs16945" />
  <sodipodi:namedview
     id="base"
     pagecolor="#ffffff"
     bordercolor="#666666"
     borderopacity="1.0"
     inkscape:pageopacity="0.0"
     inkscape:pageshadow="2"
     inkscape:zoom="253.42707"
     inkscape:cx="0.83267746"
     inkscape:cy="0.63342637"
     inkscape:document-units="mm"
     inkscape:current-layer="layer1"
     showgrid="false"
     inkscape:window-width="1920"
     inkscape:window-height="1057"
     inkscape:window-x="-8"
     inkscape:window-y="-8"
     inkscape:window-maximized="1" />
  <metadata
     id="metadata16948">
    <rdf:RDF>
      <cc:Work
         rdf:about="">
        <dc:format>image/svg+xml</dc:format>
        <dc:type
           rdf:resource="http://purl.org/dc/dcmitype/StillImage" />
        <dc:title></dc:title>
      </cc:Work>
    </rdf:RDF>
  </metadata>
  <g
     inkscape:label="Layer 1"
     inkscape:groupmode="layer"
     id="layer1"
     transform="translate(-392.83577,70.754984)">
    <g
       style="opacity:0.98000004;filter:url(#filter1957)"
       id="g11252-6-7"
       transform="matrix(0.04777088,0,0,0.04777088,473.81628,-19.994511)"
       inkscape:export-filename="C:\Users\Donatas\Documents\ShareX\Screenshots\2019-01\AssetTest.png"
       inkscape:export-xdpi="650"
       inkscape:export-ydpi="650">
      <rect
         ry="0.97808504"
         y="-1056.7344"
         x="-1695.1852"
         height="3.8038909"
         width="5.5379038"
         id="rect11214-7-7"
         style="opacity:0.18000004;fill:#000000;fill-opacity:0.99590167;fill-rule:nonzero;stroke:none;stroke-width:4.12304354;stroke-linecap:round;stroke-linejoin:round;stroke-miterlimit:4;stroke-dasharray:none;stroke-dashoffset:0;stroke-opacity:1;paint-order:markers stroke fill" />
      <g
         transform="matrix(1.0468529,0,0,1.0468529,79.439752,49.779369)"
         style="opacity:1;fill:#a0b8ff;fill-opacity:0.98039216"
         id="g11224-8-9">
        <path
           sodipodi:nodetypes="scszs"
           inkscape:connector-curvature="0"
           id="path11216-1-2"
           d="m -1691.6734,-1060.7513 c 0,1.008 -0.3948,1.8251 -0.8817,1.8251 -0.4869,0 -0.8817,-0.8171 -0.8817,-1.8251 0,-0.1983 0.5804,-1.8252 0.8817,-1.8252 0.3013,0 0.8817,1.5897 0.8817,1.8252 z"
           style="opacity:1;fill:#a0b8ff;fill-opacity:0.98039216;fill-rule:nonzero;stroke:none;stroke-width:4.04755688;stroke-linecap:round;stroke-linejoin:round;stroke-miterlimit:4;stroke-dasharray:none;stroke-dashoffset:0;stroke-opacity:1;paint-order:markers stroke fill" />
        <rect
           y="-1060.7512"
           x="-1695.2001"
           height="2.2197826"
           width="5.2901859"
           id="rect11218-9-8"
           style="opacity:1;fill:#a0b8ff;fill-opacity:0.98039216;fill-rule:nonzero;stroke:none;stroke-width:2.645401;stroke-linecap:round;stroke-linejoin:round;stroke-miterlimit:4;stroke-dasharray:none;stroke-dashoffset:0;stroke-opacity:1;paint-order:markers stroke fill" />
        <path
           style="opacity:1;fill:#a0b8ff;fill-opacity:0.98039216;fill-rule:nonzero;stroke:none;stroke-width:4.04755688;stroke-linecap:round;stroke-linejoin:round;stroke-miterlimit:4;stroke-dasharray:none;stroke-dashoffset:0;stroke-opacity:1;paint-order:markers stroke fill"
           d="m -1689.91,-1060.7513 c 0,1.008 -0.3948,1.8251 -0.8817,1.8251 -0.4869,0 -0.8817,-0.8171 -0.8817,-1.8251 0,-0.1983 0.5804,-1.8252 0.8817,-1.8252 0.3013,0 0.8817,1.5897 0.8817,1.8252 z"
           id="path11220-1-9"
           inkscape:connector-curvature="0"
           sodipodi:nodetypes="scszs" />
        <path
           sodipodi:nodetypes="scszs"
           inkscape:connector-curvature="0"
           id="path11222-5-3"
           d="m -1693.4368,-1060.7513 c 0,1.008 -0.3948,1.8251 -0.8817,1.8251 -0.4869,0 -0.8817,-0.8171 -0.8817,-1.8251 0,-0.1983 0.5804,-1.8252 0.8817,-1.8252 0.3013,0 0.8817,1.5897 0.8817,1.8252 z"
           style="opacity:1;fill:#a0b8ff;fill-opacity:0.98039216;fill-rule:nonzero;stroke:none;stroke-width:4.04755688;stroke-linecap:round;stroke-linejoin:round;stroke-miterlimit:4;stroke-dasharray:none;stroke-dashoffset:0;stroke-opacity:1;paint-order:markers stroke fill" />
      </g>
      <g
         style="opacity:1;fill:#6488f4;fill-opacity:0.98039216"
         transform="matrix(1.0468529,0,0,1.0468529,79.439752,49.759509)"
         id="g11236-3-3">
        <path
           style="opacity:1;fill:#6488f4;fill-opacity:0.98039216;fill-rule:nonzero;stroke:none;stroke-width:4.04755688;stroke-linecap:round;stroke-linejoin:round;stroke-miterlimit:4;stroke-dasharray:none;stroke-dashoffset:0;stroke-opacity:1;paint-order:markers stroke fill"
           d="m -1690.7916,-1058.9262 c 0,1.008 -0.3948,1.8251 -0.8817,1.8251 -0.4869,0 -0.8817,-0.8171 -0.8817,-1.8251 0,-0.1983 0.5804,-1.8252 0.8817,-1.8252 0.3013,0 0.8817,1.5897 0.8817,1.8252 z"
           id="path11226-0-1"
           inkscape:connector-curvature="0"
           sodipodi:nodetypes="scszs" />
        <rect
           style="opacity:1;fill:#6488f4;fill-opacity:0.98039216;fill-rule:nonzero;stroke:none;stroke-width:2.645401;stroke-linecap:round;stroke-linejoin:round;stroke-miterlimit:4;stroke-dasharray:none;stroke-dashoffset:0;stroke-opacity:1;paint-order:markers stroke fill"
           id="rect11228-1-7"
           width="5.2901859"
           height="2.2197826"
           x="-1695.2001"
           y="-1058.926" />
        <path
           style="opacity:1;fill:#6488f4;fill-opacity:0.98039216;fill-rule:nonzero;stroke:none;stroke-width:15.29785252;stroke-linecap:round;stroke-linejoin:round;stroke-miterlimit:4;stroke-dasharray:none;stroke-dashoffset:0;stroke-opacity:1;paint-order:markers stroke fill"
           d="m -6387.0605,-4009.1387 c -1.1388,0 -3.3321,6.149 -3.3321,6.8985 0,3.8097 1.4918,6.8984 3.3321,6.8984 z"
           transform="scale(0.26458333)"
           id="path11230-4-0"
           inkscape:connector-curvature="0" />
        <path
           style="opacity:1;fill:#6488f4;fill-opacity:0.98039216;fill-rule:nonzero;stroke:none;stroke-width:4.04755688;stroke-linecap:round;stroke-linejoin:round;stroke-miterlimit:4;stroke-dasharray:none;stroke-dashoffset:0;stroke-opacity:1;paint-order:markers stroke fill"
           d="m -1692.555,-1058.9262 c 0,1.008 -0.3948,1.8251 -0.8817,1.8251 -0.4869,0 -0.8817,-0.8171 -0.8817,-1.8251 0,-0.1983 0.5804,-1.8252 0.8817,-1.8252 0.3013,0 0.8817,1.5897 0.8817,1.8252 z"
           id="path11232-2-8"
           inkscape:connector-curvature="0"
           sodipodi:nodetypes="scszs" />
        <path
           style="opacity:1;fill:#6488f4;fill-opacity:0.98039216;fill-rule:nonzero;stroke:none;stroke-width:15.29785252;stroke-linecap:round;stroke-linejoin:round;stroke-miterlimit:4;stroke-dasharray:none;stroke-dashoffset:0;stroke-opacity:1;paint-order:markers stroke fill"
           d="m -6407.0566,-4009.1387 v 13.7969 c 6e-4,0 0,0 0,0 1.8403,0 3.332,-3.0887 3.332,-6.8984 0,-0.8901 -2.1932,-6.8985 -3.332,-6.8985 -6e-4,0 0,0 0,0 z"
           transform="scale(0.26458333)"
           id="path11234-3-4"
           inkscape:connector-curvature="0" />
      </g>
      <g
         style="opacity:1;fill:#3464e4;fill-opacity:0.98039216"
         transform="matrix(1.0468529,0,0,1.0468529,79.439752,49.461508)"
         id="g11248-3-3">
        <path
           style="opacity:1;fill:#3464e4;fill-opacity:0.98039216;fill-rule:nonzero;stroke:none;stroke-width:4.04755688;stroke-linecap:round;stroke-linejoin:round;stroke-miterlimit:4;stroke-dasharray:none;stroke-dashoffset:0;stroke-opacity:1;paint-order:markers stroke fill"
           d="m -1691.6734,-1057.101 c 0,1.008 -0.3948,1.8251 -0.8817,1.8251 -0.4869,0 -0.8817,-0.8171 -0.8817,-1.8251 0,-0.1983 0.5804,-1.8252 0.8817,-1.8252 0.3013,0 0.8817,1.5897 0.8817,1.8252 z"
           id="path11240-1-8"
           inkscape:connector-curvature="0"
           sodipodi:nodetypes="scszs" />
        <rect
           style="opacity:1;fill:#3464e4;fill-opacity:0.98039216;fill-rule:nonzero;stroke:none;stroke-width:2.64960074;stroke-linecap:round;stroke-linejoin:round;stroke-miterlimit:4;stroke-dasharray:none;stroke-dashoffset:0;stroke-opacity:1;paint-order:markers stroke fill"
           id="rect11242-4-6"
           width="5.290247"
           height="2.2268107"
           x="-1695.2002"
           y="-1057.101" />
        <path
           sodipodi:nodetypes="scszs"
           inkscape:connector-curvature="0"
           id="path11244-0-7"
           d="m -1689.91,-1057.101 c 0,1.008 -0.3948,1.8251 -0.8817,1.8251 -0.4869,0 -0.8817,-0.8171 -0.8817,-1.8251 0,-0.1983 0.5804,-1.8252 0.8817,-1.8252 0.3013,0 0.8817,1.5897 0.8817,1.8252 z"
           style="opacity:1;fill:#3464e4;fill-opacity:0.98039216;fill-rule:nonzero;stroke:none;stroke-width:4.04755688;stroke-linecap:round;stroke-linejoin:round;stroke-miterlimit:4;stroke-dasharray:none;stroke-dashoffset:0;stroke-opacity:1;paint-order:markers stroke fill" />
        <path
           style="opacity:1;fill:#3464e4;fill-opacity:0.98039216;fill-rule:nonzero;stroke:none;stroke-width:4.04755688;stroke-linecap:round;stroke-linejoin:round;stroke-miterlimit:4;stroke-dasharray:none;stroke-dashoffset:0;stroke-opacity:1;paint-order:markers stroke fill"
           d="m -1693.4368,-1057.101 c 0,1.008 -0.3948,1.8251 -0.8817,1.8251 -0.4869,0 -0.8817,-0.8171 -0.8817,-1.8251 0,-0.1983 0.5804,-1.8252 0.8817,-1.8252 0.3013,0 0.8817,1.5897 0.8817,1.8252 z"
           id="path11246-3-1"
           inkscape:connector-curvature="0"
           sodipodi:nodetypes="scszs" />
        <rect
           y="-1055.1088"
           x="-1695.2"
           height="0.48820877"
           width="5.2898402"
           id="rect11238-4-6"
           style="opacity:1;fill:#2848ac;fill-opacity:0.98039216;fill-rule:nonzero;stroke:none;stroke-width:1.24058044;stroke-linecap:round;stroke-linejoin:round;stroke-miterlimit:4;stroke-dasharray:none;stroke-dashoffset:0;stroke-opacity:1;paint-order:markers stroke fill" />
      </g>
      <rect
         ry="0"
         y="-1060.1515"
         x="-1695.1854"
         height="5.5380578"
         width="5.5380578"
         id="rect11250-6-8"
         style="opacity:0;fill:#ff00ff;fill-opacity:1;fill-rule:nonzero;stroke:none;stroke-width:3.39165163;stroke-linecap:round;stroke-linejoin:round;stroke-miterlimit:4;stroke-dasharray:none;stroke-dashoffset:0;stroke-opacity:1;paint-order:markers stroke fill;filter:url(#filter1957)" />
    </g>
  </g>
</svg>
