<?xml version="1.0" encoding="UTF-8" standalone="no"?>
<!-- Created with Inkscape (http://www.inkscape.org/) -->

<svg
   xmlns:dc="http://purl.org/dc/elements/1.1/"
   xmlns:cc="http://creativecommons.org/ns#"
   xmlns:rdf="http://www.w3.org/1999/02/22-rdf-syntax-ns#"
   xmlns:svg="http://www.w3.org/2000/svg"
   xmlns="http://www.w3.org/2000/svg"
   xmlns:xlink="http://www.w3.org/1999/xlink"
   xmlns:sodipodi="http://sodipodi.sourceforge.net/DTD/sodipodi-0.dtd"
   xmlns:inkscape="http://www.inkscape.org/namespaces/inkscape"
   width="0.29104167mm"
   height="0.47625372mm"
   viewBox="0 0 0.29104167 0.47625372"
   version="1.1"
   id="svg15219"
   inkscape:version="0.92.4 (5da689c313, 2019-01-14)"
   sodipodi:docname="tent.svg">
  <defs
     id="defs15213">
    <linearGradient
       inkscape:collect="always"
       xlink:href="#linearGradient10834"
       id="linearGradient10828"
       x1="292.89374"
       y1="-1307.6979"
       x2="297.65625"
       y2="-1307.6979"
       gradientUnits="userSpaceOnUse" />
    <linearGradient
       id="linearGradient10834"
       inkscape:collect="always">
      <stop
         id="stop10830"
         offset="0"
         style="stop-color:#9c6040;stop-opacity:1" />
      <stop
         id="stop10832"
         offset="1"
         style="stop-color:#b88058;stop-opacity:1" />
    </linearGradient>
    <linearGradient
       inkscape:collect="always"
       xlink:href="#linearGradient10816"
       id="linearGradient10818"
       x1="1108.9062"
       y1="-4940.4805"
       x2="1123.9551"
       y2="-4940.6602"
       gradientUnits="userSpaceOnUse" />
    <linearGradient
       inkscape:collect="always"
       id="linearGradient10816">
      <stop
         style="stop-color:#804428;stop-opacity:1"
         offset="0"
         id="stop10812" />
      <stop
         style="stop-color:#9c6038;stop-opacity:1"
         offset="1"
         id="stop10814" />
    </linearGradient>
    <linearGradient
       inkscape:collect="always"
       xlink:href="#linearGradient10824"
       id="linearGradient10826"
       x1="1107"
       y1="-4942.4805"
       x2="1125"
       y2="-4942.48"
       gradientUnits="userSpaceOnUse" />
    <linearGradient
       inkscape:collect="always"
       id="linearGradient10824">
      <stop
         style="stop-color:#c07850;stop-opacity:1"
         offset="0"
         id="stop10820" />
      <stop
         style="stop-color:#dc9868;stop-opacity:1"
         offset="1"
         id="stop10822" />
    </linearGradient>
    <linearGradient
       inkscape:collect="always"
       xlink:href="#linearGradient10808"
       id="linearGradient10810"
       x1="1108.8281"
       y1="-4944.4805"
       x2="1123.0001"
       y2="-4944.4805"
       gradientUnits="userSpaceOnUse" />
    <linearGradient
       inkscape:collect="always"
       id="linearGradient10808">
      <stop
         style="stop-color:#a05434;stop-opacity:1;"
         offset="0"
         id="stop10804" />
      <stop
         style="stop-color:#bc7448;stop-opacity:1"
         offset="1"
         id="stop10806" />
    </linearGradient>
    <linearGradient
       inkscape:collect="always"
       xlink:href="#linearGradient10834"
       id="linearGradient10845"
       gradientUnits="userSpaceOnUse"
       x1="292.89374"
       y1="-1307.6979"
       x2="297.65625"
       y2="-1307.6979"
       gradientTransform="translate(0,2.3812825)" />
    <linearGradient
       inkscape:collect="always"
       xlink:href="#linearGradient10816"
       id="linearGradient10847"
       gradientUnits="userSpaceOnUse"
       x1="1108.9062"
       y1="-4940.4805"
       x2="1123.9551"
       y2="-4940.6602"
       gradientTransform="matrix(0.26458333,0,0,0.26458333,0,2.3812825)" />
    <linearGradient
       inkscape:collect="always"
       xlink:href="#linearGradient10824"
       id="linearGradient10849"
       gradientUnits="userSpaceOnUse"
       x1="1107"
       y1="-4942.4805"
       x2="1125"
       y2="-4942.48"
       gradientTransform="matrix(0.26458333,0,0,0.26458333,0,2.3812825)" />
    <linearGradient
       inkscape:collect="always"
       xlink:href="#linearGradient10808"
       id="linearGradient10851"
       gradientUnits="userSpaceOnUse"
       x1="1108.8281"
       y1="-4944.4805"
       x2="1123.0001"
       y2="-4944.4805"
       gradientTransform="matrix(0.26458333,0,0,0.26458333,0,2.3812825)" />
  </defs>
  <sodipodi:namedview
     id="base"
     pagecolor="#ffffff"
     bordercolor="#666666"
     borderopacity="1.0"
     inkscape:pageopacity="0.0"
     inkscape:pageshadow="2"
     inkscape:zoom="256"
     inkscape:cx="1.2507612"
     inkscape:cy="0.98258451"
     inkscape:document-units="mm"
     inkscape:current-layer="layer1"
     showgrid="false"
     inkscape:window-width="1920"
     inkscape:window-height="1057"
     inkscape:window-x="-8"
     inkscape:window-y="-8"
     inkscape:window-maximized="1" />
  <metadata
     id="metadata15216">
    <rdf:RDF>
      <cc:Work
         rdf:about="">
        <dc:format>image/svg+xml</dc:format>
        <dc:type
           rdf:resource="http://purl.org/dc/dcmitype/StillImage" />
        <dc:title></dc:title>
      </cc:Work>
    </rdf:RDF>
  </metadata>
  <g
     inkscape:label="Layer 1"
     inkscape:groupmode="layer"
     id="layer1"
     transform="translate(156.36875,-205.28036)">
    <g
       id="g10903"
       transform="matrix(0.05,0,0,0.05,-170.98698,270.7314)"
       style="stroke-width:20">
      <rect
         ry="0.93459511"
         y="-1302.6708"
         x="292.62918"
         height="3.1749847"
         width="5.291667"
         id="rect19227-0-4-9-9-3-8"
         style="opacity:0.18000004;fill:#000000;fill-opacity:0.99590167;fill-rule:nonzero;stroke:none;stroke-width:78.79426575;stroke-linecap:round;stroke-linejoin:round;stroke-miterlimit:4;stroke-dasharray:none;stroke-dashoffset:0;stroke-opacity:1;paint-order:markers stroke fill;filter:url(#filter1957)" />
      <path
         id="rect10858"
         transform="scale(0.26458333)"
         d="m 1110,-4947.4805 c -1.3302,0 -2.4297,0.7468 -3.1543,1.7559 -1.0478,0.6845 -1.8457,1.7419 -1.8457,3.0723 v 0.3437 c 0,0.9415 0.427,1.7322 1,2.4024 v 3.8515 c -0.5732,0.6701 -1,1.4613 -1,2.4024 v 0.3437 c 0,0.9415 0.427,1.7326 1,2.4024 v 9.4257 c 0,2.1812 1.8187,4 4,4 h 12 c 2.1813,0 4,-1.8188 4,-4 v -9.4257 c 0.573,-0.6698 1,-1.4609 1,-2.4024 v -0.3437 c 0,-0.9411 -0.4268,-1.7323 -1,-2.4024 v -3.8515 c 0.573,-0.6702 1,-1.4609 1,-2.4024 v -0.3437 c 0,-1.3304 -0.7979,-2.3878 -1.8457,-3.0723 -0.7246,-1.0091 -1.8241,-1.7559 -3.1543,-1.7559 z"
         style="opacity:1;fill:#64300c;fill-opacity:1;fill-rule:nonzero;stroke:none;stroke-width:80;stroke-linecap:round;stroke-linejoin:round;stroke-miterlimit:4;stroke-dasharray:none;stroke-dashoffset:0;stroke-opacity:1;paint-order:markers stroke fill"
         inkscape:connector-curvature="0" />
      <rect
         style="opacity:1;fill:#b05c30;fill-opacity:1;fill-rule:nonzero;stroke:none;stroke-width:21.16666603;stroke-linecap:round;stroke-linejoin:round;stroke-miterlimit:4;stroke-dasharray:none;stroke-dashoffset:0;stroke-opacity:1;paint-order:markers stroke fill"
         id="rect10748"
         width="4.2333293"
         height="6.8791261"
         x="293.15833"
         y="-1308.4917"
         ry="0.52919108" />
      <rect
         ry="0.52919108"
         y="-1308.4917"
         x="293.15833"
         height="4.2333579"
         width="4.2333417"
         id="rect10750"
         style="opacity:1;fill:#f0a05c;fill-opacity:1;fill-rule:nonzero;stroke:none;stroke-width:21.16666603;stroke-linecap:round;stroke-linejoin:round;stroke-miterlimit:4;stroke-dasharray:none;stroke-dashoffset:0;stroke-opacity:1;paint-order:markers stroke fill" />
      <rect
         style="opacity:1;fill:#ec9450;fill-opacity:1;fill-rule:nonzero;stroke:none;stroke-width:21.16666603;stroke-linecap:round;stroke-linejoin:round;stroke-miterlimit:4;stroke-dasharray:none;stroke-dashoffset:0;stroke-opacity:1;paint-order:markers stroke fill"
         id="rect10752"
         width="4.2333417"
         height="3.9687743"
         x="293.15833"
         y="-1308.4917"
         ry="0.52919108" />
      <path
         id="path10853"
         transform="scale(0.26458333)"
         d="m 1108.8281,-4934.4805 c -0.3001,0 -0.5787,0.078 -0.8281,0.2032 v 2.7968 c 0,0.3147 0.079,0.6068 0.207,0.8711 0.195,0.073 0.3996,0.127 0.6211,0.127 h 14.3438 c 0.2214,0 0.4261,-0.054 0.6211,-0.127 0.1283,-0.2643 0.207,-0.5564 0.207,-0.8711 v -2.7968 c -0.2494,-0.1285 -0.5279,-0.2032 -0.8281,-0.2032 z"
         style="opacity:1;fill:#dc844c;fill-opacity:1;fill-rule:nonzero;stroke:none;stroke-width:79.99999237;stroke-linecap:round;stroke-linejoin:round;stroke-miterlimit:4;stroke-dasharray:none;stroke-dashoffset:0;stroke-opacity:1;paint-order:markers stroke fill"
         inkscape:connector-curvature="0" />
      <path
         id="rect10778"
         transform="scale(0.26458333)"
         d="m 1108.8281,-4943.4805 c -0.3002,0 -0.5787,0.078 -0.8281,0.2051 v 3.5899 c 0.2494,0.1271 0.5279,0.205 0.8281,0.205 h 14.3438 c 0.3002,0 0.5787,-0.078 0.8281,-0.205 v -3.5899 c -0.2494,-0.1272 -0.5279,-0.2051 -0.8281,-0.2051 z"
         style="opacity:1;fill:#dc7c40;fill-opacity:1;fill-rule:nonzero;stroke:none;stroke-width:79.99999237;stroke-linecap:round;stroke-linejoin:round;stroke-miterlimit:4;stroke-dasharray:none;stroke-dashoffset:0;stroke-opacity:1;paint-order:markers stroke fill"
         inkscape:connector-curvature="0" />
      <rect
         style="opacity:1;fill:url(#linearGradient10828);fill-opacity:1;fill-rule:nonzero;stroke:none;stroke-width:21.16666603;stroke-linecap:round;stroke-linejoin:round;stroke-miterlimit:4;stroke-dasharray:none;stroke-dashoffset:0;stroke-opacity:1;paint-order:markers stroke fill"
         id="rect10756"
         width="4.7625122"
         height="1.0583171"
         x="292.89374"
         y="-1308.2271"
         ry="0.48369139" />
      <path
         id="rect10766"
         transform="scale(0.26458333)"
         d="m 1109,-4944.4805 1,4 h 2 l -1,-4 z m 4,0 1,4 h 2 l -1,-4 z m 4,0 1,4 h 2 l -1,-4 z m 4,0 1,4 h 1.1719 c 0.2817,0 0.5453,-0.067 0.7832,-0.1797 l -0.9551,-3.8203 z"
         style="opacity:1;fill:url(#linearGradient10818);fill-opacity:1;fill-rule:nonzero;stroke:none;stroke-width:79.99999237;stroke-linecap:round;stroke-linejoin:round;stroke-miterlimit:4;stroke-dasharray:none;stroke-dashoffset:0;stroke-opacity:1;paint-order:markers stroke fill"
         inkscape:connector-curvature="0" />
      <path
         transform="scale(0.26458333)"
         id="rect10788"
         d="m 1108.8281,-4944.4805 c -1.0128,0 -1.8281,0.8154 -1.8281,1.8282 v 0.1718 h 18 v -0.1718 c 0,-1.0128 -0.8153,-1.8282 -1.8281,-1.8282 z"
         style="opacity:1;fill:url(#linearGradient10826);fill-opacity:1;fill-rule:nonzero;stroke:none;stroke-width:79.99999237;stroke-linecap:round;stroke-linejoin:round;stroke-miterlimit:4;stroke-dasharray:none;stroke-dashoffset:0;stroke-opacity:1;paint-order:markers stroke fill"
         inkscape:connector-curvature="0" />
      <path
         transform="scale(0.26458333)"
         id="path10794"
         d="m 1109,-4944.4805 0.5,2 h 2 l -0.5,-2 z m 4,0 0.5,2 h 2 l -0.5,-2 z m 4,0 0.5,2 h 2 l -0.5,-2 z m 4,0 0.5,2 h 2 l -0.5,-2 z"
         style="opacity:1;fill:url(#linearGradient10810);fill-opacity:1;fill-rule:nonzero;stroke:none;stroke-width:79.99999237;stroke-linecap:round;stroke-linejoin:round;stroke-miterlimit:4;stroke-dasharray:none;stroke-dashoffset:0;stroke-opacity:1;paint-order:markers stroke fill"
         inkscape:connector-curvature="0" />
      <rect
         ry="0.48369139"
         y="-1305.8458"
         x="292.89374"
         height="1.0583171"
         width="4.7625122"
         id="rect10836"
         style="opacity:1;fill:url(#linearGradient10845);fill-opacity:1;fill-rule:nonzero;stroke:none;stroke-width:21.16666603;stroke-linecap:round;stroke-linejoin:round;stroke-miterlimit:4;stroke-dasharray:none;stroke-dashoffset:0;stroke-opacity:1;paint-order:markers stroke fill" />
      <path
         inkscape:connector-curvature="0"
         style="opacity:1;fill:url(#linearGradient10847);fill-opacity:1;fill-rule:nonzero;stroke:none;stroke-width:21.16666603;stroke-linecap:round;stroke-linejoin:round;stroke-miterlimit:4;stroke-dasharray:none;stroke-dashoffset:0;stroke-opacity:1;paint-order:markers stroke fill"
         d="m 293.42291,-1305.8458 0.26459,1.0583 h 0.52916 l -0.26458,-1.0583 z m 1.05834,0 0.26458,1.0583 h 0.52917 l -0.26459,-1.0583 z m 1.05833,0 0.26458,1.0583 h 0.52917 l -0.26458,-1.0583 z m 1.05833,0 0.26459,1.0583 h 0.31006 c 0.0745,0 0.14428,-0.018 0.20722,-0.048 l -0.2527,-1.0108 z"
         id="path10838" />
      <path
         inkscape:connector-curvature="0"
         style="opacity:1;fill:url(#linearGradient10849);fill-opacity:1;fill-rule:nonzero;stroke:none;stroke-width:21.16666603;stroke-linecap:round;stroke-linejoin:round;stroke-miterlimit:4;stroke-dasharray:none;stroke-dashoffset:0;stroke-opacity:1;paint-order:markers stroke fill"
         d="m 293.37743,-1305.8458 c -0.26797,0 -0.48368,0.2157 -0.48368,0.4837 v 0.045 h 4.7625 v -0.045 c 0,-0.268 -0.21572,-0.4837 -0.48369,-0.4837 z"
         id="path10840" />
      <path
         inkscape:connector-curvature="0"
         style="opacity:1;fill:url(#linearGradient10851);fill-opacity:1;fill-rule:nonzero;stroke:none;stroke-width:21.16666603;stroke-linecap:round;stroke-linejoin:round;stroke-miterlimit:4;stroke-dasharray:none;stroke-dashoffset:0;stroke-opacity:1;paint-order:markers stroke fill"
         d="m 293.42291,-1305.8458 0.13229,0.5291 h 0.52917 l -0.13229,-0.5291 z m 1.05834,0 0.13229,0.5291 h 0.52916 l -0.13229,-0.5291 z m 1.05833,0 0.13229,0.5291 h 0.52917 l -0.13229,-0.5291 z m 1.05833,0 0.13229,0.5291 h 0.52917 l -0.13229,-0.5291 z"
         id="path10843" />
    </g>
  </g>
</svg>
