<?xml version="1.0" encoding="UTF-8" standalone="no"?>
<svg
   xmlns:dc="http://purl.org/dc/elements/1.1/"
   xmlns:cc="http://creativecommons.org/ns#"
   xmlns:rdf="http://www.w3.org/1999/02/22-rdf-syntax-ns#"
   xmlns:svg="http://www.w3.org/2000/svg"
   xmlns="http://www.w3.org/2000/svg"
   xmlns:xlink="http://www.w3.org/1999/xlink"
   xmlns:sodipodi="http://sodipodi.sourceforge.net/DTD/sodipodi-0.dtd"
   xmlns:inkscape="http://www.inkscape.org/namespaces/inkscape"
   width="0.2910417mm"
   height="0.44979179mm"
   viewBox="0 0 0.2910417 0.44979179"
   version="1.1"
   id="svg3893"
   inkscape:version="1.0 (4035a4fb49, 2020-05-01)"
   sodipodi:docname="alien_plant.svg">
  <defs
     id="defs3887">
    <linearGradient
       gradientUnits="userSpaceOnUse"
       y2="-324"
       x2="1837"
       y1="-308"
       x1="1837"
       id="linearGradient2834"
       xlink:href="#linearGradient2832"
       inkscape:collect="always" />
    <linearGradient
       id="linearGradient2832"
       inkscape:collect="always">
      <stop
         id="stop2828"
         offset="0"
         style="stop-color:#007c74;stop-opacity:1;" />
      <stop
         style="stop-color:#04a498;stop-opacity:1"
         offset="0.47441199"
         id="stop2836" />
      <stop
         id="stop2838"
         offset="0.56832463"
         style="stop-color:#00847c;stop-opacity:1" />
      <stop
         id="stop2830"
         offset="1"
         style="stop-color:#04847c;stop-opacity:1" />
    </linearGradient>
    <radialGradient
       gradientUnits="userSpaceOnUse"
       gradientTransform="matrix(1.0909143,-6.4111158e-6,3.5705682e-6,0.60756723,-168.2812,-125.95906)"
       r="5.5"
       fy="-321"
       fx="1851"
       cy="-321"
       cx="1851"
       id="radialGradient2942"
       xlink:href="#linearGradient2940"
       inkscape:collect="always" />
    <linearGradient
       id="linearGradient2940"
       inkscape:collect="always">
      <stop
         id="stop2936"
         offset="0"
         style="stop-color:#981084;stop-opacity:1" />
      <stop
         id="stop2938"
         offset="1"
         style="stop-color:#800c70;stop-opacity:1" />
    </linearGradient>
    <linearGradient
       gradientTransform="scale(3.7795273)"
       gradientUnits="userSpaceOnUse"
       y2="-86.796936"
       x2="489.57916"
       y1="-85.997124"
       x1="488.19385"
       id="linearGradient2893"
       xlink:href="#linearGradient2891"
       inkscape:collect="always" />
    <linearGradient
       id="linearGradient2891"
       inkscape:collect="always">
      <stop
         id="stop2887"
         offset="0"
         style="stop-color:#c864b8;stop-opacity:1" />
      <stop
         id="stop2889"
         offset="1"
         style="stop-color:#e89ce0;stop-opacity:1" />
    </linearGradient>
  </defs>
  <sodipodi:namedview
     id="base"
     pagecolor="#ffffff"
     bordercolor="#666666"
     borderopacity="1.0"
     inkscape:pageopacity="0.0"
     inkscape:pageshadow="2"
     inkscape:zoom="256"
     inkscape:cx="0.66358121"
     inkscape:cy="1.1932468"
     inkscape:document-units="px"
     inkscape:current-layer="layer1"
     inkscape:document-rotation="0"
     showgrid="false"
     inkscape:window-width="1920"
     inkscape:window-height="1057"
     inkscape:window-x="-8"
     inkscape:window-y="-8"
     inkscape:window-maximized="1" />
  <metadata
     id="metadata3890">
    <rdf:RDF>
      <cc:Work
         rdf:about="">
        <dc:format>image/svg+xml</dc:format>
        <dc:type
           rdf:resource="http://purl.org/dc/dcmitype/StillImage" />
        <dc:title />
      </cc:Work>
    </rdf:RDF>
  </metadata>
  <g
     inkscape:label="Layer 1"
     inkscape:groupmode="layer"
     id="layer1"
     transform="translate(-28.639087,-120.35606)">
    <g
       id="g3010"
       transform="matrix(0.04999828,0,0,0.05,4.3644065,124.80106)">
      <ellipse
         ry="2.6458247"
         rx="2.6458435"
         cy="-82.549988"
         cx="488.42084"
         id="ellipse2106-8"
         style="opacity:1;fill:#000000;fill-opacity:0.18000001;fill-rule:nonzero;stroke:none;stroke-width:1.05833;stroke-linecap:round;stroke-linejoin:round;stroke-miterlimit:4;stroke-dasharray:none;stroke-dashoffset:0;stroke-opacity:1;paint-order:markers fill stroke" />
      <path
         id="path2849"
         style="color:#000000;font-style:normal;font-variant:normal;font-weight:normal;font-stretch:normal;font-size:medium;line-height:normal;font-family:sans-serif;font-variant-ligatures:normal;font-variant-position:normal;font-variant-caps:normal;font-variant-numeric:normal;font-variant-alternates:normal;font-variant-east-asian:normal;font-feature-settings:normal;font-variation-settings:normal;text-indent:0;text-align:start;text-decoration:none;text-decoration-line:none;text-decoration-style:solid;text-decoration-color:#000000;letter-spacing:normal;word-spacing:normal;text-transform:none;writing-mode:lr-tb;direction:ltr;text-orientation:mixed;dominant-baseline:auto;baseline-shift:baseline;text-anchor:start;white-space:normal;shape-padding:0;shape-margin:0;inline-size:0;clip-rule:nonzero;display:inline;overflow:visible;visibility:visible;isolation:auto;mix-blend-mode:normal;color-interpolation:sRGB;color-interpolation-filters:linearRGB;solid-color:#000000;solid-opacity:1;vector-effect:none;fill:#003c38;fill-opacity:1;fill-rule:nonzero;stroke:none;stroke-width:3.99999;stroke-linecap:butt;stroke-linejoin:round;stroke-miterlimit:4;stroke-dasharray:none;stroke-dashoffset:0;stroke-opacity:1;color-rendering:auto;image-rendering:auto;shape-rendering:auto;text-rendering:auto;enable-background:accumulate;stop-color:#000000"
         d="m 1837,-326 a 2.0002,2.0002 0 0 0 -2,2 c 0,2 -0.023,3.59086 0.2891,5.14258 0.2014,1.00789 0.6626,1.95599 1.248,2.85742 -0.5854,0.90143 -1.0465,1.84954 -1.248,2.85742 -0.3103,1.55172 -0.2891,3.14257 -0.2891,5.14258 a 2.0002,2.0002 0 0 0 2,2 c 2.5587,0 4.479,-0.0855 6.2227,-0.63086 1.0428,-0.32617 1.944,-0.9036 2.7773,-1.5918 0.8333,0.6882 1.7346,1.26563 2.7773,1.5918 1.7437,0.54536 3.664,0.63086 6.2227,0.63086 a 2.0002,2.0002 0 0 0 2,-2 c 0,-2 0.023,-3.59086 -0.2891,-5.14258 -0.2014,-1.00788 -0.6626,-1.95599 -1.248,-2.85742 0.5854,-0.90143 1.0466,-1.84953 1.248,-2.85742 0.3103,-1.55172 0.2891,-3.14257 0.2891,-5.14258 a 2.0002,2.0002 0 0 0 -2,-2 c -2.5587,0 -4.479,0.0855 -6.2227,0.63086 -1.0427,0.32617 -1.944,0.9036 -2.7773,1.5918 -0.8333,-0.6882 -1.7345,-1.26563 -2.7773,-1.5918 C 1841.479,-325.9145 1839.5587,-326 1837,-326 Z m 9,7.45703 3.5605,2.54297 -3.5605,2.54297 -3.5605,-2.54297 z"
         transform="scale(0.26458333)" />
      <path
         id="path2873"
         style="opacity:1;fill:url(#linearGradient2834);fill-opacity:1;stroke:none;stroke-width:0.999999px;stroke-linecap:butt;stroke-linejoin:miter;stroke-opacity:1"
         d="m 1837,-324 c 0,4.00001 0,6.00004 2,8 l 7,-5 c -2,-2.55938 -4,-3 -9,-3 z m 9,3 7,5 c 2,-1.99996 2,-3.99999 2,-8 -5,0 -7,0.44062 -9,3 z m 7,5 -7,5 c 2,2.55938 4,3 9,3 0,-4.00001 0,-6.00004 -2,-8 z m -7,5 -7,-5 c -2,1.99996 -2,3.99999 -2,8 5,0 7,-0.44062 9,-3 z"
         transform="scale(0.26458333)" />
      <path
         id="path2816"
         style="color:#000000;font-style:normal;font-variant:normal;font-weight:normal;font-stretch:normal;font-size:medium;line-height:normal;font-family:sans-serif;font-variant-ligatures:normal;font-variant-position:normal;font-variant-caps:normal;font-variant-numeric:normal;font-variant-alternates:normal;font-variant-east-asian:normal;font-feature-settings:normal;font-variation-settings:normal;text-indent:0;text-align:start;text-decoration:none;text-decoration-line:none;text-decoration-style:solid;text-decoration-color:#000000;letter-spacing:normal;word-spacing:normal;text-transform:none;writing-mode:lr-tb;direction:ltr;text-orientation:mixed;dominant-baseline:auto;baseline-shift:baseline;text-anchor:start;white-space:normal;shape-padding:0;shape-margin:0;inline-size:0;clip-rule:nonzero;display:inline;overflow:visible;visibility:visible;opacity:1;isolation:auto;mix-blend-mode:normal;color-interpolation:sRGB;color-interpolation-filters:linearRGB;solid-color:#000000;solid-opacity:1;vector-effect:none;fill:#047870;fill-opacity:1;fill-rule:nonzero;stroke:none;stroke-width:2;stroke-linecap:butt;stroke-linejoin:miter;stroke-miterlimit:4;stroke-dasharray:none;stroke-dashoffset:0;stroke-opacity:1;color-rendering:auto;image-rendering:auto;shape-rendering:auto;text-rendering:auto;enable-background:accumulate;stop-color:#000000"
         d="m 1838.0547,-322.90234 c 0.013,1.32692 0.01,2.62276 0.1758,3.45703 0.1632,0.81609 0.4905,1.44389 0.9687,2.07422 l 1.127,-0.80469 c -0.077,-0.19557 -0.1442,-0.39887 -0.1895,-0.625 -0.1285,-0.64605 -0.1291,-1.65018 -0.1367,-2.67774 1.3443,0.0331 2.5691,0.0773 3.3086,0.3086 0.2718,0.085 0.5111,0.19996 0.7383,0.33398 l 0.4238,-0.30273 c -0.6382,-0.63121 -1.2833,-1.09782 -2.1445,-1.36719 -0.955,-0.29867 -2.5355,-0.3537 -4.2715,-0.39648 z m 15.8906,0 c -1.736,0.0428 -3.3165,0.0978 -4.2715,0.39648 -0.8612,0.26937 -1.5063,0.73598 -2.1445,1.36719 l 0.5625,0.40234 c 0.2736,-0.18138 0.5676,-0.32767 0.9062,-0.43359 0.7396,-0.23131 1.9623,-0.27534 3.3067,-0.3086 -0.01,1.02756 -0.01,2.03169 -0.1348,2.67774 -0.058,0.29115 -0.1486,0.54926 -0.2597,0.79297 l 0.8906,0.63672 c 0.4782,-0.63033 0.8055,-1.25813 0.9687,-2.07422 0.1644,-0.83427 0.1645,-2.13011 0.1758,-3.45703 z m -14.7461,8.27343 c -0.4782,0.63033 -0.8055,1.25814 -0.9687,2.07422 -0.1644,0.83427 -0.1645,2.13011 -0.1758,3.45703 1.736,-0.0428 3.3165,-0.0978 4.2715,-0.39648 0.8612,-0.26937 1.5063,-0.73598 2.1445,-1.36719 l -0.6328,-0.45117 c -0.1664,0.0835 -0.3395,0.15939 -0.5293,0.21875 -0.7395,0.23131 -1.9643,0.27338 -3.3086,0.30664 0.01,-1.02755 0.01,-2.03168 0.1367,-2.67773 0.029,-0.14639 0.067,-0.28344 0.1094,-0.41602 z m 13.6016,0 -0.8067,0.57618 c 0.071,0.18459 0.1335,0.3761 0.1758,0.58789 0.1285,0.64605 0.1272,1.65018 0.1348,2.67773 -1.3444,-0.0331 -2.5671,-0.0753 -3.3067,-0.30664 -0.2571,-0.0804 -0.4844,-0.192 -0.7011,-0.31641 l -0.7676,0.54883 c 0.6382,0.63121 1.2833,1.09782 2.1445,1.36719 0.955,0.29867 2.5355,0.3537 4.2715,0.39648 -0.013,-1.32692 -0.01,-2.62276 -0.1758,-3.45703 -0.1632,-0.81608 -0.4905,-1.44389 -0.9687,-2.07422 z"
         transform="scale(0.26458333)" />
      <ellipse
         ry="2.3812506"
         rx="2.1166692"
         cy="-84.402077"
         cx="488.42084"
         id="ellipse2882"
         style="opacity:1;fill:#64084c;fill-opacity:1;stroke-width:1.99561;stroke-linecap:round;paint-order:markers stroke fill" />
      <path
         id="ellipse2898"
         style="opacity:1;fill:url(#radialGradient2942);fill-opacity:1;stroke-width:6.53193;stroke-linecap:round;paint-order:markers stroke fill"
         d="m 1846,-328 a 8.0000096,9.0000022 0 0 0 -4.5566,1.60352 A 5.9999106,9.000002 0 0 0 1841,-323 a 5.9999106,9.000002 0 0 0 6,9 5.0000891,9.000002 0 0 0 5,-9 5.0000891,9.000002 0 0 0 -0.1426,-2.12891 A 8.0000096,9.0000022 0 0 0 1846,-328 Z"
         transform="scale(0.26458333)" />
      <path
         id="path2803"
         style="opacity:0.149626;fill:#000000;fill-opacity:1;stroke-width:1.60502;stroke-linecap:round;paint-order:markers stroke fill"
         d="m 486.7093,-86.254166 v 0.158647 a 1.7115209,1.6932891 0 0 0 1.71153,1.693437 1.7115209,1.6932891 0 0 0 1.71152,-1.693437 v -0.158647 z" />
      <path
         id="ellipse2888"
         style="opacity:1;fill:#882478;fill-opacity:1;stroke-width:4.98886;stroke-linecap:round;paint-order:markers stroke fill"
         d="m 1845.8516,-331 a 6.9999897,3.9999859 0 0 0 -6.8516,4 v 2 a 6.9999897,3.9999859 0 0 0 7,4 6.9999897,3.9999859 0 0 0 7,-4 v -2 a 6.9999897,3.9999859 0 0 0 -7,-4 6.9999897,3.9999859 0 0 0 -0.1484,0 z"
         transform="scale(0.26458333)" />
      <ellipse
         style="opacity:1;fill:#441f42;fill-opacity:1;stroke-width:0.781662;stroke-linecap:round;paint-order:markers stroke fill"
         id="ellipse2809"
         cx="488.42084"
         cy="-86.386459"
         rx="1.4233788"
         ry="0.48291913" />
      <path
         sodipodi:nodetypes="sscsccssscccccss"
         id="path2921"
         style="color:#000000;font-style:normal;font-variant:normal;font-weight:normal;font-stretch:normal;font-size:medium;line-height:normal;font-family:sans-serif;font-variant-ligatures:normal;font-variant-position:normal;font-variant-caps:normal;font-variant-numeric:normal;font-variant-alternates:normal;font-variant-east-asian:normal;font-feature-settings:normal;font-variation-settings:normal;text-indent:0;text-align:start;text-decoration:none;text-decoration-line:none;text-decoration-style:solid;text-decoration-color:#000000;letter-spacing:normal;word-spacing:normal;text-transform:none;writing-mode:lr-tb;direction:ltr;text-orientation:mixed;dominant-baseline:auto;baseline-shift:baseline;text-anchor:start;white-space:normal;shape-padding:0;shape-margin:0;inline-size:0;clip-rule:nonzero;display:inline;overflow:visible;visibility:visible;isolation:auto;mix-blend-mode:normal;color-interpolation:sRGB;color-interpolation-filters:linearRGB;solid-color:#000000;solid-opacity:1;vector-effect:none;fill:#003c38;fill-opacity:1;fill-rule:nonzero;stroke:none;stroke-width:2;stroke-linecap:round;stroke-linejoin:miter;stroke-miterlimit:4;stroke-dasharray:none;stroke-dashoffset:0;stroke-opacity:1;paint-order:markers stroke fill;color-rendering:auto;image-rendering:auto;shape-rendering:auto;text-rendering:auto;enable-background:accumulate;stop-color:#000000"
         d="m 1848.5,-336 c -1.3689,0 -2.5,1.13113 -2.5,2.5 0,0.78105 0.3748,1.4772 0.9453,1.9375 -0.1142,1.5203 -0.4017,2.6904 -0.7344,3.81445 -0.078,0.262 -0.1545,0.53842 -0.2343,0.80274 -0.2604,-0.49933 -0.6205,-1.06997 -1.1289,-1.72852 0.093,-0.26027 0.1523,-0.53604 0.1523,-0.82617 0,-1.36887 -1.1311,-2.5 -2.5,-2.5 -1.3689,0 -2.5,1.13113 -2.5,2.5 0,1.31137 1.0413,2.3929 2.332,2.48242 0.6431,0.79445 0.9223,1.30314 1.1153,1.74219 0.7465,0.17915 1.5997,0.52395 2.514,0.52398 0.9488,-5.5e-4 1.9105,-0.35323 2.6715,-0.54547 0.465,-1.63864 1.1267,-3.41316 1.3106,-6.17578 0.635,-0.45576 1.0566,-1.19544 1.0566,-2.02734 0,-1.36887 -1.1311,-2.5 -2.5,-2.5 z"
         transform="scale(0.26458333)" />
      <path
         sodipodi:nodetypes="sccccccsssscsccscss"
         id="path2932"
         style="color:#000000;font-style:normal;font-variant:normal;font-weight:normal;font-stretch:normal;font-size:medium;line-height:normal;font-family:sans-serif;font-variant-ligatures:normal;font-variant-position:normal;font-variant-caps:normal;font-variant-numeric:normal;font-variant-alternates:normal;font-variant-east-asian:normal;font-feature-settings:normal;font-variation-settings:normal;text-indent:0;text-align:start;text-decoration:none;text-decoration-line:none;text-decoration-style:solid;text-decoration-color:#000000;letter-spacing:normal;word-spacing:normal;text-transform:none;writing-mode:lr-tb;direction:ltr;text-orientation:mixed;dominant-baseline:auto;baseline-shift:baseline;text-anchor:start;white-space:normal;shape-padding:0;shape-margin:0;inline-size:0;clip-rule:nonzero;display:inline;overflow:visible;visibility:visible;isolation:auto;mix-blend-mode:normal;color-interpolation:sRGB;color-interpolation-filters:linearRGB;solid-color:#000000;solid-opacity:1;vector-effect:none;fill:#0c9088;fill-opacity:1;fill-rule:nonzero;stroke:none;stroke-width:0.999999px;stroke-linecap:butt;stroke-linejoin:miter;stroke-miterlimit:4;stroke-dasharray:none;stroke-dashoffset:0;stroke-opacity:1;color-rendering:auto;image-rendering:auto;shape-rendering:auto;text-rendering:auto;enable-background:accumulate;stop-color:#000000"
         d="m 1848.5,-335 c -0.8284,0 -1.5,0.67157 -1.5,1.5 9e-4,0.62651 0.3911,1.18648 0.9785,1.4043 -0.1299,3.1618 -1.0191,4.98115 -1.5078,7.13477 0.358,-0.0141 0.7095,-0.0429 1.0469,-0.0859 0.4982,-1.94667 1.3412,-3.84795 1.4668,-7.03516 0.6068,-0.20704 1.0149,-0.77684 1.0156,-1.41797 0,-0.82843 -0.6716,-1.5 -1.5,-1.5 z m -6,4 c -0.8284,0 -1.5,0.67157 -1.5,1.5 0,0.82843 0.6716,1.5 1.5,1.5 0.098,-2.6e-4 0.1952,-0.0101 0.291,-0.0293 1.0646,1.24666 1.4813,2.03476 1.7227,2.66602 0.037,0.0979 0.075,0.22648 0.1074,0.32227 0.3498,0.0393 0.7126,0.0635 1.0801,0.0723 -0.075,-0.21926 -0.15,-0.4679 -0.2578,-0.75 -0.2647,-0.69254 -0.742,-1.5836 -1.7832,-2.83008 0.2198,-0.26824 0.3399,-0.60437 0.3398,-0.95117 0,-0.82843 -0.6716,-1.5 -1.5,-1.5 z"
         transform="scale(0.26458333)" />
      <path
         transform="scale(0.26458333)"
         d="m 1846,-329 a 5.9999998,3 0 0 0 -1.0762,0.0508 c -0.023,0.0927 -0.044,0.18632 -0.076,0.27539 0.1898,0.2459 0.3411,0.4672 0.4921,0.68945 A 4.4211736,1.5000009 0 0 1 1846,-328 a 4.4211736,1.5000009 0 0 1 0.2754,0.004 c 0.092,-0.31879 0.1717,-0.65396 0.2519,-0.99024 A 5.9999998,3 0 0 0 1846,-329 Z m 3.5,0.56641 c -0.072,0.3192 -0.146,0.63303 -0.2246,0.92578 a 4.4211736,1.5000009 0 0 1 1.1465,1.00781 4.4211736,1.5000009 0 0 1 -4.4219,1.5 4.4211736,1.5000009 0 0 1 -4.4219,-1.5 4.4211736,1.5000009 0 0 1 0.3496,-0.58398 c -0.3771,-0.0902 -0.7186,-0.26803 -1.0097,-0.50782 A 5.9999998,3 0 0 0 1840,-326 a 5.9999998,3 0 0 0 6,3 5.9999998,3 0 0 0 6,-3 5.9999998,3 0 0 0 -2.5,-2.43359 z"
         style="opacity:1;fill:url(#linearGradient2893);fill-opacity:1;stroke-width:3.99999;stroke-linecap:round;paint-order:markers stroke fill"
         id="ellipse2896" />
      <path
         id="rect2949"
         style="opacity:1;fill:#0ca8a0;fill-opacity:1;stroke:none;stroke-width:2;stroke-linecap:round;stroke-linejoin:round;stroke-miterlimit:4;stroke-dasharray:none;stroke-opacity:1;paint-order:markers stroke fill"
         d="m 1848.5,-335 a 1.5,1.5 0 0 0 -1.4121,1 h 2.8262 a 1.5,1.5 0 0 0 -1.4141,-1 z m -6,4 a 1.5,1.5 0 0 0 -1.4121,1 h 2.8262 a 1.5,1.5 0 0 0 -1.4141,-1 z"
         transform="scale(0.26458333)" />
    </g>
  </g>
</svg>
