<?xml version="1.0" encoding="UTF-8" standalone="no"?>
<svg
   xmlns:dc="http://purl.org/dc/elements/1.1/"
   xmlns:cc="http://creativecommons.org/ns#"
   xmlns:rdf="http://www.w3.org/1999/02/22-rdf-syntax-ns#"
   xmlns:svg="http://www.w3.org/2000/svg"
   xmlns="http://www.w3.org/2000/svg"
   xmlns:xlink="http://www.w3.org/1999/xlink"
   xmlns:sodipodi="http://sodipodi.sourceforge.net/DTD/sodipodi-0.dtd"
   xmlns:inkscape="http://www.inkscape.org/namespaces/inkscape"
   inkscape:version="1.0 (4035a4fb49, 2020-05-01)"
   id="svg3893"
   version="1.1"
   viewBox="0 0 0.52916664 0.74083334"
   height="0.74083334mm"
   width="0.52916664mm"
   sodipodi:docname="bank.svg">
  <defs
     id="defs3887">
    <linearGradient
       gradientUnits="userSpaceOnUse"
       y2="366.05814"
       x2="-588.5191"
       y1="366.83984"
       x1="-590.93359"
       id="linearGradient1212"
       xlink:href="#linearGradient1210"
       inkscape:collect="always" />
    <linearGradient
       id="linearGradient1210"
       inkscape:collect="always">
      <stop
         id="stop1206"
         offset="0"
         style="stop-color:#f47050;stop-opacity:1" />
      <stop
         id="stop1208"
         offset="1"
         style="stop-color:#e0542c;stop-opacity:1" />
    </linearGradient>
  </defs>
  <sodipodi:namedview
     showgrid="false"
     inkscape:document-rotation="0"
     inkscape:current-layer="layer1"
     inkscape:document-units="px"
     inkscape:cy="3.8456204"
     inkscape:cx="-1.3881283"
     inkscape:zoom="44.8"
     inkscape:pageshadow="2"
     inkscape:pageopacity="0.0"
     borderopacity="1.0"
     bordercolor="#666666"
     pagecolor="#ffffff"
     id="base"
     inkscape:window-width="1920"
     inkscape:window-height="1057"
     inkscape:window-x="-8"
     inkscape:window-y="-8"
     inkscape:window-maximized="1" />
  <metadata
     id="metadata3890">
    <rdf:RDF>
      <cc:Work
         rdf:about="">
        <dc:format>image/svg+xml</dc:format>
        <dc:type
           rdf:resource="http://purl.org/dc/dcmitype/StillImage" />
        <dc:title />
      </cc:Work>
    </rdf:RDF>
  </metadata>
  <g
     id="layer1"
     inkscape:groupmode="layer"
     inkscape:label="Layer 1"
     transform="translate(154.97024,-68.942857)">
    <g
       id="g2291"
       transform="matrix(0.05,0,0,0.05,-147.04597,64.29942)">
      <path
         id="path1230"
         style="color:#000000;font-style:normal;font-variant:normal;font-weight:normal;font-stretch:normal;font-size:medium;line-height:normal;font-family:sans-serif;font-variant-ligatures:normal;font-variant-position:normal;font-variant-caps:normal;font-variant-numeric:normal;font-variant-alternates:normal;font-variant-east-asian:normal;font-feature-settings:normal;font-variation-settings:normal;text-indent:0;text-align:start;text-decoration:none;text-decoration-line:none;text-decoration-style:solid;text-decoration-color:#000000;letter-spacing:normal;word-spacing:normal;text-transform:none;writing-mode:lr-tb;direction:ltr;text-orientation:mixed;dominant-baseline:auto;baseline-shift:baseline;text-anchor:start;white-space:normal;shape-padding:0;shape-margin:0;inline-size:0;clip-rule:nonzero;display:inline;overflow:visible;visibility:visible;isolation:auto;mix-blend-mode:normal;color-interpolation:sRGB;color-interpolation-filters:linearRGB;solid-color:#000000;solid-opacity:1;vector-effect:none;fill:#10284c;fill-opacity:1;fill-rule:nonzero;stroke:none;stroke-width:3.99999;stroke-linecap:round;stroke-linejoin:round;stroke-miterlimit:4;stroke-dasharray:none;stroke-dashoffset:0;stroke-opacity:1;paint-order:markers fill stroke;color-rendering:auto;image-rendering:auto;shape-rendering:auto;text-rendering:auto;enable-background:accumulate;stop-color:#000000"
         d="m -595,351 c -2.18143,0 -4,1.81861 -4,4 v 28 c 0,0.33703 0.051,0.61681 0.10742,0.85938 l 2.91406,19.4375 A 2.000195,2.000195 0 0 0 -594,405 h 9.62695 c 0.7047,1.16772 1.93188,2 3.37305,2 h 4 c 1.44113,0 2.66835,-0.83228 3.37305,-2 H -564 a 2.000195,2.000195 0 0 0 1.97852,-1.70312 l 2.91406,-19.4375 C -559.05102,383.6168 -559,383.33703 -559,383 v -28 c 0,-2.18144 -1.81861,-4 -4,-4 z"
         transform="scale(0.26458333)" />
      <path
         id="rect1369"
         style="opacity:1;fill:#4c64b8;fill-opacity:1;stroke:none;stroke-width:3.99999;stroke-linecap:round;stroke-linejoin:round;stroke-miterlimit:4;stroke-dasharray:none;stroke-opacity:1;paint-order:markers fill stroke"
         d="m -595,353 c -1.10801,0 -2,0.89201 -2,2 v 28 c 0,0.18473 0.0336,0.35971 0.0801,0.5293 L -594,403 h 11 c 0,1.10801 0.89199,2 2,2 h 4 c 1.10801,0 2,-0.89199 2,-2 h 11 l 2.91992,-19.4707 C -561.03362,383.35971 -561,383.18473 -561,383 v -28 c 0,-1.10799 -0.89203,-2 -2,-2 z"
         transform="scale(0.26458333)" />
      <rect
         style="opacity:1;fill:#6c90f4;fill-opacity:1;stroke:none;stroke-width:1.05833;stroke-linecap:round;stroke-linejoin:round;stroke-miterlimit:4;stroke-dasharray:none;stroke-opacity:1;paint-order:markers fill stroke"
         id="rect1369-2"
         width="9.5250025"
         height="8.4666605"
         x="-157.95625"
         y="93.397919"
         ry="0.52916032" />
      <rect
         style="opacity:1;fill:#6c80a4;fill-opacity:1;stroke:none;stroke-width:1.05833;stroke-linecap:round;stroke-linejoin:round;stroke-miterlimit:4;stroke-dasharray:none;stroke-opacity:1;paint-order:markers fill stroke"
         id="rect1141"
         width="6.8791666"
         height="5.8208332"
         x="-156.63333"
         y="94.720833"
         ry="0.79375029" />
      <path
         id="path1389"
         style="fill:#3c54bc;fill-opacity:1;stroke:none;stroke-width:0.999999px;stroke-linecap:butt;stroke-linejoin:miter;stroke-opacity:1"
         d="m -589,386 v 10.00001 c -5e-5,2.20913 4.47712,4.99999 10,4.99999 5.52288,0 10.00005,-2.79086 10,-4.99999 V 386 h -10 z"
         transform="scale(0.26458333)"
         sodipodi:nodetypes="ccscccc" />
      <rect
         ry="0.39687499"
         y="102.12915"
         x="-155.575"
         height="0.79374999"
         width="1.3229166"
         id="rect1385"
         style="opacity:1;fill:#5460a0;fill-opacity:1;stroke:none;stroke-width:1.05833;stroke-linecap:round;stroke-linejoin:round;stroke-miterlimit:4;stroke-dasharray:none;stroke-opacity:1;paint-order:markers fill stroke" />
      <rect
         ry="0.13229166"
         y="102.39375"
         x="-155.31041"
         height="0.26458332"
         width="0.79374999"
         id="rect1387"
         style="opacity:1;fill:#5c70b8;fill-opacity:1;stroke:none;stroke-width:1.05833;stroke-linecap:round;stroke-linejoin:round;stroke-miterlimit:4;stroke-dasharray:none;stroke-opacity:1;paint-order:markers fill stroke" />
      <rect
         ry="0.79375029"
         y="94.456245"
         x="-156.63333"
         height="5.8208332"
         width="6.8791666"
         id="rect1393"
         style="opacity:1;fill:#7490bc;fill-opacity:1;stroke:none;stroke-width:1.05833;stroke-linecap:round;stroke-linejoin:round;stroke-miterlimit:4;stroke-dasharray:none;stroke-opacity:1;paint-order:markers fill stroke" />
      <rect
         style="opacity:1;fill:#3c384c;fill-opacity:1;stroke:none;stroke-width:0.880585;stroke-linecap:round;stroke-linejoin:round;stroke-miterlimit:4;stroke-dasharray:none;stroke-opacity:1;paint-order:markers fill stroke"
         id="rect1395"
         width="5.8208303"
         height="4.762507"
         x="-156.10416"
         y="94.985413"
         ry="0.52916646" />
      <rect
         ry="0.26458359"
         y="95.25"
         x="-155.83957"
         height="4.2333317"
         width="5.2916465"
         id="rect1493"
         style="opacity:1;fill:#404058;fill-opacity:1;stroke:none;stroke-width:0.791586;stroke-linecap:round;stroke-linejoin:round;stroke-miterlimit:4;stroke-dasharray:none;stroke-opacity:1;paint-order:markers fill stroke" />
      <path
         d="m -151.47809,95.514584 a 0.6614583,0.52916663 0 0 0 -0.65732,0.529166 0.6614583,0.52916663 0 0 0 0,0.0031 v 0.261483 H -152.4 c -0.14658,0 -0.26458,0.118004 -0.26458,0.264583 V 98.425 c 0,0.146579 0.118,0.264584 0.26458,0.264584 h 1.5875 c 0.14658,0 0.26459,-0.118005 0.26459,-0.264584 v -1.852083 c 0,-0.146579 -0.11801,-0.264583 -0.26459,-0.264583 V 96.04375 a 0.6614583,0.52916663 0 0 0 -0.66146,-0.529166 0.6614583,0.52916663 0 0 0 -0.004,0 z"
         style="opacity:1;fill:#595b77;fill-opacity:1;stroke:none;stroke-width:1.05833;stroke-linecap:round;stroke-linejoin:round;stroke-miterlimit:4;stroke-dasharray:none;stroke-opacity:1;paint-order:markers fill stroke"
         id="path1214" />
      <rect
         style="opacity:1;fill:#6b6b8e;fill-opacity:1;stroke:none;stroke-width:1.05833;stroke-linecap:round;stroke-linejoin:round;stroke-miterlimit:4;stroke-dasharray:none;stroke-opacity:1;paint-order:markers fill stroke"
         id="rect1216"
         width="1.8520833"
         height="2.3812499"
         x="-155.31041"
         y="96.043739"
         ry="0.26459381" />
      <path
         id="rect1397"
         style="opacity:1;fill:#696b8c;fill-opacity:1;stroke:none;stroke-width:3.99999;stroke-linecap:round;stroke-linejoin:round;stroke-miterlimit:4;stroke-dasharray:none;stroke-opacity:1;paint-order:markers fill stroke"
         d="m -572.51562,360 a 2.4999999,1.9999999 0 0 0 -2.48438,2 2.4999999,1.9999999 0 0 0 0,0.0117 V 363 h -1 c -0.554,0 -1,0.446 -1,1 v 7 c 0,0.554 0.446,1 1,1 h 6 c 0.554,0 1,-0.446 1,-1 v -7 c 0,-0.554 -0.446,-1 -1,-1 v -1 a 2.4999999,1.9999999 0 0 0 -2.5,-2 2.4999999,1.9999999 0 0 0 -0.0156,0 z"
         transform="scale(0.26458333)" />
      <path
         d="m -151.47809,96.572917 c -0.3637,0.0018 -0.65733,0.238204 -0.65732,0.529167 0,10e-4 0,0.0021 0,0.0031 v 0.526066 c 0,0.292248 0.29614,0.529163 0.66145,0.529167 0.36531,1e-6 0.66146,-0.236916 0.66146,-0.529167 0,-10e-4 0,-0.0021 0,-0.0031 v -0.526066 c 0,-0.292251 -0.29615,-0.529168 -0.66146,-0.529167 -0.001,-3e-6 -0.003,-3e-6 -0.004,0 z"
         style="opacity:1;fill:#797b9a;fill-opacity:1;stroke:none;stroke-width:1.05833;stroke-linecap:round;stroke-linejoin:round;stroke-miterlimit:4;stroke-dasharray:none;stroke-opacity:1;paint-order:markers fill stroke"
         id="path1159"
         sodipodi:nodetypes="sscssscssss" />
      <path
         id="ellipse1149"
         style="opacity:1;fill:#797b9a;fill-opacity:1;stroke:none;stroke-width:3.99999;stroke-linecap:round;stroke-linejoin:round;stroke-miterlimit:4;stroke-dasharray:none;stroke-opacity:1;paint-order:markers fill stroke"
         d="m -572.51562,360 c -1.37461,0.007 -2.48441,0.90029 -2.48438,2 -10e-6,0.004 -10e-6,0.008 0,0.0117 v 1.98826 c 0,1.10457 1.11929,2 2.5,2 1.38071,0 2.5,-0.89543 2.5,-2 10e-6,-0.004 10e-6,-0.008 0,-0.0117 V 362 c 0,-1.10457 -1.11929,-2 -2.5,-2 -0.005,-10e-6 -0.0104,-10e-6 -0.0156,0 z"
         transform="scale(0.26458333)"
         sodipodi:nodetypes="cscssscssc" />
      <ellipse
         ry="0.52916664"
         rx="0.66145831"
         cy="95.779152"
         cx="-151.47395"
         id="ellipse1401"
         style="opacity:1;fill:#acacd4;fill-opacity:1;stroke:none;stroke-width:1.05833;stroke-linecap:round;stroke-linejoin:round;stroke-miterlimit:4;stroke-dasharray:none;stroke-opacity:1;paint-order:markers fill stroke" />
      <ellipse
         style="opacity:1;fill:#35353b;fill-opacity:1;stroke:none;stroke-width:0.529144;stroke-linecap:round;stroke-linejoin:round;stroke-miterlimit:4;stroke-dasharray:none;stroke-opacity:1;paint-order:markers fill stroke"
         id="ellipse1403"
         cx="-151.47395"
         cy="95.779152"
         rx="0.33071607"
         ry="0.26457286" />
      <ellipse
         style="opacity:1;fill:#acacd4;fill-opacity:1;stroke:none;stroke-width:1.05833;stroke-linecap:round;stroke-linejoin:round;stroke-miterlimit:4;stroke-dasharray:none;stroke-opacity:1;paint-order:markers fill stroke"
         id="ellipse1405"
         cx="-151.47395"
         cy="97.102066"
         rx="0.66145831"
         ry="0.52916664" />
      <ellipse
         ry="0.26457286"
         rx="0.33071607"
         cy="97.102066"
         cx="-151.47395"
         id="ellipse1407"
         style="opacity:1;fill:#35353b;fill-opacity:1;stroke:none;stroke-width:0.529144;stroke-linecap:round;stroke-linejoin:round;stroke-miterlimit:4;stroke-dasharray:none;stroke-opacity:1;paint-order:markers fill stroke" />
      <rect
         ry="0.26459381"
         y="95.779152"
         x="-155.31041"
         height="2.3812499"
         width="1.8520833"
         id="rect1409"
         style="opacity:1;fill:#8c8ca8;fill-opacity:1;stroke:none;stroke-width:1.05833;stroke-linecap:round;stroke-linejoin:round;stroke-miterlimit:4;stroke-dasharray:none;stroke-opacity:1;paint-order:markers fill stroke" />
      <circle
         r="0.52915633"
         cy="96.572914"
         cx="-154.25208"
         id="circle1411"
         style="opacity:1;fill:#505078;fill-opacity:1;stroke:none;stroke-width:1.41107;stroke-linecap:round;stroke-linejoin:round;stroke-miterlimit:4;stroke-dasharray:none;stroke-opacity:1;paint-order:markers fill stroke" />
      <circle
         style="opacity:1;fill:#505078;fill-opacity:1;stroke:none;stroke-width:1.05831;stroke-linecap:round;stroke-linejoin:round;stroke-miterlimit:4;stroke-dasharray:none;stroke-opacity:1;paint-order:markers fill stroke"
         id="circle1413"
         cx="-154.25209"
         cy="97.102089"
         r="0.39686874" />
      <rect
         ry="0.26458332"
         y="96.572914"
         x="-154.51666"
         height="0.52916664"
         width="0.79374999"
         id="rect1417"
         style="opacity:1;fill:#dcd8f8;fill-opacity:1;stroke:none;stroke-width:1.05833;stroke-linecap:round;stroke-linejoin:round;stroke-miterlimit:4;stroke-dasharray:none;stroke-opacity:1;paint-order:markers fill stroke" />
      <ellipse
         transform="matrix(0.95139312,-0.3079791,0.33469298,0.94232723,0,0)"
         ry="1.7283885"
         rx="1.2308189"
         cy="44.207527"
         cx="-178.81393"
         id="ellipse1415"
         style="opacity:1;fill:#cccce8;fill-opacity:1;stroke:none;stroke-width:1.08337;stroke-linecap:round;stroke-linejoin:round;stroke-miterlimit:4;stroke-dasharray:none;stroke-opacity:1;paint-order:markers fill stroke" />
      <circle
         r="0.26458332"
         cy="104.24583"
         cx="-156.63333"
         id="circle1424"
         style="opacity:0.46875;fill:#2c48b4;fill-opacity:1;stroke:none;stroke-width:0.529167;stroke-linecap:round;stroke-linejoin:round;stroke-miterlimit:4;stroke-dasharray:none;stroke-opacity:1;paint-order:markers fill stroke" />
      <circle
         style="opacity:0.46875;fill:#2c48b4;fill-opacity:1;stroke:none;stroke-width:0.529167;stroke-linecap:round;stroke-linejoin:round;stroke-miterlimit:4;stroke-dasharray:none;stroke-opacity:1;paint-order:markers fill stroke"
         id="circle1426"
         cx="-156.36874"
         cy="106.3625"
         r="0.26458332" />
      <circle
         r="0.26458332"
         cy="101.86457"
         cx="-156.89792"
         id="circle1428"
         style="opacity:0.46875;fill:#2c48b4;fill-opacity:1;stroke:none;stroke-width:0.529167;stroke-linecap:round;stroke-linejoin:round;stroke-miterlimit:4;stroke-dasharray:none;stroke-opacity:1;paint-order:markers fill stroke" />
      <circle
         transform="scale(-1,1)"
         style="opacity:0.46875;fill:#2c48b4;fill-opacity:1;stroke:none;stroke-width:0.529167;stroke-linecap:round;stroke-linejoin:round;stroke-miterlimit:4;stroke-dasharray:none;stroke-opacity:1;paint-order:markers fill stroke"
         id="circle1430"
         cx="149.75417"
         cy="104.24583"
         r="0.26458332" />
      <circle
         transform="scale(-1,1)"
         r="0.26458332"
         cy="106.3625"
         cx="150.01875"
         id="circle1432"
         style="opacity:0.46875;fill:#2c48b4;fill-opacity:1;stroke:none;stroke-width:0.529167;stroke-linecap:round;stroke-linejoin:round;stroke-miterlimit:4;stroke-dasharray:none;stroke-opacity:1;paint-order:markers fill stroke" />
      <circle
         transform="scale(-1,1)"
         style="opacity:0.46875;fill:#2c48b4;fill-opacity:1;stroke:none;stroke-width:0.529167;stroke-linecap:round;stroke-linejoin:round;stroke-miterlimit:4;stroke-dasharray:none;stroke-opacity:1;paint-order:markers fill stroke"
         id="circle1434"
         cx="149.48958"
         cy="101.86457"
         r="0.26458332" />
      <path
         id="ellipse1481"
         style="opacity:1;fill:#181838;fill-opacity:1;stroke:none;stroke-width:4.12309;stroke-linecap:round;stroke-linejoin:round;stroke-miterlimit:4;stroke-dasharray:none;stroke-opacity:1;paint-order:markers fill stroke"
         d="m -579,389.50001 c -4.69442,-10e-6 -8.5,2.01471 -8.5,4.5 V 395.5 c 0,2.48528 3.80558,4.5 8.5,4.5 4.69442,0 8.5,-2.01472 8.5,-4.5 v -1.49999 c 0,-2.48529 -3.80558,-4.50001 -8.5,-4.5 z"
         transform="scale(0.26458333)"
         sodipodi:nodetypes="sssssss" />
      <rect
         ry="0.26458332"
         y="106.3625"
         x="-153.9875"
         height="0.52916664"
         width="1.5875"
         id="rect1373"
         style="opacity:1;fill:#3c4458;fill-opacity:1;stroke:none;stroke-width:1.05833;stroke-linecap:round;stroke-linejoin:round;stroke-miterlimit:4;stroke-dasharray:none;stroke-opacity:1;paint-order:markers fill stroke" />
      <ellipse
         style="opacity:1;fill:#a89c2c;fill-opacity:1;stroke:none;stroke-width:1.0909;stroke-linecap:round;stroke-linejoin:round;stroke-miterlimit:4;stroke-dasharray:none;stroke-opacity:1;paint-order:markers fill stroke"
         id="ellipse1377"
         cx="-153.19376"
         cy="104.64269"
         rx="2.2489555"
         ry="1.190625" />
      <ellipse
         ry="0.92603588"
         rx="1.984377"
         cy="104.90727"
         cx="-153.18488"
         id="ellipse1383"
         style="opacity:1;fill:#887c30;fill-opacity:1;stroke:none;stroke-width:0.903717;stroke-linecap:round;stroke-linejoin:round;stroke-miterlimit:4;stroke-dasharray:none;stroke-opacity:1;paint-order:markers fill stroke" />
      <path
         id="path1479"
         style="font-style:normal;font-variant:normal;font-weight:bold;font-stretch:normal;font-size:3.48681px;line-height:1.25;font-family:Nougat;-inkscape-font-specification:'Nougat Bold';letter-spacing:0px;word-spacing:0px;opacity:1;fill:#484440;fill-opacity:1;stroke:none;stroke-width:0.0614184"
         d="m -151.97896,105.04262 q 0,-0.2172 -0.34503,-0.34258 -0.1869,-0.0672 -0.62777,-0.13882 -0.34025,-0.0537 -0.34025,-0.0985 0,-0.0717 0.23002,-0.0717 0.12933,0 0.38337,0.0403 0.22523,0.0358 0.369,0.0739 l 0.29232,-0.48587 -0.86258,-0.0784 -0.0335,0.0493 q -0.0815,-0.004 -0.13897,-0.007 -0.0528,-0.002 -0.0815,-0.002 h -0.15335 q -0.4888,0 -0.7907,0.1209 -0.32108,0.12763 -0.32108,0.35153 0,0.21943 0.34983,0.34258 0.19648,0.0672 0.64214,0.13657 0.34504,0.0537 0.34504,0.10748 0,0.0717 -0.21565,0.0717 -0.18689,0 -0.44567,-0.047 l -0.42651,-0.0873 -0.25876,0.44333 q 0.57505,0.14778 1.14531,0.14778 0.54631,0 0.90093,-0.13211 0.38338,-0.14554 0.38338,-0.39407 z" />
      <path
         d="m -151.97896,105.30684 q 0,-0.2172 -0.34503,-0.34258 -0.1869,-0.0672 -0.62777,-0.13882 -0.34025,-0.0537 -0.34025,-0.0985 0,-0.0717 0.23002,-0.0717 0.12933,0 0.38337,0.0403 0.22523,0.0358 0.369,0.0739 l 0.29232,-0.48587 -0.86258,-0.0784 -0.0335,0.0493 q -0.0815,-0.004 -0.13897,-0.007 -0.0528,-0.002 -0.0815,-0.002 h -0.15335 q -0.4888,0 -0.7907,0.1209 -0.32108,0.12763 -0.32108,0.35153 0,0.21943 0.34983,0.34258 0.19648,0.0672 0.64214,0.13657 0.34504,0.0537 0.34504,0.10748 0,0.0717 -0.21565,0.0717 -0.18689,0 -0.44567,-0.047 l -0.42651,-0.0873 -0.25876,0.44333 q 0.57505,0.14778 1.14531,0.14778 0.54631,0 0.90093,-0.13211 0.38338,-0.14554 0.38338,-0.39407 z"
         style="font-style:normal;font-variant:normal;font-weight:bold;font-stretch:normal;font-size:3.48681px;line-height:1.25;font-family:Nougat;-inkscape-font-specification:'Nougat Bold';letter-spacing:0px;word-spacing:0px;opacity:1;fill:#a8ac20;fill-opacity:1;stroke:none;stroke-width:0.0614184"
         id="path1379" />
      <path
         style="color:#000000;font-style:normal;font-variant:normal;font-weight:normal;font-stretch:normal;font-size:medium;line-height:normal;font-family:sans-serif;font-variant-ligatures:normal;font-variant-position:normal;font-variant-caps:normal;font-variant-numeric:normal;font-variant-alternates:normal;font-variant-east-asian:normal;font-feature-settings:normal;font-variation-settings:normal;text-indent:0;text-align:start;text-decoration:none;text-decoration-line:none;text-decoration-style:solid;text-decoration-color:#000000;letter-spacing:normal;word-spacing:normal;text-transform:none;writing-mode:lr-tb;direction:ltr;text-orientation:mixed;dominant-baseline:auto;baseline-shift:baseline;text-anchor:start;white-space:normal;shape-padding:0;shape-margin:0;inline-size:0;clip-rule:nonzero;display:inline;overflow:visible;visibility:visible;opacity:1;isolation:auto;mix-blend-mode:normal;color-interpolation:sRGB;color-interpolation-filters:linearRGB;solid-color:#000000;solid-opacity:1;vector-effect:none;fill:#5c6084;fill-opacity:1;fill-rule:nonzero;stroke:none;stroke-width:0.529167;stroke-linecap:round;stroke-linejoin:miter;stroke-miterlimit:4;stroke-dasharray:none;stroke-dashoffset:0;stroke-opacity:1;color-rendering:auto;image-rendering:auto;shape-rendering:auto;text-rendering:auto;enable-background:accumulate;stop-color:#000000;stop-opacity:1"
         d="m -155.3418,96.464844 c -0.0233,0.0015 -0.0463,0.0061 -0.0684,0.01367 l -0.77285,0.247024 c -0.13852,0.04595 -0.21367,0.195384 -0.16797,0.333985 0.0459,0.139544 0.19675,0.214952 0.33594,0.167968 l 0.77285,-0.247024 c 0.13954,-0.04593 0.21495,-0.196746 0.16797,-0.335938 -0.0382,-0.113581 -0.14799,-0.187299 -0.26758,-0.179687 z"
         id="path1165"
         sodipodi:nodetypes="cccccccc" />
      <path
         id="path1199"
         style="color:#000000;font-style:normal;font-variant:normal;font-weight:normal;font-stretch:normal;font-size:medium;line-height:normal;font-family:sans-serif;font-variant-ligatures:normal;font-variant-position:normal;font-variant-caps:normal;font-variant-numeric:normal;font-variant-alternates:normal;font-variant-east-asian:normal;font-feature-settings:normal;font-variation-settings:normal;text-indent:0;text-align:start;text-decoration:none;text-decoration-line:none;text-decoration-style:solid;text-decoration-color:#000000;letter-spacing:normal;word-spacing:normal;text-transform:none;writing-mode:lr-tb;direction:ltr;text-orientation:mixed;dominant-baseline:auto;baseline-shift:baseline;text-anchor:start;white-space:normal;shape-padding:0;shape-margin:0;inline-size:0;clip-rule:nonzero;display:inline;overflow:visible;visibility:visible;isolation:auto;mix-blend-mode:normal;color-interpolation:sRGB;color-interpolation-filters:linearRGB;solid-color:#000000;solid-opacity:1;vector-effect:none;fill:#e4e4ff;fill-opacity:1;fill-rule:nonzero;stroke:none;stroke-width:2;stroke-linecap:round;stroke-linejoin:round;stroke-miterlimit:4;stroke-dasharray:none;stroke-dashoffset:0;stroke-opacity:1;paint-order:markers fill stroke;color-rendering:auto;image-rendering:auto;shape-rendering:auto;text-rendering:auto;enable-background:accumulate;stop-color:#000000"
         d="m -588.31055,359.26953 c -0.31723,0.0113 -0.63001,0.0652 -0.93554,0.16406 -2.4443,0.79125 -3.44772,4.18817 -2.24024,7.58789 1.20752,3.39973 4.16899,5.51587 6.61328,4.72461 2.44422,-0.79127 3.44577,-4.19013 2.23828,-7.58984 -1.05654,-2.97474 -3.45515,-4.96556 -5.67578,-4.88672 z m 0.0664,0.99219 c 0.68915,-0.0253 1.43287,0.22492 2.18164,0.75976 0.99836,0.71313 1.93722,1.92292 2.47656,3.44141 0.53934,1.51849 0.57261,3.02024 0.23438,4.16602 -0.33827,1.14577 -0.99833,1.89703 -1.85938,2.17578 -0.86109,0.27874 -1.85515,0.0627 -2.85351,-0.65039 -0.99837,-0.71314 -1.92941,-1.92487 -2.46875,-3.44336 -0.53934,-1.5185 -0.57257,-3.02025 -0.23438,-4.16602 0.33827,-1.14577 0.99243,-1.88727 1.85352,-2.16601 0.21526,-0.0697 0.4402,-0.10874 0.66992,-0.11719 z"
         transform="scale(0.26458333)" />
      <path
         id="path1186"
         style="color:#000000;font-style:normal;font-variant:normal;font-weight:normal;font-stretch:normal;font-size:medium;line-height:normal;font-family:sans-serif;font-variant-ligatures:normal;font-variant-position:normal;font-variant-caps:normal;font-variant-numeric:normal;font-variant-alternates:normal;font-variant-east-asian:normal;font-feature-settings:normal;font-variation-settings:normal;text-indent:0;text-align:start;text-decoration:none;text-decoration-line:none;text-decoration-style:solid;text-decoration-color:#000000;letter-spacing:normal;word-spacing:normal;text-transform:none;writing-mode:lr-tb;direction:ltr;text-orientation:mixed;dominant-baseline:auto;baseline-shift:baseline;text-anchor:start;white-space:normal;shape-padding:0;shape-margin:0;inline-size:0;clip-rule:nonzero;display:inline;overflow:visible;visibility:visible;opacity:1;isolation:auto;mix-blend-mode:normal;color-interpolation:sRGB;color-interpolation-filters:linearRGB;solid-color:#000000;solid-opacity:1;vector-effect:none;fill:url(#linearGradient1212);fill-opacity:1;fill-rule:nonzero;stroke:none;stroke-width:2;stroke-linecap:round;stroke-linejoin:miter;stroke-miterlimit:4;stroke-dasharray:none;stroke-dashoffset:0;stroke-opacity:1;color-rendering:auto;image-rendering:auto;shape-rendering:auto;text-rendering:auto;enable-background:accumulate;stop-color:#000000;stop-opacity:1"
         d="m -589.34766,365.32812 a 1.0000001,1.0000001 0 0 0 -0.0527,0.002 1.0000001,1.0000001 0 0 0 -0.25781,0.0508 l -0.68555,0.2207 c -0.49119,0.19221 -0.75695,0.73149 -0.58984,1.23828 0.17348,0.52741 0.74346,0.81235 1.26953,0.63477 l 0.70508,-0.22461 a 1.0000001,1.0000001 0 0 0 0.004,-0.002 1.0000001,1.0000001 0 0 0 0.5586,-1.22461 1.0000001,1.0000001 0 0 0 -0.95118,-0.69532 z"
         transform="scale(0.26458333)" />
      <rect
         style="opacity:1;fill:#5460a0;fill-opacity:1;stroke:none;stroke-width:1.05833;stroke-linecap:round;stroke-linejoin:round;stroke-miterlimit:4;stroke-dasharray:none;stroke-opacity:1;paint-order:markers fill stroke"
         id="rect1218"
         width="1.3229166"
         height="0.79374999"
         x="-152.13542"
         y="102.12915"
         ry="0.39687499" />
      <rect
         style="opacity:1;fill:#5c70b8;fill-opacity:1;stroke:none;stroke-width:1.05833;stroke-linecap:round;stroke-linejoin:round;stroke-miterlimit:4;stroke-dasharray:none;stroke-opacity:1;paint-order:markers fill stroke"
         id="rect1220"
         width="0.79374999"
         height="0.26458332"
         x="-151.87083"
         y="102.39375"
         ry="0.13229166" />
      <rect
         ry="0.39687499"
         y="102.12915"
         x="-153.85521"
         height="0.79374999"
         width="1.3229166"
         id="rect1222"
         style="opacity:1;fill:#5460a0;fill-opacity:1;stroke:none;stroke-width:1.05833;stroke-linecap:round;stroke-linejoin:round;stroke-miterlimit:4;stroke-dasharray:none;stroke-opacity:1;paint-order:markers fill stroke" />
      <rect
         ry="0.13229166"
         y="102.39375"
         x="-153.59062"
         height="0.26458332"
         width="0.79374999"
         id="rect1224"
         style="opacity:1;fill:#5c70b8;fill-opacity:1;stroke:none;stroke-width:1.05833;stroke-linecap:round;stroke-linejoin:round;stroke-miterlimit:4;stroke-dasharray:none;stroke-opacity:1;paint-order:markers fill stroke" />
    </g>
  </g>
</svg>
