<?xml version="1.0" ?><svg xmlns:dc="http://purl.org/dc/elements/1.1/" xmlns:cc="http://creativecommons.org/ns#" xmlns:rdf="http://www.w3.org/1999/02/22-rdf-syntax-ns#" xmlns:svg="http://www.w3.org/2000/svg" xmlns="http://www.w3.org/2000/svg" xmlns:sodipodi="http://sodipodi.sourceforge.net/DTD/sodipodi-0.dtd" xmlns:inkscape="http://www.inkscape.org/namespaces/inkscape" sodipodi:docname="barrel.svg" inkscape:version="1.0 (4035a4fb49, 2020-05-01)" id="svg8178" version="1.1" viewBox="0 0 0.26458332 0.44978693" height="0.44978693mm" width="0.26458332mm">
  <defs id="defs8172">
    <clipPath clipPathUnits="userSpaceOnUse" id="clipPath7075-3">
      <path id="path7077-974" d="m -1637.9238,-1181.4359 a 2.0647873,2.0647873 0 0 0 -1.9337,1.3447 c 0,0 0,0 0,0 -0.012,0.031 -0.019,0.063 -0.029,0.094 a 2.0647873,2.0647873 0 0 0 -0.026,0.085 c -0.242,0.7917 -0.1874,1.7109 -0.155,2.2071 0.035,0.5336 0.2235,1.5204 0.6878,2.1957 0,0 0.01,0 0.01,0.01 a 1.6903625,1.5533958 0 0 0 1.4536,0.7643 1.6903625,1.5533958 0 0 0 1.4527,-0.7627 c 0,0 0.01,-0.01 0.01,-0.01 0.01,-0.012 0.015,-0.026 0.023,-0.039 0.4461,-0.6738 0.6302,-1.633 0.6646,-2.157 0.032,-0.4966 0.087,-1.417 -0.1556,-2.2092 a 2.0647873,2.0647873 0 0 0 -0.023,-0.073 c -0.011,-0.034 -0.02,-0.07 -0.033,-0.1033 0,0 0,0 0,0 a 2.0647873,2.0647873 0 0 0 -1.9337,-1.3446 z" style="opacity:1;fill:url(#linearGradient7079);fill-opacity:1;stroke:none;stroke-width:0.26458332px;stroke-linecap:butt;stroke-linejoin:miter;stroke-opacity:1" inkscape:connector-curvature="0"/>
    </clipPath>
    <clipPath clipPathUnits="userSpaceOnUse" id="clipPath7047-8">
      <path id="path7049-7" d="m -1637.9238,-1181.4359 a 2.0647873,2.0647873 0 0 0 -1.9337,1.3447 c 0,0 0,0 0,0 -0.012,0.031 -0.019,0.063 -0.029,0.094 a 2.0647873,2.0647873 0 0 0 -0.026,0.085 c -0.242,0.7917 -0.1874,1.7109 -0.155,2.2071 0.035,0.5336 0.2235,1.5204 0.6878,2.1957 0,0 0.01,0 0.01,0.01 a 1.6903625,1.5533958 0 0 0 1.4536,0.7643 1.6903625,1.5533958 0 0 0 1.4527,-0.7627 c 0,0 0.01,-0.01 0.01,-0.01 0.01,-0.012 0.015,-0.026 0.023,-0.039 0.4461,-0.6738 0.6302,-1.633 0.6646,-2.157 0.032,-0.4966 0.087,-1.417 -0.1556,-2.2092 a 2.0647873,2.0647873 0 0 0 -0.023,-0.073 c -0.011,-0.034 -0.02,-0.07 -0.033,-0.1033 0,0 0,0 0,0 a 2.0647873,2.0647873 0 0 0 -1.9337,-1.3446 z" style="opacity:1;fill:url(#linearGradient7051);fill-opacity:1;stroke:none;stroke-width:0.26458332px;stroke-linecap:butt;stroke-linejoin:miter;stroke-opacity:1" inkscape:connector-curvature="0"/>
    </clipPath>
    <clipPath clipPathUnits="userSpaceOnUse" id="clipPath7057-5">
      <path id="path7059-5" d="m -1637.9238,-1181.4359 a 2.0647873,2.0647873 0 0 0 -1.9337,1.3447 c 0,0 0,0 0,0 -0.012,0.031 -0.019,0.063 -0.029,0.094 a 2.0647873,2.0647873 0 0 0 -0.026,0.085 c -0.242,0.7917 -0.1874,1.7109 -0.155,2.2071 0.035,0.5336 0.2235,1.5204 0.6878,2.1957 0,0 0.01,0 0.01,0.01 a 1.6903625,1.5533958 0 0 0 1.4536,0.7643 1.6903625,1.5533958 0 0 0 1.4527,-0.7627 c 0,0 0.01,-0.01 0.01,-0.01 0.01,-0.012 0.015,-0.026 0.023,-0.039 0.4461,-0.6738 0.6302,-1.633 0.6646,-2.157 0.032,-0.4966 0.087,-1.417 -0.1556,-2.2092 a 2.0647873,2.0647873 0 0 0 -0.023,-0.073 c -0.011,-0.034 -0.02,-0.07 -0.033,-0.1033 0,0 0,0 0,0 a 2.0647873,2.0647873 0 0 0 -1.9337,-1.3446 z" style="opacity:1;fill:url(#linearGradient7061);fill-opacity:1;stroke:none;stroke-width:0.26458332px;stroke-linecap:butt;stroke-linejoin:miter;stroke-opacity:1" inkscape:connector-curvature="0"/>
    </clipPath>
    <clipPath clipPathUnits="userSpaceOnUse" id="clipPath11301">
      <path id="path11299" d="m -1637.9238,-1181.4359 a 2.0647873,2.0647873 0 0 0 -1.9337,1.3447 c 0,0 0,0 0,0 -0.012,0.031 -0.019,0.063 -0.029,0.094 a 2.0647873,2.0647873 0 0 0 -0.026,0.085 c -0.242,0.7917 -0.1874,1.7109 -0.155,2.2071 0.035,0.5336 0.2235,1.5204 0.6878,2.1957 0,0 0.01,0 0.01,0.01 a 1.6903625,1.5533958 0 0 0 1.4536,0.7643 1.6903625,1.5533958 0 0 0 1.4527,-0.7627 c 0,0 0.01,-0.01 0.01,-0.01 0.01,-0.012 0.015,-0.026 0.023,-0.039 0.4461,-0.6738 0.6302,-1.633 0.6646,-2.157 0.032,-0.4966 0.087,-1.417 -0.1556,-2.2092 a 2.0647873,2.0647873 0 0 0 -0.023,-0.073 c -0.011,-0.034 -0.02,-0.07 -0.033,-0.1033 0,0 0,0 0,0 a 2.0647873,2.0647873 0 0 0 -1.9337,-1.3446 z" style="opacity:1;fill:url(#linearGradient7051);fill-opacity:1;stroke:none;stroke-width:0.26458332px;stroke-linecap:butt;stroke-linejoin:miter;stroke-opacity:1" inkscape:connector-curvature="0"/>
    </clipPath>
    <clipPath clipPathUnits="userSpaceOnUse" id="clipPath11312">
      <path id="path11310" d="m -1637.9238,-1181.4359 a 2.0647873,2.0647873 0 0 0 -1.9337,1.3447 c 0,0 0,0 0,0 -0.012,0.031 -0.019,0.063 -0.029,0.094 a 2.0647873,2.0647873 0 0 0 -0.026,0.085 c -0.242,0.7917 -0.1874,1.7109 -0.155,2.2071 0.035,0.5336 0.2235,1.5204 0.6878,2.1957 0,0 0.01,0 0.01,0.01 a 1.6903625,1.5533958 0 0 0 1.4536,0.7643 1.6903625,1.5533958 0 0 0 1.4527,-0.7627 c 0,0 0.01,-0.01 0.01,-0.01 0.01,-0.012 0.015,-0.026 0.023,-0.039 0.4461,-0.6738 0.6302,-1.633 0.6646,-2.157 0.032,-0.4966 0.087,-1.417 -0.1556,-2.2092 a 2.0647873,2.0647873 0 0 0 -0.023,-0.073 c -0.011,-0.034 -0.02,-0.07 -0.033,-0.1033 0,0 0,0 0,0 a 2.0647873,2.0647873 0 0 0 -1.9337,-1.3446 z" style="opacity:1;fill:url(#linearGradient7061);fill-opacity:1;stroke:none;stroke-width:0.26458332px;stroke-linecap:butt;stroke-linejoin:miter;stroke-opacity:1" inkscape:connector-curvature="0"/>
    </clipPath>
  </defs>
  <sodipodi:namedview inkscape:document-rotation="0" inkscape:window-maximized="1" inkscape:window-y="-8" inkscape:window-x="-8" inkscape:window-height="1057" inkscape:window-width="1920" showgrid="false" inkscape:current-layer="layer1" inkscape:document-units="mm" inkscape:cy="0.25649147" inkscape:cx="-0.0325176" inkscape:zoom="128" inkscape:pageshadow="2" inkscape:pageopacity="0.0" borderopacity="1.0" bordercolor="#666666" pagecolor="#ffffff" id="base"/>
  <metadata id="metadata8175">
    <rdf:RDF>
      <cc:Work rdf:about="">
        <dc:format>image/svg+xml</dc:format>
        <dc:type rdf:resource="http://purl.org/dc/dcmitype/StillImage"/>
        <dc:title/>
      </cc:Work>
    </rdf:RDF>
  </metadata>
  <g transform="translate(-116.79463,-105.25639)" id="layer1" inkscape:groupmode="layer" inkscape:label="Layer 1">
    <g id="g6775" transform="matrix(0.04999979,0,0,0.04999979,93.021918,162.17438)">
      <ellipse style="opacity:1;fill:#000000;fill-opacity:0.18000004;fill-rule:nonzero;stroke:none;stroke-width:1.05833328;stroke-linecap:round;stroke-linejoin:round;stroke-miterlimit:4;stroke-dasharray:none;stroke-dashoffset:0;stroke-opacity:1;paint-order:markers fill stroke" id="path6763" cx="478.10208" cy="-1132.0146" rx="2.6458399" ry="2.6458249"/>
      <path sodipodi:nodetypes="zsszssz" inkscape:connector-curvature="0" id="path16824" d="m 478.10209,-1138.3646 c -2.05788,0 -2.64584,2.1308 -2.64584,3.4396 v 0.5292 c 0,1.3088 0.58796,3.4395 2.64584,3.4395 2.05787,0 2.64584,-2.1307 2.64584,-3.4395 v -0.5292 c 0,-1.3088 -0.58797,-3.4396 -2.64584,-3.4396 z" style="opacity:1;fill:#693c14;fill-opacity:1;fill-rule:nonzero;stroke:none;stroke-width:1.05833328;stroke-linecap:round;stroke-linejoin:miter;stroke-miterlimit:4;stroke-dasharray:none;stroke-dashoffset:0;stroke-opacity:1;paint-order:markers fill stroke"/>
      <path style="opacity:1;fill:#bc6e37;fill-opacity:1;fill-rule:nonzero;stroke:none;stroke-width:1.05833328;stroke-linecap:round;stroke-linejoin:miter;stroke-miterlimit:4;stroke-dasharray:none;stroke-dashoffset:0;stroke-opacity:1;paint-order:markers fill stroke" d="m 478.10207,-1137.8355 a 1.8520853,1.8520833 0 0 0 -1.62626,0.9664 c -0.33721,0.5808 -0.4904,1.3685 -0.4904,1.9436 v 0.5291 c 0,0.5752 0.14338,1.3643 0.48059,1.9451 0.33721,0.5809 0.79028,0.9648 1.6366,0.9648 0.8463,0 1.29937,-0.3839 1.63658,-0.9648 0.33721,-0.5808 0.48059,-1.3699 0.48059,-1.9451 v -0.5291 c 0,-0.5606 -0.1475,-1.3216 -0.46715,-1.8976 a 1.8520853,1.8520833 0 0 0 -1.65055,-1.0124 z" id="path16838" inkscape:connector-curvature="0"/>
      <ellipse style="opacity:1;fill:#f4a06a;fill-opacity:1;fill-rule:nonzero;stroke:none;stroke-width:0.4630211;stroke-linecap:round;stroke-linejoin:miter;stroke-miterlimit:4;stroke-dasharray:none;stroke-dashoffset:0;stroke-opacity:1;paint-order:markers stroke fill" id="ellipse16828" cx="478.10208" cy="-1135.9833" rx="1.8520854" ry="1.8520833"/>
      <ellipse ry="1.0583903" rx="1.0583915" cy="-1135.9833" cx="478.10205" id="ellipse16830" style="opacity:1;fill:#d97d3f;fill-opacity:1;fill-rule:nonzero;stroke:none;stroke-width:0.26459771;stroke-linecap:round;stroke-linejoin:miter;stroke-miterlimit:4;stroke-dasharray:none;stroke-dashoffset:0;stroke-opacity:1;paint-order:markers stroke fill"/>
      <path inkscape:connector-curvature="0" id="path16832" d="m 478.10209,-1137.0417 a 1.0583914,1.0583903 0 0 0 -1.05833,1.0583 1.0583914,1.0583903 0 0 0 0.078,0.3974 1.0583914,1.0583903 0 0 1 0.9803,-0.662 1.0583914,1.0583903 0 0 1 0.98031,0.6615 1.0583914,1.0583903 0 0 0 0.078,-0.3969 1.0583914,1.0583903 0 0 0 -1.05834,-1.0583 z" style="opacity:1;fill:#b06633;fill-opacity:1;fill-rule:nonzero;stroke:none;stroke-width:0.26459771;stroke-linecap:round;stroke-linejoin:miter;stroke-miterlimit:4;stroke-dasharray:none;stroke-dashoffset:0;stroke-opacity:1;paint-order:markers stroke fill"/>
      <path id="path6400" d="m 476.03605,-1135.2707 c -0.0329,0.2157 -0.0506,0.4243 -0.0506,0.6098 v 0.091 a 2.2489647,2.2489624 0 0 0 2.11666,1.4971 2.2489647,2.2489624 0 0 0 2.1177,-1.4996 v -0.088 c 0,-0.1852 -0.0176,-0.3932 -0.0506,-0.6082 a 2.1166119,2.1166098 0 0 1 -2.06706,1.667 2.1166119,2.1166098 0 0 1 -2.06602,-1.6686 z" style="opacity:1;fill:#a56030;fill-opacity:1;fill-rule:nonzero;stroke:none;stroke-width:0.56224096;stroke-linecap:round;stroke-linejoin:miter;stroke-miterlimit:4;stroke-dasharray:none;stroke-dashoffset:0;stroke-opacity:1;paint-order:markers stroke fill" inkscape:connector-curvature="0"/>
      <path style="opacity:1;fill:#595a5a;fill-opacity:1;fill-rule:nonzero;stroke:none;stroke-width:0.56224096;stroke-linecap:round;stroke-linejoin:miter;stroke-miterlimit:4;stroke-dasharray:none;stroke-dashoffset:0;stroke-opacity:1;paint-order:markers stroke fill" d="m 476.03605,-1135.5353 c -0.0329,0.2156 -0.0506,0.4243 -0.0506,0.6098 v 0.091 a 2.2489647,2.2489624 0 0 0 2.11666,1.4971 2.2489647,2.2489624 0 0 0 2.1177,-1.4997 v -0.088 c 0,-0.1852 -0.0176,-0.3933 -0.0506,-0.6083 a 2.1166119,2.1166098 0 0 1 -2.06706,1.6671 2.1166119,2.1166098 0 0 1 -2.06602,-1.6686 z" id="ellipse16901" inkscape:connector-curvature="0"/>
      <path style="opacity:1;fill:#a56030;fill-opacity:1;fill-rule:nonzero;stroke:none;stroke-width:0.56224096;stroke-linecap:round;stroke-linejoin:miter;stroke-miterlimit:4;stroke-dasharray:none;stroke-dashoffset:0;stroke-opacity:1;paint-order:markers stroke fill" d="m 476.05568,-1134.9266 a 2.2489648,2.2489624 0 0 0 -0.0672,0.1695 c -8.7e-4,0.032 -0.003,0.065 -0.003,0.096 v 0.2646 a 2.1166119,2.1166098 0 0 1 0.0703,-0.5302 z m 4.09535,0.01 a 2.1166119,2.1166098 0 0 1 0.0672,0.5229 2.1166119,2.1166098 0 0 1 -2.11667,2.1167 2.1166119,2.1166098 0 0 1 -2.11148,-1.9668 c 0.022,0.5496 0.16368,1.2424 0.46406,1.772 a 2.2489648,2.2489624 0 0 0 1.64795,0.724 2.2489648,2.2489624 0 0 0 1.64899,-0.7245 c 0.32803,-0.5786 0.46871,-1.354 0.46871,-1.9219 v -0.2646 c 0,-0.028 -0.002,-0.059 -0.003,-0.089 a 2.2489648,2.2489624 0 0 0 -0.0657,-0.1689 z" id="path6402" inkscape:connector-curvature="0"/>
      <path style="opacity:1;fill:#595b5b;fill-opacity:1;fill-rule:nonzero;stroke:none;stroke-width:0.56224096;stroke-linecap:round;stroke-linejoin:miter;stroke-miterlimit:4;stroke-dasharray:none;stroke-dashoffset:0;stroke-opacity:1;paint-order:markers stroke fill" d="m 476.05568,-1135.1912 a 2.2489648,2.2489624 0 0 0 -0.0672,0.1695 c -8.7e-4,0.032 -0.003,0.065 -0.003,0.096 v 0.265 a 2.1166119,2.1166098 0 0 1 0.0703,-0.5307 z m -0.0703,0.5307 v 0.2641 c 0,0.3878 0.0671,0.8721 0.21291,1.325 a 2.2489648,2.2489624 0 0 0 1.90375,1.0568 2.2489648,2.2489624 0 0 0 1.90376,-1.0542 c 0.14642,-0.4537 0.21394,-0.939 0.21394,-1.3276 v -0.5291 c 0,-0.028 -0.002,-0.059 -0.003,-0.089 a 2.2489648,2.2489624 0 0 0 -0.0656,-0.169 2.1166119,2.1166098 0 0 1 0.0672,0.5229 2.1166119,2.1166098 0 0 1 -2.11667,2.1167 2.1166119,2.1166098 0 0 1 -2.11666,-2.1167 z" id="path16905" inkscape:connector-curvature="0"/>
    </g>
  </g>
</svg>