<?xml version="1.0" encoding="UTF-8" standalone="no"?>
<svg
   width="1.5345834mm"
   height="2.870723mm"
   viewBox="0 0 1.5345834 2.870723"
   version="1.1"
   id="svg3893"
   inkscape:version="1.1 (c68e22c387, 2021-05-23)"
   sodipodi:docname="basket_hoop_blue_range.svg"
   xmlns:inkscape="http://www.inkscape.org/namespaces/inkscape"
   xmlns:sodipodi="http://sodipodi.sourceforge.net/DTD/sodipodi-0.dtd"
   xmlns="http://www.w3.org/2000/svg"
   xmlns:svg="http://www.w3.org/2000/svg"
   xmlns:rdf="http://www.w3.org/1999/02/22-rdf-syntax-ns#"
   xmlns:cc="http://creativecommons.org/ns#"
   xmlns:dc="http://purl.org/dc/elements/1.1/">
  <defs
     id="defs3887" />
  <sodipodi:namedview
     id="base"
     pagecolor="#ffffff"
     bordercolor="#666666"
     borderopacity="1.0"
     inkscape:pageopacity="0.0"
     inkscape:pageshadow="2"
     inkscape:zoom="31.678384"
     inkscape:cx="-1.0732871"
     inkscape:cy="6.5186407"
     inkscape:document-units="px"
     inkscape:current-layer="layer1"
     inkscape:document-rotation="0"
     showgrid="false"
     inkscape:pagecheckerboard="0"
     inkscape:window-width="1920"
     inkscape:window-height="1057"
     inkscape:window-x="-8"
     inkscape:window-y="-8"
     inkscape:window-maximized="1" />
  <metadata
     id="metadata3890">
    <rdf:RDF>
      <cc:Work
         rdf:about="">
        <dc:format>image/svg+xml</dc:format>
        <dc:type
           rdf:resource="http://purl.org/dc/dcmitype/StillImage" />
      </cc:Work>
    </rdf:RDF>
  </metadata>
  <g
     inkscape:label="Layer 1"
     inkscape:groupmode="layer"
     id="layer1"
     transform="translate(-156.2553,-117.19151)">
    <g
       id="g791766"
       transform="matrix(0.04999989,0,0,0.04999989,101.34115,128.71409)"
       style="stroke-width:20">
      <g
         id="g527385"
         transform="matrix(1.0001334,0,0,0.99975632,-0.14649165,-62.217576)"
         style="stroke-width:20.001">
        <path
           id="path527379"
           style="color:#000000;fill:#38389f;fill-opacity:1;stroke-width:80.0044;stroke-linecap:round;stroke-linejoin:round;-inkscape-stroke:none;paint-order:markers fill stroke"
           d="m 4155,-636.00195 c -2.1815,0 -4,1.82056 -4,4.00195 0,2.18143 1.8185,4 4,4 h 6.998 c 2.1816,0 4,-1.81857 4,-4 0,-2.18139 -1.8184,-4.00195 -4,-4.00195 z"
           transform="scale(0.26458333)" />
        <path
           id="path527381"
           style="color:#000000;fill:#7880f3;fill-opacity:1;stroke-width:10.584;stroke-linecap:round;stroke-linejoin:round;-inkscape-stroke:none;paint-order:markers fill stroke"
           d="m 1099.3437,-168.0099 c -0.4352,0 -0.7927,0.35808 -0.7927,0.79324 0,0.43516 0.3575,0.79271 0.7927,0.79271 h 1.8516 c 0.4352,0 0.7948,-0.35755 0.7948,-0.79271 0,-0.43516 -0.3596,-0.79324 -0.7948,-0.79324 z" />
        <rect
           style="fill:#d4e4ff;fill-opacity:1;stroke:none;stroke-width:10.584;stroke-linecap:round;stroke-linejoin:round;stroke-miterlimit:4;stroke-dasharray:none;paint-order:markers fill stroke"
           id="rect527383"
           width="2.9104166"
           height="1.0583333"
           x="1098.8146"
           y="-167.74583"
           ry="0.52916664" />
      </g>
      <g
         id="use527387"
         transform="matrix(1.0001334,0,0,0.99975632,-0.14649165,-6.9196572)"
         style="stroke-width:20.001">
        <path
           id="path528329"
           style="color:#000000;fill:#38389f;fill-opacity:1;stroke-width:80.0044;stroke-linecap:round;stroke-linejoin:round;-inkscape-stroke:none;paint-order:markers fill stroke"
           d="m 4155,-636.00195 c -2.1815,0 -4,1.82056 -4,4.00195 0,2.18143 1.8185,4 4,4 h 6.998 c 2.1816,0 4,-1.81857 4,-4 0,-2.18139 -1.8184,-4.00195 -4,-4.00195 z"
           transform="scale(0.26458333)" />
        <path
           id="path528331"
           style="color:#000000;fill:#7880f3;fill-opacity:1;stroke-width:10.584;stroke-linecap:round;stroke-linejoin:round;-inkscape-stroke:none;paint-order:markers fill stroke"
           d="m 1099.3437,-168.0099 c -0.4352,0 -0.7927,0.35808 -0.7927,0.79324 0,0.43516 0.3575,0.79271 0.7927,0.79271 h 1.8516 c 0.4352,0 0.7948,-0.35755 0.7948,-0.79271 0,-0.43516 -0.3596,-0.79324 -0.7948,-0.79324 z" />
        <rect
           style="fill:#d4e4ff;fill-opacity:1;stroke:none;stroke-width:10.584;stroke-linecap:round;stroke-linejoin:round;stroke-miterlimit:4;stroke-dasharray:none;paint-order:markers fill stroke"
           id="rect528333"
           width="2.9104166"
           height="1.0583333"
           x="1098.8146"
           y="-167.74583"
           ry="0.52916664" />
      </g>
      <g
         id="use527389"
         transform="matrix(0,-1.0001334,0.99975632,0,1295.095,898.67149)"
         style="stroke-width:20.001">
        <path
           id="path528273"
           style="color:#000000;fill:#38389f;fill-opacity:1;stroke-width:80.0044;stroke-linecap:round;stroke-linejoin:round;-inkscape-stroke:none;paint-order:markers fill stroke"
           d="m 4155,-636.00195 c -2.1815,0 -4,1.82056 -4,4.00195 0,2.18143 1.8185,4 4,4 h 6.998 c 2.1816,0 4,-1.81857 4,-4 0,-2.18139 -1.8184,-4.00195 -4,-4.00195 z"
           transform="scale(0.26458333)" />
        <path
           id="path528275"
           style="color:#000000;fill:#7880f3;fill-opacity:1;stroke-width:10.584;stroke-linecap:round;stroke-linejoin:round;-inkscape-stroke:none;paint-order:markers fill stroke"
           d="m 1099.3437,-168.0099 c -0.4352,0 -0.7927,0.35808 -0.7927,0.79324 0,0.43516 0.3575,0.79271 0.7927,0.79271 h 1.8516 c 0.4352,0 0.7948,-0.35755 0.7948,-0.79271 0,-0.43516 -0.3596,-0.79324 -0.7948,-0.79324 z" />
        <rect
           style="fill:#d4e4ff;fill-opacity:1;stroke:none;stroke-width:10.584;stroke-linecap:round;stroke-linejoin:round;stroke-miterlimit:4;stroke-dasharray:none;paint-order:markers fill stroke"
           id="rect528277"
           width="2.9104166"
           height="1.0583333"
           x="1098.8146"
           y="-167.74583"
           ry="0.52916664" />
      </g>
      <g
         id="use527391"
         transform="matrix(-0.70720111,-0.70720111,0.70693447,-0.70693447,2016.144,438.60481)"
         style="stroke-width:20.001">
        <path
           id="path528241"
           style="color:#000000;fill:#38389f;fill-opacity:1;stroke-width:80.0044;stroke-linecap:round;stroke-linejoin:round;-inkscape-stroke:none;paint-order:markers fill stroke"
           d="m 4155,-636.00195 c -2.1815,0 -4,1.82056 -4,4.00195 0,2.18143 1.8185,4 4,4 h 6.998 c 2.1816,0 4,-1.81857 4,-4 0,-2.18139 -1.8184,-4.00195 -4,-4.00195 z"
           transform="scale(0.26458333)" />
        <path
           id="path528243"
           style="color:#000000;fill:#7880f3;fill-opacity:1;stroke-width:10.584;stroke-linecap:round;stroke-linejoin:round;-inkscape-stroke:none;paint-order:markers fill stroke"
           d="m 1099.3437,-168.0099 c -0.4352,0 -0.7927,0.35808 -0.7927,0.79324 0,0.43516 0.3575,0.79271 0.7927,0.79271 h 1.8516 c 0.4352,0 0.7948,-0.35755 0.7948,-0.79271 0,-0.43516 -0.3596,-0.79324 -0.7948,-0.79324 z" />
        <rect
           style="fill:#d4e4ff;fill-opacity:1;stroke:none;stroke-width:10.584;stroke-linecap:round;stroke-linejoin:round;stroke-miterlimit:4;stroke-dasharray:none;paint-order:markers fill stroke"
           id="rect528245"
           width="2.9104166"
           height="1.0583333"
           x="1098.8146"
           y="-167.74583"
           ry="0.52916664" />
      </g>
      <g
         id="use527393"
         transform="matrix(0.70720111,-0.70720111,0.70693447,0.70693447,459.92015,714.12913)"
         style="stroke-width:20.001">
        <path
           id="path528313"
           style="color:#000000;fill:#38389f;fill-opacity:1;stroke-width:80.0044;stroke-linecap:round;stroke-linejoin:round;-inkscape-stroke:none;paint-order:markers fill stroke"
           d="m 4155,-636.00195 c -2.1815,0 -4,1.82056 -4,4.00195 0,2.18143 1.8185,4 4,4 h 6.998 c 2.1816,0 4,-1.81857 4,-4 0,-2.18139 -1.8184,-4.00195 -4,-4.00195 z"
           transform="scale(0.26458333)" />
        <path
           id="path528315"
           style="color:#000000;fill:#7880f3;fill-opacity:1;stroke-width:10.584;stroke-linecap:round;stroke-linejoin:round;-inkscape-stroke:none;paint-order:markers fill stroke"
           d="m 1099.3437,-168.0099 c -0.4352,0 -0.7927,0.35808 -0.7927,0.79324 0,0.43516 0.3575,0.79271 0.7927,0.79271 h 1.8516 c 0.4352,0 0.7948,-0.35755 0.7948,-0.79271 0,-0.43516 -0.3596,-0.79324 -0.7948,-0.79324 z" />
        <rect
           style="fill:#d4e4ff;fill-opacity:1;stroke:none;stroke-width:10.584;stroke-linecap:round;stroke-linejoin:round;stroke-miterlimit:4;stroke-dasharray:none;paint-order:markers fill stroke"
           id="rect528317"
           width="2.9104166"
           height="1.0583333"
           x="1098.8146"
           y="-167.74583"
           ry="0.52916664" />
      </g>
      <g
         id="use527397"
         transform="matrix(0.38272839,-0.9240053,0.92365693,0.38258409,859.16094,889.46518)"
         style="stroke-width:20.001">
        <path
           id="path528289"
           style="color:#000000;fill:#38389f;fill-opacity:1;stroke-width:80.0044;stroke-linecap:round;stroke-linejoin:round;-inkscape-stroke:none;paint-order:markers fill stroke"
           d="m 4155,-636.00195 c -2.1815,0 -4,1.82056 -4,4.00195 0,2.18143 1.8185,4 4,4 h 6.998 c 2.1816,0 4,-1.81857 4,-4 0,-2.18139 -1.8184,-4.00195 -4,-4.00195 z"
           transform="scale(0.26458333)" />
        <path
           id="path528291"
           style="color:#000000;fill:#7880f3;fill-opacity:1;stroke-width:10.584;stroke-linecap:round;stroke-linejoin:round;-inkscape-stroke:none;paint-order:markers fill stroke"
           d="m 1099.3437,-168.0099 c -0.4352,0 -0.7927,0.35808 -0.7927,0.79324 0,0.43516 0.3575,0.79271 0.7927,0.79271 h 1.8516 c 0.4352,0 0.7948,-0.35755 0.7948,-0.79271 0,-0.43516 -0.3596,-0.79324 -0.7948,-0.79324 z" />
        <rect
           style="fill:#d4e4ff;fill-opacity:1;stroke:none;stroke-width:10.584;stroke-linecap:round;stroke-linejoin:round;stroke-miterlimit:4;stroke-dasharray:none;paint-order:markers fill stroke"
           id="rect528293"
           width="2.9104166"
           height="1.0583333"
           x="1098.8146"
           y="-167.74583"
           ry="0.52916664" />
      </g>
      <g
         id="use527399"
         transform="matrix(-0.38274061,-0.92400024,0.92365186,-0.38259631,1701.3823,740.34695)"
         style="stroke-width:20.001">
        <path
           id="path528265"
           style="color:#000000;fill:#38389f;fill-opacity:1;stroke-width:80.0044;stroke-linecap:round;stroke-linejoin:round;-inkscape-stroke:none;paint-order:markers fill stroke"
           d="m 4155,-636.00195 c -2.1815,0 -4,1.82056 -4,4.00195 0,2.18143 1.8185,4 4,4 h 6.998 c 2.1816,0 4,-1.81857 4,-4 0,-2.18139 -1.8184,-4.00195 -4,-4.00195 z"
           transform="scale(0.26458333)" />
        <path
           id="path528267"
           style="color:#000000;fill:#7880f3;fill-opacity:1;stroke-width:10.584;stroke-linecap:round;stroke-linejoin:round;-inkscape-stroke:none;paint-order:markers fill stroke"
           d="m 1099.3437,-168.0099 c -0.4352,0 -0.7927,0.35808 -0.7927,0.79324 0,0.43516 0.3575,0.79271 0.7927,0.79271 h 1.8516 c 0.4352,0 0.7948,-0.35755 0.7948,-0.79271 0,-0.43516 -0.3596,-0.79324 -0.7948,-0.79324 z" />
        <rect
           style="fill:#d4e4ff;fill-opacity:1;stroke:none;stroke-width:10.584;stroke-linecap:round;stroke-linejoin:round;stroke-miterlimit:4;stroke-dasharray:none;paint-order:markers fill stroke"
           id="rect528269"
           width="2.9104166"
           height="1.0583333"
           x="1098.8146"
           y="-167.74583"
           ry="0.52916664" />
      </g>
      <g
         id="use527401"
         transform="matrix(0.92400025,-0.38274058,0.38259627,0.92365188,158.17806,399.36726)"
         style="stroke-width:20.001">
        <path
           id="path528337"
           style="color:#000000;fill:#38389f;fill-opacity:1;stroke-width:80.0044;stroke-linecap:round;stroke-linejoin:round;-inkscape-stroke:none;paint-order:markers fill stroke"
           d="m 4155,-636.00195 c -2.1815,0 -4,1.82056 -4,4.00195 0,2.18143 1.8185,4 4,4 h 6.998 c 2.1816,0 4,-1.81857 4,-4 0,-2.18139 -1.8184,-4.00195 -4,-4.00195 z"
           transform="scale(0.26458333)" />
        <path
           id="path528339"
           style="color:#000000;fill:#7880f3;fill-opacity:1;stroke-width:10.584;stroke-linecap:round;stroke-linejoin:round;-inkscape-stroke:none;paint-order:markers fill stroke"
           d="m 1099.3437,-168.0099 c -0.4352,0 -0.7927,0.35808 -0.7927,0.79324 0,0.43516 0.3575,0.79271 0.7927,0.79271 h 1.8516 c 0.4352,0 0.7948,-0.35755 0.7948,-0.79271 0,-0.43516 -0.3596,-0.79324 -0.7948,-0.79324 z" />
        <rect
           style="fill:#d4e4ff;fill-opacity:1;stroke:none;stroke-width:10.584;stroke-linecap:round;stroke-linejoin:round;stroke-miterlimit:4;stroke-dasharray:none;paint-order:markers fill stroke"
           id="rect528341"
           width="2.9104166"
           height="1.0583333"
           x="1098.8146"
           y="-167.74583"
           ry="0.52916664" />
      </g>
      <g
         id="use527403"
         transform="matrix(0.9240053,0.38272839,-0.38258409,0.92365693,30.221048,-493.94247)"
         style="stroke-width:20.001">
        <path
           id="path528233"
           style="color:#000000;fill:#38389f;fill-opacity:1;stroke-width:80.0044;stroke-linecap:round;stroke-linejoin:round;-inkscape-stroke:none;paint-order:markers fill stroke"
           d="m 4155,-636.00195 c -2.1815,0 -4,1.82056 -4,4.00195 0,2.18143 1.8185,4 4,4 h 6.998 c 2.1816,0 4,-1.81857 4,-4 0,-2.18139 -1.8184,-4.00195 -4,-4.00195 z"
           transform="scale(0.26458333)" />
        <path
           id="path528235"
           style="color:#000000;fill:#7880f3;fill-opacity:1;stroke-width:10.584;stroke-linecap:round;stroke-linejoin:round;-inkscape-stroke:none;paint-order:markers fill stroke"
           d="m 1099.3437,-168.0099 c -0.4352,0 -0.7927,0.35808 -0.7927,0.79324 0,0.43516 0.3575,0.79271 0.7927,0.79271 h 1.8516 c 0.4352,0 0.7948,-0.35755 0.7948,-0.79271 0,-0.43516 -0.3596,-0.79324 -0.7948,-0.79324 z" />
        <rect
           style="fill:#d4e4ff;fill-opacity:1;stroke:none;stroke-width:10.584;stroke-linecap:round;stroke-linejoin:round;stroke-miterlimit:4;stroke-dasharray:none;paint-order:markers fill stroke"
           id="rect528237"
           width="2.9104166"
           height="1.0583333"
           x="1098.8146"
           y="-167.74583"
           ry="0.52916664" />
      </g>
      <g
         id="use527407"
         transform="matrix(0.1953866,-0.98086232,0.98049251,0.19531293,1076.3632,915.52937)"
         style="stroke-width:20.001">
        <path
           id="path528281"
           style="color:#000000;fill:#38389f;fill-opacity:1;stroke-width:80.0044;stroke-linecap:round;stroke-linejoin:round;-inkscape-stroke:none;paint-order:markers fill stroke"
           d="m 4155,-636.00195 c -2.1815,0 -4,1.82056 -4,4.00195 0,2.18143 1.8185,4 4,4 h 6.998 c 2.1816,0 4,-1.81857 4,-4 0,-2.18139 -1.8184,-4.00195 -4,-4.00195 z"
           transform="scale(0.26458333)" />
        <path
           id="path528283"
           style="color:#000000;fill:#7880f3;fill-opacity:1;stroke-width:10.584;stroke-linecap:round;stroke-linejoin:round;-inkscape-stroke:none;paint-order:markers fill stroke"
           d="m 1099.3437,-168.0099 c -0.4352,0 -0.7927,0.35808 -0.7927,0.79324 0,0.43516 0.3575,0.79271 0.7927,0.79271 h 1.8516 c 0.4352,0 0.7948,-0.35755 0.7948,-0.79271 0,-0.43516 -0.3596,-0.79324 -0.7948,-0.79324 z" />
        <rect
           style="fill:#d4e4ff;fill-opacity:1;stroke:none;stroke-width:10.584;stroke-linecap:round;stroke-linejoin:round;stroke-miterlimit:4;stroke-dasharray:none;paint-order:markers fill stroke"
           id="rect528285"
           width="2.9104166"
           height="1.0583333"
           x="1098.8146"
           y="-167.74583"
           ry="0.52916664" />
      </g>
      <g
         id="use527409"
         transform="matrix(-0.55541515,-0.83173363,0.83142004,-0.55520574,1873.3973,605.19188)"
         style="stroke-width:20.001">
        <path
           id="path528257"
           style="color:#000000;fill:#38389f;fill-opacity:1;stroke-width:80.0044;stroke-linecap:round;stroke-linejoin:round;-inkscape-stroke:none;paint-order:markers fill stroke"
           d="m 4155,-636.00195 c -2.1815,0 -4,1.82056 -4,4.00195 0,2.18143 1.8185,4 4,4 h 6.998 c 2.1816,0 4,-1.81857 4,-4 0,-2.18139 -1.8184,-4.00195 -4,-4.00195 z"
           transform="scale(0.26458333)" />
        <path
           id="path528259"
           style="color:#000000;fill:#7880f3;fill-opacity:1;stroke-width:10.584;stroke-linecap:round;stroke-linejoin:round;-inkscape-stroke:none;paint-order:markers fill stroke"
           d="m 1099.3437,-168.0099 c -0.4352,0 -0.7927,0.35808 -0.7927,0.79324 0,0.43516 0.3575,0.79271 0.7927,0.79271 h 1.8516 c 0.4352,0 0.7948,-0.35755 0.7948,-0.79271 0,-0.43516 -0.3596,-0.79324 -0.7948,-0.79324 z" />
        <rect
           style="fill:#d4e4ff;fill-opacity:1;stroke:none;stroke-width:10.584;stroke-linecap:round;stroke-linejoin:round;stroke-miterlimit:4;stroke-dasharray:none;paint-order:markers fill stroke"
           id="rect528261"
           width="2.9104166"
           height="1.0583333"
           x="1098.8146"
           y="-167.74583"
           ry="0.52916664" />
      </g>
      <g
         id="use527411"
         transform="matrix(0.83173359,-0.55541521,0.5552058,0.83142,293.3331,571.38248)"
         style="stroke-width:20.001">
        <path
           id="path528305"
           style="color:#000000;fill:#38389f;fill-opacity:1;stroke-width:80.0044;stroke-linecap:round;stroke-linejoin:round;-inkscape-stroke:none;paint-order:markers fill stroke"
           d="m 4155,-636.00195 c -2.1815,0 -4,1.82056 -4,4.00195 0,2.18143 1.8185,4 4,4 h 6.998 c 2.1816,0 4,-1.81857 4,-4 0,-2.18139 -1.8184,-4.00195 -4,-4.00195 z"
           transform="scale(0.26458333)" />
        <path
           id="path528307"
           style="color:#000000;fill:#7880f3;fill-opacity:1;stroke-width:10.584;stroke-linecap:round;stroke-linejoin:round;-inkscape-stroke:none;paint-order:markers fill stroke"
           d="m 1099.3437,-168.0099 c -0.4352,0 -0.7927,0.35808 -0.7927,0.79324 0,0.43516 0.3575,0.79271 0.7927,0.79271 h 1.8516 c 0.4352,0 0.7948,-0.35755 0.7948,-0.79271 0,-0.43516 -0.3596,-0.79324 -0.7948,-0.79324 z" />
        <rect
           style="fill:#d4e4ff;fill-opacity:1;stroke:none;stroke-width:10.584;stroke-linecap:round;stroke-linejoin:round;stroke-miterlimit:4;stroke-dasharray:none;paint-order:markers fill stroke"
           id="rect528309"
           width="2.9104166"
           height="1.0583333"
           x="1098.8146"
           y="-167.74583"
           ry="0.52916664" />
      </g>
      <g
         id="use527413"
         transform="matrix(0.55586795,-0.83143108,0.8311176,0.55565838,650.62744,821.33616)"
         style="stroke-width:20.001">
        <path
           id="path528297"
           style="color:#000000;fill:#38389f;fill-opacity:1;stroke-width:80.0044;stroke-linecap:round;stroke-linejoin:round;-inkscape-stroke:none;paint-order:markers fill stroke"
           d="m 4155,-636.00195 c -2.1815,0 -4,1.82056 -4,4.00195 0,2.18143 1.8185,4 4,4 h 6.998 c 2.1816,0 4,-1.81857 4,-4 0,-2.18139 -1.8184,-4.00195 -4,-4.00195 z"
           transform="scale(0.26458333)" />
        <path
           id="path528299"
           style="color:#000000;fill:#7880f3;fill-opacity:1;stroke-width:10.584;stroke-linecap:round;stroke-linejoin:round;-inkscape-stroke:none;paint-order:markers fill stroke"
           d="m 1099.3437,-168.0099 c -0.4352,0 -0.7927,0.35808 -0.7927,0.79324 0,0.43516 0.3575,0.79271 0.7927,0.79271 h 1.8516 c 0.4352,0 0.7948,-0.35755 0.7948,-0.79271 0,-0.43516 -0.3596,-0.79324 -0.7948,-0.79324 z" />
        <rect
           style="fill:#d4e4ff;fill-opacity:1;stroke:none;stroke-width:10.584;stroke-linecap:round;stroke-linejoin:round;stroke-miterlimit:4;stroke-dasharray:none;paint-order:markers fill stroke"
           id="rect528301"
           width="2.9104166"
           height="1.0583333"
           x="1098.8146"
           y="-167.74583"
           ry="0.52916664" />
      </g>
      <g
         id="use527415"
         transform="matrix(-0.19485252,-0.98096856,0.9805987,-0.19477905,1505.7523,839.62803)"
         style="stroke-width:20.001">
        <path
           id="path528249"
           style="color:#000000;fill:#38389f;fill-opacity:1;stroke-width:80.0044;stroke-linecap:round;stroke-linejoin:round;-inkscape-stroke:none;paint-order:markers fill stroke"
           d="m 4155,-636.00195 c -2.1815,0 -4,1.82056 -4,4.00195 0,2.18143 1.8185,4 4,4 h 6.998 c 2.1816,0 4,-1.81857 4,-4 0,-2.18139 -1.8184,-4.00195 -4,-4.00195 z"
           transform="scale(0.26458333)" />
        <path
           id="path528251"
           style="color:#000000;fill:#7880f3;fill-opacity:1;stroke-width:10.584;stroke-linecap:round;stroke-linejoin:round;-inkscape-stroke:none;paint-order:markers fill stroke"
           d="m 1099.3437,-168.0099 c -0.4352,0 -0.7927,0.35808 -0.7927,0.79324 0,0.43516 0.3575,0.79271 0.7927,0.79271 h 1.8516 c 0.4352,0 0.7948,-0.35755 0.7948,-0.79271 0,-0.43516 -0.3596,-0.79324 -0.7948,-0.79324 z" />
        <rect
           style="fill:#d4e4ff;fill-opacity:1;stroke:none;stroke-width:10.584;stroke-linecap:round;stroke-linejoin:round;stroke-miterlimit:4;stroke-dasharray:none;paint-order:markers fill stroke"
           id="rect528253"
           width="2.9104166"
           height="1.0583333"
           x="1098.8146"
           y="-167.74583"
           ry="0.52916664" />
      </g>
      <g
         id="use527417"
         transform="matrix(0.98096855,-0.19485255,0.19477909,0.9805987,58.897191,203.73719)"
         style="stroke-width:20.001">
        <path
           id="path528321"
           style="color:#000000;fill:#38389f;fill-opacity:1;stroke-width:80.0044;stroke-linecap:round;stroke-linejoin:round;-inkscape-stroke:none;paint-order:markers fill stroke"
           d="m 4155,-636.00195 c -2.1815,0 -4,1.82056 -4,4.00195 0,2.18143 1.8185,4 4,4 h 6.998 c 2.1816,0 4,-1.81857 4,-4 0,-2.18139 -1.8184,-4.00195 -4,-4.00195 z"
           transform="scale(0.26458333)" />
        <path
           id="path528323"
           style="color:#000000;fill:#7880f3;fill-opacity:1;stroke-width:10.584;stroke-linecap:round;stroke-linejoin:round;-inkscape-stroke:none;paint-order:markers fill stroke"
           d="m 1099.3437,-168.0099 c -0.4352,0 -0.7927,0.35808 -0.7927,0.79324 0,0.43516 0.3575,0.79271 0.7927,0.79271 h 1.8516 c 0.4352,0 0.7948,-0.35755 0.7948,-0.79271 0,-0.43516 -0.3596,-0.79324 -0.7948,-0.79324 z" />
        <rect
           style="fill:#d4e4ff;fill-opacity:1;stroke:none;stroke-width:10.584;stroke-linecap:round;stroke-linejoin:round;stroke-miterlimit:4;stroke-dasharray:none;paint-order:markers fill stroke"
           id="rect528325"
           width="2.9104166"
           height="1.0583333"
           x="1098.8146"
           y="-167.74583"
           ry="0.52916664" />
      </g>
      <g
         id="use527419"
         transform="matrix(0.83143108,0.55586795,-0.55565838,0.8311176,107.92319,-697.3576)"
         style="stroke-width:20.001">
        <path
           id="path528225"
           style="color:#000000;fill:#38389f;fill-opacity:1;stroke-width:80.0044;stroke-linecap:round;stroke-linejoin:round;-inkscape-stroke:none;paint-order:markers fill stroke"
           d="m 4155,-636.00195 c -2.1815,0 -4,1.82056 -4,4.00195 0,2.18143 1.8185,4 4,4 h 6.998 c 2.1816,0 4,-1.81857 4,-4 0,-2.18139 -1.8184,-4.00195 -4,-4.00195 z"
           transform="scale(0.26458333)" />
        <path
           id="path528227"
           style="color:#000000;fill:#7880f3;fill-opacity:1;stroke-width:10.584;stroke-linecap:round;stroke-linejoin:round;-inkscape-stroke:none;paint-order:markers fill stroke"
           d="m 1099.3437,-168.0099 c -0.4352,0 -0.7927,0.35808 -0.7927,0.79324 0,0.43516 0.3575,0.79271 0.7927,0.79271 h 1.8516 c 0.4352,0 0.7948,-0.35755 0.7948,-0.79271 0,-0.43516 -0.3596,-0.79324 -0.7948,-0.79324 z" />
        <rect
           style="fill:#d4e4ff;fill-opacity:1;stroke:none;stroke-width:10.584;stroke-linecap:round;stroke-linejoin:round;stroke-miterlimit:4;stroke-dasharray:none;paint-order:markers fill stroke"
           id="rect528229"
           width="2.9104166"
           height="1.0583333"
           x="1098.8146"
           y="-167.74583"
           ry="0.52916664" />
      </g>
      <g
         id="use527421"
         transform="matrix(0.98086232,0.1953866,-0.19531293,0.98049251,-6.2012243,-279.88397)"
         style="stroke-width:20.001">
        <path
           id="path528217"
           style="color:#000000;fill:#38389f;fill-opacity:1;stroke-width:80.0044;stroke-linecap:round;stroke-linejoin:round;-inkscape-stroke:none;paint-order:markers fill stroke"
           d="m 4155,-636.00195 c -2.1815,0 -4,1.82056 -4,4.00195 0,2.18143 1.8185,4 4,4 h 6.998 c 2.1816,0 4,-1.81857 4,-4 0,-2.18139 -1.8184,-4.00195 -4,-4.00195 z"
           transform="scale(0.26458333)" />
        <path
           id="path528219"
           style="color:#000000;fill:#7880f3;fill-opacity:1;stroke-width:10.584;stroke-linecap:round;stroke-linejoin:round;-inkscape-stroke:none;paint-order:markers fill stroke"
           d="m 1099.3437,-168.0099 c -0.4352,0 -0.7927,0.35808 -0.7927,0.79324 0,0.43516 0.3575,0.79271 0.7927,0.79271 h 1.8516 c 0.4352,0 0.7948,-0.35755 0.7948,-0.79271 0,-0.43516 -0.3596,-0.79324 -0.7948,-0.79324 z" />
        <rect
           style="fill:#d4e4ff;fill-opacity:1;stroke:none;stroke-width:10.584;stroke-linecap:round;stroke-linejoin:round;stroke-miterlimit:4;stroke-dasharray:none;paint-order:markers fill stroke"
           id="rect528221"
           width="2.9104166"
           height="1.0583333"
           x="1098.8146"
           y="-167.74583"
           ry="0.52916664" />
      </g>
    </g>
  </g>
</svg>
