<?xml version="1.0" encoding="UTF-8" standalone="no"?>
<svg
   width="1.5345834mm"
   height="2.8707292mm"
   viewBox="0 0 1.5345834 2.8707292"
   version="1.1"
   id="svg3893"
   inkscape:version="1.1 (c68e22c387, 2021-05-23)"
   sodipodi:docname="basket_hoop_red_range.svg"
   xmlns:inkscape="http://www.inkscape.org/namespaces/inkscape"
   xmlns:sodipodi="http://sodipodi.sourceforge.net/DTD/sodipodi-0.dtd"
   xmlns="http://www.w3.org/2000/svg"
   xmlns:svg="http://www.w3.org/2000/svg"
   xmlns:rdf="http://www.w3.org/1999/02/22-rdf-syntax-ns#"
   xmlns:cc="http://creativecommons.org/ns#"
   xmlns:dc="http://purl.org/dc/elements/1.1/">
  <defs
     id="defs3887" />
  <sodipodi:namedview
     id="base"
     pagecolor="#ffffff"
     bordercolor="#666666"
     borderopacity="1.0"
     inkscape:pageopacity="0.0"
     inkscape:pageshadow="2"
     inkscape:zoom="31.678384"
     inkscape:cx="4.608821"
     inkscape:cy="11.348433"
     inkscape:document-units="px"
     inkscape:current-layer="layer1"
     inkscape:document-rotation="0"
     showgrid="false"
     inkscape:pagecheckerboard="0"
     inkscape:window-width="1920"
     inkscape:window-height="1057"
     inkscape:window-x="-8"
     inkscape:window-y="-8"
     inkscape:window-maximized="1" />
  <metadata
     id="metadata3890">
    <rdf:RDF>
      <cc:Work
         rdf:about="">
        <dc:format>image/svg+xml</dc:format>
        <dc:type
           rdf:resource="http://purl.org/dc/dcmitype/StillImage" />
      </cc:Work>
    </rdf:RDF>
  </metadata>
  <g
     inkscape:label="Layer 1"
     inkscape:groupmode="layer"
     id="layer1"
     transform="translate(-134.33267,-117.94747)">
    <g
       id="g791923"
       transform="matrix(0.04999978,0,0,0.05,77.645937,129.47007)"
       style="stroke-width:20">
      <g
         id="g528478"
         transform="matrix(-1.0001334,0,0,0.99975632,2262.8633,-62.217576)"
         style="stroke-width:20.001">
        <path
           id="path528472"
           style="color:#000000;fill:#992727;fill-opacity:1;stroke-width:80.0044;stroke-linecap:round;stroke-linejoin:round;-inkscape-stroke:none;paint-order:markers fill stroke"
           d="m 4155,-636.00195 c -2.1815,0 -4,1.82056 -4,4.00195 0,2.18143 1.8185,4 4,4 h 6.998 c 2.1816,0 4,-1.81857 4,-4 0,-2.18139 -1.8184,-4.00195 -4,-4.00195 z"
           transform="scale(0.26458333)" />
        <path
           id="path528474"
           style="color:#000000;fill:#e15f68;fill-opacity:1;stroke-width:10.584;stroke-linecap:round;stroke-linejoin:round;-inkscape-stroke:none;paint-order:markers fill stroke"
           d="m 1099.3437,-168.0099 c -0.4352,0 -0.7927,0.35808 -0.7927,0.79324 0,0.43516 0.3575,0.79271 0.7927,0.79271 h 1.8516 c 0.4352,0 0.7948,-0.35755 0.7948,-0.79271 0,-0.43516 -0.3596,-0.79324 -0.7948,-0.79324 z" />
        <rect
           style="fill:#ffa0b3;fill-opacity:1;stroke:none;stroke-width:10.584;stroke-linecap:round;stroke-linejoin:round;stroke-miterlimit:4;stroke-dasharray:none;paint-order:markers fill stroke"
           id="rect528476"
           width="2.9104166"
           height="1.0583333"
           x="1098.8146"
           y="-167.74583"
           ry="0.52916664" />
      </g>
      <g
         id="g528486"
         transform="matrix(-1.0001334,0,0,0.99975632,2262.8633,-6.9196572)"
         style="stroke-width:20.001">
        <path
           id="path528480"
           style="color:#000000;fill:#992727;fill-opacity:1;stroke-width:80.0044;stroke-linecap:round;stroke-linejoin:round;-inkscape-stroke:none;paint-order:markers fill stroke"
           d="m 4155,-636.00195 c -2.1815,0 -4,1.82056 -4,4.00195 0,2.18143 1.8185,4 4,4 h 6.998 c 2.1816,0 4,-1.81857 4,-4 0,-2.18139 -1.8184,-4.00195 -4,-4.00195 z"
           transform="scale(0.26458333)" />
        <path
           id="path528482"
           style="color:#000000;fill:#e15f68;fill-opacity:1;stroke-width:10.584;stroke-linecap:round;stroke-linejoin:round;-inkscape-stroke:none;paint-order:markers fill stroke"
           d="m 1099.3437,-168.0099 c -0.4352,0 -0.7927,0.35808 -0.7927,0.79324 0,0.43516 0.3575,0.79271 0.7927,0.79271 h 1.8516 c 0.4352,0 0.7948,-0.35755 0.7948,-0.79271 0,-0.43516 -0.3596,-0.79324 -0.7948,-0.79324 z" />
        <rect
           style="fill:#ffa0b3;fill-opacity:1;stroke:none;stroke-width:10.584;stroke-linecap:round;stroke-linejoin:round;stroke-miterlimit:4;stroke-dasharray:none;paint-order:markers fill stroke"
           id="rect528484"
           width="2.9104166"
           height="1.0583333"
           x="1098.8146"
           y="-167.74583"
           ry="0.52916664" />
      </g>
      <g
         id="g528494"
         transform="matrix(0,-1.0001334,-0.99975632,0,967.62174,898.67149)"
         style="stroke-width:20.001">
        <path
           id="path528488"
           style="color:#000000;fill:#992727;fill-opacity:1;stroke-width:80.0044;stroke-linecap:round;stroke-linejoin:round;-inkscape-stroke:none;paint-order:markers fill stroke"
           d="m 4155,-636.00195 c -2.1815,0 -4,1.82056 -4,4.00195 0,2.18143 1.8185,4 4,4 h 6.998 c 2.1816,0 4,-1.81857 4,-4 0,-2.18139 -1.8184,-4.00195 -4,-4.00195 z"
           transform="scale(0.26458333)" />
        <path
           id="path528490"
           style="color:#000000;fill:#e15f68;fill-opacity:1;stroke-width:10.584;stroke-linecap:round;stroke-linejoin:round;-inkscape-stroke:none;paint-order:markers fill stroke"
           d="m 1099.3437,-168.0099 c -0.4352,0 -0.7927,0.35808 -0.7927,0.79324 0,0.43516 0.3575,0.79271 0.7927,0.79271 h 1.8516 c 0.4352,0 0.7948,-0.35755 0.7948,-0.79271 0,-0.43516 -0.3596,-0.79324 -0.7948,-0.79324 z" />
        <rect
           style="fill:#ffa0b3;fill-opacity:1;stroke:none;stroke-width:10.584;stroke-linecap:round;stroke-linejoin:round;stroke-miterlimit:4;stroke-dasharray:none;paint-order:markers fill stroke"
           id="rect528492"
           width="2.9104166"
           height="1.0583333"
           x="1098.8146"
           y="-167.74583"
           ry="0.52916664" />
      </g>
      <g
         id="g528502"
         transform="matrix(0.70720111,-0.70720111,-0.70693447,-0.70693447,246.57274,438.60481)"
         style="stroke-width:20.001">
        <path
           id="path528496"
           style="color:#000000;fill:#992727;fill-opacity:1;stroke-width:80.0044;stroke-linecap:round;stroke-linejoin:round;-inkscape-stroke:none;paint-order:markers fill stroke"
           d="m 4155,-636.00195 c -2.1815,0 -4,1.82056 -4,4.00195 0,2.18143 1.8185,4 4,4 h 6.998 c 2.1816,0 4,-1.81857 4,-4 0,-2.18139 -1.8184,-4.00195 -4,-4.00195 z"
           transform="scale(0.26458333)" />
        <path
           id="path528498"
           style="color:#000000;fill:#e15f68;fill-opacity:1;stroke-width:10.584;stroke-linecap:round;stroke-linejoin:round;-inkscape-stroke:none;paint-order:markers fill stroke"
           d="m 1099.3437,-168.0099 c -0.4352,0 -0.7927,0.35808 -0.7927,0.79324 0,0.43516 0.3575,0.79271 0.7927,0.79271 h 1.8516 c 0.4352,0 0.7948,-0.35755 0.7948,-0.79271 0,-0.43516 -0.3596,-0.79324 -0.7948,-0.79324 z" />
        <rect
           style="fill:#ffa0b3;fill-opacity:1;stroke:none;stroke-width:10.584;stroke-linecap:round;stroke-linejoin:round;stroke-miterlimit:4;stroke-dasharray:none;paint-order:markers fill stroke"
           id="rect528500"
           width="2.9104166"
           height="1.0583333"
           x="1098.8146"
           y="-167.74583"
           ry="0.52916664" />
      </g>
      <g
         id="g528510"
         transform="matrix(-0.70720111,-0.70720111,-0.70693447,0.70693447,1802.7966,714.12913)"
         style="stroke-width:20.001">
        <path
           id="path528504"
           style="color:#000000;fill:#992727;fill-opacity:1;stroke-width:80.0044;stroke-linecap:round;stroke-linejoin:round;-inkscape-stroke:none;paint-order:markers fill stroke"
           d="m 4155,-636.00195 c -2.1815,0 -4,1.82056 -4,4.00195 0,2.18143 1.8185,4 4,4 h 6.998 c 2.1816,0 4,-1.81857 4,-4 0,-2.18139 -1.8184,-4.00195 -4,-4.00195 z"
           transform="scale(0.26458333)" />
        <path
           id="path528506"
           style="color:#000000;fill:#e15f68;fill-opacity:1;stroke-width:10.584;stroke-linecap:round;stroke-linejoin:round;-inkscape-stroke:none;paint-order:markers fill stroke"
           d="m 1099.3437,-168.0099 c -0.4352,0 -0.7927,0.35808 -0.7927,0.79324 0,0.43516 0.3575,0.79271 0.7927,0.79271 h 1.8516 c 0.4352,0 0.7948,-0.35755 0.7948,-0.79271 0,-0.43516 -0.3596,-0.79324 -0.7948,-0.79324 z" />
        <rect
           style="fill:#ffa0b3;fill-opacity:1;stroke:none;stroke-width:10.584;stroke-linecap:round;stroke-linejoin:round;stroke-miterlimit:4;stroke-dasharray:none;paint-order:markers fill stroke"
           id="rect528508"
           width="2.9104166"
           height="1.0583333"
           x="1098.8146"
           y="-167.74583"
           ry="0.52916664" />
      </g>
      <g
         id="g528518"
         transform="matrix(-0.38272839,-0.9240053,-0.92365693,0.38258409,1403.5559,889.46518)"
         style="stroke-width:20.001">
        <path
           id="path528512"
           style="color:#000000;fill:#992727;fill-opacity:1;stroke-width:80.0044;stroke-linecap:round;stroke-linejoin:round;-inkscape-stroke:none;paint-order:markers fill stroke"
           d="m 4155,-636.00195 c -2.1815,0 -4,1.82056 -4,4.00195 0,2.18143 1.8185,4 4,4 h 6.998 c 2.1816,0 4,-1.81857 4,-4 0,-2.18139 -1.8184,-4.00195 -4,-4.00195 z"
           transform="scale(0.26458333)" />
        <path
           id="path528514"
           style="color:#000000;fill:#e15f68;fill-opacity:1;stroke-width:10.584;stroke-linecap:round;stroke-linejoin:round;-inkscape-stroke:none;paint-order:markers fill stroke"
           d="m 1099.3437,-168.0099 c -0.4352,0 -0.7927,0.35808 -0.7927,0.79324 0,0.43516 0.3575,0.79271 0.7927,0.79271 h 1.8516 c 0.4352,0 0.7948,-0.35755 0.7948,-0.79271 0,-0.43516 -0.3596,-0.79324 -0.7948,-0.79324 z" />
        <rect
           style="fill:#ffa0b3;fill-opacity:1;stroke:none;stroke-width:10.584;stroke-linecap:round;stroke-linejoin:round;stroke-miterlimit:4;stroke-dasharray:none;paint-order:markers fill stroke"
           id="rect528516"
           width="2.9104166"
           height="1.0583333"
           x="1098.8146"
           y="-167.74583"
           ry="0.52916664" />
      </g>
      <g
         id="g528526"
         transform="matrix(0.38274061,-0.92400024,-0.92365186,-0.38259631,561.33444,740.34695)"
         style="stroke-width:20.001">
        <path
           id="path528520"
           style="color:#000000;fill:#992727;fill-opacity:1;stroke-width:80.0044;stroke-linecap:round;stroke-linejoin:round;-inkscape-stroke:none;paint-order:markers fill stroke"
           d="m 4155,-636.00195 c -2.1815,0 -4,1.82056 -4,4.00195 0,2.18143 1.8185,4 4,4 h 6.998 c 2.1816,0 4,-1.81857 4,-4 0,-2.18139 -1.8184,-4.00195 -4,-4.00195 z"
           transform="scale(0.26458333)" />
        <path
           id="path528522"
           style="color:#000000;fill:#e15f68;fill-opacity:1;stroke-width:10.584;stroke-linecap:round;stroke-linejoin:round;-inkscape-stroke:none;paint-order:markers fill stroke"
           d="m 1099.3437,-168.0099 c -0.4352,0 -0.7927,0.35808 -0.7927,0.79324 0,0.43516 0.3575,0.79271 0.7927,0.79271 h 1.8516 c 0.4352,0 0.7948,-0.35755 0.7948,-0.79271 0,-0.43516 -0.3596,-0.79324 -0.7948,-0.79324 z" />
        <rect
           style="fill:#ffa0b3;fill-opacity:1;stroke:none;stroke-width:10.584;stroke-linecap:round;stroke-linejoin:round;stroke-miterlimit:4;stroke-dasharray:none;paint-order:markers fill stroke"
           id="rect528524"
           width="2.9104166"
           height="1.0583333"
           x="1098.8146"
           y="-167.74583"
           ry="0.52916664" />
      </g>
      <g
         id="g528534"
         transform="matrix(-0.92400025,-0.38274058,-0.38259627,0.92365188,2104.5387,399.36726)"
         style="stroke-width:20.001">
        <path
           id="path528528"
           style="color:#000000;fill:#992727;fill-opacity:1;stroke-width:80.0044;stroke-linecap:round;stroke-linejoin:round;-inkscape-stroke:none;paint-order:markers fill stroke"
           d="m 4155,-636.00195 c -2.1815,0 -4,1.82056 -4,4.00195 0,2.18143 1.8185,4 4,4 h 6.998 c 2.1816,0 4,-1.81857 4,-4 0,-2.18139 -1.8184,-4.00195 -4,-4.00195 z"
           transform="scale(0.26458333)" />
        <path
           id="path528530"
           style="color:#000000;fill:#e15f68;fill-opacity:1;stroke-width:10.584;stroke-linecap:round;stroke-linejoin:round;-inkscape-stroke:none;paint-order:markers fill stroke"
           d="m 1099.3437,-168.0099 c -0.4352,0 -0.7927,0.35808 -0.7927,0.79324 0,0.43516 0.3575,0.79271 0.7927,0.79271 h 1.8516 c 0.4352,0 0.7948,-0.35755 0.7948,-0.79271 0,-0.43516 -0.3596,-0.79324 -0.7948,-0.79324 z" />
        <rect
           style="fill:#ffa0b3;fill-opacity:1;stroke:none;stroke-width:10.584;stroke-linecap:round;stroke-linejoin:round;stroke-miterlimit:4;stroke-dasharray:none;paint-order:markers fill stroke"
           id="rect528532"
           width="2.9104166"
           height="1.0583333"
           x="1098.8146"
           y="-167.74583"
           ry="0.52916664" />
      </g>
      <g
         id="g528542"
         transform="matrix(-0.9240053,0.38272839,0.38258409,0.92365693,2232.4957,-493.94247)"
         style="stroke-width:20.001">
        <path
           id="path528536"
           style="color:#000000;fill:#992727;fill-opacity:1;stroke-width:80.0044;stroke-linecap:round;stroke-linejoin:round;-inkscape-stroke:none;paint-order:markers fill stroke"
           d="m 4155,-636.00195 c -2.1815,0 -4,1.82056 -4,4.00195 0,2.18143 1.8185,4 4,4 h 6.998 c 2.1816,0 4,-1.81857 4,-4 0,-2.18139 -1.8184,-4.00195 -4,-4.00195 z"
           transform="scale(0.26458333)" />
        <path
           id="path528538"
           style="color:#000000;fill:#e15f68;fill-opacity:1;stroke-width:10.584;stroke-linecap:round;stroke-linejoin:round;-inkscape-stroke:none;paint-order:markers fill stroke"
           d="m 1099.3437,-168.0099 c -0.4352,0 -0.7927,0.35808 -0.7927,0.79324 0,0.43516 0.3575,0.79271 0.7927,0.79271 h 1.8516 c 0.4352,0 0.7948,-0.35755 0.7948,-0.79271 0,-0.43516 -0.3596,-0.79324 -0.7948,-0.79324 z" />
        <rect
           style="fill:#ffa0b3;fill-opacity:1;stroke:none;stroke-width:10.584;stroke-linecap:round;stroke-linejoin:round;stroke-miterlimit:4;stroke-dasharray:none;paint-order:markers fill stroke"
           id="rect528540"
           width="2.9104166"
           height="1.0583333"
           x="1098.8146"
           y="-167.74583"
           ry="0.52916664" />
      </g>
      <g
         id="g528550"
         transform="matrix(-0.1953866,-0.98086232,-0.98049251,0.19531293,1186.3535,915.52937)"
         style="stroke-width:20.001">
        <path
           id="path528544"
           style="color:#000000;fill:#992727;fill-opacity:1;stroke-width:80.0044;stroke-linecap:round;stroke-linejoin:round;-inkscape-stroke:none;paint-order:markers fill stroke"
           d="m 4155,-636.00195 c -2.1815,0 -4,1.82056 -4,4.00195 0,2.18143 1.8185,4 4,4 h 6.998 c 2.1816,0 4,-1.81857 4,-4 0,-2.18139 -1.8184,-4.00195 -4,-4.00195 z"
           transform="scale(0.26458333)" />
        <path
           id="path528546"
           style="color:#000000;fill:#e15f68;fill-opacity:1;stroke-width:10.584;stroke-linecap:round;stroke-linejoin:round;-inkscape-stroke:none;paint-order:markers fill stroke"
           d="m 1099.3437,-168.0099 c -0.4352,0 -0.7927,0.35808 -0.7927,0.79324 0,0.43516 0.3575,0.79271 0.7927,0.79271 h 1.8516 c 0.4352,0 0.7948,-0.35755 0.7948,-0.79271 0,-0.43516 -0.3596,-0.79324 -0.7948,-0.79324 z" />
        <rect
           style="fill:#ffa0b3;fill-opacity:1;stroke:none;stroke-width:10.584;stroke-linecap:round;stroke-linejoin:round;stroke-miterlimit:4;stroke-dasharray:none;paint-order:markers fill stroke"
           id="rect528548"
           width="2.9104166"
           height="1.0583333"
           x="1098.8146"
           y="-167.74583"
           ry="0.52916664" />
      </g>
      <g
         id="g528558"
         transform="matrix(0.55541515,-0.83173363,-0.83142004,-0.55520574,389.31944,605.19188)"
         style="stroke-width:20.001">
        <path
           id="path528552"
           style="color:#000000;fill:#992727;fill-opacity:1;stroke-width:80.0044;stroke-linecap:round;stroke-linejoin:round;-inkscape-stroke:none;paint-order:markers fill stroke"
           d="m 4155,-636.00195 c -2.1815,0 -4,1.82056 -4,4.00195 0,2.18143 1.8185,4 4,4 h 6.998 c 2.1816,0 4,-1.81857 4,-4 0,-2.18139 -1.8184,-4.00195 -4,-4.00195 z"
           transform="scale(0.26458333)" />
        <path
           id="path528554"
           style="color:#000000;fill:#e15f68;fill-opacity:1;stroke-width:10.584;stroke-linecap:round;stroke-linejoin:round;-inkscape-stroke:none;paint-order:markers fill stroke"
           d="m 1099.3437,-168.0099 c -0.4352,0 -0.7927,0.35808 -0.7927,0.79324 0,0.43516 0.3575,0.79271 0.7927,0.79271 h 1.8516 c 0.4352,0 0.7948,-0.35755 0.7948,-0.79271 0,-0.43516 -0.3596,-0.79324 -0.7948,-0.79324 z" />
        <rect
           style="fill:#ffa0b3;fill-opacity:1;stroke:none;stroke-width:10.584;stroke-linecap:round;stroke-linejoin:round;stroke-miterlimit:4;stroke-dasharray:none;paint-order:markers fill stroke"
           id="rect528556"
           width="2.9104166"
           height="1.0583333"
           x="1098.8146"
           y="-167.74583"
           ry="0.52916664" />
      </g>
      <g
         id="g528566"
         transform="matrix(-0.83173359,-0.55541521,-0.5552058,0.83142,1969.3837,571.38248)"
         style="stroke-width:20.001">
        <path
           id="path528560"
           style="color:#000000;fill:#992727;fill-opacity:1;stroke-width:80.0044;stroke-linecap:round;stroke-linejoin:round;-inkscape-stroke:none;paint-order:markers fill stroke"
           d="m 4155,-636.00195 c -2.1815,0 -4,1.82056 -4,4.00195 0,2.18143 1.8185,4 4,4 h 6.998 c 2.1816,0 4,-1.81857 4,-4 0,-2.18139 -1.8184,-4.00195 -4,-4.00195 z"
           transform="scale(0.26458333)" />
        <path
           id="path528562"
           style="color:#000000;fill:#e15f68;fill-opacity:1;stroke-width:10.584;stroke-linecap:round;stroke-linejoin:round;-inkscape-stroke:none;paint-order:markers fill stroke"
           d="m 1099.3437,-168.0099 c -0.4352,0 -0.7927,0.35808 -0.7927,0.79324 0,0.43516 0.3575,0.79271 0.7927,0.79271 h 1.8516 c 0.4352,0 0.7948,-0.35755 0.7948,-0.79271 0,-0.43516 -0.3596,-0.79324 -0.7948,-0.79324 z" />
        <rect
           style="fill:#ffa0b3;fill-opacity:1;stroke:none;stroke-width:10.584;stroke-linecap:round;stroke-linejoin:round;stroke-miterlimit:4;stroke-dasharray:none;paint-order:markers fill stroke"
           id="rect528564"
           width="2.9104166"
           height="1.0583333"
           x="1098.8146"
           y="-167.74583"
           ry="0.52916664" />
      </g>
      <g
         id="g528574"
         transform="matrix(-0.55586795,-0.83143108,-0.8311176,0.55565838,1612.0894,821.33616)"
         style="stroke-width:20.001">
        <path
           id="path528568"
           style="color:#000000;fill:#992727;fill-opacity:1;stroke-width:80.0044;stroke-linecap:round;stroke-linejoin:round;-inkscape-stroke:none;paint-order:markers fill stroke"
           d="m 4155,-636.00195 c -2.1815,0 -4,1.82056 -4,4.00195 0,2.18143 1.8185,4 4,4 h 6.998 c 2.1816,0 4,-1.81857 4,-4 0,-2.18139 -1.8184,-4.00195 -4,-4.00195 z"
           transform="scale(0.26458333)" />
        <path
           id="path528570"
           style="color:#000000;fill:#e15f68;fill-opacity:1;stroke-width:10.584;stroke-linecap:round;stroke-linejoin:round;-inkscape-stroke:none;paint-order:markers fill stroke"
           d="m 1099.3437,-168.0099 c -0.4352,0 -0.7927,0.35808 -0.7927,0.79324 0,0.43516 0.3575,0.79271 0.7927,0.79271 h 1.8516 c 0.4352,0 0.7948,-0.35755 0.7948,-0.79271 0,-0.43516 -0.3596,-0.79324 -0.7948,-0.79324 z" />
        <rect
           style="fill:#ffa0b3;fill-opacity:1;stroke:none;stroke-width:10.584;stroke-linecap:round;stroke-linejoin:round;stroke-miterlimit:4;stroke-dasharray:none;paint-order:markers fill stroke"
           id="rect528572"
           width="2.9104166"
           height="1.0583333"
           x="1098.8146"
           y="-167.74583"
           ry="0.52916664" />
      </g>
      <g
         id="g528582"
         transform="matrix(0.19485252,-0.98096856,-0.9805987,-0.19477905,756.96444,839.62803)"
         style="stroke-width:20.001">
        <path
           id="path528576"
           style="color:#000000;fill:#992727;fill-opacity:1;stroke-width:80.0044;stroke-linecap:round;stroke-linejoin:round;-inkscape-stroke:none;paint-order:markers fill stroke"
           d="m 4155,-636.00195 c -2.1815,0 -4,1.82056 -4,4.00195 0,2.18143 1.8185,4 4,4 h 6.998 c 2.1816,0 4,-1.81857 4,-4 0,-2.18139 -1.8184,-4.00195 -4,-4.00195 z"
           transform="scale(0.26458333)" />
        <path
           id="path528578"
           style="color:#000000;fill:#e15f68;fill-opacity:1;stroke-width:10.584;stroke-linecap:round;stroke-linejoin:round;-inkscape-stroke:none;paint-order:markers fill stroke"
           d="m 1099.3437,-168.0099 c -0.4352,0 -0.7927,0.35808 -0.7927,0.79324 0,0.43516 0.3575,0.79271 0.7927,0.79271 h 1.8516 c 0.4352,0 0.7948,-0.35755 0.7948,-0.79271 0,-0.43516 -0.3596,-0.79324 -0.7948,-0.79324 z" />
        <rect
           style="fill:#ffa0b3;fill-opacity:1;stroke:none;stroke-width:10.584;stroke-linecap:round;stroke-linejoin:round;stroke-miterlimit:4;stroke-dasharray:none;paint-order:markers fill stroke"
           id="rect528580"
           width="2.9104166"
           height="1.0583333"
           x="1098.8146"
           y="-167.74583"
           ry="0.52916664" />
      </g>
      <g
         id="g528590"
         transform="matrix(-0.98096855,-0.19485255,-0.19477909,0.9805987,2203.8196,203.73719)"
         style="stroke-width:20.001">
        <path
           id="path528584"
           style="color:#000000;fill:#992727;fill-opacity:1;stroke-width:80.0044;stroke-linecap:round;stroke-linejoin:round;-inkscape-stroke:none;paint-order:markers fill stroke"
           d="m 4155,-636.00195 c -2.1815,0 -4,1.82056 -4,4.00195 0,2.18143 1.8185,4 4,4 h 6.998 c 2.1816,0 4,-1.81857 4,-4 0,-2.18139 -1.8184,-4.00195 -4,-4.00195 z"
           transform="scale(0.26458333)" />
        <path
           id="path528586"
           style="color:#000000;fill:#e15f68;fill-opacity:1;stroke-width:10.584;stroke-linecap:round;stroke-linejoin:round;-inkscape-stroke:none;paint-order:markers fill stroke"
           d="m 1099.3437,-168.0099 c -0.4352,0 -0.7927,0.35808 -0.7927,0.79324 0,0.43516 0.3575,0.79271 0.7927,0.79271 h 1.8516 c 0.4352,0 0.7948,-0.35755 0.7948,-0.79271 0,-0.43516 -0.3596,-0.79324 -0.7948,-0.79324 z" />
        <rect
           style="fill:#ffa0b3;fill-opacity:1;stroke:none;stroke-width:10.584;stroke-linecap:round;stroke-linejoin:round;stroke-miterlimit:4;stroke-dasharray:none;paint-order:markers fill stroke"
           id="rect528588"
           width="2.9104166"
           height="1.0583333"
           x="1098.8146"
           y="-167.74583"
           ry="0.52916664" />
      </g>
      <g
         id="g528598"
         transform="matrix(-0.83143108,0.55586795,0.55565838,0.8311176,2154.7936,-697.3576)"
         style="stroke-width:20.001">
        <path
           id="path528592"
           style="color:#000000;fill:#992727;fill-opacity:1;stroke-width:80.0044;stroke-linecap:round;stroke-linejoin:round;-inkscape-stroke:none;paint-order:markers fill stroke"
           d="m 4155,-636.00195 c -2.1815,0 -4,1.82056 -4,4.00195 0,2.18143 1.8185,4 4,4 h 6.998 c 2.1816,0 4,-1.81857 4,-4 0,-2.18139 -1.8184,-4.00195 -4,-4.00195 z"
           transform="scale(0.26458333)" />
        <path
           id="path528594"
           style="color:#000000;fill:#e15f68;fill-opacity:1;stroke-width:10.584;stroke-linecap:round;stroke-linejoin:round;-inkscape-stroke:none;paint-order:markers fill stroke"
           d="m 1099.3437,-168.0099 c -0.4352,0 -0.7927,0.35808 -0.7927,0.79324 0,0.43516 0.3575,0.79271 0.7927,0.79271 h 1.8516 c 0.4352,0 0.7948,-0.35755 0.7948,-0.79271 0,-0.43516 -0.3596,-0.79324 -0.7948,-0.79324 z" />
        <rect
           style="fill:#ffa0b3;fill-opacity:1;stroke:none;stroke-width:10.584;stroke-linecap:round;stroke-linejoin:round;stroke-miterlimit:4;stroke-dasharray:none;paint-order:markers fill stroke"
           id="rect528596"
           width="2.9104166"
           height="1.0583333"
           x="1098.8146"
           y="-167.74583"
           ry="0.52916664" />
      </g>
      <g
         id="g528606"
         transform="matrix(-0.98086232,0.1953866,0.19531293,0.98049251,2268.918,-279.88397)"
         style="stroke-width:20.001">
        <path
           id="path528600"
           style="color:#000000;fill:#992727;fill-opacity:1;stroke-width:80.0044;stroke-linecap:round;stroke-linejoin:round;-inkscape-stroke:none;paint-order:markers fill stroke"
           d="m 4155,-636.00195 c -2.1815,0 -4,1.82056 -4,4.00195 0,2.18143 1.8185,4 4,4 h 6.998 c 2.1816,0 4,-1.81857 4,-4 0,-2.18139 -1.8184,-4.00195 -4,-4.00195 z"
           transform="scale(0.26458333)" />
        <path
           id="path528602"
           style="color:#000000;fill:#e15f68;fill-opacity:1;stroke-width:10.584;stroke-linecap:round;stroke-linejoin:round;-inkscape-stroke:none;paint-order:markers fill stroke"
           d="m 1099.3437,-168.0099 c -0.4352,0 -0.7927,0.35808 -0.7927,0.79324 0,0.43516 0.3575,0.79271 0.7927,0.79271 h 1.8516 c 0.4352,0 0.7948,-0.35755 0.7948,-0.79271 0,-0.43516 -0.3596,-0.79324 -0.7948,-0.79324 z" />
        <rect
           style="fill:#ffa0b3;fill-opacity:1;stroke:none;stroke-width:10.584;stroke-linecap:round;stroke-linejoin:round;stroke-miterlimit:4;stroke-dasharray:none;paint-order:markers fill stroke"
           id="rect528604"
           width="2.9104166"
           height="1.0583333"
           x="1098.8146"
           y="-167.74583"
           ry="0.52916664" />
      </g>
    </g>
  </g>
</svg>
