<?xml version="1.0" encoding="UTF-8" standalone="no"?>
<svg
   xmlns:dc="http://purl.org/dc/elements/1.1/"
   xmlns:cc="http://creativecommons.org/ns#"
   xmlns:rdf="http://www.w3.org/1999/02/22-rdf-syntax-ns#"
   xmlns:svg="http://www.w3.org/2000/svg"
   xmlns="http://www.w3.org/2000/svg"
   xmlns:xlink="http://www.w3.org/1999/xlink"
   xmlns:sodipodi="http://sodipodi.sourceforge.net/DTD/sodipodi-0.dtd"
   xmlns:inkscape="http://www.inkscape.org/namespaces/inkscape"
   sodipodi:docname="cactus.svg"
   inkscape:version="1.0 (4035a4fb49, 2020-05-01)"
   id="svg14754"
   version="1.1"
   viewBox="0 0 0.31133273 0.48657036"
   height="0.48657036mm"
   width="0.31133273mm">
  <defs
     id="defs14748">
    <linearGradient
       inkscape:collect="always"
       id="linearGradient891">
      <stop
         style="stop-color:#238727;stop-opacity:1"
         offset="0"
         id="stop887" />
      <stop
         style="stop-color:#49ac87;stop-opacity:1"
         offset="1"
         id="stop889" />
    </linearGradient>
    <linearGradient
       y2="-295.06772"
       x2="-418.69592"
       y1="-288.4935"
       x1="-418.69592"
       gradientTransform="matrix(0.05133609,0,0,0.05133609,122.63746,127.20319)"
       gradientUnits="userSpaceOnUse"
       id="linearGradient12976"
       xlink:href="#linearGradient36736"
       inkscape:collect="always" />
    <linearGradient
       id="linearGradient36736"
       inkscape:collect="always">
      <stop
         id="stop36732"
         offset="0"
         style="stop-color:#26932a;stop-opacity:1;" />
      <stop
         id="stop36734"
         offset="1"
         style="stop-color:#50bb94;stop-opacity:1" />
    </linearGradient>
    <linearGradient
       y2="-295.06772"
       x2="-418.69592"
       y1="-288.4935"
       x1="-418.69592"
       gradientTransform="matrix(0.05133609,0,0,0.05133609,122.63746,127.20319)"
       gradientUnits="userSpaceOnUse"
       id="linearGradient15337"
       xlink:href="#linearGradient36736"
       inkscape:collect="always" />
    <linearGradient
       y2="-295.06772"
       x2="-418.69592"
       y1="-288.4935"
       x1="-418.69592"
       gradientTransform="matrix(0.05133609,0,0,0.05133609,122.63584,127.20371)"
       gradientUnits="userSpaceOnUse"
       id="linearGradient883"
       xlink:href="#linearGradient891"
       inkscape:collect="always" />
  </defs>
  <sodipodi:namedview
     inkscape:snap-midpoints="true"
     inkscape:snap-smooth-nodes="true"
     inkscape:snap-intersection-paths="true"
     inkscape:object-paths="true"
     inkscape:document-rotation="0"
     inkscape:window-maximized="1"
     inkscape:window-y="-8"
     inkscape:window-x="-8"
     inkscape:window-height="1057"
     inkscape:window-width="1920"
     showgrid="false"
     inkscape:current-layer="layer1"
     inkscape:document-units="mm"
     inkscape:cy="1.646278"
     inkscape:cx="1.550573"
     inkscape:zoom="256"
     inkscape:pageshadow="2"
     inkscape:pageopacity="0.0"
     borderopacity="1.0"
     bordercolor="#666666"
     pagecolor="#ffffff"
     id="base" />
  <metadata
     id="metadata14751">
    <rdf:RDF>
      <cc:Work
         rdf:about="">
        <dc:format>image/svg+xml</dc:format>
        <dc:type
           rdf:resource="http://purl.org/dc/dcmitype/StillImage" />
        <dc:title></dc:title>
      </cc:Work>
    </rdf:RDF>
  </metadata>
  <g
     transform="translate(-100.9883,-111.99027)"
     id="layer1"
     inkscape:groupmode="layer"
     inkscape:label="Layer 1">
    <g
       transform="matrix(1.000213,0,0,1.000213,-0.02157246,-0.02385054)"
       id="g869">
      <rect
         style="fill:#000000;fill-opacity:0.18;fill-rule:nonzero;stroke:none;stroke-width:0.197027;stroke-linecap:round;stroke-linejoin:round;stroke-miterlimit:4;stroke-dasharray:none;stroke-dashoffset:0;stroke-opacity:1;paint-order:markers stroke fill;filter:url(#filter1957)"
         id="rect12944"
         width="0.26463857"
         height="0.26696086"
         x="101.00547"
         y="112.20988"
         ry="0.1323193" />
      <path
         style="fill:url(#linearGradient15337);fill-opacity:1;fill-rule:nonzero;stroke:#0e580a;stroke-width:0.0385021;stroke-linecap:round;stroke-linejoin:miter;stroke-miterlimit:4;stroke-dasharray:none;stroke-dashoffset:0;stroke-opacity:1;paint-order:markers stroke fill"
         d="m 101.13779,112.05538 a 0.11630164,0.16893449 0 0 0 -0.1163,0.16894 0.11630164,0.16893449 0 0 0 0.004,0.0457 l -0.0106,0.0142 0.0178,0.0132 a 0.11630164,0.16893449 0 0 0 0.10472,0.0958 0.11630164,0.16893449 0 0 0 0.11599,-0.16047 l 0.0198,-0.0229 -0.0225,-0.0234 v 0 a 0.02539038,0.03697035 0 0 0 -1.9e-4,-2.5e-4 0.11630164,0.16893449 0 0 0 -0.11316,-0.13086 z"
         id="path12946"
         inkscape:connector-curvature="0" />
      <ellipse
         style="fill:url(#linearGradient12976);fill-opacity:1;fill-rule:nonzero;stroke:none;stroke-width:0.0385021;stroke-linecap:round;stroke-linejoin:miter;stroke-miterlimit:4;stroke-dasharray:none;stroke-dashoffset:0;stroke-opacity:1;paint-order:markers stroke fill"
         id="ellipse12948"
         cx="101.13779"
         cy="112.22432"
         rx="0.11630164"
         ry="0.16893449" />
      <path
         d="m 101.13615,112.05591 a 0.11630164,0.16893448 0 0 0 -0.003,5e-5 0.11630164,0.16893448 0 0 0 -0.003,1.3e-4 0.11630164,0.16893448 0 0 0 -0.002,1.3e-4 0.11630164,0.16893448 0 0 0 -0.001,1.3e-4 0.11630164,0.16893448 0 0 0 -4.1e-4,5e-5 0.11630164,0.16893448 0 0 0 -0.003,3.1e-4 0.11630164,0.16893448 0 0 0 -0.002,3.1e-4 0.11630164,0.16893448 0 0 0 -0.001,2.1e-4 0.11630164,0.16893448 0 0 0 -1.8e-4,2e-5 0.11630164,0.16893448 0 0 0 -0.003,5.2e-4 0.11630164,0.16893448 0 0 0 -0.003,6.7e-4 0.11630164,0.16893448 0 0 0 -1e-4,3e-5 0.11630164,0.16893448 0 0 0 -10e-4,3.3e-4 0.11630164,0.16893448 0 0 0 -0.002,4.4e-4 0.11630164,0.16893448 0 0 0 -4.1e-4,1.3e-4 0.11630164,0.16893448 0 0 0 -0.003,9.3e-4 0.11630164,0.16893448 0 0 0 -0.002,8.8e-4 0.11630164,0.16893448 0 0 0 -0.003,0.001 0.11630164,0.16893448 0 0 0 -0.002,7.2e-4 0.11630164,0.16893448 0 0 0 -0.001,6.8e-4 0.11630164,0.16893448 0 0 0 -5e-5,2e-5 0.11630164,0.16893448 0 0 0 -0.003,0.001 0.11630164,0.16893448 0 0 0 -0.003,0.001 0.11630164,0.16893448 0 0 0 -0.003,10e-4 0.11630164,0.16893448 0 0 0 -2.3e-4,1.3e-4 0.11630164,0.16893448 0 0 0 -0.002,10e-4 0.11630164,0.16893448 0 0 0 -10e-4,8.5e-4 0.11630164,0.16893448 0 0 0 -0.002,0.001 0.11630164,0.16893448 0 0 0 -0.002,0.002 0.11630164,0.16893448 0 0 0 -0.002,0.001 0.11630164,0.16893448 0 0 0 -0.001,0.001 0.11630164,0.16893448 0 0 0 -3e-5,2e-5 0.11630164,0.16893448 0 0 0 -0.002,0.002 0.11630164,0.16893448 0 0 0 -10e-4,8.5e-4 0.11630164,0.16893448 0 0 0 -0.002,0.002 0.11630164,0.16893448 0 0 0 -0.002,0.002 0.11630164,0.16893448 0 0 0 -1.6e-4,1.6e-4 0.11630164,0.16893448 0 0 0 -0.002,0.002 0.11630164,0.16893448 0 0 0 -3.4e-4,3.3e-4 0.11630164,0.16893448 0 0 0 -0.002,0.002 0.11630164,0.16893448 0 0 0 -10e-4,10e-4 0.11630164,0.16893448 0 0 0 -0.001,0.001 0.11630164,0.16893448 0 0 0 -1.3e-4,1.3e-4 0.11630164,0.16893448 0 0 0 -0.002,0.002 0.11630164,0.16893448 0 0 0 -0.001,10e-4 0.11630164,0.16893448 0 0 0 -0.001,0.001 0.11630164,0.16893448 0 0 0 -3.1e-4,3.9e-4 0.11630164,0.16893448 0 0 0 -0.002,0.003 0.11630164,0.16893448 0 0 0 -1.3e-4,1.6e-4 0.11630164,0.16893448 0 0 0 -0.002,0.002 0.11630164,0.16893448 0 0 0 -0.001,0.002 0.11630164,0.16893448 0 0 0 -9.3e-4,0.001 0.11630164,0.16893448 0 0 0 -2.8e-4,4.1e-4 0.11630164,0.16893448 0 0 0 -0.002,0.003 0.11630164,0.16893448 0 0 0 -0.002,0.003 0.11630164,0.16893448 0 0 0 -8e-5,10e-5 0.11630164,0.16893448 0 0 0 -0.002,0.003 0.11630164,0.16893448 0 0 0 -0.002,0.003 0.11630164,0.16893448 0 0 0 -10e-4,0.002 0.11630164,0.16893448 0 0 0 -8.5e-4,10e-4 0.11630164,0.16893448 0 0 0 -8e-5,1.6e-4 0.11630164,0.16893448 0 0 0 -0.002,0.003 0.11630164,0.16893448 0 0 0 -9.3e-4,0.002 0.11630164,0.16893448 0 0 0 -8.5e-4,0.002 0.11630164,0.16893448 0 0 0 -2.4e-4,4.9e-4 0.11630164,0.16893448 0 0 0 -0.002,0.004 0.11630164,0.16893448 0 0 0 -0.001,0.003 0.11630164,0.16893448 0 0 0 -8e-4,0.002 0.11630164,0.16893448 0 0 0 -8e-4,0.002 0.11630164,0.16893448 0 0 0 -2.1e-4,5.2e-4 0.11630164,0.16893448 0 0 0 -0.001,0.004 0.11630164,0.16893448 0 0 0 -3.6e-4,9.1e-4 0.11630164,0.16893448 0 0 0 -0.001,0.003 0.11630164,0.16893448 0 0 0 -10e-5,2.6e-4 0.11630164,0.16893448 0 0 0 -0.001,0.003 0.11630164,0.16893448 0 0 0 -8e-4,0.002 0.11630164,0.16893448 0 0 0 -5.4e-4,0.001 0.11630164,0.16893448 0 0 0 -1.9e-4,5.7e-4 0.11630164,0.16893448 0 0 0 -10e-4,0.004 0.11630164,0.16893448 0 0 0 -3.3e-4,10e-4 0.11630164,0.16893448 0 0 0 -9.6e-4,0.003 0.11630164,0.16893448 0 0 0 -0.002,0.008 0.11630164,0.16893448 0 0 0 -8.5e-4,0.003 0.11630164,0.16893448 0 0 0 -1.3e-4,5.6e-4 0.11630164,0.16893448 0 0 0 -9.1e-4,0.004 0.11630164,0.16893448 0 0 0 -7.4e-4,0.004 0.11630164,0.16893448 0 0 0 -1.1e-4,5.6e-4 0.11630164,0.16893448 0 0 0 -7.5e-4,0.004 0.11630164,0.16893448 0 0 0 -2e-5,2e-4 0.11630164,0.16893448 0 0 0 -6e-4,0.004 0.11630164,0.16893448 0 0 0 -3.8e-4,0.002 0.11630164,0.16893448 0 0 0 -3.4e-4,0.002 0.11630164,0.16893448 0 0 0 -1.5e-4,0.001 0.11630164,0.16893448 0 0 0 -3.4e-4,0.003 0.11630164,0.16893448 0 0 0 -1.6e-4,0.002 0.11630164,0.16893448 0 0 0 -3.1e-4,0.003 0.11630164,0.16893448 0 0 0 -5e-5,5.9e-4 0.11630164,0.16893448 0 0 0 -3.8e-4,0.004 0.11630164,0.16893448 0 0 0 -8e-5,0.001 0.11630164,0.16893448 0 0 0 -2.6e-4,0.003 0.11630164,0.16893448 0 0 0 -2.3e-4,0.004 0.11630164,0.16893448 0 0 0 -3e-5,6.2e-4 0.11630164,0.16893448 0 0 0 -1.5e-4,0.004 0.11630164,0.16893448 0 0 0 -6e-5,0.002 0.11630164,0.16893448 0 0 0 -7e-5,0.003 0.11630164,0.16893448 0 0 0 -3e-5,0.004 0.11630164,0.16893448 0 0 0 5e-5,0.004 0.11630164,0.16893448 0 0 0 1.1e-4,0.004 0.11630164,0.16893448 0 0 0 5e-5,0.001 0.11630164,0.16893448 0 0 0 10e-5,0.003 0.11630164,0.16893448 0 0 0 1e-4,0.002 0.11630164,0.16893448 0 0 0 1.9e-4,0.003 0.11630164,0.16893448 0 0 0 3.1e-4,0.004 0.11630164,0.16893448 0 0 0 1e-4,0.001 0.11630164,0.16893448 0 0 0 3.3e-4,0.004 0.11630164,0.16893448 0 0 0 4.2e-4,0.004 0.11630164,0.16893448 0 0 0 8e-5,5.9e-4 0.11630164,0.16893448 0 0 0 0.001,0.008 0.11630164,0.16893448 0 0 0 7.3e-4,0.004 0.11630164,0.16893448 0 0 0 7.7e-4,0.004 0.11630164,0.16893448 0 0 0 0.002,0.007 0.11630164,0.16893448 0 0 0 8e-5,3.9e-4 0.11630164,0.16893448 0 0 0 5.9e-4,0.002 0.11630164,0.16893448 0 0 0 3.9e-4,0.002 0.11630164,0.16893448 0 0 0 1.6e-4,5.7e-4 0.11630164,0.16893448 0 0 0 0.002,0.008 0.11630164,0.16893448 0 0 0 10e-4,0.004 0.11630164,0.16893448 0 0 0 5e-5,2e-4 0.11630164,0.16893448 0 0 0 0.001,0.003 0.11630164,0.16893448 0 0 0 7.3e-4,0.002 0.11630164,0.16893448 0 0 0 5.9e-4,0.002 0.11630164,0.16893448 0 0 0 2.1e-4,5.4e-4 0.11630164,0.16893448 0 0 0 10e-4,0.003 0.11630164,0.16893448 0 0 0 0.001,0.003 0.11630164,0.16893448 0 0 0 3.6e-4,9e-4 0.11630164,0.16893448 0 0 0 6.5e-4,0.002 0.11630164,0.16893448 0 0 0 8.2e-4,0.002 0.11630164,0.16893448 0 0 0 2.4e-4,5.2e-4 0.11630164,0.16893448 0 0 0 0.002,0.004 0.11630164,0.16893448 0 0 0 0.002,0.004 0.11630164,0.16893448 0 0 0 10e-4,0.003 0.11630164,0.16893448 0 0 0 2.6e-4,4.9e-4 0.11630164,0.16893448 0 0 0 0.002,0.003 0.11630164,0.16893448 0 0 0 8.8e-4,0.002 0.11630164,0.16893448 0 0 0 8.7e-4,0.002 0.11630164,0.16893448 0 0 0 2.9e-4,4.9e-4 0.11630164,0.16893448 0 0 0 0.002,0.003 0.11630164,0.16893448 0 0 0 7.2e-4,0.001 0.11630164,0.16893448 0 0 0 0.001,0.002 0.11630164,0.16893448 0 0 0 0.002,0.003 0.11630164,0.16893448 0 0 0 3.6e-4,5.4e-4 0.11630164,0.16893448 0 0 0 0.001,0.002 0.11630164,0.16893448 0 0 0 3.1e-4,4.4e-4 0.11630164,0.16893448 0 0 0 0.004,0.006 0.11630164,0.16893448 0 0 0 0.002,0.003 0.11630164,0.16893448 0 0 0 0.002,0.002 0.11630164,0.16893448 0 0 0 3.3e-4,4.2e-4 0.11630164,0.16893448 0 0 0 0.002,0.002 0.11630164,0.16893448 0 0 0 0.001,0.001 0.11630164,0.16893448 0 0 0 0.002,0.002 0.11630164,0.16893448 0 0 0 0.002,0.002 0.11630164,0.16893448 0 0 0 2.6e-4,2.6e-4 0.11630164,0.16893448 0 0 0 0.002,0.002 0.11630164,0.16893448 0 0 0 0.002,0.002 0.11630164,0.16893448 0 0 0 10e-4,9.5e-4 0.11630164,0.16893448 0 0 0 0.002,0.002 0.11630164,0.16893448 0 0 0 0.002,0.002 0.11630164,0.16893448 0 0 0 8.3e-4,6.4e-4 0.11630164,0.16893448 0 0 0 0.002,0.001 0.11630164,0.16893448 0 0 0 3.9e-4,2.9e-4 0.11630164,0.16893448 0 0 0 0.002,0.002 0.11630164,0.16893448 0 0 0 0.001,9.8e-4 0.11630164,0.16893448 0 0 0 0.001,8.5e-4 0.11630164,0.16893448 0 0 0 4.1e-4,2.6e-4 0.11630164,0.16893448 0 0 0 0.002,0.001 0.11630164,0.16893448 0 0 0 3.9e-4,2.3e-4 0.11630164,0.16893448 0 0 0 0.003,0.002 0.11630164,0.16893448 0 0 0 8e-5,5e-5 0.11630164,0.16893448 0 0 0 0.002,0.001 0.11630164,0.16893448 0 0 0 0.002,10e-4 0.11630164,0.16893448 0 0 0 5.5e-4,2.8e-4 0.11630164,0.16893448 0 0 0 10e-4,5.2e-4 0.11630164,0.16893448 0 0 0 0.002,9.3e-4 0.11630164,0.16893448 0 0 0 5e-5,2e-5 0.11630164,0.16893448 0 0 0 0.003,0.001 0.11630164,0.16893448 0 0 0 0.003,10e-4 0.11630164,0.16893448 0 0 0 2e-4,8e-5 0.11630164,0.16893448 0 0 0 0.002,8.5e-4 0.11630164,0.16893448 0 0 0 0.003,9.3e-4 0.11630164,0.16893448 0 0 0 4.1e-4,1.3e-4 0.11630164,0.16893448 0 0 0 0.002,6.7e-4 0.11630164,0.16893448 0 0 0 0.002,4.4e-4 0.11630164,0.16893448 0 0 0 0.002,3.6e-4 0.11630164,0.16893448 0 0 0 0.003,5.7e-4 0.11630164,0.16893448 0 0 0 5.1e-4,1e-4 0.11630164,0.16893448 0 0 0 0.003,3.9e-4 0.11630164,0.16893448 0 0 0 0.002,3.1e-4 0.11630164,0.16893448 0 0 0 0.001,1.6e-4 0.11630164,0.16893448 0 0 0 0.004,2.8e-4 0.11630164,0.16893448 0 0 0 0.003,5e-5 0.11630164,0.16893448 0 0 0 0.0111,-9e-4 c -0.0804,-0.15277 -0.061,-0.24494 -0.002,-0.3363 a 0.11630164,0.16893448 0 0 0 -0.009,-6.5e-4 0.11630164,0.16893448 0 0 0 -5.2e-4,0 z"
         style="fill:url(#linearGradient883);fill-opacity:1;fill-rule:nonzero;stroke:none;stroke-width:0.0385021;stroke-linecap:round;stroke-linejoin:miter;stroke-miterlimit:4;stroke-dasharray:none;stroke-dashoffset:0;stroke-opacity:1;paint-order:markers stroke fill"
         id="ellipse879" />
      <path
         style="fill:#8de090;fill-opacity:1;fill-rule:nonzero;stroke:none;stroke-width:0.00249026;stroke-linecap:round;stroke-linejoin:round;stroke-miterlimit:4;stroke-dasharray:none;stroke-dashoffset:0;stroke-opacity:1;paint-order:markers stroke fill"
         d="m 101.23269,112.1749 c -0.014,0 -0.0254,0.0165 -0.0254,0.037 0,0.0204 0.0114,0.037 0.0254,0.037 0.008,0 0.0159,-0.006 0.0207,-0.0156 v 0 l 0.0202,-0.0234 -0.0225,-0.0234 v 0 c -0.003,-0.005 -0.007,-0.008 -0.0108,-0.01 -0.002,-0.001 -0.005,-0.002 -0.008,-0.002 z"
         id="path12950"
         inkscape:connector-curvature="0"
         sodipodi:nodetypes="ccccccccsc" />
      <path
         style="fill:#8ddf8f;fill-opacity:1;fill-rule:nonzero;stroke:none;stroke-width:0.00232729;stroke-linecap:round;stroke-linejoin:round;stroke-miterlimit:4;stroke-dasharray:none;stroke-dashoffset:0;stroke-opacity:1;paint-order:markers stroke fill"
         d="m 101.0464,112.25152 c -0.003,0 -0.006,7.7e-4 -0.009,0.002 -0.005,0.003 -0.008,0.0114 -0.008,0.0114 -5.4e-4,2.5e-4 0,0 0,0 l -0.0141,0.0189 0.0349,0.0258 c 0.009,0.007 0.019,0.008 0.0257,0.004 0.0106,-0.007 0.0106,-0.0257 0,-0.0423 -0.008,-0.0121 -0.0193,-0.02 -0.0294,-0.0202 z"
         id="path12954"
         inkscape:connector-curvature="0"
         sodipodi:nodetypes="ccscccccc" />
      <g
         id="g12970"
         transform="matrix(0.06001778,0,0,0.06001778,126.2741,129.77585)">
        <path
           sodipodi:nodetypes="cccccccsccccccc"
           style="fill:#fc4a5b;fill-opacity:1;stroke:#c8192c;stroke-width:0.64129;stroke-linecap:butt;stroke-linejoin:round;stroke-miterlimit:4;stroke-dasharray:none;stroke-opacity:1;paint-order:markers stroke fill"
           d="m -418.19054,-296.01723 c -0.39733,-0.0226 -0.56859,0.51331 -0.56889,0.51395 0,0 -0.5158,-0.79959 -0.97656,-0.38178 -0.4761,0.43176 0.2364,0.8596 0.2364,0.8596 0,0 -0.25413,0.0315 -0.48701,0.0682 -0.23286,0.0368 -0.40112,0.26995 -0.28574,0.59787 0.20776,0.59089 0.96548,0.10366 0.96548,0.10366 0,0 -0.22195,0.8607 0.42135,0.8607 0.68047,0 0.49415,-0.78647 0.49416,-0.78647 0,0 0.87471,0.37066 0.99759,-0.26118 0.10422,-0.53604 -0.62451,-0.65854 -0.65021,-0.65965 0,-3e-5 -0.0129,-0.003 -0.0129,-0.003 0,0 0.74176,-0.3954 0.1664,-0.79761 -0.10782,-0.0754 -0.2083,-0.10916 -0.30004,-0.11441 z"
           id="path12956"
           inkscape:connector-curvature="0" />
        <path
           inkscape:connector-curvature="0"
           id="path831"
           d="m -418.19054,-296.01723 c -0.39733,-0.0226 -0.56859,0.51331 -0.56889,0.51395 0,0 -0.5158,-0.79959 -0.97656,-0.38178 -0.4761,0.43176 0.2364,0.8596 0.2364,0.8596 0,0 -0.25413,0.0315 -0.48701,0.0682 -0.23286,0.0368 -0.40112,0.26995 -0.28574,0.59787 0.20776,0.59089 0.96548,0.10366 0.96548,0.10366 0,0 -0.22195,0.8607 0.42135,0.8607 0.68047,0 0.49415,-0.78647 0.49416,-0.78647 0,0 0.87471,0.37066 0.99759,-0.26118 0.10422,-0.53604 -0.62451,-0.65854 -0.65021,-0.65965 0,-3e-5 -0.0129,-0.003 -0.0129,-0.003 0,0 0.74176,-0.3954 0.1664,-0.79761 -0.10782,-0.0754 -0.2083,-0.10916 -0.30004,-0.11441 z"
           style="fill:#fc4a5b;fill-opacity:1;stroke:none;stroke-width:0.64129;stroke-linecap:butt;stroke-linejoin:round;stroke-miterlimit:4;stroke-dasharray:none;stroke-opacity:1;paint-order:markers stroke fill"
           sodipodi:nodetypes="cccccccsccccccc" />
        <ellipse
           style="opacity:1;fill:#feb344;fill-opacity:1;fill-rule:nonzero;stroke:none;stroke-width:0.0443878;stroke-linecap:round;stroke-linejoin:round;stroke-miterlimit:4;stroke-dasharray:none;stroke-dashoffset:0;stroke-opacity:1;paint-order:markers stroke fill"
           id="ellipse12968"
           cx="-418.79633"
           cy="-294.8035"
           rx="0.58378994"
           ry="0.38749841" />
      </g>
    </g>
  </g>
</svg>
