<?xml version="1.0" encoding="UTF-8" standalone="no"?>
<!-- Created with Inkscape (http://www.inkscape.org/) -->

<svg
   width="0.26458335mm"
   height="0.49370694mm"
   viewBox="0 0 0.26458335 0.49370694"
   version="1.1"
   id="svg32519"
   inkscape:version="1.1 (c68e22c387, 2021-05-23)"
   sodipodi:docname="fence_hor_castle.svg"
   xmlns:inkscape="http://www.inkscape.org/namespaces/inkscape"
   xmlns:sodipodi="http://sodipodi.sourceforge.net/DTD/sodipodi-0.dtd"
   xmlns="http://www.w3.org/2000/svg"
   xmlns:svg="http://www.w3.org/2000/svg">
  <sodipodi:namedview
     id="namedview32521"
     pagecolor="#ffffff"
     bordercolor="#999999"
     borderopacity="1"
     inkscape:pageshadow="0"
     inkscape:pageopacity="0"
     inkscape:pagecheckerboard="0"
     inkscape:document-units="mm"
     showgrid="false"
     inkscape:zoom="256"
     inkscape:cx="0.42578125"
     inkscape:cy="1.1308594"
     inkscape:window-width="1920"
     inkscape:window-height="1057"
     inkscape:window-x="-8"
     inkscape:window-y="-8"
     inkscape:window-maximized="1"
     inkscape:current-layer="g164371" />
  <defs
     id="defs32516" />
  <g
     inkscape:label="Layer 1"
     inkscape:groupmode="layer"
     id="layer1"
     transform="translate(-120.99061,-126.53291)">
    <g
       id="g164371"
       transform="translate(-1393.7489,206.25711)">
      <g
         id="g32764"
         transform="matrix(0.04999969,0,0,0.04999969,1439.003,-75.738014)"
         style="stroke-width:20.0001">
        <path
           id="path6005-3-5"
           style="fill:#0a0f32;fill-opacity:0.2;stroke-width:19.4417"
           d="m 1520.0312,-73.024999 v 2.645801 c 0,0.293199 -0.236,0.529199 -0.5291,0.529199 h -4.2334 c -0.2931,0 -0.5291,-0.236 -0.5291,-0.529199 v -2.645801 z"
           sodipodi:nodetypes="csssscc" />
        <path
           id="circle78377"
           style="fill:#502038;fill-opacity:1;stroke-width:60.0004;stroke-linecap:round;stroke-linejoin:round;paint-order:markers stroke fill"
           d="m 1520.0312,-72.495833 h -5.2916 l -1e-4,-4.497921 c 0,-0.292262 0.2369,-0.529179 0.5292,-0.529154 h 4.2334 c 0.2922,3e-5 0.5291,0.236931 0.5291,0.529154 z"
           sodipodi:nodetypes="ccccccc" />
        <path
           id="path11567-8"
           style="fill:#542844;fill-opacity:1;fill-rule:nonzero;stroke:none;stroke-width:0.880592;stroke-linecap:round;stroke-linejoin:miter;stroke-miterlimit:4;stroke-dasharray:none;stroke-dashoffset:0;stroke-opacity:1;paint-order:markers stroke fill"
           d="m 1515.0041,-73.818747 v 0.79375 h 4.7625 v -0.79375 c 0,0.293127 -0.236,0.529167 -0.5291,0.529167 h -3.7042 c -0.2931,0 -0.5292,-0.23604 -0.5292,-0.529167 z"
           sodipodi:nodetypes="ccccssc" />
        <rect
           style="fill:#9c6000;fill-opacity:1;fill-rule:nonzero;stroke:none;stroke-width:1.05834;stroke-linecap:round;stroke-linejoin:miter;stroke-miterlimit:4;stroke-dasharray:none;stroke-dashoffset:0;stroke-opacity:1;paint-order:markers stroke fill"
           id="rect30049"
           width="4.4977255"
           height="2.3812478"
           x="1515.1366"
           y="-76.199959"
           ry="0.52911103" />
        <rect
           style="fill:#dca450;fill-opacity:1;fill-rule:nonzero;stroke:none;stroke-width:1.05834;stroke-linecap:round;stroke-linejoin:miter;stroke-miterlimit:4;stroke-dasharray:none;stroke-dashoffset:0;stroke-opacity:1;paint-order:markers stroke fill"
           id="rect11573-6"
           width="4.4977255"
           height="2.3812125"
           x="1515.1366"
           y="-76.993706"
           ry="0.52911103" />
        <rect
           style="fill:#c89008;fill-opacity:1;fill-rule:nonzero;stroke:none;stroke-width:1.05834;stroke-linecap:round;stroke-linejoin:miter;stroke-miterlimit:4;stroke-dasharray:none;stroke-dashoffset:0;stroke-opacity:1;paint-order:markers stroke fill"
           id="rect42647"
           width="3.4395955"
           height="1.3229139"
           x="1515.6656"
           y="-76.464577"
           ry="0.26467136" />
        <ellipse
           style="fill:#ac7c08;fill-opacity:1;fill-rule:nonzero;stroke:none;stroke-width:1.05834;stroke-linecap:round;stroke-linejoin:round;stroke-miterlimit:4;stroke-dasharray:none;stroke-dashoffset:0;stroke-opacity:1;paint-order:markers stroke fill"
           id="ellipse11575-2"
           cx="1517.3854"
           cy="-75.538521"
           rx="1.0583038"
           ry="0.6614399" />
        <path
           style="fill:#684408;fill-opacity:1;fill-rule:nonzero;stroke:none;stroke-width:1.05834;stroke-linecap:round;stroke-linejoin:round;stroke-miterlimit:4;stroke-dasharray:none;stroke-dashoffset:0;stroke-opacity:1;paint-order:markers stroke fill"
           d="m 1517.3853,-77.521808 c -0.4306,0 -0.7932,0.362204 -0.7932,0.792696 v 0.793225 c 0,0.430571 0.3626,0.79476 0.7932,0.79476 0.4306,0 0.7927,-0.364189 0.7927,-0.79476 v -0.793225 c 0,-0.430492 -0.3621,-0.792696 -0.7927,-0.792696 z"
           id="path11577-6"
           inkscape:connector-curvature="0" />
        <rect
           style="fill:#745004;fill-opacity:1;fill-rule:nonzero;stroke:none;stroke-width:1.05834;stroke-linecap:round;stroke-linejoin:round;stroke-miterlimit:4;stroke-dasharray:none;stroke-dashoffset:0;stroke-opacity:1;paint-order:markers stroke fill"
           id="rect11579-9"
           width="0.52916008"
           height="1.3229042"
           x="1517.1207"
           y="-76.99369"
           ry="0.26457596" />
        <path
           style="fill:#986c04;fill-opacity:1;fill-rule:nonzero;stroke:none;stroke-width:1.05834;stroke-linecap:round;stroke-linejoin:round;stroke-miterlimit:4;stroke-dasharray:none;stroke-dashoffset:0;stroke-opacity:1;paint-order:markers stroke fill"
           d="m 1517.3853,-76.993688 v 1.32288 c 0.1466,0 0.2646,-0.118001 0.2646,-0.264576 v -0.793728 c 0,-0.146575 -0.118,-0.264576 -0.2646,-0.264576 z"
           id="path11581-9"
           inkscape:connector-curvature="0" />
        <path
           style="color:#000000;fill:#68440c;stroke-width:20.0001;stroke-linecap:round;stroke-linejoin:round;-inkscape-stroke:none;paint-order:markers stroke fill"
           d="m 1518.1956,-79.390697 c -0.4438,-0.44378 -1.1763,-0.445123 -1.6201,-0.0013 l -0.5303,0.53033 c -0.4437,0.443709 -0.4424,1.176201 0,1.619982 l 0.5289,0.528915 c 0.4438,0.443781 1.1749,0.44371 1.6186,0 l 0.5303,-0.53033 c 0.4438,-0.44378 0.4439,-1.174858 10e-5,-1.618638 z"
           id="path32643"
           sodipodi:nodetypes="csscssccc" />
        <path
           style="color:#000000;fill:#9c6c04;stroke-width:15.8751;stroke-linecap:round;stroke-linejoin:round;-inkscape-stroke:none;paint-order:markers stroke fill"
           d="m 1517.9144,-79.1104 0.5293,0.52927 c 0.2931,0.293096 0.2931,0.76516 0,1.058256 l -0.5293,0.529269 c -0.2931,0.293167 -0.7651,0.293096 -1.0582,0 l -0.5293,-0.529269 c -0.2931,-0.293167 -0.2931,-0.76509 0,-1.058256 l 0.5293,-0.52927 c 0.2931,-0.293095 0.7651,-0.293166 1.0582,0 z"
           id="path32645" />
        <path
           id="rect94475"
           style="opacity:1;fill:#cc9004;fill-opacity:1;stroke:none;stroke-width:15.8751;stroke-linecap:round;stroke-linejoin:round;stroke-miterlimit:4;stroke-dasharray:none;stroke-opacity:1;paint-order:markers stroke fill"
           d="m 1517.3673,-79.330039 c -0.01,2.25e-4 -0.018,5.29e-4 -0.028,0.0011 l -0.2186,0.218567 c -0.2931,0.293138 -0.2931,0.765197 0,1.058334 l 0.5292,0.529166 c 0.1583,0.158346 0.3688,0.231315 0.5751,0.218591 l 0.2186,-0.218591 c 0.2932,-0.293137 0.2932,-0.765196 0,-1.058333 l -0.5291,-0.529167 c -0.1512,-0.151148 -0.3501,-0.224348 -0.5473,-0.219625 z" />
      </g>
    </g>
  </g>
</svg>
