<?xml version="1.0" encoding="UTF-8" standalone="no"?>
<svg
   xmlns:dc="http://purl.org/dc/elements/1.1/"
   xmlns:cc="http://creativecommons.org/ns#"
   xmlns:rdf="http://www.w3.org/1999/02/22-rdf-syntax-ns#"
   xmlns:svg="http://www.w3.org/2000/svg"
   xmlns="http://www.w3.org/2000/svg"
   xmlns:sodipodi="http://sodipodi.sourceforge.net/DTD/sodipodi-0.dtd"
   xmlns:inkscape="http://www.inkscape.org/namespaces/inkscape"
   width="0.29104167mm"
   height="0.42333305mm"
   viewBox="0 0 0.29104167 0.42333305"
   version="1.1"
   id="svg3893"
   inkscape:version="1.0 (4035a4fb49, 2020-05-01)"
   sodipodi:docname="fence_hor_ice.svg">
  <defs
     id="defs3887" />
  <sodipodi:namedview
     id="base"
     pagecolor="#ffffff"
     bordercolor="#666666"
     borderopacity="1.0"
     inkscape:pageopacity="0.0"
     inkscape:pageshadow="2"
     inkscape:zoom="256"
     inkscape:cx="0.6813341"
     inkscape:cy="0.62492521"
     inkscape:document-units="px"
     inkscape:current-layer="layer1"
     inkscape:document-rotation="0"
     showgrid="false"
     inkscape:window-width="1920"
     inkscape:window-height="1057"
     inkscape:window-x="-8"
     inkscape:window-y="-8"
     inkscape:window-maximized="1" />
  <metadata
     id="metadata3890">
    <rdf:RDF>
      <cc:Work
         rdf:about="">
        <dc:format>image/svg+xml</dc:format>
        <dc:type
           rdf:resource="http://purl.org/dc/dcmitype/StillImage" />
        <dc:title />
      </cc:Work>
    </rdf:RDF>
  </metadata>
  <g
     inkscape:label="Layer 1"
     inkscape:groupmode="layer"
     id="layer1"
     transform="translate(-76.464582,-171.14762)">
    <g
       transform="matrix(0.05,0,0,0.05,57.745311,175.59262)"
       id="g3175">
      <rect
         ry="0.93459511"
         y="-83.608322"
         x="374.64999"
         height="3.1749845"
         width="5.2916713"
         id="rect3144"
         style="opacity:1;fill:#000000;fill-opacity:0.18039216;fill-rule:nonzero;stroke:none;stroke-width:3.93973;stroke-linecap:round;stroke-linejoin:round;stroke-miterlimit:4;stroke-dasharray:none;stroke-dashoffset:0;stroke-opacity:1;paint-order:markers stroke fill;filter:url(#filter1957)" />
      <path
         sodipodi:nodetypes="ccssscssscccc"
         id="path3038"
         style="color:#000000;font-style:normal;font-variant:normal;font-weight:normal;font-stretch:normal;font-size:medium;line-height:normal;font-family:sans-serif;font-variant-ligatures:normal;font-variant-position:normal;font-variant-caps:normal;font-variant-numeric:normal;font-variant-alternates:normal;font-variant-east-asian:normal;font-feature-settings:normal;font-variation-settings:normal;text-indent:0;text-align:start;text-decoration:none;text-decoration-line:none;text-decoration-style:solid;text-decoration-color:#000000;letter-spacing:normal;word-spacing:normal;text-transform:none;writing-mode:lr-tb;direction:ltr;text-orientation:mixed;dominant-baseline:auto;baseline-shift:baseline;text-anchor:start;white-space:normal;shape-padding:0;shape-margin:0;inline-size:0;clip-rule:nonzero;display:inline;overflow:visible;visibility:visible;isolation:auto;mix-blend-mode:normal;color-interpolation:sRGB;color-interpolation-filters:linearRGB;solid-color:#000000;solid-opacity:1;vector-effect:none;fill:#004cbc;fill-opacity:1;fill-rule:nonzero;stroke:none;stroke-width:3.99999;stroke-linecap:square;stroke-linejoin:miter;stroke-miterlimit:4;stroke-dasharray:none;stroke-dashoffset:0;stroke-opacity:1;paint-order:markers stroke fill;color-rendering:auto;image-rendering:auto;shape-rendering:auto;text-rendering:auto;enable-background:accumulate;stop-color:#000000"
         d="m 1421,-336 -6,6.17188 V -312 c 0,2.18141 1.8186,4 4,4 h 4 c 1.2053,0 2.2618,-0.58433 3,-1.44922 0.7382,0.86489 1.7947,1.44922 3,1.44922 h 4 c 2.1814,0 4,-1.81859 4,-4 v -17.82812 l -6,-6.17188 -5,5.17188 z"
         transform="scale(0.26458333)" />
      <path
         id="rect2998"
         style="opacity:1;fill:#00c4ff;fill-opacity:1;stroke:none;stroke-width:0.0999999;stroke-linecap:square;stroke-miterlimit:4;stroke-dasharray:none;paint-order:markers stroke fill"
         d="m 1421,-333 -4,4 v 17 c 0,1.10799 0.892,2 2,2 h 4 c 1.108,0 2,-0.89201 2,-2 v -17 z m 10,0 -4,4 v 17 c 0,1.10799 0.892,2 2,2 h 4 c 1.108,0 2,-0.89201 2,-2 v -17 z"
         transform="scale(0.26458333)" />
      <path
         id="rect3000"
         style="opacity:1;fill:#00acff;fill-opacity:1;stroke:none;stroke-width:0.0999999;stroke-linecap:square;stroke-miterlimit:4;stroke-dasharray:none;paint-order:markers stroke fill"
         d="m 1421,-329 c -1.108,0 -2,0.89201 -2,2 v 15 c 0,1.10799 0.892,2 2,2 1.108,0 2,-0.89201 2,-2 v -15 c 0,-1.10799 -0.892,-2 -2,-2 z m 10,0 c -1.108,0 -2,0.89201 -2,2 v 15 c 0,1.10799 0.892,2 2,2 1.108,0 2,-0.89201 2,-2 v -15 c 0,-1.10799 -0.892,-2 -2,-2 z"
         transform="scale(0.26458333)" />
      <path
         id="path2994"
         style="opacity:1;fill:#00d4ff;fill-opacity:1;stroke:none;stroke-width:0.999999px;stroke-linecap:butt;stroke-linejoin:miter;stroke-opacity:1"
         d="m 1421,-333 -4,4 v 5 l 4,-4 z m 10,0 -4,4 v 5 l 4,-4 z"
         transform="scale(0.26458333)" />
      <path
         id="path2996"
         style="opacity:1;fill:#00f0ff;fill-opacity:1;stroke:none;stroke-width:0.999999px;stroke-linecap:butt;stroke-linejoin:miter;stroke-opacity:1"
         d="m 1421,-333 v 5 l 4,4 v -5 z m 10,0 v 5 l 4,4 v -5 z"
         transform="scale(0.26458333)" />
    </g>
  </g>
</svg>
