<?xml version="1.0" encoding="UTF-8" standalone="no"?>
<svg
   xmlns:dc="http://purl.org/dc/elements/1.1/"
   xmlns:cc="http://creativecommons.org/ns#"
   xmlns:rdf="http://www.w3.org/1999/02/22-rdf-syntax-ns#"
   xmlns:svg="http://www.w3.org/2000/svg"
   xmlns="http://www.w3.org/2000/svg"
   xmlns:sodipodi="http://sodipodi.sourceforge.net/DTD/sodipodi-0.dtd"
   xmlns:inkscape="http://www.inkscape.org/namespaces/inkscape"
   sodipodi:docname="fuel_barrel.svg"
   inkscape:version="1.0 (4035a4fb49, 2020-05-01)"
   id="svg3893"
   version="1.1"
   viewBox="0 0 0.26458332 0.50270832"
   height="0.50270832mm"
   width="0.26458332mm">
  <defs
     id="defs3887" />
  <sodipodi:namedview
     inkscape:window-maximized="1"
     inkscape:window-y="-8"
     inkscape:window-x="-8"
     inkscape:window-height="1057"
     inkscape:window-width="1920"
     showgrid="false"
     inkscape:document-rotation="0"
     inkscape:current-layer="layer1"
     inkscape:document-units="px"
     inkscape:cy="16.134638"
     inkscape:cx="-3.3004475"
     inkscape:zoom="15.839192"
     inkscape:pageshadow="2"
     inkscape:pageopacity="0.0"
     borderopacity="1.0"
     bordercolor="#666666"
     pagecolor="#ffffff"
     id="base" />
  <metadata
     id="metadata3890">
    <rdf:RDF>
      <cc:Work
         rdf:about="">
        <dc:format>image/svg+xml</dc:format>
        <dc:type
           rdf:resource="http://purl.org/dc/dcmitype/StillImage" />
        <dc:title />
      </cc:Work>
    </rdf:RDF>
  </metadata>
  <g
     transform="translate(-93.983169,-74.703989)"
     id="layer1"
     inkscape:groupmode="layer"
     inkscape:label="Layer 1">
    <g
       transform="matrix(0.04999987,0,0,0.04999987,96.734829,136.22581)"
       id="g9438">
      <ellipse
         ry="2.6458249"
         rx="2.6458399"
         cy="-1223.0312"
         cx="-52.387501"
         id="path6763-0-4"
         style="opacity:1;fill:#000000;fill-opacity:0.18;fill-rule:nonzero;stroke:none;stroke-width:1.05833;stroke-linecap:round;stroke-linejoin:round;stroke-miterlimit:4;stroke-dasharray:none;stroke-dashoffset:0;stroke-opacity:1;paint-order:markers fill stroke" />
      <path
         inkscape:connector-curvature="0"
         style="opacity:1;fill:#1c3454;fill-opacity:1;fill-rule:nonzero;stroke:none;stroke-width:4;stroke-linecap:round;stroke-linejoin:round;stroke-miterlimit:4;stroke-dasharray:none;stroke-dashoffset:0;stroke-opacity:1;paint-order:markers stroke fill"
         d="m -200,-4650.4805 c -1.36954,0 -2.37615,1.0523 -2.71875,2.3301 -1.22055,0.6679 -2.25732,1.5671 -3.10352,2.6699 H -206 a 2.0001999,2.0001999 0 0 0 -2,2 v 4 3 8 c 0,5.4992 4.50084,10 10,10 5.49916,0 10,-4.5008 10,-10 v -11 -4 a 2.0001999,2.0001999 0 0 0 -2,-2 h -0.17383 c -0.84729,-1.1043 -1.88679,-2.0036 -3.10937,-2.6718 -0.34349,-1.2768 -1.34816,-2.3282 -2.7168,-2.3282 z"
         transform="scale(0.26458333)"
         id="path9387" />
      <path
         inkscape:connector-curvature="0"
         style="opacity:1;fill:#708494;fill-opacity:1;fill-rule:nonzero;stroke:none;stroke-width:4;stroke-linecap:round;stroke-linejoin:round;stroke-miterlimit:4;stroke-dasharray:none;stroke-dashoffset:0;stroke-opacity:1;paint-order:markers stroke fill"
         d="m -198,-4647.4805 a 7.9999996,7.9999996 0 0 0 -8,8 v 11 a 7.9999995,7.9999995 0 0 0 8,8 7.9999995,7.9999995 0 0 0 8,-8 v -11 a 7.9999996,7.9999996 0 0 0 -8,-8 z"
         transform="scale(0.26458333)"
         id="circle9245" />
      <path
         inkscape:connector-curvature="0"
         style="opacity:1;fill:#c824ac;fill-opacity:1;fill-rule:nonzero;stroke:none;stroke-width:1.05833;stroke-linecap:round;stroke-linejoin:round;stroke-miterlimit:4;stroke-dasharray:none;stroke-dashoffset:0;stroke-opacity:1;paint-order:markers stroke fill"
         d="m -52.387499,-1227.2646 c -0.356726,9e-4 -0.707445,0.092 -1.019577,0.2646 h -1.09709 v 1.7147 c 0,1.169 0.94769,2.1166 2.116667,2.1166 1.168976,0 2.116666,-0.9476 2.116666,-2.1166 V -1227 h -1.093472 c -0.313205,-0.1733 -0.665243,-0.2643 -1.023194,-0.2646 z"
         id="circle9322"
         sodipodi:nodetypes="cccsssccc" />
      <path
         transform="matrix(0.26458333,0,0,0.26458333,-516.73125,-1149.2125)"
         d="m 1747,-294 v 6.48072 c 3e-4,2.42887 1.104,4.72609 3,6.24414 V -294 Z"
         style="fill:#a41c84;fill-opacity:1;stroke-width:3.99999;stroke-linecap:round;paint-order:markers stroke fill"
         id="rect2812"
         sodipodi:nodetypes="ccccc" />
      <path
         transform="matrix(0.26458333,0,0,0.26458333,-516.73125,-1149.2125)"
         d="m 1759,-294 v 13.40845 c 2.4751,-1.42898 3.9998,-4.06978 4,-6.92773 V -294 Z"
         style="fill:#e02cc4;fill-opacity:1;stroke-width:4.6368;stroke-linecap:round;paint-order:markers stroke fill"
         id="rect2815"
         sodipodi:nodetypes="ccccc" />
      <circle
         r="2.1166666"
         cy="-1227"
         cx="-52.387501"
         id="circle9385"
         style="opacity:1;fill:#6c8898;fill-opacity:1;fill-rule:nonzero;stroke:none;stroke-width:1.05833;stroke-linecap:round;stroke-linejoin:round;stroke-miterlimit:4;stroke-dasharray:none;stroke-dashoffset:0;stroke-opacity:1;paint-order:markers stroke fill" />
      <path
         transform="matrix(0.26458333,0,0,0.26458333,-516.73125,-1149.2125)"
         d="m 1753,-305 c -0.554,0 -1,0.44592 -1,1 v 0.58398 A 7.9999996,7.9999996 0 0 0 1748.0723,-300 H 1747 v 6 h 0.2539 a 7.9999996,7.9999996 0 0 0 7.7461,6 7.9999996,7.9999996 0 0 0 7.7461,-6 H 1763 v -2 -4 h -1.0723 A 7.9999996,7.9999996 0 0 0 1758,-303.41602 V -304 c 0,-0.55408 -0.446,-1 -1,-1 z"
         style="opacity:1;fill:#a8d0ec;fill-opacity:1;fill-rule:nonzero;stroke:none;stroke-width:3.99999;stroke-linecap:round;stroke-linejoin:round;stroke-miterlimit:4;stroke-dasharray:none;stroke-dashoffset:0;stroke-opacity:1;paint-order:markers stroke fill"
         id="circle9282" />
      <rect
         style="opacity:1;fill:#6c8498;fill-opacity:1;fill-rule:nonzero;stroke:none;stroke-width:1.05833;stroke-linecap:round;stroke-linejoin:round;stroke-miterlimit:4;stroke-dasharray:none;stroke-dashoffset:0;stroke-opacity:1;paint-order:markers stroke fill"
         id="rect9265"
         width="1.5875"
         height="1.3229166"
         x="-53.181248"
         y="-1229.6459"
         ry="0.26456705" />
      <ellipse
         ry="1.5875081"
         rx="1.5874988"
         cy="-1227.5292"
         cx="-52.387497"
         id="ellipse9261"
         style="opacity:1;fill:#88a4bc;fill-opacity:1;fill-rule:nonzero;stroke:none;stroke-width:0.793752;stroke-linecap:round;stroke-linejoin:round;stroke-miterlimit:4;stroke-dasharray:none;stroke-dashoffset:0;stroke-opacity:1;paint-order:markers stroke fill" />
      <path
         transform="scale(0.26458333)"
         style="opacity:1;fill:#a4c0d4;fill-opacity:1;fill-rule:nonzero;stroke:none;stroke-width:2.23604;stroke-linecap:round;stroke-linejoin:round;stroke-miterlimit:4;stroke-dasharray:none;stroke-dashoffset:0;stroke-opacity:1;paint-order:markers stroke fill"
         d="m -198,-4645.4805 c -2.76147,0 -5.00007,1.7909 -5,4 v 3.0001 c -7e-5,2.2092 2.23853,4 5,4 2.76147,0 5.00007,-1.7908 5,-4 v -3.0001 c 7e-5,-2.2091 -2.23853,-4 -5,-4 z"
         id="ellipse9251"
         inkscape:connector-curvature="0"
         sodipodi:nodetypes="ccccccc" />
      <ellipse
         ry="1.0583084"
         rx="1.3229154"
         cy="-1228.0583"
         cx="-52.387497"
         id="ellipse9255"
         style="opacity:1;fill:#b4d4ec;fill-opacity:1;fill-rule:nonzero;stroke:none;stroke-width:0.591619;stroke-linecap:round;stroke-linejoin:round;stroke-miterlimit:4;stroke-dasharray:none;stroke-dashoffset:0;stroke-opacity:1;paint-order:markers stroke fill" />
      <path
         transform="matrix(0.26458333,0,0,0.26458333,-516.73125,-1149.2125)"
         d="m 1755,-300 a 2.9999952,1.9999384 0 0 0 -3,2 2.9999952,1.9999384 0 0 0 3,2 2.9999952,1.9999384 0 0 0 3,-2 2.9999952,1.9999384 0 0 0 -3,-2 z m -0.066,1 a 1.9999952,0.99993845 0 0 1 0.066,0 1.9999952,0.99993845 0 0 1 2,1 1.9999952,0.99993845 0 0 1 -2,1 1.9999952,0.99993845 0 0 1 -2,-1 1.9999952,0.99993845 0 0 1 1.9336,-1 z"
         style="opacity:1;fill:#8890c4;fill-opacity:1;fill-rule:nonzero;stroke:none;stroke-width:1.22473;stroke-linecap:round;stroke-linejoin:round;stroke-miterlimit:4;stroke-dasharray:none;stroke-dashoffset:0;stroke-opacity:1;paint-order:markers stroke fill"
         id="ellipse9257" />
      <rect
         style="opacity:1;fill:#a8d0ec;fill-opacity:1;fill-rule:nonzero;stroke:none;stroke-width:1.05833;stroke-linecap:round;stroke-linejoin:round;stroke-miterlimit:4;stroke-dasharray:none;stroke-dashoffset:0;stroke-opacity:1;paint-order:markers stroke fill"
         id="rect9267"
         width="1.5875015"
         height="0.79374188"
         x="-53.181248"
         y="-1226.4708"
         ry="0.26456705" />
      <rect
         ry="0.26456705"
         y="-1226.2063"
         x="-53.181248"
         height="1.0583822"
         width="1.5875015"
         id="rect9269"
         style="opacity:1;fill:#6c8898;fill-opacity:1;fill-rule:nonzero;stroke:none;stroke-width:1.05833;stroke-linecap:round;stroke-linejoin:round;stroke-miterlimit:4;stroke-dasharray:none;stroke-dashoffset:0;stroke-opacity:1;paint-order:markers stroke fill" />
      <rect
         style="opacity:1;fill:#6c8498;fill-opacity:1;fill-rule:nonzero;stroke:none;stroke-width:0.611022;stroke-linecap:round;stroke-linejoin:round;stroke-miterlimit:4;stroke-dasharray:none;stroke-dashoffset:0;stroke-opacity:1;paint-order:markers stroke fill"
         id="rect2787"
         width="0.52916718"
         height="0.52916664"
         x="-54.504166"
         y="-1227.5292"
         ry="8.1378967e-06" />
      <rect
         ry="8.1378967e-06"
         y="-1227.5292"
         x="-50.799999"
         height="0.52916664"
         width="0.52916718"
         id="rect2791"
         style="opacity:1;fill:#6c8498;fill-opacity:1;fill-rule:nonzero;stroke:none;stroke-width:0.611022;stroke-linecap:round;stroke-linejoin:round;stroke-miterlimit:4;stroke-dasharray:none;stroke-dashoffset:0;stroke-opacity:1;paint-order:markers stroke fill" />
      <path
         transform="matrix(0.26458333,0,0,0.26458333,-516.73125,-1149.2125)"
         d="m 1747,-288 v 1 a 7.9999993,7.9999993 0 0 0 8,8 7.9999993,7.9999993 0 0 0 8,-8 v -1 a 7.9999993,7.9999993 0 0 1 -8,8 7.9999993,7.9999993 0 0 1 -8,-8 z"
         style="opacity:1;fill:#28283c;fill-opacity:1;fill-rule:nonzero;stroke:none;stroke-width:3.99999;stroke-linecap:round;stroke-linejoin:round;stroke-miterlimit:4;stroke-dasharray:none;stroke-dashoffset:0;stroke-opacity:1;paint-order:markers stroke fill"
         id="path2809" />
    </g>
  </g>
</svg>
