<?xml version="1.0" encoding="UTF-8" standalone="no"?>
<svg
   xmlns:dc="http://purl.org/dc/elements/1.1/"
   xmlns:cc="http://creativecommons.org/ns#"
   xmlns:rdf="http://www.w3.org/1999/02/22-rdf-syntax-ns#"
   xmlns:svg="http://www.w3.org/2000/svg"
   xmlns="http://www.w3.org/2000/svg"
   xmlns:sodipodi="http://sodipodi.sourceforge.net/DTD/sodipodi-0.dtd"
   xmlns:inkscape="http://www.inkscape.org/namespaces/inkscape"
   inkscape:version="1.0 (4035a4fb49, 2020-05-01)"
   sodipodi:docname="goal_blue_2.svg"
   id="svg14118"
   version="1.1"
   viewBox="0 0 1.8123924 1.1641666"
   height="1.1641666mm"
   width="1.8123924mm">
  <defs
     id="defs14112" />
  <sodipodi:namedview
     inkscape:document-rotation="0"
     inkscape:object-paths="true"
     inkscape:snap-midpoints="true"
     inkscape:snap-intersection-paths="true"
     inkscape:snap-smooth-nodes="true"
     inkscape:window-maximized="1"
     inkscape:window-y="-8"
     inkscape:window-x="-8"
     inkscape:window-height="1057"
     inkscape:window-width="1920"
     showgrid="false"
     inkscape:current-layer="g11727"
     inkscape:document-units="mm"
     inkscape:cy="3.493767"
     inkscape:cx="3.391949"
     inkscape:zoom="90.509668"
     inkscape:pageshadow="2"
     inkscape:pageopacity="0.0"
     borderopacity="1.0"
     bordercolor="#666666"
     pagecolor="#ffffff"
     id="base" />
  <metadata
     id="metadata14115">
    <rdf:RDF>
      <cc:Work
         rdf:about="">
        <dc:format>image/svg+xml</dc:format>
        <dc:type
           rdf:resource="http://purl.org/dc/dcmitype/StillImage" />
      </cc:Work>
    </rdf:RDF>
  </metadata>
  <g
     transform="translate(268.34415,-96.566772)"
     id="layer1"
     inkscape:groupmode="layer"
     inkscape:label="Layer 1">
    <g
       style="stroke-width:19.99998665"
       transform="matrix(0.05000003,0,0,0.05000003,-267.13353,161.449)"
       id="g11727">
      <rect
         style="opacity:1;fill:#000000;fill-opacity:0.18000004;fill-rule:nonzero;stroke:none;stroke-width:1.58749914;stroke-linecap:butt;stroke-linejoin:round;stroke-miterlimit:4;stroke-dasharray:none;stroke-dashoffset:0;stroke-opacity:1;paint-order:markers stroke fill"
         id="rect11680"
         width="34.395832"
         height="7.6728597"
         x="-23.283333"
         y="-1282.0333"
         ry="0.79394531" />
      <path
         inkscape:connector-curvature="0"
         style="color:#000000;font-style:normal;font-variant:normal;font-weight:normal;font-stretch:normal;font-size:medium;line-height:normal;font-family:sans-serif;font-variant-ligatures:normal;font-variant-position:normal;font-variant-caps:normal;font-variant-numeric:normal;font-variant-alternates:normal;font-feature-settings:normal;text-indent:0;text-align:start;text-decoration:none;text-decoration-line:none;text-decoration-style:solid;text-decoration-color:#000000;letter-spacing:normal;word-spacing:normal;text-transform:none;writing-mode:lr-tb;direction:ltr;text-orientation:mixed;dominant-baseline:auto;baseline-shift:baseline;text-anchor:start;white-space:normal;shape-padding:0;clip-rule:nonzero;display:inline;overflow:visible;visibility:visible;opacity:1;isolation:auto;mix-blend-mode:normal;color-interpolation:sRGB;color-interpolation-filters:linearRGB;solid-color:#000000;solid-opacity:1;vector-effect:none;fill:#1c2c74;fill-opacity:1;fill-rule:nonzero;stroke:none;stroke-width:79.99993896;stroke-linecap:butt;stroke-linejoin:round;stroke-miterlimit:4;stroke-dasharray:none;stroke-dashoffset:0;stroke-opacity:1;color-rendering:auto;image-rendering:auto;shape-rendering:auto;text-rendering:auto;enable-background:accumulate"
         d="m -77.511719,-4904.4805 a 2.0002,2.0002 0 0 0 -1.414062,0.586 l -4,4 a 2.0002,2.0002 0 0 0 -0.556641,1.0722 l -8,46 a 2.0002,2.0002 0 0 0 -0.01758,0.5547 l 3,28 a 2.0002,2.0002 0 0 0 1.988281,1.7871 h 127 a 2.0002,2.0002 0 0 0 1.988281,-1.7871 l 3,-28 a 2.0002,2.0002 0 0 0 -0.01758,-0.5547 l -8,-46 a 2.0002,2.0002 0 0 0 -0.55664,-1.0722 l -4,-4 a 2.0002,2.0002 0 0 0 -1.414063,-0.586 z m 7.681641,14 h 93.638672 l 6.660156,38.0567 -1.759766,14.9433 H -74.732422 l -1.759766,-14.9433 z"
         transform="scale(0.26458333)"
         id="path11469" />
      <path
         inkscape:connector-curvature="0"
         style="fill:#2458b8;fill-opacity:1;stroke:none;stroke-width:19.99998474px;stroke-linecap:butt;stroke-linejoin:miter;stroke-opacity:1"
         d="m -77.511719,-4902.4805 -4,4 -8,46 3,28 h 127 l 3,-28 -8,-46 -4,-4 z m 6,10 h 97 l 7,40 -2,17 h -107 l -2,-17 z"
         id="path11423"
         transform="scale(0.26458333)" />
      <path
         inkscape:connector-curvature="0"
         style="fill:#5088e8;fill-opacity:1;stroke:none;stroke-width:19.99998474px;stroke-linecap:butt;stroke-linejoin:miter;stroke-opacity:1"
         d="m -77.511719,-4902.4805 -4,4 h 117 l -4,-4 z m 1,67 -3,5 h 113 l -3,-5 z"
         transform="scale(0.26458333)"
         id="path11425" />
      <path
         inkscape:connector-curvature="0"
         style="fill:#3068c8;fill-opacity:1;stroke:none;stroke-width:19.99998474px;stroke-linecap:butt;stroke-linejoin:miter;stroke-opacity:1"
         d="m -75.511719,-4892.4805 -7,40 3,22 3,-5 -2,-17 7,-40 z m 101,0 7,40 -2,17 3,5 3,-22 -7,-40 z"
         transform="scale(0.26458333)"
         id="path11427" />
      <path
         inkscape:connector-curvature="0"
         style="opacity:1;fill:#1c54b4;fill-opacity:1;fill-rule:nonzero;stroke:none;stroke-width:79.99993896;stroke-linecap:butt;stroke-linejoin:round;stroke-miterlimit:4;stroke-dasharray:none;stroke-dashoffset:0;stroke-opacity:1;paint-order:markers stroke fill"
         d="m -89.511719,-4852.4805 3,28 h 127 l 3,-28 h -7 l -3,22 h -113 l -3,-22 z"
         id="rect11433"
         transform="scale(0.26458333)" />
      <path
         transform="scale(0.26458333)"
         inkscape:connector-curvature="0"
         style="color:#000000;font-style:normal;font-variant:normal;font-weight:normal;font-stretch:normal;font-size:medium;line-height:normal;font-family:sans-serif;font-variant-ligatures:normal;font-variant-position:normal;font-variant-caps:normal;font-variant-numeric:normal;font-variant-alternates:normal;font-feature-settings:normal;text-indent:0;text-align:start;text-decoration:none;text-decoration-line:none;text-decoration-style:solid;text-decoration-color:#000000;letter-spacing:normal;word-spacing:normal;text-transform:none;writing-mode:lr-tb;direction:ltr;text-orientation:mixed;dominant-baseline:auto;baseline-shift:baseline;text-anchor:start;white-space:normal;shape-padding:0;clip-rule:nonzero;display:inline;overflow:visible;visibility:visible;opacity:1;isolation:auto;mix-blend-mode:normal;color-interpolation:sRGB;color-interpolation-filters:linearRGB;solid-color:#000000;solid-opacity:1;vector-effect:none;fill:#c4e4ff;fill-opacity:1;fill-rule:nonzero;stroke:none;stroke-width:73.99994659;stroke-linecap:butt;stroke-linejoin:round;stroke-miterlimit:4;stroke-dasharray:none;stroke-dashoffset:0;stroke-opacity:1;paint-order:markers stroke fill;color-rendering:auto;image-rendering:auto;shape-rendering:auto;text-rendering:auto;enable-background:accumulate"
         d="m -34.910156,-4893.8301 a 1.850185,1.850185 0 0 0 -1.550782,0.8418 l -2.601562,4 a 1.850185,1.850185 0 0 0 -0.228516,0.5059 1.850185,1.850185 0 0 0 -0.59375,-0.098 h -4.902343 a 1.850185,1.850185 0 0 0 -0.0957,-0.1933 l -2.28711,-4 a 1.850185,1.850185 0 0 0 -1.605469,-0.9317 h -5 a 1.850185,1.850185 0 0 0 -1.527343,0.8047 l -2.738282,4 a 1.850185,1.850185 0 0 0 -0.199218,0.3848 1.850185,1.850185 0 0 0 -0.486328,-0.065 h -5 a 1.850185,1.850185 0 0 0 -0.06055,0 1.850185,1.850185 0 0 0 -0.07031,-0.1543 l -2.144531,-4 a 1.850185,1.850185 0 0 0 -1.630859,-0.9746 h -5 a 1.850185,1.850185 0 0 0 -1.501954,0.7676 l -2.880859,4 a 1.850185,1.850185 0 0 0 -0.128906,1.957 l 2.146484,4 a 1.850185,1.850185 0 0 0 0.07031,0.1172 1.850185,1.850185 0 0 0 -0.148438,0.1778 l -2.880859,4 a 1.850185,1.850185 0 0 0 -0.128907,1.957 l 2.146485,4 a 1.850185,1.850185 0 0 0 0.07031,0.1172 1.850185,1.850185 0 0 0 -0.148437,0.1758 l -2.88086,4 a 1.850185,1.850185 0 0 0 -0.128906,1.957 l 2.146485,4 a 1.850185,1.850185 0 0 0 0.347656,0.457 1.850185,1.850185 0 0 0 -0.5,0.4863 l -2.892578,4.1543 a 1.850185,1.850185 0 0 0 -0.128907,1.9004 l 0.947266,1.8457 a 1.850185,1.850185 0 0 0 1.421875,0.9903 1.850185,1.850185 0 0 0 -0.130859,0.1816 l -2.511719,4 a 1.850185,1.850185 0 0 0 0,1.9688 l 2.511719,4 a 1.850185,1.850185 0 0 0 0.486328,0.5156 1.850185,1.850185 0 0 0 -0.486328,0.5156 l -2.511719,4 a 1.850185,1.850185 0 0 0 0,1.9688 l 1.892578,3.0136 H -76.25 l -2.511719,-4 2.511719,-4 h 5 l 2.511719,4 -2.511719,4 h 2.185547 l 1.892578,-3.0136 a 1.850185,1.850185 0 0 0 0.271484,-0.8047 1.850185,1.850185 0 0 0 0.775391,0.1699 h 5 a 1.850185,1.850185 0 0 0 0.775391,-0.1699 1.850185,1.850185 0 0 0 0.271484,0.8066 l 1.890625,3.0117 H -56 l -2.511719,-4 2.511719,-4 h 5 l 2.511719,4 -2.511719,4 h 2.1875 l 1.890625,-3.0117 a 1.850185,1.850185 0 0 0 0.271484,-0.8047 1.850185,1.850185 0 0 0 0.775391,0.1699 h 5 a 1.850185,1.850185 0 0 0 0.775391,-0.1699 1.850185,1.850185 0 0 0 0.271484,0.8067 l 1.890625,3.0097 h 2.1875 l -2.511719,-4 2.511719,-4 h 5 l 2.511719,4 -2.511719,4 h 2.1875 l 1.890625,-3.0097 a 1.850185,1.850185 0 0 0 0.271484,-0.8047 1.850185,1.850185 0 0 0 0.775391,0.1699 h 5 a 1.850185,1.850185 0 0 0 0.775391,-0.1699 1.850185,1.850185 0 0 0 0.271484,0.8066 l 1.888672,3.0078 H -15.5 l -2.511719,-4 2.511719,-4 h 5 l 2.5117188,4 -2.5117188,4 h 2.1894531 l 1.8886719,-3.0078 a 1.850185,1.850185 0 0 0 0.2714844,-0.8047 1.850185,1.850185 0 0 0 0.7753906,0.17 h 5 a 1.850185,1.850185 0 0 0 0.77539062,-0.17 1.850185,1.850185 0 0 0 0.27148438,0.8067 l 1.8867188,3.0058 H 4.75 l -2.5117188,-4 2.5117188,-4 h 5 l 2.511719,4 -2.511719,4 h 2.191406 l 1.886719,-3.0058 a 1.850185,1.850185 0 0 0 0.271484,-0.8047 1.850185,1.850185 0 0 0 0.775391,0.1699 h 5 a 1.850185,1.850185 0 0 0 0.775391,-0.1699 1.850185,1.850185 0 0 0 0.271484,0.8066 l 1.886719,3.0039 H 25 l -2.511719,-4 2.511719,-4 h 5 l 2.511719,4 -2.511719,4 h 2.191406 l 1.886719,-3.0039 a 1.850185,1.850185 0 0 0 0,-1.9687 l -2.511719,-4 a 1.850185,1.850185 0 0 0 -0.486328,-0.5157 1.850185,1.850185 0 0 0 0.486328,-0.5156 l 2.511719,-4 a 1.850185,1.850185 0 0 0 0,-1.9687 l -2.511719,-4 a 1.850185,1.850185 0 0 0 -0.132812,-0.1817 1.850185,1.850185 0 0 0 1.423828,-0.9902 l 0.947266,-1.8457 a 1.850185,1.850185 0 0 0 -0.128907,-1.9004 l -2.892578,-4.1543 a 1.850185,1.850185 0 0 0 -0.501953,-0.4863 1.850185,1.850185 0 0 0 0.349609,-0.4571 l 2.144532,-4 a 1.850185,1.850185 0 0 0 -0.128907,-1.955 l -2.878906,-4 a 1.850185,1.850185 0 0 0 -0.148437,-0.1778 1.850185,1.850185 0 0 0 0.07031,-0.1172 l 2.144531,-4 a 1.850185,1.850185 0 0 0 -0.128906,-1.955 l -2.878906,-4 a 1.850185,1.850185 0 0 0 -0.148438,-0.1778 1.850185,1.850185 0 0 0 0.07031,-0.1172 l 2.144531,-4 a 1.850185,1.850185 0 0 0 -0.128906,-1.9531 l -2.878906,-4.0019 a 1.850185,1.850185 0 0 0 -1.501954,-0.7696 h -5 a 1.850185,1.850185 0 0 0 -1.630859,0.9746 l -2.144531,4 a 1.850185,1.850185 0 0 0 -0.07031,0.1524 1.850185,1.850185 0 0 0 -0.06055,0 h -5 a 1.850185,1.850185 0 0 0 -0.486328,0.068 1.850185,1.850185 0 0 0 -0.201172,-0.3867 l -2.7402339,-4 a 1.850185,1.850185 0 0 0 -1.5253906,-0.8047 h -5 a 1.850185,1.850185 0 0 0 -1.60546875,0.9316 l -2.28515625,4 a 1.850185,1.850185 0 0 0 -0.09375,0.1914 h -4.9042969 a 1.850185,1.850185 0 0 0 -0.59375,0.1 1.850185,1.850185 0 0 0 -0.2285156,-0.5078 l -2.6015625,-4 a 1.850185,1.850185 0 0 0 -1.5507815,-0.8418 h -5 a 1.850185,1.850185 0 0 0 -1.582031,0.8907 l -2.423828,4 a 1.850185,1.850185 0 0 0 -0.167969,0.3652 1.850185,1.850185 0 0 0 -0.111328,0 h -5 a 1.850185,1.850185 0 0 0 -0.109375,0 1.850185,1.850185 0 0 0 -0.169922,-0.3652 l -2.423828,-4 a 1.850185,1.850185 0 0 0 -1.582031,-0.8907 z m 0,1.8496 h 5 l 2.423828,4 -2.603516,4 h -5 l -2.421875,-4 z m 18.570312,0 h 5 l 2.6015628,4 -2.4218748,4 h -5 l -2.603516,-4 z m -56.292968,0.125 h 5 l 2.144531,4 -2.878907,4 h -5 l -2.146484,-4 z m 18.857421,0 h 5 l 2.28711,4 -2.738281,4 h -5 l -2.28711,-4 z m 56.2988285,0 h 5 l 2.7402345,4 -2.2871095,4 h -5 l -2.73828125,-4 z m 18.8593745,0 h 5 l 2.878907,4 -2.144531,4 h -5 l -2.878907,-4 z m -85.109374,5.125 h 5 l 2.232421,4 -2.792968,4 h -5 l -2.232422,-4 z m 18.841796,0 h 5 l 2.396485,4 -2.626953,4 h -5 l -2.396485,-4 z m 19.259766,0 h 5 l 2.511719,4 -2.511719,4 h -5 l -2.511719,-4 z m 19.2597656,0 h 5 l 2.6269532,4 -2.3964844,4 h -5 l -2.6289063,-4 z m 18.8417964,0 h 5 l 2.791016,4 -2.230469,4 h -5 l -2.792968,-4 z m -47.617187,5 h 5 l 2.423828,4 -2.601562,4 h -5 l -2.423829,-4 z m 19.029297,0 h 5 l 2.6035155,4 -2.4238285,4 h -5 l -2.601562,-4 z m -57.462891,0.125 h 5 l 2.144531,4 -2.878906,4 h -5 l -2.146484,-4 z m 19.220703,0 h 5 l 2.285157,4 -2.738282,4 h -5 l -2.285156,-4 z m 57.4570316,0 h 5 l 2.7382814,4 -2.2851564,4 h -5 l -2.73828122,-4 z m 19.2207034,0 h 5 l 2.878906,4 -2.144531,4 h -5 l -2.878906,-4 z m -86.767578,5.125 h 5 l 2.232421,4 -2.792968,4 h -5 l -2.232422,-4 z m 19.261718,0 h 5 l 2.398438,4 -2.628906,4 h -5 l -2.396485,-4 z m 19.556641,0 h 5 l 2.511719,4 -2.511719,4 h -5 l -2.511719,-4 z m 19.5546875,0 h 5 l 2.6289063,4 -2.39648442,4 H -5.8378906 l -2.6289063,-4 z m 19.2636715,0 h 5 l 2.792969,4 -2.232422,4 h -5 l -2.792968,-4 z m -48.5625,5 h 5 l 2.421875,4 -2.601562,4 h -5 l -2.423828,-4 z m 19.488282,0 h 5 l 2.6015621,4 -2.4218751,4 h -5 l -2.601562,-4 z m -58.634766,0.125 h 5 l 2.144531,4 -2.878906,4 h -5 l -2.146484,-4 z m 19.582031,0 h 5 l 2.28711,4 -2.740235,4 h -5 l -2.285156,-4 z m 58.6171878,0 h 5 l 2.7382812,4 -2.2871094,4 h -5 l -2.7382812,-4 z m 19.5820312,0 h 5 l 2.878906,4 -2.144531,4 h -5 l -2.878906,-4 z m -88.427734,5.125 h 5 l 2.232421,4 -2.792968,4 h -5 l -2.232422,-4 z m 19.683593,0 h 5 l 2.396485,4 -2.628907,4 h -5 l -2.396484,-4 z m 19.853516,0 h 5 l 2.511719,4 -2.511719,4 h -5 l -2.511719,-4 z m 19.8535156,0 h 5.00000002 l 2.62890628,4 -2.3964844,4 h -5 l -2.6289063,-4 z m 19.6835934,0 h 5 l 2.792969,4 -2.232422,4 h -5 l -2.792968,-4 z m -89.427734,5.75 h 5 l 2.130859,4.1543 -1.285156,1.8457 h -7.791016 l -0.947265,-1.8457 z m 19.966797,0 h 5 l 2.277344,4.1543 -1.220704,1.8457 h -7.791015 l -1.011719,-1.8457 z m 19.93164,0 h 5 l 2.419922,4.1543 -1.158203,1.8457 h -7.791015 l -1.076172,-1.8457 z m 19.984376,0 h 5 l 2.6054682,4.1543 -1.0761718,1.8457 h -7.7910154 l -1.158203,-1.8457 z m 19.9316401,0 h 5 l 2.7460939,4.1543 -1.011719,1.8457 H 3.2421875 l -1.2207031,-1.8457 z m 19.9667969,0 h 5 l 2.892578,4.1543 -0.947265,1.8457 h -7.791016 l -1.28711,-1.8457 z m -90.146484,4.5 h 5 l 1.708984,3.5 -1.953125,3.5 h -5 l -1.955078,-3.5 z m 20.107421,0 h 5 l 1.851563,3.5 -1.953125,3.5 h -5 l -1.955078,-3.5 z m 20.148438,0 h 5 l 1.953125,3.5 -1.953125,3.5 h -5 l -1.955078,-3.5 z m 20.1484375,0 h 5 l 2.0566406,3.5 h -0.00195 l -1.953125,3.5 h -5 l -1.9550781,-3.5 h 0.00195 z m 20.1054685,0 h 5 l 2.201172,3.5 h -0.002 l -1.953125,3.5 h -5 l -1.955078,-3.5 h 0.002 z m -90.878906,4.5 h 5 l 2.511719,4 -2.511719,4 h -5 l -2.511719,-4 z m 20.25,0 h 5 l 2.511719,4 -2.511719,4 h -5 l -2.511719,-4 z m 20.25,0 h 5 l 2.511719,4 -2.511719,4 h -5 l -2.511719,-4 z m 20.25,0 h 5 l 2.5117188,4 -2.5117188,4 h -5 l -2.511719,-4 z m 20.25,0 h 5 l 2.511719,4 -2.511719,4 h -5 l -2.5117188,-4 z m 20.25,0 h 5 l 2.511719,4 -2.511719,4 h -5 l -2.511719,-4 z m -22.9238281,0.7813 -0.044922,0.068 H 1.5800781 a 1.850185,1.850185 0 0 0 0.4960938,-0.068 z m 20.2500001,0 -0.04492,0.068 H 21.83008 a 1.850185,1.850185 0 0 0 0.496094,-0.068 z m -88.451172,4.7187 h 5 l 2.511719,4 -2.511719,4 h -5 l -2.511719,-4 z m 20.25,0 h 5 l 2.511719,4 -2.511719,4 h -5 l -2.511719,-4 z m 20.25,0 h 5 l 2.511719,4 -2.511719,4 h -5 l -2.511719,-4 z m 20.25,0 h 5 l 2.5117188,4 -2.5117188,4 h -5 l -2.5117188,-4 z m 20.25,0 h 5 l 2.511719,4 -2.511719,4 h -5 l -2.511719,-4 z"
         id="path11271" />
      <path
         id="path14707"
         d="m -77.804688,-4852.4805 a 1.850185,1.850185 0 0 0 -0.01172,0.018 l -2.511719,4 a 1.850185,1.850185 0 0 0 0,1.9688 l 2.511719,4 a 1.850185,1.850185 0 0 0 0.486328,0.5156 1.850185,1.850185 0 0 0 -0.486328,0.5156 l -2.511719,4 a 1.850185,1.850185 0 0 0 0,1.9688 l 1.892578,3.0136 H -76.25 l -2.511719,-4 2.511719,-4 h 5 l 2.511719,4 -2.511719,4 h 2.185547 l 1.892578,-3.0136 a 1.850185,1.850185 0 0 0 0.271484,-0.8047 1.850185,1.850185 0 0 0 0.775391,0.1699 h 5 a 1.850185,1.850185 0 0 0 0.775391,-0.1699 1.850185,1.850185 0 0 0 0.271484,0.8066 l 1.890625,3.0117 H -56 l -2.511719,-4 2.511719,-4 h 5 l 2.511719,4 -2.511719,4 h 2.1875 l 1.890625,-3.0117 a 1.850185,1.850185 0 0 0 0.271484,-0.8047 1.850185,1.850185 0 0 0 0.775391,0.1699 h 5 a 1.850185,1.850185 0 0 0 0.775391,-0.1699 1.850185,1.850185 0 0 0 0.271484,0.8067 l 1.890625,3.0097 h 2.1875 l -2.511719,-4 2.511719,-4 h 5 l 2.511719,4 -2.511719,4 h 2.1875 l 1.890625,-3.0097 a 1.850185,1.850185 0 0 0 0.271484,-0.8047 1.850185,1.850185 0 0 0 0.775391,0.1699 h 5 a 1.850185,1.850185 0 0 0 0.775391,-0.1699 1.850185,1.850185 0 0 0 0.271484,0.8066 l 1.888672,3.0078 H -15.5 l -2.511719,-4 2.511719,-4 h 5 l 2.5117188,4 -2.5117188,4 h 2.1894531 l 1.8886719,-3.0078 a 1.850185,1.850185 0 0 0 0.2714844,-0.8047 1.850185,1.850185 0 0 0 0.7753906,0.17 h 5 a 1.850185,1.850185 0 0 0 0.77539062,-0.17 1.850185,1.850185 0 0 0 0.27148438,0.8067 l 1.8867188,3.0058 H 4.75 l -2.5117188,-4 2.5117188,-4 h 5 l 2.511719,4 -2.511719,4 h 2.191406 l 1.886719,-3.0058 a 1.850185,1.850185 0 0 0 0.271484,-0.8047 1.850185,1.850185 0 0 0 0.775391,0.1699 h 5 a 1.850185,1.850185 0 0 0 0.775391,-0.1699 1.850185,1.850185 0 0 0 0.271484,0.8066 l 1.886719,3.0039 H 25 l -2.511719,-4 2.511719,-4 h 5 l 2.511719,4 -2.511719,4 h 2.191406 l 1.886719,-3.0039 a 1.850185,1.850185 0 0 0 0,-1.9687 l -2.511719,-4 a 1.850185,1.850185 0 0 0 -0.486328,-0.5157 1.850185,1.850185 0 0 0 0.486328,-0.5156 l 2.511719,-4 a 1.850185,1.850185 0 0 0 0,-1.9687 l -2.511719,-4 a 1.850185,1.850185 0 0 0 -0.01953,-0.027 h -9.716797 -0.002 l -1.953125,3.5 h -5 l -1.955078,-3.5 H 1.5800781 1.578125 l -1.953125,3.5 h -5 l -1.9550781,-3.5 H -18.671875 l -1.953125,3.5 h -5 l -1.955078,-3.5 h -11.341797 l -1.953125,3.5 h -5 l -1.955078,-3.5 h -11.341797 l -1.953125,3.5 h -5 l -1.955078,-3.5 z m 1.554688,1 h 5 l 2.511719,4 -2.511719,4 h -5 l -2.511719,-4 z m 20.25,0 h 5 l 2.511719,4 -2.511719,4 h -5 l -2.511719,-4 z m 20.25,0 h 5 l 2.511719,4 -2.511719,4 h -5 l -2.511719,-4 z m 20.25,0 h 5 l 2.5117188,4 -2.5117188,4 h -5 l -2.511719,-4 z m 20.25,0 h 5 l 2.511719,4 -2.511719,4 h -5 l -2.5117188,-4 z m 20.25,0 h 5 l 2.511719,4 -2.511719,4 h -5 l -2.511719,-4 z m -22.9238281,0.7813 -0.044922,0.068 H 1.5800781 a 1.850185,1.850185 0 0 0 0.4960938,-0.068 z m 20.2500001,0 -0.04492,0.068 H 21.83008 a 1.850185,1.850185 0 0 0 0.496094,-0.068 z m -88.451172,4.7187 h 5 l 2.511719,4 -2.511719,4 h -5 l -2.511719,-4 z m 20.25,0 h 5 l 2.511719,4 -2.511719,4 h -5 l -2.511719,-4 z m 20.25,0 h 5 l 2.511719,4 -2.511719,4 h -5 l -2.511719,-4 z m 20.25,0 h 5 l 2.5117188,4 -2.5117188,4 h -5 l -2.5117188,-4 z m 20.25,0 h 5 l 2.511719,4 -2.511719,4 h -5 l -2.511719,-4 z"
         style="opacity:1;fill:#9cbcf0;fill-opacity:1;fill-rule:nonzero;stroke:none;stroke-width:79.99993896;stroke-linecap:butt;stroke-linejoin:round;stroke-miterlimit:4;stroke-dasharray:none;stroke-dashoffset:0;stroke-opacity:1;paint-order:markers stroke fill"
         inkscape:connector-curvature="0"
         transform="scale(0.26458333)" />
    </g>
  </g>
</svg>
