<?xml version="1.0" ?><!-- Created with Inkscape (http://www.inkscape.org/) --><svg xmlns:dc="http://purl.org/dc/elements/1.1/" xmlns:cc="http://creativecommons.org/ns#" xmlns:rdf="http://www.w3.org/1999/02/22-rdf-syntax-ns#" xmlns:svg="http://www.w3.org/2000/svg" xmlns="http://www.w3.org/2000/svg" xmlns:sodipodi="http://sodipodi.sourceforge.net/DTD/sodipodi-0.dtd" xmlns:inkscape="http://www.inkscape.org/namespaces/inkscape" width="1.8520902mm" height="1.0980208mm" viewBox="0 0 1.8520902 1.0980208" version="1.1" id="svg12962" inkscape:version="0.92.4 (5da689c313, 2019-01-14)" sodipodi:docname="goal_red_2.svg">
  <defs id="defs12956"/>
  <sodipodi:namedview id="base" pagecolor="#ffffff" bordercolor="#666666" borderopacity="1.0" inkscape:pageopacity="0.0" inkscape:pageshadow="2" inkscape:zoom="89.6" inkscape:cx="5.3126188" inkscape:cy="1.8499646" inkscape:document-units="mm" inkscape:current-layer="layer1" showgrid="false" inkscape:window-width="1920" inkscape:window-height="1057" inkscape:window-x="-8" inkscape:window-y="-8" inkscape:window-maximized="1"/>
  <metadata id="metadata12959">
    <rdf:RDF>
      <cc:Work rdf:about="">
        <dc:format>image/svg+xml</dc:format>
        <dc:type rdf:resource="http://purl.org/dc/dcmitype/StillImage"/>
        <dc:title/>
      </cc:Work>
    </rdf:RDF>
  </metadata>
  <g inkscape:label="Layer 1" inkscape:groupmode="layer" id="layer1" transform="translate(221.81749,-111.24096)">
    <g transform="matrix(0.04999971,0,0,0.04999971,-220.54749,174.94538)" id="g11678" style="stroke-width:20.00011635">
      <rect ry="0.79394531" y="-1259.5439" x="-24.870834" height="7.4086227" width="35.983334" id="rect11666" style="opacity:1;fill:#000000;fill-opacity:0.18000004;fill-rule:nonzero;stroke:none;stroke-width:1.58750951;stroke-linecap:butt;stroke-linejoin:round;stroke-miterlimit:4;stroke-dasharray:none;stroke-dashoffset:0;stroke-opacity:1;paint-order:markers stroke fill"/>
      <path inkscape:connector-curvature="0" id="rect10773" transform="scale(0.26458333)" d="m -84,-4803.4805 2.990234,4.0215 -0.640625,-1.0195 1.886719,-3.002 z m 10.490234,0 1.884766,3.002 -2.511719,4 h -4.65625 l 8.296875,11.1582 1.482422,-2.6582 h 5 l 1.955078,3.5 h 11.341797 l 1.953125,-3.5 h 5 l 1.955078,3.5 h 11.341797 l 1.953125,-3.5 h 5 l 1.955078,3.5 h 11.341797 l 1.9531251,-3.5 h 5 l 1.9550781,3.5 H 10.033203 l 1.953125,-3.5 h 5 l 1.496094,2.6777 8.310547,-11.1777 h -4.679688 l -2.513672,-4 1.886719,-3.002 H 7.4902344 l 1.8847656,3.002 -2.5117188,4 h -5 l -2.51367182,-4 1.88671872,-3.002 H -12.759766 l 1.884766,3.002 -2.511719,4 h -5 l -2.513672,-4 1.886719,-3.002 h -13.996094 l 1.884766,3.002 -2.511719,4 h -5 l -2.513672,-4 1.886719,-3.002 h -13.996094 l 1.884766,3.002 -2.511719,4 h -5 l -2.513672,-4 1.886719,-3.002 z m 101.25,0 1.884766,3.002 -0.775391,1.2344 3.0625,-4.1172 v -0.1192 z m -96.751953,4.502 h 5 l 2.511719,4 -2.511719,4 h -5 l -2.513672,-4 z m 20.25,0 h 5 l 2.511719,4 -2.511719,4 h -5 l -2.513672,-4 z m 20.25,0 h 5 l 2.511719,4 -2.511719,4 h -5 l -2.513672,-4 z m 20.2500002,0 h 5 l 2.5117188,4 -2.5117188,4 h -5 l -2.5136722,-4 z m 20.2499998,0 h 5 l 2.511719,4 -2.511719,4 h -5 l -2.5136716,-4 z m -70.875,5.5 h 5 l 2.511719,4 -2.511719,4 h -5 l -2.513672,-4 z m 20.25,0 h 5 l 2.511719,4 -2.511719,4 h -5 l -2.513672,-4 z m 20.25,0 h 5 l 2.511719,4 -2.511719,4 h -5 l -2.513672,-4 z m 20.2500002,0 h 5 l 2.5117188,4 -2.5117188,4 h -5 l -2.51367182,-4 z M -82,-4791.9805 l 0.8125,7.502 h 3.054688 l -0.191407,-1.7559 1.125,1.7559 z m 112,0 -3.677734,5.7461 -0.189454,1.7559 H 29.1875 Z" style="opacity:1;fill:#9cbcf0;fill-opacity:1;fill-rule:nonzero;stroke:none;stroke-width:80.00045776;stroke-linecap:butt;stroke-linejoin:round;stroke-miterlimit:4;stroke-dasharray:none;stroke-dashoffset:0;stroke-opacity:1;paint-order:markers stroke fill"/>
      <path inkscape:connector-curvature="0" id="rect10617" transform="scale(0.26458333)" d="m -62.058594,-4784.4805 -1.953125,3.5 h -5 l -0.308593,-0.5527 0.214843,2.9512 0.09375,-0.1485 h 5 l 2.511719,4 -2.511719,4 h -4.519531 l 0.166016,2.25 h 4.353515 l 2.511719,4 -0.628906,1 h 11.482422 l -0.628907,-1 2.513672,-4 h 5 l 2.511719,4 -0.628906,1 h 11.482422 l -0.628907,-1 2.513672,-4 h 5 l 2.511719,4 -0.628906,1 h 11.482422 l -0.628907,-1 2.5136722,-4 h 5 l 2.5117188,4 -0.6289062,1 H 10.101562 l -0.6269526,-1 2.5117186,-4 h 4.378906 l 0.166016,-2.25 h -4.542969 l -2.5136716,-4 2.5136716,-4 h 5 l 0.115235,0.1817 0.220703,-3.0352 -0.335938,0.6035 h -5.001953 l -1.953125,-3.5 H -1.3085938 l -1.953125,3.5 h -5 l -1.9550782,-3.5 h -11.341797 l -1.953125,3.5 h -5 l -1.955078,-3.5 z m 11.341797,0 h 8.908203 l -1.953125,3.5 h -5 z m -9.566406,1.998 h 7.791015 l 1.117188,1.8457 -2.513672,4.1543 h -5 l -2.511719,-4.1543 z m 20.25,0 h 7.791015 l 1.117188,1.8457 -2.513672,4.1543 h -5 l -2.511719,-4.1543 z m 20.25,0 h 7.791015 l 1.117188,1.8457 -2.511719,4.1543 h -5 l -2.513672,-4.1543 z m 20.24999988,0 H 8.2578125 l 1.1171875,1.8457 -2.5117188,4.1543 h -5 l -2.51367182,-4.1543 z m -49.23046888,3.75 h 5 l 2.513672,4 -2.513672,4 h -5 l -2.511719,-4 z m 20.251953,0 h 5 l 2.511719,4 -2.511719,4 h -5 l -2.513672,-4 z m 20.2500002,0 h 5 l 2.5117188,4 -2.5117188,4 h -5 l -2.5136722,-4 z M 25,-4774.0371 l -1.578125,14.5566 H 25 Z m -83.886719,0.4316 h 5 l 2.511719,4 -2.511719,4 h -5 l -2.513672,-4 z m 20.25,0.125 h 5 l 2.511719,4 -2.511719,4 h -5 l -2.513672,-4 z m 20.25,0 h 5 l 2.511719,4 -2.511719,4 h -5 l -2.513672,-4 z m 20.2480471,0 h 5 l 2.5136719,4 -2.5136719,4 h -5 l -2.51171872,-4 z" style="opacity:1;fill:#c4e4ff;fill-opacity:1;fill-rule:nonzero;stroke:none;stroke-width:80.00045776;stroke-linecap:butt;stroke-linejoin:round;stroke-miterlimit:4;stroke-dasharray:none;stroke-dashoffset:0;stroke-opacity:1;paint-order:markers stroke fill"/>
      <path inkscape:connector-curvature="0" id="path10547" transform="scale(0.26458333)" d="m -90.5,-4815.4805 a 2.0002,2.0002 0 0 0 -1.505859,0.6836 l -3.5,4 a 2.0002,2.0002 0 0 0 -0.488282,1.4785 l 6,74 A 2.0002,2.0002 0 0 0 -88,-4733.4805 h 8 a 2.0002,2.0002 0 0 0 1.789062,-1.1054 l 8.947266,-17.8946 h 86.527344 l 8.947266,17.8946 A 2.0002,2.0002 0 0 0 28,-4733.4805 h 8 a 2.0002,2.0002 0 0 0 1.994141,-1.8379 l 6,-74 a 2.0002,2.0002 0 0 0 -0.488282,-1.4785 l -3.5,-4 A 2.0002,2.0002 0 0 0 38.5,-4815.4805 Z m 10.480469,14 H 28.019531 l -12.125,16.3067 a 2.0002,2.0002 0 0 0 -0.388672,1.0468 l -1.365234,18.6465 h -80.28125 l -1.365234,-18.6465 a 2.0002,2.0002 0 0 0 -0.388672,-1.0468 z" style="color:#000000;font-style:normal;font-variant:normal;font-weight:normal;font-stretch:normal;font-size:medium;line-height:normal;font-family:sans-serif;font-variant-ligatures:normal;font-variant-position:normal;font-variant-caps:normal;font-variant-numeric:normal;font-variant-alternates:normal;font-feature-settings:normal;text-indent:0;text-align:start;text-decoration:none;text-decoration-line:none;text-decoration-style:solid;text-decoration-color:#000000;letter-spacing:normal;word-spacing:normal;text-transform:none;writing-mode:lr-tb;direction:ltr;text-orientation:mixed;dominant-baseline:auto;baseline-shift:baseline;text-anchor:start;white-space:normal;shape-padding:0;clip-rule:nonzero;display:inline;overflow:visible;visibility:visible;opacity:1;isolation:auto;mix-blend-mode:normal;color-interpolation:sRGB;color-interpolation-filters:linearRGB;solid-color:#000000;solid-opacity:1;vector-effect:none;fill:#902020;fill-opacity:1;fill-rule:nonzero;stroke:none;stroke-width:80.00045776;stroke-linecap:butt;stroke-linejoin:round;stroke-miterlimit:4;stroke-dasharray:none;stroke-dashoffset:0;stroke-opacity:1;paint-order:markers stroke fill;color-rendering:auto;image-rendering:auto;shape-rendering:auto;text-rendering:auto;enable-background:accumulate"/>
      <path inkscape:connector-curvature="0" transform="scale(0.26458333)" id="path10404" d="m -90.5,-4813.4805 -3.5,4 6,74 h 8 l 9.5,-19 h 89 l 9.5,19 h 8 l 6,-74 -3.5,-4 z m 6.5,10 H 32 l -14.5,19.5 -1.5,20.5 h -84 l -1.5,-20.5 z m 2,11.5 8,12.5 -4.324219,-6.7539 3.238281,29.8535 -2.414062,5.9004 z m 112,0 -4.5,41.5 -2.414062,-5.9004 3.236328,-29.8535 z" style="fill:#b82434;fill-opacity:1;stroke:none;stroke-width:80.00046539;stroke-linecap:butt;stroke-linejoin:round;stroke-miterlimit:4;stroke-dasharray:none;stroke-opacity:1;paint-order:markers stroke fill"/>
      <path inkscape:connector-curvature="0" transform="scale(0.26458333)" id="path10406" d="m -90.5,-4813.4805 -3.5,4 H 42 l -3.5,-4 z m 22.5,50 -4.5,4 h 93 l -4.5,-4 z" style="fill:#e85064;fill-opacity:1;stroke:none;stroke-width:20.00011444px;stroke-linecap:butt;stroke-linejoin:miter;stroke-opacity:1"/>
      <path inkscape:connector-curvature="0" transform="scale(0.26458333)" id="path10408" d="m -86,-4803.4805 6,68 9.5,-19 H -72 l -0.5,-5 4.5,-4 -1.5,-20.5 -14.5,-19.5 z m 118,0 -14.5,19.5 -1.5,20.5 4.5,4 -0.5,5 h -1.5 l 9.5,19 6,-68 z m -114,11.5 8,12.5 1,18 -2.085938,5.0996 -2.414062,5.9004 z m 112,0 -4.5,41.5 -4.5,-11 1,-18 z" style="fill:#c83044;fill-opacity:1;stroke:none;stroke-width:20.00011444px;stroke-linecap:butt;stroke-linejoin:miter;stroke-opacity:1"/>
    </g>
  </g>
</svg>