<?xml version="1.0" encoding="UTF-8" standalone="no"?>
<svg
   xmlns:dc="http://purl.org/dc/elements/1.1/"
   xmlns:cc="http://creativecommons.org/ns#"
   xmlns:rdf="http://www.w3.org/1999/02/22-rdf-syntax-ns#"
   xmlns:svg="http://www.w3.org/2000/svg"
   xmlns="http://www.w3.org/2000/svg"
   xmlns:xlink="http://www.w3.org/1999/xlink"
   xmlns:sodipodi="http://sodipodi.sourceforge.net/DTD/sodipodi-0.dtd"
   xmlns:inkscape="http://www.inkscape.org/namespaces/inkscape"
   width="1.7616143mm"
   height="0.93488252mm"
   viewBox="0 0 1.7616143 0.93488252"
   version="1.1"
   id="svg26477"
   inkscape:version="1.0 (4035a4fb49, 2020-05-01)"
   sodipodi:docname="goal_blue.svg">
  <defs
     id="defs26471">
    <linearGradient
       inkscape:collect="always"
       xlink:href="#linearGradient18023"
       id="linearGradient24592"
       gradientUnits="userSpaceOnUse"
       gradientTransform="matrix(0.26458333,0,0,0.26458333,1205.2289,-886.20868)"
       x1="-6405.7559"
       y1="-4222.2559"
       x2="-6401.54"
       y2="-4222.2559" />
    <linearGradient
       id="linearGradient18023"
       inkscape:collect="always">
      <stop
         id="stop18019"
         offset="0"
         style="stop-color:#b66739;stop-opacity:1" />
      <stop
         id="stop18021"
         offset="1"
         style="stop-color:#d77c49;stop-opacity:1" />
    </linearGradient>
    <linearGradient
       inkscape:collect="always"
       xlink:href="#linearGradient18023"
       id="linearGradient24594"
       gradientUnits="userSpaceOnUse"
       gradientTransform="matrix(-0.26458333,0,0,0.26458333,-2182.2522,-886.20868)"
       x1="-6405.7559"
       y1="-4222.2559"
       x2="-6401.54"
       y2="-4222.2559" />
    <radialGradient
       inkscape:collect="always"
       xlink:href="#linearGradient8648"
       id="radialGradient24596"
       gradientUnits="userSpaceOnUse"
       gradientTransform="matrix(0.71090411,-5.1471668e-7,4.104043e-7,0.56683243,715.57558,-1383.0395)"
       cx="-1693.7408"
       cy="-1118.7264"
       fx="-1693.7408"
       fy="-1118.7264"
       r="1.115206" />
    <linearGradient
       inkscape:collect="always"
       id="linearGradient8648">
      <stop
         style="stop-color:#e39c78;stop-opacity:1"
         offset="0"
         id="stop8644" />
      <stop
         style="stop-color:#f1ab89;stop-opacity:1"
         offset="1"
         id="stop8646" />
    </linearGradient>
    <radialGradient
       inkscape:collect="always"
       xlink:href="#linearGradient17992"
       id="radialGradient24598"
       gradientUnits="userSpaceOnUse"
       gradientTransform="matrix(0.41208102,-2.1428335e-6,1.3548651e-6,0.26054952,218.31382,-33.089432)"
       cx="-1715.205"
       cy="-7584.1343"
       fx="-1715.205"
       fy="-7584.1343"
       r="5.8652501" />
    <linearGradient
       id="linearGradient17992"
       inkscape:collect="always">
      <stop
         id="stop17986"
         offset="0"
         style="stop-color:#e9cebd;stop-opacity:1" />
      <stop
         style="stop-color:#e9cebd;stop-opacity:1"
         offset="0.39590412"
         id="stop17988" />
      <stop
         id="stop17990"
         offset="1"
         style="stop-color:#93694b;stop-opacity:1" />
    </linearGradient>
    <radialGradient
       inkscape:collect="always"
       xlink:href="#linearGradient17992"
       id="radialGradient24600"
       gradientUnits="userSpaceOnUse"
       gradientTransform="matrix(0.41208102,-2.1428335e-6,1.3548651e-6,0.26054952,218.31382,-38.685799)"
       cx="-1715.205"
       cy="-7584.1343"
       fx="-1715.205"
       fy="-7584.1343"
       r="5.8652501" />
    <radialGradient
       inkscape:collect="always"
       xlink:href="#linearGradient8648"
       id="radialGradient24606"
       gradientUnits="userSpaceOnUse"
       gradientTransform="matrix(0.71090411,-5.1471668e-7,4.104043e-7,0.56683243,715.57558,-1383.0395)"
       cx="-1693.7408"
       cy="-1118.7264"
       fx="-1693.7408"
       fy="-1118.7264"
       r="1.115206" />
    <radialGradient
       inkscape:collect="always"
       xlink:href="#linearGradient17992"
       id="radialGradient24608"
       gradientUnits="userSpaceOnUse"
       gradientTransform="matrix(0.41208102,-2.1428335e-6,1.3548651e-6,0.26054952,218.31382,-33.089432)"
       cx="-1715.205"
       cy="-7584.1343"
       fx="-1715.205"
       fy="-7584.1343"
       r="5.8652501" />
    <radialGradient
       inkscape:collect="always"
       xlink:href="#linearGradient17992"
       id="radialGradient24610"
       gradientUnits="userSpaceOnUse"
       gradientTransform="matrix(0.41208102,-2.1428335e-6,1.3548651e-6,0.26054952,218.31382,-38.685799)"
       cx="-1715.205"
       cy="-7584.1343"
       fx="-1715.205"
       fy="-7584.1343"
       r="5.8652501" />
    <linearGradient
       inkscape:collect="always"
       xlink:href="#linearGradient18023"
       id="linearGradient27152"
       gradientUnits="userSpaceOnUse"
       gradientTransform="matrix(0.26458333,0,0,0.26458333,1205.2289,-886.20868)"
       x1="-6405.7559"
       y1="-4222.2559"
       x2="-6401.54"
       y2="-4222.2559" />
    <linearGradient
       inkscape:collect="always"
       xlink:href="#linearGradient18023"
       id="linearGradient27154"
       gradientUnits="userSpaceOnUse"
       gradientTransform="matrix(-0.26458333,0,0,0.26458333,-2182.2522,-886.20868)"
       x1="-6405.7559"
       y1="-4222.2559"
       x2="-6401.54"
       y2="-4222.2559" />
  </defs>
  <sodipodi:namedview
     id="base"
     pagecolor="#ffffff"
     bordercolor="#666666"
     borderopacity="1.0"
     inkscape:pageopacity="0.0"
     inkscape:pageshadow="2"
     inkscape:zoom="126.71353"
     inkscape:cx="4.2892196"
     inkscape:cy="0.87717685"
     inkscape:document-units="mm"
     inkscape:current-layer="g24590"
     showgrid="false"
     inkscape:window-width="1920"
     inkscape:window-height="1057"
     inkscape:window-x="-8"
     inkscape:window-y="-8"
     inkscape:window-maximized="1"
     inkscape:document-rotation="0" />
  <metadata
     id="metadata26474">
    <rdf:RDF>
      <cc:Work
         rdf:about="">
        <dc:format>image/svg+xml</dc:format>
        <dc:type
           rdf:resource="http://purl.org/dc/dcmitype/StillImage" />
        <dc:title />
      </cc:Work>
    </rdf:RDF>
  </metadata>
  <g
     inkscape:label="Layer 1"
     inkscape:groupmode="layer"
     id="layer1"
     transform="translate(110.48469,-97.79904)">
    <g
       id="g24590"
       transform="matrix(0.04858641,0,0,0.04858641,-74.896432,113.56647)">
      <rect
         ry="1.2832495"
         y="-310.69351"
         x="696.50525"
         height="4.2746782"
         width="3.0319664"
         id="rect24528"
         style="opacity:1;fill:#000000;fill-opacity:0.18000001;fill-rule:nonzero;stroke:none;stroke-width:3.81455731;stroke-linecap:round;stroke-linejoin:round;stroke-miterlimit:4;stroke-dasharray:none;stroke-dashoffset:0;stroke-opacity:1;paint-order:markers stroke fill;filter:url(#filter1957)"
         transform="scale(-1,1)" />
      <rect
         style="opacity:1;fill:#000000;fill-opacity:0.18000001;fill-rule:nonzero;stroke:none;stroke-width:3.81455731;stroke-linecap:round;stroke-linejoin:round;stroke-miterlimit:4;stroke-dasharray:none;stroke-dashoffset:0;stroke-opacity:1;paint-order:markers stroke fill;filter:url(#filter1957)"
         id="rect24530"
         width="3.0319664"
         height="4.2746782"
         x="-732.18451"
         y="-310.69351"
         ry="1.2832495" />
      <g
         id="g24562"
         transform="matrix(0.9408679,0,0,0.9408679,-271.04355,1574.579)">
        <path
           inkscape:connector-curvature="0"
           style="fill:#e9cebd;fill-opacity:1;stroke:#6f3a13;stroke-width:0.99000001;stroke-linecap:butt;stroke-linejoin:round;stroke-miterlimit:4;stroke-dasharray:none;stroke-opacity:1;paint-order:markers stroke fill"
           d="m -489.62753,-2009.6998 c -0.25098,0.1797 -0.30764,0.4025 -0.30764,0.5157 v 0.156 0.4872 5e-4 0.1555 c 0,0.2076 0.18551,0.7843 1.42346,0.7859 1.23793,0 1.42344,-0.5783 1.42344,-0.7859 v -0.1555 -5e-4 -0.4872 -0.156 c 0,-0.1132 -0.0567,-0.3361 -0.30764,-0.5157 v 0.5157 c 0,0.1305 -0.19602,0.5318 -1.1158,0.5318 -0.91978,0 -1.11582,-0.4013 -1.11582,-0.5318 z"
           id="path24540" />
        <path
           id="path24542"
           d="m -489.62753,-2015.2961 c -0.25098,0.1797 -0.30764,0.4025 -0.30764,0.5157 v 0.156 0.4872 5e-4 0.1555 c 0,0.2076 0.18551,0.7843 1.42346,0.7859 1.23793,0 1.42344,-0.5783 1.42344,-0.7859 v -0.1555 -5e-4 -0.4872 -0.156 c 0,-0.1132 -0.0567,-0.3361 -0.30764,-0.5157 v 0.5157 c 0,0.1305 -0.19602,0.5318 -1.1158,0.5318 -0.91978,0 -1.11582,-0.4013 -1.11582,-0.5318 z"
           style="fill:#e9cebd;fill-opacity:1;stroke:#6f3a13;stroke-width:0.99000001;stroke-linecap:butt;stroke-linejoin:round;stroke-miterlimit:4;stroke-dasharray:none;stroke-opacity:1;paint-order:markers stroke fill"
           inkscape:connector-curvature="0" />
        <rect
           ry="0.77548683"
           y="-2017.9631"
           x="-489.62729"
           height="17.185303"
           width="2.2311707"
           id="rect24544"
           style="opacity:1;fill:#6f3a13;fill-opacity:1;fill-rule:nonzero;stroke:#6f3a13;stroke-width:0.99000001;stroke-linecap:round;stroke-linejoin:round;stroke-miterlimit:4;stroke-dasharray:none;stroke-dashoffset:0;stroke-opacity:1;paint-order:markers stroke fill;filter:url(#filter1957)" />
        <path
           sodipodi:nodetypes="ccscsccsscsscccsccc"
           style="opacity:1;fill:#d77c49;fill-opacity:1;fill-rule:nonzero;stroke:#6f3a13;stroke-width:0.50999999;stroke-linecap:round;stroke-linejoin:round;stroke-miterlimit:4;stroke-dasharray:none;stroke-dashoffset:0;stroke-opacity:1;paint-order:markers stroke fill"
           clip-path="none"
           d="m -488.51103,-2017.9632 h -0.34107 -0.014 c -0.10189,0 -0.19976,0.022 -0.28837,0.059 -0.2785,0.1174 -0.47334,0.3925 -0.47334,0.7147 v 0.2945 15.0431 0.2945 c 0,0.4297 0.34657,0.7757 0.77618,0.7757 h 0.33951 0.34002 c 0.42971,0 0.77568,-0.346 0.77568,-0.7757 v -0.2945 -15.0431 -0.1472 -0.1473 c 0,-0.3226 -0.19529,-0.5974 -0.4744,-0.7147 -0.093,-0.039 -0.19418,-0.061 -0.30128,-0.061 z"
           id="path24546"
           inkscape:connector-curvature="0" />
        <path
           sodipodi:nodetypes="sscccssccs"
           inkscape:connector-curvature="0"
           style="opacity:1;fill:url(#linearGradient27152);fill-opacity:1;fill-rule:nonzero;stroke:none;stroke-width:0.99000001;stroke-linecap:round;stroke-linejoin:round;stroke-miterlimit:4;stroke-dasharray:none;stroke-dashoffset:0;stroke-opacity:1;paint-order:markers stroke fill"
           d="m -488.85171,-2017.9632 c -0.4296,0 -0.7757,0.3461 -0.7757,0.7757 v 0.1473 0.1472 15.0449 0.2946 c 0,0.4296 0.3461,0.7756 0.7757,0.7756 h 0.34 v -17.1853 z"
           id="path24548" />
        <path
           sodipodi:nodetypes="sscccssccs"
           id="path24550"
           d="m -488.17161,-2017.9632 c 0.4296,0 0.7757,0.3461 0.7757,0.7757 v 0.1473 0.1472 15.0449 0.2946 c 0,0.4296 -0.3461,0.7756 -0.7757,0.7756 h -0.34 v -17.1853 z"
           style="opacity:1;fill:url(#linearGradient27154);fill-opacity:1;fill-rule:nonzero;stroke:none;stroke-width:0.99000001;stroke-linecap:round;stroke-linejoin:round;stroke-miterlimit:4;stroke-dasharray:none;stroke-dashoffset:0;stroke-opacity:1;paint-order:markers stroke fill"
           inkscape:connector-curvature="0" />
        <rect
           ry="0.77548683"
           y="-2017.9631"
           x="-489.62741"
           height="1.8456259"
           width="2.2304688"
           id="rect24552"
           style="opacity:1;fill:url(#radialGradient24596);fill-opacity:1;fill-rule:nonzero;stroke:none;stroke-width:0.99000001;stroke-linecap:round;stroke-linejoin:round;stroke-miterlimit:4;stroke-dasharray:none;stroke-dashoffset:0;stroke-opacity:1;paint-order:markers stroke fill" />
        <path
           inkscape:connector-curvature="0"
           id="path24554"
           d="m -489.93506,-2008.6885 v 0.1557 0.4877 0.1557 c 0,0.2077 0.1854,0.7844 1.42335,0.7859 1.23794,0 1.42332,-0.5782 1.42332,-0.7859 v -0.1557 -0.4877 -0.1557 c 0,0.1306 -0.24991,0.5315 -1.42332,0.5315 -1.1734,0 -1.42335,-0.4009 -1.42335,-0.5315 z"
           style="fill:#6f3a13;fill-opacity:1;stroke:none;stroke-width:0.25801972px;stroke-linecap:butt;stroke-linejoin:miter;stroke-opacity:1" />
        <path
           id="path24556"
           d="m -489.62753,-2009.6998 c -0.25098,0.1797 -0.30764,0.4025 -0.30764,0.5157 v 0.156 0.4872 5e-4 0.1555 c 0,0.2076 0.18551,0.7843 1.42346,0.7859 1.23793,0 1.42344,-0.5783 1.42344,-0.7859 v -0.1555 -5e-4 -0.4872 -0.156 c 0,-0.1132 -0.0567,-0.3361 -0.30764,-0.5157 v 0.5157 c 0,0.1305 -0.19602,0.5318 -1.1158,0.5318 -0.91978,0 -1.11582,-0.4013 -1.11582,-0.5318 z"
           style="fill:url(#radialGradient24598);fill-opacity:1;stroke:none;stroke-width:0.25801972px;stroke-linecap:butt;stroke-linejoin:miter;stroke-opacity:1"
           inkscape:connector-curvature="0" />
        <path
           style="fill:#6f3a13;fill-opacity:1;stroke:none;stroke-width:0.25801972px;stroke-linecap:butt;stroke-linejoin:miter;stroke-opacity:1"
           d="m -489.93506,-2014.2848 v 0.1557 0.4877 0.1557 c 0,0.2077 0.1854,0.7844 1.42335,0.7859 1.23794,0 1.42332,-0.5782 1.42332,-0.7859 v -0.1557 -0.4877 -0.1557 c 0,0.1306 -0.24991,0.5315 -1.42332,0.5315 -1.1734,0 -1.42335,-0.4009 -1.42335,-0.5315 z"
           id="path24558"
           inkscape:connector-curvature="0" />
        <path
           inkscape:connector-curvature="0"
           style="fill:url(#radialGradient24600);fill-opacity:1;stroke:none;stroke-width:0.25801972px;stroke-linecap:butt;stroke-linejoin:miter;stroke-opacity:1"
           d="m -489.62753,-2015.2961 c -0.25098,0.1797 -0.30764,0.4025 -0.30764,0.5157 v 0.156 0.4872 5e-4 0.1555 c 0,0.2076 0.18551,0.7843 1.42346,0.7859 1.23793,0 1.42344,-0.5783 1.42344,-0.7859 v -0.1555 -5e-4 -0.4872 -0.156 c 0,-0.1132 -0.0567,-0.3361 -0.30764,-0.5157 v 0.5157 c 0,0.1305 -0.19602,0.5318 -1.1158,0.5318 -0.91978,0 -1.11582,-0.4013 -1.11582,-0.5318 z"
           id="path24560" />
      </g>
      <g
         transform="matrix(0.9408679,0,0,0.9408679,-238.39622,1574.579)"
         id="g24586">
        <path
           id="path24564"
           d="m -489.62753,-2009.6998 c -0.25098,0.1797 -0.30764,0.4025 -0.30764,0.5157 v 0.156 0.4872 5e-4 0.1555 c 0,0.2076 0.18551,0.7843 1.42346,0.7859 1.23793,0 1.42344,-0.5783 1.42344,-0.7859 v -0.1555 -5e-4 -0.4872 -0.156 c 0,-0.1132 -0.0567,-0.3361 -0.30764,-0.5157 v 0.5157 c 0,0.1305 -0.19602,0.5318 -1.1158,0.5318 -0.91978,0 -1.11582,-0.4013 -1.11582,-0.5318 z"
           style="fill:#e9cebd;fill-opacity:1;stroke:#6f3a13;stroke-width:0.99000001;stroke-linecap:butt;stroke-linejoin:round;stroke-miterlimit:4;stroke-dasharray:none;stroke-opacity:1;paint-order:markers stroke fill"
           inkscape:connector-curvature="0" />
        <path
           inkscape:connector-curvature="0"
           style="fill:#e9cebd;fill-opacity:1;stroke:#6f3a13;stroke-width:0.99000001;stroke-linecap:butt;stroke-linejoin:round;stroke-miterlimit:4;stroke-dasharray:none;stroke-opacity:1;paint-order:markers stroke fill"
           d="m -489.62753,-2015.2961 c -0.25098,0.1797 -0.30764,0.4025 -0.30764,0.5157 v 0.156 0.4872 5e-4 0.1555 c 0,0.2076 0.18551,0.7843 1.42346,0.7859 1.23793,0 1.42344,-0.5783 1.42344,-0.7859 v -0.1555 -5e-4 -0.4872 -0.156 c 0,-0.1132 -0.0567,-0.3361 -0.30764,-0.5157 v 0.5157 c 0,0.1305 -0.19602,0.5318 -1.1158,0.5318 -0.91978,0 -1.11582,-0.4013 -1.11582,-0.5318 z"
           id="path24566" />
        <rect
           style="opacity:1;fill:#6f3a13;fill-opacity:1;fill-rule:nonzero;stroke:#6f3a13;stroke-width:0.99000001;stroke-linecap:round;stroke-linejoin:round;stroke-miterlimit:4;stroke-dasharray:none;stroke-dashoffset:0;stroke-opacity:1;paint-order:markers stroke fill;filter:url(#filter1957)"
           id="rect24568"
           width="2.2311707"
           height="17.185303"
           x="-489.62729"
           y="-2017.9631"
           ry="0.77548683" />
        <path
           inkscape:connector-curvature="0"
           id="path24570"
           d="m -488.51103,-2017.9632 h -0.34107 -0.014 c -0.10189,0 -0.19976,0.022 -0.28837,0.059 -0.2785,0.1174 -0.47334,0.3925 -0.47334,0.7147 v 0.2945 15.0431 0.2945 c 0,0.4297 0.34657,0.7757 0.77618,0.7757 h 0.33951 0.34002 c 0.42971,0 0.77568,-0.346 0.77568,-0.7757 v -0.2945 -15.0431 -0.1472 -0.1473 c 0,-0.3226 -0.19529,-0.5974 -0.4744,-0.7147 -0.093,-0.039 -0.19418,-0.061 -0.30128,-0.061 z"
           clip-path="none"
           style="opacity:1;fill:#d77c49;fill-opacity:1;fill-rule:nonzero;stroke:#6f3a13;stroke-width:0.50999999;stroke-linecap:round;stroke-linejoin:round;stroke-miterlimit:4;stroke-dasharray:none;stroke-dashoffset:0;stroke-opacity:1;paint-order:markers stroke fill"
           sodipodi:nodetypes="ccscsccsscsscccsccc" />
        <path
           id="path24572"
           d="m -488.85171,-2017.9632 c -0.4296,0 -0.7757,0.3461 -0.7757,0.7757 v 0.1473 0.1472 15.0449 0.2946 c 0,0.4296 0.3461,0.7756 0.7757,0.7756 h 0.34 v -17.1853 z"
           style="opacity:1;fill:url(#linearGradient24592);fill-opacity:1;fill-rule:nonzero;stroke:none;stroke-width:0.99000001;stroke-linecap:round;stroke-linejoin:round;stroke-miterlimit:4;stroke-dasharray:none;stroke-dashoffset:0;stroke-opacity:1;paint-order:markers stroke fill"
           inkscape:connector-curvature="0"
           sodipodi:nodetypes="sscccssccs" />
        <path
           inkscape:connector-curvature="0"
           style="opacity:1;fill:url(#linearGradient24594);fill-opacity:1;fill-rule:nonzero;stroke:none;stroke-width:0.99000001;stroke-linecap:round;stroke-linejoin:round;stroke-miterlimit:4;stroke-dasharray:none;stroke-dashoffset:0;stroke-opacity:1;paint-order:markers stroke fill"
           d="m -488.17161,-2017.9632 c 0.4296,0 0.7757,0.3461 0.7757,0.7757 v 0.1473 0.1472 15.0449 0.2946 c 0,0.4296 -0.3461,0.7756 -0.7757,0.7756 h -0.34 v -17.1853 z"
           id="path24574"
           sodipodi:nodetypes="sscccssccs" />
        <rect
           style="opacity:1;fill:url(#radialGradient24606);fill-opacity:1;fill-rule:nonzero;stroke:none;stroke-width:0.99000001;stroke-linecap:round;stroke-linejoin:round;stroke-miterlimit:4;stroke-dasharray:none;stroke-dashoffset:0;stroke-opacity:1;paint-order:markers stroke fill"
           id="rect24576"
           width="2.2304688"
           height="1.8456259"
           x="-489.62741"
           y="-2017.9631"
           ry="0.77548683" />
        <path
           style="fill:#6f3a13;fill-opacity:1;stroke:none;stroke-width:0.25801972px;stroke-linecap:butt;stroke-linejoin:miter;stroke-opacity:1"
           d="m -489.93506,-2008.6885 v 0.1557 0.4877 0.1557 c 0,0.2077 0.1854,0.7844 1.42335,0.7859 1.23794,0 1.42332,-0.5782 1.42332,-0.7859 v -0.1557 -0.4877 -0.1557 c 0,0.1306 -0.24991,0.5315 -1.42332,0.5315 -1.1734,0 -1.42335,-0.4009 -1.42335,-0.5315 z"
           id="path24578"
           inkscape:connector-curvature="0" />
        <path
           inkscape:connector-curvature="0"
           style="fill:url(#radialGradient24608);fill-opacity:1;stroke:none;stroke-width:0.25801972px;stroke-linecap:butt;stroke-linejoin:miter;stroke-opacity:1"
           d="m -489.62753,-2009.6998 c -0.25098,0.1797 -0.30764,0.4025 -0.30764,0.5157 v 0.156 0.4872 5e-4 0.1555 c 0,0.2076 0.18551,0.7843 1.42346,0.7859 1.23793,0 1.42344,-0.5783 1.42344,-0.7859 v -0.1555 -5e-4 -0.4872 -0.156 c 0,-0.1132 -0.0567,-0.3361 -0.30764,-0.5157 v 0.5157 c 0,0.1305 -0.19602,0.5318 -1.1158,0.5318 -0.91978,0 -1.11582,-0.4013 -1.11582,-0.5318 z"
           id="path24580" />
        <path
           inkscape:connector-curvature="0"
           id="path24582"
           d="m -489.93506,-2014.2848 v 0.1557 0.4877 0.1557 c 0,0.2077 0.1854,0.7844 1.42335,0.7859 1.23794,0 1.42332,-0.5782 1.42332,-0.7859 v -0.1557 -0.4877 -0.1557 c 0,0.1306 -0.24991,0.5315 -1.42332,0.5315 -1.1734,0 -1.42335,-0.4009 -1.42335,-0.5315 z"
           style="fill:#6f3a13;fill-opacity:1;stroke:none;stroke-width:0.25801972px;stroke-linecap:butt;stroke-linejoin:miter;stroke-opacity:1" />
        <path
           id="path24584"
           d="m -489.62753,-2015.2961 c -0.25098,0.1797 -0.30764,0.4025 -0.30764,0.5157 v 0.156 0.4872 5e-4 0.1555 c 0,0.2076 0.18551,0.7843 1.42346,0.7859 1.23793,0 1.42344,-0.5783 1.42344,-0.7859 v -0.1555 -5e-4 -0.4872 -0.156 c 0,-0.1132 -0.0567,-0.3361 -0.30764,-0.5157 v 0.5157 c 0,0.1305 -0.19602,0.5318 -1.1158,0.5318 -0.91978,0 -1.11582,-0.4013 -1.11582,-0.5318 z"
           style="fill:url(#radialGradient24610);fill-opacity:1;stroke:none;stroke-width:0.25801972px;stroke-linecap:butt;stroke-linejoin:miter;stroke-opacity:1"
           inkscape:connector-curvature="0" />
      </g>
      <g
         transform="matrix(0.95981246,0,0,0.95981246,-262.59145,1644.9935)"
         id="g24538">
        <path
           id="path24532"
           transform="matrix(0.25936105,0,0,0.25936105,-8.8059952,-32.120693)"
           d="m -1843.5508,-7772.9277 0.7227,2.6816 c 1.6763,6.2029 1.6569,11.6106 0,17.7422 l -0.5332,1.9941 2.0332,0.4004 c 0,0 16.4898,3.1934 60.5605,3.1934 44.0707,0 60.5606,-3.1934 60.5606,-3.1934 l 2.0332,-0.4004 -0.543,-1.9941 c -1.657,-6.1316 -1.6763,-11.5393 0,-17.7422 l 0.7227,-2.6816 -2.7637,0.2558 c 0,0 -26.2728,2.4473 -60.0098,2.4473 -33.7369,0 -60.0195,-2.4473 -60.0195,-2.4473 z m 2.5879,2.1777 c 0,0 26.3632,2.4531 60.1934,2.4531 33.8301,0 60.1933,-2.4531 60.1933,-2.4531 -1.7534,6.4883 -1.733,12.3334 0,18.7461 0,0 -16.2149,3.1582 -60.1933,3.1582 -43.9784,0 -60.1934,-3.1582 -60.1934,-3.1582 1.7329,-6.4127 1.7534,-12.2578 0,-18.7461 z"
           style="color:#000000;font-style:normal;font-variant:normal;font-weight:normal;font-stretch:normal;font-size:medium;line-height:normal;font-family:sans-serif;font-variant-ligatures:normal;font-variant-position:normal;font-variant-caps:normal;font-variant-numeric:normal;font-variant-alternates:normal;font-feature-settings:normal;text-indent:0;text-align:start;text-decoration:none;text-decoration-line:none;text-decoration-style:solid;text-decoration-color:#000000;letter-spacing:normal;word-spacing:normal;text-transform:none;writing-mode:lr-tb;direction:ltr;text-orientation:mixed;dominant-baseline:auto;baseline-shift:baseline;text-anchor:start;white-space:normal;shape-padding:0;clip-rule:nonzero;display:inline;overflow:visible;visibility:visible;opacity:1;isolation:auto;mix-blend-mode:normal;color-interpolation:sRGB;color-interpolation-filters:linearRGB;solid-color:#000000;solid-opacity:1;vector-effect:none;fill:#1226d5;fill-opacity:1;fill-rule:nonzero;stroke:none;stroke-width:3.85562921;stroke-linecap:butt;stroke-linejoin:miter;stroke-miterlimit:4;stroke-dasharray:none;stroke-dashoffset:0;stroke-opacity:1;paint-order:markers stroke fill;color-rendering:auto;image-rendering:auto;shape-rendering:auto;text-rendering:auto;enable-background:accumulate"
           inkscape:connector-curvature="0" />
        <path
           style="opacity:1;fill:#3d66ff;fill-opacity:0.85882353;stroke:none;stroke-width:1;stroke-linecap:butt;stroke-linejoin:miter;stroke-miterlimit:4;stroke-dasharray:none;stroke-opacity:1;paint-order:markers stroke fill"
           d="m -486.2801,-2047.5505 c 0.45476,1.6828 0.44945,3.1986 0,4.8618 0,0 4.20552,0.8195 15.6118,0.8195 11.40628,0 15.61176,-0.8195 15.61176,-0.8195 -0.44947,-1.6632 -0.45476,-3.179 0,-4.8618 0,0 -6.83754,0.6362 -15.61176,0.6362 -8.77422,0 -15.6118,-0.6362 -15.6118,-0.6362 z"
           id="path24534"
           inkscape:connector-curvature="0"
           sodipodi:nodetypes="ccsccsc" />
        <path
           style="opacity:1;fill:#212bff;fill-opacity:0.66666667;stroke:none;stroke-width:0.26458332px;stroke-linecap:butt;stroke-linejoin:miter;stroke-opacity:1"
           d="m -484.38737,-2046.0792 c 0,0 10.59365,2.573 13.71907,2.573 3.12542,0 13.71957,-2.573 13.71957,-2.573 0,0 -8.43142,0.5705 -13.71957,0.5705 -5.28815,0 -13.71907,-0.5705 -13.71907,-0.5705 z"
           id="path24536"
           inkscape:connector-curvature="0"
           sodipodi:nodetypes="czczc" />
      </g>
    </g>
  </g>
</svg>
