<?xml version="1.0" ?><!-- Created with Inkscape (http://www.inkscape.org/) --><svg xmlns:dc="http://purl.org/dc/elements/1.1/" xmlns:cc="http://creativecommons.org/ns#" xmlns:rdf="http://www.w3.org/1999/02/22-rdf-syntax-ns#" xmlns:svg="http://www.w3.org/2000/svg" xmlns="http://www.w3.org/2000/svg" xmlns:xlink="http://www.w3.org/1999/xlink" xmlns:sodipodi="http://sodipodi.sourceforge.net/DTD/sodipodi-0.dtd" xmlns:inkscape="http://www.inkscape.org/namespaces/inkscape" width="0.26458332mm" height="0.47624901mm" viewBox="0 0 0.26458332 0.47624901" version="1.1" id="svg9367" inkscape:version="0.92.4 (5da689c313, 2019-01-14)" sodipodi:docname="grass_blue_fade.svg">
  <defs id="defs9361">
    <linearGradient inkscape:collect="always" xlink:href="#linearGradient7388" id="linearGradient7912" gradientUnits="userSpaceOnUse" gradientTransform="matrix(0.95552222,0,0,0.95535952,2061.3016,-123.46236)" x1="-1694.2626" y1="-1057.3402" x2="-1694.2626" y2="-1055.1088"/>
    <linearGradient inkscape:collect="always" id="linearGradient7388">
      <stop style="stop-color:#147cac;stop-opacity:1" offset="0" id="stop7384"/>
      <stop style="stop-color:#034e79;stop-opacity:1" offset="1" id="stop7386"/>
    </linearGradient>
  </defs>
  <sodipodi:namedview id="base" pagecolor="#ffffff" bordercolor="#666666" borderopacity="1.0" inkscape:pageopacity="0.0" inkscape:pageshadow="2" inkscape:zoom="253.42707" inkscape:cx="1.2091957" inkscape:cy="1.0163689" inkscape:document-units="mm" inkscape:current-layer="layer1" showgrid="false" inkscape:window-width="1920" inkscape:window-height="1057" inkscape:window-x="-8" inkscape:window-y="-8" inkscape:window-maximized="1"/>
  <metadata id="metadata9364">
    <rdf:RDF>
      <cc:Work rdf:about="">
        <dc:format>image/svg+xml</dc:format>
        <dc:type rdf:resource="http://purl.org/dc/dcmitype/StillImage"/>
        <dc:title/>
      </cc:Work>
    </rdf:RDF>
  </metadata>
  <g inkscape:label="Layer 1" inkscape:groupmode="layer" id="layer1" transform="translate(-77.685026,-90.435315)">
    <g transform="matrix(0.04999493,0,0,0.04999971,55.611593,147.37999)" id="g6704">
      <rect style="opacity:1;fill:#000000;fill-opacity:0.18000004;fill-rule:nonzero;stroke:none;stroke-width:3.93990159;stroke-linecap:round;stroke-linejoin:round;stroke-miterlimit:4;stroke-dasharray:none;stroke-dashoffset:0;stroke-opacity:1;paint-order:markers stroke fill;filter:url(#filter1957)" id="rect19227-0-4-9" width="5.2921724" height="3.1749845" x="441.51346" y="-1132.55" ry="0.93459511"/>
      <path style="opacity:1;fill:#14b4dc;fill-opacity:1;fill-rule:nonzero;stroke:none;stroke-width:4.0483942;stroke-linecap:round;stroke-linejoin:round;stroke-miterlimit:4;stroke-dasharray:none;stroke-dashoffset:0;stroke-opacity:1;paint-order:markers stroke fill" d="m 442.39606,-1138.9001 c -0.30137,0 -0.88214,1.5155 -0.88214,1.7139 v 0.011 2.3213 h 5.29168 v -2.3316 c 0,-0.2355 -0.58067,-1.7139 -0.88213,-1.7139 -0.30147,0 -0.88204,1.5155 -0.88204,1.7139 0,-0.2355 -0.58067,-1.7139 -0.88214,-1.7139 -0.30137,0 -0.88167,1.5155 -0.88167,1.7139 0,-0.2355 -0.58067,-1.7139 -0.88204,-1.7139 z" id="path20543-8-6" inkscape:connector-curvature="0" sodipodi:nodetypes="cscccsscsccc"/>
      <path style="opacity:1;fill:#089cc0;fill-opacity:1;fill-rule:nonzero;stroke:none;stroke-width:4.0483942;stroke-linecap:round;stroke-linejoin:round;stroke-miterlimit:4;stroke-dasharray:none;stroke-dashoffset:0;stroke-opacity:1;paint-order:markers stroke fill" d="m 441.51392,-1137.1685 v 3.7327 0 0.3948 h 5.29168 v -2.2201 -1.9074 c -0.30137,0 -0.88156,1.7089 -0.88156,1.9074 v 0 c 0,-0.2356 -0.58029,-1.9074 -0.88156,-1.9074 -0.30147,0 -0.88214,1.7089 -0.88214,1.9074 0,-0.2356 -0.58076,-1.9074 -0.88214,-1.9074 -0.30138,0 -0.88214,1.7089 -0.88214,1.9074 0,-0.2355 -0.58076,-1.9074 -0.88214,-1.9074 z" id="path20553-0-1" inkscape:connector-curvature="0" sodipodi:nodetypes="cccccccccscscc"/>
      <path inkscape:connector-curvature="0" id="path20567-6-3" d="m 442.39606,-1135.3472 c -0.30137,0 -0.88214,1.4284 -0.88214,1.6268 v 0.01 2.4825 h 5.29168 v -2.4929 c 0,-0.2356 -0.58067,-1.6267 -0.88213,-1.6267 -0.30138,0 -0.88204,1.4283 -0.88204,1.6267 0,-0.2356 -0.58029,-1.6267 -0.88166,-1.6267 -0.30137,0 -0.88215,1.4283 -0.88215,1.6267 0,-0.2356 -0.58067,-1.6267 -0.88204,-1.6267 z" style="opacity:1;fill:url(#linearGradient7912);fill-opacity:1;fill-rule:nonzero;stroke:none;stroke-width:4.0483942;stroke-linecap:round;stroke-linejoin:round;stroke-miterlimit:4;stroke-dasharray:none;stroke-dashoffset:0;stroke-opacity:1;paint-order:markers stroke fill" sodipodi:nodetypes="cscccsscsccc"/>
      <rect style="opacity:1;fill:#003961;fill-opacity:1;fill-rule:nonzero;stroke:none;stroke-width:1.20034659;stroke-linecap:round;stroke-linejoin:round;stroke-miterlimit:4;stroke-dasharray:none;stroke-dashoffset:0;stroke-opacity:1;paint-order:markers stroke fill" id="rect20565-3-2" width="5.291687" height="0.47624999" x="441.51343" y="-1131.4388"/>
    </g>
  </g>
</svg>