<?xml version="1.0" encoding="UTF-8" standalone="no"?>
<svg
   xmlns:dc="http://purl.org/dc/elements/1.1/"
   xmlns:cc="http://creativecommons.org/ns#"
   xmlns:rdf="http://www.w3.org/1999/02/22-rdf-syntax-ns#"
   xmlns:svg="http://www.w3.org/2000/svg"
   xmlns="http://www.w3.org/2000/svg"
   xmlns:sodipodi="http://sodipodi.sourceforge.net/DTD/sodipodi-0.dtd"
   xmlns:inkscape="http://www.inkscape.org/namespaces/inkscape"
   sodipodi:docname="hot_zone_blue.svg"
   inkscape:version="1.0 (4035a4fb49, 2020-05-01)"
   id="svg17784"
   version="1.1"
   viewBox="0 0 1.8520834 1.852085"
   height="1.852085mm"
   width="1.8520834mm">
  <defs
     id="defs17778" />
  <sodipodi:namedview
     inkscape:document-rotation="0"
     inkscape:window-maximized="1"
     inkscape:window-y="-8"
     inkscape:window-x="-8"
     inkscape:window-height="1057"
     inkscape:window-width="1920"
     showgrid="false"
     inkscape:current-layer="layer1"
     inkscape:document-units="mm"
     inkscape:cy="-7.0287993"
     inkscape:cx="-12.938737"
     inkscape:zoom="5.6"
     inkscape:pageshadow="2"
     inkscape:pageopacity="0.0"
     borderopacity="1.0"
     bordercolor="#666666"
     pagecolor="#ffffff"
     id="base" />
  <metadata
     id="metadata17781">
    <rdf:RDF>
      <cc:Work
         rdf:about="">
        <dc:format>image/svg+xml</dc:format>
        <dc:type
           rdf:resource="http://purl.org/dc/dcmitype/StillImage" />
        <dc:title />
      </cc:Work>
    </rdf:RDF>
  </metadata>
  <g
     transform="translate(197.72583,-70.21949)"
     id="layer1"
     inkscape:groupmode="layer"
     inkscape:label="Layer 1">
    <g
       transform="matrix(0.05,0,0,0.05,-210.02895,140.16845)"
       id="g9600">
      <path
         id="circle9575"
         style="opacity:1;fill:#2ca0f0;fill-opacity:0.564706;fill-rule:nonzero;stroke:none;stroke-width:3.99999;stroke-linecap:round;stroke-linejoin:round;stroke-miterlimit:4;stroke-dasharray:none;stroke-dashoffset:0;stroke-opacity:1;paint-order:markers stroke fill"
         d="m 999.83398,-5271.4805 a 53.999989,53.999989 0 0 0 -53.83398,54 53.999989,53.999989 0 0 0 54,54 53.999989,53.999989 0 0 0 54,-54 53.999989,53.999989 0 0 0 -54,-54 53.999989,53.999989 0 0 0 -0.16602,0 z m 0.16602,22.5 a 31.500048,31.500048 0 0 1 31.5,31.5 31.500048,31.500048 0 0 1 -31.5,31.5 31.500048,31.500048 0 0 1 -31.5,-31.5 31.500048,31.500048 0 0 1 31.5,-31.5 z"
         transform="scale(0.26458333)" />
      <path
         id="circle9573"
         style="opacity:1;fill:#0f88db;fill-opacity:0.564706;fill-rule:nonzero;stroke:none;stroke-width:4.08952;stroke-linecap:round;stroke-linejoin:round;stroke-miterlimit:4;stroke-dasharray:none;stroke-dashoffset:0;stroke-opacity:1;paint-order:markers stroke fill"
         d="m 1000,-5285.9805 a 68.500021,68.500021 0 0 0 -68.5,68.5 68.500021,68.500021 0 0 0 68.5,68.5 68.500021,68.500021 0 0 0 68.5,-68.5 68.500021,68.500021 0 0 0 -68.5,-68.5 z m -0.16602,14.5 a 53.999988,53.999988 0 0 1 0.16602,0 53.999988,53.999988 0 0 1 54,54 53.999988,53.999988 0 0 1 -54,54 53.999988,53.999988 0 0 1 -54,-54 53.999988,53.999988 0 0 1 53.83398,-54 z m 0.16602,22.5 a 31.500048,31.500048 0 0 0 -31.5,31.5 31.500048,31.500048 0 0 0 31.5,31.5 31.500048,31.500048 0 0 0 31.5,-31.5 31.500048,31.500048 0 0 0 -31.5,-31.5 z"
         transform="scale(0.26458333)" />
      <path
         id="path9549"
         d="m 264.58333,-1398.9792 a 18.520832,18.520832 0 0 0 -18.52083,18.5208 18.520832,18.520832 0 0 0 18.52083,18.5209 18.520832,18.520832 0 0 0 18.52084,-18.5209 18.520832,18.520832 0 0 0 -18.52084,-18.5208 z m 0,0.7938 a 17.727083,17.727083 0 0 1 17.72709,17.727 17.727083,17.727083 0 0 1 -17.72709,17.7271 17.727083,17.727083 0 0 1 -17.72708,-17.7271 17.727083,17.727083 0 0 1 17.72708,-17.727 z"
         style="fill:#5cbcff;fill-opacity:1;fill-rule:nonzero;stroke:none;stroke-width:1.05833;stroke-linecap:round;stroke-linejoin:round;stroke-miterlimit:4;stroke-dasharray:none;stroke-dashoffset:0;stroke-opacity:1;paint-order:markers stroke fill" />
    </g>
  </g>
</svg>
