<?xml version="1.0" ?><svg xmlns:dc="http://purl.org/dc/elements/1.1/" xmlns:cc="http://creativecommons.org/ns#" xmlns:rdf="http://www.w3.org/1999/02/22-rdf-syntax-ns#" xmlns:svg="http://www.w3.org/2000/svg" xmlns="http://www.w3.org/2000/svg" xmlns:sodipodi="http://sodipodi.sourceforge.net/DTD/sodipodi-0.dtd" xmlns:inkscape="http://www.inkscape.org/namespaces/inkscape" sodipodi:docname="merch_crate.svg" inkscape:version="1.0 (4035a4fb49, 2020-05-01)" id="svg3893" version="1.1" viewBox="0 0 0.26458332 0.44979105" height="0.44979104mm" width="0.26458332mm">
  <defs id="defs3887"/>
  <sodipodi:namedview inkscape:window-maximized="1" inkscape:window-y="-8" inkscape:window-x="-8" inkscape:window-height="1057" inkscape:window-width="1920" showgrid="false" inkscape:document-rotation="0" inkscape:current-layer="layer1" inkscape:document-units="px" inkscape:cy="1.0497266" inkscape:cx="0.99583855" inkscape:zoom="253.42707" inkscape:pageshadow="2" inkscape:pageopacity="0.0" borderopacity="1.0" bordercolor="#666666" pagecolor="#ffffff" id="base"/>
  <metadata id="metadata3890">
    <rdf:RDF>
      <cc:Work rdf:about="">
        <dc:format>image/svg+xml</dc:format>
        <dc:type rdf:resource="http://purl.org/dc/dcmitype/StillImage"/>
        <dc:title/>
      </cc:Work>
    </rdf:RDF>
  </metadata>
  <g transform="translate(-169.7113,-169.37114)" id="layer1" inkscape:groupmode="layer" inkscape:label="Layer 1">
    <g style="stroke-width:20" transform="matrix(0.04999998,0,0,0.04999998,167.02578,173.7103)" id="g1705">
      <rect ry="0.93459511" y="-80.962494" x="53.710415" height="3.1749847" width="5.2916665" id="rect19227-0-4-9-9-3-8-9-1-4-1-9" style="opacity:1;fill:#000000;fill-opacity:0.18;fill-rule:nonzero;stroke:none;stroke-width:78.794;stroke-linecap:round;stroke-linejoin:round;stroke-miterlimit:4;stroke-dasharray:none;stroke-dashoffset:0;stroke-opacity:1;paint-order:markers stroke fill;filter:url(#filter1957)"/>
      <path id="path1671" style="color:#000000;font-style:normal;font-variant:normal;font-weight:normal;font-stretch:normal;font-size:medium;line-height:normal;font-family:sans-serif;font-variant-ligatures:normal;font-variant-position:normal;font-variant-caps:normal;font-variant-numeric:normal;font-variant-alternates:normal;font-variant-east-asian:normal;font-feature-settings:normal;font-variation-settings:normal;text-indent:0;text-align:start;text-decoration:none;text-decoration-line:none;text-decoration-style:solid;text-decoration-color:#000000;letter-spacing:normal;word-spacing:normal;text-transform:none;writing-mode:lr-tb;direction:ltr;text-orientation:mixed;dominant-baseline:auto;baseline-shift:baseline;text-anchor:start;white-space:normal;shape-padding:0;shape-margin:0;inline-size:0;clip-rule:nonzero;display:inline;overflow:visible;visibility:visible;isolation:auto;mix-blend-mode:normal;color-interpolation:sRGB;color-interpolation-filters:linearRGB;solid-color:#000000;solid-opacity:1;vector-effect:none;fill:#5c381c;fill-opacity:1;fill-rule:nonzero;stroke:none;stroke-width:21.1666;stroke-linecap:square;stroke-linejoin:round;stroke-miterlimit:4;stroke-dasharray:none;stroke-dashoffset:0;stroke-opacity:1;paint-order:markers stroke fill;color-rendering:auto;image-rendering:auto;shape-rendering:auto;text-rendering:auto;enable-background:accumulate;stop-color:#000000" d="m 55.297916,-86.783333 c -0.87032,0 -1.5875,0.717179 -1.5875,1.5875 v 0.264583 1.852083 2.116667 c 0,0.87032 0.717177,1.5875 1.5875,1.5875 h 2.116667 c 0.870323,0 1.5875,-0.717177 1.5875,-1.5875 v -2.116667 -1.852083 -0.264583 c 0,-0.870324 -0.71718,-1.5875 -1.5875,-1.5875 z"/>
      <rect style="opacity:1;fill:#886040;fill-opacity:1;stroke:none;stroke-width:15.875;stroke-linecap:square;stroke-linejoin:round;stroke-miterlimit:4;stroke-dasharray:none;stroke-opacity:1;paint-order:markers stroke fill" id="rect2297" width="4.2333336" height="6.0854139" x="54.239582" y="-85.989578" ry="1.0583347"/>
      <rect ry="1.0583347" y="-86.254166" x="54.239582" height="4.233336" width="4.2333336" id="rect2299" style="opacity:1;fill:#d49864;fill-opacity:1;stroke:none;stroke-width:15.875;stroke-linecap:square;stroke-linejoin:round;stroke-miterlimit:4;stroke-dasharray:none;stroke-opacity:1;paint-order:markers stroke fill"/>
      <path d="m 54.693819,-85.79993 c -0.274558,0.19082 -0.454236,0.507545 -0.454236,0.86868 v 3.96875 c 0,0.267668 0.10187,0.508542 0.264583,0.694531 v -4.927864 c 0,-0.225185 0.07067,-0.432898 0.189653,-0.604097 z m 3.32486,0 c 0.118986,0.171199 0.189654,0.378912 0.189654,0.604097 v 4.927864 c 0.162713,-0.185989 0.264583,-0.426863 0.264583,-0.694531 v -3.96875 c 0,-0.361135 -0.179679,-0.67786 -0.454237,-0.86868 z" style="opacity:1;fill:#a48060;fill-opacity:1;stroke:none;stroke-width:15.875;stroke-linecap:square;stroke-linejoin:round;stroke-miterlimit:4;stroke-dasharray:none;stroke-opacity:1;paint-order:markers stroke fill" id="rect2357"/>
      <path d="m 55.297916,-86.254167 c -0.586319,0 -1.058333,0.472014 -1.058333,1.058334 v 2.116666 c 0,0.267669 0.10187,0.508543 0.264583,0.694531 v -2.811197 c 0,-0.58632 0.472017,-1.058334 1.058333,-1.058334 z m 1.852083,0 c 0.58632,0 1.058334,0.472014 1.058334,1.058334 v 2.811197 c 0.162713,-0.185988 0.264583,-0.426862 0.264583,-0.694531 v -2.116666 c 0,-0.58632 -0.472017,-1.058334 -1.058333,-1.058334 z" style="opacity:1;fill:#dcb084;fill-opacity:1;stroke:none;stroke-width:15.875;stroke-linecap:square;stroke-linejoin:round;stroke-miterlimit:4;stroke-dasharray:none;stroke-opacity:1;paint-order:markers stroke fill" id="rect2338"/>
      <rect style="opacity:1;fill:#b48054;fill-opacity:1;stroke:none;stroke-width:15.875;stroke-linecap:square;stroke-linejoin:round;stroke-miterlimit:4;stroke-dasharray:none;stroke-opacity:1;paint-order:markers stroke fill" id="rect2303" width="2.6458333" height="0.26458332" x="55.033333" y="-84.402077"/>
      <rect style="opacity:1;fill:#e4b078;fill-opacity:1;stroke:none;stroke-width:15.875;stroke-linecap:square;stroke-linejoin:round;stroke-miterlimit:4;stroke-dasharray:none;stroke-opacity:1;paint-order:markers stroke fill" id="rect2305" width="2.6458333" height="0.26458332" x="55.033333" y="-84.137497"/>
      <path d="m 54.239583,-84.402083 v 0.79375 h 1.058333 v -0.79375 z m 3.175,0 v 0.79375 h 1.058333 v -0.79375 z" style="opacity:1;fill:#a04820;fill-opacity:1;stroke:none;stroke-width:15.875;stroke-linecap:square;stroke-linejoin:round;stroke-miterlimit:4;stroke-dasharray:none;stroke-opacity:1;paint-order:markers stroke fill" id="rect2307"/>
      <path d="m 54.239583,-84.666667 v 0.529167 h 1.058333 v -0.529167 z m 3.175,0 v 0.529167 h 1.058333 v -0.529167 z" style="opacity:1;fill:#b06034;fill-opacity:1;stroke:none;stroke-width:15.875;stroke-linecap:square;stroke-linejoin:round;stroke-miterlimit:4;stroke-dasharray:none;stroke-opacity:1;paint-order:markers stroke fill" id="rect2311"/>
      <path d="m 54.239583,-84.402083 v 0.79375 h 0.264583 v -0.79375 z m 3.96875,0 v 0.79375 h 0.264583 v -0.79375 z" style="opacity:1;fill:#b4683c;fill-opacity:1;stroke:none;stroke-width:15.875;stroke-linecap:square;stroke-linejoin:round;stroke-miterlimit:4;stroke-dasharray:none;stroke-opacity:1;paint-order:markers stroke fill" id="path2345"/>
      <path d="m 54.239583,-84.666667 v 0.529167 h 0.264583 v -0.529167 z m 3.96875,0 v 0.529167 h 0.264583 v -0.529167 z" style="opacity:1;fill:#c07c54;fill-opacity:1;stroke:none;stroke-width:15.875;stroke-linecap:square;stroke-linejoin:round;stroke-miterlimit:4;stroke-dasharray:none;stroke-opacity:1;paint-order:markers stroke fill" id="path2347"/>
    </g>
  </g>
</svg>