<?xml version="1.0" encoding="UTF-8" standalone="no"?>
<svg
   xmlns:dc="http://purl.org/dc/elements/1.1/"
   xmlns:cc="http://creativecommons.org/ns#"
   xmlns:rdf="http://www.w3.org/1999/02/22-rdf-syntax-ns#"
   xmlns:svg="http://www.w3.org/2000/svg"
   xmlns="http://www.w3.org/2000/svg"
   xmlns:sodipodi="http://sodipodi.sourceforge.net/DTD/sodipodi-0.dtd"
   xmlns:inkscape="http://www.inkscape.org/namespaces/inkscape"
   sodipodi:docname="metal_crate.svg"
   inkscape:version="1.0 (4035a4fb49, 2020-05-01)"
   id="svg3893"
   version="1.1"
   viewBox="0 0 0.26458335 0.47624683"
   height="0.47624683mm"
   width="0.26458335mm">
  <defs
     id="defs3887" />
  <sodipodi:namedview
     inkscape:window-maximized="1"
     inkscape:window-y="-8"
     inkscape:window-x="-8"
     inkscape:window-height="1057"
     inkscape:window-width="1920"
     showgrid="false"
     inkscape:document-rotation="0"
     inkscape:current-layer="layer1"
     inkscape:document-units="px"
     inkscape:cy="2.4564616"
     inkscape:cx="-0.91781429"
     inkscape:zoom="89.6"
     inkscape:pageshadow="2"
     inkscape:pageopacity="0.0"
     borderopacity="1.0"
     bordercolor="#666666"
     pagecolor="#ffffff"
     id="base" />
  <metadata
     id="metadata3890">
    <rdf:RDF>
      <cc:Work
         rdf:about="">
        <dc:format>image/svg+xml</dc:format>
        <dc:type
           rdf:resource="http://purl.org/dc/dcmitype/StillImage" />
        <dc:title></dc:title>
      </cc:Work>
    </rdf:RDF>
  </metadata>
  <g
     transform="translate(-186.34225,-121.48155)"
     id="layer1"
     inkscape:groupmode="layer"
     inkscape:label="Layer 1">
    <g
       transform="matrix(0.04999971,0,0,0.04999971,162.86062,125.9133)"
       id="g3031">
      <rect
         style="opacity:1;fill:#000000;fill-opacity:0.180392;fill-rule:nonzero;stroke:none;stroke-width:3.93973;stroke-linecap:round;stroke-linejoin:round;stroke-miterlimit:4;stroke-dasharray:none;stroke-dashoffset:0;stroke-opacity:1;paint-order:markers stroke fill;filter:url(#filter1957)"
         id="rect19227-0-4-8-1"
         width="5.2916713"
         height="3.1749845"
         x="469.63544"
         y="-82.285408"
         ry="0.93459511" />
      <path
         transform="scale(0.26458333)"
         d="m 1777,-335 c -1.108,0 -2,0.89199 -2,2 v 21 3 4 h 20 v -4 -3 -21 c 0,-1.10801 -0.892,-2 -2,-2 z"
         style="opacity:1;fill:#302450;fill-opacity:1;stroke-width:3.99999;stroke-linecap:round;paint-order:markers stroke fill"
         id="rect3356" />
      <rect
         style="opacity:1;fill:#202430;fill-opacity:1;stroke-width:1.05833;stroke-linecap:round;paint-order:markers stroke fill"
         id="rect3358"
         width="4.2333341"
         height="5.0270839"
         x="470.16458"
         y="-86.518745" />
      <rect
         style="opacity:1;fill:#8470d8;fill-opacity:1;stroke-width:1.05833;stroke-linecap:round;paint-order:markers stroke fill"
         id="rect3360"
         width="4.2333331"
         height="3.7041667"
         x="470.16458"
         y="-88.106247" />
      <rect
         style="opacity:1;fill:#201c28;fill-opacity:1;stroke-width:1.05833;stroke-linecap:round;paint-order:markers stroke fill"
         id="rect3362"
         width="4.2333331"
         height="0.52916664"
         x="470.16458"
         y="-84.402077" />
      <path
         id="path3430"
         style="opacity:1;fill:#50447c;fill-opacity:1;stroke-width:1.05833;stroke-linecap:round;paint-order:markers stroke fill"
         d="m 469.89999,-87.841668 v 1.058334 h 0.79375 l 0.96997,0.79375 -0.96997,0.79375 h -0.79375 v 1.058333 h 1.05834 v -0.264583 l 1.32291,-1.082622 1.32292,1.082622 v 0.264583 h 1.05833 v -1.058333 h -0.79375 l -0.96996,-0.79375 0.96996,-0.79375 h 0.79375 v -1.058334 h -1.05833 v 0.264584 l -1.32292,1.082622 -1.32291,-1.082622 v -0.264584 z" />
      <path
         transform="scale(0.26458333)"
         d="m 1776,-334 v 4 h 3 l 3.666,3 -3.666,3 h -3 v 4 h 4 v -1 l 5,-4.0918 5,4.0918 v 1 h 4 v -4 h -3 l -3.666,-3 3.666,-3 h 3 v -4 h -4 v 1 l -5,4.0918 -5,-4.0918 v -1 z"
         style="opacity:1;fill:#9c84ec;fill-opacity:1;stroke-width:3.99999;stroke-linecap:round;paint-order:markers stroke fill"
         id="rect3412" />
      <path
         sodipodi:nodetypes="ccccccccccccccccccccccc"
         id="path3448"
         style="opacity:1;fill:#484c68;fill-opacity:1;stroke-width:1.05833;stroke-linecap:round;paint-order:markers stroke fill"
         d="m 469.89999,-84.666667 v 0.793749 h 0.79375 l 0.96997,1.058334 -0.96997,0.79375 h -0.79375 v 0.79375 l 1.05834,-0.264584 1.32291,-1.058332 1.32292,1.058332 1.05833,0.264584 v -0.79375 h -0.79375 l -0.96996,-0.79375 0.96996,-1.058334 h 0.79375 v -0.793749 h -1.05833 v 0.264583 l -1.32292,1.082623 -1.32291,-1.082623 v -0.264583 z" />
      <path
         sodipodi:nodetypes="ccccccccccccccccccccccccccc"
         transform="scale(0.26458333)"
         d="m 1776,-319 v 3 h 3 l 3.666,3 v 1 l -3.666,3 h -3 v 3 h 4 v -1 l 5,-4.0918 5,4.0918 v 1 h 4 v -3 h -3 l -3.666,-3 v -1 l 3.666,-3 h 3 v -3 h -4 v 1 l -5,4.0918 -5,-4.0918 v -1 z"
         style="opacity:1;fill:#2c304c;fill-opacity:1;stroke-width:3.99999;stroke-linecap:round;paint-order:markers stroke fill"
         id="path3452" />
      <path
         transform="scale(0.26458333)"
         d="m 1776,-334 v 1 h 4 v -1 z m 4,1 v 1 l 5,4.0918 5,-4.0918 v -1 l -5,4.0918 z m 10,0 h 4 v -1 h -4 z m -7.9453,6.5 -3.0547,2.5 h -3 v 1 h 3 l 3.666,-3 z m 5.8906,0 -0.6113,0.5 3.666,3 h 3 v -1 h -3 z"
         style="opacity:1;fill:#ac9cf0;fill-opacity:1;stroke-width:3.99999;stroke-linecap:round;paint-order:markers stroke fill"
         id="path3458" />
    </g>
  </g>
</svg>
