<?xml version="1.0" ?><svg xmlns:dc="http://purl.org/dc/elements/1.1/" xmlns:cc="http://creativecommons.org/ns#" xmlns:rdf="http://www.w3.org/1999/02/22-rdf-syntax-ns#" xmlns:svg="http://www.w3.org/2000/svg" xmlns="http://www.w3.org/2000/svg" xmlns:xlink="http://www.w3.org/1999/xlink" xmlns:sodipodi="http://sodipodi.sourceforge.net/DTD/sodipodi-0.dtd" xmlns:inkscape="http://www.inkscape.org/namespaces/inkscape" sodipodi:docname="mine_burst.svg" inkscape:version="1.0 (4035a4fb49, 2020-05-01)" id="svg3893" version="1.1" viewBox="0 0 0.62862289 0.55963916" height="0.55963916mm" width="0.62862289mm">
  <defs id="defs3887">
    <linearGradient inkscape:collect="always" xlink:href="#linearGradient2258" id="linearGradient2260" x1="45.243752" y1="-95.779167" x2="45.243752" y2="-89.958336" gradientUnits="userSpaceOnUse"/>
    <linearGradient inkscape:collect="always" id="linearGradient2258">
      <stop style="stop-color:#302850;stop-opacity:1" offset="0" id="stop2254"/>
      <stop style="stop-color:#201834;stop-opacity:1" offset="1" id="stop2256"/>
    </linearGradient>
  </defs>
  <sodipodi:namedview inkscape:window-maximized="1" inkscape:window-y="-8" inkscape:window-x="-8" inkscape:window-height="1057" inkscape:window-width="1920" showgrid="false" inkscape:document-rotation="0" inkscape:current-layer="layer1" inkscape:document-units="px" inkscape:cy="1.4002654" inkscape:cx="1.1876786" inkscape:zoom="256" inkscape:pageshadow="2" inkscape:pageopacity="0.0" borderopacity="1.0" bordercolor="#666666" pagecolor="#ffffff" id="base"/>
  <metadata id="metadata3890">
    <rdf:RDF>
      <cc:Work rdf:about="">
        <dc:format>image/svg+xml</dc:format>
        <dc:type rdf:resource="http://purl.org/dc/dcmitype/StillImage"/>
        <dc:title/>
      </cc:Work>
    </rdf:RDF>
  </metadata>
  <g transform="translate(-90.475521,-137.27842)" id="layer1" inkscape:groupmode="layer" inkscape:label="Layer 1">
    <g style="stroke-width:20.0002" transform="matrix(0.04999963,0,0,0.04999963,88.544298,142.20365)" id="g1779">
      <ellipse style="opacity:1;fill:#000000;fill-opacity:0.18;fill-rule:nonzero;stroke:none;stroke-width:21.1668;stroke-linecap:round;stroke-linejoin:round;stroke-miterlimit:4;stroke-dasharray:none;stroke-dashoffset:0;stroke-opacity:1;paint-order:markers fill stroke" id="path6763-8-9-6" cx="44.979172" cy="-92.471878" rx="5.15941" ry="5.1593733"/>
      <path style="opacity:1;fill:url(#linearGradient2260);fill-opacity:1;stroke:none;stroke-width:5.2917px;stroke-linecap:butt;stroke-linejoin:miter;stroke-opacity:1" d="m 41.539583,-95.514583 -0.529167,3.175 1.852083,2.645834 3.439584,0.529166 2.645833,-2.116666 0.264583,-2.645834 -1.322916,-2.116666 -3.439584,-1.322917 z" id="path2175"/>
      <path transform="matrix(0.26458333,0,0,0.26458333,-51.850778,-235.78379)" d="m 363.16406,518.84766 a 1.50015,1.50015 0 0 0 -1.12695,0.49218 l -0.59766,0.65821 c -1.7926,1.94821 -2.75645,3.45217 -3.88086,4.42968 -1.15051,1.00023 -2.61628,1.81347 -6.16601,2.51758 a 1.50015,1.50015 0 0 0 -0.008,0 l -0.95118,0.19336 a 1.50015,1.50015 0 0 0 -1.18164,1.71094 l 0.1543,0.95117 a 1.50015,1.50015 0 0 0 0,0.008 c 0.3888,2.33954 0.62792,4.42757 0.41406,6.17969 -0.21653,1.77412 -0.77124,3.20876 -2.26172,4.79297 l -1.07031,1.13672 a 1.50015,1.50015 0 0 0 0.61328,2.44922 l 1.47656,0.49609 c 2.19805,0.74763 3.45126,1.90168 4.43555,3.4336 0.97408,1.51605 1.58061,3.44608 2.00977,5.44531 a 1.50015,1.50015 0 0 0 0.002,0.01 l 0.15625,0.70313 c -0.56037,-0.40542 -1.23319,-0.7128 -2.0625,-0.79492 -0.23713,-0.0234 -0.46706,-0.017 -0.69726,-0.0117 a 1.50015,1.50015 0 0 0 -0.26758,-0.006 h -0.002 c -2.17499,0.16358 -3.79597,1.73344 -3.67968,3.60156 0.0355,0.57336 0.35587,1.22947 0.79101,1.58594 0.43514,0.35648 0.85373,0.46062 1.16797,0.52734 0.62848,0.13346 1.04105,0.22071 0.86914,0.13477 0.017,0.009 0.3261,0.26049 0.77539,0.58593 0.44928,0.32546 1.34476,0.83755 2.36914,0.4961 1.65914,-0.55302 2.24957,-2.16229 2.00586,-3.66406 -0.0268,-0.16585 -0.19761,-0.72164 -0.34179,-1.20118 a 1.50015,1.50015 0 0 0 0.7832,0.10352 l 0.9082,-0.125 c 2.17926,-0.2869 8.91984,-1.05235 12.35352,1.80664 a 1.50015,1.50015 0 0 0 0,0.004 l 0.95898,0.79687 a 1.50015,1.50015 0 0 0 2.29297,-0.46875 l 0.56641,-1.10156 0.002,-0.006 c 1.34896,-2.60162 5.43628,-7.00892 8.85156,-8.09375 a 1.50015,1.50015 0 0 0 0.002,-0.002 l 0.98829,-0.31641 a 1.50015,1.50015 0 0 0 0.95507,-1.93555 l -0.35351,-0.98242 a 1.50015,1.50015 0 0 0 -0.004,-0.008 c -0.26037,-0.71082 -0.51501,-2.2628 -0.45703,-3.87109 0.058,-1.60831 0.41671,-3.30267 1.09375,-4.5 l -0.004,0.004 0.53906,-0.94531 a 1.50015,1.50015 0 0 0 -0.66992,-2.10156 l -0.98047,-0.45703 h -0.002 c -2.48621,-1.16174 -3.68314,-3.01339 -4.24804,-6.3418 a 1.50015,1.50015 0 0 0 0,-0.002 l -0.125,-0.73047 a 1.50015,1.50015 0 0 0 -1.28321,-1.23243 l -0.73046,-0.0957 a 1.50015,1.50015 0 0 0 -0.004,-0.002 c -8.44412,-1.08339 -8.329,-2.22559 -12.78906,-5.44531 l -0.006,-0.004 -0.7168,-0.52148 a 1.50015,1.50015 0 0 0 -0.86719,-0.28711 z m 22.08789,5.79101 a 1.50015,1.50015 0 0 0 -0.0977,0.006 h -0.002 c -2.17497,0.16358 -3.79599,1.73341 -3.67968,3.60156 0.0385,0.618 0.4271,1.29893 0.8789,1.63086 0.4518,0.33192 0.85845,0.41773 1.16992,0.47852 0.23381,0.0456 0.37788,0.0612 0.51758,0.0801 0.002,0.004 -3.2e-4,8.1e-4 0.002,0.006 0.0915,0.18825 0.27068,0.52603 0.64648,0.80664 0.3758,0.28063 0.87864,0.40429 1.2832,0.40429 1.1011,0 1.68239,-0.48724 2.28516,-1.04687 0.60277,-0.55962 1.21484,-1.29607 1.21484,-2.45313 0,-0.47141 0.0679,-1.29615 -0.52148,-2.13867 -0.58935,-0.84252 -1.61842,-1.23353 -2.83008,-1.35351 -0.23709,-0.0234 -0.46707,-0.017 -0.69726,-0.0117 a 1.50015,1.50015 0 0 0 -0.16993,-0.008 z m -21.53906,0.32227 c 2.77782,2.04221 5.54739,3.75498 11.61133,4.7539 0.8077,2.84484 2.37424,5.25391 4.69336,6.94532 -1.05698,2.90268 -1.06712,5.78731 -0.58789,8.24804 -3.73223,1.78165 -6.68197,4.75089 -8.59375,7.6543 -4.44829,-2.34794 -8.93533,-2.2257 -11.58008,-1.92383 -0.43176,-1.65349 -0.96603,-3.38681 -2.03516,-5.05078 -1.07855,-1.67865 -2.73637,-2.87619 -4.55859,-3.88477 1.04138,-1.58616 1.89277,-3.25486 2.11914,-5.10937 0.23271,-1.90644 0.0321,-3.73819 -0.22266,-5.52148 2.60189,-0.71773 4.77252,-1.56142 6.28125,-2.87305 1.21147,-1.05322 2.00574,-2.15744 2.87305,-3.23828 z m -16.64844,22.6914 c -1.0467,-0.0651 -2.06685,0.19502 -3.00976,0.66602 -0.9429,0.47098 -2.03891,1.2256 -2.09766,2.71094 -0.0582,1.47003 0.99715,2.33367 1.93945,2.84961 0.94233,0.51592 2.01555,0.80396 3.11914,0.77148 1.00085,-0.0295 1.97366,-0.26506 2.82227,-0.78906 0.84861,-0.524 1.63281,-1.50343 1.63281,-2.71094 0,-1.29 -0.89488,-2.22203 -1.74023,-2.71484 -0.84536,-0.49282 -1.768,-0.72728 -2.66602,-0.78321 z" style="color:#000000;font-style:normal;font-variant:normal;font-weight:normal;font-stretch:normal;font-size:medium;line-height:normal;font-family:sans-serif;font-variant-ligatures:normal;font-variant-position:normal;font-variant-caps:normal;font-variant-numeric:normal;font-variant-alternates:normal;font-variant-east-asian:normal;font-feature-settings:normal;font-variation-settings:normal;text-indent:0;text-align:start;text-decoration:none;text-decoration-line:none;text-decoration-style:solid;text-decoration-color:#000000;letter-spacing:normal;word-spacing:normal;text-transform:none;writing-mode:lr-tb;direction:ltr;text-orientation:mixed;dominant-baseline:auto;baseline-shift:baseline;text-anchor:start;white-space:normal;shape-padding:0;shape-margin:0;inline-size:0;clip-rule:nonzero;display:inline;overflow:visible;visibility:visible;isolation:auto;mix-blend-mode:normal;color-interpolation:sRGB;color-interpolation-filters:linearRGB;solid-color:#000000;solid-opacity:1;vector-effect:none;fill:#701c30;fill-opacity:1;fill-rule:nonzero;stroke:none;stroke-width:60.0005;stroke-linecap:butt;stroke-linejoin:round;stroke-miterlimit:4;stroke-dasharray:none;stroke-dashoffset:0;stroke-opacity:1;color-rendering:auto;image-rendering:auto;shape-rendering:auto;text-rendering:auto;enable-background:accumulate;stop-color:#000000" id="path3780"/>
      <path id="path2165" d="m 44.232422,-98.108073 -0.158203,0.173828 c -0.452183,0.491006 -0.703467,0.894645 -1.060547,1.205078 -0.357081,0.310433 -0.835484,0.561671 -1.814453,0.755859 l -0.251953,0.05078 0.04102,0.251953 c 0.104561,0.629172 0.176421,1.21476 0.111328,1.748047 -0.06509,0.533287 -0.255479,1.016387 -0.703125,1.492187 l -0.283203,0.300781 0.390625,0.13086 c 0.662917,0.225163 1.08216,0.605419 1.38086,1.070312 0.2987,0.464894 0.467605,1.021025 0.585937,1.572266 l 0.05273,0.238281 0.242187,-0.0332 c 0.56099,-0.07386 2.463691,-0.358253 3.574219,0.566406 l 0.253906,0.210938 0.150391,-0.292969 c 0.41168,-0.794739 1.489394,-1.993307 2.574218,-2.337891 l 0.261719,-0.08398 -0.09375,-0.259766 c -0.195676,-0.5342 -0.255414,-1.749757 0.195313,-2.546875 l 0.142578,-0.25 -0.259766,-0.121093 c -0.774367,-0.361663 -1.184705,-1.010585 -1.347656,-1.970703 l -0.0332,-0.19336 -0.19336,-0.02539 c -2.278077,-0.29228 -2.420125,-0.686535 -3.566406,-1.513672 z m 0.07813,0.703125 c 0.909048,0.678905 1.466644,1.150855 3.451172,1.433593 0.193386,0.896455 0.65405,1.604269 1.402343,2.035157 -0.407888,0.87892 -0.40272,1.870219 -0.207031,2.552734 -1.136739,0.449524 -2.064995,1.450245 -2.550781,2.298828 -1.271723,-0.849524 -2.884294,-0.691933 -3.501953,-0.603515 -0.123209,-0.513965 -0.266521,-1.048447 -0.574219,-1.527344 -0.30376,-0.472769 -0.817444,-0.833148 -1.427734,-1.107422 0.381327,-0.488758 0.657431,-1.000788 0.722656,-1.535156 0.06781,-0.555532 -0.01253,-1.121238 -0.101562,-1.691406 0.840503,-0.200515 1.453433,-0.447017 1.83789,-0.78125 0.37158,-0.323039 0.623086,-0.692143 0.949219,-1.074219 z" style="color:#000000;font-style:normal;font-variant:normal;font-weight:normal;font-stretch:normal;font-size:medium;line-height:normal;font-family:sans-serif;font-variant-ligatures:normal;font-variant-position:normal;font-variant-caps:normal;font-variant-numeric:normal;font-variant-alternates:normal;font-variant-east-asian:normal;font-feature-settings:normal;font-variation-settings:normal;text-indent:0;text-align:start;text-decoration:none;text-decoration-line:none;text-decoration-style:solid;text-decoration-color:#000000;letter-spacing:normal;word-spacing:normal;text-transform:none;writing-mode:lr-tb;direction:ltr;text-orientation:mixed;dominant-baseline:auto;baseline-shift:baseline;text-anchor:start;white-space:normal;shape-padding:0;shape-margin:0;inline-size:0;clip-rule:nonzero;display:inline;overflow:visible;visibility:visible;opacity:1;isolation:auto;mix-blend-mode:normal;color-interpolation:sRGB;color-interpolation-filters:linearRGB;solid-color:#000000;solid-opacity:1;vector-effect:none;fill:#b4445c;fill-opacity:1;fill-rule:nonzero;stroke:none;stroke-width:21.1668;stroke-linecap:butt;stroke-linejoin:round;stroke-miterlimit:4;stroke-dasharray:none;stroke-dashoffset:0;stroke-opacity:1;color-rendering:auto;image-rendering:auto;shape-rendering:auto;text-rendering:auto;enable-background:accumulate;stop-color:#000000"/>
      <path id="path2171" d="m 50.08428,-96.576017 c -0.407987,0.03052 -0.621204,0.307303 -0.607197,0.532268 0.01601,0.257101 0.398584,0.170463 0.529166,0.264583 0.130583,0.09412 0.0775,0.264583 0.264584,0.264583 0.187089,0 0.529166,-0.279714 0.529166,-0.529166 0,-0.249452 0,-0.476769 -0.529166,-0.529167 -0.06615,-0.0066 -0.128268,-0.0075 -0.186553,-0.0031 z m -10.132197,6.088518 c -0.355515,-0.02212 -0.918242,0.210952 -0.930175,0.51263 -0.01193,0.301678 0.522198,0.55771 0.930175,0.545703 0.407977,-0.01201 0.79375,-0.211177 0.79375,-0.529167 0,-0.317989 -0.438235,-0.507031 -0.79375,-0.529166 z m 1.400947,1.584399 c -0.407987,0.03052 -0.621202,0.307303 -0.607197,0.532267 0.01601,0.257101 0.352777,0.176387 0.529166,0.264584 0.17639,0.08819 0.342078,0.326945 0.529167,0.264583 0.18709,-0.06236 0.300358,-0.308721 0.264583,-0.529167 -0.03577,-0.220445 0,-0.476768 -0.529166,-0.529166 -0.06615,-0.0066 -0.128268,-0.0075 -0.186553,-0.0031 z" style="color:#000000;font-style:normal;font-variant:normal;font-weight:normal;font-stretch:normal;font-size:medium;line-height:normal;font-family:sans-serif;font-variant-ligatures:normal;font-variant-position:normal;font-variant-caps:normal;font-variant-numeric:normal;font-variant-alternates:normal;font-variant-east-asian:normal;font-feature-settings:normal;font-variation-settings:normal;text-indent:0;text-align:start;text-decoration:none;text-decoration-line:none;text-decoration-style:solid;text-decoration-color:#000000;letter-spacing:normal;word-spacing:normal;text-transform:none;writing-mode:lr-tb;direction:ltr;text-orientation:mixed;dominant-baseline:auto;baseline-shift:baseline;text-anchor:start;white-space:normal;shape-padding:0;shape-margin:0;inline-size:0;clip-rule:nonzero;display:inline;overflow:visible;visibility:visible;opacity:1;isolation:auto;mix-blend-mode:normal;color-interpolation:sRGB;color-interpolation-filters:linearRGB;solid-color:#000000;solid-opacity:1;vector-effect:none;fill:#903048;fill-opacity:1;fill-rule:nonzero;stroke:none;stroke-width:21.1668;stroke-linecap:butt;stroke-linejoin:miter;stroke-miterlimit:4;stroke-dasharray:none;stroke-dashoffset:0;stroke-opacity:1;color-rendering:auto;image-rendering:auto;shape-rendering:auto;text-rendering:auto;enable-background:accumulate;stop-color:#000000"/>
      <path transform="scale(0.26458333)" d="m 167.17773,-370.80273 -0.59765,0.6582 c -1.70904,1.85577 -2.65822,3.3814 -4.00781,4.55469 -1.3496,1.17329 -3.15934,2.12153 -6.85938,2.85546 l -0.95117,0.19336 0.1543,0.95118 c 9.8e-4,0.006 9.7e-4,0.0116 0.002,0.0176 l 0.79492,-0.16211 c 3.70004,-0.73393 5.50783,-1.68217 6.85742,-2.85546 1.3496,-1.17329 2.30073,-2.69892 4.00977,-4.55469 l 0.59765,-0.6582 0.72266,0.52539 c 4.3324,3.12618 4.87041,4.61602 13.48047,5.7207 l 0.73047,0.0957 0.125,0.73047 c 0.61588,3.62879 2.16701,6.0823 5.09375,7.44922 l 0.53125,0.24805 0.45117,-0.79102 -0.98242,-0.45703 c -2.92674,-1.36692 -4.47787,-3.82043 -5.09375,-7.44922 l -0.125,-0.73047 -0.73047,-0.0957 c -8.61006,-1.10468 -9.14807,-2.59452 -13.48047,-5.7207 z m -10.0957,10.63281 c -0.0506,0.0123 -0.0916,0.0269 -0.14258,0.0391 0.22073,1.41355 0.41139,2.818 0.45508,4.21094 0.0435,-1.4033 -0.10335,-2.82267 -0.3125,-4.25 z m -1.67578,4.04687 c -0.0127,0.38427 -0.0231,0.76955 -0.0684,1.14063 -0.24601,2.01557 -0.96631,3.84037 -2.6582,5.63867 l -1.07031,1.13672 0.71484,0.24023 0.35547,-0.37695 c 1.69189,-1.7983 2.41024,-3.6231 2.65625,-5.63867 0.084,-0.68808 0.0913,-1.40779 0.0703,-2.14063 z m 30.0918,1.88086 c -0.73865,1.91712 -1.00403,3.92279 -0.9336,5.74219 0.0504,-1.80142 0.41376,-3.72901 1.25196,-5.53516 -0.11138,-0.0641 -0.21035,-0.13966 -0.31836,-0.20703 z m 0.99414,5.4961 c -0.0707,1.79731 0.16957,3.4728 0.54297,4.49218 l 0.0312,0.0859 0.32226,-0.10351 -0.35351,-0.98243 c -0.30246,-0.82572 -0.50921,-2.08935 -0.54297,-3.49218 z m -31.37696,0.0742 c -0.17427,0.24505 -0.3346,0.49235 -0.52343,0.73438 2.3066,1.03663 4.24841,2.3987 5.39648,4.18555 1.16295,1.81 1.70425,3.83089 2.16992,5.77343 2.33446,-0.33417 8.42787,-0.92954 13.23438,2.28125 1.83604,-3.20724 5.34624,-6.99046 9.64258,-8.68945 -0.0825,-0.28783 -0.15337,-0.59352 -0.2168,-0.9082 -4.19689,1.73891 -7.61894,5.44484 -9.42383,8.59765 -4.80651,-3.21079 -10.90187,-2.61542 -13.23633,-2.28125 -0.46567,-1.94254 -1.00697,-3.96343 -2.16992,-5.77343 -1.05726,-1.64551 -2.80454,-2.91731 -4.87305,-3.91993 z" style="color:#000000;font-style:normal;font-variant:normal;font-weight:normal;font-stretch:normal;font-size:medium;line-height:normal;font-family:sans-serif;font-variant-ligatures:normal;font-variant-position:normal;font-variant-caps:normal;font-variant-numeric:normal;font-variant-alternates:normal;font-variant-east-asian:normal;font-feature-settings:normal;font-variation-settings:normal;text-indent:0;text-align:start;text-decoration:none;text-decoration-line:none;text-decoration-style:solid;text-decoration-color:#000000;letter-spacing:normal;word-spacing:normal;text-transform:none;writing-mode:lr-tb;direction:ltr;text-orientation:mixed;dominant-baseline:auto;baseline-shift:baseline;text-anchor:start;white-space:normal;shape-padding:0;shape-margin:0;inline-size:0;clip-rule:nonzero;display:inline;overflow:visible;visibility:visible;opacity:1;isolation:auto;mix-blend-mode:normal;color-interpolation:sRGB;color-interpolation-filters:linearRGB;solid-color:#000000;solid-opacity:1;vector-effect:none;fill:#bc5870;fill-opacity:1;fill-rule:nonzero;stroke:none;stroke-width:80.0004;stroke-linecap:butt;stroke-linejoin:round;stroke-miterlimit:4;stroke-dasharray:none;stroke-dashoffset:0;stroke-opacity:1;color-rendering:auto;image-rendering:auto;shape-rendering:auto;text-rendering:auto;enable-background:accumulate;stop-color:#000000" id="path2194"/>
      <path transform="scale(0.26458333)" d="m 189.29492,-365.01172 c -1.542,0.11535 -2.34786,1.16146 -2.29492,2.01172 0.008,0.13408 0.0486,0.23831 0.10352,0.32812 0.32964,-0.17603 0.72166,-0.3047 1.1914,-0.33984 0.22029,-0.0166 0.45506,-0.0132 0.70508,0.0117 1.69482,0.16782 1.94101,0.81806 1.98047,1.58398 C 191.51663,-361.81029 192,-362.42451 192,-363 c 0,-0.94281 0,-1.80196 -2,-2 -0.25002,-0.0249 -0.48479,-0.0283 -0.70508,-0.0117 z M 151,-342 c -1.34368,-0.0836 -3.47052,0.7973 -3.51562,1.9375 -0.008,0.21488 0.0742,0.42019 0.19531,0.61719 0.71895,-0.378 1.62257,-0.5981 2.32031,-0.55469 1.15502,0.0719 2.53395,0.61236 2.90039,1.52539 C 153.55262,-338.82097 154,-339.33976 154,-340 c 0,-1.20185 -1.65632,-1.91634 -3,-2 z m 5.29492,5.98828 c -1.542,0.11535 -2.34785,1.16146 -2.29492,2.01172 0.008,0.1352 0.0452,0.2411 0.0957,0.33203 0.33109,-0.17827 0.72581,-0.30833 1.19922,-0.34375 0.22029,-0.0166 0.45506,-0.0132 0.70508,0.0117 2,0.19804 1.86481,1.16682 2,2 0.70711,-0.23569 1.13521,-1.16682 1,-2 -0.13519,-0.83318 0,-1.80196 -2,-2 -0.25002,-0.0249 -0.48479,-0.0283 -0.70508,-0.0117 z" style="color:#000000;font-style:normal;font-variant:normal;font-weight:normal;font-stretch:normal;font-size:medium;line-height:normal;font-family:sans-serif;font-variant-ligatures:normal;font-variant-position:normal;font-variant-caps:normal;font-variant-numeric:normal;font-variant-alternates:normal;font-variant-east-asian:normal;font-feature-settings:normal;font-variation-settings:normal;text-indent:0;text-align:start;text-decoration:none;text-decoration-line:none;text-decoration-style:solid;text-decoration-color:#000000;letter-spacing:normal;word-spacing:normal;text-transform:none;writing-mode:lr-tb;direction:ltr;text-orientation:mixed;dominant-baseline:auto;baseline-shift:baseline;text-anchor:start;white-space:normal;shape-padding:0;shape-margin:0;inline-size:0;clip-rule:nonzero;display:inline;overflow:visible;visibility:visible;opacity:1;isolation:auto;mix-blend-mode:normal;color-interpolation:sRGB;color-interpolation-filters:linearRGB;solid-color:#000000;solid-opacity:1;vector-effect:none;fill:#a05060;fill-opacity:1;fill-rule:nonzero;stroke:none;stroke-width:80.0004;stroke-linecap:butt;stroke-linejoin:miter;stroke-miterlimit:4;stroke-dasharray:none;stroke-dashoffset:0;stroke-opacity:1;color-rendering:auto;image-rendering:auto;shape-rendering:auto;text-rendering:auto;enable-background:accumulate;stop-color:#000000" id="path2189"/>
      <path id="path2271" style="color:#000000;font-style:normal;font-variant:normal;font-weight:normal;font-stretch:normal;font-size:medium;line-height:normal;font-family:sans-serif;font-variant-ligatures:normal;font-variant-position:normal;font-variant-caps:normal;font-variant-numeric:normal;font-variant-alternates:normal;font-variant-east-asian:normal;font-feature-settings:normal;font-variation-settings:normal;text-indent:0;text-align:start;text-decoration:none;text-decoration-line:none;text-decoration-style:solid;text-decoration-color:#000000;letter-spacing:normal;word-spacing:normal;text-transform:none;writing-mode:lr-tb;direction:ltr;text-orientation:mixed;dominant-baseline:auto;baseline-shift:baseline;text-anchor:start;white-space:normal;shape-padding:0;shape-margin:0;inline-size:0;clip-rule:nonzero;display:inline;overflow:visible;visibility:visible;opacity:1;isolation:auto;mix-blend-mode:normal;color-interpolation:sRGB;color-interpolation-filters:linearRGB;solid-color:#000000;solid-opacity:1;vector-effect:none;fill:#701c30;fill-opacity:1;fill-rule:nonzero;stroke:none;stroke-width:21.1668;stroke-linecap:butt;stroke-linejoin:round;stroke-miterlimit:4;stroke-dasharray:none;stroke-dashoffset:0;stroke-opacity:1;color-rendering:auto;image-rendering:auto;shape-rendering:auto;text-rendering:auto;enable-background:accumulate;stop-color:#000000" d="m 44.310474,-97.404906 c -0.326133,0.382077 -0.577718,0.751313 -0.949296,1.074354 -0.381251,0.331443 -0.988248,0.576056 -1.817978,0.775663 l 0.0078,0.05013 -0.02016,0.0047 c 0.08584,0.553349 0.15989,1.102881 0.09405,1.642276 -0.06522,0.534369 -0.341111,1.046033 -0.722437,1.53479 0.610288,0.274275 1.124059,0.634656 1.427819,1.107427 0.30493,0.474586 0.448037,1.003903 0.570508,1.513602 l 0.03462,-0.0057 0.0041,0.01344 c -0.0079,0.0011 -0.02756,0.003 -0.03514,0.0041 -5.29e-4,-0.0019 -0.0013,-0.0038 -0.0021,-0.0057 5.29e-4,0.0026 0.0013,0.0052 0.0021,0.0078 0.617659,-0.08842 2.23039,-0.245941 3.502112,0.603581 0.485786,-0.848582 1.41401,-1.849559 2.55075,-2.299084 -0.195691,-0.682514 -0.201184,-1.673894 0.206706,-2.552816 -0.742223,-0.427389 -1.200177,-1.127691 -1.396299,-2.013828 l -0.03927,-0.0057 -0.0031,-0.0217 c -1.952154,-0.283366 -2.511853,-0.75297 -3.414778,-1.427303 z m 0.0956,0.689364 c 0.695521,0.501726 1.493549,0.924517 2.975012,1.183388 0.219078,0.715545 0.626385,1.316541 1.206646,1.763718 -0.258244,0.749057 -0.297641,1.482159 -0.181385,2.125451 -0.952289,0.482806 -1.692302,1.207836 -2.191597,1.956988 -1.149435,-0.562906 -2.255102,-0.616797 -2.954859,-0.541052 -0.113482,-0.417941 -0.210283,-0.84669 -0.484724,-1.273826 -0.286454,-0.445831 -0.768146,-0.70459 -1.234033,-0.97255 0.264409,-0.415401 0.548979,-0.826423 0.609264,-1.320331 0.06131,-0.502256 -0.01622,-0.964856 -0.0801,-1.423686 0.635728,-0.18574 1.243383,-0.371047 1.63866,-0.714685 0.300535,-0.261276 0.488468,-0.522711 0.697113,-0.783415 z m -2.867006,1.161685 c -0.0055,0.0013 -0.01,0.0028 -0.01551,0.0041 5.3e-5,2.65e-4 -5.3e-5,7.94e-4 0,0.0011 0.0059,-0.0019 0.01032,-0.0033 0.01551,-0.0052 z" sodipodi:nodetypes="cscccscscccccccccccccccccccscscsccccc"/>
      <path transform="scale(0.26458333)" d="m 171.96875,-372.00391 a 1.0001001,1.0001001 0 0 0 -0.56836,0.20118 l -19.99805,15 a 1.0001001,1.0001001 0 0 0 -0.35351,1.12109 l 1.0039,2.99805 a 1.0001001,1.0001001 0 0 0 0.94336,0.68554 v 0.9961 a 1.0001001,1.0001001 0 0 0 0.11133,0.45117 l 0.9961,2 a 1.0001001,1.0001001 0 0 0 1.50586,0.33984 l 21.99804,-17 a 1.0001001,1.0001001 0 0 0 0.0977,-1.5 l -1.92774,-1.92578 a 1.0001001,1.0001001 0 0 0 -0.64257,-0.28711 l -0.1836,-0.0156 -0.008,-0.16993 a 1.0001001,1.0001001 0 0 0 -0.28711,-0.65039 l -1.94922,-1.94726 a 1.0001001,1.0001001 0 0 0 -0.73828,-0.29688 z m 15,15 a 1.0001001,1.0001001 0 0 0 -0.59766,0.23047 l -21.00195,17 a 1.0001001,1.0001001 0 0 0 -0.0742,1.48438 l 2,2 a 1.0001001,1.0001001 0 0 0 0.70117,0.28711 1.0001001,1.0001001 0 0 0 0.11133,0.45117 l 0.9961,2 a 1.0001001,1.0001001 0 0 0 1.5,0.34766 l 21,-16.00391 a 1.0001001,1.0001001 0 0 0 0.34765,-1.10742 l -1.0039,-3.00586 a 1.0001001,1.0001001 0 0 0 -0.94532,-0.67774 h -1.0039 v -1.0039 a 1.0001001,1.0001001 0 0 0 -0.28711,-0.70117 l -1.00391,-1.00391 a 1.0001001,1.0001001 0 0 0 -0.73828,-0.29688 z" style="color:#000000;font-style:normal;font-variant:normal;font-weight:normal;font-stretch:normal;font-size:medium;line-height:normal;font-family:sans-serif;font-variant-ligatures:normal;font-variant-position:normal;font-variant-caps:normal;font-variant-numeric:normal;font-variant-alternates:normal;font-variant-east-asian:normal;font-feature-settings:normal;font-variation-settings:normal;text-indent:0;text-align:start;text-decoration:none;text-decoration-line:none;text-decoration-style:solid;text-decoration-color:#000000;letter-spacing:normal;word-spacing:normal;text-transform:none;writing-mode:lr-tb;direction:ltr;text-orientation:mixed;dominant-baseline:auto;baseline-shift:baseline;text-anchor:start;white-space:normal;shape-padding:0;shape-margin:0;inline-size:0;clip-rule:nonzero;display:inline;overflow:visible;visibility:visible;isolation:auto;mix-blend-mode:normal;color-interpolation:sRGB;color-interpolation-filters:linearRGB;solid-color:#000000;solid-opacity:1;vector-effect:none;fill:#102c64;fill-opacity:1;fill-rule:nonzero;stroke:none;stroke-width:40.0003;stroke-linecap:butt;stroke-linejoin:round;stroke-miterlimit:4;stroke-dasharray:none;stroke-dashoffset:0;stroke-opacity:1;color-rendering:auto;image-rendering:auto;shape-rendering:auto;text-rendering:auto;enable-background:accumulate;stop-color:#000000" id="path2247"/>
      <path id="path2230" style="opacity:1;fill:#5060d4;fill-opacity:1;stroke:none;stroke-width:5.2917px;stroke-linecap:butt;stroke-linejoin:miter;stroke-opacity:1" d="m 45.508333,-98.160417 -5.291667,3.96875 0.264583,0.79375 h 0.264584 v 0.529167 l 0.264583,0.529166 5.820833,-4.497916 -0.510563,-0.510564 -0.283187,-0.0186 -0.01447,-0.279053 z m 3.96875,3.96875 -5.55625,4.497917 0.529166,0.529166 h 0.264584 V -88.9 l 0.264583,0.529166 5.55625,-4.233333 -0.264583,-0.79375 h -0.529167 v -0.529167 z" sodipodi:nodetypes="cccccccccccccccccccccc"/>
      <path transform="scale(0.26458333)" d="m 172,-371 -20,15 0.5332,1.59961 L 172,-369 l 1.94531,1.94531 L 174,-366 l 1.07031,0.0703 0.80078,0.80078 L 177,-366 175.07031,-367.92969 174,-368 l -0.0547,-1.05469 z m 15,15 -21,17 1.10547,1.10547 L 187,-354 l 1,1 v -2 z m 1,3 v 2 h 2 l 0.46875,1.4043 L 191,-350 l -1,-3 z" style="opacity:1;fill:#5870dc;fill-opacity:1;stroke:none;stroke-width:20.0001px;stroke-linecap:butt;stroke-linejoin:miter;stroke-opacity:1" id="path2240"/>
      <path transform="scale(0.26458333)" d="M 175.87109,-367.12891 155,-351 l -1,-2 v 2 l 1,2 22,-17 z M 154,-353 v -2 h -1 l -0.4668,-1.40039 L 152,-356 l 1,3 z m 36.46875,1.4043 L 170,-336 l -1,-2 v -1 h -1 l -0.89453,-0.89453 L 166,-339 l 2,2 h 1 v 1 l 1,2 21,-16 z" style="opacity:1;fill:#3c48a8;fill-opacity:1;stroke:none;stroke-width:20.0001px;stroke-linecap:butt;stroke-linejoin:miter;stroke-opacity:1" id="path2237"/>
    </g>
  </g>
</svg>