<?xml version="1.0" encoding="UTF-8" standalone="no"?>
<svg
   xmlns:dc="http://purl.org/dc/elements/1.1/"
   xmlns:cc="http://creativecommons.org/ns#"
   xmlns:rdf="http://www.w3.org/1999/02/22-rdf-syntax-ns#"
   xmlns:svg="http://www.w3.org/2000/svg"
   xmlns="http://www.w3.org/2000/svg"
   xmlns:sodipodi="http://sodipodi.sourceforge.net/DTD/sodipodi-0.dtd"
   xmlns:inkscape="http://www.inkscape.org/namespaces/inkscape"
   sodipodi:docname="orange_wall.svg"
   inkscape:version="1.0 (4035a4fb49, 2020-05-01)"
   id="svg11767"
   version="1.1"
   viewBox="0 0 0.26458332 0.47625285"
   height="0.47625285mm"
   width="0.26458332mm">
  <defs
     id="defs11761" />
  <sodipodi:namedview
     inkscape:document-rotation="0"
     inkscape:window-maximized="1"
     inkscape:window-y="-8"
     inkscape:window-x="-8"
     inkscape:window-height="1057"
     inkscape:window-width="1920"
     showgrid="false"
     inkscape:current-layer="layer1"
     inkscape:document-units="mm"
     inkscape:cy="1.4515409"
     inkscape:cx="1.2254657"
     inkscape:zoom="256"
     inkscape:pageshadow="2"
     inkscape:pageopacity="0.0"
     borderopacity="1.0"
     bordercolor="#666666"
     pagecolor="#ffffff"
     id="base" />
  <metadata
     id="metadata11764">
    <rdf:RDF>
      <cc:Work
         rdf:about="">
        <dc:format>image/svg+xml</dc:format>
        <dc:type
           rdf:resource="http://purl.org/dc/dcmitype/StillImage" />
        <dc:title />
      </cc:Work>
    </rdf:RDF>
  </metadata>
  <g
     transform="translate(247.57518,-91.131537)"
     id="layer1"
     inkscape:groupmode="layer"
     inkscape:label="Layer 1">
    <g
       style="stroke-width:20.0029"
       transform="matrix(0.05006407,0,0,0.05007875,-254.93998,154.61866)"
       id="g8948">
      <rect
         style="opacity:1;fill:#000000;fill-opacity:0.18;fill-rule:nonzero;stroke:none;stroke-width:78.8045;stroke-linecap:round;stroke-linejoin:round;stroke-miterlimit:4;stroke-dasharray:none;stroke-dashoffset:0;stroke-opacity:1;paint-order:markers stroke fill;filter:url(#filter1957)"
         id="rect19227-0-4-9-2-7-4-7-0-5-4-9"
         width="5.2916665"
         height="3.174943"
         x="147.10834"
         y="-1261.3958"
         ry="1.0583171" />
      <path
         inkscape:connector-curvature="0"
         style="color:#000000;font-style:normal;font-variant:normal;font-weight:normal;font-stretch:normal;font-size:medium;line-height:normal;font-family:sans-serif;font-variant-ligatures:normal;font-variant-position:normal;font-variant-caps:normal;font-variant-numeric:normal;font-variant-alternates:normal;font-feature-settings:normal;text-indent:0;text-align:start;text-decoration:none;text-decoration-line:none;text-decoration-style:solid;text-decoration-color:#000000;letter-spacing:normal;word-spacing:normal;text-transform:none;writing-mode:lr-tb;direction:ltr;text-orientation:mixed;dominant-baseline:auto;baseline-shift:baseline;text-anchor:start;white-space:normal;shape-padding:0;clip-rule:nonzero;display:inline;overflow:visible;visibility:visible;opacity:1;isolation:auto;mix-blend-mode:normal;color-interpolation:sRGB;color-interpolation-filters:linearRGB;solid-color:#000000;solid-opacity:1;vector-effect:none;fill:#a44010;fill-opacity:1;fill-rule:nonzero;stroke:none;stroke-width:80.0117;stroke-linecap:butt;stroke-linejoin:miter;stroke-miterlimit:4;stroke-dasharray:none;stroke-dashoffset:0;stroke-opacity:1;paint-order:markers stroke fill;color-rendering:auto;image-rendering:auto;shape-rendering:auto;text-rendering:auto;enable-background:accumulate"
         d="m 561.99805,-4791.4805 c -3.2894,0 -6.00196,2.7107 -6.00196,6 v 17.9981 c 0,3.2893 2.71256,6.0019 6.00196,6.0019 H 570 c 3.28944,0 6.00195,-2.7126 6.00195,-6.0019 v -17.9981 c 0,-3.2893 -2.71251,-6 -6.00195,-6 z"
         transform="scale(0.26458333)"
         id="rect8934" />
      <rect
         ry="1.0583415"
         y="-1267.2167"
         x="147.6375"
         height="6.8791666"
         width="4.2333331"
         id="rect8910"
         style="opacity:1;fill:#f06828;fill-opacity:1;fill-rule:nonzero;stroke:none;stroke-width:21.1698;stroke-linecap:butt;stroke-linejoin:miter;stroke-miterlimit:4;stroke-dasharray:none;stroke-dashoffset:0;stroke-opacity:1;paint-order:markers stroke fill" />
      <path
         transform="matrix(0.26424473,0,0,0.2641673,147.10731,-1267.7459)"
         d="m 6.0117188,2.0039062 c -1.6641392,0 -3.0850011,1.0043565 -3.6914063,2.4433594 -0.1010661,0.2398146 -0.179245,0.490683 -0.2324219,0.7519532 -0.053423,0.2618722 -0.082031,0.5324147 -0.082031,0.8105468 v 18.0273434 0.002 c 0,2.219427 1.7870072,4.00586 4.0058594,4.00586 h 1.0019531 c -2.2188596,0 -4.0058594,-1.788323 -4.0058594,-4.007813 V 6.0097656 c 0,-2.2194899 1.7869998,-4.0058594 4.0058594,-4.0058594 z m 7.0097652,0 c 2.21886,0 4.003907,1.7863695 4.003907,4.0058594 V 24.037109 c 0,2.21949 -1.785047,4.007813 -4.003907,4.007813 h 1 c 1.109426,0 2.110054,-0.44776 2.833985,-1.171875 0.180983,-0.181029 0.346565,-0.378734 0.490234,-0.591797 0.43066,-0.6387 0.681242,-1.410637 0.681641,-2.242188 V 6.0097656 c 0,-0.832427 -0.250633,-1.6048972 -0.681641,-2.2441406 C 17.202034,3.5525439 17.036452,3.3548687 16.855469,3.1738281 16.131538,2.4496658 15.13091,2.0039062 14.021484,2.0039062 Z"
         style="opacity:1;fill:#f27e47;fill-opacity:1;fill-rule:nonzero;stroke:none;stroke-width:80.1261;stroke-linecap:butt;stroke-linejoin:miter;stroke-miterlimit:4;stroke-dasharray:none;stroke-dashoffset:0;stroke-opacity:1;paint-order:markers stroke fill"
         id="rect838" />
      <path
         inkscape:connector-curvature="0"
         style="opacity:1;fill:#a04820;fill-opacity:1;fill-rule:nonzero;stroke:none;stroke-width:756.016;stroke-linecap:butt;stroke-linejoin:miter;stroke-miterlimit:4;stroke-dasharray:none;stroke-dashoffset:0;stroke-opacity:1;paint-order:markers stroke fill"
         d="m 558,-4772.4805 v 2 h 3 v -2 z m 13,0 v 2 h 3 v -2 z m -13,4 v 1 c 0,0.3475 0.0562,0.679 0.13867,1 H 561 v -2 z m 13,0 v 2 h 2.86133 c 0.0825,-0.321 0.13867,-0.6525 0.13867,-1 v -1 z"
         transform="scale(0.26458333)"
         id="rect8914" />
      <path
         transform="matrix(0.26424473,0,0,0.2641673,147.10731,-1267.7459)"
         d="m 2.0058594,19.029297 v 2.003906 h 1.0019531 v -2.003906 z m 15.0195316,0 v 2.003906 h 1.001953 V 19.029297 Z M 2.0058594,23.037109 v 1 c 0,0.217939 0.031289,0.428407 0.064453,0.636719 0.020515,0.115133 0.041953,0.229488 0.070312,0.341797 0.00197,0.0079 0.00384,0.01558 0.00586,0.02344 h 1.0019531 c -0.082678,-0.32163 -0.140625,-0.653803 -0.140625,-1.001953 v -1 z m 15.0195316,0 v 1 c 0,0.34815 -0.05795,0.680323 -0.140625,1.001953 h 1.001953 c 0.002,-0.0079 0.0039,-0.01556 0.0059,-0.02344 0.02837,-0.112309 0.0498,-0.226664 0.07031,-0.341797 0.03316,-0.208312 0.06445,-0.41878 0.06445,-0.636719 v -1 z"
         style="opacity:1;fill:#ae6340;fill-opacity:1;fill-rule:nonzero;stroke:none;stroke-width:757.096;stroke-linecap:butt;stroke-linejoin:miter;stroke-miterlimit:4;stroke-dasharray:none;stroke-dashoffset:0;stroke-opacity:1;paint-order:markers stroke fill"
         id="path842" />
      <rect
         style="opacity:1;fill:#ffac38;fill-opacity:1;fill-rule:nonzero;stroke:none;stroke-width:200.029;stroke-linecap:butt;stroke-linejoin:miter;stroke-miterlimit:4;stroke-dasharray:none;stroke-dashoffset:0;stroke-opacity:1;paint-order:markers stroke fill"
         id="rect8912"
         width="4.2333374"
         height="4.2333417"
         x="147.6375"
         y="-1267.2167"
         ry="1.0583415" />
      <circle
         r="0.79374999"
         cy="-1265.8938"
         cx="150.54791"
         id="circle8920"
         style="opacity:1;fill:#f8cc8c;fill-opacity:1;fill-rule:nonzero;stroke:none;stroke-width:200.029;stroke-linecap:butt;stroke-linejoin:miter;stroke-miterlimit:4;stroke-dasharray:none;stroke-dashoffset:0;stroke-opacity:1;paint-order:markers stroke fill" />
      <path
         transform="matrix(0.26424473,0,0,0.2641673,147.10731,-1267.7459)"
         d="m 6.0117188,2.0039062 c -1.6641392,0 -3.0850011,1.0043565 -3.6914063,2.4433594 -0.1010661,0.2398146 -0.179245,0.490683 -0.2324219,0.7519532 -0.053423,0.2618722 -0.082031,0.5324147 -0.082031,0.8105468 v 8.0117184 c 0,1.013411 0.3859715,1.92669 1.0019531,2.63086 V 6.0097656 c 0,-2.2194899 1.7869998,-4.0058594 4.0058594,-4.0058594 z m 7.0097652,0 c 2.21886,0 4.003907,1.7863695 4.003907,4.0058594 V 16.652344 c 0.616151,-0.704211 1.001953,-1.617294 1.001953,-2.63086 V 6.0097656 c 0,-0.832427 -0.250633,-1.6048972 -0.681641,-2.2441406 C 17.202034,3.5525439 17.036452,3.3548687 16.855469,3.1738281 16.131538,2.4496658 15.13091,2.0039062 14.021484,2.0039062 Z"
         style="opacity:1;fill:#ffb855;fill-opacity:1;fill-rule:nonzero;stroke:none;stroke-width:757.095;stroke-linecap:butt;stroke-linejoin:miter;stroke-miterlimit:4;stroke-dasharray:none;stroke-dashoffset:0;stroke-opacity:1;paint-order:markers stroke fill"
         id="rect840" />
    </g>
  </g>
</svg>
