<?xml version="1.0" encoding="UTF-8" standalone="no"?>
<svg
   sodipodi:docname="player_gray.svg"
   inkscape:version="1.1 (c68e22c387, 2021-05-23)"
   id="svg17266"
   version="1.1"
   viewBox="0 0 0.44979229 0.44978896"
   height="0.44978896mm"
   width="0.4497923mm"
   xmlns:inkscape="http://www.inkscape.org/namespaces/inkscape"
   xmlns:sodipodi="http://sodipodi.sourceforge.net/DTD/sodipodi-0.dtd"
   xmlns="http://www.w3.org/2000/svg"
   xmlns:svg="http://www.w3.org/2000/svg"
   xmlns:rdf="http://www.w3.org/1999/02/22-rdf-syntax-ns#"
   xmlns:cc="http://creativecommons.org/ns#"
   xmlns:dc="http://purl.org/dc/elements/1.1/">
  <defs
     id="defs17260" />
  <sodipodi:namedview
     inkscape:document-rotation="0"
     inkscape:window-maximized="1"
     inkscape:window-y="-8"
     inkscape:window-x="-8"
     inkscape:window-height="1057"
     inkscape:window-width="1920"
     showgrid="false"
     inkscape:current-layer="layer1"
     inkscape:document-units="mm"
     inkscape:cy="0.6333183"
     inkscape:cx="2.0518724"
     inkscape:zoom="253.42707"
     inkscape:pageshadow="2"
     inkscape:pageopacity="0.0"
     borderopacity="1.0"
     bordercolor="#666666"
     pagecolor="#ffffff"
     id="base"
     inkscape:pagecheckerboard="0" />
  <metadata
     id="metadata17263">
    <rdf:RDF>
      <cc:Work
         rdf:about="">
        <dc:format>image/svg+xml</dc:format>
        <dc:type
           rdf:resource="http://purl.org/dc/dcmitype/StillImage" />
        <dc:title />
      </cc:Work>
    </rdf:RDF>
  </metadata>
  <g
     transform="translate(339.75673,-8.3430641)"
     id="layer1"
     inkscape:groupmode="layer"
     inkscape:label="Layer 1">
    <g
       id="g43997"
       transform="matrix(0.0499997,0,0,0.0499997,-408.2834,13.026161)">
      <path
         id="path11845"
         style="opacity:1;fill:#3c3c34;fill-opacity:1;stroke:none;stroke-width:1.05833;stroke-linejoin:round"
         d="m 1375.0396,-93.6625 a 4.4978941,4.4979177 0 0 0 -4.498,4.497917 4.4978941,4.4979177 0 0 0 4.498,4.497916 4.4978941,4.4979177 0 0 0 4.4979,-4.497916 4.4978941,4.4979177 0 0 0 -4.4979,-4.497917 z m 0,0.529167 a 3.9687862,3.9688066 0 0 1 3.9687,3.96875 3.9687862,3.9688066 0 0 1 -3.9687,3.968749 3.9687862,3.9688066 0 0 1 -3.9688,-3.968749 3.9687862,3.9688066 0 0 1 3.9688,-3.96875 z" />
      <path
         id="path11847"
         style="opacity:1;fill:#d8d8d0;fill-opacity:1;stroke:none;stroke-width:0.933834;stroke-linejoin:round"
         d="m 1375.0396,-93.133333 a 3.9687862,3.9688066 0 0 0 -3.9688,3.96875 3.9687862,3.9688066 0 0 0 3.9688,3.968749 3.9687862,3.9688066 0 0 0 3.9687,-3.968749 3.9687862,3.9688066 0 0 0 -3.9687,-3.96875 z m 0,0.79375 a 3.1750362,3.1750526 0 0 1 3.175,3.175 3.1750362,3.1750526 0 0 1 -3.175,3.174999 3.1750362,3.1750526 0 0 1 -3.175,-3.174999 3.1750362,3.1750526 0 0 1 3.175,-3.175 z" />
      <path
         id="path11849"
         style="opacity:1;fill:#707068;fill-opacity:0.501961;stroke-width:0.747069;stroke-linejoin:round"
         d="m 1378.2146,-89.164582 a 3.1750362,3.1750526 0 0 1 -3.175,3.175052 3.1750362,3.1750526 0 0 1 -3.1751,-3.175052 3.1750362,3.1750526 0 0 1 3.1751,-3.175053 3.1750362,3.1750526 0 0 1 3.175,3.175053 z" />
    </g>
  </g>
</svg>
