<?xml version="1.0" encoding="UTF-8" standalone="no"?>
<!-- Created with Inkscape (http://www.inkscape.org/) -->

<svg
   width="0.4497923mm"
   height="0.44978875mm"
   viewBox="0 0 0.4497923 0.44978875"
   version="1.1"
   id="svg112284"
   inkscape:version="1.1 (c68e22c387, 2021-05-23)"
   sodipodi:docname="player_white.svg"
   xmlns:inkscape="http://www.inkscape.org/namespaces/inkscape"
   xmlns:sodipodi="http://sodipodi.sourceforge.net/DTD/sodipodi-0.dtd"
   xmlns="http://www.w3.org/2000/svg"
   xmlns:svg="http://www.w3.org/2000/svg">
  <sodipodi:namedview
     id="namedview112286"
     pagecolor="#ffffff"
     bordercolor="#999999"
     borderopacity="1"
     inkscape:pageshadow="0"
     inkscape:pageopacity="0"
     inkscape:pagecheckerboard="0"
     inkscape:document-units="mm"
     showgrid="false"
     inkscape:zoom="70.310063"
     inkscape:cx="0.65424489"
     inkscape:cy="1.0311468"
     inkscape:window-width="1920"
     inkscape:window-height="1057"
     inkscape:window-x="-8"
     inkscape:window-y="-8"
     inkscape:window-maximized="1"
     inkscape:current-layer="layer1" />
  <defs
     id="defs112281" />
  <g
     inkscape:label="Layer 1"
     inkscape:groupmode="layer"
     id="layer1"
     transform="translate(-115.91845,-146.91271)">
    <g
       id="g39030"
       transform="matrix(0.0499997,0,0,0.0499997,47.3521,152.19112)">
      <path
         id="path17795-0-8"
         style="fill:#000000;fill-opacity:0.442478;stroke:none;stroke-width:1.05833;stroke-linejoin:round"
         d="m 1375.8333,-105.5688 a 4.4978941,4.4979177 0 0 0 -4.498,4.49791 4.4978941,4.4979177 0 0 0 4.498,4.497919 4.4978941,4.4979177 0 0 0 4.4979,-4.497919 4.4978941,4.4979177 0 0 0 -4.4979,-4.49791 z m 0,0.52916 a 3.9687862,3.9688066 0 0 1 3.9687,3.96875 3.9687862,3.9688066 0 0 1 -3.9687,3.968752 3.9687862,3.9688066 0 0 1 -3.9688,-3.968752 3.9687862,3.9688066 0 0 1 3.9688,-3.96875 z" />
      <path
         id="path17797-4-8"
         style="fill:#ffffff;fill-opacity:0.952802;stroke:none;stroke-width:0.933834;stroke-linejoin:round"
         d="m 1375.8333,-105.03964 a 3.9687862,3.9688066 0 0 0 -3.9688,3.96875 3.9687862,3.9688066 0 0 0 3.9688,3.968752 3.9687862,3.9688066 0 0 0 3.9687,-3.968752 3.9687862,3.9688066 0 0 0 -3.9687,-3.96875 z m 0,0.79375 a 3.1750362,3.1750526 0 0 1 3.175,3.175 3.1750362,3.1750526 0 0 1 -3.175,3.175002 3.1750362,3.1750526 0 0 1 -3.175,-3.175002 3.1750362,3.1750526 0 0 1 3.175,-3.175 z" />
      <path
         id="path17799-2-2"
         style="fill:#ffffff;fill-opacity:0.235988;stroke-width:0.747069;stroke-linejoin:round"
         d="m 1379.0083,-101.07088 a 3.1750362,3.1750526 0 0 1 -3.175,3.175046 3.1750362,3.1750526 0 0 1 -3.1751,-3.175046 3.1750362,3.1750526 0 0 1 3.1751,-3.17506 3.1750362,3.1750526 0 0 1 3.175,3.17506 z" />
    </g>
  </g>
</svg>
