<?xml version="1.0" ?><!-- Created with Inkscape (http://www.inkscape.org/) --><svg xmlns:dc="http://purl.org/dc/elements/1.1/" xmlns:cc="http://creativecommons.org/ns#" xmlns:rdf="http://www.w3.org/1999/02/22-rdf-syntax-ns#" xmlns:svg="http://www.w3.org/2000/svg" xmlns="http://www.w3.org/2000/svg" xmlns:sodipodi="http://sodipodi.sourceforge.net/DTD/sodipodi-0.dtd" xmlns:inkscape="http://www.inkscape.org/namespaces/inkscape" width="0.3042708mm" height="0.48948297mm" viewBox="0 0 0.3042708 0.48948297" version="1.1" id="svg17244" inkscape:version="0.92.4 (5da689c313, 2019-01-14)" sodipodi:docname="pot.svg">
  <defs id="defs17238"/>
  <sodipodi:namedview id="base" pagecolor="#ffffff" bordercolor="#666666" borderopacity="1.0" inkscape:pageopacity="0.0" inkscape:pageshadow="2" inkscape:zoom="256" inkscape:cx="0.5883074" inkscape:cy="0.16890025" inkscape:document-units="mm" inkscape:current-layer="layer1" showgrid="false" inkscape:window-width="1920" inkscape:window-height="1057" inkscape:window-x="-8" inkscape:window-y="-8" inkscape:window-maximized="1" inkscape:snap-intersection-paths="true" inkscape:object-paths="true" inkscape:snap-midpoints="true" inkscape:snap-smooth-nodes="true" inkscape:snap-object-midpoints="true"/>
  <metadata id="metadata17241">
    <rdf:RDF>
      <cc:Work rdf:about="">
        <dc:format>image/svg+xml</dc:format>
        <dc:type rdf:resource="http://purl.org/dc/dcmitype/StillImage"/>
        <dc:title/>
      </cc:Work>
    </rdf:RDF>
  </metadata>
  <g inkscape:label="Layer 1" inkscape:groupmode="layer" id="layer1" transform="translate(116.43556,-36.821969)">
    <g transform="matrix(0.05000005,0,0,0.05000005,-129.80362,102.38558)" id="g17158">
      <ellipse style="opacity:1;fill:#000000;fill-opacity:0.18000004;fill-rule:nonzero;stroke:none;stroke-width:1.05833328;stroke-linecap:round;stroke-linejoin:round;stroke-miterlimit:4;stroke-dasharray:none;stroke-dashoffset:0;stroke-opacity:1;paint-order:markers fill stroke" id="path6763-8-9-5" cx="270.40417" cy="-1304.1271" rx="2.6458435" ry="2.6458249"/>
      <path inkscape:connector-curvature="0" id="ellipse16806" d="m 270.13958,-1311.2709 c -0.17164,0 -0.3298,0.05 -0.4594,0.1246 -4.5e-4,2e-4 -0.001,2e-4 -0.002,5e-4 -0.69316,0.2246 -1.23336,0.7528 -1.43248,1.433 -0.13568,0.2697 -0.19778,0.566 -0.21188,0.8651 -0.42836,0.6344 -0.67212,1.4035 -0.67283,2.2065 a 0.39691468,0.39691468 0 0 0 0,6e-4 c 0,1.9322 1.3241,3.5719 3.0427,3.5718 1.71866,10e-5 3.04271,-1.6396 3.04271,-3.5718 a 0.39691468,0.39691468 0 0 0 0,-6e-4 c -8.4e-4,-0.4531 -0.0824,-0.8995 -0.22632,-1.3213 0.0129,-0.095 0.0571,-0.1845 0.0269,-0.2889 a 0.39691468,0.39691468 0 0 0 -0.11213,-0.1809 0.39691468,0.39691468 0 0 0 0.0569,-0.2185 c -0.008,-0.2186 -0.1052,-0.3925 -0.2522,-0.5235 -0.0695,-0.062 -0.16147,-0.1126 -0.26252,-0.1442 -0.0371,-0.1324 -0.0527,-0.2704 -0.11472,-0.3943 -0.19913,-0.6808 -0.74052,-1.209 -1.43402,-1.4335 -0.1297,-0.074 -0.2881,-0.1246 -0.45992,-0.1246 h -0.26459 z" style="opacity:1;fill:#1c3450;fill-opacity:1;fill-rule:nonzero;stroke:none;stroke-width:0.79374999;stroke-linecap:round;stroke-linejoin:round;stroke-miterlimit:4;stroke-dasharray:none;stroke-dashoffset:0;stroke-opacity:1;paint-order:markers stroke fill"/>
      <ellipse style="opacity:1;fill:#6894d4;fill-opacity:1;fill-rule:nonzero;stroke:none;stroke-width:0.4381769;stroke-linecap:round;stroke-linejoin:round;stroke-miterlimit:4;stroke-dasharray:none;stroke-dashoffset:0;stroke-opacity:1;paint-order:markers stroke fill" id="ellipse16721" cx="270.40417" cy="-1306.6405" rx="2.6458251" ry="3.1749945"/>
      <path inkscape:connector-curvature="0" id="ellipse16723" d="m 270.40416,-1309.8156 a 2.6458251,3.1749944 0 0 0 -0.17518,0.01 2.4253518,2.9104262 0 0 0 -2.24999,2.9027 2.4253518,2.9104262 0 0 0 2.42517,2.9104 2.4253518,2.9104262 0 0 0 2.42517,-2.9104 2.4253518,2.9104262 0 0 0 -2.18074,-2.8954 2.6458251,3.1749944 0 0 0 -0.002,-6e-4 2.4253518,2.9104262 0 0 0 -0.24236,-0.014 z" style="opacity:1;fill:#2c88dc;fill-opacity:1;fill-rule:nonzero;stroke:none;stroke-width:0.40166414;stroke-linecap:round;stroke-linejoin:round;stroke-miterlimit:4;stroke-dasharray:none;stroke-dashoffset:0;stroke-opacity:1;paint-order:markers stroke fill"/>
      <path inkscape:connector-curvature="0" id="path16725" d="m 268.94483,-1309.2865 a 2.6458251,3.1749944 0 0 0 -1.15033,2.1467 c 0.27331,0.2041 0.75758,1.0501 0.75758,1.5575 0.79375,0 1.32292,0.2646 1.85208,0.5292 0.52917,-0.2646 1.05834,-0.5292 1.85209,-0.5292 0,-0.5084 0.48614,-1.3571 0.75911,-1.5591 a 2.6458251,3.1749944 0 0 0 -1.15186,-2.1451 h -1.45934 z" style="opacity:1;fill:#d4988c;fill-opacity:1;stroke:none;stroke-width:0.26458332px;stroke-linecap:butt;stroke-linejoin:miter;stroke-opacity:1"/>
      <path inkscape:connector-curvature="0" id="ellipse16779" d="m 271.33743,-1309.6074 a 2.1166713,4.8947995 0 0 1 0.12507,1.6438 2.1166713,4.8947995 0 0 1 -1.27487,4.485 2.6458251,3.1749944 0 0 0 0.21653,0.013 2.6458251,3.1749944 0 0 0 2.64584,-3.175 2.6458251,3.1749944 0 0 0 -1.71257,-2.9668 z" style="opacity:1;fill:#4f86d5;fill-opacity:1;fill-rule:nonzero;stroke:none;stroke-width:0.4381769;stroke-linecap:round;stroke-linejoin:round;stroke-miterlimit:4;stroke-dasharray:none;stroke-dashoffset:0;stroke-opacity:1;paint-order:markers stroke fill"/>
      <path inkscape:connector-curvature="0" id="path16790" d="m 271.34002,-1309.5867 a 2.1166713,4.8947995 0 0 1 0.12248,1.6231 2.1166713,4.8947995 0 0 1 -0.87953,3.9579 2.4253518,2.9104262 0 0 0 2.24636,-2.8995 2.4253518,2.9104262 0 0 0 -1.48931,-2.6815 z" style="opacity:1;fill:#227bcc;fill-opacity:1;fill-rule:nonzero;stroke:none;stroke-width:0.4381769;stroke-linecap:round;stroke-linejoin:round;stroke-miterlimit:4;stroke-dasharray:none;stroke-dashoffset:0;stroke-opacity:1;paint-order:markers stroke fill"/>
      <path inkscape:connector-curvature="0" id="path16783" d="m 271.37981,-1309.2865 a 2.1166713,4.8947995 0 0 1 0.0827,1.3229 2.1166713,4.8947995 0 0 1 -0.32248,2.5803 c 0.32155,-0.1169 0.67786,-0.199 1.11623,-0.199 0,-0.5073 0.48376,-1.3533 0.75705,-1.5575 a 2.6458251,3.1749944 0 0 0 -0.006,-0.045 2.6458251,3.1749944 0 0 0 -0.0346,-0.1964 2.6458251,3.1749944 0 0 0 -0.0264,-0.124 2.6458251,3.1749944 0 0 0 -0.046,-0.1721 2.6458251,3.1749944 0 0 0 -0.0398,-0.1302 2.6458251,3.1749944 0 0 0 -0.0574,-0.1597 2.6458251,3.1749944 0 0 0 -0.0543,-0.1333 2.6458251,3.1749944 0 0 0 -0.0641,-0.139 2.6458251,3.1749944 0 0 0 -0.0723,-0.1411 2.6458251,3.1749944 0 0 0 -0.0708,-0.1214 2.6458251,3.1749944 0 0 0 -0.0858,-0.1354 2.6458251,3.1749944 0 0 0 -0.0739,-0.1034 2.6458251,3.1749944 0 0 0 -0.1101,-0.1411 2.6458251,3.1749944 0 0 0 -0.0697,-0.08 2.6458251,3.1749944 0 0 0 -0.12713,-0.1339 2.6458251,3.1749944 0 0 0 -0.0723,-0.068 2.6458251,3.1749944 0 0 0 -0.1442,-0.1235 z" style="opacity:1;fill:#c97e6e;fill-opacity:1;stroke:none;stroke-width:0.26458332px;stroke-linecap:butt;stroke-linejoin:miter;stroke-opacity:1"/>
      <path inkscape:connector-curvature="0" id="path16942" d="m 272.00304,-1309.163 a 2.645825,3.1749944 0 0 0 -0.13954,-0.1235 h -0.005 a 2.6458251,3.1749944 0 0 1 0.1442,0.1235 z" style="color:#000000;font-style:normal;font-variant:normal;font-weight:normal;font-stretch:normal;font-size:medium;line-height:normal;font-family:sans-serif;font-variant-ligatures:normal;font-variant-position:normal;font-variant-caps:normal;font-variant-numeric:normal;font-variant-alternates:normal;font-feature-settings:normal;text-indent:0;text-align:start;text-decoration:none;text-decoration-line:none;text-decoration-style:solid;text-decoration-color:#000000;letter-spacing:normal;word-spacing:normal;text-transform:none;writing-mode:lr-tb;direction:ltr;text-orientation:mixed;dominant-baseline:auto;baseline-shift:baseline;text-anchor:start;white-space:normal;shape-padding:0;clip-rule:nonzero;display:inline;overflow:visible;visibility:visible;opacity:1;isolation:auto;mix-blend-mode:normal;color-interpolation:sRGB;color-interpolation-filters:linearRGB;solid-color:#000000;solid-opacity:1;vector-effect:none;fill:#d8957c;fill-opacity:1;fill-rule:nonzero;stroke:none;stroke-width:0.52916664;stroke-linecap:butt;stroke-linejoin:miter;stroke-miterlimit:4;stroke-dasharray:none;stroke-dashoffset:0;stroke-opacity:1;color-rendering:auto;image-rendering:auto;shape-rendering:auto;text-rendering:auto;enable-background:accumulate"/>
      <path inkscape:connector-curvature="0" id="path16940" d="m 273.0133,-1307.1388 c 5.5e-4,-4e-4 0.002,0 0.002,0 a 2.645825,3.1749944 0 0 0 -0.008,-0.043 2.6458251,3.1749944 0 0 1 0.006,0.046 z" style="color:#000000;font-style:normal;font-variant:normal;font-weight:normal;font-stretch:normal;font-size:medium;line-height:normal;font-family:sans-serif;font-variant-ligatures:normal;font-variant-position:normal;font-variant-caps:normal;font-variant-numeric:normal;font-variant-alternates:normal;font-feature-settings:normal;text-indent:0;text-align:start;text-decoration:none;text-decoration-line:none;text-decoration-style:solid;text-decoration-color:#000000;letter-spacing:normal;word-spacing:normal;text-transform:none;writing-mode:lr-tb;direction:ltr;text-orientation:mixed;dominant-baseline:auto;baseline-shift:baseline;text-anchor:start;white-space:normal;shape-padding:0;clip-rule:nonzero;display:inline;overflow:visible;visibility:visible;opacity:1;isolation:auto;mix-blend-mode:normal;color-interpolation:sRGB;color-interpolation-filters:linearRGB;solid-color:#000000;solid-opacity:1;vector-effect:none;fill:#d8957c;fill-opacity:1;fill-rule:nonzero;stroke:none;stroke-width:0.52916664;stroke-linecap:butt;stroke-linejoin:miter;stroke-miterlimit:4;stroke-dasharray:none;stroke-dashoffset:0;stroke-opacity:1;color-rendering:auto;image-rendering:auto;shape-rendering:auto;text-rendering:auto;enable-background:accumulate"/>
      <path inkscape:connector-curvature="0" id="path16938" d="m 271.37981,-1309.2865 h -0.97565 -1.45933 a 2.645825,3.1749944 0 0 0 -1.15033,2.1467 c 0.27331,0.2041 0.75758,1.0501 0.75758,1.5575 0.29702,0 0.55697,0.037 0.79375,0.097 v -2.2128 -0.2656 h 2.11667 a 2.1166713,4.8947995 0 0 0 -0.002,-0.2087 2.1166713,4.8947995 0 0 0 -0.002,-0.055 h -2.37712 v 0.5296 1.9167 c -0.0994,-0.016 -0.199,-0.031 -0.30644,-0.038 -0.0449,-0.2633 -0.136,-0.5288 -0.26406,-0.7767 -0.12853,-0.2487 -0.27681,-0.4213 -0.43048,-0.5824 0.11796,-0.7553 0.4743,-1.4132 0.98238,-1.8433 h 1.34151 1.0051 a 2.1166713,4.8947995 0 0 0 -0.0103,-0.1173 2.1166713,4.8947995 0 0 0 -0.0191,-0.1473 z" style="color:#000000;font-style:normal;font-variant:normal;font-weight:normal;font-stretch:normal;font-size:medium;line-height:normal;font-family:sans-serif;font-variant-ligatures:normal;font-variant-position:normal;font-variant-caps:normal;font-variant-numeric:normal;font-variant-alternates:normal;font-feature-settings:normal;text-indent:0;text-align:start;text-decoration:none;text-decoration-line:none;text-decoration-style:solid;text-decoration-color:#000000;letter-spacing:normal;word-spacing:normal;text-transform:none;writing-mode:lr-tb;direction:ltr;text-orientation:mixed;dominant-baseline:auto;baseline-shift:baseline;text-anchor:start;white-space:normal;shape-padding:0;clip-rule:nonzero;display:inline;overflow:visible;visibility:visible;opacity:1;isolation:auto;mix-blend-mode:normal;color-interpolation:sRGB;color-interpolation-filters:linearRGB;solid-color:#000000;solid-opacity:1;vector-effect:none;fill:#dda28d;fill-opacity:1;fill-rule:nonzero;stroke:none;stroke-width:0.52916664;stroke-linecap:butt;stroke-linejoin:miter;stroke-miterlimit:4;stroke-dasharray:none;stroke-dashoffset:0;stroke-opacity:1;color-rendering:auto;image-rendering:auto;shape-rendering:auto;text-rendering:auto;enable-background:accumulate"/>
      <path inkscape:connector-curvature="0" id="path16877" d="m 271.37981,-1309.2865 a 2.1166713,4.8947995 0 0 1 0.0191,0.1473 2.1166713,4.8947995 0 0 1 0.0103,0.1173 h 0.33642 c 0.50803,0.4293 0.86466,1.0868 0.9834,1.8412 -0.15406,0.1609 -0.30175,0.3336 -0.43045,0.5824 -0.12853,0.2486 -0.2201,0.5147 -0.26511,0.7788 -0.10726,0.01 -0.20675,0.022 -0.30591,0.038 v -2.4463 h -0.26924 a 2.1166713,4.8947995 0 0 1 0.002,0.055 2.1166713,4.8947995 0 0 1 0.002,0.2087 h 5.3e-4 v 2.4784 c 0.23664,-0.06 0.49641,-0.097 0.79322,-0.097 0,-0.5074 0.48379,-1.3524 0.75705,-1.5565 a 2.6458251,3.1749944 0 0 0 -0.006,-0.046 2.645825,3.1749944 0 0 0 -0.0346,-0.1964 2.6458251,3.1749944 0 0 0 -0.0264,-0.124 2.645825,3.1749944 0 0 0 -0.046,-0.1721 2.6458251,3.1749944 0 0 0 -0.0398,-0.1302 2.645825,3.1749944 0 0 0 -0.0574,-0.1597 2.6458251,3.1749944 0 0 0 -0.0543,-0.1333 2.645825,3.1749944 0 0 0 -0.0641,-0.139 2.6458251,3.1749944 0 0 0 -0.0723,-0.1411 2.645825,3.1749944 0 0 0 -0.0708,-0.1214 2.6458251,3.1749944 0 0 0 -0.0858,-0.1354 2.645825,3.1749944 0 0 0 -0.0739,-0.1034 2.6458251,3.1749944 0 0 0 -0.1101,-0.1411 2.645825,3.1749944 0 0 0 -0.0697,-0.08 2.6458251,3.1749944 0 0 0 -0.12713,-0.1339 2.645825,3.1749944 0 0 0 -0.0723,-0.068 2.6458251,3.1749944 0 0 0 -0.1442,-0.1235 z" style="color:#000000;font-style:normal;font-variant:normal;font-weight:normal;font-stretch:normal;font-size:medium;line-height:normal;font-family:sans-serif;font-variant-ligatures:normal;font-variant-position:normal;font-variant-caps:normal;font-variant-numeric:normal;font-variant-alternates:normal;font-feature-settings:normal;text-indent:0;text-align:start;text-decoration:none;text-decoration-line:none;text-decoration-style:solid;text-decoration-color:#000000;letter-spacing:normal;word-spacing:normal;text-transform:none;writing-mode:lr-tb;direction:ltr;text-orientation:mixed;dominant-baseline:auto;baseline-shift:baseline;text-anchor:start;white-space:normal;shape-padding:0;clip-rule:nonzero;display:inline;overflow:visible;visibility:visible;opacity:1;isolation:auto;mix-blend-mode:normal;color-interpolation:sRGB;color-interpolation-filters:linearRGB;solid-color:#000000;solid-opacity:1;vector-effect:none;fill:#c48973;fill-opacity:1;fill-rule:nonzero;stroke:none;stroke-width:0.52916664;stroke-linecap:butt;stroke-linejoin:miter;stroke-miterlimit:4;stroke-dasharray:none;stroke-dashoffset:0;stroke-opacity:1;color-rendering:auto;image-rendering:auto;shape-rendering:auto;text-rendering:auto;enable-background:accumulate"/>
      <path inkscape:connector-curvature="0" id="rect16747" d="m 269.34583,-1307.9636 v 0.2656 3.9688 h 2.1172 v -4.2344 z" style="color:#000000;font-style:normal;font-variant:normal;font-weight:normal;font-stretch:normal;font-size:medium;line-height:normal;font-family:sans-serif;font-variant-ligatures:normal;font-variant-position:normal;font-variant-caps:normal;font-variant-numeric:normal;font-variant-alternates:normal;font-feature-settings:normal;text-indent:0;text-align:start;text-decoration:none;text-decoration-line:none;text-decoration-style:solid;text-decoration-color:#000000;letter-spacing:normal;word-spacing:normal;text-transform:none;writing-mode:lr-tb;direction:ltr;text-orientation:mixed;dominant-baseline:auto;baseline-shift:baseline;text-anchor:start;white-space:normal;shape-padding:0;clip-rule:nonzero;display:inline;overflow:visible;visibility:visible;opacity:1;isolation:auto;mix-blend-mode:normal;color-interpolation:sRGB;color-interpolation-filters:linearRGB;solid-color:#000000;solid-opacity:1;vector-effect:none;fill:#386494;fill-opacity:1;fill-rule:nonzero;stroke:none;stroke-width:0.5291667;stroke-linecap:round;stroke-linejoin:miter;stroke-miterlimit:4;stroke-dasharray:none;stroke-dashoffset:0;stroke-opacity:1;paint-order:markers stroke fill;color-rendering:auto;image-rendering:auto;shape-rendering:auto;text-rendering:auto;enable-background:accumulate"/>
      <rect y="-1307.6989" x="269.61041" height="3.7041178" width="1.5874939" id="rect16709" style="opacity:1;fill:#409cf4;fill-opacity:1;fill-rule:nonzero;stroke:none;stroke-width:0.30000001;stroke-linecap:round;stroke-linejoin:round;stroke-miterlimit:4;stroke-dasharray:none;stroke-dashoffset:0;stroke-opacity:1;paint-order:markers stroke fill"/>
      <path style="opacity:1;fill:#a45c40;fill-opacity:1;stroke:none;stroke-width:0.26458332px;stroke-linecap:butt;stroke-linejoin:miter;stroke-opacity:1" d="m 272.06041,-1308.5024 0.3605,-0.4445 c 0.18654,-0.053 0.36821,0.1322 0.37477,0.3104 l -0.21727,0.3001 0.28743,0.1951 c 0.0432,0.1492 -0.0337,0.3856 -0.22649,0.4377 l -0.47457,-0.2796 z" id="path16729" inkscape:connector-curvature="0" sodipodi:nodetypes="cccccccc"/>
      <path inkscape:connector-curvature="0" id="rect16843" d="m 269.61041,-1307.699 v 3.7042 h 1.5875 v -3.7042 z m 0.26459,0.2646 h 1.05833 v 3.1755 H 269.875 Z" style="color:#000000;font-style:normal;font-variant:normal;font-weight:normal;font-stretch:normal;font-size:medium;line-height:normal;font-family:sans-serif;font-variant-ligatures:normal;font-variant-position:normal;font-variant-caps:normal;font-variant-numeric:normal;font-variant-alternates:normal;font-feature-settings:normal;text-indent:0;text-align:start;text-decoration:none;text-decoration-line:none;text-decoration-style:solid;text-decoration-color:#000000;letter-spacing:normal;word-spacing:normal;text-transform:none;writing-mode:lr-tb;direction:ltr;text-orientation:mixed;dominant-baseline:auto;baseline-shift:baseline;text-anchor:start;white-space:normal;shape-padding:0;clip-rule:nonzero;display:inline;overflow:visible;visibility:visible;opacity:1;isolation:auto;mix-blend-mode:normal;color-interpolation:sRGB;color-interpolation-filters:linearRGB;solid-color:#000000;solid-opacity:1;vector-effect:none;fill:#30a0fc;fill-opacity:1;fill-rule:nonzero;stroke:none;stroke-width:0.5291667;stroke-linecap:round;stroke-linejoin:round;stroke-miterlimit:4;stroke-dasharray:none;stroke-dashoffset:0;stroke-opacity:1;paint-order:markers stroke fill;color-rendering:auto;image-rendering:auto;shape-rendering:auto;text-rendering:auto;enable-background:accumulate"/>
      <path inkscape:connector-curvature="0" id="ellipse16853" d="m 269.61041,-1307.699 v 1.4335 a 1.9945425,1.8521019 0 0 0 0.79375,0.154 1.9945425,1.8521019 0 0 0 0.79375,-0.155 v -1.4325 z" style="opacity:1;fill:#3893ea;fill-opacity:1;fill-rule:nonzero;stroke:none;stroke-width:0.29057047;stroke-linecap:round;stroke-linejoin:round;stroke-miterlimit:4;stroke-dasharray:none;stroke-dashoffset:0;stroke-opacity:1;paint-order:markers stroke fill"/>
      <path inkscape:connector-curvature="0" id="ellipse16851" d="m 269.61041,-1307.699 v 1.4335 a 1.9945425,1.8521019 0 0 0 0.26459,0.086 v -1.2547 h 1.05833 v 1.2563 a 1.9945425,1.8521019 0 0 0 0.26458,-0.088 v -1.4325 z" style="opacity:1;fill:#2699ff;fill-opacity:1;fill-rule:nonzero;stroke:none;stroke-width:0.29057047;stroke-linecap:round;stroke-linejoin:round;stroke-miterlimit:4;stroke-dasharray:none;stroke-dashoffset:0;stroke-opacity:1;paint-order:markers stroke fill"/>
      <ellipse ry="1.8521019" rx="1.9945425" cy="-1308.7572" cx="270.40417" id="ellipse16711" style="opacity:1;fill:#925139;fill-opacity:1;fill-rule:nonzero;stroke:none;stroke-width:0.2905705;stroke-linecap:round;stroke-linejoin:round;stroke-miterlimit:4;stroke-dasharray:none;stroke-dashoffset:0;stroke-opacity:1;paint-order:markers stroke fill"/>
      <path inkscape:connector-curvature="0" id="ellipse16801" d="m 270.40416,-1310.6094 a 1.9945425,1.8521019 0 0 0 -1.9885,1.7446 1.9945425,1.8521019 0 0 0 1.9885,1.7146 1.9945425,1.8521019 0 0 0 1.98851,-1.7446 1.9945425,1.8521019 0 0 0 -1.98851,-1.7146 z" style="opacity:1;fill:#a45c40;fill-opacity:1;fill-rule:nonzero;stroke:none;stroke-width:0.29057047;stroke-linecap:round;stroke-linejoin:round;stroke-miterlimit:4;stroke-dasharray:none;stroke-dashoffset:0;stroke-opacity:1;paint-order:markers stroke fill"/>
      <ellipse style="opacity:1;fill:#c97e6e;fill-opacity:1;fill-rule:nonzero;stroke:none;stroke-width:0.26981932;stroke-linecap:round;stroke-linejoin:round;stroke-miterlimit:4;stroke-dasharray:none;stroke-dashoffset:0;stroke-opacity:1;paint-order:markers stroke fill" id="ellipse16713" cx="270.40417" cy="-1309.1542" rx="1.8521017" ry="1.7198334"/>
      <path sodipodi:nodetypes="ccccc" inkscape:connector-curvature="0" id="path16926" d="m 272.2282,-1308.139 -0.0633,0.1558 0.47439,0.2796 c 0.0376,-0.01 0.0699,-0.028 0.0987,-0.051 -0.18941,-0.1143 -0.37404,-0.232 -0.50977,-0.3847 z" style="fill:#925139;fill-opacity:1;stroke:none;stroke-width:0.26458332px;stroke-linecap:butt;stroke-linejoin:miter;stroke-opacity:1"/>
      <path inkscape:connector-curvature="0" id="ellipse16772" d="m 270.40416,-1310.874 a 1.8521017,1.7198333 0 0 0 -1.84536,1.5937 1.8521017,1.7198333 0 0 0 1.84536,1.5813 1.8521017,1.7198333 0 0 0 1.84537,-1.5937 1.8521017,1.7198333 0 0 0 -1.84537,-1.5813 z" style="opacity:1;fill:#d4988c;fill-opacity:1;fill-rule:nonzero;stroke:none;stroke-width:0.26981932;stroke-linecap:round;stroke-linejoin:round;stroke-miterlimit:4;stroke-dasharray:none;stroke-dashoffset:0;stroke-opacity:1;paint-order:markers stroke fill"/>
      <ellipse ry="1.3228905" rx="1.4246309" cy="-1309.2864" cx="270.40417" id="ellipse16715" style="opacity:1;fill:#863500;fill-opacity:1;fill-rule:nonzero;stroke:none;stroke-width:0.20754418;stroke-linecap:round;stroke-linejoin:round;stroke-miterlimit:4;stroke-dasharray:none;stroke-dashoffset:0;stroke-opacity:1;paint-order:markers stroke fill"/>
      <path inkscape:connector-curvature="0" id="ellipse16765" d="m 270.40416,-1310.6094 a 1.4246309,1.3228905 0 0 0 -1.39475,1.0558 1.4246309,1.3228905 0 0 0 1.39475,1.0609 1.4246309,1.3228905 0 0 0 1.39526,-1.0553 1.4246309,1.3228905 0 0 0 -1.39526,-1.0614 z" style="opacity:1;fill:#983c00;fill-opacity:1;fill-rule:nonzero;stroke:none;stroke-width:0.20754418;stroke-linecap:round;stroke-linejoin:round;stroke-miterlimit:4;stroke-dasharray:none;stroke-dashoffset:0;stroke-opacity:1;paint-order:markers stroke fill"/>
      <path inkscape:connector-curvature="0" id="rect16749" d="m 270.13855,-1311.1375 c -0.43519,0 -0.79272,0.3576 -0.79272,0.7927 v 2.3812 c 0,0.4352 0.35753,0.7948 0.79272,0.7948 h 0.52916 c 0.43519,0 0.79532,-0.3596 0.79532,-0.7948 v -2.3812 c 0,-0.4351 -0.36013,-0.7927 -0.79532,-0.7927 z" style="color:#000000;font-style:normal;font-variant:normal;font-weight:normal;font-stretch:normal;font-size:medium;line-height:normal;font-family:sans-serif;font-variant-ligatures:normal;font-variant-position:normal;font-variant-caps:normal;font-variant-numeric:normal;font-variant-alternates:normal;font-feature-settings:normal;text-indent:0;text-align:start;text-decoration:none;text-decoration-line:none;text-decoration-style:solid;text-decoration-color:#000000;letter-spacing:normal;word-spacing:normal;text-transform:none;writing-mode:lr-tb;direction:ltr;text-orientation:mixed;dominant-baseline:auto;baseline-shift:baseline;text-anchor:start;white-space:normal;shape-padding:0;clip-rule:nonzero;display:inline;overflow:visible;visibility:visible;opacity:1;isolation:auto;mix-blend-mode:normal;color-interpolation:sRGB;color-interpolation-filters:linearRGB;solid-color:#000000;solid-opacity:1;vector-effect:none;fill:#386494;fill-opacity:1;fill-rule:nonzero;stroke:none;stroke-width:0.5291667;stroke-linecap:round;stroke-linejoin:miter;stroke-miterlimit:4;stroke-dasharray:none;stroke-dashoffset:0;stroke-opacity:1;paint-order:markers stroke fill;color-rendering:auto;image-rendering:auto;shape-rendering:auto;text-rendering:auto;enable-background:accumulate"/>
      <rect style="opacity:1;fill:#349cfc;fill-opacity:1;fill-rule:nonzero;stroke:none;stroke-width:0.30000001;stroke-linecap:round;stroke-linejoin:round;stroke-miterlimit:4;stroke-dasharray:none;stroke-dashoffset:0;stroke-opacity:1;paint-order:markers stroke fill" id="rect16719" width="1.5874898" height="3.4395425" x="269.61041" y="-1310.8739" ry="0.52919924"/>
      <path inkscape:connector-curvature="0" id="ellipse16717" d="m 270.13958,-1310.874 c -0.29318,0 -0.52917,0.236 -0.52917,0.5292 v 1.9146 a 1.5671633,1.455244 0 0 0 0.79375,0.2021 1.5671633,1.455244 0 0 0 0.79375,-0.2021 v -1.9146 c 0,-0.2932 -0.23598,-0.5292 -0.52916,-0.5292 z" style="opacity:1;fill:#38a8ff;fill-opacity:1;fill-rule:nonzero;stroke:none;stroke-width:0.22830871;stroke-linecap:round;stroke-linejoin:round;stroke-miterlimit:4;stroke-dasharray:none;stroke-dashoffset:0;stroke-opacity:1;paint-order:markers stroke fill"/>
      <path inkscape:connector-curvature="0" id="rect16835" d="m 270.13958,-1310.874 c -0.29318,0 -0.52917,0.236 -0.52917,0.5292 v 2.3812 c 0,0.2932 0.23599,0.5292 0.52917,0.5292 h 0.52917 c 0.29318,0 0.52916,-0.236 0.52916,-0.5292 v -2.3812 c 0,-0.2932 -0.23598,-0.5292 -0.52916,-0.5292 z m -0.001,0.2636 h 0.52916 c 0.15116,0 0.26562,0.1145 0.26562,0.2656 v 2.3812 c 0,0.1512 -0.11446,0.2656 -0.26562,0.2656 h -0.52916 c -0.15118,0 -0.26355,-0.1144 -0.26355,-0.2656 v -2.3812 c 0,-0.1511 0.11237,-0.2656 0.26355,-0.2656 z" style="opacity:1;fill:#24a3ff;fill-opacity:1;fill-rule:nonzero;stroke:none;stroke-width:0.30000001;stroke-linecap:round;stroke-linejoin:round;stroke-miterlimit:4;stroke-dasharray:none;stroke-dashoffset:0;stroke-opacity:1;paint-order:markers stroke fill"/>
      <path inkscape:connector-curvature="0" id="rect16830" d="m 270.13958,-1310.874 c -0.29318,0 -0.52917,0.236 -0.52917,0.5292 v 1.9146 a 1.5671633,1.455244 0 0 0 0.26459,0.1147 v -2.0293 c 0,-0.1511 0.11237,-0.2656 0.26355,-0.2656 h 0.52916 c 0.15116,0 0.26562,0.1145 0.26562,0.2656 v 2.0283 a 1.5671633,1.455244 0 0 0 0.26458,-0.1137 v -1.9146 c 0,-0.2932 -0.23598,-0.5292 -0.52916,-0.5292 z" style="color:#000000;font-style:normal;font-variant:normal;font-weight:normal;font-stretch:normal;font-size:medium;line-height:normal;font-family:sans-serif;font-variant-ligatures:normal;font-variant-position:normal;font-variant-caps:normal;font-variant-numeric:normal;font-variant-alternates:normal;font-feature-settings:normal;text-indent:0;text-align:start;text-decoration:none;text-decoration-line:none;text-decoration-style:solid;text-decoration-color:#000000;letter-spacing:normal;word-spacing:normal;text-transform:none;writing-mode:lr-tb;direction:ltr;text-orientation:mixed;dominant-baseline:auto;baseline-shift:baseline;text-anchor:start;white-space:normal;shape-padding:0;clip-rule:nonzero;display:inline;overflow:visible;visibility:visible;opacity:1;isolation:auto;mix-blend-mode:normal;color-interpolation:sRGB;color-interpolation-filters:linearRGB;solid-color:#000000;solid-opacity:1;vector-effect:none;fill:#28b4ff;fill-opacity:1;fill-rule:nonzero;stroke:none;stroke-width:0.5291667;stroke-linecap:round;stroke-linejoin:round;stroke-miterlimit:4;stroke-dasharray:none;stroke-dashoffset:0;stroke-opacity:1;paint-order:markers stroke fill;color-rendering:auto;image-rendering:auto;shape-rendering:auto;text-rendering:auto;enable-background:accumulate"/>
    </g>
  </g>
</svg>