<?xml version="1.0" encoding="UTF-8" standalone="no"?>
<!-- Created with Inkscape (http://www.inkscape.org/) -->

<svg
   width="0.38814375mm"
   height="0.63499707mm"
   viewBox="0 0 0.38814375 0.63499707"
   version="1.1"
   id="svg52727"
   inkscape:version="1.1 (c68e22c387, 2021-05-23)"
   sodipodi:docname="power_line_tr.svg"
   xmlns:inkscape="http://www.inkscape.org/namespaces/inkscape"
   xmlns:sodipodi="http://sodipodi.sourceforge.net/DTD/sodipodi-0.dtd"
   xmlns="http://www.w3.org/2000/svg"
   xmlns:svg="http://www.w3.org/2000/svg">
  <sodipodi:namedview
     id="namedview52729"
     pagecolor="#ffffff"
     bordercolor="#999999"
     borderopacity="1"
     inkscape:pageshadow="0"
     inkscape:pageopacity="0"
     inkscape:pagecheckerboard="0"
     inkscape:document-units="mm"
     showgrid="false"
     inkscape:zoom="198.86689"
     inkscape:cx="1.2018089"
     inkscape:cy="1.1540383"
     inkscape:window-width="1920"
     inkscape:window-height="1057"
     inkscape:window-x="-8"
     inkscape:window-y="-8"
     inkscape:window-maximized="1"
     inkscape:current-layer="layer1" />
  <defs
     id="defs52724" />
  <g
     inkscape:label="Layer 1"
     inkscape:groupmode="layer"
     id="layer1"
     transform="translate(-100.28185,-162.14696)">
    <g
       id="g34042"
       transform="matrix(0.04999975,0,0,0.04999975,102.04132,167.80901)">
      <g
         id="g34004"
         transform="translate(-78.845834,57.877604)">
        <path
           id="path34000"
           style="color:#000000;fill:#9c2d2d;fill-opacity:1;stroke:none;stroke-width:3.5;stroke-linecap:round;stroke-linejoin:round;-inkscape-stroke:none;paint-order:markers stroke fill"
           d="m 170.88281,-646.75 c -2.04722,0 -3.75,1.70278 -3.75,3.75 v 15.99805 c 0,2.04722 1.70278,3.74804 3.75,3.74804 2.04723,0 3.75,-1.70082 3.75,-3.74804 V -643 c 0,-2.04722 -1.70277,-3.75 -3.75,-3.75 z"
           transform="scale(0.26458333)" />
        <path
           style="color:#000000;fill:#e46767;stroke:none;stroke-width:0.926042;stroke-linecap:round;stroke-linejoin:round;-inkscape-stroke:none;paint-order:markers stroke fill"
           d="m 45.211606,-170.65625 c 0.293158,0 0.529167,0.23601 0.529167,0.52917 v 4.23333 c 0,0.29316 -0.236009,0.52917 -0.529167,0.52917 -0.293158,0 -0.529167,-0.23601 -0.529167,-0.52917 v -4.23333 c 0,-0.29316 0.236009,-0.52917 0.529167,-0.52917 z"
           id="path34002" />
      </g>
      <g
         transform="translate(20.869794,-236.80208)"
         id="g34010">
        <path
           id="path34006"
           style="color:#000000;font-style:normal;font-variant:normal;font-weight:normal;font-stretch:normal;font-size:medium;line-height:normal;font-family:sans-serif;font-variant-ligatures:normal;font-variant-position:normal;font-variant-caps:normal;font-variant-numeric:normal;font-variant-alternates:normal;font-variant-east-asian:normal;font-feature-settings:normal;font-variation-settings:normal;text-indent:0;text-align:start;text-decoration:none;text-decoration-line:none;text-decoration-style:solid;text-decoration-color:#000000;letter-spacing:normal;word-spacing:normal;text-transform:none;writing-mode:lr-tb;direction:ltr;text-orientation:mixed;dominant-baseline:auto;baseline-shift:baseline;text-anchor:start;white-space:normal;shape-padding:0;shape-margin:0;inline-size:0;clip-rule:nonzero;display:inline;overflow:visible;visibility:visible;isolation:auto;mix-blend-mode:normal;color-interpolation:sRGB;color-interpolation-filters:linearRGB;solid-color:#000000;solid-opacity:1;vector-effect:none;fill:#9c2d2d;fill-opacity:1;fill-rule:nonzero;stroke:none;stroke-width:1.05833;stroke-linecap:round;stroke-linejoin:round;stroke-miterlimit:4;stroke-dasharray:none;stroke-dashoffset:0;stroke-opacity:1;color-rendering:auto;image-rendering:auto;shape-rendering:auto;text-rendering:auto;enable-background:accumulate;stop-color:#000000"
           d="m -54.349655,128.05833 c -0.314684,-0.005 -0.615767,0.13168 -0.820102,0.37104 -0.375663,0.43964 -0.3229,1.1168 0.116787,1.49241 0.974513,0.83457 2.04692,1.04697 3.195672,1.04697 1.148749,0 2.218867,-0.21265 3.193087,-1.04697 0.439684,-0.37561 0.492966,-1.05277 0.117303,-1.49241 -0.375611,-0.43967 -1.052261,-0.49245 -1.491898,-0.11679 -0.61881,0.52995 -0.837176,0.54105 -1.818492,0.54105 -0.981319,0 -1.202124,-0.0114 -1.820561,-0.54105 -0.187433,-0.1603 -0.425196,-0.25053 -0.671796,-0.25425 z" />
        <path
           style="color:#000000;font-style:normal;font-variant:normal;font-weight:normal;font-stretch:normal;font-size:medium;line-height:normal;font-family:sans-serif;font-variant-ligatures:normal;font-variant-position:normal;font-variant-caps:normal;font-variant-numeric:normal;font-variant-alternates:normal;font-variant-east-asian:normal;font-feature-settings:normal;font-variation-settings:normal;text-indent:0;text-align:start;text-decoration:none;text-decoration-line:none;text-decoration-style:solid;text-decoration-color:#000000;letter-spacing:normal;word-spacing:normal;text-transform:none;writing-mode:lr-tb;direction:ltr;text-orientation:mixed;dominant-baseline:auto;baseline-shift:baseline;text-anchor:start;white-space:normal;shape-padding:0;shape-margin:0;inline-size:0;clip-rule:nonzero;display:inline;overflow:visible;visibility:visible;opacity:1;isolation:auto;mix-blend-mode:normal;color-interpolation:sRGB;color-interpolation-filters:linearRGB;solid-color:#000000;solid-opacity:1;vector-effect:none;fill:#e46767;fill-opacity:1;fill-rule:nonzero;stroke:none;stroke-width:1.05833;stroke-linecap:round;stroke-linejoin:round;stroke-miterlimit:4;stroke-dasharray:none;stroke-dashoffset:0;stroke-opacity:1;color-rendering:auto;image-rendering:auto;shape-rendering:auto;text-rendering:auto;enable-background:accumulate;stop-color:#000000;stop-opacity:1"
           d="m -54.357422,128.58776 a 0.52916503,0.52916503 0 0 0 -0.410156,0.18554 0.52916503,0.52916503 0 0 0 0.05859,0.7461 c 0.87032,0.74534 1.759192,0.91992 2.851562,0.91992 1.09237,0 1.979289,-0.17458 2.84961,-0.91992 a 0.52916503,0.52916503 0 0 0 0.05859,-0.7461 0.52916503,0.52916503 0 0 0 -0.746093,-0.0586 c -0.690514,0.59136 -1.153984,0.66797 -2.16211,0.66797 -1.008126,0 -1.473548,-0.0766 -2.164062,-0.66797 a 0.52916503,0.52916503 0 0 0 -0.335938,-0.12695 z"
           id="path34008" />
      </g>
      <g
         transform="matrix(0.73469407,0,0,0.73469407,15.351245,-185.29474)"
         id="g34040">
        <rect
           style="opacity:1;fill:#0a0f32;fill-opacity:0.2;fill-rule:nonzero;stroke:none;stroke-width:3.9397;stroke-linecap:round;stroke-linejoin:round;stroke-miterlimit:4;stroke-dasharray:none;stroke-dashoffset:0;stroke-opacity:1;paint-order:markers stroke fill;filter:url(#filter1957)"
           id="rect34012"
           width="4.2333326"
           height="3.1749878"
           x="-68.791664"
           y="112.18334"
           ry="0.93459511" />
        <path
           d="m -67.204166,102.65833 c -0.577172,0 -1.058333,0.48117 -1.058333,1.05834 v 1.04903 l -0.172082,4.83174 c -0.203166,0.19322 -0.357085,0.43468 -0.357085,0.73381 v 1.5875 0.79375 c 0,0.57717 0.481174,1.05833 1.058334,1.05833 h 2.116666 c 0.57716,0 1.058333,-0.48116 1.058333,-1.05833 v -2.11667 -0.26458 c 0,-0.29913 -0.153918,-0.54059 -0.357084,-0.73381 l -0.172082,-4.83174 v -1.04903 c 0,-0.57717 -0.481161,-1.05834 -1.058333,-1.05834 z"
           style="color:#000000;font-style:normal;font-variant:normal;font-weight:normal;font-stretch:normal;font-size:medium;line-height:normal;font-family:sans-serif;font-variant-ligatures:normal;font-variant-position:normal;font-variant-caps:normal;font-variant-numeric:normal;font-variant-alternates:normal;font-variant-east-asian:normal;font-feature-settings:normal;font-variation-settings:normal;text-indent:0;text-align:start;text-decoration:none;text-decoration-line:none;text-decoration-style:solid;text-decoration-color:#000000;letter-spacing:normal;word-spacing:normal;text-transform:none;writing-mode:lr-tb;direction:ltr;text-orientation:mixed;dominant-baseline:auto;baseline-shift:baseline;text-anchor:start;white-space:normal;shape-padding:0;shape-margin:0;inline-size:0;clip-rule:nonzero;display:inline;overflow:visible;visibility:visible;isolation:auto;mix-blend-mode:normal;color-interpolation:sRGB;color-interpolation-filters:linearRGB;solid-color:#000000;solid-opacity:1;vector-effect:none;fill:#3c3410;fill-opacity:1;fill-rule:nonzero;stroke:none;stroke-width:1.05833;stroke-linecap:round;stroke-linejoin:round;stroke-miterlimit:4;stroke-dasharray:none;stroke-dashoffset:0;stroke-opacity:1;paint-order:markers fill stroke;color-rendering:auto;image-rendering:auto;shape-rendering:auto;text-rendering:auto;enable-background:accumulate;stop-color:#000000"
           id="path34014" />
        <rect
           style="opacity:1;fill:#7c6420;fill-opacity:1;stroke:none;stroke-width:0.907138;stroke-linecap:round;stroke-linejoin:round;stroke-miterlimit:4;stroke-dasharray:none;paint-order:markers fill stroke"
           id="rect34016"
           width="3.174993"
           height="3.174993"
           x="-68.262497"
           y="110.06668"
           ry="0.52916545" />
        <rect
           ry="0.52916545"
           y="109.80209"
           x="-68.262497"
           height="2.6458254"
           width="3.1749954"
           id="rect34018"
           style="opacity:1;fill:#b0a024;fill-opacity:1;stroke:none;stroke-width:0.907138;stroke-linecap:round;stroke-linejoin:round;stroke-miterlimit:4;stroke-dasharray:none;paint-order:markers fill stroke" />
        <path
           d="m -67.733332,104.775 -0.256316,7.18406 c 0.02002,0.12647 0.124042,0.22427 0.256316,0.22427 h 2.116666 c 0.132273,0 0.2363,-0.0978 0.256315,-0.22427 l -0.256315,-7.18406 z"
           style="opacity:1;fill:#a49014;fill-opacity:1;stroke:none;stroke-width:0.264583px;stroke-linecap:butt;stroke-linejoin:miter;stroke-opacity:1"
           id="path34020" />
        <path
           d="m -67.733332,104.775 -0.05529,1.54513 c 0.101476,0.18248 0.293896,0.30695 0.518313,0.30695 h 1.190625 c 0.224417,0 0.416835,-0.12447 0.518314,-0.30695 l -0.05529,-1.54513 z"
           style="opacity:1;fill:#847810;fill-opacity:1;stroke:none;stroke-width:0.745292;stroke-linecap:round;stroke-linejoin:round;stroke-miterlimit:4;stroke-dasharray:none;paint-order:markers fill stroke"
           id="path34022" />
        <path
           d="m -67.733332,104.775 -0.02842,0.79943 c 0.107056,0.15642 0.286777,0.2589 0.491442,0.2589 h 1.190625 c 0.204666,0 0.384387,-0.10248 0.491443,-0.2589 l -0.02842,-0.79943 z"
           style="opacity:1;fill:#7c6420;fill-opacity:1;stroke:none;stroke-width:0.745292;stroke-linecap:round;stroke-linejoin:round;stroke-miterlimit:4;stroke-dasharray:none;paint-order:markers fill stroke"
           id="path34024" />
        <rect
           style="opacity:1;fill:#ac9c24;fill-opacity:1;stroke:none;stroke-width:0.66248;stroke-linecap:round;stroke-linejoin:round;stroke-miterlimit:4;stroke-dasharray:none;paint-order:markers fill stroke"
           id="rect34026"
           width="2.1166649"
           height="2.1166604"
           x="-67.73333"
           y="103.18753"
           ry="0.5291568" />
        <path
           d="m -66.939582,105.83333 -0.01189,0.2527 0.580843,0.58084 -0.03979,-0.83354 z m -0.07235,1.51516 -0.112654,2.37401 0.858345,-0.85834 -0.03824,-0.80822 z m 0.806154,2.77812 -0.984954,0.98496 -0.01344,0.27801 h 1.058334 z"
           style="opacity:1;fill:#3c3410;fill-opacity:1;stroke:none;stroke-width:0.264583px;stroke-linecap:butt;stroke-linejoin:miter;stroke-opacity:1"
           id="path34028" />
        <path
           d="m -66.676034,102.39375 c -0.435152,0 -0.792715,0.35809 -0.792715,0.79324 v 0.79478 c 0,0.43516 0.357563,0.79323 0.792715,0.79323 0.435153,0 0.795301,-0.35807 0.795301,-0.79323 v -0.79478 c 0,-0.43515 -0.360148,-0.79324 -0.795301,-0.79324 z"
           style="color:#000000;font-style:normal;font-variant:normal;font-weight:normal;font-stretch:normal;font-size:medium;line-height:normal;font-family:sans-serif;font-variant-ligatures:normal;font-variant-position:normal;font-variant-caps:normal;font-variant-numeric:normal;font-variant-alternates:normal;font-variant-east-asian:normal;font-feature-settings:normal;font-variation-settings:normal;text-indent:0;text-align:start;text-decoration:none;text-decoration-line:none;text-decoration-style:solid;text-decoration-color:#000000;letter-spacing:normal;word-spacing:normal;text-transform:none;writing-mode:lr-tb;direction:ltr;text-orientation:mixed;dominant-baseline:auto;baseline-shift:baseline;text-anchor:start;white-space:normal;shape-padding:0;shape-margin:0;inline-size:0;clip-rule:nonzero;display:inline;overflow:visible;visibility:visible;isolation:auto;mix-blend-mode:normal;color-interpolation:sRGB;color-interpolation-filters:linearRGB;solid-color:#000000;solid-opacity:1;vector-effect:none;fill:#580c0c;fill-opacity:1;fill-rule:nonzero;stroke:none;stroke-width:0.529167;stroke-linecap:round;stroke-linejoin:round;stroke-miterlimit:4;stroke-dasharray:none;stroke-dashoffset:0;stroke-opacity:1;paint-order:markers fill stroke;color-rendering:auto;image-rendering:auto;shape-rendering:auto;text-rendering:auto;enable-background:accumulate;stop-color:#000000"
           id="path34030" />
        <rect
           style="opacity:1;fill:#c01818;fill-opacity:1;stroke:none;stroke-width:1.05833;stroke-linecap:round;stroke-linejoin:round;stroke-miterlimit:4;stroke-dasharray:none;paint-order:markers fill stroke"
           id="rect34032"
           width="1.0583333"
           height="1.8520833"
           x="-67.204163"
           y="102.65834"
           ry="0.52915609" />
        <path
           d="m -67.969494,111.38958 -0.02015,0.56948 c 0.02002,0.12647 0.124042,0.22427 0.256316,0.22427 h 2.116666 c 0.132273,0 0.2363,-0.0978 0.256315,-0.22427 l -0.02015,-0.56948 z"
           style="opacity:1;fill:#98841c;fill-opacity:1;stroke:none;stroke-width:1.05833;stroke-linecap:round;stroke-linejoin:round;stroke-miterlimit:4;stroke-dasharray:none;paint-order:markers fill stroke"
           id="path34034" />
        <path
           d="m -66.674999,102.65833 c -0.293153,0 -0.529167,0.23602 -0.529167,0.52917 v 0.79375 c 0,0.29316 0.236014,0.52917 0.529167,0.52917 0.04599,0 0.0898,-0.008 0.132292,-0.0186 -0.228331,-0.0587 -0.396875,-0.26339 -0.396875,-0.51056 v -0.79375 c 0,-0.24716 0.168544,-0.45184 0.396875,-0.51056 -0.04249,-0.0109 -0.0863,-0.0186 -0.132292,-0.0186 z"
           style="opacity:1;fill:#901414;fill-opacity:1;stroke:none;stroke-width:1.05833;stroke-linecap:round;stroke-linejoin:round;stroke-miterlimit:4;stroke-dasharray:none;paint-order:markers fill stroke"
           id="path34036" />
        <path
           d="m -66.674999,102.65833 c -0.215384,0 -0.398875,0.12827 -0.481624,0.31213 0.06638,-0.0299 0.139272,-0.0475 0.217041,-0.0475 0.293153,0 0.529166,0.23601 0.529166,0.52916 v 0.79375 c 0,0.0778 -0.01766,0.15066 -0.04754,0.21704 0.183859,-0.0827 0.312127,-0.26623 0.312127,-0.48162 v -0.79375 c 0,-0.29315 -0.236014,-0.52917 -0.529167,-0.52917 z"
           style="opacity:1;fill:#dc4c4c;fill-opacity:1;stroke:none;stroke-width:1.05833;stroke-linecap:round;stroke-linejoin:round;stroke-miterlimit:4;stroke-dasharray:none;paint-order:markers fill stroke"
           id="path34038" />
      </g>
    </g>
  </g>
</svg>
