<?xml version="1.0" encoding="UTF-8" standalone="no"?>
<svg
   xmlns:dc="http://purl.org/dc/elements/1.1/"
   xmlns:cc="http://creativecommons.org/ns#"
   xmlns:rdf="http://www.w3.org/1999/02/22-rdf-syntax-ns#"
   xmlns:svg="http://www.w3.org/2000/svg"
   xmlns="http://www.w3.org/2000/svg"
   xmlns:xlink="http://www.w3.org/1999/xlink"
   xmlns:sodipodi="http://sodipodi.sourceforge.net/DTD/sodipodi-0.dtd"
   xmlns:inkscape="http://www.inkscape.org/namespaces/inkscape"
   sodipodi:docname="present_box.svg"
   inkscape:version="1.0 (4035a4fb49, 2020-05-01)"
   id="svg16853"
   version="1.1"
   viewBox="0 0 0.26458332 0.47625003"
   height="0.47625002mm"
   width="0.26458332mm">
  <defs
     id="defs16847">
    <linearGradient
       y2="-2355.8242"
       x2="-358.94037"
       y1="-2358.5725"
       x1="-358.94037"
       gradientTransform="matrix(0.83588208,0,0,0.90684697,49.259065,2301.1993)"
       gradientUnits="userSpaceOnUse"
       id="linearGradient15988"
       xlink:href="#linearGradient15685"
       inkscape:collect="always" />
    <linearGradient
       id="linearGradient15685"
       inkscape:collect="always">
      <stop
         id="stop15681"
         offset="0"
         style="stop-color:#fc2068;stop-opacity:1" />
      <stop
         id="stop15683"
         offset="1"
         style="stop-color:#e01844;stop-opacity:0.98039216" />
    </linearGradient>
    <linearGradient
       y2="-2355.8242"
       x2="-358.94037"
       y1="-2358.5725"
       x1="-358.94037"
       gradientTransform="matrix(0.83588206,0,0,0.90684695,49.259065,2301.1993)"
       gradientUnits="userSpaceOnUse"
       id="linearGradient15990"
       xlink:href="#linearGradient15749"
       inkscape:collect="always" />
    <linearGradient
       inkscape:collect="always"
       id="linearGradient15749">
      <stop
         style="stop-color:#fb4288;stop-opacity:1"
         offset="0"
         id="stop15745" />
      <stop
         style="stop-color:#e52f62;stop-opacity:1"
         offset="1"
         id="stop15747" />
    </linearGradient>
    <radialGradient
       gradientUnits="userSpaceOnUse"
       gradientTransform="matrix(0.38366801,-2.1606967e-6,2.0781564e-6,0.35892098,253.65229,3303.0681)"
       r="6.261692"
       fy="-8758.8984"
       fx="-1315.7932"
       cy="-8758.8984"
       cx="-1315.7932"
       id="radialGradient19503-1-0-8"
       xlink:href="#linearGradient19501"
       inkscape:collect="always" />
    <linearGradient
       id="linearGradient19501"
       inkscape:collect="always">
      <stop
         id="stop19497"
         offset="0"
         style="stop-color:#ffda00;stop-opacity:1;" />
      <stop
         style="stop-color:#ffda00;stop-opacity:0.98039216"
         offset="0.60002607"
         id="stop19505" />
      <stop
         id="stop19499"
         offset="1"
         style="stop-color:#ea9c01;stop-opacity:0.98039216" />
    </linearGradient>
    <radialGradient
       gradientUnits="userSpaceOnUse"
       gradientTransform="matrix(0.38017472,-0.12431932,0.03510777,0.10442551,363.52297,988.92844)"
       r="6.911974"
       fy="-8881.3359"
       fx="-795.5166"
       cy="-8881.3359"
       cx="-795.5166"
       id="radialGradient15522-78"
       xlink:href="#linearGradient15520"
       inkscape:collect="always" />
    <linearGradient
       id="linearGradient15520"
       inkscape:collect="always">
      <stop
         id="stop15516"
         offset="0"
         style="stop-color:#ffc800;stop-opacity:1;" />
      <stop
         id="stop15518"
         offset="1"
         style="stop-color:#f2a101;stop-opacity:1" />
    </linearGradient>
    <radialGradient
       gradientTransform="matrix(1.0510765,0,0,1.036606,126.14215,2477.0172)"
       gradientUnits="userSpaceOnUse"
       r="0.57050782"
       fy="-2235.261"
       fx="-358.81519"
       cy="-2235.261"
       cx="-358.81519"
       id="radialGradient15072-3-1-0"
       xlink:href="#linearGradient15528"
       inkscape:collect="always" />
    <linearGradient
       inkscape:collect="always"
       id="linearGradient15528">
      <stop
         style="stop-color:#f9b200;stop-opacity:1"
         offset="0"
         id="stop15524" />
      <stop
         style="stop-color:#fba000;stop-opacity:1"
         offset="1"
         id="stop15526" />
    </linearGradient>
  </defs>
  <sodipodi:namedview
     inkscape:object-paths="true"
     inkscape:snap-intersection-paths="true"
     inkscape:snap-smooth-nodes="true"
     inkscape:snap-midpoints="true"
     inkscape:snap-global="true"
     inkscape:document-rotation="0"
     inkscape:window-maximized="1"
     inkscape:window-y="-8"
     inkscape:window-x="-8"
     inkscape:window-height="1057"
     inkscape:window-width="1920"
     showgrid="true"
     inkscape:current-layer="layer1"
     inkscape:document-units="mm"
     inkscape:cy="1.1778044"
     inkscape:cx="0.51038352"
     inkscape:zoom="256"
     inkscape:pageshadow="2"
     inkscape:pageopacity="0.0"
     borderopacity="1.0"
     bordercolor="#666666"
     pagecolor="#ffffff"
     id="base">
    <inkscape:grid
       originy="-0.0041259628"
       originx="5.0903322e-06"
       id="grid1020"
       type="xygrid" />
  </sodipodi:namedview>
  <metadata
     id="metadata16850">
    <rdf:RDF>
      <cc:Work
         rdf:about="">
        <dc:format>image/svg+xml</dc:format>
        <dc:type
           rdf:resource="http://purl.org/dc/dcmitype/StillImage" />
        <dc:title />
      </cc:Work>
    </rdf:RDF>
  </metadata>
  <g
     transform="translate(253.69905,-157.66049)"
     id="layer1"
     inkscape:groupmode="layer"
     inkscape:label="Layer 1">
    <g
       transform="matrix(0.05,0,0,0.05002173,-241.0141,149.77404)"
       id="g1117">
      <rect
         ry="0.93459958"
         y="164.00636"
         x="-253.69905"
         height="3.175"
         width="5.2916665"
         id="rect19227-0-4-9-9"
         style="fill:#000000;fill-opacity:0.18;fill-rule:nonzero;stroke:none;stroke-width:78.7967;stroke-linecap:round;stroke-linejoin:round;stroke-miterlimit:4;stroke-dasharray:none;stroke-dashoffset:0;stroke-opacity:1;paint-order:markers stroke fill;filter:url(#filter1957)" />
      <path
         id="path905"
         style="color:#000000;font-style:normal;font-variant:normal;font-weight:normal;font-stretch:normal;font-size:medium;line-height:normal;font-family:sans-serif;font-variant-ligatures:normal;font-variant-position:normal;font-variant-caps:normal;font-variant-numeric:normal;font-variant-alternates:normal;font-variant-east-asian:normal;font-feature-settings:normal;font-variation-settings:normal;text-indent:0;text-align:start;text-decoration:none;text-decoration-line:none;text-decoration-style:solid;text-decoration-color:#000000;letter-spacing:normal;word-spacing:normal;text-transform:none;writing-mode:lr-tb;direction:ltr;text-orientation:mixed;dominant-baseline:auto;baseline-shift:baseline;text-anchor:start;white-space:normal;shape-padding:0;shape-margin:0;inline-size:0;clip-rule:nonzero;display:inline;overflow:visible;visibility:visible;isolation:auto;mix-blend-mode:normal;color-interpolation:sRGB;color-interpolation-filters:linearRGB;solid-color:#000000;solid-opacity:1;vector-effect:none;fill:#981834;fill-opacity:1;fill-rule:nonzero;stroke:none;stroke-width:1.07631;stroke-linecap:round;stroke-linejoin:round;stroke-miterlimit:4;stroke-dasharray:none;stroke-dashoffset:0;stroke-opacity:1;paint-order:markers stroke fill;color-rendering:auto;image-rendering:auto;shape-rendering:auto;text-rendering:auto;enable-background:accumulate;stop-color:#000000"
         d="m -252.4373,157.6605 c -0.69046,0 -1.26174,0.56497 -1.26174,1.24592 v 5.44153 c 0,0.68096 0.57128,1.24592 1.26174,1.24592 h 2.7687 c 0.69046,0 1.26121,-0.56497 1.26121,-1.24592 v -5.44153 c 0,-0.68094 -0.57075,-1.24592 -1.26121,-1.24592 z" />
      <path
         id="path946"
         style="color:#000000;font-style:normal;font-variant:normal;font-weight:normal;font-stretch:normal;font-size:medium;line-height:normal;font-family:sans-serif;font-variant-ligatures:normal;font-variant-position:normal;font-variant-caps:normal;font-variant-numeric:normal;font-variant-alternates:normal;font-variant-east-asian:normal;font-feature-settings:normal;font-variation-settings:normal;text-indent:0;text-align:start;text-decoration:none;text-decoration-line:none;text-decoration-style:solid;text-decoration-color:#000000;letter-spacing:normal;word-spacing:normal;text-transform:none;writing-mode:lr-tb;direction:ltr;text-orientation:mixed;dominant-baseline:auto;baseline-shift:baseline;text-anchor:start;white-space:normal;shape-padding:0;shape-margin:0;inline-size:0;clip-rule:nonzero;display:inline;overflow:visible;visibility:visible;isolation:auto;mix-blend-mode:normal;color-interpolation:sRGB;color-interpolation-filters:linearRGB;solid-color:#000000;solid-opacity:1;vector-effect:none;fill:#5b0e1f;fill-opacity:1;fill-rule:nonzero;stroke:none;stroke-width:1.07631;stroke-linecap:round;stroke-linejoin:round;stroke-miterlimit:4;stroke-dasharray:none;stroke-dashoffset:0;stroke-opacity:1;paint-order:markers stroke fill;color-rendering:auto;image-rendering:auto;shape-rendering:auto;text-rendering:auto;enable-background:accumulate;stop-color:#000000"
         d="m -249.97989,158.08218 c -0.11304,-0.005 -0.25104,0.0185 -0.38292,0.0899 -0.002,0.001 -0.004,0.003 -0.006,0.004 -0.59684,0.33991 -0.74589,0.9601 -0.81029,1.30276 -0.035,0.007 -0.07,0.0139 -0.10387,0.0253 -0.21332,-0.16575 -0.59072,-0.47962 -1.27692,-0.48835 -0.31381,-0.005 -0.57366,0.20079 -0.70125,0.43719 -0.12758,0.2364 -0.16993,0.51007 -0.1602,0.78134 0.01,0.27127 0.0734,0.54185 0.21498,0.7736 0.14152,0.23174 0.39751,0.4315 0.71261,0.4315 0.30985,0 0.4159,-0.12935 0.61909,-0.18914 -0.0206,0.11555 -0.0407,0.22753 -0.0527,0.35915 -0.009,0.10446 0.0359,0.20631 0.11937,0.26975 0.14654,0.11218 0.33498,0.20317 0.55656,0.2403 0.22158,0.0371 0.4839,0.0137 0.71675,-0.13488 0.0972,-0.0625 0.15084,-0.17448 0.13849,-0.28938 -5.3e-4,-0.005 5e-4,-0.003 0,-0.008 0.0159,0.0292 0.0287,0.003 0.0512,0.045 0.0642,0.11925 0.19926,0.18195 0.33176,0.154 0.50113,-0.10534 0.78658,-0.49909 0.84801,-0.85938 0.0163,-0.0978 -0.0158,-0.19741 -0.0863,-0.26717 -0.0946,-0.0939 -0.21657,-0.15982 -0.30644,-0.23874 0.20444,-0.10815 0.40721,-0.17914 0.5917,-0.36122 0.18093,-0.17844 0.23903,-0.42835 0.22479,-0.65009 -0.0142,-0.22174 -0.0714,-0.44591 -0.1974,-0.63097 -0.2787,-0.4093 -0.48426,-0.77335 -1.04077,-0.79685 z" />
      <rect
         ry="0.71140319"
         y="158.1949"
         x="-253.15782"
         height="6.8643985"
         width="4.2096543"
         id="rect856"
         style="fill:url(#linearGradient15988);fill-opacity:1;fill-rule:nonzero;stroke:none;stroke-width:1.07631;stroke-linecap:round;stroke-linejoin:round;stroke-miterlimit:4;stroke-dasharray:none;stroke-dashoffset:0;stroke-opacity:1;paint-order:markers stroke fill" />
      <path
         id="rect916"
         style="fill:#b7143e;fill-opacity:1;fill-rule:nonzero;stroke:none;stroke-width:1.07631;stroke-linecap:round;stroke-linejoin:round;stroke-miterlimit:4;stroke-dasharray:none;stroke-dashoffset:0;stroke-opacity:1;paint-order:markers stroke fill"
         d="m -253.15799,163.32837 v 0.88625 h 4.20956 v -0.88625 z" />
      <path
         style="fill:#f6487e;fill-opacity:1;fill-rule:nonzero;stroke:none;stroke-width:1.07631;stroke-linecap:round;stroke-linejoin:round;stroke-miterlimit:4;stroke-dasharray:none;stroke-dashoffset:0;stroke-opacity:1;paint-order:markers stroke fill"
         d="m -252.43647,158.19488 c -0.39963,0 -0.72148,0.31744 -0.72148,0.71154 v 2.79042 c 0,0.39414 0.32185,0.71104 0.72148,0.71104 h 2.76676 c 0.3996,0 0.72146,-0.3169 0.72146,-0.71104 v -2.79042 c 0,-0.3941 -0.32186,-0.71154 -0.72146,-0.71154 z"
         id="rect15672-6"
         inkscape:connector-curvature="0" />
      <path
         id="path948"
         style="fill:#932b4b;fill-opacity:1;fill-rule:nonzero;stroke:none;stroke-width:1.07631;stroke-linecap:round;stroke-linejoin:round;stroke-miterlimit:4;stroke-dasharray:none;stroke-dashoffset:0;stroke-opacity:1;paint-order:markers stroke fill"
         d="m -250.3964,158.19483 c -0.57217,0.3433 -0.71958,0.94725 -0.7829,1.28416 -0.035,0.007 -0.07,0.0139 -0.10387,0.0253 -0.21332,-0.16575 -0.59072,-0.47962 -1.27692,-0.48835 -0.24591,-0.004 -0.45594,0.12269 -0.5979,0.29094 v 1.76475 c 0.14735,0.20254 0.3792,0.36794 0.66404,0.36794 0.30985,0 0.4159,-0.12935 0.61909,-0.18914 -0.0206,0.11555 -0.0407,0.22753 -0.0527,0.35915 -0.009,0.10446 0.0359,0.20631 0.11937,0.26975 0.14654,0.11218 0.33498,0.20317 0.55656,0.2403 0.22158,0.0371 0.4839,0.0137 0.71675,-0.13488 0.0972,-0.0625 0.15084,-0.17448 0.13849,-0.28938 -5.3e-4,-0.005 5e-4,-0.003 0,-0.008 0.0159,0.0292 0.0287,0.003 0.0512,0.045 0.0642,0.11925 0.19926,0.18195 0.33176,0.154 0.50113,-0.10534 0.78658,-0.49909 0.84801,-0.85938 0.0163,-0.0978 -0.0158,-0.19741 -0.0863,-0.26717 -0.0946,-0.0939 -0.21657,-0.15982 -0.30644,-0.23874 0.20444,-0.10815 0.40721,-0.17914 0.5917,-0.36122 0.007,-0.007 0.0113,-0.0159 0.0181,-0.0233 v -1.23041 c 0,-0.0165 -0.004,-0.0319 -0.005,-0.0481 -0.18037,-0.26613 -0.3359,-0.5086 -0.57826,-0.64957 -0.0449,-0.009 -0.091,-0.014 -0.13849,-0.014 z" />
      <rect
         style="fill:#c89310;fill-opacity:1;fill-rule:nonzero;stroke:none;stroke-width:1.07631;stroke-linecap:round;stroke-linejoin:round;stroke-miterlimit:4;stroke-dasharray:none;stroke-dashoffset:0;stroke-opacity:1;paint-order:markers stroke fill"
         id="rect15688-3"
         width="0.89862829"
         height="6.8643985"
         x="-251.50229"
         y="158.1949"
         ry="0" />
      <path
         style="fill:#e7ad16;fill-opacity:1;fill-rule:nonzero;stroke:none;stroke-width:1.07631;stroke-linecap:round;stroke-linejoin:round;stroke-miterlimit:4;stroke-dasharray:none;stroke-dashoffset:0;stroke-opacity:1;paint-order:markers stroke fill"
         d="m -251.50217,158.19488 v 4.213 h 0.89865 v -4.213 z"
         id="path15697-0"
         inkscape:connector-curvature="0" />
      <path
         id="path950"
         style="fill:#8a670d;fill-opacity:1;fill-rule:nonzero;stroke:none;stroke-width:1.07631;stroke-linecap:round;stroke-linejoin:round;stroke-miterlimit:4;stroke-dasharray:none;stroke-dashoffset:0;stroke-opacity:1;paint-order:markers stroke fill"
         d="m -250.60362,158.34573 c -0.40184,0.34984 -0.52084,0.84147 -0.57568,1.13326 -0.035,0.007 -0.07,0.0139 -0.10387,0.0253 -0.0589,-0.0458 -0.13217,-0.10296 -0.2191,-0.16175 v 2.70578 c 0.0783,0.0305 0.16088,0.0563 0.25063,0.0713 0.20034,0.0335 0.43296,0.0124 0.64802,-0.10077 z" />
      <path
         id="rect918"
         style="fill:#9d730d;fill-opacity:1;fill-rule:nonzero;stroke:none;stroke-width:1.07631;stroke-linecap:round;stroke-linejoin:round;stroke-miterlimit:4;stroke-dasharray:none;stroke-dashoffset:0;stroke-opacity:1;paint-order:markers stroke fill"
         d="m -251.50227,163.32837 v 0.88625 h 0.89865 v -0.88625 z" />
      <path
         style="fill:#c89a18;fill-opacity:1;fill-rule:nonzero;stroke:none;stroke-width:1.16738;stroke-linecap:round;stroke-linejoin:round;stroke-miterlimit:4;stroke-dasharray:none;stroke-dashoffset:0;stroke-opacity:1;paint-order:markers stroke fill"
         d="m -251.50217,158.19488 v 6.86433 h 0.19601 v -6.86433 z"
         id="rect15714-7"
         inkscape:connector-curvature="0" />
      <path
         id="path920"
         style="fill:#9d7913;fill-opacity:1;fill-rule:nonzero;stroke:none;stroke-width:1.16738;stroke-linecap:round;stroke-linejoin:round;stroke-miterlimit:4;stroke-dasharray:none;stroke-dashoffset:0;stroke-opacity:1;paint-order:markers stroke fill"
         d="m -251.50227,163.32837 v 0.88625 h 0.19637 v -0.88625 z" />
      <path
         style="fill:url(#linearGradient15990);fill-opacity:1;fill-rule:nonzero;stroke:none;stroke-width:1.07631;stroke-linecap:round;stroke-linejoin:round;stroke-miterlimit:4;stroke-dasharray:none;stroke-dashoffset:0;stroke-opacity:1;paint-order:markers stroke fill"
         d="m -252.87078,158.3405 c -0.17361,0.12968 -0.28717,0.33363 -0.28717,0.56592 v 5.44175 c 0,0.23229 0.11356,0.43573 0.28717,0.56542 z m 3.63537,0 v 6.57309 c 0.17372,-0.12966 0.28716,-0.33302 0.28716,-0.56542 v -5.44175 c 0,-0.23239 -0.11344,-0.43624 -0.28716,-0.56592 z"
         id="rect15740-9"
         inkscape:connector-curvature="0" />
      <path
         style="fill:#e7c13c;fill-opacity:1;fill-rule:nonzero;stroke:none;stroke-width:1.16738;stroke-linecap:round;stroke-linejoin:round;stroke-miterlimit:4;stroke-dasharray:none;stroke-dashoffset:0;stroke-opacity:1;paint-order:markers stroke fill"
         d="m -251.50217,158.19488 v 4.213 h 0.19601 v -4.213 z"
         id="rect15706-5"
         inkscape:connector-curvature="0" />
      <path
         id="path952"
         style="fill:#8a7324;fill-opacity:1;fill-rule:nonzero;stroke:none;stroke-width:1.16738;stroke-linecap:round;stroke-linejoin:round;stroke-miterlimit:4;stroke-dasharray:none;stroke-dashoffset:0;stroke-opacity:1;paint-order:markers stroke fill"
         d="m -251.50227,159.34257 v 2.70578 c 0.0619,0.0241 0.12725,0.0442 0.19637,0.0589 v -2.62 c -0.055,-0.0429 -0.11869,-0.0922 -0.19637,-0.14469 z" />
      <path
         style="fill:#f86698;fill-opacity:1;fill-rule:nonzero;stroke:none;stroke-width:1.07631;stroke-linecap:round;stroke-linejoin:round;stroke-miterlimit:4;stroke-dasharray:none;stroke-dashoffset:0;stroke-opacity:1;paint-order:markers stroke fill"
         d="m -252.87078,158.3405 c -0.17364,0.12973 -0.28717,0.33363 -0.28717,0.56592 v 2.79042 c 0,0.23232 0.11353,0.43586 0.28717,0.56541 z m 3.63537,0 v 3.92175 c 0.17365,-0.12955 0.28716,-0.33309 0.28716,-0.56541 v -2.79042 c 0,-0.23229 -0.11351,-0.43619 -0.28716,-0.56592 z"
         id="path15735-7"
         inkscape:connector-curvature="0" />
      <path
         id="path954"
         style="fill:#943d5b;fill-opacity:1;fill-rule:nonzero;stroke:none;stroke-width:1.07631;stroke-linecap:round;stroke-linejoin:round;stroke-miterlimit:4;stroke-dasharray:none;stroke-dashoffset:0;stroke-opacity:1;paint-order:markers stroke fill"
         d="m -249.23523,158.46459 v 1.89187 c 0.0924,-0.0516 0.18261,-0.11139 0.26872,-0.19637 0.007,-0.007 0.0113,-0.0159 0.0181,-0.0233 v -1.23041 c 0,-0.0172 -0.005,-0.0328 -0.006,-0.0496 -0.0953,-0.14069 -0.18334,-0.27582 -0.2806,-0.39222 z m -3.63544,0.61908 c -0.11349,0.0523 -0.20986,0.13144 -0.28732,0.22324 v 1.76475 c 0.0754,0.10365 0.17068,0.19762 0.28732,0.26407 z m 3.63544,1.69705 v 0.47284 c 0.0322,-0.0751 0.057,-0.15123 0.0698,-0.22634 0.0149,-0.089 -0.012,-0.17837 -0.0698,-0.2465 z" />
      <path
         sodipodi:nodetypes="cccccccsccccccccccc"
         style="fill:#ffda00;fill-opacity:1;stroke:#a36d06;stroke-width:0.610367;stroke-linecap:butt;stroke-linejoin:round;stroke-miterlimit:4;stroke-dasharray:none;stroke-opacity:0.980392;paint-order:markers stroke fill"
         d="m -249.97891,158.00107 c -0.0817,0 -0.16311,0.01 -0.23844,0.0457 -0.52551,0.29928 -0.68316,1.09055 -0.71689,1.29752 -9.8e-4,0 -0.002,0 -0.003,0 -0.0209,0 -0.0418,0 -0.0627,0 -0.0992,1e-4 -0.19682,0.0243 -0.28411,0.0709 -0.11695,-0.10019 -0.60049,-0.48051 -1.28052,-0.48916 -0.7778,-0.0126 -0.7185,1.81428 0.0713,1.81428 0.63555,0 0.86285,-0.0973 1.13032,-0.33194 0.005,0 0.0101,0.01 0.0148,0.0126 -0.23115,0.26353 -0.24088,0.44485 -0.27546,0.82197 0.2102,0.16082 0.60592,0.29268 0.92462,0.0894 -0.0309,-0.29278 -0.0113,-0.43067 0.0901,-0.6046 0.2523,0.0826 0.35624,0.13633 0.53309,0.46545 0.38818,-0.0816 0.56516,-0.34875 0.60998,-0.6116 -0.22541,-0.22378 -0.31587,-0.33961 -0.62118,-0.48459 0.28177,-0.11146 0.64243,-0.28792 0.9068,-0.54882 0.42207,-0.41629 -0.22638,-1.51043 -0.79886,-1.54765 z"
         id="path15243-9-9-6"
         inkscape:connector-curvature="0" />
      <path
         sodipodi:nodetypes="ccccccccccccsccccccccc"
         inkscape:connector-curvature="0"
         style="fill:url(#radialGradient19503-1-0-8);fill-opacity:1;stroke:none;stroke-width:0.610367;stroke-linecap:butt;stroke-linejoin:miter;stroke-miterlimit:4;stroke-dasharray:none;stroke-opacity:0.980392;paint-order:markers stroke fill"
         d="m -249.97978,157.99417 c -0.0818,0 -0.16227,0.0126 -0.23759,0.0534 -0.60248,0.34311 -0.73176,1.38323 -0.73176,1.38323 l 0.39957,0.71615 -0.33323,0.48314 c 0.47561,0.16743 0.57591,0.1271 0.80626,0.55572 0.38819,-0.0816 0.56499,-0.34845 0.60983,-0.6113 -0.22543,-0.22379 -0.31577,-0.33971 -0.62105,-0.48469 0.28175,-0.11155 0.64271,-0.28802 0.9071,-0.54882 0.42205,-0.41629 -0.22666,-1.51014 -0.79913,-1.54736 z m -2.58534,0.92594 c -0.77777,-0.0126 -0.71848,1.81438 0.0713,1.81438 0.694,0 0.89985,-0.10796 1.20439,-0.39354 -0.3023,0.30793 -0.29726,0.48206 -0.33502,0.89417 0.21018,0.16091 0.60619,0.29219 0.92486,0.0894 -0.0448,-0.42667 0.003,-0.51996 0.28274,-0.88377 l -0.85321,-0.11757 c 0.0362,-0.034 0.0676,-0.0602 0.10793,-0.10126 l -0.0713,-0.77183 c 0,0 -0.55364,-0.52122 -1.33138,-0.53113 z"
         id="path19515-3-9-88" />
      <path
         style="fill:url(#radialGradient15522-78);fill-opacity:1;stroke:none;stroke-width:0.258886px;stroke-linecap:butt;stroke-linejoin:miter;stroke-opacity:1"
         d="m -249.43579,159.21405 c -0.36506,-0.0117 -0.9157,0.26732 -1.17158,0.60256 l 0.0677,0.0622 -0.11609,0.0777 0.10641,0.19026 -0.0866,0.12555 v 4.8e-4 c 0.19352,-0.0534 0.36053,-0.10553 0.54836,-0.18326 0.28175,-0.11156 0.64242,-0.28802 0.90681,-0.54883 0.0341,-0.034 0.0587,-0.0729 0.0794,-0.11446 -0.0461,-0.14265 -0.17121,-0.20727 -0.33452,-0.21242 z m -2.18835,0.73462 c -0.67827,0 -1.3071,0.38509 -1.00151,0.76629 0.0416,0.0117 0.0852,0.0194 0.13187,0.0194 0.694,0 0.89962,-0.10805 1.20415,-0.39364 -0.0154,0.0155 -0.0269,0.0301 -0.0407,0.0447 l 0.0942,-0.0583 h -0.0341 c 0.0362,-0.034 0.0676,-0.0603 0.10795,-0.10145 l -0.0199,-0.21688 c -0.14356,-0.0389 -0.29384,-0.0573 -0.44194,-0.0564 z"
         id="path15499-9"
         inkscape:connector-curvature="0" />
      <path
         style="fill:#f59900;fill-opacity:1;stroke:none;stroke-width:0.258886px;stroke-linecap:butt;stroke-linejoin:miter;stroke-opacity:1"
         d="m -252.62484,160.71651 c -0.25462,-0.45456 0.85238,-0.62694 1.45591,-0.56767 -0.0243,-0.01 0.0354,-0.13186 0.0121,-0.13866 -0.80545,-0.23321 -1.8476,0.23651 -1.46791,0.70633 z"
         id="path15495-6"
         inkscape:connector-curvature="0"
         sodipodi:nodetypes="ccsc" />
      <path
         style="fill:#f59900;fill-opacity:1;stroke:none;stroke-width:0.258886px;stroke-linecap:butt;stroke-linejoin:miter;stroke-opacity:1"
         d="m -249.09816,159.4322 c -0.14157,-0.47196 -1.13702,-0.1031 -1.5092,0.38451 l 0.16445,0.15061 c 0.30317,-0.29899 1.08768,-0.95558 1.34475,-0.53512 z"
         id="path15497-2"
         inkscape:connector-curvature="0"
         sodipodi:nodetypes="cccc" />
      <ellipse
         cy="159.93265"
         cx="-251.00006"
         id="path19474-3-7-74"
         style="fill:url(#radialGradient15072-3-1-0);fill-opacity:1;fill-rule:nonzero;stroke:none;stroke-width:1.60052;stroke-linecap:round;stroke-linejoin:round;stroke-miterlimit:4;stroke-dasharray:none;stroke-dashoffset:0;stroke-opacity:0.980392;paint-order:markers stroke fill"
         rx="0.59964728"
         ry="0.5913918" />
      <path
         id="path922"
         style="fill:#b92a56;fill-opacity:1;fill-rule:nonzero;stroke:none;stroke-width:1.07631;stroke-linecap:round;stroke-linejoin:round;stroke-miterlimit:4;stroke-dasharray:none;stroke-dashoffset:0;stroke-opacity:1;paint-order:markers stroke fill"
         d="m -253.15799,163.32837 v 0.88625 h 0.28732 v -0.88625 z m 3.92276,0 v 0.88625 h 0.2868 v -0.88625 z" />
      <rect
         ry="0"
         y="248.94818"
         x="163.17232"
         height="4.2096486"
         width="0.88625664"
         id="rect15692-3"
         style="fill:#c88c08;fill-opacity:1;fill-rule:nonzero;stroke:none;stroke-width:0.837051;stroke-linecap:round;stroke-linejoin:round;stroke-miterlimit:4;stroke-dasharray:none;stroke-dashoffset:0;stroke-opacity:1;paint-order:markers stroke fill"
         transform="rotate(90)" />
      <path
         style="fill:#c89a18;fill-opacity:1;fill-rule:nonzero;stroke:none;stroke-width:1.71729;stroke-linecap:round;stroke-linejoin:round;stroke-miterlimit:4;stroke-dasharray:none;stroke-dashoffset:0;stroke-opacity:1;paint-order:markers stroke fill"
         d="m -253.15782,163.17213 v 0.2129 h 4.20956 v -0.2129 z"
         id="rect15724-9"
         inkscape:connector-curvature="0" />
      <path
         style="fill:#d3a01a;fill-opacity:1;fill-rule:nonzero;stroke:none;stroke-width:1.07631;stroke-linecap:round;stroke-linejoin:round;stroke-miterlimit:4;stroke-dasharray:none;stroke-dashoffset:0;stroke-opacity:1;paint-order:markers stroke fill"
         d="m -253.15795,163.17215 v 0.8863 h 0.28717 v -0.8863 z m 3.92254,0 v 0.8863 h 0.28716 v -0.8863 z"
         id="path15752-3"
         inkscape:connector-curvature="0" />
      <path
         style="fill:#d5ab2d;fill-opacity:1;fill-rule:nonzero;stroke:none;stroke-width:1.07631;stroke-linecap:round;stroke-linejoin:round;stroke-miterlimit:4;stroke-dasharray:none;stroke-dashoffset:0;stroke-opacity:1;paint-order:markers stroke fill"
         d="m -253.15795,163.17215 v 0.21291 h 0.28717 v -0.21291 z m 3.92254,0 v 0.21291 h 0.28716 v -0.21291 z"
         id="path15760-3"
         inkscape:connector-curvature="0" />
    </g>
  </g>
</svg>
