<?xml version="1.0" ?><!-- Created with Inkscape (http://www.inkscape.org/) --><svg xmlns:dc="http://purl.org/dc/elements/1.1/" xmlns:cc="http://creativecommons.org/ns#" xmlns:rdf="http://www.w3.org/1999/02/22-rdf-syntax-ns#" xmlns:svg="http://www.w3.org/2000/svg" xmlns="http://www.w3.org/2000/svg" xmlns:sodipodi="http://sodipodi.sourceforge.net/DTD/sodipodi-0.dtd" xmlns:inkscape="http://www.inkscape.org/namespaces/inkscape" width="0.26458332mm" height="0.44979316mm" viewBox="0 0 0.26458332 0.44979316" version="1.1" id="svg25081" inkscape:version="0.92.4 (5da689c313, 2019-01-14)" sodipodi:docname="road_sign.svg">
  <defs id="defs25075"/>
  <sodipodi:namedview id="base" pagecolor="#ffffff" bordercolor="#666666" borderopacity="1.0" inkscape:pageopacity="0.0" inkscape:pageshadow="2" inkscape:zoom="253.42707" inkscape:cx="1.8805939" inkscape:cy="1.1492618" inkscape:document-units="mm" inkscape:current-layer="layer1" showgrid="false" fit-margin-top="0" fit-margin-left="0" fit-margin-right="0" fit-margin-bottom="0" inkscape:window-width="1920" inkscape:window-height="1057" inkscape:window-x="-8" inkscape:window-y="-8" inkscape:window-maximized="1"/>
  <metadata id="metadata25078">
    <rdf:RDF>
      <cc:Work rdf:about="">
        <dc:format>image/svg+xml</dc:format>
        <dc:type rdf:resource="http://purl.org/dc/dcmitype/StillImage"/>
        <dc:title/>
      </cc:Work>
    </rdf:RDF>
  </metadata>
  <g inkscape:label="Layer 1" inkscape:groupmode="layer" id="layer1" transform="translate(264.20536,-109.79218)">
    <g transform="matrix(0.04999998,0,0,0.04999998,-266.07067,171.24799)" id="g8833">
      <rect ry="1.0583171" y="-1223.2958" x="37.306248" height="3.174943" width="5.2916665" id="rect19227-0-4-9-2-7-4-7-0" style="opacity:1;fill:#000000;fill-opacity:0.18000004;fill-rule:nonzero;stroke:none;stroke-width:3.93964863;stroke-linecap:round;stroke-linejoin:round;stroke-miterlimit:4;stroke-dasharray:none;stroke-dashoffset:0;stroke-opacity:1;paint-order:markers stroke fill;filter:url(#filter1957)"/>
      <path inkscape:connector-curvature="0" id="rect8789" transform="scale(0.26458333)" d="m 145,-4645.4805 c -2.18141,0 -4,1.8189 -4,4 v 3 c 0,1.2053 0.58431,2.2619 1.44922,3 -0.86491,0.7386 -1.44922,1.7947 -1.44922,3 v 8 c 0,1.4797 0.87087,2.7423 2.08984,3.4336 0.23067,1.9745 1.88185,3.5664 3.91016,3.5664 1.82834,0 3.33153,-1.3022 3.79297,-3 h 0.41406 c 0.46144,1.6978 1.96463,3 3.79297,3 2.02831,0 3.67948,-1.5919 3.91016,-3.5664 1.21898,-0.6913 2.08984,-1.9539 2.08984,-3.4336 v -8 c 0,-1.2053 -0.58431,-2.2614 -1.44922,-3 0.86491,-0.7381 1.44922,-1.7947 1.44922,-3 v -3 c 0,-2.1811 -1.81859,-4 -4,-4 z" style="opacity:1;fill:#8c3c04;fill-opacity:1;fill-rule:nonzero;stroke:none;stroke-width:4;stroke-linecap:round;stroke-linejoin:round;stroke-miterlimit:4;stroke-dasharray:none;stroke-dashoffset:0;stroke-opacity:1;paint-order:markers stroke fill"/>
      <rect ry="0.52919108" y="-1228.5875" x="37.835415" height="1.8520833" width="4.2333331" id="rect8754" style="opacity:1;fill:#f8c800;fill-opacity:1;fill-rule:nonzero;stroke:none;stroke-width:1.05833328;stroke-linecap:round;stroke-linejoin:round;stroke-miterlimit:4;stroke-dasharray:none;stroke-dashoffset:0;stroke-opacity:1;paint-order:markers stroke fill"/>
      <path inkscape:connector-curvature="0" id="rect8756" transform="scale(0.26458333)" d="m 145,-4641.4805 c -1.10805,0 -2,0.892 -2,2 v 1 c 0,1.1081 0.89195,2 2,2 h 12 c 1.10805,0 2,-0.8919 2,-2 v -1 c 0,-1.108 -0.89195,-2 -2,-2 z" style="opacity:1;fill:#f8a400;fill-opacity:1;fill-rule:nonzero;stroke:none;stroke-width:3.99999976;stroke-linecap:round;stroke-linejoin:round;stroke-miterlimit:4;stroke-dasharray:none;stroke-dashoffset:0;stroke-opacity:1;paint-order:markers stroke fill"/>
      <rect ry="0.52916664" y="-1223.825" x="38.364582" height="1.5874512" width="1.0583344" id="rect8760" style="opacity:1;fill:#484864;fill-opacity:1;fill-rule:nonzero;stroke:none;stroke-width:1.05833328;stroke-linecap:round;stroke-linejoin:round;stroke-miterlimit:4;stroke-dasharray:none;stroke-dashoffset:0;stroke-opacity:1;paint-order:markers stroke fill"/>
      <rect style="opacity:1;fill:#484864;fill-opacity:1;fill-rule:nonzero;stroke:none;stroke-width:1.05833328;stroke-linecap:round;stroke-linejoin:round;stroke-miterlimit:4;stroke-dasharray:none;stroke-dashoffset:0;stroke-opacity:1;paint-order:markers stroke fill" id="rect8762" width="1.0583344" height="1.5874512" x="40.481251" y="-1223.825" ry="0.52916664"/>
      <path inkscape:connector-curvature="0" id="rect8764" transform="scale(0.26458333)" d="m 153,-4622.4805 v 1 h 4 v -1 z" style="opacity:1;fill:#303c44;fill-opacity:1;fill-rule:nonzero;stroke:none;stroke-width:3.99999976;stroke-linecap:round;stroke-linejoin:round;stroke-miterlimit:4;stroke-dasharray:none;stroke-dashoffset:0;stroke-opacity:1;paint-order:markers stroke fill"/>
      <path sodipodi:nodetypes="ccccc" inkscape:connector-curvature="0" id="path8770" d="m 38.364585,-1228.0583 0.529167,1.3229 h 1.008724 l -0.529166,-1.3229 z" style="opacity:1;fill:#483004;fill-opacity:1;stroke:none;stroke-width:0.26458332px;stroke-linecap:butt;stroke-linejoin:miter;stroke-opacity:1"/>
      <path inkscape:connector-curvature="0" style="opacity:1;fill:#483004;fill-opacity:1;stroke:none;stroke-width:0.99999994px;stroke-linecap:butt;stroke-linejoin:miter;stroke-opacity:1" d="m 152,-4641.4805 2,5 h 3 c 0.26763,0 0.52101,-0.054 0.75391,-0.1484 l -1.94141,-4.8516 z" transform="scale(0.26458333)" id="path8772"/>
      <path inkscape:connector-curvature="0" id="rect8774" transform="scale(0.26458333)" d="m 145,-4622.4805 v 1 h 4 v -1 z" style="opacity:1;fill:#303c44;fill-opacity:1;fill-rule:nonzero;stroke:none;stroke-width:3.99999976;stroke-linecap:round;stroke-linejoin:round;stroke-miterlimit:4;stroke-dasharray:none;stroke-dashoffset:0;stroke-opacity:1;paint-order:markers stroke fill"/>
      <rect ry="0.52921551" y="-1226.2063" x="37.835415" height="3.175" width="4.2333331" id="rect8752" style="opacity:1;fill:#fc8428;fill-opacity:1;fill-rule:nonzero;stroke:none;stroke-width:1.05833328;stroke-linecap:round;stroke-linejoin:round;stroke-miterlimit:4;stroke-dasharray:none;stroke-dashoffset:0;stroke-opacity:1;paint-order:markers stroke fill"/>
      <path inkscape:connector-curvature="0" id="rect8758" transform="scale(0.26458333)" d="m 145,-4632.4805 c -1.1081,0 -2,0.8919 -2,2 v 6 c 0,1.1081 0.8919,2 2,2 h 12 c 1.1081,0 2,-0.8919 2,-2 v -6 c 0,-1.1081 -0.8919,-2 -2,-2 z" style="opacity:1;fill:#f86800;fill-opacity:1;fill-rule:nonzero;stroke:none;stroke-width:3.99999976;stroke-linecap:round;stroke-linejoin:round;stroke-miterlimit:4;stroke-dasharray:none;stroke-dashoffset:0;stroke-opacity:1;paint-order:markers stroke fill"/>
      <path inkscape:connector-curvature="0" style="opacity:1;fill:#f49850;fill-opacity:1;stroke:none;stroke-width:0.99999994px;stroke-linecap:butt;stroke-linejoin:miter;stroke-opacity:1" d="m 150,-4631.4805 -6,4 6,4 v -2 h 7 v -4 h -7 z" transform="scale(0.26458333)" id="path8766"/>
    </g>
  </g>
</svg>