<?xml version="1.0" encoding="UTF-8" standalone="no"?>
<!-- Created with Inkscape (http://www.inkscape.org/) -->

<svg
   xmlns:dc="http://purl.org/dc/elements/1.1/"
   xmlns:cc="http://creativecommons.org/ns#"
   xmlns:rdf="http://www.w3.org/1999/02/22-rdf-syntax-ns#"
   xmlns:svg="http://www.w3.org/2000/svg"
   xmlns="http://www.w3.org/2000/svg"
   xmlns:sodipodi="http://sodipodi.sourceforge.net/DTD/sodipodi-0.dtd"
   xmlns:inkscape="http://www.inkscape.org/namespaces/inkscape"
   width="0.264583333mm"
   height="0.383645833mm"
   viewBox="0 0 0.26458335 0.38364476"
   version="1.1"
   id="svg12499"
   inkscape:version="0.92.4 (5da689c313, 2019-01-14)"
   sodipodi:docname="ship_railing_l.svg">
  <defs
     id="defs12493" />
  <sodipodi:namedview
     id="base"
     pagecolor="#ffffff"
     bordercolor="#666666"
     borderopacity="1.0"
     inkscape:pageopacity="0.0"
     inkscape:pageshadow="2"
     inkscape:zoom="22.4"
     inkscape:cx="6.7276603"
     inkscape:cy="11.908082"
     inkscape:document-units="mm"
     inkscape:current-layer="layer1"
     showgrid="false"
     inkscape:window-width="1920"
     inkscape:window-height="1057"
     inkscape:window-x="-8"
     inkscape:window-y="-8"
     inkscape:window-maximized="1" />
  <metadata
     id="metadata12496">
    <rdf:RDF>
      <cc:Work
         rdf:about="">
        <dc:format>image/svg+xml</dc:format>
        <dc:type
           rdf:resource="http://purl.org/dc/dcmitype/StillImage" />
        <dc:title />
      </cc:Work>
    </rdf:RDF>
  </metadata>
  <g
     inkscape:label="Layer 1"
     inkscape:groupmode="layer"
     id="layer1"
     transform="translate(212.04464,-38.893253)">
    <g
       transform="matrix(0.04999997,0,0,0.04999997,-235.55285,102.08207)"
       id="g7626">
      <path
         style="opacity:1;fill:#601020;fill-opacity:1;fill-rule:nonzero;stroke:none;stroke-width:5.0199666;stroke-linecap:round;stroke-linejoin:round;stroke-miterlimit:4;stroke-dasharray:none;stroke-dashoffset:0;stroke-opacity:1;paint-order:markers stroke fill"
         d="m 470.16512,-1259.2792 v 3.175 h 3.70364 c 0.29244,0 0.52967,-0.2367 0.5297,-0.5292 v -2.1172 c -3e-5,-0.2922 -0.23696,-0.5291 -0.52917,-0.5291 z"
         id="path7479"
         inkscape:connector-curvature="0"
         sodipodi:nodetypes="ccccccc" />
      <rect
         y="-1258.75"
         x="470.1651"
         height="2.1166666"
         width="3.7041759"
         id="rect7481"
         style="opacity:1;fill:#dc3838;fill-opacity:1;fill-rule:nonzero;stroke:none;stroke-width:5.0199666;stroke-linecap:round;stroke-linejoin:round;stroke-miterlimit:4;stroke-dasharray:none;stroke-dashoffset:0;stroke-opacity:1;paint-order:markers stroke fill" />
      <rect
         y="-1257.4271"
         x="470.1651"
         height="0.79374999"
         width="3.7041759"
         id="rect7483"
         style="opacity:1;fill:#a02424;fill-opacity:1;fill-rule:nonzero;stroke:none;stroke-width:5.0199666;stroke-linecap:round;stroke-linejoin:round;stroke-miterlimit:4;stroke-dasharray:none;stroke-dashoffset:0;stroke-opacity:1;paint-order:markers stroke fill" />
      <path
         inkscape:connector-curvature="0"
         id="path7485"
         d="m 472.67061,-1260.9783 a 0.52921958,0.52921958 0 0 1 0.50798,0.3814 c 0.14954,0.5144 0.38044,1.249 0.42272,1.8303 0.005,0.049 0.009,0.097 0.009,0.1463 0,0.7974 -0.65778,1.4552 -1.45521,1.4552 -0.79743,0 -1.45521,-0.6578 -1.45521,-1.4552 0,-0.044 0.003,-0.088 0.008,-0.1313 0.0393,-0.5848 0.27311,-1.3255 0.42376,-1.8438 a 0.52921958,0.52921958 0 0 1 0.50798,-0.3814 h 0.51575 z"
         style="color:#000000;font-style:normal;font-variant:normal;font-weight:normal;font-stretch:normal;font-size:medium;line-height:normal;font-family:sans-serif;font-variant-ligatures:normal;font-variant-position:normal;font-variant-caps:normal;font-variant-numeric:normal;font-variant-alternates:normal;font-feature-settings:normal;text-indent:0;text-align:start;text-decoration:none;text-decoration-line:none;text-decoration-style:solid;text-decoration-color:#000000;letter-spacing:normal;word-spacing:normal;text-transform:none;writing-mode:lr-tb;direction:ltr;text-orientation:mixed;dominant-baseline:auto;baseline-shift:baseline;text-anchor:start;white-space:normal;shape-padding:0;clip-rule:nonzero;display:inline;overflow:visible;visibility:visible;opacity:1;isolation:auto;mix-blend-mode:normal;color-interpolation:sRGB;color-interpolation-filters:linearRGB;solid-color:#000000;solid-opacity:1;vector-effect:none;fill:#601020;fill-opacity:1;fill-rule:nonzero;stroke:none;stroke-width:1.05833328;stroke-linecap:round;stroke-linejoin:round;stroke-miterlimit:4;stroke-dasharray:none;stroke-dashoffset:0;stroke-opacity:1;paint-order:markers stroke fill;color-rendering:auto;image-rendering:auto;shape-rendering:auto;text-rendering:auto;enable-background:accumulate" />
      <path
         inkscape:connector-curvature="0"
         id="path7487"
         d="m 472.67061,-1260.4491 c 0.1505,0.5179 0.37267,1.2772 0.40413,1.7285 a 0.92604167,0.92604167 0 0 1 0.006,0.1028 0.92604167,0.92604167 0 0 1 -0.92604,0.9261 0.92604167,0.92604167 0 0 1 -0.92605,-0.9261 0.92604167,0.92604167 0 0 1 0.006,-0.096 c 0.0295,-0.4503 0.25331,-1.2151 0.40463,-1.7358 h 0.5157 z"
         style="opacity:1;fill:#a02424;fill-opacity:1;fill-rule:nonzero;stroke:none;stroke-width:1.05833328;stroke-linecap:round;stroke-linejoin:round;stroke-miterlimit:4;stroke-dasharray:none;stroke-dashoffset:0;stroke-opacity:1;paint-order:markers stroke fill" />
      <path
         inkscape:connector-curvature="0"
         id="path7489"
         d="m 472.68405,-1260.3375 a 0.66145831,1.1906871 0 0 1 0.0175,0 c 0.14848,0.5117 0.34364,1.1931 0.37311,1.6159 a 0.92604167,0.92604167 0 0 1 0.006,0.1028 0.92604167,0.92604167 0 0 1 -0.24858,0.63 0.66145831,1.1906871 0 0 1 -0.1483,0.032 0.66145831,1.1906871 0 0 1 -0.66146,-1.1907 0.66145831,1.1906871 0 0 1 0.66146,-1.1906 z"
         style="opacity:1;fill:#dc3838;fill-opacity:1;fill-rule:nonzero;stroke:none;stroke-width:1.05836082;stroke-linecap:round;stroke-linejoin:round;stroke-miterlimit:4;stroke-dasharray:none;stroke-dashoffset:0;stroke-opacity:1;paint-order:markers stroke fill" />
      <path
         sodipodi:nodetypes="ccccsssccc"
         inkscape:connector-curvature="0"
         id="path7497"
         d="m 470.16458,-1263.7771 v 3.9687 h 1.4547 0.13333 1.71927 c 1.09021,0 1.98437,-0.8941 1.98437,-1.9843 0,-1.0902 -0.89421,-1.9844 -1.98437,-1.9844 h -1.71927 -0.13333 z"
         style="color:#000000;font-style:normal;font-variant:normal;font-weight:normal;font-stretch:normal;font-size:medium;line-height:normal;font-family:sans-serif;font-variant-ligatures:normal;font-variant-position:normal;font-variant-caps:normal;font-variant-numeric:normal;font-variant-alternates:normal;font-feature-settings:normal;text-indent:0;text-align:start;text-decoration:none;text-decoration-line:none;text-decoration-style:solid;text-decoration-color:#000000;letter-spacing:normal;word-spacing:normal;text-transform:none;writing-mode:lr-tb;direction:ltr;text-orientation:mixed;dominant-baseline:auto;baseline-shift:baseline;text-anchor:start;white-space:normal;shape-padding:0;clip-rule:nonzero;display:inline;overflow:visible;visibility:visible;opacity:1;isolation:auto;mix-blend-mode:normal;color-interpolation:sRGB;color-interpolation-filters:linearRGB;solid-color:#000000;solid-opacity:1;vector-effect:none;fill:#1c2c74;fill-opacity:1;fill-rule:nonzero;stroke:none;stroke-width:1.05833328;stroke-linecap:round;stroke-linejoin:round;stroke-miterlimit:4;stroke-dasharray:none;stroke-dashoffset:0;stroke-opacity:1;paint-order:markers stroke fill;color-rendering:auto;image-rendering:auto;shape-rendering:auto;text-rendering:auto;enable-background:accumulate" />
      <path
         style="opacity:1;fill:#3858d8;fill-opacity:1;fill-rule:nonzero;stroke:none;stroke-width:1.05833328;stroke-linecap:round;stroke-linejoin:round;stroke-miterlimit:4;stroke-dasharray:none;stroke-dashoffset:0;stroke-opacity:1;paint-order:markers stroke fill"
         d="m 470.16512,-1263.2479 v 1.4552 1.4552 h 1.4552 0.1323 1.71979 c 0.80618,0 1.4552,-0.6491 1.4552,-1.4552 0,-0.8062 -0.64902,-1.4552 -1.4552,-1.4552 h -1.71979 -0.1323 z"
         id="path7491"
         inkscape:connector-curvature="0" />
      <path
         style="opacity:1;fill:#4868f4;fill-opacity:1;fill-rule:nonzero;stroke:none;stroke-width:1.05833328;stroke-linecap:round;stroke-linejoin:round;stroke-miterlimit:4;stroke-dasharray:none;stroke-dashoffset:0;stroke-opacity:1;paint-order:markers stroke fill"
         d="m 470.16512,-1263.2479 v 0.3968 1.0584 0.3968 h 1.4552 0.1323 1.71979 c 0.61902,0 1.14392,-0.3833 1.35495,-0.926 -0.21103,-0.5426 -0.73593,-0.926 -1.35495,-0.926 h -1.71979 -0.1323 z"
         id="path7493"
         inkscape:connector-curvature="0" />
      <path
         style="opacity:1;fill:#6c88fc;fill-opacity:1;fill-rule:nonzero;stroke:none;stroke-width:1.05833328;stroke-linecap:round;stroke-linejoin:round;stroke-miterlimit:4;stroke-dasharray:none;stroke-dashoffset:0;stroke-opacity:1;paint-order:markers stroke fill"
         d="m 474.50076,-1262.8185 c -0.26183,0.3789 -0.69516,0.6289 -1.19269,0.6289 h -1.71979 -0.13229 -1.29087 v 0.3969 0.3968 h 1.4552 0.1323 1.71979 c 0.61902,0 1.14392,-0.3833 1.35495,-0.926 -0.0733,-0.1886 -0.18663,-0.3559 -0.3266,-0.4966 z"
         id="path7495"
         inkscape:connector-curvature="0" />
    </g>
  </g>
</svg>
