<?xml version="1.0" encoding="UTF-8" standalone="no"?>
<svg
   xmlns:dc="http://purl.org/dc/elements/1.1/"
   xmlns:cc="http://creativecommons.org/ns#"
   xmlns:rdf="http://www.w3.org/1999/02/22-rdf-syntax-ns#"
   xmlns:svg="http://www.w3.org/2000/svg"
   xmlns="http://www.w3.org/2000/svg"
   xmlns:xlink="http://www.w3.org/1999/xlink"
   xmlns:sodipodi="http://sodipodi.sourceforge.net/DTD/sodipodi-0.dtd"
   xmlns:inkscape="http://www.inkscape.org/namespaces/inkscape"
   sodipodi:docname="spacestation_wall_tr.svg"
   inkscape:version="1.0 (4035a4fb49, 2020-05-01)"
   id="svg3893"
   version="1.1"
   viewBox="0 0 0.26461205 0.43656001"
   height="0.43656mm"
   width="0.26461205mm">
  <defs
     id="defs3887">
    <linearGradient
       y2="-72.231247"
       x2="529.16669"
       y1="-73.289581"
       x1="529.16669"
       gradientTransform="matrix(-0.05000005,0,0,0.05000005,99.785709,168.46872)"
       gradientUnits="userSpaceOnUse"
       id="linearGradient10826"
       xlink:href="#linearGradient3561"
       inkscape:collect="always" />
    <linearGradient
       inkscape:collect="always"
       id="linearGradient3561">
      <stop
         style="stop-color:#242840;stop-opacity:1"
         offset="0"
         id="stop3557" />
      <stop
         style="stop-color:#2c3048;stop-opacity:1"
         offset="1"
         id="stop3559" />
    </linearGradient>
  </defs>
  <sodipodi:namedview
     inkscape:window-maximized="1"
     inkscape:window-y="-8"
     inkscape:window-x="-8"
     inkscape:window-height="1057"
     inkscape:window-width="1920"
     showgrid="false"
     inkscape:document-rotation="0"
     inkscape:current-layer="layer1"
     inkscape:document-units="px"
     inkscape:cy="0.77026724"
     inkscape:cx="1.4141708"
     inkscape:zoom="179.2"
     inkscape:pageshadow="2"
     inkscape:pageopacity="0.0"
     borderopacity="1.0"
     bordercolor="#666666"
     pagecolor="#ffffff"
     id="base" />
  <metadata
     id="metadata3890">
    <rdf:RDF>
      <cc:Work
         rdf:about="">
        <dc:format>image/svg+xml</dc:format>
        <dc:type
           rdf:resource="http://purl.org/dc/dcmitype/StillImage" />
        <dc:title></dc:title>
      </cc:Work>
    </rdf:RDF>
  </metadata>
  <g
     transform="translate(-73.195087,-164.57934)"
     id="layer1"
     inkscape:groupmode="layer"
     inkscape:label="Layer 1">
    <g
       id="g4934">
      <path
         id="path10664"
         style="fill:#000000;fill-opacity:0.180392;fill-rule:nonzero;stroke:none;stroke-width:0.0984931;stroke-linecap:round;stroke-linejoin:round;stroke-miterlimit:4;stroke-dasharray:none;stroke-dashoffset:0;stroke-opacity:1;paint-order:markers stroke fill;filter:url(#filter1957)"
         d="m 73.459697,164.85715 v 0.15875 h -0.06615 v -0.15875 z"
         sodipodi:nodetypes="ccccc" />
      <path
         d="m 73.433239,164.57934 a 0.02646094,0.02646094 0 0 1 0.02646,0.0265 v 0.30427 a 0.02646094,0.02646094 0 0 1 -0.02646,0.0265 h -0.0056 c -0.0059,0.0146 -0.01768,0.0265 -0.03411,0.0265 h -0.132292 c -0.02153,0 -0.03969,-0.0182 -0.03969,-0.0397 v -0.0132 a 0.02646094,0.02646094 0 0 1 -0.02646,-0.0265 v -0.21166 c 0,-0.0508 0.04176,-0.0926 0.0926,-0.0926 z"
         style="color:#000000;font-style:normal;font-variant:normal;font-weight:normal;font-stretch:normal;font-size:medium;line-height:normal;font-family:sans-serif;font-variant-ligatures:normal;font-variant-position:normal;font-variant-caps:normal;font-variant-numeric:normal;font-variant-alternates:normal;font-variant-east-asian:normal;font-feature-settings:normal;font-variation-settings:normal;text-indent:0;text-align:start;text-decoration:none;text-decoration-line:none;text-decoration-style:solid;text-decoration-color:#000000;letter-spacing:normal;word-spacing:normal;text-transform:none;writing-mode:lr-tb;direction:ltr;text-orientation:mixed;dominant-baseline:auto;baseline-shift:baseline;text-anchor:start;white-space:normal;shape-padding:0;shape-margin:0;inline-size:0;clip-rule:nonzero;display:inline;overflow:visible;visibility:visible;isolation:auto;mix-blend-mode:normal;color-interpolation:sRGB;color-interpolation-filters:linearRGB;solid-color:#000000;solid-opacity:1;vector-effect:none;fill:#243454;fill-opacity:1;fill-rule:nonzero;stroke:none;stroke-width:0.0529166;stroke-linecap:round;stroke-linejoin:round;stroke-miterlimit:4;stroke-dasharray:none;stroke-dashoffset:0;stroke-opacity:1;paint-order:markers stroke fill;color-rendering:auto;image-rendering:auto;shape-rendering:auto;text-rendering:auto;enable-background:accumulate;stop-color:#000000"
         id="path10666" />
      <path
         id="path10668"
         style="fill:#485070;fill-opacity:1;stroke:none;stroke-width:0.101983;stroke-linecap:round;stroke-linejoin:miter;stroke-miterlimit:4;stroke-dasharray:none;paint-order:markers stroke fill"
         d="m 73.433238,164.63226 v 0.17198 h -0.15875 v -0.17198 z" />
      <path
         sodipodi:nodetypes="cccssscccccsscsssccss"
         id="path10670"
         style="fill:#80a8d0;fill-opacity:1;stroke:none;stroke-width:0.0529166;stroke-linecap:round;stroke-linejoin:round;stroke-miterlimit:4;stroke-dasharray:none;paint-order:markers stroke fill"
         d="m 73.433239,164.6058 v 0.0132 0.0265 h -0.01323 c -0.01466,0 -0.02646,0.0118 -0.02646,0.0265 0,0.0146 0.0118,0.0264 0.02646,0.0264 h 0.01323 v 0.0265 l -10e-7,0.11906 -0.105833,0.0397 H 73.221572 V 164.672 c 0,-0.0367 0.0295,-0.0662 0.06615,-0.0662 z m -0.09261,0.11906 h -0.02646 c -0.01466,0 -0.02646,0.0118 -0.02646,0.0265 v 0.0265 h 0.07937 v -0.0265 c 0,-0.0147 -0.0118,-0.0265 -0.02646,-0.0265 z" />
      <path
         d="m 73.433239,164.6058 v 0.0132 0.0265 h -0.01323 c -0.01466,0 -0.02646,0.0118 -0.02646,0.0265 0,0.0146 0.0118,0.0264 0.02646,0.0264 h 0.01323 v 0.0265 0.0132 h -0.03969 v 0.0661 h -0.132292 v -0.13229 c 0,-0.0367 0.0295,-0.0662 0.06615,-0.0662 z m -0.09261,0.11906 h -0.02646 c -0.01466,0 -0.02646,0.0118 -0.02646,0.0265 v 0.0265 h 0.07937 v -0.0265 c 0,-0.0147 -0.0118,-0.0265 -0.02646,-0.0265 z"
         style="fill:#f0f8ff;fill-opacity:1;stroke:none;stroke-width:0.0529166;stroke-linecap:round;stroke-linejoin:round;stroke-miterlimit:4;stroke-dasharray:none;paint-order:markers stroke fill"
         id="path10672" />
      <path
         d="m 73.433239,164.619 v 3e-5 0.0265 h -0.01323 c -0.01466,0 -0.02646,0.0118 -0.02646,0.0265 0,0.0146 0.0118,0.0264 0.02646,0.0264 h 0.01323 v 0.0265 h -0.05286 v 0.0661 H 73.27452 V 164.672 c 0,-0.0296 0.02337,-0.053 0.05292,-0.053 z m -0.09261,0.10586 h -0.02646 c -0.01466,0 -0.02646,0.0118 -0.02646,0.0265 v 0.0265 h 0.07937 v -0.0265 c 0,-0.0147 -0.0118,-0.0265 -0.02646,-0.0265 z"
         style="fill:#b8e0ff;fill-opacity:1;stroke:none;stroke-width:0.0529166;stroke-linecap:round;stroke-linejoin:round;stroke-miterlimit:4;stroke-dasharray:none;paint-order:markers stroke fill"
         id="path10674" />
      <path
         d="m 73.433239,164.84392 v 0.0661 h -0.01323 v -0.0265 h -0.01323 v 0.0265 0 0.0132 c 0,0.007 -0.0059,0.0132 -0.01323,0.0132 h -0.132292 c -0.0073,0 -0.01323,-0.006 -0.01323,-0.0132 v -0.0529 c 0,-0.007 0.0059,-0.0132 0.01323,-0.0132 h 0.07937 v -0.0132 z"
         style="fill:#484864;fill-opacity:1;stroke:none;stroke-width:0.0264584;stroke-linecap:round;stroke-linejoin:round;stroke-miterlimit:4;stroke-dasharray:none;paint-order:markers stroke fill"
         id="path10676" />
      <rect
         style="fill:#545c7c;fill-opacity:1;stroke:none;stroke-width:0.0264584;stroke-linecap:round;stroke-linejoin:round;stroke-miterlimit:4;stroke-dasharray:none;paint-order:markers stroke fill"
         id="rect10678"
         width="0.15875016"
         height="0.013229179"
         x="-73.406731"
         y="164.91006"
         transform="scale(-1,1)" />
      <path
         sodipodi:nodetypes="ccccccc"
         id="path10680"
         style="fill:#3c405c;fill-opacity:1;stroke:none;stroke-width:0.0408178;stroke-linecap:round;stroke-linejoin:miter;stroke-miterlimit:4;stroke-dasharray:none;paint-order:markers stroke fill"
         d="m 73.393551,164.76455 c 0.01622,0.0313 0.0264,0.0727 0.0264,0.11575 6e-6,0.001 6e-6,0.002 0,0.003 h -0.185155 c -6e-6,-0.001 -6e-6,-0.002 0,-0.003 5e-6,-0.043 0.01023,-0.0845 0.02646,-0.11575 z" />
      <path
         id="path10682"
         style="fill:url(#linearGradient10826);fill-opacity:1;stroke:none;stroke-width:0.0344668;stroke-linecap:round;stroke-linejoin:miter;stroke-miterlimit:4;stroke-dasharray:none;paint-order:markers stroke fill"
         d="m 73.364377,164.79101 a 0.05291672,0.09260435 0 0 1 0.01589,0.0661 h -0.105833 a 0.05291672,0.09260435 0 0 1 0.01586,-0.0661 z" />
      <path
         d="m 73.380268,164.85715 c 0,0.007 -0.0059,0.0132 -0.01323,0.0132 h -0.07937 c -0.0073,0 -0.01323,-0.006 -0.01323,-0.0132 z"
         style="fill:#444c6c;fill-opacity:1;stroke:none;stroke-width:0.0264584;stroke-linecap:round;stroke-linejoin:miter;stroke-miterlimit:4;stroke-dasharray:none;paint-order:markers stroke fill"
         id="path10684" />
      <path
         id="path10686"
         style="fill:#1c1c2c;fill-opacity:1;stroke:none;stroke-width:0.0344668;stroke-linecap:round;stroke-linejoin:miter;stroke-miterlimit:4;stroke-dasharray:none;paint-order:markers stroke fill"
         d="m 73.364378,164.79101 a 0.05291672,0.09260435 0 0 1 0.01589,0.0661 h -5.4e-4 a 0.05291672,0.09260435 0 0 0 -0.01535,-0.0529 h -0.07408 a 0.05291672,0.09260435 0 0 0 -0.01532,0.0529 h -5.4e-4 a 0.05291672,0.09260435 0 0 1 0.01587,-0.0661 z" />
      <path
         d="m 73.340634,164.72486 c 0.01466,0 0.02646,0.0118 0.02646,0.0265 v 0.0132 c 0,-0.0147 -0.0118,-0.0265 -0.02646,-0.0265 h -0.02646 c -0.01466,0 -0.02646,0.0118 -0.02646,0.0265 v -0.0132 c 0,-0.0147 0.0118,-0.0265 0.02646,-0.0265 z"
         style="fill:#383c58;fill-opacity:1;stroke:none;stroke-width:0.0264584;stroke-linecap:round;stroke-linejoin:miter;stroke-miterlimit:4;stroke-dasharray:none;paint-order:markers stroke fill"
         id="path10688" />
      <path
         d="m 73.433239,164.88361 v 0.0132 h -0.01323 v -0.0132 z"
         style="fill:#545c7c;fill-opacity:1;stroke:none;stroke-width:0.0179749;stroke-linecap:round;stroke-linejoin:miter;stroke-miterlimit:4;stroke-dasharray:none;paint-order:markers stroke fill"
         id="path10690" />
    </g>
  </g>
</svg>
