<?xml version="1.0" encoding="UTF-8" standalone="no"?>
<svg
   xmlns:dc="http://purl.org/dc/elements/1.1/"
   xmlns:cc="http://creativecommons.org/ns#"
   xmlns:rdf="http://www.w3.org/1999/02/22-rdf-syntax-ns#"
   xmlns:svg="http://www.w3.org/2000/svg"
   xmlns="http://www.w3.org/2000/svg"
   xmlns:sodipodi="http://sodipodi.sourceforge.net/DTD/sodipodi-0.dtd"
   xmlns:inkscape="http://www.inkscape.org/namespaces/inkscape"
   width="0.30427mm"
   height="0.43651mm"
   viewBox="0 0 0.30427 0.43651"
   version="1.1"
   id="svg3893"
   inkscape:version="1.0 (4035a4fb49, 2020-05-01)"
   sodipodi:docname="spacestation_wall_l.svg">
  <defs
     id="defs3887" />
  <sodipodi:namedview
     id="base"
     pagecolor="#ffffff"
     bordercolor="#666666"
     borderopacity="1.0"
     inkscape:pageopacity="0.0"
     inkscape:pageshadow="2"
     inkscape:zoom="126.71353"
     inkscape:cx="1.190724"
     inkscape:cy="0.20686082"
     inkscape:document-units="px"
     inkscape:current-layer="layer1"
     inkscape:document-rotation="0"
     showgrid="false"
     inkscape:window-width="1920"
     inkscape:window-height="1057"
     inkscape:window-x="-8"
     inkscape:window-y="-8"
     inkscape:window-maximized="1" />
  <metadata
     id="metadata3890">
    <rdf:RDF>
      <cc:Work
         rdf:about="">
        <dc:format>image/svg+xml</dc:format>
        <dc:type
           rdf:resource="http://purl.org/dc/dcmitype/StillImage" />
        <dc:title />
      </cc:Work>
    </rdf:RDF>
  </metadata>
  <g
     inkscape:label="Layer 1"
     inkscape:groupmode="layer"
     id="layer1"
     transform="translate(-91.291251,-159.94856)">
    <g
       transform="translate(-0.02685341,-0.09506045)"
       id="g5557">
      <path
         sodipodi:nodetypes="csscccc"
         d="m 91.535946,160.32143 c 0.02589,0 0.04674,0.0209 0.04674,0.0467 v 0.0653 c 0,0.0259 -0.02085,0.0467 -0.04674,0.0467 h -0.217842 v -0.15875 z"
         style="fill:#000000;fill-opacity:0.180392;fill-rule:nonzero;stroke:none;stroke-width:0.196986;stroke-linecap:round;stroke-linejoin:round;stroke-miterlimit:4;stroke-dasharray:none;stroke-dashoffset:0;stroke-opacity:1;paint-order:markers stroke fill;filter:url(#filter1957)"
         id="path10646-2" />
      <path
         id="path10648-6"
         style="color:#000000;font-style:normal;font-variant:normal;font-weight:normal;font-stretch:normal;font-size:medium;line-height:normal;font-family:sans-serif;font-variant-ligatures:normal;font-variant-position:normal;font-variant-caps:normal;font-variant-numeric:normal;font-variant-alternates:normal;font-variant-east-asian:normal;font-feature-settings:normal;font-variation-settings:normal;text-indent:0;text-align:start;text-decoration:none;text-decoration-line:none;text-decoration-style:solid;text-decoration-color:#000000;letter-spacing:normal;word-spacing:normal;text-transform:none;writing-mode:lr-tb;direction:ltr;text-orientation:mixed;dominant-baseline:auto;baseline-shift:baseline;text-anchor:start;white-space:normal;shape-padding:0;shape-margin:0;inline-size:0;clip-rule:nonzero;display:inline;overflow:visible;visibility:visible;isolation:auto;mix-blend-mode:normal;color-interpolation:sRGB;color-interpolation-filters:linearRGB;solid-color:#000000;solid-opacity:1;vector-effect:none;fill:#243454;fill-opacity:1;fill-rule:nonzero;stroke:none;stroke-width:0.0529166;stroke-linecap:round;stroke-linejoin:round;stroke-miterlimit:4;stroke-dasharray:none;stroke-dashoffset:0;stroke-opacity:1;paint-order:markers stroke fill;color-rendering:auto;image-rendering:auto;shape-rendering:auto;text-rendering:auto;enable-background:accumulate;stop-color:#000000"
         d="m 91.490084,160.04362 c 0.02598,0 0.04949,0.0111 0.0662,0.0284 0.04056,0.037 0.06609,0.10246 0.06609,0.1833 0,0.0294 -0.01873,0.0532 -0.03984,0.0646 -0.01268,0.007 -0.02612,0.0102 -0.03953,0.0123 v 0.0422 a 0.02646101,0.02646101 0 0 1 -0.02646,0.0265 h -0.171979 a 0.02646101,0.02646101 0 0 1 -0.02646,-0.0265 v -0.0661 -0.0265 -0.0794 -0.0264 -0.0133 -0.0529 -0.0265 -0.0132 a 0.02646101,0.02646101 0 0 1 0.02646,-0.0265 z" />
      <rect
         style="fill:#484864;fill-opacity:1;stroke:none;stroke-width:0.0529166;stroke-linecap:round;stroke-linejoin:miter;stroke-miterlimit:4;stroke-dasharray:none;paint-order:markers stroke fill"
         id="rect10650-4"
         width="0.17198004"
         height="0.09260416"
         x="-91.516541"
         y="160.28174"
         transform="scale(-1,1)" />
      <rect
         style="fill:#545c7c;fill-opacity:1;stroke:none;stroke-width:0.0529166;stroke-linecap:round;stroke-linejoin:miter;stroke-miterlimit:4;stroke-dasharray:none;paint-order:markers stroke fill"
         id="rect10652-5"
         width="0.17197894"
         height="0.013229002"
         x="-91.516541"
         y="160.34789"
         transform="scale(-1,1)" />
      <path
         sodipodi:nodetypes="sssccccccs"
         d="m 91.490084,160.07008 c 0.05292,0 0.105833,0.0756 0.105833,0.18521 0,0.0397 -0.04284,0.0529 -0.07937,0.0529 h -0.043 -0.06284 -0.06615 v -0.23812 h 0.03969 0.0893 z"
         style="fill:#80a8d0;fill-opacity:1;stroke:none;stroke-width:0.0709951;stroke-linecap:round;stroke-linejoin:miter;stroke-miterlimit:4;stroke-dasharray:none;paint-order:markers stroke fill"
         id="path10654-2" />
      <path
         id="path10656-7"
         style="fill:#485070;fill-opacity:1;stroke:none;stroke-width:0.0529166;stroke-linecap:round;stroke-linejoin:miter;stroke-miterlimit:4;stroke-dasharray:none;paint-order:markers stroke fill"
         d="m 91.437167,160.09654 v 0.0794 h -0.0926 v -0.0794 z" />
      <path
         d="m 91.490084,160.07008 c 0.03638,0 0.06615,0.0298 0.06615,0.0661 2e-6,3e-4 2e-6,6.2e-4 0,9.1e-4 v 1e-4 c -5.45e-4,0.036 -0.03015,0.0652 -0.06615,0.0651 -3e-4,0 -6.1e-4,0 -9e-4,0 h -0.144622 v -0.0264 h 0.144772 v 0 c 2e-4,0 4e-4,0 5.95e-4,0 v 0 0 c 0.02184,0 0.03936,-0.0173 0.03969,-0.0391 v -8e-5 c 0,-1.5e-4 10e-7,-3.6e-4 0,-5.1e-4 0,-0.0221 -0.01761,-0.0397 -0.03969,-0.0397 h -0.145521 v -0.0266 z"
         style="color:#000000;font-style:normal;font-variant:normal;font-weight:normal;font-stretch:normal;font-size:medium;line-height:normal;font-family:sans-serif;font-variant-ligatures:normal;font-variant-position:normal;font-variant-caps:normal;font-variant-numeric:normal;font-variant-alternates:normal;font-variant-east-asian:normal;font-feature-settings:normal;font-variation-settings:normal;text-indent:0;text-align:start;text-decoration:none;text-decoration-line:none;text-decoration-style:solid;text-decoration-color:#000000;letter-spacing:normal;word-spacing:normal;text-transform:none;writing-mode:lr-tb;direction:ltr;text-orientation:mixed;dominant-baseline:auto;baseline-shift:baseline;text-anchor:start;white-space:normal;shape-padding:0;shape-margin:0;inline-size:0;clip-rule:nonzero;display:inline;overflow:visible;visibility:visible;isolation:auto;mix-blend-mode:normal;color-interpolation:sRGB;color-interpolation-filters:linearRGB;solid-color:#000000;solid-opacity:1;vector-effect:none;fill:#f0f8ff;fill-opacity:1;fill-rule:nonzero;stroke:none;stroke-width:0.0264584;stroke-linecap:round;stroke-linejoin:miter;stroke-miterlimit:4;stroke-dasharray:none;stroke-dashoffset:0;stroke-opacity:1;paint-order:markers stroke fill;color-rendering:auto;image-rendering:auto;shape-rendering:auto;text-rendering:auto;enable-background:accumulate;stop-color:#000000"
         id="path10658-2" />
      <path
         d="m 91.490084,160.08331 c 0.02923,0 0.05292,0.0237 0.05292,0.0529 3e-6,2.5e-4 3e-6,5.3e-4 0,8e-4 -4.5e-4,0.0289 -0.024,0.0521 -0.05292,0.0521 -2.5e-4,0 -5.45e-4,0 -8.05e-4,0 h -0.144714 v -0.0265 h 0.01323 c 0.01466,0 0.02646,-0.0118 0.02646,-0.0265 0,-0.0147 -0.0118,-0.0265 -0.02646,-0.0265 h -0.01323 v -0.0264 z"
         style="color:#000000;font-style:normal;font-variant:normal;font-weight:normal;font-stretch:normal;font-size:medium;line-height:normal;font-family:sans-serif;font-variant-ligatures:normal;font-variant-position:normal;font-variant-caps:normal;font-variant-numeric:normal;font-variant-alternates:normal;font-variant-east-asian:normal;font-feature-settings:normal;font-variation-settings:normal;text-indent:0;text-align:start;text-decoration:none;text-decoration-line:none;text-decoration-style:solid;text-decoration-color:#000000;letter-spacing:normal;word-spacing:normal;text-transform:none;writing-mode:lr-tb;direction:ltr;text-orientation:mixed;dominant-baseline:auto;baseline-shift:baseline;text-anchor:start;white-space:normal;shape-padding:0;shape-margin:0;inline-size:0;clip-rule:nonzero;display:inline;overflow:visible;visibility:visible;isolation:auto;mix-blend-mode:normal;color-interpolation:sRGB;color-interpolation-filters:linearRGB;solid-color:#000000;solid-opacity:1;vector-effect:none;fill:#b8e0ff;fill-opacity:1;fill-rule:nonzero;stroke:none;stroke-width:0.0264584;stroke-linecap:round;stroke-linejoin:miter;stroke-miterlimit:4;stroke-dasharray:none;stroke-dashoffset:0;stroke-opacity:1;paint-order:markers stroke fill;color-rendering:auto;image-rendering:auto;shape-rendering:auto;text-rendering:auto;enable-background:accumulate;stop-color:#000000"
         id="path10660-4" />
    </g>
  </g>
</svg>
