<?xml version="1.0" encoding="UTF-8" standalone="no"?>
<svg
   xmlns:dc="http://purl.org/dc/elements/1.1/"
   xmlns:cc="http://creativecommons.org/ns#"
   xmlns:rdf="http://www.w3.org/1999/02/22-rdf-syntax-ns#"
   xmlns:svg="http://www.w3.org/2000/svg"
   xmlns="http://www.w3.org/2000/svg"
   xmlns:xlink="http://www.w3.org/1999/xlink"
   xmlns:sodipodi="http://sodipodi.sourceforge.net/DTD/sodipodi-0.dtd"
   xmlns:inkscape="http://www.inkscape.org/namespaces/inkscape"
   sodipodi:docname="spacestation_wall_tl.svg"
   inkscape:version="1.0 (4035a4fb49, 2020-05-01)"
   id="svg3893"
   version="1.1"
   viewBox="0 0 0.26458326 0.4365629"
   height="0.4365629mm"
   width="0.26458326mm">
  <defs
     id="defs3887">
    <linearGradient
       y2="-72.231247"
       x2="529.16669"
       y1="-73.289581"
       x1="529.16669"
       gradientTransform="translate(7.9386048)"
       gradientUnits="userSpaceOnUse"
       id="linearGradient10826"
       xlink:href="#linearGradient3561"
       inkscape:collect="always" />
    <linearGradient
       inkscape:collect="always"
       id="linearGradient3561">
      <stop
         style="stop-color:#242840;stop-opacity:1"
         offset="0"
         id="stop3557" />
      <stop
         style="stop-color:#2c3048;stop-opacity:1"
         offset="1"
         id="stop3559" />
    </linearGradient>
  </defs>
  <sodipodi:namedview
     inkscape:window-maximized="1"
     inkscape:window-y="-8"
     inkscape:window-x="-8"
     inkscape:window-height="1057"
     inkscape:window-width="1920"
     showgrid="false"
     inkscape:document-rotation="0"
     inkscape:current-layer="layer1"
     inkscape:document-units="px"
     inkscape:cy="0.77026724"
     inkscape:cx="1.4141632"
     inkscape:zoom="179.2"
     inkscape:pageshadow="2"
     inkscape:pageopacity="0.0"
     borderopacity="1.0"
     bordercolor="#666666"
     pagecolor="#ffffff"
     id="base" />
  <metadata
     id="metadata3890">
    <rdf:RDF>
      <cc:Work
         rdf:about="">
        <dc:format>image/svg+xml</dc:format>
        <dc:type
           rdf:resource="http://purl.org/dc/dcmitype/StillImage" />
        <dc:title />
      </cc:Work>
    </rdf:RDF>
  </metadata>
  <g
     transform="translate(-73.195089,-164.57934)"
     id="layer1"
     inkscape:groupmode="layer"
     inkscape:label="Layer 1">
    <g
       transform="matrix(0.05000005,0,0,0.05000005,46.472146,168.46872)"
       id="g10692">
      <path
         id="path10664"
         style="opacity:1;fill:#000000;fill-opacity:0.180392;fill-rule:nonzero;stroke:none;stroke-width:1.96986;stroke-linecap:round;stroke-linejoin:round;stroke-miterlimit:4;stroke-dasharray:none;stroke-dashoffset:0;stroke-opacity:1;paint-order:markers stroke fill;filter:url(#filter1957)"
         d="m 534.45833,-72.23125 v 3.175 h 1.32292 v -3.175 z"
         sodipodi:nodetypes="ccccc" />
      <path
         d="m 534.98749,-77.787499 a 0.52921825,0.52921825 0 0 0 -0.52916,0.529167 v 6.085416 a 0.52921825,0.52921825 0 0 0 0.52916,0.529167 h 0.11163 c 0.11867,0.291473 0.35359,0.529167 0.68212,0.529167 h 2.64584 c 0.43058,0 0.79375,-0.363168 0.79375,-0.79375 v -0.264584 a 0.52921825,0.52921825 0 0 0 0.52916,-0.529166 v -4.233334 c 0,-1.016899 -0.83518,-1.852083 -1.85208,-1.852083 z"
         style="color:#000000;font-style:normal;font-variant:normal;font-weight:normal;font-stretch:normal;font-size:medium;line-height:normal;font-family:sans-serif;font-variant-ligatures:normal;font-variant-position:normal;font-variant-caps:normal;font-variant-numeric:normal;font-variant-alternates:normal;font-variant-east-asian:normal;font-feature-settings:normal;font-variation-settings:normal;text-indent:0;text-align:start;text-decoration:none;text-decoration-line:none;text-decoration-style:solid;text-decoration-color:#000000;letter-spacing:normal;word-spacing:normal;text-transform:none;writing-mode:lr-tb;direction:ltr;text-orientation:mixed;dominant-baseline:auto;baseline-shift:baseline;text-anchor:start;white-space:normal;shape-padding:0;shape-margin:0;inline-size:0;clip-rule:nonzero;display:inline;overflow:visible;visibility:visible;isolation:auto;mix-blend-mode:normal;color-interpolation:sRGB;color-interpolation-filters:linearRGB;solid-color:#000000;solid-opacity:1;vector-effect:none;fill:#243454;fill-opacity:1;fill-rule:nonzero;stroke:none;stroke-width:1.05833;stroke-linecap:round;stroke-linejoin:round;stroke-miterlimit:4;stroke-dasharray:none;stroke-dashoffset:0;stroke-opacity:1;paint-order:markers stroke fill;color-rendering:auto;image-rendering:auto;shape-rendering:auto;text-rendering:auto;enable-background:accumulate;stop-color:#000000"
         id="path10666" />
      <path
         id="path10668"
         style="fill:#485070;fill-opacity:1;stroke:none;stroke-width:2.03966;stroke-linecap:round;stroke-linejoin:miter;stroke-miterlimit:4;stroke-dasharray:none;paint-order:markers stroke fill"
         d="m 534.9875,-76.729167 v 3.439583 h 3.175 v -3.439583 z" />
      <path
         sodipodi:nodetypes="cccssscccccsscsssccss"
         id="path10670"
         style="fill:#80a8d0;fill-opacity:1;stroke:none;stroke-width:1.05833;stroke-linecap:round;stroke-linejoin:round;stroke-miterlimit:4;stroke-dasharray:none;paint-order:markers stroke fill"
         d="m 534.98749,-77.258332 v 0.264583 0.529167 h 0.26459 c 0.29315,0 0.52916,0.236008 0.52916,0.529166 0,0.293159 -0.23601,0.529167 -0.52916,0.529167 h -0.26459 v 0.529167 l 10e-6,2.381248 2.11667,0.79375 2.11666,2e-6 v -4.233334 c 0,-0.732896 -0.59002,-1.322916 -1.32292,-1.322916 z m 1.85209,2.38125 h 0.52916 c 0.29316,0 0.52917,0.236008 0.52917,0.529166 v 0.529167 h -1.5875 v -0.529167 c 0,-0.293158 0.23601,-0.529166 0.52917,-0.529166 z" />
      <path
         d="m 534.98749,-77.258332 v 0.264583 0.529167 h 0.26459 c 0.29315,0 0.52916,0.236008 0.52916,0.529166 0,0.293159 -0.23601,0.529167 -0.52916,0.529167 h -0.26459 v 0.529167 0.264583 h 0.79375 v 1.322917 h 2.64584 v -2.645834 c 0,-0.732896 -0.59002,-1.322916 -1.32292,-1.322916 z m 1.85209,2.38125 h 0.52916 c 0.29316,0 0.52917,0.236008 0.52917,0.529166 v 0.529167 h -1.5875 v -0.529167 c 0,-0.293158 0.23601,-0.529166 0.52917,-0.529166 z"
         style="fill:#f0f8ff;fill-opacity:1;stroke:none;stroke-width:1.05833;stroke-linecap:round;stroke-linejoin:round;stroke-miterlimit:4;stroke-dasharray:none;paint-order:markers stroke fill"
         id="path10672" />
      <path
         d="m 534.98749,-76.994265 v 5.29e-4 0.529167 h 0.26459 c 0.29315,0 0.52916,0.236008 0.52916,0.529167 0,0.293158 -0.23601,0.529166 -0.52916,0.529166 h -0.26459 v 0.529167 h 1.0573 v 1.322401 h 2.11717 v -2.380748 c 0,-0.590894 -0.46744,-1.058849 -1.05833,-1.058849 z m 1.85209,2.117183 h 0.52916 c 0.29316,0 0.52917,0.236008 0.52917,0.529166 v 0.529167 h -1.5875 v -0.529167 c 0,-0.293158 0.23601,-0.529166 0.52917,-0.529166 z"
         style="fill:#b8e0ff;fill-opacity:1;stroke:none;stroke-width:1.05833;stroke-linecap:round;stroke-linejoin:round;stroke-miterlimit:4;stroke-dasharray:none;paint-order:markers stroke fill"
         id="path10674" />
      <path
         d="m 534.98749,-72.495832 v 1.322916 h 0.26459 v -0.529166 h 0.26458 v 0.529166 0 0.264584 c 0,0.146579 0.118,0.264583 0.26458,0.264583 h 2.64584 c 0.14658,0 0.26458,-0.118004 0.26458,-0.264583 v -1.058334 c 0,-0.146579 -0.118,-0.264583 -0.26458,-0.264583 h -1.5875 v -0.264583 z"
         style="fill:#484864;fill-opacity:1;stroke:none;stroke-width:0.529167;stroke-linecap:round;stroke-linejoin:round;stroke-miterlimit:4;stroke-dasharray:none;paint-order:markers stroke fill"
         id="path10676" />
      <rect
         style="fill:#545c7c;fill-opacity:1;stroke:none;stroke-width:0.529167;stroke-linecap:round;stroke-linejoin:round;stroke-miterlimit:4;stroke-dasharray:none;paint-order:markers stroke fill"
         id="rect10678"
         width="3.175"
         height="0.26458332"
         x="535.5177"
         y="-71.17292" />
      <path
         sodipodi:nodetypes="ccccccc"
         id="path10680"
         style="fill:#3c405c;fill-opacity:1;stroke:none;stroke-width:0.816356;stroke-linecap:round;stroke-linejoin:miter;stroke-miterlimit:4;stroke-dasharray:none;paint-order:markers stroke fill"
         d="m 535.78125,-74.083334 c -0.32448,0.62597 -0.52799,1.454207 -0.5281,2.3151 -1.2e-4,0.02205 -1.2e-4,0.0441 0,0.06615 h 3.7031 c 1.2e-4,-0.02205 1.2e-4,-0.0441 0,-0.06615 -1.1e-4,-0.860893 -0.20469,-1.68913 -0.52917,-2.3151 z" />
      <path
         id="path10682"
         style="fill:url(#linearGradient10826);fill-opacity:1;stroke:none;stroke-width:0.689335;stroke-linecap:round;stroke-linejoin:miter;stroke-miterlimit:4;stroke-dasharray:none;paint-order:markers stroke fill"
         d="m 536.36472,-73.554172 a 1.0583333,1.8520852 0 0 0 -0.31782,1.322917 h 2.11667 a 1.0583333,1.8520852 0 0 0 -0.31729,-1.322917 z" />
      <path
         d="m 536.0469,-72.231256 c 0,0.146579 0.11801,0.264583 0.26459,0.264583 h 1.5875 c 0.14658,0 0.26458,-0.118004 0.26458,-0.264583 z"
         style="fill:#444c6c;fill-opacity:1;stroke:none;stroke-width:0.529167;stroke-linecap:round;stroke-linejoin:miter;stroke-miterlimit:4;stroke-dasharray:none;paint-order:markers stroke fill"
         id="path10684" />
      <path
         id="path10686"
         style="fill:#1c1c2c;fill-opacity:1;stroke:none;stroke-width:0.689335;stroke-linecap:round;stroke-linejoin:miter;stroke-miterlimit:4;stroke-dasharray:none;paint-order:markers stroke fill"
         d="m 536.36471,-73.554172 a 1.0583333,1.8520852 0 0 0 -0.31781,1.322917 h 0.0108 a 1.0583333,1.8520852 0 0 1 0.30697,-1.058333 h 1.48156 a 1.0583333,1.8520852 0 0 1 0.30645,1.058333 h 0.0108 a 1.0583333,1.8520852 0 0 0 -0.31729,-1.322917 z" />
      <path
         d="m 536.83958,-74.877083 c -0.29315,0 -0.52916,0.236008 -0.52916,0.529166 v 0.264584 c 0,-0.293159 0.23601,-0.529167 0.52916,-0.529167 h 0.52917 c 0.29316,0 0.52917,0.236008 0.52917,0.529167 v -0.264584 c 0,-0.293158 -0.23601,-0.529166 -0.52917,-0.529166 z"
         style="fill:#383c58;fill-opacity:1;stroke:none;stroke-width:0.529167;stroke-linecap:round;stroke-linejoin:miter;stroke-miterlimit:4;stroke-dasharray:none;paint-order:markers stroke fill"
         id="path10688" />
      <path
         d="m 534.98749,-71.702082 v 0.264583 h 0.26459 v -0.264583 z"
         style="fill:#545c7c;fill-opacity:1;stroke:none;stroke-width:0.359497;stroke-linecap:round;stroke-linejoin:miter;stroke-miterlimit:4;stroke-dasharray:none;paint-order:markers stroke fill"
         id="path10690" />
    </g>
  </g>
</svg>
