<?xml version="1.0" encoding="UTF-8" standalone="no"?>
<svg
   xmlns:dc="http://purl.org/dc/elements/1.1/"
   xmlns:cc="http://creativecommons.org/ns#"
   xmlns:rdf="http://www.w3.org/1999/02/22-rdf-syntax-ns#"
   xmlns:svg="http://www.w3.org/2000/svg"
   xmlns="http://www.w3.org/2000/svg"
   xmlns:xlink="http://www.w3.org/1999/xlink"
   xmlns:sodipodi="http://sodipodi.sourceforge.net/DTD/sodipodi-0.dtd"
   xmlns:inkscape="http://www.inkscape.org/namespaces/inkscape"
   sodipodi:docname="spacestation_wall_ver.svg"
   inkscape:version="1.0 (4035a4fb49, 2020-05-01)"
   id="svg3893"
   version="1.1"
   viewBox="0 0 0.26458359 0.42333376"
   height="0.42333376mm"
   width="0.26458359mm">
  <defs
     id="defs3887">
    <linearGradient
       y2="-72.231247"
       x2="529.16669"
       y1="-73.289581"
       x1="529.16669"
       gradientTransform="translate(25.135425)"
       gradientUnits="userSpaceOnUse"
       id="linearGradient10830"
       xlink:href="#linearGradient3561"
       inkscape:collect="always" />
    <linearGradient
       inkscape:collect="always"
       id="linearGradient3561">
      <stop
         style="stop-color:#242840;stop-opacity:1"
         offset="0"
         id="stop3557" />
      <stop
         style="stop-color:#2c3048;stop-opacity:1"
         offset="1"
         id="stop3559" />
    </linearGradient>
  </defs>
  <sodipodi:namedview
     inkscape:window-maximized="1"
     inkscape:window-y="-8"
     inkscape:window-x="-8"
     inkscape:window-height="1057"
     inkscape:window-width="1920"
     showgrid="false"
     inkscape:document-rotation="0"
     inkscape:current-layer="layer1"
     inkscape:document-units="px"
     inkscape:cy="0.65583485"
     inkscape:cx="1.0063875"
     inkscape:zoom="179.2"
     inkscape:pageshadow="2"
     inkscape:pageopacity="0.0"
     borderopacity="1.0"
     bordercolor="#666666"
     pagecolor="#ffffff"
     id="base" />
  <metadata
     id="metadata3890">
    <rdf:RDF>
      <cc:Work
         rdf:about="">
        <dc:format>image/svg+xml</dc:format>
        <dc:type
           rdf:resource="http://purl.org/dc/dcmitype/StillImage" />
        <dc:title></dc:title>
      </cc:Work>
    </rdf:RDF>
  </metadata>
  <g
     transform="translate(-70.17128,-162.31809)"
     id="layer1"
     inkscape:groupmode="layer"
     inkscape:label="Layer 1">
    <g
       transform="matrix(0.05000005,0,0,0.05000005,42.58844,166.24716)"
       id="g10610">
      <path
         transform="scale(0.26458333)"
         d="m 2089.1719,-297 -0.586,0.58594 c -0.6009,0.60095 -0.897,1.18445 -1.2734,1.95312 -0.3764,0.76868 -0.746,1.68289 -1.084,2.69532 -0.6759,2.02484 -1.2284,4.42308 -1.2285,6.76562 v 3 10 c 0,1.2417 0.8984,2.12962 2,2.57812 V -268 c 0,1.62741 1.3726,3 3,3 h 10 c 1.6274,0 3,-1.37259 3,-3 v -1.42188 c 1.1016,-0.4485 2,-1.33642 2,-2.57812 v -10 -3 c -1e-4,-2.34254 -0.5526,-4.7408 -1.2285,-6.76562 -0.3379,-1.01243 -0.7076,-1.92664 -1.084,-2.69532 -0.3764,-0.76867 -0.6725,-1.35218 -1.2734,-1.95312 L 2100.8281,-297 Z"
         style="color:#000000;font-style:normal;font-variant:normal;font-weight:normal;font-stretch:normal;font-size:medium;line-height:normal;font-family:sans-serif;font-variant-ligatures:normal;font-variant-position:normal;font-variant-caps:normal;font-variant-numeric:normal;font-variant-alternates:normal;font-variant-east-asian:normal;font-feature-settings:normal;font-variation-settings:normal;text-indent:0;text-align:start;text-decoration:none;text-decoration-line:none;text-decoration-style:solid;text-decoration-color:#000000;letter-spacing:normal;word-spacing:normal;text-transform:none;writing-mode:lr-tb;direction:ltr;text-orientation:mixed;dominant-baseline:auto;baseline-shift:baseline;text-anchor:start;white-space:normal;shape-padding:0;shape-margin:0;inline-size:0;clip-rule:nonzero;display:inline;overflow:visible;visibility:visible;isolation:auto;mix-blend-mode:normal;color-interpolation:sRGB;color-interpolation-filters:linearRGB;solid-color:#000000;solid-opacity:1;vector-effect:none;fill:#243454;fill-opacity:1;fill-rule:nonzero;stroke:none;stroke-width:3.99999;stroke-linecap:round;stroke-linejoin:miter;stroke-miterlimit:4;stroke-dasharray:none;stroke-dashoffset:0;stroke-opacity:1;paint-order:markers stroke fill;color-rendering:auto;image-rendering:auto;shape-rendering:auto;text-rendering:auto;enable-background:accumulate;stop-color:#000000"
         id="path10584" />
      <rect
         y="-78.052086"
         x="553.24371"
         height="0.79374999"
         width="2.1166666"
         id="rect10586"
         style="fill:#485070;fill-opacity:1;stroke:none;stroke-width:1.05833;stroke-linecap:round;stroke-linejoin:miter;stroke-miterlimit:4;stroke-dasharray:none;paint-order:markers stroke fill" />
      <path
         transform="scale(0.26458333)"
         d="m 2090,-295 c -1,1 -2.9999,5.97783 -3,10 v 3 10 c 0,0.554 0.446,1 1,1 h 14 c 0.554,0 1,-0.446 1,-1 v -10 -3 c -1e-4,-4.02217 -2,-8.99997 -3,-10 h -2 c 0,1.108 -0.892,2 -2,2 h -2 c -1.108,0 -2,-0.892 -2,-2 z"
         style="opacity:1;fill:#80a8d0;fill-opacity:1;stroke:none;stroke-width:2.04302;stroke-linecap:round;stroke-linejoin:round;stroke-miterlimit:4;stroke-dasharray:none;paint-order:markers stroke fill"
         id="path10588" />
      <path
         transform="scale(0.26458333)"
         d="m 2090,-295 v 20 h 10 v -20 h -2 c 0,0.0261 -0.01,0.0503 -0.01,0.0762 V -277 h -6 v -18 z"
         style="color:#000000;font-style:normal;font-variant:normal;font-weight:normal;font-stretch:normal;font-size:medium;line-height:normal;font-family:sans-serif;font-variant-ligatures:normal;font-variant-position:normal;font-variant-caps:normal;font-variant-numeric:normal;font-variant-alternates:normal;font-variant-east-asian:normal;font-feature-settings:normal;font-variation-settings:normal;text-indent:0;text-align:start;text-decoration:none;text-decoration-line:none;text-decoration-style:solid;text-decoration-color:#000000;letter-spacing:normal;word-spacing:normal;text-transform:none;writing-mode:lr-tb;direction:ltr;text-orientation:mixed;dominant-baseline:auto;baseline-shift:baseline;text-anchor:start;white-space:normal;shape-padding:0;shape-margin:0;inline-size:0;clip-rule:nonzero;display:inline;overflow:visible;visibility:visible;isolation:auto;mix-blend-mode:normal;color-interpolation:sRGB;color-interpolation-filters:linearRGB;solid-color:#000000;solid-opacity:1;vector-effect:none;fill:#f0f8ff;fill-opacity:1;fill-rule:nonzero;stroke:none;stroke-width:2;stroke-linecap:round;stroke-linejoin:miter;stroke-miterlimit:4;stroke-dasharray:none;stroke-dashoffset:0;stroke-opacity:1;paint-order:markers stroke fill;color-rendering:auto;image-rendering:auto;shape-rendering:auto;text-rendering:auto;enable-background:accumulate;stop-color:#000000"
         id="path10590" />
      <path
         transform="scale(0.26458333)"
         d="m 2091,-295 v 19 h 8 v -19 h -1 c 0,1.108 -0.892,2 -2,2 h -2 c -1.108,0 -2,-0.892 -2,-2 z"
         style="color:#000000;font-style:normal;font-variant:normal;font-weight:normal;font-stretch:normal;font-size:medium;line-height:normal;font-family:sans-serif;font-variant-ligatures:normal;font-variant-position:normal;font-variant-caps:normal;font-variant-numeric:normal;font-variant-alternates:normal;font-variant-east-asian:normal;font-feature-settings:normal;font-variation-settings:normal;text-indent:0;text-align:start;text-decoration:none;text-decoration-line:none;text-decoration-style:solid;text-decoration-color:#000000;letter-spacing:normal;word-spacing:normal;text-transform:none;writing-mode:lr-tb;direction:ltr;text-orientation:mixed;dominant-baseline:auto;baseline-shift:baseline;text-anchor:start;white-space:normal;shape-padding:0;shape-margin:0;inline-size:0;clip-rule:nonzero;display:inline;overflow:visible;visibility:visible;isolation:auto;mix-blend-mode:normal;color-interpolation:sRGB;color-interpolation-filters:linearRGB;solid-color:#000000;solid-opacity:1;vector-effect:none;fill:#b8e0ff;fill-opacity:1;fill-rule:nonzero;stroke:none;stroke-width:2;stroke-linecap:round;stroke-linejoin:miter;stroke-miterlimit:4;stroke-dasharray:none;stroke-dashoffset:0;stroke-opacity:1;paint-order:markers stroke fill;color-rendering:auto;image-rendering:auto;shape-rendering:auto;text-rendering:auto;enable-background:accumulate;stop-color:#000000"
         id="path10592" />
      <rect
         ry="0.2645801"
         y="-72.231247"
         x="552.7146"
         height="1.5875"
         width="3.175"
         id="rect10594"
         style="opacity:1;fill:#484864;fill-opacity:1;stroke:none;stroke-width:0.529167;stroke-linecap:round;stroke-linejoin:round;stroke-miterlimit:4;stroke-dasharray:none;paint-order:markers stroke fill" />
      <rect
         y="-71.172913"
         x="552.7146"
         height="0.26458332"
         width="3.175"
         id="rect10596"
         style="opacity:1;fill:#545c7c;fill-opacity:1;stroke:none;stroke-width:0.529167;stroke-linecap:round;stroke-linejoin:round;stroke-miterlimit:4;stroke-dasharray:none;paint-order:markers stroke fill" />
      <path
         d="m 554.0375,-74.877082 c -0.29315,0 -0.52916,0.236008 -0.52916,0.529166 v 0.529167 h 1.5875 v -0.529167 c 0,-0.293158 -0.23601,-0.529166 -0.52917,-0.529166 z"
         style="opacity:1;fill:#485070;fill-opacity:1;stroke:none;stroke-width:0.529167;stroke-linecap:round;stroke-linejoin:miter;stroke-miterlimit:4;stroke-dasharray:none;paint-order:markers stroke fill"
         id="path10598" />
      <path
         d="m 554.0375,-74.877082 c -0.29315,0 -0.52916,0.236008 -0.52916,0.529166 v 0.264584 c 0,-0.293159 0.23601,-0.529167 0.52916,-0.529167 h 0.52917 c 0.29316,0 0.52917,0.236008 0.52917,0.529167 v -0.264584 c 0,-0.293158 -0.23601,-0.529166 -0.52917,-0.529166 z"
         style="opacity:1;fill:#383c58;fill-opacity:1;stroke:none;stroke-width:0.529167;stroke-linecap:round;stroke-linejoin:miter;stroke-miterlimit:4;stroke-dasharray:none;paint-order:markers stroke fill"
         id="path10600" />
      <path
         d="m 552.97917,-74.083334 c -0.32448,0.625967 -0.52905,1.45421 -0.52917,2.315106 6e-5,0.02205 2.3e-4,0.0441 5.3e-4,0.06615 h 3.70311 c 3e-4,-0.02205 4.7e-4,-0.0441 5.3e-4,-0.06615 -1.2e-4,-0.860896 -0.20469,-1.689139 -0.52917,-2.315106 z"
         style="opacity:1;fill:#3c405c;fill-opacity:1;stroke:none;stroke-width:0.816356;stroke-linecap:round;stroke-linejoin:miter;stroke-miterlimit:4;stroke-dasharray:none;paint-order:markers stroke fill"
         id="path10602"
         sodipodi:nodetypes="csccccc" />
      <path
         d="m 553.56157,-73.554166 a 1.0583333,1.8520852 0 0 0 -0.31782,1.322917 h 2.11667 a 1.0583333,1.8520852 0 0 0 -0.31729,-1.322917 z"
         style="opacity:1;fill:url(#linearGradient10830);fill-opacity:1;stroke:none;stroke-width:0.689335;stroke-linecap:round;stroke-linejoin:miter;stroke-miterlimit:4;stroke-dasharray:none;paint-order:markers stroke fill"
         id="path10604" />
      <path
         id="path10606"
         style="opacity:1;fill:#444c6c;fill-opacity:1;stroke:none;stroke-width:0.529167;stroke-linecap:round;stroke-linejoin:miter;stroke-miterlimit:4;stroke-dasharray:none;paint-order:markers stroke fill"
         d="m 553.24375,-72.23125 c 0,0.146579 0.11801,0.264583 0.26459,0.264583 h 1.5875 c 0.14658,0 0.26458,-0.118004 0.26458,-0.264583 z" />
      <path
         d="m 553.56157,-73.554166 a 1.0583333,1.8520852 0 0 0 -0.31782,1.322917 h 0.0109 a 1.0583333,1.8520852 0 0 1 0.30697,-1.058333 h 1.48156 a 1.0583333,1.8520852 0 0 1 0.30644,1.058333 h 0.0109 a 1.0583333,1.8520852 0 0 0 -0.31729,-1.322917 z"
         style="opacity:1;fill:#1c1c2c;fill-opacity:1;stroke:none;stroke-width:0.689335;stroke-linecap:round;stroke-linejoin:miter;stroke-miterlimit:4;stroke-dasharray:none;paint-order:markers stroke fill"
         id="path10608" />
    </g>
  </g>
</svg>
