<?xml version="1.0" encoding="UTF-8" standalone="no"?>
<!-- Created with Inkscape (http://www.inkscape.org/) -->

<svg
   width="0.2645835mm"
   height="0.29104167mm"
   viewBox="0 0 0.2645835 0.29104167"
   version="1.1"
   id="svg32025"
   inkscape:version="1.1 (c68e22c387, 2021-05-23)"
   sodipodi:docname="speedpad.svg"
   xmlns:inkscape="http://www.inkscape.org/namespaces/inkscape"
   xmlns:sodipodi="http://sodipodi.sourceforge.net/DTD/sodipodi-0.dtd"
   xmlns="http://www.w3.org/2000/svg"
   xmlns:svg="http://www.w3.org/2000/svg">
  <sodipodi:namedview
     id="namedview32027"
     pagecolor="#ffffff"
     bordercolor="#999999"
     borderopacity="1"
     inkscape:pageshadow="0"
     inkscape:pageopacity="0"
     inkscape:pagecheckerboard="0"
     inkscape:document-units="mm"
     showgrid="false"
     inkscape:zoom="140.62013"
     inkscape:cx="3.2143336"
     inkscape:cy="0.59379836"
     inkscape:window-width="1920"
     inkscape:window-height="1057"
     inkscape:window-x="-8"
     inkscape:window-y="-8"
     inkscape:window-maximized="1"
     inkscape:current-layer="layer1" />
  <defs
     id="defs32022" />
  <g
     inkscape:label="Layer 1"
     inkscape:groupmode="layer"
     id="layer1"
     transform="translate(-55.255545,-114.59532)">
    <g
       id="g5950"
       transform="matrix(0.05000003,0,0,0.05000003,6.7706223,118.65668)">
      <rect
         style="opacity:1;fill:#0b1135;fill-opacity:0.360784;stroke-width:2.5"
         id="rect5941"
         width="5.2916665"
         height="1.5875"
         x="969.69788"
         y="-76.993752"
         ry="0.52916801" />
      <rect
         style="opacity:1;fill:#008100;fill-opacity:1;stroke-width:2.5"
         id="rect5943"
         width="5.2916665"
         height="5.2916665"
         x="969.69788"
         y="-81.227081" />
      <rect
         style="opacity:1;fill:#008c00;fill-opacity:1;stroke-width:2.5"
         id="rect5945"
         width="4.7624998"
         height="4.7624998"
         x="969.96246"
         y="-80.962502" />
      <path
         id="path5948"
         style="opacity:1;fill:#00c200;fill-opacity:1;stroke-width:9.44882"
         d="m 3674,-299 c -0.554,0 -1,0.44601 -1,1 v 2 c 0,0.55399 0.446,1 1,1 h 2 c 0.554,0 1,-0.44601 1,-1 v -2 c 0,-0.55399 -0.446,-1 -1,-1 z"
         transform="scale(0.26458333)"
         sodipodi:nodetypes="sssssssss" />
      <path
         id="path10466"
         style="opacity:1;fill:#00dd00;fill-opacity:1;stroke-width:9.44882"
         d="m 3674,-335 c -0.554,0 -1,0.44601 -1,1 v 2 c 0,0.55399 0.446,1 1,1 h 2 c 0.554,0 1,-0.44601 1,-1 v -2 c 0,-0.55399 -0.446,-1 -1,-1 z m -6,6 c -0.554,0 -1,0.44601 -1,1 v 2 c 0,0.55399 0.446,1 1,1 h 2 c 0.554,0 1,-0.44601 1,-1 v -2 c 0,-0.55399 -0.446,-1 -1,-1 z m 12,0 c -0.554,0 -1,0.44601 -1,1 v 2 c 0,0.55399 0.446,1 1,1 h 2 c 0.554,0 1,-0.44601 1,-1 v -2 c 0,-0.55399 -0.446,-1 -1,-1 z m -6,6 c -0.554,0 -1,0.44601 -1,1 v 2 c 0,0.55399 0.446,1 1,1 h 2 c 0.554,0 1,-0.44601 1,-1 v -2 c 0,-0.55399 -0.446,-1 -1,-1 z"
         transform="matrix(0.26458333,0,0,0.26458333,0,7.9375002)" />
      <path
         id="path10468"
         style="opacity:1;fill:#11ff11;fill-opacity:1;stroke-width:9.44882"
         d="m 3668,-335 c -0.554,0 -1,0.44601 -1,1 v 2 c 0,0.55399 0.446,1 1,1 h 2 c 0.554,0 1,-0.44601 1,-1 v -2 c 0,-0.55399 -0.446,-1 -1,-1 z m 12,0 c -0.554,0 -1,0.44601 -1,1 v 2 c 0,0.55399 0.446,1 1,1 h 2 c 0.554,0 1,-0.44601 1,-1 v -2 c 0,-0.55399 -0.446,-1 -1,-1 z m -12,12 c -0.554,0 -1,0.44601 -1,1 v 2 c 0,0.55399 0.446,1 1,1 h 2 c 0.554,0 1,-0.44601 1,-1 v -2 c 0,-0.55399 -0.446,-1 -1,-1 z m 12,0 c -0.554,0 -1,0.44601 -1,1 v 2 c 0,0.55399 0.446,1 1,1 h 2 c 0.554,0 1,-0.44601 1,-1 v -2 c 0,-0.55399 -0.446,-1 -1,-1 z"
         transform="matrix(0.26458333,0,0,0.26458333,0,7.9375002)" />
    </g>
  </g>
</svg>
