<?xml version="1.0" ?><!-- Created with Inkscape (http://www.inkscape.org/) --><svg xmlns:dc="http://purl.org/dc/elements/1.1/" xmlns:cc="http://creativecommons.org/ns#" xmlns:rdf="http://www.w3.org/1999/02/22-rdf-syntax-ns#" xmlns:svg="http://www.w3.org/2000/svg" xmlns="http://www.w3.org/2000/svg" xmlns:xlink="http://www.w3.org/1999/xlink" xmlns:sodipodi="http://sodipodi.sourceforge.net/DTD/sodipodi-0.dtd" xmlns:inkscape="http://www.inkscape.org/namespaces/inkscape" width="0.26458332mm" height="0.41853103mm" viewBox="0 0 0.26458332 0.41853103" version="1.1" id="svg19080" inkscape:version="0.92.3 (2405546, 2018-03-11)" sodipodi:docname="vase.svg">
  <defs id="defs19074">
    <radialGradient inkscape:collect="always" xlink:href="#linearGradient12652" id="radialGradient12732" gradientUnits="userSpaceOnUse" gradientTransform="matrix(2.2267889,-2.5681034e-5,2.673595e-5,2.3182602,1688.5745,5908.376)" cx="-1376.3203" cy="-4486.25" fx="-1376.3203" fy="-4486.25" r="7.8534999"/>
    <linearGradient id="linearGradient12652" inkscape:collect="always">
      <stop id="stop12650" offset="0" style="stop-color:#fe5172;stop-opacity:1;"/>
      <stop style="stop-color:#fd5071;stop-opacity:1" offset="0.62762976" id="stop12658"/>
      <stop style="stop-color:#ff6e7b;stop-opacity:1" offset="0.88828921" id="stop12656"/>
      <stop id="stop12648" offset="1" style="stop-color:#ff6e7b;stop-opacity:1"/>
    </linearGradient>
    <radialGradient inkscape:collect="always" xlink:href="#linearGradient12652" id="radialGradient12734" gradientUnits="userSpaceOnUse" gradientTransform="matrix(2.2267889,-2.5681034e-5,2.673595e-5,2.3182602,1688.5745,5908.3761)" cx="-1376.3203" cy="-4486.25" fx="-1376.3203" fy="-4486.25" r="7.8534999"/>
    <radialGradient inkscape:collect="always" xlink:href="#linearGradient12622" id="radialGradient12736" gradientUnits="userSpaceOnUse" gradientTransform="matrix(1.6508006,4.4274938e-7,-1.9426412e-7,0.72431793,895.77968,-1239.3376)" cx="-1376.4286" cy="-4495.769" fx="-1376.4286" fy="-4492.7461" r="7.6055002"/>
    <linearGradient inkscape:collect="always" id="linearGradient12622">
      <stop id="stop12620" offset="0" style="stop-color:#ff6e7b;stop-opacity:1"/>
      <stop id="stop12618" offset="1" style="stop-color:#fe5172;stop-opacity:1;"/>
    </linearGradient>
  </defs>
  <sodipodi:namedview id="base" pagecolor="#ffffff" bordercolor="#666666" borderopacity="1.0" inkscape:pageopacity="0.0" inkscape:pageshadow="2" inkscape:zoom="11.313709" inkscape:cx="21.885805" inkscape:cy="0.61002638" inkscape:document-units="mm" inkscape:current-layer="layer1" showgrid="false" inkscape:window-width="1920" inkscape:window-height="1057" inkscape:window-x="-8" inkscape:window-y="-8" inkscape:window-maximized="1"/>
  <metadata id="metadata19077">
    <rdf:RDF>
      <cc:Work rdf:about="">
        <dc:format>image/svg+xml</dc:format>
        <dc:type rdf:resource="http://purl.org/dc/dcmitype/StillImage"/>
        <dc:title/>
      </cc:Work>
    </rdf:RDF>
  </metadata>
  <g inkscape:label="Layer 1" inkscape:groupmode="layer" id="layer1" transform="translate(-127.30102,-120.97181)">
    <g id="g12730" transform="matrix(0.04858683,0,0,0.04858683,145.12633,178.85578)">
      <rect ry="2.7227886" y="-1188.2302" x="-366.87524" height="5.4933634" width="5.4455767" id="rect12714" style="opacity:1;fill:#000000;fill-opacity:0.18000004;fill-rule:nonzero;stroke:none;stroke-width:4.05429649;stroke-linecap:round;stroke-linejoin:round;stroke-miterlimit:4;stroke-dasharray:none;stroke-dashoffset:0;stroke-opacity:1;paint-order:markers stroke fill;filter:url(#filter1957)"/>
      <path style="opacity:1;fill:url(#radialGradient12732);fill-opacity:1;fill-rule:nonzero;stroke:#9d212b;stroke-width:3.40157485;stroke-linecap:round;stroke-linejoin:round;stroke-miterlimit:4;stroke-dasharray:none;stroke-dashoffset:0;stroke-opacity:1;paint-order:markers stroke fill" d="m -1376.3203,-4501.043 c -3.2019,10e-5 -5.7974,2.1347 -5.7969,4.7676 0,0.7062 0.2469,0.9279 0.2188,2.0566 -0.023,0.9304 -1.4894,1.8924 -2.0274,4.1934 -0.1149,0.4917 -0.248,0.9635 -0.248,1.5996 -10e-5,5.4243 3.2291,11.4785 7.8535,11.4785 4.6244,0 7.8536,-6.0545 7.8535,-11.4785 0,-0.6361 -0.133,-1.1079 -0.248,-1.5996 -0.5383,-2.301 -2.0056,-3.2628 -2.0274,-4.1934 -0.028,-1.1287 0.2188,-1.3506 0.2188,-2.0566 5e-4,-2.6328 -2.595,-4.7676 -5.7969,-4.7676 z" transform="scale(0.26458333)" id="path12716" inkscape:connector-curvature="0"/>
      <path style="opacity:1;fill:url(#radialGradient12734);fill-opacity:1;fill-rule:nonzero;stroke:none;stroke-width:6.29410458;stroke-linecap:round;stroke-linejoin:round;stroke-miterlimit:4;stroke-dasharray:none;stroke-dashoffset:0;stroke-opacity:1;paint-order:markers stroke fill" d="m -1383.9258,-4490.0254 c -0.1149,0.4917 -0.248,0.9635 -0.248,1.5996 -10e-5,5.4243 3.2291,11.4785 7.8535,11.4785 4.6244,0 7.8536,-6.0545 7.8535,-11.4785 0,-0.6361 -0.133,-1.1079 -0.248,-1.5996 z" id="path12718" transform="scale(0.26458333)" inkscape:connector-curvature="0"/>
      <path style="opacity:1;fill:url(#radialGradient12736);fill-opacity:1;fill-rule:nonzero;stroke:none;stroke-width:6.29410458;stroke-linecap:round;stroke-linejoin:round;stroke-miterlimit:4;stroke-dasharray:none;stroke-dashoffset:0;stroke-opacity:1;paint-order:markers stroke fill" d="m -1383.9258,-4490.0254 h 15.211 c -0.5383,-2.301 -2.0056,-3.2628 -2.0274,-4.1934 -0.028,-1.1288 0.2188,-1.3506 0.2188,-2.0566 5e-4,-2.6328 -2.595,-4.7676 -5.7969,-4.7676 -3.2019,10e-5 -5.7974,2.1347 -5.7969,4.7676 0,0.7062 0.2469,0.9278 0.2188,2.0566 -0.023,0.9304 -1.4894,1.8924 -2.0274,4.1934 z" id="path12720" transform="scale(0.26458333)" inkscape:connector-curvature="0"/>
      <ellipse style="opacity:1;fill:#ff6e7b;fill-opacity:1;fill-rule:nonzero;stroke:none;stroke-width:0.99686664;stroke-linecap:round;stroke-linejoin:round;stroke-miterlimit:4;stroke-dasharray:none;stroke-dashoffset:0;stroke-opacity:1;paint-order:markers stroke fill" id="ellipse12722" cx="-364.15155" cy="-1189.6398" rx="1.5338426" ry="1.2612492"/>
      <ellipse ry="0.77569354" rx="0.94334394" cy="-1189.6398" cx="-364.15155" id="ellipse12724" style="opacity:1;fill:#8b1c24;fill-opacity:1;fill-rule:nonzero;stroke:none;stroke-width:0.61309296;stroke-linecap:round;stroke-linejoin:round;stroke-miterlimit:4;stroke-dasharray:none;stroke-dashoffset:0;stroke-opacity:1;paint-order:markers stroke fill"/>
      <path style="color:#000000;font-style:normal;font-variant:normal;font-weight:normal;font-stretch:normal;font-size:medium;line-height:normal;font-family:sans-serif;font-variant-ligatures:normal;font-variant-position:normal;font-variant-caps:normal;font-variant-numeric:normal;font-variant-alternates:normal;font-feature-settings:normal;text-indent:0;text-align:start;text-decoration:none;text-decoration-line:none;text-decoration-style:solid;text-decoration-color:#000000;letter-spacing:normal;word-spacing:normal;text-transform:none;writing-mode:lr-tb;direction:ltr;text-orientation:mixed;dominant-baseline:auto;baseline-shift:baseline;text-anchor:start;white-space:normal;shape-padding:0;clip-rule:nonzero;display:inline;overflow:visible;visibility:visible;opacity:1;isolation:auto;mix-blend-mode:normal;color-interpolation:sRGB;color-interpolation-filters:linearRGB;solid-color:#000000;solid-opacity:1;vector-effect:none;fill:#ffaa0f;fill-opacity:1;fill-rule:nonzero;stroke:none;stroke-width:2.26771665;stroke-linecap:butt;stroke-linejoin:miter;stroke-miterlimit:4;stroke-dasharray:none;stroke-dashoffset:0;stroke-opacity:1;color-rendering:auto;image-rendering:auto;shape-rendering:auto;text-rendering:auto;enable-background:accumulate" d="m -1382.832,-4492.4609 c -0.4079,0.6175 -0.8475,1.3822 -1.0938,2.4355 -0.1149,0.4917 -0.248,0.9635 -0.248,1.5996 0,0.7679 0.071,1.5481 0.1953,2.3223 1.443,-0.4567 2.4857,-0.7845 4.0703,-0.4021 l 3.584,4.4161 3.584,-4.4161 c 1.5846,-0.3821 2.6273,-0.054 4.0703,0.4021 0.1243,-0.7741 0.1953,-1.5547 0.1953,-2.3223 0,-0.6361 -0.1332,-1.1079 -0.2481,-1.5996 -0.2462,-1.0533 -0.6858,-1.818 -1.0937,-2.4355 0.4969,1.1025 1.2143,3.5804 0.4023,4.3476 -0.8397,-1.0012 -2.5377,-1.1169 -4.1523,-1.1169 l -2.7578,3.2708 -2.7578,-3.2708 c -1.6146,0 -3.3127,0.1137 -4.1524,1.1169 -0.812,-0.7672 -0.094,-3.2452 0.4024,-4.3476 z" transform="scale(0.26458333)" id="path12726" inkscape:connector-curvature="0" sodipodi:nodetypes="ccscccccscccccccc"/>
      <rect style="opacity:1;fill:none;fill-opacity:1;fill-rule:nonzero;stroke:none;stroke-width:0.04788959;stroke-linecap:round;stroke-linejoin:round;stroke-miterlimit:4;stroke-dasharray:none;stroke-dashoffset:0;stroke-opacity:1;paint-order:markers stroke fill" id="rect12728" width="5.4445133" height="5.4445133" x="-366.87469" y="-1189.2146"/>
    </g>
  </g>
</svg>