<?xml version="1.0" ?><svg xmlns:dc="http://purl.org/dc/elements/1.1/" xmlns:cc="http://creativecommons.org/ns#" xmlns:rdf="http://www.w3.org/1999/02/22-rdf-syntax-ns#" xmlns:svg="http://www.w3.org/2000/svg" xmlns="http://www.w3.org/2000/svg" xmlns:sodipodi="http://sodipodi.sourceforge.net/DTD/sodipodi-0.dtd" xmlns:inkscape="http://www.inkscape.org/namespaces/inkscape" inkscape:version="1.0 (4035a4fb49, 2020-05-01)" id="svg3893" version="1.1" viewBox="0 0 0.26458332 0.46301979" height="0.46301979mm" width="0.26458332mm" sodipodi:docname="warehouse.svg">
  <defs id="defs3887"/>
  <sodipodi:namedview showgrid="false" inkscape:document-rotation="0" inkscape:current-layer="layer1" inkscape:document-units="px" inkscape:cy="0.66147865" inkscape:cx="-0.066996467" inkscape:zoom="128" inkscape:pageshadow="2" inkscape:pageopacity="0.0" borderopacity="1.0" bordercolor="#666666" pagecolor="#ffffff" id="base" fit-margin-top="0" fit-margin-left="0" fit-margin-right="0" fit-margin-bottom="0" inkscape:window-width="1920" inkscape:window-height="1057" inkscape:window-x="-8" inkscape:window-y="-8" inkscape:window-maximized="1"/>
  <metadata id="metadata3890">
    <rdf:RDF>
      <cc:Work rdf:about="">
        <dc:format>image/svg+xml</dc:format>
        <dc:type rdf:resource="http://purl.org/dc/dcmitype/StillImage"/>
        <dc:title/>
      </cc:Work>
    </rdf:RDF>
  </metadata>
  <g id="layer1" inkscape:groupmode="layer" inkscape:label="Layer 1" transform="translate(35.151791,-154.1198)">
    <g id="g2837" transform="matrix(0.04999995,0,0,0.04999995,-28.338777,148.48418)">
      <rect style="opacity:1;fill:#000000;fill-opacity:0.18;fill-rule:nonzero;stroke:none;stroke-width:3.9397;stroke-linecap:round;stroke-linejoin:round;stroke-miterlimit:4;stroke-dasharray:none;stroke-dashoffset:0;stroke-opacity:1;paint-order:markers stroke fill;filter:url(#filter1957)" id="rect19227-0-4-9-9-3-8-9-1-4" width="5.2916665" height="3.1749847" x="-136.26042" y="118.79792" ry="0.93459511"/>
      <path id="path2797" style="color:#000000;font-style:normal;font-variant:normal;font-weight:normal;font-stretch:normal;font-size:medium;line-height:normal;font-family:sans-serif;font-variant-ligatures:normal;font-variant-position:normal;font-variant-caps:normal;font-variant-numeric:normal;font-variant-alternates:normal;font-variant-east-asian:normal;font-feature-settings:normal;font-variation-settings:normal;text-indent:0;text-align:start;text-decoration:none;text-decoration-line:none;text-decoration-style:solid;text-decoration-color:#000000;letter-spacing:normal;word-spacing:normal;text-transform:none;writing-mode:lr-tb;direction:ltr;text-orientation:mixed;dominant-baseline:auto;baseline-shift:baseline;text-anchor:start;white-space:normal;shape-padding:0;shape-margin:0;inline-size:0;clip-rule:nonzero;display:inline;overflow:visible;visibility:visible;isolation:auto;mix-blend-mode:normal;color-interpolation:sRGB;color-interpolation-filters:linearRGB;solid-color:#000000;solid-opacity:1;vector-effect:none;fill:#2c3448;fill-opacity:1;fill-rule:nonzero;stroke:none;stroke-width:1.05833;stroke-linecap:round;stroke-linejoin:round;stroke-miterlimit:4;stroke-dasharray:none;stroke-dashoffset:0;stroke-opacity:1;paint-order:markers fill stroke;color-rendering:auto;image-rendering:auto;shape-rendering:auto;text-rendering:auto;enable-background:accumulate;stop-color:#000000" d="m -134.9375,112.7125 c -0.72374,0 -1.32291,0.59918 -1.32291,1.32292 v 1.85208 0.52917 2.64583 c 0,0.72375 0.59917,1.32292 1.32291,1.32292 h 2.64584 c 0.72374,0 1.32291,-0.59917 1.32291,-1.32292 v -2.64583 -0.52917 -1.85208 c 0,-0.72374 -0.59917,-1.32292 -1.32291,-1.32292 z"/>
      <rect style="opacity:1;fill:#786818;fill-opacity:1;stroke:none;stroke-width:1.05833;stroke-linecap:round;stroke-linejoin:round;stroke-miterlimit:4;stroke-dasharray:none;paint-order:markers fill stroke" id="rect2383" width="4.2333374" height="4.7624903" x="-135.73125" y="115.09376" ry="0.79375339"/>
      <rect style="opacity:1;fill:#9c9440;fill-opacity:1;stroke:none;stroke-width:0.483059;stroke-linecap:round;stroke-linejoin:round;stroke-miterlimit:4;stroke-dasharray:none;paint-order:markers fill stroke" id="rect2767" width="2.645839" height="1.587492" x="-134.9375" y="118.00417" ry="0.52916193"/>
      <rect ry="0.79375339" y="113.24166" x="-135.73125" height="3.96875" width="4.2333331" id="rect2385" style="opacity:1;mix-blend-mode:normal;fill:#d4c034;fill-opacity:1;stroke:none;stroke-width:1.05833;stroke-linecap:round;stroke-linejoin:round;stroke-miterlimit:4;stroke-dasharray:none;paint-order:markers fill stroke"/>
      <rect ry="0.52916193" y="117.73959" x="-134.9375" height="1.587492" width="2.645839" id="rect2387" style="opacity:1;fill:#343850;fill-opacity:1;stroke:none;stroke-width:0.483059;stroke-linecap:round;stroke-linejoin:round;stroke-miterlimit:4;stroke-dasharray:none;paint-order:markers fill stroke"/>
      <rect ry="0.52916545" y="114.3" x="-134.9375" height="2.3812499" width="2.6458449" id="rect2754" style="opacity:1;fill:#e0d460;fill-opacity:1;stroke:none;stroke-width:0.648094;stroke-linecap:round;stroke-linejoin:round;stroke-miterlimit:4;stroke-dasharray:none;paint-order:markers fill stroke"/>
      <rect style="opacity:1;mix-blend-mode:normal;fill:#383850;fill-opacity:1;stroke:none;stroke-width:0.648094;stroke-linecap:round;stroke-linejoin:round;stroke-miterlimit:4;stroke-dasharray:none;paint-order:markers fill stroke" id="rect2391" width="2.6458449" height="2.3812499" x="-134.9375" y="114.03542" ry="0.52916545"/>
      <path id="path2424" style="opacity:1;mix-blend-mode:normal;fill:#383c54;fill-opacity:1;stroke:none;stroke-width:0.264583px;stroke-linecap:butt;stroke-linejoin:miter;stroke-opacity:1" d="m -134.40833,114.03542 c -0.29316,0 -0.52917,0.23601 -0.52917,0.52917 v 0.39687 l 1.45521,1.45521 h 0.66146 c 0.25248,0 0.46125,-0.17549 0.51469,-0.41134 l -1.9699,-1.96991 z"/>
      <path id="path2393" style="opacity:1;mix-blend-mode:normal;fill:#505474;fill-opacity:1;stroke:none;stroke-width:0.264583px;stroke-linecap:butt;stroke-linejoin:miter;stroke-opacity:1" d="m -134.40833,114.03542 c -0.21539,0 -0.39887,0.12827 -0.48163,0.31213 l 2.06913,2.06912 c 0.29316,0 0.52917,-0.23601 0.52917,-0.52917 v -0.52916 l -1.32292,-1.32292 z"/>
      <path d="m -133.21771,114.03542 c -0.36218,0 -0.66145,0.29928 -0.66145,0.66146 v 0.52917 c 0,0.36218 0.29927,0.66145 0.66145,0.66145 0.36218,0 0.66146,-0.29927 0.66146,-0.66145 v -0.52917 c 0,-0.36218 -0.29928,-0.66146 -0.66146,-0.66146 z" style="color:#000000;font-style:normal;font-variant:normal;font-weight:normal;font-stretch:normal;font-size:medium;line-height:normal;font-family:sans-serif;font-variant-ligatures:normal;font-variant-position:normal;font-variant-caps:normal;font-variant-numeric:normal;font-variant-alternates:normal;font-variant-east-asian:normal;font-feature-settings:normal;font-variation-settings:normal;text-indent:0;text-align:start;text-decoration:none;text-decoration-line:none;text-decoration-style:solid;text-decoration-color:#000000;letter-spacing:normal;word-spacing:normal;text-transform:none;writing-mode:lr-tb;direction:ltr;text-orientation:mixed;dominant-baseline:auto;baseline-shift:baseline;text-anchor:start;white-space:normal;shape-padding:0;shape-margin:0;inline-size:0;clip-rule:nonzero;display:inline;overflow:visible;visibility:visible;isolation:auto;mix-blend-mode:normal;color-interpolation:sRGB;color-interpolation-filters:linearRGB;solid-color:#000000;solid-opacity:1;vector-effect:none;fill:#2c2c40;fill-opacity:1;fill-rule:nonzero;stroke:none;stroke-width:0.529167;stroke-linecap:round;stroke-linejoin:round;stroke-miterlimit:4;stroke-dasharray:none;stroke-dashoffset:0;stroke-opacity:1;paint-order:markers fill stroke;color-rendering:auto;image-rendering:auto;shape-rendering:auto;text-rendering:auto;enable-background:accumulate;stop-color:#000000" id="path2786"/>
      <path id="path2779" style="color:#000000;font-style:normal;font-variant:normal;font-weight:normal;font-stretch:normal;font-size:medium;line-height:normal;font-family:sans-serif;font-variant-ligatures:normal;font-variant-position:normal;font-variant-caps:normal;font-variant-numeric:normal;font-variant-alternates:normal;font-variant-east-asian:normal;font-feature-settings:normal;font-variation-settings:normal;text-indent:0;text-align:start;text-decoration:none;text-decoration-line:none;text-decoration-style:solid;text-decoration-color:#000000;letter-spacing:normal;word-spacing:normal;text-transform:none;writing-mode:lr-tb;direction:ltr;text-orientation:mixed;dominant-baseline:auto;baseline-shift:baseline;text-anchor:start;white-space:normal;shape-padding:0;shape-margin:0;inline-size:0;clip-rule:nonzero;display:inline;overflow:visible;visibility:visible;isolation:auto;mix-blend-mode:normal;color-interpolation:sRGB;color-interpolation-filters:linearRGB;solid-color:#000000;solid-opacity:1;vector-effect:none;fill:#3c4060;fill-opacity:1;fill-rule:nonzero;stroke:none;stroke-width:0.529167;stroke-linecap:round;stroke-linejoin:round;stroke-miterlimit:4;stroke-dasharray:none;stroke-dashoffset:0;stroke-opacity:1;paint-order:markers fill stroke;color-rendering:auto;image-rendering:auto;shape-rendering:auto;text-rendering:auto;enable-background:accumulate;stop-color:#000000" d="m -133.21771,113.50625 c -0.36218,0 -0.66145,0.29928 -0.66145,0.66146 v 0.52917 c 0,0.36218 0.29927,0.66146 0.66145,0.66146 0.36218,0 0.66146,-0.29928 0.66146,-0.66146 v -0.52917 c 0,-0.36218 -0.29928,-0.66146 -0.66146,-0.66146 z"/>
      <path id="circle2395" style="opacity:1;mix-blend-mode:normal;fill:#606498;fill-opacity:1;stroke:none;stroke-width:1.05833;stroke-linecap:round;stroke-linejoin:round;stroke-miterlimit:4;stroke-dasharray:none;paint-order:markers fill stroke" d="m -133.21771,113.77084 a 0.39687499,0.39687499 0 0 0 -0.39687,0.39687 v 0.52917 a 0.39687499,0.39687499 0 0 0 0.39687,0.39687 0.39687499,0.39687499 0 0 0 0.39688,-0.39687 v -0.52917 a 0.39687499,0.39687499 0 0 0 -0.39688,-0.39687 z"/>
      <circle style="opacity:1;mix-blend-mode:normal;fill:#8c8cbc;fill-opacity:1;stroke:none;stroke-width:1.05833;stroke-linecap:round;stroke-linejoin:round;stroke-miterlimit:4;stroke-dasharray:none;paint-order:markers fill stroke" id="circle2399" cx="-133.21771" cy="114.16772" r="0.39687499"/>
      <circle r="0.13229166" cy="114.16772" cx="-133.21771" id="circle2401" style="opacity:1;mix-blend-mode:normal;fill:#101424;fill-opacity:1;stroke:none;stroke-width:0.352777;stroke-linecap:round;stroke-linejoin:round;stroke-miterlimit:4;stroke-dasharray:none;paint-order:markers fill stroke"/>
      <path id="rect2762" style="opacity:1;fill:#282c3c;fill-opacity:1;stroke:none;stroke-width:0.483058;stroke-linecap:round;stroke-linejoin:round;stroke-miterlimit:4;stroke-dasharray:none;paint-order:markers fill stroke" d="m -134.40833,117.73959 c -0.29315,0 -0.52917,0.236 -0.52917,0.52916 v 0.26459 c 0,-0.29316 0.23602,-0.52917 0.52917,-0.52917 h 1.5875 c 0.29315,0 0.52917,0.23601 0.52917,0.52917 v -0.26459 c 0,-0.29316 -0.23602,-0.52916 -0.52917,-0.52916 z"/>
      <path id="path2389" style="opacity:1;mix-blend-mode:normal;fill:#6c78dc;fill-opacity:1;stroke:none;stroke-width:0.264583px;stroke-linecap:butt;stroke-linejoin:miter;stroke-opacity:1" d="m -132.73711,117.74786 -2.20039,0.84646 v 0.2036 c 0,0.26448 0.1926,0.48079 0.44545,0.5209 l 2.20039,-0.84646 v -0.20361 c 0,-0.26448 -0.1926,-0.48079 -0.44545,-0.52089 z"/>
      <path id="path2769" style="opacity:1;mix-blend-mode:normal;fill:#606cbc;fill-opacity:1;stroke:none;stroke-width:0.264583px;stroke-linecap:butt;stroke-linejoin:miter;stroke-opacity:1" d="m -132.73763,117.74786 -0.66559,0.25631 h 0.58239 c 0.27296,0 0.49349,0.2054 0.52296,0.47026 l 0.006,-0.002 v -0.20361 c 0,-0.035 -0.004,-0.0692 -0.0103,-0.10232 -0.002,-0.0112 -0.006,-0.0216 -0.009,-0.0326 -0.005,-0.0208 -0.0108,-0.0413 -0.0186,-0.061 -0.006,-0.0156 -0.014,-0.0301 -0.0217,-0.045 -0.007,-0.0128 -0.0131,-0.0256 -0.0207,-0.0377 -0.0107,-0.0171 -0.0226,-0.0334 -0.0351,-0.0491 -0.007,-0.009 -0.0138,-0.0172 -0.0212,-0.0253 -0.0142,-0.0157 -0.029,-0.0306 -0.045,-0.0444 -0.008,-0.007 -0.0153,-0.013 -0.0233,-0.0191 -0.0177,-0.0137 -0.0364,-0.0263 -0.0558,-0.0377 -0.007,-0.004 -0.0137,-0.008 -0.0207,-0.0114 -0.0222,-0.0117 -0.0448,-0.022 -0.0687,-0.0305 -0.004,-0.001 -0.008,-0.002 -0.0114,-0.004 -0.0265,-0.009 -0.054,-0.0161 -0.0822,-0.0207 -5.3e-4,-8e-5 -0.001,-4.3e-4 -0.002,-5.1e-4 z"/>
    </g>
  </g>
</svg>