<?xml version="1.0" encoding="UTF-8" standalone="no"?>
<svg
   xmlns:dc="http://purl.org/dc/elements/1.1/"
   xmlns:cc="http://creativecommons.org/ns#"
   xmlns:rdf="http://www.w3.org/1999/02/22-rdf-syntax-ns#"
   xmlns:svg="http://www.w3.org/2000/svg"
   xmlns="http://www.w3.org/2000/svg"
   xmlns:sodipodi="http://sodipodi.sourceforge.net/DTD/sodipodi-0.dtd"
   xmlns:inkscape="http://www.inkscape.org/namespaces/inkscape"
   sodipodi:docname="arcade_fence_hor.svg"
   inkscape:version="1.0 (4035a4fb49, 2020-05-01)"
   id="svg27006"
   version="1.1"
   viewBox="0 0 0.29104167 0.44979334"
   height="0.44979334mm"
   width="0.29104167mm">
  <defs
     id="defs27000" />
  <sodipodi:namedview
     inkscape:object-paths="true"
     inkscape:snap-intersection-paths="true"
     inkscape:snap-smooth-nodes="true"
     inkscape:snap-midpoints="true"
     inkscape:document-rotation="0"
     inkscape:window-maximized="1"
     inkscape:window-y="-8"
     inkscape:window-x="-8"
     inkscape:window-height="1057"
     inkscape:window-width="1920"
     fit-margin-bottom="0"
     fit-margin-right="0"
     fit-margin-left="0"
     fit-margin-top="0"
     showgrid="false"
     inkscape:current-layer="layer1"
     inkscape:document-units="mm"
     inkscape:cy="1.3749166"
     inkscape:cx="0.89087374"
     inkscape:zoom="256"
     inkscape:pageshadow="2"
     inkscape:pageopacity="0.0"
     borderopacity="1.0"
     bordercolor="#666666"
     pagecolor="#ffffff"
     id="base" />
  <metadata
     id="metadata27003">
    <rdf:RDF>
      <cc:Work
         rdf:about="">
        <dc:format>image/svg+xml</dc:format>
        <dc:type
           rdf:resource="http://purl.org/dc/dcmitype/StillImage" />
        <dc:title />
      </cc:Work>
    </rdf:RDF>
  </metadata>
  <g
     transform="translate(246.32709,-96.940975)"
     id="layer1"
     inkscape:groupmode="layer"
     inkscape:label="Layer 1">
    <g
       transform="matrix(0.05000143,0,0,0.05000143,-245.66561,158.3986)"
       id="g9089">
      <rect
         ry="1.0583171"
         y="-1223.2958"
         x="-12.964581"
         height="3.174943"
         width="5.2916665"
         id="rect19227-0-4-9-2-7-4-7-0-5-4"
         style="opacity:1;fill:#000000;fill-opacity:0.18;fill-rule:nonzero;stroke:none;stroke-width:3.93965;stroke-linecap:round;stroke-linejoin:round;stroke-miterlimit:4;stroke-dasharray:none;stroke-dashoffset:0;stroke-opacity:1;paint-order:markers stroke fill;filter:url(#filter1957)" />
      <path
         inkscape:connector-curvature="0"
         style="opacity:1;fill:#282c58;fill-opacity:1;fill-rule:nonzero;stroke:none;stroke-width:4;stroke-linecap:round;stroke-linejoin:round;stroke-miterlimit:4;stroke-dasharray:none;stroke-dashoffset:0;stroke-opacity:1;paint-order:markers stroke fill"
         d="m -39,-4645.4805 c -6.059403,0 -11,4.9407 -11,11 v 14 c 0,1.6275 1.372551,3 3,3 h 16 c 1.627453,0 3,-1.3725 3,-3 v -14 c 0,-6.0593 -4.940595,-11 -11,-11 z"
         transform="scale(0.26458333)"
         id="path9065" />
      <path
         style="opacity:1;fill:#cccce8;fill-opacity:1;fill-rule:nonzero;stroke:none;stroke-width:4;stroke-linecap:round;stroke-linejoin:round;stroke-miterlimit:4;stroke-dasharray:none;stroke-dashoffset:0;stroke-opacity:1;paint-order:markers stroke fill"
         d="m -39,-4643.4805 c -4.986,0 -9,4.014 -9,9 0,4.6667 0,9.3333 0,14 0,0.554 0.446051,1 1,1 h 16 c 0.553949,0 1,-0.446 1,-1 0,-4.6667 0,-9.3333 0,-14 0,-4.986 -4.014,-9 -9,-9 z"
         transform="scale(0.26458333)"
         id="rect8929-3"
         inkscape:connector-curvature="0"
         sodipodi:nodetypes="sccssccs" />
      <path
         inkscape:connector-curvature="0"
         style="opacity:1;fill:#8c90d0;fill-opacity:1;fill-rule:nonzero;stroke:none;stroke-width:4;stroke-linecap:round;stroke-linejoin:round;stroke-miterlimit:4;stroke-dasharray:none;stroke-dashoffset:0;stroke-opacity:1;paint-order:markers stroke fill"
         d="M -43.667969,-4642.1719 C -46.2656,-4640.5968 -48,-4637.7525 -48,-4634.4805 v 7.334 l 7,-9.334 c -0.428915,-1.6064 -1.124119,-3.8516 -2.667969,-5.6914 z"
         transform="scale(0.26458333)"
         id="path9057" />
      <path
         style="opacity:1;fill:#e0e4f4;fill-opacity:1;fill-rule:nonzero;stroke:none;stroke-width:4;stroke-linecap:round;stroke-linejoin:round;stroke-miterlimit:4;stroke-dasharray:none;stroke-dashoffset:0;stroke-opacity:1;paint-order:markers stroke fill"
         d="m -39,-4640.4805 c -4.985998,0 -9,4.0141 -9,9 v 2 c 0,-4.986 4.014,-9 9,-9 4.986,0 9,4.014 9,9 v -2 c 0,-4.9859 -4.014,-9 -9,-9 z"
         transform="scale(0.26458333)"
         id="path9046"
         inkscape:connector-curvature="0"
         sodipodi:nodetypes="sscscss" />
      <path
         sodipodi:nodetypes="sccssccs"
         inkscape:connector-curvature="0"
         id="path9044"
         transform="scale(0.26458333)"
         d="m -39,-4638.4805 c -4.986,0 -9,4.014 -9,9 v 9 c 0,0.554 0.446051,1 1,1 h 16 c 0.553949,0 1,-0.446 1,-1 v -9 c 0,-4.986 -4.014,-9 -9,-9 z"
         style="opacity:1;fill:#9ca0dc;fill-opacity:1;fill-rule:nonzero;stroke:none;stroke-width:4;stroke-linecap:round;stroke-linejoin:round;stroke-miterlimit:4;stroke-dasharray:none;stroke-dashoffset:0;stroke-opacity:1;paint-order:markers stroke fill" />
      <path
         sodipodi:nodetypes="sccccccs"
         inkscape:connector-curvature="0"
         id="path9015"
         d="m -10.31875,-1225.9417 c -1.026054,0 -1.852083,0.8261 -1.852083,1.8521 0,0.3528 0,0.7056 0,1.0584 0,0.1466 0.11799,0.2645 0.264583,0.2645 1.058333,0 2.1166668,0 3.1750001,0 0.1465932,0 0.2645833,-0.1179 0.2645833,-0.2645 0,-0.3528 0,-0.7056 0,-1.0584 0,-1.026 -0.8260291,-1.8521 -1.8520834,-1.8521 z"
         style="opacity:1;fill:#7074b8;fill-opacity:1;fill-rule:nonzero;stroke:none;stroke-width:1.05833;stroke-linecap:round;stroke-linejoin:round;stroke-miterlimit:4;stroke-dasharray:none;stroke-dashoffset:0;stroke-opacity:1;paint-order:markers stroke fill" />
      <path
         transform="scale(0.26458333)"
         style="opacity:1;fill:#f4a408;fill-opacity:1;fill-rule:nonzero;stroke:none;stroke-width:4;stroke-linecap:round;stroke-linejoin:round;stroke-miterlimit:4;stroke-dasharray:none;stroke-dashoffset:0;stroke-opacity:1;paint-order:markers stroke fill"
         d="m -39,-4635.4805 c -3.878,0 -7,3.122 -7,7 0,1.3333 0,2.6667 0,4 0,0.5541 0.445947,1 1,1 4,0 8,0 12,0 0.554053,0 1,-0.4459 1,-1 0,-1.3333 0,-2.6667 0,-4 0,-3.878 -3.122,-7 -7,-7 z"
         id="rect8964"
         inkscape:connector-curvature="0"
         sodipodi:nodetypes="sccccccs" />
      <path
         transform="scale(0.26458333)"
         inkscape:connector-curvature="0"
         style="opacity:1;fill:#d08c07;fill-opacity:1;fill-rule:nonzero;stroke:none;stroke-width:4;stroke-linecap:round;stroke-linejoin:round;stroke-miterlimit:4;stroke-dasharray:none;stroke-dashoffset:0;stroke-opacity:1;paint-order:markers stroke fill"
         d="m -39,-4635.4805 c -3.878,0 -7,3.122 -7,7 v 3 c 0,-3.8781 3.122001,-7 7,-7 3.878001,0 7,3.1219 7,7 v -3 c 0,-3.878 -3.122,-7 -7,-7 z"
         id="path8994" />
      <path
         transform="matrix(5.2916667,0,0,5.2916667,-13.2292,-1229.1167)"
         d="m 0.55078125,0.5 0.29882813,0.5996094 c 0.0277026,0 0.0507812,-0.021123 0.0507812,-0.048828 V 0.84960938 C 0.90039062,0.65570938 0.74468125,0.5 0.55078125,0.5 Z M 0.37304688,0.546875 C 0.28102588,0.60043 0.21692055,0.69593063 0.203125,0.80664062 L 0.34960938,1.0996094 h 0.30078124 z"
         style="opacity:1;fill:#684800;fill-opacity:1;stroke:none;stroke-width:0.05px;stroke-linecap:butt;stroke-linejoin:miter;stroke-opacity:1"
         id="path8970" />
      <path
         inkscape:connector-curvature="0"
         style="opacity:1;fill:#c0c4e4;fill-opacity:1;stroke:none;stroke-width:1px;stroke-linecap:butt;stroke-linejoin:miter;stroke-opacity:1"
         d="m -42.201172,-4639.8867 c -3.393784,1.2866 -5.798828,4.5508 -5.798828,8.4062 v 2 c 0,-4.1201 2.744355,-7.5683 6.509766,-8.6445 -0.191592,-0.5685 -0.424656,-1.1645 -0.710938,-1.7617 z"
         transform="scale(0.26458333)"
         id="path9055" />
      <path
         transform="matrix(0.26458333,0,0,0.26458333,-13.22917,-1229.1167)"
         d="m 11.015625,10 1.589844,3.191406 C 15.70324,13.914354 18,16.675638 18,20 V 17 C 18,13.364567 15.255163,10.39238 11.716797,10.035156 11.486036,10.011859 11.252603,10.000519 11.015625,10 Z m -3.5449219,0.955078 c -0.3260252,0.190187 -0.6382859,0.399984 -0.9277343,0.638672 -0.1681005,0.138621 -0.3300606,0.285923 -0.484375,0.439453 -0.02636,0.02651 -0.050241,0.05509 -0.076172,0.08203 -0.1312856,0.134859 -0.260758,0.272845 -0.3808594,0.417969 -0.00265,0.0032 -0.00517,0.0066 -0.00781,0.0098 -0.1469768,0.180651 -0.2873376,0.367325 -0.4160156,0.5625 -0.00259,0.0039 -0.00523,0.0078 -0.00781,0.01172 -0.1417645,0.215966 -0.2727596,0.440035 -0.390625,0.671874 -0.00555,0.01092 -0.01013,0.02225 -0.015625,0.0332 -0.1156844,0.230514 -0.219991,0.466788 -0.3105469,0.710937 -0.00122,0.0033 -0.00269,0.0065 -0.00391,0.0098 C 4.2625953,15.048429 4.131217,15.581355 4.0625,16.132812 l 0.5273438,1.052735 c 0.7755989,-1.772533 2.2616945,-3.151461 4.1035156,-3.791016 z"
         style="opacity:1;fill:#593d00;fill-opacity:1;fill-rule:nonzero;stroke:none;stroke-width:3.99999;stroke-linecap:round;stroke-linejoin:round;stroke-miterlimit:4;stroke-dasharray:none;stroke-dashoffset:0;stroke-opacity:1;paint-order:markers stroke fill"
         id="path847" />
    </g>
  </g>
</svg>
