<?xml version="1.0" ?><svg xmlns:dc="http://purl.org/dc/elements/1.1/" xmlns:cc="http://creativecommons.org/ns#" xmlns:rdf="http://www.w3.org/1999/02/22-rdf-syntax-ns#" xmlns:svg="http://www.w3.org/2000/svg" xmlns="http://www.w3.org/2000/svg" xmlns:sodipodi="http://sodipodi.sourceforge.net/DTD/sodipodi-0.dtd" xmlns:inkscape="http://www.inkscape.org/namespaces/inkscape" sodipodi:docname="grass_dull.svg" inkscape:version="1.0 (4035a4fb49, 2020-05-01)" id="svg3893" version="1.1" viewBox="0 0 0.26458332 0.47624919" height="0.47624919mm" width="0.26458332mm">
  <defs id="defs3887"/>
  <sodipodi:namedview inkscape:window-maximized="1" inkscape:window-y="-8" inkscape:window-x="-8" inkscape:window-height="1057" inkscape:window-width="1920" showgrid="false" inkscape:document-rotation="0" inkscape:current-layer="layer1" inkscape:document-units="px" inkscape:cy="6.1787361" inkscape:cx="-1.2748998" inkscape:zoom="63.356767" inkscape:pageshadow="2" inkscape:pageopacity="0.0" borderopacity="1.0" bordercolor="#666666" pagecolor="#ffffff" id="base"/>
  <metadata id="metadata3890">
    <rdf:RDF>
      <cc:Work rdf:about="">
        <dc:format>image/svg+xml</dc:format>
        <dc:type rdf:resource="http://purl.org/dc/dcmitype/StillImage"/>
        <dc:title/>
      </cc:Work>
    </rdf:RDF>
  </metadata>
  <g transform="translate(-175.75893,-163.81491)" id="layer1" inkscape:groupmode="layer" inkscape:label="Layer 1">
    <g transform="matrix(0.04999745,0,0,0.05,163.19186,228.80293)" id="g14362" style="stroke-width:20.0006">
      <g id="g12855" style="stroke-width:20.0006">
        <rect style="opacity:1;fill:#000000;fill-opacity:0.18;fill-rule:nonzero;stroke:none;stroke-width:78.7962;stroke-linecap:round;stroke-linejoin:round;stroke-miterlimit:4;stroke-dasharray:none;stroke-dashoffset:0;stroke-opacity:1;paint-order:markers stroke fill;filter:url(#filter1957)" id="rect19227-0-4-9-9" width="5.2913823" height="3.1749845" x="251.35445" y="-1293.4104" ry="0.93459511"/>
        <path sodipodi:nodetypes="cscccsscsccc" inkscape:connector-curvature="0" id="path14329" d="m 252.23631,-1299.7604 c -0.30137,0 -0.88214,1.5154 -0.88214,1.7137 v 0.011 2.3211 h 5.29166 v -2.3314 c 0,-0.2354 -0.58067,-1.7137 -0.88213,-1.7137 -0.30147,0 -0.88203,1.5154 -0.88203,1.7137 0,-0.2354 -0.58067,-1.7137 -0.88214,-1.7137 -0.30137,0 -0.88167,1.5154 -0.88167,1.7137 0,-0.2354 -0.58067,-1.7137 -0.88203,-1.7137 z" style="opacity:1;fill:#7c9864;fill-opacity:1;fill-rule:nonzero;stroke:none;stroke-width:80.966;stroke-linecap:round;stroke-linejoin:round;stroke-miterlimit:4;stroke-dasharray:none;stroke-dashoffset:0;stroke-opacity:1;paint-order:markers stroke fill"/>
        <path sodipodi:nodetypes="cccccccccscscc" inkscape:connector-curvature="0" id="path14331" d="m 251.35417,-1298.029 v 3.7324 0 0.3948 h 5.29166 v -2.2199 -1.9073 c -0.30137,0 -0.88156,1.7088 -0.88156,1.9073 v 0 c 0,-0.2356 -0.58028,-1.9073 -0.88155,-1.9073 -0.30148,0 -0.88214,1.7088 -0.88214,1.9073 0,-0.2356 -0.58076,-1.9073 -0.88214,-1.9073 -0.30138,0 -0.88213,1.7088 -0.88213,1.9073 0,-0.2355 -0.58077,-1.9073 -0.88214,-1.9073 z" style="opacity:1;fill:#6c805c;fill-opacity:1;fill-rule:nonzero;stroke:none;stroke-width:80.966;stroke-linecap:round;stroke-linejoin:round;stroke-miterlimit:4;stroke-dasharray:none;stroke-dashoffset:0;stroke-opacity:1;paint-order:markers stroke fill"/>
        <path sodipodi:nodetypes="cscccsscsccc" style="opacity:1;fill:#485c38;fill-opacity:1;fill-rule:nonzero;stroke:none;stroke-width:80.966;stroke-linecap:round;stroke-linejoin:round;stroke-miterlimit:4;stroke-dasharray:none;stroke-dashoffset:0;stroke-opacity:1;paint-order:markers stroke fill" d="m 252.23631,-1296.2078 c -0.30137,0 -0.88214,1.4283 -0.88214,1.6266 v 0.01 2.7483 h 5.29166 v -2.7587 c 0,-0.2355 -0.58067,-1.6265 -0.88213,-1.6265 -0.30138,0 -0.88203,1.4282 -0.88203,1.6265 0,-0.2355 -0.58029,-1.6265 -0.88166,-1.6265 -0.30137,0 -0.88215,1.4282 -0.88215,1.6265 0,-0.2355 -0.58067,-1.6265 -0.88203,-1.6265 z" id="path14333" inkscape:connector-curvature="0"/>
      </g>
      <rect y="-1292.3521" x="251.35445" height="0.52916664" width="5.2916598" id="rect1750" style="opacity:1;fill:#34442c;fill-opacity:1;stroke:none;stroke-width:21.1672;stroke-linecap:square;stroke-miterlimit:4;stroke-dasharray:none;paint-order:markers fill stroke"/>
    </g>
  </g>
</svg>