<?xml version="1.0" encoding="UTF-8" standalone="no"?>
<!-- Created with Inkscape (http://www.inkscape.org/) -->

<svg
   width="0.26458335mm"
   height="0.4630208mm"
   viewBox="0 0 0.26458335 0.4630208"
   version="1.1"
   id="svg557535"
   inkscape:version="1.1 (c68e22c387, 2021-05-23)"
   sodipodi:docname="grass_teal.svg"
   xmlns:inkscape="http://www.inkscape.org/namespaces/inkscape"
   xmlns:sodipodi="http://sodipodi.sourceforge.net/DTD/sodipodi-0.dtd"
   xmlns="http://www.w3.org/2000/svg"
   xmlns:svg="http://www.w3.org/2000/svg">
  <sodipodi:namedview
     id="namedview557537"
     pagecolor="#ffffff"
     bordercolor="#999999"
     borderopacity="1"
     inkscape:pageshadow="0"
     inkscape:pageopacity="0"
     inkscape:pagecheckerboard="0"
     inkscape:document-units="mm"
     showgrid="false"
     inkscape:zoom="198.86689"
     inkscape:cx="1.1163246"
     inkscape:cy="0.97804114"
     inkscape:window-width="1920"
     inkscape:window-height="1057"
     inkscape:window-x="-8"
     inkscape:window-y="-8"
     inkscape:window-maximized="1"
     inkscape:current-layer="layer1" />
  <defs
     id="defs557532" />
  <g
     inkscape:label="Layer 1"
     inkscape:groupmode="layer"
     id="layer1"
     transform="translate(-121.67183,-117.98447)">
    <g
       id="g442793"
       transform="matrix(0.04999591,0,0,0.05,43.956848,121.95322)"
       style="stroke-width:20.0008">
      <path
         id="path6005-3-5-3-4"
         style="fill:#0a0f32;fill-opacity:0.2;stroke-width:19.4424"
         d="m 1559.7189,-71.702066 -10e-5,1.058283 c 0,0.293199 -0.236,0.529199 -0.5291,0.529199 h -4.2334 c -0.2931,0 -0.5291,-0.236 -0.5291,-0.529199 l 10e-5,-1.058283 z"
         sodipodi:nodetypes="csssscc" />
      <path
         sodipodi:nodetypes="cscccsscsccc"
         inkscape:connector-curvature="0"
         id="path14329-6"
         d="m 1555.3089,-79.375 c -0.3014,0 -0.8821,1.5154 -0.8821,1.7137 v 0.011 2.3211 h 5.2914 v -2.3314 c 0,-0.2354 -0.5807,-1.7137 -0.8821,-1.7137 -0.3015,0 -0.882,1.5154 -0.882,1.7137 0,-0.2354 -0.5807,-1.7137 -0.8821,-1.7137 -0.3014,0 -0.8816,1.5154 -0.8816,1.7137 0,-0.2354 -0.5807,-1.7137 -0.882,-1.7137 z"
         style="fill:#248c64;fill-opacity:1;fill-rule:nonzero;stroke:none;stroke-width:80.9674;stroke-linecap:round;stroke-linejoin:round;stroke-miterlimit:4;stroke-dasharray:none;stroke-dashoffset:0;stroke-opacity:1;paint-order:markers stroke fill" />
      <path
         sodipodi:nodetypes="cccccccccscscc"
         inkscape:connector-curvature="0"
         id="path14331-6"
         d="m 1554.4268,-77.6436 v 3.7324 0 0.3948 h 5.2914 v -2.2199 -1.9073 c -0.3014,0 -0.8816,1.7088 -0.8816,1.9073 v 0 c 0,-0.2356 -0.5802,-1.9073 -0.8815,-1.9073 -0.3014,0 -0.8821,1.7088 -0.8821,1.9073 0,-0.2356 -0.5807,-1.9073 -0.8821,-1.9073 -0.3013,0 -0.882,1.7088 -0.882,1.9073 0,-0.2355 -0.5808,-1.9073 -0.8821,-1.9073 z"
         style="fill:#24785c;fill-opacity:1;fill-rule:nonzero;stroke:none;stroke-width:80.9674;stroke-linecap:round;stroke-linejoin:round;stroke-miterlimit:4;stroke-dasharray:none;stroke-dashoffset:0;stroke-opacity:1;paint-order:markers stroke fill" />
      <path
         sodipodi:nodetypes="cscccsscsccc"
         style="fill:#106450;fill-opacity:1;fill-rule:nonzero;stroke:none;stroke-width:80.9674;stroke-linecap:round;stroke-linejoin:round;stroke-miterlimit:4;stroke-dasharray:none;stroke-dashoffset:0;stroke-opacity:1;paint-order:markers stroke fill"
         d="m 1555.3089,-75.8224 c -0.3014,0 -0.8821,1.4283 -0.8821,1.6266 v 0.01 2.7483 h 5.2914 v -2.7587 c 0,-0.2355 -0.5807,-1.6265 -0.8821,-1.6265 -0.3014,0 -0.882,1.4282 -0.882,1.6265 0,-0.2355 -0.5803,-1.6265 -0.8816,-1.6265 -0.3014,0 -0.8821,1.4282 -0.8821,1.6265 0,-0.2355 -0.5807,-1.6265 -0.882,-1.6265 z"
         id="path14333-6"
         inkscape:connector-curvature="0" />
      <rect
         y="-71.966652"
         x="1554.427"
         height="0.52916664"
         width="5.2913904"
         id="rect1750-1"
         style="fill:#0c4c3c;fill-opacity:1;stroke:none;stroke-width:21.1674;stroke-linecap:square;stroke-miterlimit:4;stroke-dasharray:none;paint-order:markers fill stroke" />
    </g>
  </g>
</svg>
