<?xml version="1.0" encoding="UTF-8" standalone="no"?>
<!-- Created with Inkscape (http://www.inkscape.org/) -->

<svg
   width="0.60605359mm"
   height="0.8559196mm"
   viewBox="0 0 0.60605359 0.8559196"
   version="1.1"
   id="svg21780"
   inkscape:version="1.1 (c68e22c387, 2021-05-23)"
   sodipodi:docname="ike_blue.svg"
   xmlns:inkscape="http://www.inkscape.org/namespaces/inkscape"
   xmlns:sodipodi="http://sodipodi.sourceforge.net/DTD/sodipodi-0.dtd"
   xmlns:xlink="http://www.w3.org/1999/xlink"
   xmlns="http://www.w3.org/2000/svg"
   xmlns:svg="http://www.w3.org/2000/svg"
   xmlns:rdf="http://www.w3.org/1999/02/22-rdf-syntax-ns#"
   xmlns:cc="http://creativecommons.org/ns#"
   xmlns:dc="http://purl.org/dc/elements/1.1/">
  <defs
     id="defs21774">
    <linearGradient
       inkscape:collect="always"
       xlink:href="#linearGradient16764"
       id="linearGradient16768"
       gradientUnits="userSpaceOnUse"
       gradientTransform="matrix(0.18363553,0,0,0.18363553,-249.08909,-2193.6144)"
       x1="-362.47147"
       y1="-2811.3555"
       x2="-362.47147"
       y2="-2814.6245" />
    <linearGradient
       id="linearGradient16764"
       inkscape:collect="always">
      <stop
         id="stop16760"
         offset="0"
         style="stop-color:#000000;stop-opacity:0.427" />
      <stop
         id="stop16762"
         offset="1"
         style="stop-color:#484864;stop-opacity:0" />
    </linearGradient>
    <linearGradient
       inkscape:collect="always"
       xlink:href="#linearGradient16622"
       id="linearGradient16614"
       gradientUnits="userSpaceOnUse"
       gradientTransform="matrix(-0.0485869,0,0,0.0485869,-382.63118,-2190.3469)"
       x1="-1374.4658"
       y1="-10708.82"
       x2="-1374.4658"
       y2="-10692.221" />
    <linearGradient
       id="linearGradient16622"
       inkscape:collect="always">
      <stop
         id="stop16618"
         offset="0"
         style="stop-color:#3044c4;stop-opacity:1" />
      <stop
         id="stop16620"
         offset="1"
         style="stop-color:#2834a8;stop-opacity:1" />
    </linearGradient>
    <linearGradient
       inkscape:collect="always"
       xlink:href="#linearGradient16231"
       id="linearGradient16616"
       gradientUnits="userSpaceOnUse"
       gradientTransform="matrix(-0.18363553,0,0,0.18363553,-382.63118,-2187.2131)"
       x1="-363.6026"
       y1="-2851.3818"
       x2="-363.60257"
       y2="-2858.2537" />
    <linearGradient
       inkscape:collect="always"
       id="linearGradient16231">
      <stop
         style="stop-color:#ffc434;stop-opacity:1"
         offset="0"
         id="stop16227" />
      <stop
         style="stop-color:#ffc400;stop-opacity:1"
         offset="1"
         id="stop16229" />
    </linearGradient>
  </defs>
  <sodipodi:namedview
     id="base"
     pagecolor="#ffffff"
     bordercolor="#666666"
     borderopacity="1.0"
     inkscape:pageopacity="0.0"
     inkscape:pageshadow="2"
     inkscape:zoom="256"
     inkscape:cx="2.0664062"
     inkscape:cy="1.8847656"
     inkscape:document-units="mm"
     inkscape:current-layer="g20898"
     showgrid="false"
     inkscape:snap-midpoints="true"
     inkscape:snap-smooth-nodes="true"
     inkscape:object-paths="true"
     inkscape:window-width="1920"
     inkscape:window-height="1057"
     inkscape:window-x="-8"
     inkscape:window-y="-8"
     inkscape:window-maximized="1"
     inkscape:pagecheckerboard="0">
    <inkscape:grid
       type="xygrid"
       id="grid976" />
  </sodipodi:namedview>
  <metadata
     id="metadata21777">
    <rdf:RDF>
      <cc:Work
         rdf:about="">
        <dc:format>image/svg+xml</dc:format>
        <dc:type
           rdf:resource="http://purl.org/dc/dcmitype/StillImage" />
        <dc:title />
      </cc:Work>
    </rdf:RDF>
  </metadata>
  <g
     inkscape:label="Layer 1"
     inkscape:groupmode="layer"
     id="layer1"
     transform="translate(98.240281,-229.35699)">
    <g
       transform="matrix(0.26457938,0,0,0.26457938,-14.309418,947.00546)"
       id="g20898">
      <rect
         transform="scale(-1,1)"
         style="opacity:1;fill:#000000;fill-opacity:0.18000004;fill-rule:nonzero;stroke:none;stroke-width:1.38137794;stroke-linecap:round;stroke-linejoin:round;stroke-miterlimit:4;stroke-dasharray:none;stroke-dashoffset:0;stroke-opacity:1;paint-order:markers stroke fill;filter:url(#filter1957)"
         id="rect20854"
         width="1.6201231"
         height="1.2744739"
         x="315.0336"
         y="-2710.4521"
         ry="0.32769606" />
      <circle
         inkscape:export-ydpi="8145.04"
         inkscape:export-xdpi="8145.04"
         inkscape:export-filename="F:\For Series\For Friends\SPIKE\blue_base.png"
         r="0.25432205"
         cy="-2712.0574"
         cx="-315.62912"
         id="path16740"
         style="opacity:1;fill:#10284c;fill-opacity:1;fill-rule:nonzero;stroke:none;stroke-width:0.25212255;stroke-linecap:butt;stroke-linejoin:miter;stroke-miterlimit:4;stroke-dasharray:none;stroke-dashoffset:0;stroke-opacity:1;paint-order:markers stroke fill" />
      <circle
         inkscape:export-ydpi="8145.04"
         inkscape:export-xdpi="8145.04"
         inkscape:export-filename="F:\For Series\For Friends\SPIKE\blue_base.png"
         style="opacity:1;fill:#10284c;fill-opacity:1;fill-rule:nonzero;stroke:none;stroke-width:0.22126576;stroke-linecap:butt;stroke-linejoin:miter;stroke-miterlimit:4;stroke-dasharray:none;stroke-dashoffset:0;stroke-opacity:1;paint-order:markers stroke fill"
         id="circle16742"
         cx="-315.66025"
         cy="-2711.9929"
         r="0.22319607" />
      <path
         id="path898"
         style="color:#000000;fill:#10284c;stroke-width:0.999985;-inkscape-stroke:none;paint-order:markers stroke fill"
         d="M 1.5957031 0 C 1.401126 0 1.2402344 0.16087166 1.2402344 0.35546875 C 1.2402344 0.54996584 1.401126 0.70898438 1.5957031 0.70898438 C 1.7902902 0.70898438 1.9492188 0.54996584 1.9492188 0.35546875 C 1.9492188 0.16087166 1.7902902 0 1.5957031 0 z "
         transform="matrix(1.0000149,0,0,1.0000149,-317.22375,-2712.4127)" />
      <circle
         r="0.25432205"
         cy="-2712.0574"
         cx="-315.62912"
         id="circle867"
         style="opacity:1;fill:#7c809c;fill-opacity:1;fill-rule:nonzero;stroke:none;stroke-width:0.20199908;stroke-linecap:butt;stroke-linejoin:miter;stroke-miterlimit:4;stroke-dasharray:none;stroke-dashoffset:0;stroke-opacity:1;paint-order:markers stroke fill"
         inkscape:export-filename="F:\For Series\For Friends\SPIKE\blue_base.png"
         inkscape:export-xdpi="8145.04"
         inkscape:export-ydpi="8145.04" />
      <circle
         inkscape:export-ydpi="8145.04"
         inkscape:export-xdpi="8145.04"
         inkscape:export-filename="F:\For Series\For Friends\SPIKE\blue_base.png"
         r="0.22319607"
         cy="-2711.9929"
         cx="-315.66025"
         id="circle16748"
         style="opacity:1;fill:#585c78;fill-opacity:1;fill-rule:nonzero;stroke:none;stroke-width:0.22126576;stroke-linecap:butt;stroke-linejoin:miter;stroke-miterlimit:4;stroke-dasharray:none;stroke-dashoffset:0;stroke-opacity:1;paint-order:markers stroke fill" />
      <path
         id="path942"
         style="color:#000000;fill:#10284c;stroke-width:0.999985;stroke-linejoin:round;-inkscape-stroke:none;paint-order:markers stroke fill"
         d="M 0.63671875 1.1367188 C 0.52965035 1.1367188 0.43945312 1.226886 0.43945312 1.3339844 L 0.43945312 2.8085938 C 0.43945312 2.9158921 0.52967035 3.0039062 0.63671875 3.0039062 L 2.09375 3.0039062 C 2.2008184 3.0039062 2.2910156 2.9155922 2.2910156 2.8085938 L 2.2910156 1.3339844 C 2.2910156 1.226686 2.2007984 1.1367188 2.09375 1.1367188 L 0.63671875 1.1367188 z "
         transform="matrix(1.0000149,0,0,1.0000149,-317.22375,-2712.4127)" />
      <rect
         inkscape:export-ydpi="8145.04"
         inkscape:export-xdpi="8145.04"
         inkscape:export-filename="F:\For Series\For Friends\SPIKE\blue_base.png"
         transform="scale(-1,1)"
         ry="0.096199118"
         y="-2711.1753"
         x="315.03412"
         height="1.6672302"
         width="1.6505284"
         id="rect16538"
         style="opacity:1;fill:#444c70;fill-opacity:1;fill-rule:nonzero;stroke:none;stroke-width:0.18363553;stroke-linecap:butt;stroke-linejoin:round;stroke-miterlimit:4;stroke-dasharray:none;stroke-dashoffset:0;stroke-opacity:1;paint-order:markers stroke fill" />
      <path
         inkscape:export-ydpi="8145.04"
         inkscape:export-xdpi="8145.04"
         inkscape:export-filename="F:\For Series\For Friends\SPIKE\blue_base.png"
         inkscape:connector-curvature="0"
         style="opacity:1;fill:#586490;fill-opacity:1;fill-rule:nonzero;stroke:none;stroke-width:0.34392259;stroke-linecap:butt;stroke-linejoin:round;stroke-miterlimit:4;stroke-dasharray:none;stroke-dashoffset:0;stroke-opacity:1;paint-order:markers fill stroke"
         d="m -315.13031,-2711.1752 c 0.0533,0 0.0962,0.043 0.0962,0.096 v 1.3774 c 0,0.053 -0.0429,0.096 -0.0962,0.096 h -1.45818 c -0.0533,0 -0.0961,-0.043 -0.0961,-0.096 v -1.3774 c 0,-0.053 0.0428,-0.096 0.0961,-0.096 z"
         id="path16540" />
      <path
         inkscape:export-ydpi="8145.04"
         inkscape:export-xdpi="8145.04"
         inkscape:export-filename="F:\For Series\For Friends\SPIKE\blue_base.png"
         id="path16542"
         d="m -315.35132,-2711.0011 c 0.0824,0 0.30014,0.13 0.31572,0.3164 h 10e-4 v 0.021 0.1084 0.5571 h -0.31724 v -0.5571 -0.1293 z"
         style="opacity:1;fill:#ffc834;fill-opacity:1;fill-rule:nonzero;stroke:none;stroke-width:0.48261982;stroke-linecap:butt;stroke-linejoin:round;stroke-miterlimit:4;stroke-dasharray:none;stroke-dashoffset:0;stroke-opacity:1;paint-order:markers fill stroke"
         inkscape:connector-curvature="0" />
      <path
         id="path953"
         style="color:#000000;fill:#10284c;stroke-width:0.999985;-inkscape-stroke:none;paint-order:markers stroke fill"
         d="M 1.7734375 1.3105469 L 1.7734375 1.4101562 L 1.7734375 1.7285156 L 1.7734375 1.8574219 L 1.7734375 2.515625 L 2.2910156 2.515625 L 2.2910156 1.8574219 L 2.2910156 1.7480469 L 2.2910156 1.6269531 L 2.2363281 1.6269531 C 2.2046286 1.5509543 2.1765329 1.4701274 2.1210938 1.4238281 C 2.040695 1.3568291 1.9669155 1.3105469 1.8730469 1.3105469 L 1.7734375 1.3105469 z "
         transform="matrix(1.0000149,0,0,1.0000149,-317.22375,-2712.4127)" />
      <path
         id="path931"
         style="color:#000000;fill:#10284c;stroke-width:0.999985;-inkscape-stroke:none;paint-order:markers stroke fill"
         d="M 0.93554688 1.7792969 L 0.17578125 1.8203125 L 0.17578125 1.9160156 C 0.17578125 2.0662134 0.23967679 2.1993386 0.359375 2.2734375 C 0.47909321 2.3474364 0.63668048 2.3730469 0.8359375 2.3730469 L 0.93554688 2.3730469 L 0.93554688 1.7792969 z "
         transform="matrix(1.0000149,0,0,1.0000149,-317.22375,-2712.4127)" />
      <path
         inkscape:export-ydpi="8145.04"
         inkscape:export-xdpi="8145.04"
         inkscape:export-filename="F:\For Series\For Friends\SPIKE\blue_base.png"
         style="opacity:1;fill:#383c60;fill-opacity:1;stroke:none;stroke-width:0.18363553;stroke-linecap:butt;stroke-linejoin:miter;stroke-miterlimit:4;stroke-dasharray:none;stroke-opacity:1"
         d="m -316.94942,-2710.4968 c 0,0.2527 0.18068,0.3561 0.56104,0.3561 v -0.3859 z"
         id="path16550"
         inkscape:connector-curvature="0"
         sodipodi:nodetypes="cccc" />
      <path
         inkscape:export-ydpi="8145.04"
         inkscape:export-xdpi="8145.04"
         inkscape:export-filename="F:\For Series\For Friends\SPIKE\blue_base.png"
         inkscape:connector-curvature="0"
         style="opacity:1;fill:#2c3050;fill-opacity:1;stroke:none;stroke-width:0.06055773px;stroke-linecap:butt;stroke-linejoin:miter;stroke-opacity:1"
         d="m -316.38835,-2710.3493 v 0.2086 c -0.24391,0 -0.40534,-0.043 -0.49005,-0.14 0.24974,0.099 0.39085,0.019 0.49005,-0.069 z"
         id="path16552" />
      <path
         id="path920"
         style="color:#000000;fill:#10284c;stroke-width:0.999985;stroke-linecap:round;stroke-linejoin:round;stroke-dashoffset:5.29134;-inkscape-stroke:none;paint-order:markers stroke fill"
         d="M 0.45507812 1.0058594 C 0.21627169 1.0058594 0.0019331253 1.1674815 0.001953125 1.3925781 L 0.001953125 1.6816406 C 0.0019331253 1.9067373 0.21627169 2.0684594 0.45507812 2.0683594 C 0.69388456 2.0684594 0.90628 1.9067373 0.90625 1.6816406 L 0.90625 1.3925781 C 0.90628 1.1674815 0.69388456 1.0058594 0.45507812 1.0058594 z "
         transform="matrix(1.0000149,0,0,1.0000149,-317.22375,-2712.4127)" />
      <path
         inkscape:export-ydpi="8145.04"
         inkscape:export-xdpi="8145.04"
         inkscape:export-filename="F:\For Series\For Friends\SPIKE\blue_base.png"
         inkscape:connector-curvature="0"
         style="opacity:1;fill:#e4a018;fill-opacity:1;fill-rule:nonzero;stroke:none;stroke-width:0.2748515;stroke-linecap:round;stroke-linejoin:round;stroke-miterlimit:4;stroke-dasharray:none;stroke-dashoffset:5.29133892;stroke-opacity:1;paint-order:markers fill stroke"
         d="m -316.77021,-2711.3068 a 0.35251602,0.2871724 0 0 1 0.35254,0.2872 v 0.289 a 0.35251602,0.2871724 0 0 1 -0.35254,0.2872 0.35251602,0.2871724 0 0 1 -0.35254,-0.2872 v -0.289 a 0.35251602,0.2871724 0 0 1 0.35254,-0.2872 z"
         id="path16556" />
      <ellipse
         inkscape:export-ydpi="8145.04"
         inkscape:export-xdpi="8145.04"
         inkscape:export-filename="F:\For Series\For Friends\SPIKE\blue_base.png"
         transform="scale(-1,1)"
         ry="0.28717241"
         rx="0.35251603"
         style="opacity:1;fill:#ffc434;fill-opacity:1;fill-rule:nonzero;stroke:none;stroke-width:0.2748515;stroke-linecap:round;stroke-linejoin:round;stroke-miterlimit:4;stroke-dasharray:none;stroke-dashoffset:5.29133892;stroke-opacity:1;paint-order:markers fill stroke"
         id="ellipse16558"
         cx="316.7702"
         cy="-2711.0198" />
      <path
         id="path866"
         d="m -315.35132,-2711.0011 c 0.0824,0 0.30014,0.13 0.31572,0.3164 h 10e-4 v 0.021 0.1084 0.5571 h -0.31724 v -0.5571 -0.1293 z"
         style="opacity:1;fill:#ffc834;fill-opacity:1;fill-rule:nonzero;stroke:none;stroke-width:0.20199908;stroke-linecap:butt;stroke-linejoin:miter;stroke-miterlimit:4;stroke-dasharray:none;stroke-dashoffset:0;stroke-opacity:1;paint-order:markers stroke fill"
         inkscape:connector-curvature="0"
         inkscape:export-filename="F:\For Series\For Friends\SPIKE\blue_base.png"
         inkscape:export-xdpi="8145.04"
         inkscape:export-ydpi="8145.04" />
      <path
         inkscape:export-ydpi="8145.04"
         inkscape:export-xdpi="8145.04"
         inkscape:export-filename="F:\For Series\For Friends\SPIKE\blue_base.png"
         style="opacity:1;fill:#cc8800;fill-opacity:1;stroke:none;stroke-width:0.06055773px;stroke-linecap:butt;stroke-linejoin:miter;stroke-opacity:1"
         d="m -315.03409,-2709.9983 h -0.31723 v -0.4456 c 0.0854,0 0.31723,0.1396 0.31723,0.3372 z"
         id="path16560"
         inkscape:connector-curvature="0"
         sodipodi:nodetypes="ccccc" />
      <rect
         inkscape:export-ydpi="8145.04"
         inkscape:export-xdpi="8145.04"
         inkscape:export-filename="F:\For Series\For Friends\SPIKE\blue_base.png"
         style="opacity:1;fill:url(#linearGradient16768);fill-opacity:1;fill-rule:nonzero;stroke:none;stroke-width:0.34565827;stroke-linecap:butt;stroke-linejoin:round;stroke-miterlimit:4;stroke-dasharray:none;stroke-dashoffset:0;stroke-opacity:1;paint-order:markers fill stroke"
         id="rect16766"
         width="1.3611221"
         height="1.6672456"
         x="-316.54068"
         y="-2711.3213"
         ry="0.22075234" />
      <g
         id="path1226"
         transform="matrix(1.0000149,0,0,1.0000149,-319.27098,-2712.4138)">
        <path
           id="path1503"
           style="color:#000000;fill:#202ca0;stroke-linejoin:round;-inkscape-stroke:none;paint-order:markers stroke fill"
           d="m 2.8496094,0.7734375 c -0.093933,0 -0.1699219,0.0809397 -0.1699219,0.171875 v 0.7363281 0.00391 0.00195 c -4.58e-5,0.00199 -9.19e-5,0.00382 0,0.00781 4.6e-5,0.002 -3.08e-5,0.011452 0,0.011719 3e-6,3e-5 -2.835e-4,0.00264 0,0.00391 l 0.1210937,0.8007813 c 0.011627,0.081387 0.086714,0.1464843 0.1699219,0.1464843 0.2929688,0 0.5859375,0 0.8789063,0 0.083208,0 0.158295,-0.065097 0.1699218,-0.1464843 L 4.140625,1.7109375 c 2.835e-4,-0.00127 -3e-6,-0.00388 0,-0.00391 3.08e-5,-2.669e-4 -4.6e-5,-0.00972 0,-0.011719 9.19e-5,-0.00399 4.58e-5,-0.00582 0,-0.00781 v -0.00195 -0.00391 -0.7363281 c 0,-0.0909353 -0.075989,-0.171875 -0.1699219,-0.171875 -0.3737,-0.003409 -0.7473932,-6.2408e-4 -1.1210937,0 z"
           sodipodi:nodetypes="cscccsscccccccscccscc" />
      </g>
      <path
         inkscape:export-ydpi="8145.04"
         inkscape:export-xdpi="8145.04"
         inkscape:export-filename="F:\For Series\For Friends\SPIKE\blue_base.png"
         id="path16564"
         d="m -315.30065,-2711.5398 c 0.0398,0 0.0718,0.032 0.0718,0.072 v 0.7405 c 0,0 -5.5e-4,0.01 -10e-4,0.01 h 3.6e-4 -7.3e-4 l -0.12023,0.8018 h -3.7e-4 c -0.005,0.035 -0.0343,0.062 -0.0709,0.062 h -0.89213 c -0.0365,0 -0.0662,-0.027 -0.0709,-0.062 h -3.7e-4 l -0.10695,-0.8059 h 3.7e-4 c -5.5e-4,0 -0.001,-0.01 -0.001,-0.01 v -0.7406 c 0,-0.04 0.0321,-0.072 0.0719,-0.072 z"
         style="opacity:1;fill:url(#linearGradient16614);fill-opacity:1;fill-rule:nonzero;stroke:none;stroke-width:0.2601316;stroke-linecap:butt;stroke-linejoin:round;stroke-miterlimit:4;stroke-dasharray:none;stroke-dashoffset:0;stroke-opacity:1;paint-order:markers fill stroke"
         inkscape:connector-curvature="0" />
      <ellipse
         inkscape:export-ydpi="8145.04"
         inkscape:export-xdpi="8145.04"
         inkscape:export-filename="F:\For Series\For Friends\SPIKE\blue_base.png"
         transform="scale(-1,1)"
         cy="-2711.0198"
         cx="316.78653"
         id="ellipse16566"
         style="opacity:1;fill:#805808;fill-opacity:1;fill-rule:nonzero;stroke:none;stroke-width:0.13861044;stroke-linecap:round;stroke-linejoin:round;stroke-miterlimit:4;stroke-dasharray:none;stroke-dashoffset:5.29133892;stroke-opacity:1;paint-order:markers fill stroke"
         rx="0.18865876"
         ry="0.13647093" />
      <path
         inkscape:export-ydpi="8145.04"
         inkscape:export-xdpi="8145.04"
         inkscape:export-filename="F:\For Series\For Friends\SPIKE\blue_base.png"
         sodipodi:nodetypes="ssscscscs"
         inkscape:connector-curvature="0"
         id="path16568"
         d="m -315.57044,-2710.5761 c 0.0775,0 0.17852,0.044 0.17869,0.183 0,0.1394 -0.0525,0.5119 -0.21769,0.5139 h -0.25071 -0.25072 c -0.16525,0 -0.21787,-0.3745 -0.2177,-0.5139 0,-0.1393 0.10117,-0.183 0.1787,-0.183 h 0.28972 z"
         style="opacity:1;fill:#989cc0;fill-opacity:1;stroke:#383c60;stroke-width:0.20199908;stroke-linecap:butt;stroke-linejoin:miter;stroke-miterlimit:4;stroke-dasharray:none;stroke-opacity:1" />
      <path
         inkscape:export-ydpi="8145.04"
         inkscape:export-xdpi="8145.04"
         inkscape:export-filename="F:\For Series\For Friends\SPIKE\blue_base.png"
         style="opacity:1;fill:#989cc0;fill-opacity:1;stroke:none;stroke-width:0.0485869px;stroke-linecap:butt;stroke-linejoin:miter;stroke-opacity:1"
         d="m -315.57044,-2710.5761 c 0.0775,0 0.17852,0.044 0.17869,0.183 0,0.1394 -0.0525,0.5119 -0.21769,0.5139 h -0.25071 -0.25072 c -0.16525,0 -0.21787,-0.3745 -0.2177,-0.5139 0,-0.1393 0.10117,-0.183 0.1787,-0.183 h 0.28972 z"
         id="path16570"
         inkscape:connector-curvature="0"
         sodipodi:nodetypes="ssscscscs" />
      <path
         inkscape:export-ydpi="8145.04"
         inkscape:export-xdpi="8145.04"
         inkscape:export-filename="F:\For Series\For Friends\SPIKE\blue_base.png"
         inkscape:connector-curvature="0"
         style="opacity:1;fill:#747cac;fill-opacity:1;stroke:none;stroke-width:0.0485869px;stroke-linecap:butt;stroke-linejoin:miter;stroke-opacity:1"
         d="m -315.57044,-2710.4795 c 0.0707,0 0.16055,0.036 0.17613,0.1485 0,0 0,0 0,0 -0.0123,0.1647 -0.0706,0.45 -0.21513,0.4518 h -0.25072 -0.25071 c -0.1446,0 -0.20292,-0.2868 -0.21513,-0.4518 -10e-6,0 0,-10e-5 0,-2e-4 0.0155,-0.1118 0.10551,-0.1483 0.17613,-0.1483 h 0.28971 z"
         id="path16572" />
      <rect
         inkscape:export-ydpi="8145.04"
         inkscape:export-xdpi="8145.04"
         inkscape:export-filename="F:\For Series\For Friends\SPIKE\blue_base.png"
         transform="scale(-1,1)"
         style="opacity:1;fill:#4c6cf8;fill-opacity:1;fill-rule:nonzero;stroke:none;stroke-width:0.2601316;stroke-linecap:butt;stroke-linejoin:round;stroke-miterlimit:4;stroke-dasharray:none;stroke-dashoffset:0;stroke-opacity:1;paint-order:markers fill stroke"
         id="rect16574"
         width="1.2639024"
         height="0.88428229"
         x="315.22879"
         y="-2711.54"
         ry="0.071869805" />
      <rect
         inkscape:export-ydpi="8145.04"
         inkscape:export-xdpi="8145.04"
         inkscape:export-filename="F:\For Series\For Friends\SPIKE\blue_base.png"
         transform="scale(-1,1)"
         style="opacity:1;fill:#38405c;fill-opacity:1;fill-rule:nonzero;stroke:none;stroke-width:0.18363553;stroke-linecap:butt;stroke-linejoin:round;stroke-miterlimit:4;stroke-dasharray:none;stroke-dashoffset:0;stroke-opacity:1;paint-order:markers fill stroke"
         id="rect16576"
         width="0.6366607"
         height="0.12131072"
         x="315.54184"
         y="-2710.4243"
         ry="0.060655359" />
      <rect
         inkscape:export-ydpi="8145.04"
         inkscape:export-xdpi="8145.04"
         inkscape:export-filename="F:\For Series\For Friends\SPIKE\blue_base.png"
         transform="scale(-1,1)"
         ry="0.060655359"
         y="-2710.2686"
         x="315.54184"
         height="0.20076635"
         width="0.6366607"
         id="rect16578"
         style="opacity:1;fill:#8088b0;fill-opacity:1;fill-rule:nonzero;stroke:none;stroke-width:0.18363553;stroke-linecap:butt;stroke-linejoin:round;stroke-miterlimit:4;stroke-dasharray:none;stroke-dashoffset:0;stroke-opacity:1;paint-order:markers fill stroke" />
      <path
         inkscape:export-ydpi="8145.04"
         inkscape:export-xdpi="8145.04"
         inkscape:export-filename="F:\For Series\For Friends\SPIKE\blue_base.png"
         id="path16580"
         d="m -315.56797,-2710.3821 v 0.126 0.1275 0.05 0.2028 0.062 c 0,0.035 -0.0285,0.064 -0.064,0.064 h -0.0621 -0.33242 -0.0621 c -0.0354,0 -0.064,-0.029 -0.064,-0.064 v -0.062 -0.2028 -0.05 -0.1275 -0.126 h 0.12603 0.33242 z"
         style="opacity:1;fill:#2c3038;fill-opacity:1;fill-rule:nonzero;stroke:none;stroke-width:0.93655825;stroke-linecap:butt;stroke-linejoin:round;stroke-miterlimit:4;stroke-dasharray:none;stroke-dashoffset:0;stroke-opacity:1;paint-order:markers fill stroke"
         inkscape:connector-curvature="0" />
      <path
         inkscape:export-ydpi="8145.04"
         inkscape:export-xdpi="8145.04"
         inkscape:export-filename="F:\For Series\For Friends\SPIKE\blue_base.png"
         id="path16582"
         d="m -315.56797,-2710.3821 v 0.126 0.1275 0.01 c 0,0.07 -0.0562,0.1261 -0.12602,0.1261 h -0.33242 c -0.0698,0 -0.12603,-0.056 -0.12603,-0.1261 v -0.01 -0.1275 -0.126 h 0.12603 0.33242 z"
         style="opacity:1;fill:#181c2c;fill-opacity:1;fill-rule:nonzero;stroke:none;stroke-width:0.93655825;stroke-linecap:butt;stroke-linejoin:round;stroke-miterlimit:4;stroke-dasharray:none;stroke-dashoffset:0;stroke-opacity:1;paint-order:markers fill stroke"
         inkscape:connector-curvature="0" />
      <path
         id="path909"
         style="color:#000000;fill:#10284c;stroke-width:0.999985;stroke-linecap:round;stroke-linejoin:round;stroke-dashoffset:5.29134;-inkscape-stroke:none;paint-order:markers stroke fill"
         d="M 1.3632812 0.22265625 C 0.95329738 0.22265625 0.63085938 0.59240971 0.63085938 1.0332031 L 0.63085938 1.1113281 C 0.63081938 1.5146221 0.96003728 1.84385 1.3632812 1.84375 C 1.7664852 1.84375 2.0957431 1.5145221 2.0957031 1.1113281 L 2.0957031 1.0332031 C 2.0957131 0.59240971 1.7732251 0.22275625 1.3632812 0.22265625 z "
         transform="matrix(1.0000149,0,0,1.0000149,-317.22375,-2712.4127)" />
      <path
         inkscape:export-ydpi="8145.04"
         inkscape:export-xdpi="8145.04"
         inkscape:export-filename="F:\For Series\For Friends\SPIKE\blue_base.png"
         id="path16586"
         d="m -315.86082,-2712.0902 a 0.63204507,0.71099766 0 0 1 0.63201,0.711 v 0.079 a 0.63204507,0.63204507 0 0 0 0,1e-4 0.63204507,0.63204507 0 0 1 -0.63201,0.6321 0.63204507,0.63204507 0 0 1 -0.63211,-0.6321 0.63204507,0.63204507 0 0 0 0,-1e-4 v -0.079 a 0.63204507,0.71099766 0 0 1 0.63211,-0.711 z"
         style="opacity:1;fill:#e8a828;fill-opacity:1;fill-rule:nonzero;stroke:none;stroke-width:0.57908916;stroke-linecap:round;stroke-linejoin:round;stroke-miterlimit:4;stroke-dasharray:none;stroke-dashoffset:5.29133892;stroke-opacity:1;paint-order:markers fill stroke"
         inkscape:connector-curvature="0" />
      <path
         inkscape:export-ydpi="8145.04"
         inkscape:export-xdpi="8145.04"
         inkscape:export-filename="F:\For Series\For Friends\SPIKE\blue_base.png"
         id="path16588"
         d="m -315.86082,-2712.0902 a 0.63204507,0.71099766 0 0 1 0.63201,0.711 v 0.025 0 h -9e-5 a 0.63204507,0.52551149 0 0 1 -0.63192,0.5238 0.63204507,0.52551149 0 0 1 -0.63211,-0.5254 0.63204507,0.52551149 0 0 1 1.9e-4,0 v -0.025 a 0.63204507,0.71099766 0 0 1 0.63191,-0.7067 z"
         style="opacity:1;fill:url(#linearGradient16616);fill-opacity:1;fill-rule:nonzero;stroke:none;stroke-width:0.49785456;stroke-linecap:round;stroke-linejoin:round;stroke-miterlimit:4;stroke-dasharray:none;stroke-dashoffset:5.29133892;stroke-opacity:1;paint-order:markers fill stroke"
         inkscape:connector-curvature="0" />
      <path
         inkscape:export-ydpi="8145.04"
         inkscape:export-xdpi="8145.04"
         inkscape:export-filename="F:\For Series\For Friends\SPIKE\blue_base.png"
         sodipodi:nodetypes="sscccccssccsscsscssccs"
         inkscape:connector-curvature="0"
         id="path16604"
         d="m -315.63184,-2710.2412 c 0.0354,0 0.0639,0.028 0.0639,0.064 v 0.034 0 0.014 0.01 0 0.062 c 0,0.035 -0.0285,0.064 -0.0639,0.064 h -0.0621 -0.33242 -0.0621 c -0.0354,0 -0.0639,-0.028 -0.0639,-0.064 v -0.061 c -1e-5,0 0,0 0,0 v -0.023 0 -0.034 c 0,-0.035 0.0284,-0.064 0.0639,-0.064 h 0.0621 0.33251 z"
         style="opacity:1;fill:#20242c;fill-opacity:1;fill-rule:nonzero;stroke:none;stroke-width:0.93655825;stroke-linecap:butt;stroke-linejoin:round;stroke-miterlimit:4;stroke-dasharray:none;stroke-dashoffset:0;stroke-opacity:1;paint-order:markers fill stroke" />
      <path
         inkscape:export-ydpi="8145.04"
         inkscape:export-xdpi="8145.04"
         inkscape:export-filename="F:\For Series\For Friends\SPIKE\blue_base.png"
         id="path16606"
         d="m -315.66505,-2709.994 v 0.1466 h -0.39021 v -0.1466 h 0.0288 0.33242 z"
         style="opacity:1;fill:#343440;fill-opacity:1;fill-rule:nonzero;stroke:none;stroke-width:0.14646323;stroke-linecap:butt;stroke-linejoin:round;stroke-miterlimit:4;stroke-dasharray:none;stroke-dashoffset:0;stroke-opacity:1;paint-order:markers fill stroke"
         inkscape:connector-curvature="0" />
      <path
         inkscape:export-ydpi="8145.04"
         inkscape:export-xdpi="8145.04"
         inkscape:export-filename="F:\For Series\For Friends\SPIKE\blue_base.png"
         id="path16608"
         d="m -315.66505,-2710.1392 v 0.1452 h -0.0289 -0.33242 -0.0288 v -0.1452 z"
         style="opacity:1;fill:#282834;fill-opacity:1;fill-rule:nonzero;stroke:none;stroke-width:0.93655825;stroke-linecap:butt;stroke-linejoin:round;stroke-miterlimit:4;stroke-dasharray:none;stroke-dashoffset:0;stroke-opacity:1;paint-order:markers fill stroke"
         inkscape:connector-curvature="0" />
      <path
         inkscape:export-ydpi="8145.04"
         inkscape:export-xdpi="8145.04"
         inkscape:export-filename="F:\For Series\For Friends\SPIKE\blue_base.png"
         sodipodi:nodetypes="ccccczzc"
         inkscape:connector-curvature="0"
         style="opacity:1;fill:#ffa800;fill-opacity:1;fill-rule:nonzero;stroke:none;stroke-width:0.39213908;stroke-linecap:round;stroke-linejoin:round;stroke-miterlimit:4;stroke-dasharray:none;stroke-dashoffset:5.29133892;stroke-opacity:1;paint-order:markers fill stroke"
         d="m -315.42424,-2711.3137 0.002,0.02 h 1.6e-4 -8e-5 c 0.0242,0.2234 -0.16143,0.3768 -0.44142,0.3768 -0.28066,0 -0.53232,-0.1565 -0.58057,-0.4545 -0.0483,-0.2981 0.13443,-0.5171 0.44356,-0.5171 0.30913,0 0.5421,0.2703 0.57615,0.5733 z"
         id="path16652" />
      <path
         inkscape:export-ydpi="8145.04"
         inkscape:export-xdpi="8145.04"
         inkscape:export-filename="F:\For Series\For Friends\SPIKE\blue_base.png"
         inkscape:connector-curvature="0"
         id="path16678"
         d="m -316.22601,-2711.8389 c -0.16674,0.08 -0.25283,0.2537 -0.21798,0.469 0.0482,0.2981 0.29992,0.4546 0.58058,0.4545 0.18138,0 0.32274,-0.065 0.39353,-0.1707 -0.44299,0.2345 -0.98134,-0.3935 -0.75613,-0.7528 z"
         style="opacity:1;fill:#f4a400;fill-opacity:1;stroke:none;stroke-width:0.0485869px;stroke-linecap:butt;stroke-linejoin:miter;stroke-opacity:1" />
    </g>
  </g>
</svg>
