<?xml version="1.0" encoding="UTF-8" standalone="no"?>
<svg
   xmlns:dc="http://purl.org/dc/elements/1.1/"
   xmlns:cc="http://creativecommons.org/ns#"
   xmlns:rdf="http://www.w3.org/1999/02/22-rdf-syntax-ns#"
   xmlns:svg="http://www.w3.org/2000/svg"
   xmlns="http://www.w3.org/2000/svg"
   xmlns:xlink="http://www.w3.org/1999/xlink"
   xmlns:sodipodi="http://sodipodi.sourceforge.net/DTD/sodipodi-0.dtd"
   xmlns:inkscape="http://www.inkscape.org/namespaces/inkscape"
   sodipodi:docname="mine_ship.svg"
   inkscape:version="1.0 (4035a4fb49, 2020-05-01)"
   id="svg15035"
   version="1.1"
   viewBox="0 0 0.50270623 0.58208334"
   height="0.58208334mm"
   width="0.50270623mm">
  <defs
     id="defs15029">
    <linearGradient
       gradientTransform="matrix(0.26458333,0,0,0.26458333,-0.20060798,0)"
       y2="-4868.4805"
       x2="1864"
       y1="-4871.4805"
       x1="1864"
       gradientUnits="userSpaceOnUse"
       id="linearGradient14689"
       xlink:href="#linearGradient14667"
       inkscape:collect="always" />
    <linearGradient
       id="linearGradient14667"
       inkscape:collect="always">
      <stop
         id="stop14663"
         offset="0"
         style="stop-color:#b88c6c;stop-opacity:1" />
      <stop
         id="stop14665"
         offset="1"
         style="stop-color:#a87454;stop-opacity:1" />
    </linearGradient>
  </defs>
  <sodipodi:namedview
     inkscape:document-rotation="0"
     inkscape:window-maximized="1"
     inkscape:window-y="-8"
     inkscape:window-x="-8"
     inkscape:window-height="1057"
     inkscape:window-width="1920"
     showgrid="false"
     inkscape:current-layer="layer1"
     inkscape:document-units="mm"
     inkscape:cy="1.2106381"
     inkscape:cx="2.1911461"
     inkscape:zoom="256"
     inkscape:pageshadow="2"
     inkscape:pageopacity="0.0"
     borderopacity="1.0"
     bordercolor="#666666"
     pagecolor="#ffffff"
     id="base" />
  <metadata
     id="metadata15032">
    <rdf:RDF>
      <cc:Work
         rdf:about="">
        <dc:format>image/svg+xml</dc:format>
        <dc:type
           rdf:resource="http://purl.org/dc/dcmitype/StillImage" />
        <dc:title />
      </cc:Work>
    </rdf:RDF>
  </metadata>
  <g
     transform="translate(164.28634,-78.734616)"
     id="layer1"
     inkscape:groupmode="layer"
     inkscape:label="Layer 1">
    <g
       id="g14969"
       transform="matrix(0.05002893,0,0,0.05002901,-188.84062,143.40286)">
      <circle
         r="5.0270915"
         cy="-1286.0021"
         cx="495.82916"
         id="circle14631-8"
         style="opacity:1;fill:#000000;fill-opacity:0.18;fill-rule:nonzero;stroke:none;stroke-width:1.91508;stroke-linecap:round;stroke-linejoin:round;stroke-miterlimit:4;stroke-dasharray:none;stroke-dashoffset:0;stroke-opacity:1;paint-order:markers stroke fill" />
      <path
         sodipodi:nodetypes="sssss"
         style="opacity:1;fill:#242c64;fill-opacity:1;fill-rule:nonzero;stroke:none;stroke-width:1.05833;stroke-linecap:round;stroke-linejoin:round;stroke-miterlimit:4;stroke-dasharray:none;stroke-dashoffset:0;stroke-opacity:1;paint-order:markers stroke fill"
         d="m 495.82916,-1292.6167 c -2.7701,0 -5.02708,2.257 -5.02708,5.0271 0,2.7701 2.25698,5.0271 5.02708,5.0271 2.77011,0 5.02709,-2.257 5.02709,-5.0271 0,-2.7701 -2.25698,-5.0271 -5.02709,-5.0271 z"
         id="circle14703"
         inkscape:connector-curvature="0" />
      <circle
         r="4.49789"
         cy="-1287.5896"
         cx="495.82913"
         id="circle14631"
         style="opacity:1;fill:#5064fc;fill-opacity:1;fill-rule:nonzero;stroke:none;stroke-width:1.71348;stroke-linecap:round;stroke-linejoin:round;stroke-miterlimit:4;stroke-dasharray:none;stroke-dashoffset:0;stroke-opacity:1;paint-order:markers stroke fill" />
      <path
         style="opacity:1;fill:#3844b0;fill-opacity:1;fill-rule:nonzero;stroke:none;stroke-width:1.71348;stroke-linecap:round;stroke-linejoin:round;stroke-miterlimit:4;stroke-dasharray:none;stroke-dashoffset:0;stroke-opacity:1;paint-order:markers stroke fill"
         d="m 500.31612,-1287.8971 a 4.4978899,4.4978899 0 0 1 -4.48707,4.2762 4.4978899,4.4978899 0 0 1 -4.48707,-4.1878 4.4978899,4.4978899 0 0 0 -0.0109,0.2191 4.4978899,4.4978899 0 0 0 4.49792,4.4979 4.4978899,4.4978899 0 0 0 4.49792,-4.4979 4.4978899,4.4978899 0 0 0 -0.0109,-0.3075 z"
         id="circle14679"
         inkscape:connector-curvature="0" />
      <path
         style="opacity:1;fill:#4454dc;fill-opacity:1;fill-rule:nonzero;stroke:none;stroke-width:1.05833;stroke-linecap:round;stroke-linejoin:round;stroke-miterlimit:4;stroke-dasharray:none;stroke-dashoffset:0;stroke-opacity:1;paint-order:markers stroke fill"
         d="m 491.33125,-1287.5896 a 4.4978899,4.4978899 0 0 0 0.0372,0.5292 h 1.28571 v -0.5292 z m 7.67291,0 v 0.5292 h 1.28829 a 4.4978899,4.4978899 0 0 0 0.0346,-0.5292 z m -3.70416,2.9104 v 1.5529 a 4.4978899,4.4978899 0 0 0 0.52916,0.035 v -1.5875 z"
         id="rect14671"
         inkscape:connector-curvature="0" />
      <path
         style="opacity:1;fill:#303c98;fill-opacity:1;fill-rule:nonzero;stroke:none;stroke-width:1.05833;stroke-linecap:round;stroke-linejoin:round;stroke-miterlimit:4;stroke-dasharray:none;stroke-dashoffset:0;stroke-opacity:1;paint-order:markers stroke fill"
         d="m 491.33125,-1287.5896 a 4.4978899,4.4978899 0 0 0 0.0341,0.5292 h 0.0972 a 4.4978899,4.4978899 0 0 1 -0.0941,-0.5292 z m 8.9545,0 a 4.4978899,4.4978899 0 0 1 -0.093,0.5292 h 0.0972 a 4.4978899,4.4978899 0 0 0 0.0372,-0.5292 z m -4.98575,3.9341 v 0.5266 a 4.4978899,4.4978899 0 0 0 0.52916,0.037 v -0.5292 a 4.4978899,4.4978899 0 0 1 -0.52916,-0.035 z"
         id="path14738"
         inkscape:connector-curvature="0" />
      <path
         style="opacity:1;fill:#8c78fc;fill-opacity:1;fill-rule:nonzero;stroke:none;stroke-width:1.05833;stroke-linecap:round;stroke-linejoin:round;stroke-miterlimit:4;stroke-dasharray:none;stroke-dashoffset:0;stroke-opacity:1;paint-order:markers stroke fill"
         d="m 491.34416,-1287.8542 a 4.4978899,4.4978899 0 0 0 -0.0129,0.2646 4.4978899,4.4978899 0 0 0 0.009,0.2646 h 1.3136 v -0.5292 z m 7.66,0 v 0.5292 h 1.30948 a 4.4978899,4.4978899 0 0 0 0.0134,-0.2646 4.4978899,4.4978899 0 0 0 -0.009,-0.2646 z m -3.43958,3.175 v 1.5746 a 4.4978899,4.4978899 0 0 0 0.26458,0.013 4.4978899,4.4978899 0 0 0 0.26459,-0.01 v -1.5782 z"
         id="rect14643"
         inkscape:connector-curvature="0" />
      <path
         style="opacity:1;fill:#745cc0;fill-opacity:1;fill-rule:nonzero;stroke:none;stroke-width:1.71348;stroke-linecap:round;stroke-linejoin:round;stroke-miterlimit:4;stroke-dasharray:none;stroke-dashoffset:0;stroke-opacity:1;paint-order:markers stroke fill"
         d="m 500.3121,-1287.8542 a 4.4978899,4.4978899 0 0 1 -0.0656,0.5292 h 0.0713 a 4.4978899,4.4978899 0 0 0 0.009,-0.2646 4.4978899,4.4978899 0 0 0 -0.009,-0.2646 z m -8.97,0.045 a 4.4978899,4.4978899 0 0 0 -0.0109,0.2191 4.4978899,4.4978899 0 0 0 0.0129,0.2646 h 0.0594 a 4.4978899,4.4978899 0 0 1 -0.0615,-0.4837 z m 4.22248,4.1744 v 0.5333 a 4.4978899,4.4978899 0 0 0 0.26458,0.01 4.4978899,4.4978899 0 0 0 0.26459,-0.013 v -0.5297 a 4.4978899,4.4978899 0 0 1 -0.26459,0.013 4.4978899,4.4978899 0 0 1 -0.26458,-0.013 z"
         id="path14711"
         inkscape:connector-curvature="0" />
      <path
         style="opacity:1;fill:#4c2810;fill-opacity:1;fill-rule:nonzero;stroke:none;stroke-width:1.05826;stroke-linecap:round;stroke-linejoin:round;stroke-miterlimit:4;stroke-dasharray:none;stroke-dashoffset:0;stroke-opacity:1;paint-order:markers stroke fill"
         d="m 495.84092,-1292.6167 c -2.0395,-10e-5 -3.70522,1.6655 -3.70519,3.7048 v 0.7925 c 0,2.0393 1.66572,3.7049 3.70519,3.7048 2.03949,10e-5 3.70314,-1.6655 3.70314,-3.7048 v -0.7925 c 2e-5,-2.0393 -1.66362,-3.7049 -3.70314,-3.7048 z"
         id="path14696"
         inkscape:connector-curvature="0" />
      <path
         style="opacity:1;fill:#78401c;fill-opacity:1;fill-rule:nonzero;stroke:none;stroke-width:1.20951;stroke-linecap:round;stroke-linejoin:round;stroke-miterlimit:4;stroke-dasharray:none;stroke-dashoffset:0;stroke-opacity:1;paint-order:markers stroke fill"
         d="m 495.82905,-1292.0875 c -1.7535,-10e-5 -3.17503,1.4215 -3.175,3.175 v 0.7937 a 3.1749756,3.1749756 0 0 0 3.175,3.175 3.1749756,3.1749756 0 0 0 3.175,-3.175 v -0.7937 c 3e-5,-1.7535 -1.4215,-3.1751 -3.175,-3.175 z"
         id="circle14617"
         inkscape:connector-curvature="0" />
      <circle
         style="opacity:1;fill:#9c6444;fill-opacity:1;fill-rule:nonzero;stroke:none;stroke-width:1.20951;stroke-linecap:round;stroke-linejoin:round;stroke-miterlimit:4;stroke-dasharray:none;stroke-dashoffset:0;stroke-opacity:1;paint-order:markers stroke fill"
         id="path14615"
         cx="495.82913"
         cy="-1288.9125"
         r="3.1749756" />
      <circle
         r="2.1166809"
         cy="-1288.9125"
         cx="495.82913"
         id="circle14627"
         style="opacity:1;fill:#542c14;fill-opacity:1;fill-rule:nonzero;stroke:none;stroke-width:0.806355;stroke-linecap:round;stroke-linejoin:round;stroke-miterlimit:4;stroke-dasharray:none;stroke-dashoffset:0;stroke-opacity:1;paint-order:markers stroke fill" />
      <path
         style="opacity:1;fill:#202040;fill-opacity:1;fill-rule:nonzero;stroke:none;stroke-width:0.806355;stroke-linecap:round;stroke-linejoin:round;stroke-miterlimit:4;stroke-dasharray:none;stroke-dashoffset:0;stroke-opacity:1;paint-order:markers stroke fill"
         d="m 495.82905,-1289.9709 a 2.1166808,2.1166808 0 0 0 -2.04742,1.5901 2.1166808,2.1166808 0 0 0 2.04742,1.5849 2.1166808,2.1166808 0 0 0 2.04743,-1.5895 2.1166808,2.1166808 0 0 0 -2.04743,-1.5855 z"
         id="circle14629"
         inkscape:connector-curvature="0" />
      <path
         style="opacity:1;fill:url(#linearGradient14689);fill-opacity:1;fill-rule:nonzero;stroke:none;stroke-width:1.20951;stroke-linecap:round;stroke-linejoin:round;stroke-miterlimit:4;stroke-dasharray:none;stroke-dashoffset:0;stroke-opacity:1;paint-order:markers stroke fill"
         d="m 495.82905,-1292.0875 c -1.7535,-10e-5 -3.17503,1.4215 -3.175,3.175 -3e-5,-1.4613 1.42147,-2.6459 3.175,-2.6459 1.75353,0 3.17503,1.1846 3.175,2.6459 3e-5,-1.7535 -1.4215,-3.1751 -3.175,-3.175 z m 3.175,3.175 c 3e-5,1.4612 -1.42147,2.6458 -3.175,2.6458 -1.75353,0 -3.17503,-1.1846 -3.175,-2.6458 -3e-5,1.7535 1.4215,3.175 3.175,3.175 1.7535,0 3.17503,-1.4215 3.175,-3.175 z"
         id="path14687"
         inkscape:connector-curvature="0" />
      <path
         transform="matrix(0.26443033,0,0,0.26442991,490.80205,-1292.6166)"
         d="m 19.009766,2 c -0.338086,0 -0.669214,0.039561 -1,0.054687 v 8.0175785 c 0.331656,-0.04538 0.665431,-0.06458 1,-0.06836 0.334681,0 0.670259,0.03823 1.001953,0.07227 V 2.0546875 C 19.680819,2.0168703 19.347662,2 19.009766,2 Z m -7.367188,15.103516 c -1.448056,0.835382 -2.900067,1.678859 -4.345703,2.507812 0.1474869,0.668986 0.3521294,1.323215 0.6113281,1.957031 1.5781851,-0.91026 3.1567569,-1.82298 4.7343749,-2.734375 -0.403963,-0.533222 -0.740763,-1.11367 -1,-1.730468 z m 14.730469,0 c -0.2564,0.618311 -0.59057,1.201214 -0.992188,1.736328 1.575084,0.909504 3.151138,1.819768 4.726563,2.728515 0.258669,-0.633816 0.46238,-1.288045 0.609375,-1.957031 -1.446771,-0.8316 -2.896034,-1.671296 -4.34375,-2.507812 z"
         style="opacity:1;fill:#512b13;fill-opacity:1;fill-rule:nonzero;stroke:none;stroke-width:4.57402;stroke-linecap:round;stroke-linejoin:round;stroke-miterlimit:4;stroke-dasharray:none;stroke-dashoffset:0;stroke-opacity:1;paint-order:markers stroke fill"
         id="path851" />
      <path
         transform="matrix(0.26443033,0,0,0.26442991,490.80205,-1292.6166)"
         d="m 19.009766,2 c -0.338086,0 -0.669214,0.039561 -1,0.054687 v 8.0175785 c 0.331656,-0.04538 0.665431,-0.06458 1,-0.06836 0.334681,0 0.670259,0.03823 1.001953,0.07227 V 2.0546875 c -0.330257,-0.037744 -0.662784,-0.054629 -1,-0.054687 -6.57e-4,-1e-7 -0.0013,0 -0.002,0 z m -7.367188,15.103516 c -1.164961,0.672065 -2.3312632,1.346946 -3.4960936,2.017578 a 12.006851,12.00687 0 0 0 1,1.732422 c 1.1652126,-0.672805 2.3310556,-1.346485 3.4960936,-2.019532 -0.403963,-0.533222 -0.740763,-1.11367 -1,-1.730468 z m 14.730469,0 c -0.2564,0.618311 -0.59057,1.201214 -0.992188,1.736328 1.163694,0.671954 2.328432,1.343868 3.492188,2.015625 a 12.006851,12.00687 0 0 0 1,-1.730469 c -1.16666,-0.672189 -2.33338,-1.34739 -3.5,-2.021484 z"
         style="opacity:1;fill:#6a442e;fill-opacity:1;fill-rule:nonzero;stroke:none;stroke-width:4.57402;stroke-linecap:round;stroke-linejoin:round;stroke-miterlimit:4;stroke-dasharray:none;stroke-dashoffset:0;stroke-opacity:1;paint-order:markers stroke fill"
         id="circle853" />
      <path
         transform="matrix(0.26443033,0,0,0.26442991,490.80205,-1292.6166)"
         d="m 19.011719,6.0039062 a 8.0046826,8.0046954 0 0 0 -1.001953,0.0625 v 4.0058598 c 0.331656,-0.04538 0.665431,-0.06458 1,-0.06836 0.334681,0 0.670259,0.03823 1.001953,0.07227 V 6.0664062 a 8.0046826,8.0046954 0 0 0 -1,-0.0625 z M 11.642578,17.103516 c -0.0033,0.0019 -0.0065,0.004 -0.0098,0.0059 a 8.0046826,8.0046954 0 0 0 0.998047,1.732422 c 0.0041,-0.0023 0.0077,-0.0055 0.01172,-0.0078 -0.403963,-0.533222 -0.740763,-1.11367 -1,-1.730468 z m 14.730469,0 c -0.2564,0.618311 -0.59057,1.201214 -0.992188,1.736328 0.0025,0.0015 0.0053,0.0025 0.0078,0.0039 a 8.0046826,8.0046954 0 0 0 1,-1.732422 c -0.005,-0.0029 -0.01059,-0.0049 -0.01563,-0.0078 z"
         style="opacity:1;fill:#391e0e;fill-opacity:1;fill-rule:nonzero;stroke:none;stroke-width:3.04941;stroke-linecap:round;stroke-linejoin:round;stroke-miterlimit:4;stroke-dasharray:none;stroke-dashoffset:0;stroke-opacity:1;paint-order:markers stroke fill"
         id="circle855" />
      <path
         transform="matrix(0.26443033,0,0,0.26442991,490.80205,-1292.6166)"
         d="m 19.009766,2 c -0.338086,0 -0.669214,0.039561 -1,0.054687 v 1.9882813 c 0.330832,-0.022808 0.662102,-0.041016 1,-0.041016 0.338019,0 0.671004,0.018191 1.001953,0.041016 V 2.0546875 C 19.680819,2.0168703 19.347662,2 19.009766,2 Z M 8.5390625,18.894531 c -0.1275806,0.07355 -0.2552961,0.147285 -0.3828125,0.220703 0.2862285,0.60709 0.6162875,1.188189 0.9960938,1.734375 0.2277843,-0.131525 0.4558277,-0.262964 0.6835937,-0.394531 -0.4892737,-0.483049 -0.9231531,-1.005643 -1.296875,-1.560547 z m 20.9414065,0.0039 c -0.373654,0.554271 -0.807901,1.076071 -1.296875,1.558593 0.228069,0.131683 0.455511,0.264828 0.683594,0.396485 0.379991,-0.546036 0.709655,-1.127416 0.996093,-1.734375 -0.127547,-0.07349 -0.255237,-0.147134 -0.382812,-0.220703 z"
         style="opacity:1;fill:#7d5f49;fill-opacity:1;fill-rule:nonzero;stroke:none;stroke-width:4.57402;stroke-linecap:round;stroke-linejoin:round;stroke-miterlimit:4;stroke-dasharray:none;stroke-dashoffset:0;stroke-opacity:1;paint-order:markers stroke fill"
         id="path857" />
    </g>
  </g>
</svg>
