<?xml version="1.0" encoding="UTF-8" standalone="no"?>
<svg
   xmlns:dc="http://purl.org/dc/elements/1.1/"
   xmlns:cc="http://creativecommons.org/ns#"
   xmlns:rdf="http://www.w3.org/1999/02/22-rdf-syntax-ns#"
   xmlns:svg="http://www.w3.org/2000/svg"
   xmlns="http://www.w3.org/2000/svg"
   xmlns:xlink="http://www.w3.org/1999/xlink"
   xmlns:sodipodi="http://sodipodi.sourceforge.net/DTD/sodipodi-0.dtd"
   xmlns:inkscape="http://www.inkscape.org/namespaces/inkscape"
   sodipodi:docname="mine_hatch.svg"
   inkscape:version="1.0 (4035a4fb49, 2020-05-01)"
   id="svg3893"
   version="1.1"
   viewBox="0 0 0.50270832 0.58758992"
   height="0.58758992mm"
   width="0.50270832mm">
  <defs
     id="defs3887">
    <linearGradient
       inkscape:collect="always"
       xlink:href="#linearGradient3083"
       id="linearGradient3085"
       x1="1708.8119"
       y1="-333.5"
       x2="1708.8119"
       y2="-359.5"
       gradientUnits="userSpaceOnUse" />
    <linearGradient
       inkscape:collect="always"
       id="linearGradient3083">
      <stop
         style="stop-color:#8874d8;stop-opacity:1"
         offset="0"
         id="stop3079" />
      <stop
         style="stop-color:#7868d4;stop-opacity:1"
         offset="1"
         id="stop3081" />
    </linearGradient>
    <linearGradient
       inkscape:collect="always"
       xlink:href="#linearGradient3091"
       id="linearGradient3093"
       x1="1712.0823"
       y1="-332"
       x2="1712.0823"
       y2="-361"
       gradientUnits="userSpaceOnUse" />
    <linearGradient
       inkscape:collect="always"
       id="linearGradient3091">
      <stop
         style="stop-color:#9c88ec;stop-opacity:1"
         offset="0"
         id="stop3087" />
      <stop
         style="stop-color:#8c78e4;stop-opacity:1"
         offset="1"
         id="stop3089" />
    </linearGradient>
  </defs>
  <sodipodi:namedview
     inkscape:window-maximized="1"
     inkscape:window-y="-8"
     inkscape:window-x="-8"
     inkscape:window-height="1057"
     inkscape:window-width="1920"
     showgrid="false"
     inkscape:document-rotation="0"
     inkscape:current-layer="layer1"
     inkscape:document-units="px"
     inkscape:cy="0.85530939"
     inkscape:cx="1.1554818"
     inkscape:zoom="256"
     inkscape:pageshadow="2"
     inkscape:pageopacity="0.0"
     borderopacity="1.0"
     bordercolor="#666666"
     pagecolor="#ffffff"
     id="base" />
  <metadata
     id="metadata3890">
    <rdf:RDF>
      <cc:Work
         rdf:about="">
        <dc:format>image/svg+xml</dc:format>
        <dc:type
           rdf:resource="http://purl.org/dc/dcmitype/StillImage" />
        <dc:title></dc:title>
      </cc:Work>
    </rdf:RDF>
  </metadata>
  <g
     transform="translate(-109.87768,-96.177661)"
     id="layer1"
     inkscape:groupmode="layer"
     inkscape:label="Layer 1">
    <g
       transform="matrix(0.04999994,0,0,0.04999994,87.441037,100.99858)"
       id="g3124">
      <rect
         ry="0.93459511"
         y="-89.958336"
         x="448.73334"
         height="5.2916617"
         width="10.054169"
         id="rect19227-0-4-8-1-6"
         style="opacity:1;fill:#000000;fill-opacity:0.180392;fill-rule:nonzero;stroke:none;stroke-width:3.93973;stroke-linecap:round;stroke-linejoin:round;stroke-miterlimit:4;stroke-dasharray:none;stroke-dashoffset:0;stroke-opacity:1;paint-order:markers stroke fill;filter:url(#filter1957)" />
      <path
         id="path2997"
         style="color:#000000;font-style:normal;font-variant:normal;font-weight:normal;font-stretch:normal;font-size:medium;line-height:normal;font-family:sans-serif;font-variant-ligatures:normal;font-variant-position:normal;font-variant-caps:normal;font-variant-numeric:normal;font-variant-alternates:normal;font-variant-east-asian:normal;font-feature-settings:normal;font-variation-settings:normal;text-indent:0;text-align:start;text-decoration:none;text-decoration-line:none;text-decoration-style:solid;text-decoration-color:#000000;letter-spacing:normal;word-spacing:normal;text-transform:none;writing-mode:lr-tb;direction:ltr;text-orientation:mixed;dominant-baseline:auto;baseline-shift:baseline;text-anchor:start;white-space:normal;shape-padding:0;shape-margin:0;inline-size:0;clip-rule:nonzero;display:inline;overflow:visible;visibility:visible;isolation:auto;mix-blend-mode:normal;color-interpolation:sRGB;color-interpolation-filters:linearRGB;solid-color:#000000;solid-opacity:1;vector-effect:none;fill:#30285c;fill-opacity:1;fill-rule:nonzero;stroke:none;stroke-width:3.99999;stroke-linecap:butt;stroke-linejoin:round;stroke-miterlimit:4;stroke-dasharray:none;stroke-dashoffset:0;stroke-opacity:1;color-rendering:auto;image-rendering:auto;shape-rendering:auto;text-rendering:auto;enable-background:accumulate;stop-color:#000000"
         d="m 1702,-364.41602 c -0.8743,0 -1.7585,0.34639 -2.4141,1.00196 l -2,2 c -0.658,0.65802 -1.0043,1.5465 -1.0019,2.42383 V -357 v 0.004 a 2.0002,2.0002 0 0 0 0,0.006 c 0,0.17592 0.025,0.35067 0.053,0.52539 l -0.051,0.0508 A 2.0002,2.0002 0 0 0 1696,-355 v 21 a 2.0002,2.0002 0 0 0 0.584,1.41211 v 1.58398 c -9e-4,0.87545 0.3455,1.76136 1.0019,2.41797 l 2,2 c 1.084,1.08389 2.7671,1.25844 4.0625,0.55274 A 2.0002,2.0002 0 0 0 1704,-326 h 22 a 2.0002,2.0002 0 0 0 0.3555,-0.0312 c 1.2948,0.70321 2.9756,0.52821 4.0586,-0.55469 l 2,-2 c 0.6616,-0.66161 1.008,-1.55551 1.0019,-2.4375 v -1.56445 A 2.0002,2.0002 0 0 0 1734,-334 v -3 -18 a 2.0002,2.0002 0 0 0 -0.5859,-1.41406 l -0.053,-0.0527 c 0.027,-0.16949 0.052,-0.33987 0.053,-0.50976 a 2.0002,2.0002 0 0 0 0,-0.0137 v -0.01 -1.97656 -0.004 c 0,-0.8738 -0.3364,-1.76997 -1,-2.43359 l -2,-2 c -1.167,-1.16687 -3.0322,-1.2919 -4.3555,-0.38477 -0.336,-0.12706 -0.6931,-0.20109 -1.0586,-0.20117 h -20 c -0.3649,8e-5 -0.7212,0.0745 -1.0566,0.20117 -0.5801,-0.40217 -1.2629,-0.61719 -1.9434,-0.61719 z"
         transform="scale(0.26458333)" />
      <path
         id="path3126"
         d="m 449.26249,-93.927082 0.52917,-0.529167 h 7.9375 l 0.52917,0.529172 v 4.762495 0.79375 l -1.5875,1.5875 h -5.82084 l -1.5875,-1.5875 z"
         style="fill:#505490;fill-opacity:1;stroke:none;stroke-width:0.264583px;stroke-linecap:butt;stroke-linejoin:miter;stroke-opacity:1" />
      <path
         id="path3197"
         style="opacity:1;fill:#3c346c;fill-opacity:1;stroke:none;stroke-width:2.00001;stroke-linecap:round;stroke-linejoin:round;stroke-miterlimit:4;stroke-dasharray:none;paint-order:markers stroke fill"
         d="M 1698.584,-358.99609 V -357 v 0.004 c 10e-4,0.3602 0.14,0.72009 0.416,0.99609 l 11,11 1,-1 -10.9297,-12.99609 z m 31.3457,0.006 L 1719,-346 l 1,1 11,-11 c 0.2745,-0.27446 0.4116,-0.63205 0.4141,-0.99023 v -0.01 -1.99023 z m -14.9297,15.99021 -16.416,9.99611 v 2 c -10e-4,0.3628 0.138,0.72592 0.416,1.00391 l 2,2 c 0.554,0.55399 1.446,0.55402 2,0 l 12,-12 12,12 c 0.554,0.55399 1.446,0.55402 2,0 l 2,-2 c 0.2795,-0.27948 0.4185,-0.64503 0.416,-1.00977 v -2 z"
         sodipodi:nodetypes="ccssccccccccsscccccssscsssccc"
         transform="scale(0.26458333)" />
      <path
         d="m 1702,-362.41602 c -0.3615,0 -0.723,0.13903 -1,0.41602 l -2,2 c -0.554,0.55402 -0.554,1.44601 0,2 l 12,12 -12,12 c -0.554,0.55402 -0.554,1.44601 0,2 l 2,2 c 0.554,0.55399 1.446,0.55402 2,0 l 12,-12 12,12 c 0.554,0.55399 1.446,0.55402 2,0 l 2,-2 c 0.554,-0.55399 0.554,-1.44601 0,-2 l -12,-12 12,-12 c 0.554,-0.55399 0.554,-1.44601 0,-2 l -2,-2 c -0.554,-0.55399 -1.446,-0.55399 -2,0 l -12,12 -12,-12 c -0.277,-0.27699 -0.6385,-0.41602 -1,-0.41602 z"
         style="opacity:1;fill:#806ccc;fill-opacity:1;stroke:none;stroke-width:2.00001;stroke-linecap:round;stroke-linejoin:round;stroke-miterlimit:4;stroke-dasharray:none;paint-order:markers stroke fill"
         id="rect2976"
         transform="scale(0.26458333)" />
      <path
         d="m 1702,-362.41602 c -0.3615,0 -0.723,0.13903 -1,0.41602 l -2,2 c -0.554,0.55402 -0.554,1.44601 0,2 l 2,-2 c 0.277,-0.27701 0.6387,-0.41602 1,-0.41602 0.3615,0 0.723,0.13902 1,0.41602 l 12,12 12,-12 c 0.554,-0.55399 1.446,-0.55399 2,0 l 2,2 c 0.554,-0.55399 0.554,-1.44601 0,-2 l -2,-2 c -0.554,-0.55399 -1.446,-0.55399 -2,0 l -12,12 -12,-12 c -0.277,-0.27699 -0.6385,-0.41602 -1,-0.41602 z m 8,17.41602 -11,11 c -0.554,0.55402 -0.554,1.44601 0,2 l 12,-12 z m 10,0 -1,1 12,12 c 0.554,-0.55399 0.554,-1.44601 0,-2 z"
         style="opacity:1;fill:#4c88d8;fill-opacity:1;stroke:none;stroke-width:2.00001;stroke-linecap:round;stroke-linejoin:round;stroke-miterlimit:4;stroke-dasharray:none;paint-order:markers stroke fill"
         id="path3201"
         transform="scale(0.26458333)" />
      <rect
         y="-94.456245"
         x="451.11456"
         height="5.2916665"
         width="5.2916665"
         id="rect2997"
         style="opacity:1;fill:#404870;fill-opacity:1;stroke:none;stroke-width:0.529167;stroke-linecap:round;stroke-linejoin:round;stroke-miterlimit:4;stroke-dasharray:none;paint-order:markers stroke fill" />
      <path
         id="path3029"
         style="color:#000000;font-style:normal;font-variant:normal;font-weight:normal;font-stretch:normal;font-size:medium;line-height:normal;font-family:sans-serif;font-variant-ligatures:normal;font-variant-position:normal;font-variant-caps:normal;font-variant-numeric:normal;font-variant-alternates:normal;font-variant-east-asian:normal;font-feature-settings:normal;font-variation-settings:normal;text-indent:0;text-align:start;text-decoration:none;text-decoration-line:none;text-decoration-style:solid;text-decoration-color:#000000;letter-spacing:normal;word-spacing:normal;text-transform:none;writing-mode:lr-tb;direction:ltr;text-orientation:mixed;dominant-baseline:auto;baseline-shift:baseline;text-anchor:start;white-space:normal;shape-padding:0;shape-margin:0;inline-size:0;clip-rule:nonzero;display:inline;overflow:visible;visibility:visible;isolation:auto;mix-blend-mode:normal;color-interpolation:sRGB;color-interpolation-filters:linearRGB;solid-color:#000000;solid-opacity:1;vector-effect:none;fill:#343060;fill-opacity:1;fill-rule:nonzero;stroke:none;stroke-width:2;stroke-linecap:round;stroke-linejoin:round;stroke-miterlimit:4;stroke-dasharray:none;stroke-dashoffset:0;stroke-opacity:1;paint-order:markers stroke fill;color-rendering:auto;image-rendering:auto;shape-rendering:auto;text-rendering:auto;enable-background:accumulate;stop-color:#000000"
         d="m 1705,-362 c -0.2652,6e-5 -0.5195,0.10544 -0.707,0.29297 l -5,5 c -0.1875,0.18751 -0.2929,0.44183 -0.293,0.70703 v 9 1 9 1 c 10e-5,0.2652 0.1055,0.51952 0.293,0.70703 l 6,6 c 0.1875,0.18753 0.4418,0.29291 0.707,0.29297 h 8 2 8 c 0.2652,-6e-5 0.5195,-0.10544 0.707,-0.29297 l 6,-6 c 0.1875,-0.18751 0.2929,-0.44183 0.293,-0.70703 v -1 -9 -1 -8 -1 c -10e-5,-0.2652 -0.1055,-0.51952 -0.293,-0.70703 l -5,-5 c -0.1875,-0.18753 -0.4418,-0.29291 -0.707,-0.29297 h -9 -2 z m 18,7.99999 1,1 1,16 h -20 l 1,-16 1,-1 z"
         sodipodi:nodetypes="cccccccsccccccccsccccsccccccccccccc"
         transform="scale(0.26458333)" />
      <path
         id="path3048"
         style="opacity:1;fill:#3c306c;fill-opacity:1;stroke:none;stroke-width:0.264583px;stroke-linecap:butt;stroke-linejoin:miter;stroke-opacity:1"
         d="M 457.72916,-93.927083 456.40624,-95.25 h -5.29166 l -1.32292,1.322917 V -88.9 l 1.58751,1.5875 h 4.7625 l 1.58749,-1.5875 z m -1.5875,4.497916 -0.26458,0.264583 h -4.23334 l -0.26458,-0.264583 V -93.6625 l 0.26458,-0.264583 h 4.23334 l 0.26458,0.264583 z"
         sodipodi:nodetypes="cccccccccccccccccc" />
      <path
         sodipodi:nodetypes="ccccccccccccc"
         style="opacity:1;fill:#50547c;fill-opacity:1;stroke:none;stroke-width:0.264583px;stroke-linecap:butt;stroke-linejoin:miter;stroke-opacity:1"
         d="m 451.11458,-93.133337 h 1.85208 l 0.52917,0.529167 h 0.52916 l 0.52917,-0.529167 h 1.85209 v 2.645834 h -1.05834 l -0.52917,0.529166 h -2.11666 l -0.52917,-0.529166 h -1.05833 z"
         id="path2980" />
      <path
         sodipodi:nodetypes="ccccccccccccc"
         style="opacity:1;fill:#282c40;fill-opacity:1;stroke:none;stroke-width:0.264583px;stroke-linecap:butt;stroke-linejoin:miter;stroke-opacity:1"
         d="m 451.11458,-92.868753 h 1.74247 l 0.52917,0.529166 h 0.74836 l 0.52917,-0.529166 h 1.7425 v 2.116666 h -1.16794 l -0.52917,0.529167 h -1.89744 l -0.52917,-0.529167 h -1.16795 z"
         id="path2982" />
      <path
         sodipodi:nodetypes="ccccccccccccc"
         style="opacity:1;fill:#181c30;fill-opacity:1;stroke:none;stroke-width:0.264583px;stroke-linecap:butt;stroke-linejoin:miter;stroke-opacity:1"
         d="m 451.11458,-92.339587 h 1.47789 l 0.52916,0.529167 h 1.27754 l 0.52916,-0.529167 h 1.47792 v 1.058334 h -1.43252 l -0.52917,0.529166 h -1.36828 l -0.52917,-0.529166 h -1.43253 z"
         id="path2984" />
      <path
         d="m 449.2625,-93.927082 v 0.529167 h 0.26458 v -0.529167 z m 0,1.058333 v 0.529167 h 0.26458 v -0.529167 z m 0,1.058333 v 0.529167 h 0.26458 v -0.529167 z m 0,1.058334 v 0.529166 h 0.26458 v -0.529166 z m 0,1.058333 v 0.529167 h 0.26458 v -0.529167 z"
         style="opacity:1;fill:#ffcc10;fill-opacity:1;stroke:none;stroke-width:0.529167;stroke-linecap:round;stroke-linejoin:round;stroke-miterlimit:4;stroke-dasharray:none;paint-order:markers stroke fill"
         id="rect3095" />
      <path
         sodipodi:nodetypes="cccccccccccccccccccc"
         id="path3111"
         style="opacity:1;fill:#24283c;fill-opacity:1;stroke:none;stroke-width:0.529167;stroke-linecap:round;stroke-linejoin:round;stroke-miterlimit:4;stroke-dasharray:none;paint-order:markers stroke fill"
         d="m 449.2625,-93.397917 v 0.529167 h 0.26459 v -0.529167 z m 0,1.058333 v 0.529167 h 0.26459 v -0.529167 z m 0,1.058334 v 0.529166 h 0.26459 v -0.529166 z m 0,1.058333 v 0.529167 h 0.26459 v -0.529167 z" />
      <path
         id="path3113"
         style="opacity:1;fill:#ffcc10;fill-opacity:1;stroke:none;stroke-width:0.529167;stroke-linecap:round;stroke-linejoin:round;stroke-miterlimit:4;stroke-dasharray:none;paint-order:markers stroke fill"
         d="m 457.99375,-93.927082 v 0.529167 h 0.26458 v -0.529167 z m 0,1.058333 v 0.529167 h 0.26458 v -0.529167 z m 0,1.058333 v 0.529167 h 0.26458 v -0.529167 z m 0,1.058334 v 0.529166 h 0.26458 v -0.529166 z m 0,1.058333 v 0.529167 h 0.26458 v -0.529167 z" />
      <path
         d="m 457.99375,-93.397917 v 0.529167 h 0.26459 v -0.529167 z m 0,1.058333 v 0.529167 h 0.26459 v -0.529167 z m 0,1.058334 v 0.529166 h 0.26459 v -0.529166 z m 0,1.058333 v 0.529167 h 0.26459 v -0.529167 z"
         style="opacity:1;fill:#24283c;fill-opacity:1;stroke:none;stroke-width:0.529167;stroke-linecap:round;stroke-linejoin:round;stroke-miterlimit:4;stroke-dasharray:none;paint-order:markers stroke fill"
         id="path3115"
         sodipodi:nodetypes="cccccccccccccccccccc" />
      <path
         id="path3117"
         style="opacity:1;fill:#ffcc10;fill-opacity:1;stroke:none;stroke-width:0.529167;stroke-linecap:round;stroke-linejoin:round;stroke-miterlimit:4;stroke-dasharray:none;paint-order:markers stroke fill"
         d="m 456.14166,-95.779164 h -0.52916 v 0.26458 h 0.52916 z m -1.05833,0 h -0.52917 v 0.26458 h 0.52917 z m -1.05833,0 h -0.52917 v 0.26458 h 0.52917 z m -1.05834,0 h -0.52916 v 0.26458 h 0.52916 z m -1.05833,0 h -0.52917 v 0.26458 h 0.52917 z" />
      <path
         d="m 455.6125,-95.779164 h -0.52917 v 0.26459 h 0.52917 z m -1.05833,0 H 454.025 v 0.26459 h 0.52917 z m -1.05834,0 h -0.52916 v 0.26459 h 0.52916 z m -1.05833,0 h -0.52917 v 0.26459 h 0.52917 z"
         style="opacity:1;fill:#24283c;fill-opacity:1;stroke:none;stroke-width:0.529167;stroke-linecap:round;stroke-linejoin:round;stroke-miterlimit:4;stroke-dasharray:none;paint-order:markers stroke fill"
         id="path3119"
         sodipodi:nodetypes="cccccccccccccccccccc" />
      <path
         d="m 456.14166,-86.783337 h -0.52916 v -0.26458 h 0.52916 z m -1.05833,0 h -0.52917 v -0.26458 h 0.52917 z m -1.05833,0 h -0.52917 v -0.26458 h 0.52917 z m -1.05834,0 h -0.52916 v -0.26458 h 0.52916 z m -1.05833,0 h -0.52917 v -0.26458 h 0.52917 z"
         style="opacity:1;fill:#ffcc10;fill-opacity:1;stroke:none;stroke-width:0.529167;stroke-linecap:round;stroke-linejoin:round;stroke-miterlimit:4;stroke-dasharray:none;paint-order:markers stroke fill"
         id="path3121" />
      <path
         sodipodi:nodetypes="cccccccccccccccccccc"
         id="path3124"
         style="opacity:1;fill:#24283c;fill-opacity:1;stroke:none;stroke-width:0.529167;stroke-linecap:round;stroke-linejoin:round;stroke-miterlimit:4;stroke-dasharray:none;paint-order:markers stroke fill"
         d="m 455.6125,-87.047917 h -0.52917 v 0.26459 h 0.52917 z m -1.05833,0 H 454.025 v 0.26459 h 0.52917 z m -1.05834,0 h -0.52916 v 0.26459 h 0.52916 z m -1.05833,0 h -0.52917 v 0.26459 h 0.52917 z" />
      <path
         id="rect2952"
         style="fill:#30285c;fill-opacity:1;stroke-width:5.05962;stroke-linecap:round;paint-order:markers stroke fill"
         d="m 1714,-361 -2,2.74805 2,2.25195 h 2 l 2,-2.25195 -2,-2.74805 z m -10.252,12 -3.748,2 v 1 l 3.748,2 2.252,-2 v -1 z m 22.504,0 -2.252,2 v 1 l 2.252,2 3.748,-2 v -1 z m -12.252,11 -2,4.5 2,1.5 v 2 h 2 v -2 l 2,-1.5 -2,-4.5 z"
         transform="scale(0.26458333)" />
      <path
         d="m 1705,-361 -5,5 v 9 h 6 v -8 l 1,-1 h 7 v -5 z m 11,0 v 5 h 7 l 1,1 v 8 h 6 v -9 l -5,-5 z m -16,15 v 9 l 5,5 h 9 v -6 h -7 l -1,-1 v -7 z m 24,0 v 7 l -1,1 h -7 v 6 h 9 l 5,-5 v -9 z"
         style="opacity:1;fill:url(#linearGradient3085);fill-opacity:1;stroke:none;stroke-width:0.999999px;stroke-linecap:butt;stroke-linejoin:miter;stroke-opacity:1"
         id="path2987"
         transform="scale(0.26458333)" />
      <path
         d="m 1705,-361 -5,5 v 9 h 1.5 v -8.37891 l 4.1211,-4.12109 H 1714 v -1.5 z m 11,0 v 1.5 h 8.3789 l 4.1211,4.12109 V -347 h 1.5 v -9 l -5,-5 z m -9.6211,3.5 -0.4394,0.43945 -1.4395,1.43946 V -347 h 1.5 v -8 l 1,-1 h 7 v -1.5 z m 9.6211,0 v 1.5 h 7 l 1,1 v 8 h 1.5 v -8.62109 l -1.8789,-1.87891 z m -16,11.5 v 9 l 5,5 h 9 v -1.5 h -8.3789 l -4.1211,-4.12109 V -346 Z m 4.5,0 v 7.62109 l 1.8789,1.87891 H 1714 v -1.5 h -7 l -1,-1 v -7 z m 19.5,0 v 7 l -1,1 h -7 v 1.5 h 7.6211 l 1.8789,-1.87891 V -346 Z m 4.5,0 v 8.37891 l -4.1211,4.12109 H 1716 v 1.5 h 9 l 5,-5 v -9 z"
         style="color:#000000;font-style:normal;font-variant:normal;font-weight:normal;font-stretch:normal;font-size:medium;line-height:normal;font-family:sans-serif;font-variant-ligatures:normal;font-variant-position:normal;font-variant-caps:normal;font-variant-numeric:normal;font-variant-alternates:normal;font-variant-east-asian:normal;font-feature-settings:normal;font-variation-settings:normal;text-indent:0;text-align:start;text-decoration:none;text-decoration-line:none;text-decoration-style:solid;text-decoration-color:#000000;letter-spacing:normal;word-spacing:normal;text-transform:none;writing-mode:lr-tb;direction:ltr;text-orientation:mixed;dominant-baseline:auto;baseline-shift:baseline;text-anchor:start;white-space:normal;shape-padding:0;shape-margin:0;inline-size:0;clip-rule:nonzero;display:inline;overflow:visible;visibility:visible;isolation:auto;mix-blend-mode:normal;color-interpolation:sRGB;color-interpolation-filters:linearRGB;solid-color:#000000;solid-opacity:1;vector-effect:none;fill:url(#linearGradient3093);fill-opacity:1;fill-rule:nonzero;stroke:none;stroke-width:3;stroke-linecap:butt;stroke-linejoin:miter;stroke-miterlimit:4;stroke-dasharray:none;stroke-dashoffset:0;stroke-opacity:1;color-rendering:auto;image-rendering:auto;shape-rendering:auto;text-rendering:auto;enable-background:accumulate;stop-color:#000000"
         id="path3011"
         transform="scale(0.26458333)" />
      <path
         id="rect3059"
         style="fill:#3c386c;fill-opacity:1;stroke:none;stroke-width:2;stroke-linecap:round;stroke-linejoin:round;stroke-miterlimit:4;stroke-dasharray:none;paint-order:markers stroke fill"
         d="m 1699,-347 v 1 h 1 v -1 z m 31,0 v 1 h 1 v -1 z m -16,17 v 1 h 2 v -1 z"
         transform="scale(0.26458333)" />
    </g>
  </g>
</svg>
