<?xml version="1.0" ?><svg xmlns:dc="http://purl.org/dc/elements/1.1/" xmlns:cc="http://creativecommons.org/ns#" xmlns:rdf="http://www.w3.org/1999/02/22-rdf-syntax-ns#" xmlns:svg="http://www.w3.org/2000/svg" xmlns="http://www.w3.org/2000/svg" xmlns:sodipodi="http://sodipodi.sourceforge.net/DTD/sodipodi-0.dtd" xmlns:inkscape="http://www.inkscape.org/namespaces/inkscape" inkscape:version="1.0 (4035a4fb49, 2020-05-01)" id="svg3893" version="1.1" viewBox="0 0 0.26458335 0.50270647" height="0.50270647mm" width="0.26458335mm" sodipodi:docname="office.svg">
  <defs id="defs3887"/>
  <sodipodi:namedview showgrid="false" inkscape:document-rotation="0" inkscape:current-layer="layer1" inkscape:document-units="px" inkscape:cy="1.4639944" inkscape:cx="0.45197394" inkscape:zoom="253.42707" inkscape:pageshadow="2" inkscape:pageopacity="0.0" borderopacity="1.0" bordercolor="#666666" pagecolor="#ffffff" id="base" inkscape:window-width="1920" inkscape:window-height="1057" inkscape:window-x="-8" inkscape:window-y="-8" inkscape:window-maximized="1"/>
  <metadata id="metadata3890">
    <rdf:RDF>
      <cc:Work rdf:about="">
        <dc:format>image/svg+xml</dc:format>
        <dc:type rdf:resource="http://purl.org/dc/dcmitype/StillImage"/>
        <dc:title/>
      </cc:Work>
    </rdf:RDF>
  </metadata>
  <g id="layer1" inkscape:groupmode="layer" inkscape:label="Layer 1" transform="translate(15.497032,-157.50268)">
    <g id="g1297" transform="matrix(0.04999981,0,0,0.04999981,-9.1073686,151.90676)">
      <ellipse ry="2.6458247" rx="2.6458435" cy="119.3271" cx="-125.14792" id="path6763-8-9-1" style="opacity:1;fill:#000000;fill-opacity:0.18;fill-rule:nonzero;stroke:none;stroke-width:1.05833;stroke-linecap:round;stroke-linejoin:round;stroke-miterlimit:4;stroke-dasharray:none;stroke-dashoffset:0;stroke-opacity:1;paint-order:markers fill stroke"/>
      <path d="m -125.14792,111.91876 c -1.45498,0 -2.64583,1.19085 -2.64583,2.64583 v 2.91042 c 2.5e-4,0.94524 0.52391,1.78617 1.32292,2.25619 v 0.12506 a 0.52921958,0.52921958 0 0 0 0.52916,0.52916 h 1.5875 a 0.52921958,0.52921958 0 0 0 0.52917,-0.52916 v -0.12454 c 0.79927,-0.47012 1.3229,-1.31119 1.32292,-2.25671 v -2.91042 c 0,-1.45498 -1.19085,-2.64583 -2.64584,-2.64583 z" style="color:#000000;font-style:normal;font-variant:normal;font-weight:normal;font-stretch:normal;font-size:medium;line-height:normal;font-family:sans-serif;font-variant-ligatures:normal;font-variant-position:normal;font-variant-caps:normal;font-variant-numeric:normal;font-variant-alternates:normal;font-variant-east-asian:normal;font-feature-settings:normal;font-variation-settings:normal;text-indent:0;text-align:start;text-decoration:none;text-decoration-line:none;text-decoration-style:solid;text-decoration-color:#000000;letter-spacing:normal;word-spacing:normal;text-transform:none;writing-mode:lr-tb;direction:ltr;text-orientation:mixed;dominant-baseline:auto;baseline-shift:baseline;text-anchor:start;white-space:normal;shape-padding:0;shape-margin:0;inline-size:0;clip-rule:nonzero;display:inline;overflow:visible;visibility:visible;isolation:auto;mix-blend-mode:normal;color-interpolation:sRGB;color-interpolation-filters:linearRGB;solid-color:#000000;solid-opacity:1;vector-effect:none;fill:#3c3460;fill-opacity:1;fill-rule:nonzero;stroke:none;stroke-width:1.05833;stroke-linecap:round;stroke-linejoin:round;stroke-miterlimit:4;stroke-dasharray:none;stroke-dashoffset:0;stroke-opacity:1;paint-order:markers fill stroke;color-rendering:auto;image-rendering:auto;shape-rendering:auto;text-rendering:auto;enable-background:accumulate;stop-color:#000000" id="path1327"/>
      <path d="m -125.14792,115.35834 a 2.1166782,2.1166666 0 0 0 -2.04948,1.5875 h -0.0672 v 0.52917 a 2.1166782,2.1166666 0 0 0 2.11666,2.11666 2.1166782,2.1166666 0 0 0 2.11667,-2.11666 v -0.52917 h -0.0672 a 2.1166782,2.1166666 0 0 0 -2.04949,-1.5875 z" style="fill:#2c4084;fill-opacity:1;stroke:none;stroke-width:0.513366;stroke-linecap:round;stroke-linejoin:round;stroke-miterlimit:4;stroke-dasharray:none;paint-order:markers fill stroke" id="ellipse2883"/>
      <path d="m -125.14792,114.82917 a 2.1166782,2.1166666 0 0 0 -2.04948,1.5875 h -0.0672 v 0.52917 a 2.1166782,2.1166666 0 0 0 2.11666,2.11667 2.1166782,2.1166666 0 0 0 2.11667,-2.11667 v -0.52917 h -0.0672 a 2.1166782,2.1166666 0 0 0 -2.04949,-1.5875 z" style="fill:#28386c;fill-opacity:1;stroke:none;stroke-width:0.513366;stroke-linecap:round;stroke-linejoin:round;stroke-miterlimit:4;stroke-dasharray:none;paint-order:markers fill stroke" id="ellipse2897"/>
      <path d="m -125.14792,114.30001 a 2.1166782,2.1166666 0 0 0 -2.04948,1.5875 h -0.0672 v 0.52916 a 2.1166782,2.1166666 0 0 0 2.11666,2.11667 2.1166782,2.1166666 0 0 0 2.11667,-2.11667 v -0.52916 h -0.0672 a 2.1166782,2.1166666 0 0 0 -2.04949,-1.5875 z" style="fill:#2c4084;fill-opacity:1;stroke:none;stroke-width:0.513366;stroke-linecap:round;stroke-linejoin:round;stroke-miterlimit:4;stroke-dasharray:none;paint-order:markers fill stroke" id="ellipse2885"/>
      <path d="m -125.14792,113.77084 a 2.1166782,2.1166666 0 0 0 -2.04948,1.5875 h -0.0672 v 0.52917 a 2.1166782,2.1166666 0 0 0 2.11666,2.11666 2.1166782,2.1166666 0 0 0 2.11667,-2.11666 v -0.52917 h -0.0672 a 2.1166782,2.1166666 0 0 0 -2.04949,-1.5875 z" style="fill:#384c90;fill-opacity:1;stroke:none;stroke-width:0.513366;stroke-linecap:round;stroke-linejoin:round;stroke-miterlimit:4;stroke-dasharray:none;paint-order:markers fill stroke" id="ellipse2887"/>
      <path d="m -125.14792,113.50626 a 2.1166782,2.1166666 0 0 0 -2.04948,1.5875 h -0.0672 v 0.52916 a 2.1166782,2.1166666 0 0 0 2.11666,2.11667 2.1166782,2.1166666 0 0 0 2.11667,-2.11667 v -0.52916 h -0.0672 a 2.1166782,2.1166666 0 0 0 -2.04949,-1.5875 z" style="fill:#28386c;fill-opacity:1;stroke:none;stroke-width:0.513366;stroke-linecap:round;stroke-linejoin:round;stroke-miterlimit:4;stroke-dasharray:none;paint-order:markers fill stroke" id="ellipse2905"/>
      <rect y="118.79791" x="-125.94167" height="1.0583333" width="1.5875" id="rect2895" style="fill:#383410;fill-opacity:1;stroke:none;stroke-width:0.529167;stroke-linecap:round;stroke-linejoin:round;stroke-miterlimit:4;stroke-dasharray:none;paint-order:markers fill stroke"/>
      <path id="rect2889" style="fill:#b4ac50;fill-opacity:1;stroke:none;stroke-width:0.529167;stroke-linecap:round;stroke-linejoin:round;stroke-miterlimit:4;stroke-dasharray:none;paint-order:markers fill stroke" d="m -125.67708,118.26876 c -0.29316,0 -0.52917,0.236 -0.52917,0.52916 v 0.52917 c 0,0.29316 0.23601,0.52917 0.52917,0.52917 v -0.52917 c 0,-0.14658 0.118,-0.26458 0.26458,-0.26458 h 0.52917 c 0.14658,0 0.26458,0.118 0.26458,0.26458 v 0.52917 c 0.29316,0 0.52917,-0.23601 0.52917,-0.52917 v -0.52917 c 0,-0.29316 -0.23601,-0.52916 -0.52917,-0.52916 z"/>
      <path id="rect2891" style="fill:#887c20;fill-opacity:1;stroke:none;stroke-width:0.529167;stroke-linecap:round;stroke-linejoin:round;stroke-miterlimit:4;stroke-dasharray:none;paint-order:markers fill stroke" d="m -125.68638,118.79792 c -0.28795,0 -0.51987,0.23192 -0.51987,0.51987 v 0.28319 c 0,0.28795 0.23192,0.51986 0.51987,0.51986 h 0.009 v -0.79375 c 0,-0.14658 0.118,-0.26458 0.26458,-0.26458 h 0.52917 c 0.14658,0 0.26458,0.118 0.26458,0.26458 v 0.79375 h 0.009 c 0.28795,0 0.51987,-0.23191 0.51987,-0.51986 v -0.28319 c -1e-5,-0.28795 -0.23193,-0.51987 -0.51988,-0.51987 z"/>
      <path d="m -125.14792,112.97709 a 2.1166782,2.1166666 0 0 0 -2.04948,1.5875 h -0.0672 v 0.52917 a 2.1166782,2.1166666 0 0 0 2.11666,2.11666 2.1166782,2.1166666 0 0 0 2.11667,-2.11666 v -0.52917 h -0.0672 a 2.1166782,2.1166666 0 0 0 -2.04949,-1.5875 z" style="fill:#2c4084;fill-opacity:1;stroke:none;stroke-width:0.513366;stroke-linecap:round;stroke-linejoin:round;stroke-miterlimit:4;stroke-dasharray:none;paint-order:markers fill stroke" id="ellipse1238"/>
      <ellipse style="fill:#808cf8;fill-opacity:1;stroke:none;stroke-width:0.513367;stroke-linecap:round;stroke-linejoin:round;stroke-miterlimit:4;stroke-dasharray:none;paint-order:markers fill stroke" id="ellipse2899" cx="-125.1479" cy="114.56459" rx="2.1166782" ry="2.1166666"/>
      <ellipse ry="1.3229184" rx="1.3229257" cy="114.56459" cx="-125.1479" id="ellipse2901" style="fill:#383850;fill-opacity:1;stroke:none;stroke-width:0.320855;stroke-linecap:round;stroke-linejoin:round;stroke-miterlimit:4;stroke-dasharray:none;paint-order:markers fill stroke"/>
      <path d="m -125.14792,113.24167 a 1.3229257,1.3229184 0 0 0 -1.32291,1.32292 1.3229257,1.3229184 0 0 0 0.061,0.39636 1.3229257,1.3229184 0 0 1 1.26193,-0.92553 1.3229257,1.3229184 0 0 1 1.26194,0.92605 1.3229257,1.3229184 0 0 0 0.061,-0.39688 1.3229257,1.3229184 0 0 0 -1.32292,-1.32292 z" style="fill:#2c2c40;fill-opacity:1;stroke:none;stroke-width:0.320855;stroke-linecap:round;stroke-linejoin:round;stroke-miterlimit:4;stroke-dasharray:none;paint-order:markers fill stroke" id="ellipse1274"/>
      <path d="m -124.75103,113.50625 c -0.36218,0 -0.66145,0.29928 -0.66145,0.66146 v 0.52917 c 0,0.36218 0.29927,0.66145 0.66145,0.66145 0.36218,0 0.66146,-0.29927 0.66146,-0.66145 v -0.52917 c 0,-0.36218 -0.29928,-0.66146 -0.66146,-0.66146 z" style="color:#000000;font-style:normal;font-variant:normal;font-weight:normal;font-stretch:normal;font-size:medium;line-height:normal;font-family:sans-serif;font-variant-ligatures:normal;font-variant-position:normal;font-variant-caps:normal;font-variant-numeric:normal;font-variant-alternates:normal;font-variant-east-asian:normal;font-feature-settings:normal;font-variation-settings:normal;text-indent:0;text-align:start;text-decoration:none;text-decoration-line:none;text-decoration-style:solid;text-decoration-color:#000000;letter-spacing:normal;word-spacing:normal;text-transform:none;writing-mode:lr-tb;direction:ltr;text-orientation:mixed;dominant-baseline:auto;baseline-shift:baseline;text-anchor:start;white-space:normal;shape-padding:0;shape-margin:0;inline-size:0;clip-rule:nonzero;display:inline;overflow:visible;visibility:visible;isolation:auto;mix-blend-mode:normal;color-interpolation:sRGB;color-interpolation-filters:linearRGB;solid-color:#000000;solid-opacity:1;vector-effect:none;fill:#2c2c40;fill-opacity:1;fill-rule:nonzero;stroke:none;stroke-width:0.529167;stroke-linecap:round;stroke-linejoin:round;stroke-miterlimit:4;stroke-dasharray:none;stroke-dashoffset:0;stroke-opacity:1;paint-order:markers fill stroke;color-rendering:auto;image-rendering:auto;shape-rendering:auto;text-rendering:auto;enable-background:accumulate;stop-color:#000000" id="path2786-6"/>
      <path id="path2779-3" style="color:#000000;font-style:normal;font-variant:normal;font-weight:normal;font-stretch:normal;font-size:medium;line-height:normal;font-family:sans-serif;font-variant-ligatures:normal;font-variant-position:normal;font-variant-caps:normal;font-variant-numeric:normal;font-variant-alternates:normal;font-variant-east-asian:normal;font-feature-settings:normal;font-variation-settings:normal;text-indent:0;text-align:start;text-decoration:none;text-decoration-line:none;text-decoration-style:solid;text-decoration-color:#000000;letter-spacing:normal;word-spacing:normal;text-transform:none;writing-mode:lr-tb;direction:ltr;text-orientation:mixed;dominant-baseline:auto;baseline-shift:baseline;text-anchor:start;white-space:normal;shape-padding:0;shape-margin:0;inline-size:0;clip-rule:nonzero;display:inline;overflow:visible;visibility:visible;isolation:auto;mix-blend-mode:normal;color-interpolation:sRGB;color-interpolation-filters:linearRGB;solid-color:#000000;solid-opacity:1;vector-effect:none;fill:#3c4060;fill-opacity:1;fill-rule:nonzero;stroke:none;stroke-width:0.529167;stroke-linecap:round;stroke-linejoin:round;stroke-miterlimit:4;stroke-dasharray:none;stroke-dashoffset:0;stroke-opacity:1;paint-order:markers fill stroke;color-rendering:auto;image-rendering:auto;shape-rendering:auto;text-rendering:auto;enable-background:accumulate;stop-color:#000000" d="m -124.75103,112.97708 c -0.36218,0 -0.66145,0.29928 -0.66145,0.66146 v 0.52917 c 0,0.36218 0.29927,0.66146 0.66145,0.66146 0.36218,0 0.66146,-0.29928 0.66146,-0.66146 v -0.52917 c 0,-0.36218 -0.29928,-0.66146 -0.66146,-0.66146 z"/>
      <path id="circle2395-4" style="mix-blend-mode:normal;fill:#606498;fill-opacity:1;stroke:none;stroke-width:1.05833;stroke-linecap:round;stroke-linejoin:round;stroke-miterlimit:4;stroke-dasharray:none;paint-order:markers fill stroke" d="m -124.75103,113.24167 a 0.39687497,0.39687497 0 0 0 -0.39687,0.39687 v 0.52917 a 0.39687497,0.39687497 0 0 0 0.39687,0.39687 0.39687497,0.39687497 0 0 0 0.39688,-0.39687 v -0.52917 a 0.39687497,0.39687497 0 0 0 -0.39688,-0.39687 z"/>
      <circle style="mix-blend-mode:normal;fill:#8c8cbc;fill-opacity:1;stroke:none;stroke-width:1.05833;stroke-linecap:round;stroke-linejoin:round;stroke-miterlimit:4;stroke-dasharray:none;paint-order:markers fill stroke" id="circle2399-6" cx="-124.75105" cy="113.63855" r="0.39687499"/>
      <circle r="0.13229166" cy="113.63855" cx="-124.75105" id="circle2401-9" style="mix-blend-mode:normal;fill:#101424;fill-opacity:1;stroke:none;stroke-width:0.352777;stroke-linecap:round;stroke-linejoin:round;stroke-miterlimit:4;stroke-dasharray:none;paint-order:markers fill stroke"/>
    </g>
  </g>
</svg>