<?xml version="1.0" ?><svg xmlns:dc="http://purl.org/dc/elements/1.1/" xmlns:cc="http://creativecommons.org/ns#" xmlns:rdf="http://www.w3.org/1999/02/22-rdf-syntax-ns#" xmlns:svg="http://www.w3.org/2000/svg" xmlns="http://www.w3.org/2000/svg" xmlns:sodipodi="http://sodipodi.sourceforge.net/DTD/sodipodi-0.dtd" xmlns:inkscape="http://www.inkscape.org/namespaces/inkscape" sodipodi:docname="old_tv.svg" inkscape:version="1.0 (4035a4fb49, 2020-05-01)" id="svg3893" version="1.1" viewBox="0 0 0.26458332 0.48214048" height="0.48214048mm" width="0.26458332mm">
  <defs id="defs3887"/>
  <sodipodi:namedview inkscape:window-maximized="1" inkscape:window-y="-8" inkscape:window-x="-8" inkscape:window-height="1057" inkscape:window-width="1920" showgrid="false" inkscape:document-rotation="0" inkscape:current-layer="layer1" inkscape:document-units="px" inkscape:cy="0.76204222" inkscape:cx="1.5760766" inkscape:zoom="179.2" inkscape:pageshadow="2" inkscape:pageopacity="0.0" borderopacity="1.0" bordercolor="#666666" pagecolor="#ffffff" id="base"/>
  <metadata id="metadata3890">
    <rdf:RDF>
      <cc:Work rdf:about="">
        <dc:format>image/svg+xml</dc:format>
        <dc:type rdf:resource="http://purl.org/dc/dcmitype/StillImage"/>
        <dc:title/>
      </cc:Work>
    </rdf:RDF>
  </metadata>
  <g transform="translate(-40.443452,-191.72622)" id="layer1" inkscape:groupmode="layer" inkscape:label="Layer 1">
    <g style="stroke-width:20" transform="matrix(0.04999999,0,0,0.04999999,38.922098,196.26971)" id="g2075">
      <rect ry="0.93459511" y="-84.402077" x="30.427082" height="3.1749847" width="5.2916665" id="rect19227-0-4-9-9-3-8-9-1-4-1" style="opacity:1;fill:#000000;fill-opacity:0.18;fill-rule:nonzero;stroke:none;stroke-width:78.794;stroke-linecap:round;stroke-linejoin:round;stroke-miterlimit:4;stroke-dasharray:none;stroke-dashoffset:0;stroke-opacity:1;paint-order:markers stroke fill;filter:url(#filter1957)"/>
      <path transform="scale(0.26458333)" d="m 119,-342 c -2.18141,0 -4,1.81859 -4,4 v 3 6 13 c 0,1.07893 0.43777,2.08513 1.14453,2.80469 a 2.0002,2.0002 0 0 0 3.24609,-0.57227 c 0.84426,-1.84851 3.048,-3.23213 5.60938,-3.23242 2.56138,2.9e-4 4.76512,1.38391 5.60938,3.23242 a 2.0002,2.0002 0 0 0 3.24609,0.57227 C 134.56223,-313.91487 135,-314.92107 135,-316 v -13 -6 -3 c 0,-2.18141 -1.81859,-4 -4,-4 z" style="color:#000000;font-style:normal;font-variant:normal;font-weight:normal;font-stretch:normal;font-size:medium;line-height:normal;font-family:sans-serif;font-variant-ligatures:normal;font-variant-position:normal;font-variant-caps:normal;font-variant-numeric:normal;font-variant-alternates:normal;font-variant-east-asian:normal;font-feature-settings:normal;font-variation-settings:normal;text-indent:0;text-align:start;text-decoration:none;text-decoration-line:none;text-decoration-style:solid;text-decoration-color:#000000;letter-spacing:normal;word-spacing:normal;text-transform:none;writing-mode:lr-tb;direction:ltr;text-orientation:mixed;dominant-baseline:auto;baseline-shift:baseline;text-anchor:start;white-space:normal;shape-padding:0;shape-margin:0;inline-size:0;clip-rule:nonzero;display:inline;overflow:visible;visibility:visible;isolation:auto;mix-blend-mode:normal;color-interpolation:sRGB;color-interpolation-filters:linearRGB;solid-color:#000000;solid-opacity:1;vector-effect:none;fill:#583018;fill-opacity:1;fill-rule:nonzero;stroke:none;stroke-width:79.9998;stroke-linecap:square;stroke-linejoin:round;stroke-miterlimit:4;stroke-dasharray:none;stroke-dashoffset:0;stroke-opacity:1;paint-order:markers fill stroke;color-rendering:auto;image-rendering:auto;shape-rendering:auto;text-rendering:auto;enable-background:accumulate;stop-color:#000000" id="path1956"/>
      <path sodipodi:nodetypes="ssscccssss" transform="scale(0.26458333)" d="m 119,-337.00001 c -1.108,0 -2,0.892 -2,2 V -316 c 0,0.54751 0.21822,1.04188 0.57227,1.40234 1.21414,-2.6584 4.15594,-4.40197 7.42773,-4.40234 3.27179,3.7e-4 6.21359,1.74394 7.42773,4.40234 C 132.78178,-314.95812 133,-315.45249 133,-316 v -19.00001 c 0,-1.108 -0.892,-2 -2,-2 z" style="opacity:1;fill:#885c38;fill-opacity:1;stroke:none;stroke-width:79.9998;stroke-linecap:square;stroke-miterlimit:4;stroke-dasharray:none;paint-order:markers fill stroke" id="rect1824"/>
      <path transform="scale(0.26458333)" d="m 120,-338 c -1.108,0 -2,0.892 -2,2 v 20.61523 a 7.9999996,7.0000009 0 0 1 7,-3.61523 7.9999996,7.0000009 0 0 1 7,3.61328 V -336 c 0,-1.108 -0.892,-2 -2,-2 z" style="opacity:1;fill:#6c3c1c;fill-opacity:1;stroke:none;stroke-width:79.9998;stroke-linecap:square;stroke-miterlimit:4;stroke-dasharray:none;paint-order:markers fill stroke" id="path1843"/>
      <rect style="opacity:1;fill:#d8905c;fill-opacity:1;stroke:none;stroke-width:21.1666;stroke-linecap:square;stroke-miterlimit:4;stroke-dasharray:none;paint-order:markers fill stroke" id="rect1799-0" width="4.2333317" height="3.4395857" x="30.956251" y="-89.958336" ry="0.52916592"/>
      <path transform="scale(0.26458333)" d="m 120,-338 c -1.108,0 -2,0.892 -2,2 v 8.72461 c 0.295,0.1711 0.63307,0.27539 1,0.27539 h 12 c 0.36693,0 0.705,-0.10429 1,-0.27539 V -336 c 0,-1.108 -0.892,-2 -2,-2 z" style="opacity:1;fill:#cc743c;fill-opacity:1;stroke:none;stroke-width:79.9998;stroke-linecap:square;stroke-miterlimit:4;stroke-dasharray:none;paint-order:markers fill stroke" id="rect1838"/>
      <path transform="scale(0.26458333)" d="m 124.99805,-340.99805 c -2.1973,0 -4.00196,1.80271 -4.00196,4 0,2.1973 1.80466,4.00196 4.00196,4.00196 2.19729,0 4,-1.80467 4,-4.00196 0,-2.19729 -1.8027,-4 -4,-4 z" style="color:#000000;font-style:normal;font-variant:normal;font-weight:normal;font-stretch:normal;font-size:medium;line-height:normal;font-family:sans-serif;font-variant-ligatures:normal;font-variant-position:normal;font-variant-caps:normal;font-variant-numeric:normal;font-variant-alternates:normal;font-variant-east-asian:normal;font-feature-settings:normal;font-variation-settings:normal;text-indent:0;text-align:start;text-decoration:none;text-decoration-line:none;text-decoration-style:solid;text-decoration-color:#000000;letter-spacing:normal;word-spacing:normal;text-transform:none;writing-mode:lr-tb;direction:ltr;text-orientation:mixed;dominant-baseline:auto;baseline-shift:baseline;text-anchor:start;white-space:normal;shape-padding:0;shape-margin:0;inline-size:0;clip-rule:nonzero;display:inline;overflow:visible;visibility:visible;isolation:auto;mix-blend-mode:normal;color-interpolation:sRGB;color-interpolation-filters:linearRGB;solid-color:#000000;solid-opacity:1;vector-effect:none;fill:#2c3050;fill-opacity:1;fill-rule:nonzero;stroke:none;stroke-width:40;stroke-linecap:square;stroke-linejoin:miter;stroke-miterlimit:4;stroke-dasharray:none;stroke-dashoffset:0;stroke-opacity:1;paint-order:markers fill stroke;color-rendering:auto;image-rendering:auto;shape-rendering:auto;text-rendering:auto;enable-background:accumulate;stop-color:#000000" id="path1997"/>
      <circle style="opacity:1;fill:#585880;fill-opacity:1;stroke:none;stroke-width:10.5833;stroke-linecap:square;stroke-miterlimit:4;stroke-dasharray:none;paint-order:markers fill stroke" id="circle1830" cx="33.072918" cy="-89.164589" r="0.79374999"/>
      <path transform="scale(0.26458333)" d="m 124.94922,-340 a 3,3 0 0 0 -2.93945,2.75586 A 3,3 0 0 1 124,-338 a 3,3 0 0 1 3,3 3,3 0 0 1 -0.01,0.24414 A 3,3 0 0 0 128,-337 a 3,3 0 0 0 -3,-3 3,3 0 0 0 -0.0508,0 z" style="opacity:1;fill:#686c90;fill-opacity:1;stroke:none;stroke-width:40;stroke-linecap:square;stroke-miterlimit:4;stroke-dasharray:none;paint-order:markers fill stroke" id="circle1963"/>
      <path transform="scale(0.26458333)" d="m 120.05469,-343.44531 c -0.63668,0 -1.28311,0.24797 -1.76758,0.73242 -0.96702,0.96702 -0.96703,2.56813 0,3.53516 l 1.50781,1.50976 c 0.96781,0.96781 2.56931,0.96781 3.53711,0 0.96781,-0.9678 0.96781,-2.5693 0,-3.53711 l -1.50976,-1.50781 c -0.48448,-0.48446 -1.13091,-0.73242 -1.76758,-0.73242 z m 9.89062,0 c -0.63667,0 -1.28311,0.24797 -1.76758,0.73242 l -1.50976,1.50781 c -0.96781,0.96781 -0.96781,2.56931 0,3.53711 0.9678,0.96781 2.5693,0.96781 3.53711,0 l 1.50781,-1.50976 c 0.96703,-0.96703 0.96702,-2.56814 0,-3.53516 -0.48447,-0.48445 -1.13091,-0.73242 -1.76758,-0.73242 z" style="color:#000000;font-style:normal;font-variant:normal;font-weight:normal;font-stretch:normal;font-size:medium;line-height:normal;font-family:sans-serif;font-variant-ligatures:normal;font-variant-position:normal;font-variant-caps:normal;font-variant-numeric:normal;font-variant-alternates:normal;font-variant-east-asian:normal;font-feature-settings:normal;font-variation-settings:normal;text-indent:0;text-align:start;text-decoration:none;text-decoration-line:none;text-decoration-style:solid;text-decoration-color:#000000;letter-spacing:normal;word-spacing:normal;text-transform:none;writing-mode:lr-tb;direction:ltr;text-orientation:mixed;dominant-baseline:auto;baseline-shift:baseline;text-anchor:start;white-space:normal;shape-padding:0;shape-margin:0;inline-size:0;clip-rule:nonzero;display:inline;overflow:visible;visibility:visible;isolation:auto;mix-blend-mode:normal;color-interpolation:sRGB;color-interpolation-filters:linearRGB;solid-color:#000000;solid-opacity:1;vector-effect:none;fill:#2c3050;fill-opacity:1;fill-rule:nonzero;stroke:none;stroke-width:40;stroke-linecap:square;stroke-linejoin:miter;stroke-miterlimit:4;stroke-dasharray:none;stroke-dashoffset:0;stroke-opacity:1;paint-order:markers fill stroke;color-rendering:auto;image-rendering:auto;shape-rendering:auto;text-rendering:auto;enable-background:accumulate;stop-color:#000000" id="path1975"/>
      <path transform="scale(0.26458333)" d="m 120.05469,-342.44531 c -0.38343,0 -0.76674,0.14565 -1.06055,0.43945 -0.58761,0.58761 -0.58761,1.53349 0,2.12109 l 1.50781,1.50977 c 0.58761,0.58761 1.53544,0.58761 2.12305,0 0.58761,-0.58761 0.58761,-1.53544 0,-2.12305 l -1.50977,-1.50781 c -0.2938,-0.2938 -0.67711,-0.43945 -1.06054,-0.43945 z m 9.89062,0 c -0.38343,0 -0.76674,0.14565 -1.06054,0.43945 l -1.50977,1.50781 c -0.58761,0.58761 -0.58761,1.53544 0,2.12305 0.58761,0.58761 1.53544,0.58761 2.12305,0 l 1.50781,-1.50977 c 0.58761,-0.5876 0.58761,-1.53348 0,-2.12109 -0.29381,-0.2938 -0.67712,-0.43945 -1.06055,-0.43945 z" style="opacity:1;fill:#585c80;fill-opacity:1;stroke:none;stroke-width:40;stroke-linecap:square;stroke-miterlimit:4;stroke-dasharray:none;paint-order:markers fill stroke" id="rect1834"/>
      <path style="color:#000000;font-style:normal;font-variant:normal;font-weight:normal;font-stretch:normal;font-size:medium;line-height:normal;font-family:sans-serif;font-variant-ligatures:normal;font-variant-position:normal;font-variant-caps:normal;font-variant-numeric:normal;font-variant-alternates:normal;font-variant-east-asian:normal;font-feature-settings:normal;font-variation-settings:normal;text-indent:0;text-align:start;text-decoration:none;text-decoration-line:none;text-decoration-style:solid;text-decoration-color:#000000;letter-spacing:normal;word-spacing:normal;text-transform:none;writing-mode:lr-tb;direction:ltr;text-orientation:mixed;dominant-baseline:auto;baseline-shift:baseline;text-anchor:start;white-space:normal;shape-padding:0;shape-margin:0;inline-size:0;clip-rule:nonzero;display:inline;overflow:visible;visibility:visible;opacity:1;isolation:auto;mix-blend-mode:normal;color-interpolation:sRGB;color-interpolation-filters:linearRGB;solid-color:#000000;solid-opacity:1;vector-effect:none;fill:#787ca8;fill-opacity:1;fill-rule:nonzero;stroke:none;stroke-width:10.5833;stroke-linecap:square;stroke-linejoin:miter;stroke-miterlimit:4;stroke-dasharray:none;stroke-dashoffset:0;stroke-opacity:1;paint-order:markers fill stroke;color-rendering:auto;image-rendering:auto;shape-rendering:auto;text-rendering:auto;enable-background:accumulate;stop-color:#000000" d="m 32.013672,-88.105469 c -0.581739,0 -1.056641,0.474902 -1.056641,1.056641 v 1.058594 c 0,0.581738 0.474902,1.058593 1.056641,1.058593 h 2.117187 c 0.581739,0 1.058594,-0.476854 1.058594,-1.058593 v -1.058594 c 0,-0.581739 -0.476856,-1.056641 -1.058594,-1.056641 z m 0,0.529297 h 2.117187 c 0.297732,0 0.529297,0.229611 0.529297,0.527344 v 1.058594 c 0,0.297733 -0.231565,0.529296 -0.529297,0.529296 h -2.117187 c -0.297733,0 -0.527344,-0.231563 -0.527344,-0.529296 v -1.058594 c 0,-0.297734 0.22961,-0.527344 0.527344,-0.527344 z" id="path2025"/>
      <path transform="scale(0.26458333)" d="m 120.99609,-332.99609 c -1.19824,0 -2.26287,0.54374 -2.99609,1.38476 v 9.22071 c 0.73322,0.84301 1.79785,1.38867 2.99609,1.38867 h 8.00196 c 1.19824,0 2.26673,-0.54566 3.00195,-1.38867 v -9.22071 c -0.73522,-0.84102 -1.80371,-1.38476 -3.00195,-1.38476 z m 0,2 h 8.00196 c 1.12528,0 2,0.86689 2,1.99218 v 4.00196 c 0,1.12529 -0.87472,2 -2,2 h -8.00196 c -1.12529,0 -1.99218,-0.87471 -1.99218,-2 v -4.00196 c 0,-1.12529 0.86689,-1.99218 1.99218,-1.99218 z" style="opacity:1;fill:#585c90;fill-opacity:1;stroke:none;stroke-width:79.9998;stroke-linecap:square;stroke-miterlimit:4;stroke-dasharray:none;paint-order:markers fill stroke" id="path2034"/>
      <path style="color:#000000;font-style:normal;font-variant:normal;font-weight:normal;font-stretch:normal;font-size:medium;line-height:normal;font-family:sans-serif;font-variant-ligatures:normal;font-variant-position:normal;font-variant-caps:normal;font-variant-numeric:normal;font-variant-alternates:normal;font-variant-east-asian:normal;font-feature-settings:normal;font-variation-settings:normal;text-indent:0;text-align:start;text-decoration:none;text-decoration-line:none;text-decoration-style:solid;text-decoration-color:#000000;letter-spacing:normal;word-spacing:normal;text-transform:none;writing-mode:lr-tb;direction:ltr;text-orientation:mixed;dominant-baseline:auto;baseline-shift:baseline;text-anchor:start;white-space:normal;shape-padding:0;shape-margin:0;inline-size:0;clip-rule:nonzero;display:inline;overflow:visible;visibility:visible;opacity:1;isolation:auto;mix-blend-mode:normal;color-interpolation:sRGB;color-interpolation-filters:linearRGB;solid-color:#000000;solid-opacity:1;vector-effect:none;fill:#080824;fill-opacity:1;fill-rule:nonzero;stroke:none;stroke-width:10.5833;stroke-linecap:square;stroke-linejoin:miter;stroke-miterlimit:4;stroke-dasharray:none;stroke-dashoffset:0;stroke-opacity:1;paint-order:markers fill stroke;color-rendering:auto;image-rendering:auto;shape-rendering:auto;text-rendering:auto;enable-background:accumulate;stop-color:#000000" d="m 32.01458,-87.841667 h 2.116672 c 0.439735,0 0.793747,0.354011 0.793747,0.793747 v 1.058344 c 0,0.439736 -0.354012,0.793748 -0.793747,0.793748 H 32.01458 c -0.439736,0 -0.793747,-0.354012 -0.793747,-0.793748 v -1.058344 c 0,-0.439736 0.354011,-0.793747 0.793747,-0.793747 z" id="path2023"/>
      <path transform="scale(0.26458333)" d="m 121.57227,-330.99609 c -1.42457,0 -2.57227,1.14574 -2.57227,2.57031 v 2.85156 c 0,0.0255 0.007,0.049 0.008,0.0742 0.04,-1.3891 1.16534,-2.49805 2.56446,-2.49805 h 6.85546 c 1.39912,0 2.52449,1.10895 2.56446,2.49805 7.2e-4,-0.0253 0.008,-0.0488 0.008,-0.0742 v -2.85156 c 0,-1.42457 -1.1477,-2.57031 -2.57227,-2.57031 z" style="color:#000000;font-style:normal;font-variant:normal;font-weight:normal;font-stretch:normal;font-size:medium;line-height:normal;font-family:sans-serif;font-variant-ligatures:normal;font-variant-position:normal;font-variant-caps:normal;font-variant-numeric:normal;font-variant-alternates:normal;font-variant-east-asian:normal;font-feature-settings:normal;font-variation-settings:normal;text-indent:0;text-align:start;text-decoration:none;text-decoration-line:none;text-decoration-style:solid;text-decoration-color:#000000;letter-spacing:normal;word-spacing:normal;text-transform:none;writing-mode:lr-tb;direction:ltr;text-orientation:mixed;dominant-baseline:auto;baseline-shift:baseline;text-anchor:start;white-space:normal;shape-padding:0;shape-margin:0;inline-size:0;clip-rule:nonzero;display:inline;overflow:visible;visibility:visible;opacity:1;isolation:auto;mix-blend-mode:normal;color-interpolation:sRGB;color-interpolation-filters:linearRGB;solid-color:#000000;solid-opacity:1;vector-effect:none;fill:#3c4870;fill-opacity:1;fill-rule:nonzero;stroke:none;stroke-width:40;stroke-linecap:square;stroke-linejoin:miter;stroke-miterlimit:4;stroke-dasharray:none;stroke-dashoffset:0;stroke-opacity:1;paint-order:markers fill stroke;color-rendering:auto;image-rendering:auto;shape-rendering:auto;text-rendering:auto;enable-background:accumulate;stop-color:#000000" id="path2029"/>
    </g>
  </g>
</svg>