<?xml version="1.0" encoding="UTF-8" standalone="no"?>
<svg
   width="0.26458335mm"
   height="0.4630152mm"
   viewBox="0 0 0.26458335 0.4630152"
   version="1.1"
   id="svg3893"
   inkscape:version="1.1 (c68e22c387, 2021-05-23)"
   sodipodi:docname="sand_bucket.svg"
   xmlns:inkscape="http://www.inkscape.org/namespaces/inkscape"
   xmlns:sodipodi="http://sodipodi.sourceforge.net/DTD/sodipodi-0.dtd"
   xmlns="http://www.w3.org/2000/svg"
   xmlns:svg="http://www.w3.org/2000/svg"
   xmlns:rdf="http://www.w3.org/1999/02/22-rdf-syntax-ns#"
   xmlns:cc="http://creativecommons.org/ns#"
   xmlns:dc="http://purl.org/dc/elements/1.1/">
  <defs
     id="defs3887" />
  <sodipodi:namedview
     id="base"
     pagecolor="#ffffff"
     bordercolor="#666666"
     borderopacity="1.0"
     inkscape:pageopacity="0.0"
     inkscape:pageshadow="2"
     inkscape:zoom="126.71353"
     inkscape:cx="0.44983356"
     inkscape:cy="-0.43799583"
     inkscape:document-units="px"
     inkscape:current-layer="layer1"
     inkscape:document-rotation="0"
     showgrid="false"
     inkscape:pagecheckerboard="0"
     inkscape:window-width="1920"
     inkscape:window-height="1057"
     inkscape:window-x="-8"
     inkscape:window-y="-8"
     inkscape:window-maximized="1" />
  <metadata
     id="metadata3890">
    <rdf:RDF>
      <cc:Work
         rdf:about="">
        <dc:format>image/svg+xml</dc:format>
        <dc:type
           rdf:resource="http://purl.org/dc/dcmitype/StillImage" />
      </cc:Work>
    </rdf:RDF>
  </metadata>
  <g
     inkscape:label="Layer 1"
     inkscape:groupmode="layer"
     id="layer1"
     transform="translate(-164.41962,-134.46505)">
    <g
       id="g100771"
       transform="matrix(0.04999959,0,0,0.04999959,118.64708,138.81741)"
       style="stroke-width:20.0002">
      <ellipse
         style="fill:#000000;fill-opacity:0.18;fill-rule:nonzero;stroke:none;stroke-width:21.1668;stroke-linecap:round;stroke-linejoin:round;stroke-miterlimit:4;stroke-dasharray:none;stroke-dashoffset:0;stroke-opacity:1;paint-order:markers fill stroke"
         id="ellipse3144-2-1-6-2"
         cx="918.10419"
         cy="-80.433327"
         rx="2.6458435"
         ry="2.6458247" />
      <path
         id="path92718"
         style="color:#000000;fill:#78044c;fill-opacity:1;stroke-width:21.1668;stroke-linecap:round;stroke-linejoin:round;-inkscape-stroke:none;paint-order:markers fill stroke"
         d="m 917.31041,-87.047882 c -1.0169,0 -1.85209,0.835184 -1.85209,1.852083 v 1.719792 0.79375 c 0,0.379947 0.10549,0.734457 0.26459,1.057299 v 0.001 c 0,1.257758 1.0928,2.248892 2.38125,2.248958 1.28844,-6.6e-5 2.38125,-0.9912 2.38125,-2.248958 v -0.001 c 0.15909,-0.322842 0.26458,-0.677352 0.26458,-1.057299 v -0.79375 -1.719792 c 0,-1.016899 -0.83519,-1.852083 -1.85208,-1.852083 z" />
      <path
         id="ellipse71558"
         style="opacity:1;fill:#8c1848;fill-opacity:1;stroke:none;stroke-width:21.1668;stroke-linecap:round;stroke-linejoin:round;stroke-miterlimit:4;stroke-dasharray:none;paint-order:markers fill stroke"
         d="m 916.25207,-82.302435 v 0.678511 c 0,0.949778 0.82918,1.719739 1.85209,1.719792 1.0229,-5.3e-5 1.85208,-0.770014 1.85208,-1.719792 v -0.678511 z"
         sodipodi:nodetypes="cssscc" />
      <path
         id="ellipse71556"
         style="opacity:1;fill:#b01c58;fill-opacity:1;stroke:none;stroke-width:21.1668;stroke-linecap:round;stroke-linejoin:round;stroke-miterlimit:4;stroke-dasharray:none;paint-order:markers fill stroke"
         d="m 915.98749,-83.476007 v 0.79375 c 0,1.095901 0.94766,1.984322 2.11667,1.984375 1.169,-5.3e-5 2.11666,-0.888474 2.11666,-1.984375 v -0.79375 z"
         sodipodi:nodetypes="cssscc" />
      <path
         id="rect71562"
         style="opacity:1;fill:#e0d858;fill-opacity:1;stroke:none;stroke-width:21.1668;stroke-linecap:round;stroke-linejoin:round;stroke-miterlimit:4;stroke-dasharray:none;paint-order:markers fill stroke"
         d="m 917.31041,-86.518715 c -0.7329,0 -1.32292,0.59002 -1.32292,1.322916 l 2e-5,1.719794 h 0.79375 l -2e-5,-1.719794 c 0,-0.293158 0.23601,-0.529166 0.52917,-0.529166 h 1.5875 c 0.29315,0 0.52916,0.236008 0.52916,0.529166 l 3e-5,1.719794 h 0.79375 l -3e-5,-1.719794 c 0,-0.732896 -0.59002,-1.322916 -1.32291,-1.322916 z"
         sodipodi:nodetypes="ssccssssccsss" />
      <path
         id="path73281"
         style="opacity:1;fill:#aca418;fill-opacity:1;stroke:none;stroke-width:21.1668;stroke-linecap:round;stroke-linejoin:round;stroke-miterlimit:4;stroke-dasharray:none;paint-order:markers fill stroke"
         d="m 917.31041,-85.989549 c -0.29316,0 -0.52917,0.236009 -0.52917,0.529167 v 0.264583 c 0,-0.293158 0.23601,-0.529166 0.52917,-0.529166 h 1.5875 c 0.29315,0 0.52916,0.236008 0.52916,0.529166 v -0.264583 c 0,-0.293158 -0.23601,-0.529167 -0.52916,-0.529167 z" />
      <ellipse
         style="opacity:1;fill:#d8206c;fill-opacity:1;stroke:none;stroke-width:21.1668;stroke-linecap:round;stroke-linejoin:round;stroke-miterlimit:4;stroke-dasharray:none;paint-order:markers fill stroke"
         id="ellipse71550"
         cx="918.10406"
         cy="-83.476006"
         rx="2.1167707"
         ry="1.9843756" />
      <path
         id="ellipse71552"
         style="opacity:1;fill:#940028;fill-opacity:1;stroke:none;stroke-width:21.1668;stroke-linecap:round;stroke-linejoin:round;stroke-miterlimit:4;stroke-dasharray:none;paint-order:markers fill stroke"
         d="m 918.10416,-84.716242 a 1.3229231,1.2401797 0 0 0 -1.32292,1.240235 1.3229231,1.2401797 0 0 0 0.0682,0.390673 1.3229231,1.2401797 0 0 1 1.25471,-0.849043 1.3229231,1.2401797 0 0 1 1.2547,0.848527 1.3229231,1.2401797 0 0 0 0.0682,-0.390157 1.3229231,1.2401797 0 0 0 -1.32291,-1.240235 z" />
      <path
         id="ellipse82562"
         style="opacity:1;fill:#e49c58;fill-opacity:1;stroke:none;stroke-width:21.1668;stroke-linecap:round;stroke-linejoin:round;stroke-miterlimit:4;stroke-dasharray:none;paint-order:markers fill stroke"
         d="m 918.10416,-83.934377 a 1.3229231,1.2401797 0 0 0 -1.25471,0.849043 1.3229231,1.2401797 0 0 0 1.25471,0.849561 1.3229231,1.2401797 0 0 0 1.2547,-0.850077 1.3229231,1.2401797 0 0 0 -1.2547,-0.848527 z" />
    </g>
  </g>
</svg>
