<?xml version="1.0" encoding="UTF-8" standalone="no"?>
<svg
   xmlns:dc="http://purl.org/dc/elements/1.1/"
   xmlns:cc="http://creativecommons.org/ns#"
   xmlns:rdf="http://www.w3.org/1999/02/22-rdf-syntax-ns#"
   xmlns:svg="http://www.w3.org/2000/svg"
   xmlns="http://www.w3.org/2000/svg"
   xmlns:sodipodi="http://sodipodi.sourceforge.net/DTD/sodipodi-0.dtd"
   xmlns:inkscape="http://www.inkscape.org/namespaces/inkscape"
   sodipodi:docname="scrap_cube.svg"
   inkscape:version="1.0 (4035a4fb49, 2020-05-01)"
   id="svg3893"
   version="1.1"
   viewBox="0 0 0.26458332 0.47624466"
   height="0.47624466mm"
   width="0.26458332mm">
  <defs
     id="defs3887" />
  <sodipodi:namedview
     inkscape:window-maximized="1"
     inkscape:window-y="-8"
     inkscape:window-x="-8"
     inkscape:window-height="1057"
     inkscape:window-width="1920"
     showgrid="false"
     inkscape:document-rotation="0"
     inkscape:current-layer="layer1"
     inkscape:document-units="px"
     inkscape:cy="1.3054228"
     inkscape:cx="1.3508158"
     inkscape:zoom="126.71353"
     inkscape:pageshadow="2"
     inkscape:pageopacity="0.0"
     borderopacity="1.0"
     bordercolor="#666666"
     pagecolor="#ffffff"
     id="base" />
  <metadata
     id="metadata3890">
    <rdf:RDF>
      <cc:Work
         rdf:about="">
        <dc:format>image/svg+xml</dc:format>
        <dc:type
           rdf:resource="http://purl.org/dc/dcmitype/StillImage" />
        <dc:title></dc:title>
      </cc:Work>
    </rdf:RDF>
  </metadata>
  <g
     transform="translate(-113.77081,-131.30893)"
     id="layer1"
     inkscape:groupmode="layer"
     inkscape:label="Layer 1">
    <g
       transform="matrix(0.04999951,0,0,0.04999951,79.176878,135.2115)"
       id="g3793">
      <rect
         ry="0.93459511"
         y="-71.70208"
         x="691.88544"
         height="3.1749845"
         width="5.2916713"
         id="rect19227-0-4-8-8-0"
         style="opacity:1;fill:#000000;fill-opacity:0.180392;fill-rule:nonzero;stroke:none;stroke-width:3.93973;stroke-linecap:round;stroke-linejoin:round;stroke-miterlimit:4;stroke-dasharray:none;stroke-dashoffset:0;stroke-opacity:1;paint-order:markers stroke fill;filter:url(#filter1957)" />
      <path
         id="path3617"
         style="color:#000000;font-style:normal;font-variant:normal;font-weight:normal;font-stretch:normal;font-size:medium;line-height:normal;font-family:sans-serif;font-variant-ligatures:normal;font-variant-position:normal;font-variant-caps:normal;font-variant-numeric:normal;font-variant-alternates:normal;font-variant-east-asian:normal;font-feature-settings:normal;font-variation-settings:normal;text-indent:0;text-align:start;text-decoration:none;text-decoration-line:none;text-decoration-style:solid;text-decoration-color:#000000;letter-spacing:normal;word-spacing:normal;text-transform:none;writing-mode:lr-tb;direction:ltr;text-orientation:mixed;dominant-baseline:auto;baseline-shift:baseline;text-anchor:start;white-space:normal;shape-padding:0;shape-margin:0;inline-size:0;clip-rule:nonzero;display:inline;overflow:visible;visibility:visible;isolation:auto;mix-blend-mode:normal;color-interpolation:sRGB;color-interpolation-filters:linearRGB;solid-color:#000000;solid-opacity:1;vector-effect:none;fill:#283060;fill-opacity:1;fill-rule:nonzero;stroke:none;stroke-width:1.05833;stroke-linecap:butt;stroke-linejoin:round;stroke-miterlimit:4;stroke-dasharray:none;stroke-dashoffset:0;stroke-opacity:1;color-rendering:auto;image-rendering:auto;shape-rendering:auto;text-rendering:auto;enable-background:accumulate;stop-color:#000000"
         d="m 692.94375,-78.052082 c -0.17693,1e-5 -0.34213,0.08843 -0.44029,0.235643 l -0.52917,0.79375 c -0.0579,0.08692 -0.0889,0.189055 -0.0889,0.293523 v 6.085417 c 2e-5,0.292237 0.23693,0.529137 0.52917,0.529167 h 4.23333 c 0.29223,-3e-5 0.52914,-0.23693 0.52917,-0.529167 v -6.879167 c -3e-5,-0.292237 -0.23694,-0.529137 -0.52917,-0.529166 z"
         sodipodi:nodetypes="csscccccccc" />
      <path
         style="fill:#303c70;fill-opacity:1;stroke:none;stroke-width:0.264583px;stroke-linecap:butt;stroke-linejoin:miter;stroke-opacity:1"
         d="m 692.41459,-70.643749 h 2.64584 l 0.26458,-0.529167 0.52917,0.529167 h 0.79375 v -4.497918 l -4.23334,0.79375 z"
         id="path3487"
         sodipodi:nodetypes="cccccccc" />
      <path
         style="fill:#404c84;fill-opacity:1;stroke:none;stroke-width:0.264583px;stroke-linecap:butt;stroke-linejoin:miter;stroke-opacity:1"
         d="m 692.41459,-72.495832 1.05834,0.264583 1.05833,0.79375 -1.5875,0.79375 -0.52917,-0.529167 z"
         id="path3489" />
      <path
         id="path3491"
         style="fill:#3c447c;fill-opacity:1;stroke:none;stroke-width:0.264583px;stroke-linecap:butt;stroke-linejoin:miter;stroke-opacity:1"
         d="m 696.11875,-73.289582 -1.05833,0.529166 -0.26458,1.852084 0.47646,-0.158647 0.0527,-0.105937 0.0661,0.06615 0.19844,-0.06615 1.05833,-0.79375 v -0.79375 z" />
      <path
         style="fill:#5864ac;fill-opacity:1;stroke:none;stroke-width:0.264583px;stroke-linecap:butt;stroke-linejoin:miter;stroke-opacity:1"
         d="m 692.41458,-73.289582 4.23333,-0.264584 2e-5,-3.175001 -2.11667,-0.79375 h -1.32292 L 692.41459,-76.2 Z"
         id="path3495"
         sodipodi:nodetypes="ccccccc" />
      <path
         style="fill:#808cc8;fill-opacity:1;stroke:none;stroke-width:0.264583px;stroke-linecap:butt;stroke-linejoin:miter;stroke-opacity:1"
         d="m 692.41459,-73.554166 h 4.23334 v 0.264584 h -2.38125 l -0.52917,0.264583 -0.26458,-0.264583 h -1.05834 z"
         id="path3493" />
      <path
         id="path3514"
         style="fill:#3c487c;fill-opacity:1;stroke:none;stroke-width:0.264583px;stroke-linecap:butt;stroke-linejoin:miter;stroke-opacity:1"
         d="m 696.11875,-73.289582 -1.05833,0.529166 -0.0698,0.48731 1.1281,-0.751893 0.52917,0.529167 v -0.264584 z" />
      <path
         style="fill:#707cc8;fill-opacity:1;stroke:none;stroke-width:0.264583px;stroke-linecap:butt;stroke-linejoin:miter;stroke-opacity:1"
         d="m 692.41459,-74.083332 0.52917,0.529166 0.79375,-0.79375 h 2.11667 l 0.26458,-0.529166 -1.05833,-1.058334 -2.11667,0.264584 -0.52917,0.529166 z"
         id="path3584" />
      <path
         id="path3588"
         style="fill:#808cd0;fill-opacity:1;stroke:none;stroke-width:0.264583px;stroke-linecap:butt;stroke-linejoin:miter;stroke-opacity:1"
         d="m 695.06042,-75.935416 -2.11667,0.264584 -0.52916,0.529166 v 0.529167 l 0.52916,-0.529167 2.11667,-0.264583 0.88212,0.882115 0.17621,-0.352948 z" />
      <path
         id="path3567"
         style="color:#000000;font-style:normal;font-variant:normal;font-weight:normal;font-stretch:normal;font-size:medium;line-height:normal;font-family:sans-serif;font-variant-ligatures:normal;font-variant-position:normal;font-variant-caps:normal;font-variant-numeric:normal;font-variant-alternates:normal;font-variant-east-asian:normal;font-feature-settings:normal;font-variation-settings:normal;text-indent:0;text-align:start;text-decoration:none;text-decoration-line:none;text-decoration-style:solid;text-decoration-color:#000000;letter-spacing:normal;word-spacing:normal;text-transform:none;writing-mode:lr-tb;direction:ltr;text-orientation:mixed;dominant-baseline:auto;baseline-shift:baseline;text-anchor:start;white-space:normal;shape-padding:0;shape-margin:0;inline-size:0;clip-rule:nonzero;display:inline;overflow:visible;visibility:visible;isolation:auto;mix-blend-mode:normal;color-interpolation:sRGB;color-interpolation-filters:linearRGB;solid-color:#000000;solid-opacity:1;vector-effect:none;fill:#50589c;fill-opacity:1;fill-rule:nonzero;stroke:none;stroke-width:0.529167;stroke-linecap:butt;stroke-linejoin:round;stroke-miterlimit:4;stroke-dasharray:none;stroke-dashoffset:0;stroke-opacity:1;color-rendering:auto;image-rendering:auto;shape-rendering:auto;text-rendering:auto;enable-background:accumulate;stop-color:#000000"
         d="m 696.2562,-76.199483 c -0.005,2.1e-5 -0.0103,1.93e-4 -0.0156,5.29e-4 -0.10025,0.0056 -0.18872,0.06743 -0.22839,0.159679 l -0.72657,1.691886 h -0.75395 c -0.14613,-5.29e-4 -0.26506,0.117422 -0.26565,0.263551 v 0.529167 c 0,0.146936 0.1187,0.266189 0.26565,0.265615 h 1.32249 c 0.10607,2.65e-4 0.20206,-0.06274 0.24392,-0.160197 l 0.54983,-1.284674 v -1.116211 l -0.18034,-0.243398 c -0.0499,-0.06658 -0.12819,-0.105817 -0.21138,-0.105937 z"
         sodipodi:nodetypes="sccccccccccccs" />
      <path
         style="fill:#7c8ce0;fill-opacity:1;stroke:none;stroke-width:0.264583px;stroke-linecap:butt;stroke-linejoin:miter;stroke-opacity:1"
         d="m 694.53126,-74.083332 v 0.529166 h 1.32292 l 0.79375,-1.852083 -0.39321,-0.529167 -0.79375,1.852084 z"
         id="path3554"
         sodipodi:nodetypes="ccccccc" />
      <path
         id="path3558"
         style="fill:#98a4e8;fill-opacity:1;stroke:none;stroke-width:0.264583px;stroke-linecap:butt;stroke-linejoin:miter;stroke-opacity:1"
         d="m 696.25467,-75.935416 -0.12145,0.283705 0.39429,0.526066 0.12041,-0.280604 z m -1.72342,1.852084 v 0.264583 h 0.79375 l 0.11316,-0.264583 z" />
      <path
         style="fill:#707ccc;fill-opacity:1;stroke:none;stroke-width:0.264583px;stroke-linecap:butt;stroke-linejoin:miter;stroke-opacity:1"
         d="m 693.20834,-77.522917 1.05834,1.058333 -0.52917,2e-6 -0.52917,0.529166 -0.79375,-0.264583 v -0.529167 l 0.52917,-0.79375 z"
         id="path3591"
         sodipodi:nodetypes="cccccccc" />
      <path
         style="fill:#7c88d0;fill-opacity:1;stroke:none;stroke-width:0.264583px;stroke-linecap:butt;stroke-linejoin:miter;stroke-opacity:1"
         d="m 692.94376,-77.522916 1.05833,1.058334 h 0.52917 l -1.05833,-1.058334 z"
         id="path3593" />
      <path
         id="path3538"
         style="color:#000000;font-style:normal;font-variant:normal;font-weight:normal;font-stretch:normal;font-size:medium;line-height:normal;font-family:sans-serif;font-variant-ligatures:normal;font-variant-position:normal;font-variant-caps:normal;font-variant-numeric:normal;font-variant-alternates:normal;font-variant-east-asian:normal;font-feature-settings:normal;font-variation-settings:normal;text-indent:0;text-align:start;text-decoration:none;text-decoration-line:none;text-decoration-style:solid;text-decoration-color:#000000;letter-spacing:normal;word-spacing:normal;text-transform:none;writing-mode:lr-tb;direction:ltr;text-orientation:mixed;dominant-baseline:auto;baseline-shift:baseline;text-anchor:start;white-space:normal;shape-padding:0;shape-margin:0;inline-size:0;clip-rule:nonzero;display:inline;overflow:visible;visibility:visible;isolation:auto;mix-blend-mode:normal;color-interpolation:sRGB;color-interpolation-filters:linearRGB;solid-color:#000000;solid-opacity:1;vector-effect:none;fill:#50589c;fill-opacity:1;fill-rule:nonzero;stroke:none;stroke-width:0.529167;stroke-linecap:butt;stroke-linejoin:round;stroke-miterlimit:4;stroke-dasharray:none;stroke-dashoffset:0;stroke-opacity:1;color-rendering:auto;image-rendering:auto;shape-rendering:auto;text-rendering:auto;enable-background:accumulate;stop-color:#000000"
         d="m 693.73594,-76.729166 a 0.26460981,0.26460981 0 0 0 -0.0164,5.29e-4 0.26460981,0.26460981 0 0 0 -0.12917,0.04289 l -0.79272,0.529685 a 0.26460981,0.26460981 0 0 0 -0.10957,0.284737 l 0.26356,1.058849 a 0.26460981,0.26460981 0 0 0 0.2558,0.198954 h 1.05883 a 0.26460981,0.26460981 0 0 0 0.25789,-0.198954 l 0.26355,-1.058849 a 0.26460981,0.26460981 0 0 0 -0.10956,-0.284737 l -0.79478,-0.529685 a 0.26460981,0.26460981 0 0 0 -0.14743,-0.04342 z" />
      <path
         style="fill:#7c8ce0;fill-opacity:1;stroke:none;stroke-width:0.264583px;stroke-linecap:butt;stroke-linejoin:miter;stroke-opacity:1"
         d="m 692.94376,-75.935416 0.26458,1.058334 h 1.05834 l 0.26458,-1.058334 -0.79375,-0.529166 z"
         id="path3518" />
      <path
         id="path3550"
         style="fill:#98a4e8;fill-opacity:1;stroke:none;stroke-width:0.264583px;stroke-linecap:butt;stroke-linejoin:miter;stroke-opacity:1"
         d="m 693.7375,-76.464582 -0.29892,0.199286 0.85989,0.573093 -0.23024,0.815121 h 0.19844 l 0.26458,-1.058334 z"
         sodipodi:nodetypes="ccccccc" />
      <path
         id="path3526"
         style="color:#000000;font-style:normal;font-variant:normal;font-weight:normal;font-stretch:normal;font-size:medium;line-height:normal;font-family:sans-serif;font-variant-ligatures:normal;font-variant-position:normal;font-variant-caps:normal;font-variant-numeric:normal;font-variant-alternates:normal;font-variant-east-asian:normal;font-feature-settings:normal;font-variation-settings:normal;text-indent:0;text-align:start;text-decoration:none;text-decoration-line:none;text-decoration-style:solid;text-decoration-color:#000000;letter-spacing:normal;word-spacing:normal;text-transform:none;writing-mode:lr-tb;direction:ltr;text-orientation:mixed;dominant-baseline:auto;baseline-shift:baseline;text-anchor:start;white-space:normal;shape-padding:0;shape-margin:0;inline-size:0;clip-rule:nonzero;display:inline;overflow:visible;visibility:visible;isolation:auto;mix-blend-mode:normal;color-interpolation:sRGB;color-interpolation-filters:linearRGB;solid-color:#000000;solid-opacity:1;vector-effect:none;fill:#505888;fill-opacity:1;fill-rule:nonzero;stroke:none;stroke-width:0.743457;stroke-linecap:butt;stroke-linejoin:miter;stroke-miterlimit:4;stroke-dasharray:none;stroke-dashoffset:0;stroke-opacity:1;color-rendering:auto;image-rendering:auto;shape-rendering:auto;text-rendering:auto;enable-background:accumulate;stop-color:#000000"
         d="m 693.73697,-75.944277 -0.34002,0.200382 0.12092,0.426605 h 0.43976 l 0.12094,-0.426605 z" />
      <path
         style="fill:#707ccc;fill-opacity:1;stroke:none;stroke-width:0.264583px;stroke-linecap:butt;stroke-linejoin:miter;stroke-opacity:1"
         d="m 694.53126,-77.522916 -0.26458,1.058332 0.79375,0.264584 0.52916,0.264584 1.05834,-0.529166 v -1.058334 l -0.79375,-1e-6 -0.26459,0.264583 -0.53743,-0.264582 z"
         id="path3595"
         sodipodi:nodetypes="cccccccccc" />
      <path
         id="path3600"
         style="fill:#7c88d0;fill-opacity:1;stroke:none;stroke-width:0.264583px;stroke-linecap:butt;stroke-linejoin:miter;stroke-opacity:1"
         d="m 694.53125,-77.522916 -0.26458,1.058334 0.11316,0.03772 0.41601,-0.831474 0.47336,-0.157613 -0.21704,-0.106971 z m 1.32292,0 -0.0661,0.06615 0.59532,0.198438 0.26458,0.396875 v -0.661459 z" />
    </g>
  </g>
</svg>
