<?xml version="1.0" ?><!-- Created with Inkscape (http://www.inkscape.org/) --><svg xmlns:dc="http://purl.org/dc/elements/1.1/" xmlns:cc="http://creativecommons.org/ns#" xmlns:rdf="http://www.w3.org/1999/02/22-rdf-syntax-ns#" xmlns:svg="http://www.w3.org/2000/svg" xmlns="http://www.w3.org/2000/svg" xmlns:sodipodi="http://sodipodi.sourceforge.net/DTD/sodipodi-0.dtd" xmlns:inkscape="http://www.inkscape.org/namespaces/inkscape" width="0.26458332mm" height="0.28741691mm" viewBox="0 0 0.26458332 0.28741691" version="1.1" id="svg18467" inkscape:version="0.92.3 (2405546, 2018-03-11)" sodipodi:docname="skull.svg">
  <defs id="defs18461"/>
  <sodipodi:namedview id="base" pagecolor="#ffffff" bordercolor="#666666" borderopacity="1.0" inkscape:pageopacity="0.0" inkscape:pageshadow="2" inkscape:zoom="256" inkscape:cx="-0.46433745" inkscape:cy="0.46617052" inkscape:document-units="mm" inkscape:current-layer="layer1" showgrid="false" inkscape:window-width="1920" inkscape:window-height="1057" inkscape:window-x="-8" inkscape:window-y="-8" inkscape:window-maximized="1"/>
  <metadata id="metadata18464">
    <rdf:RDF>
      <cc:Work rdf:about="">
        <dc:format>image/svg+xml</dc:format>
        <dc:type rdf:resource="http://purl.org/dc/dcmitype/StillImage"/>
        <dc:title/>
      </cc:Work>
    </rdf:RDF>
  </metadata>
  <g inkscape:label="Layer 1" inkscape:groupmode="layer" id="layer1" transform="translate(-86.828878,-86.522948)">
    <g id="g14957" transform="matrix(0.04808023,0,0,0.04808023,103.96419,129.88007)">
      <rect style="opacity:1;fill:#000000;fill-opacity:0.18000004;fill-rule:nonzero;stroke:none;stroke-width:4.05429649;stroke-linecap:round;stroke-linejoin:round;stroke-miterlimit:4;stroke-dasharray:none;stroke-dashoffset:0;stroke-opacity:1;paint-order:markers stroke fill;filter:url(#filter1957)" id="rect14939" width="5.4455767" height="5.4933634" x="-356.38998" y="-901.28162" ry="2.7227886"/>
      <path inkscape:connector-curvature="0" style="opacity:1;fill:#e0ccb5;fill-opacity:1;fill-rule:nonzero;stroke:#663b19;stroke-width:0.89999998;stroke-linecap:round;stroke-linejoin:miter;stroke-miterlimit:4;stroke-dasharray:none;stroke-dashoffset:0;stroke-opacity:1;paint-order:markers stroke fill" d="m -352.816,-901.02513 c -1.14083,-0.48059 -2.52452,0.0595 -2.99365,1.17309 -0.30599,0.72637 0.007,1.48943 0.40732,1.90734 l -0.10105,0.23988 c -0.0554,0.13161 0.006,0.28219 0.13749,0.33763 l 0.85689,0.36097 0.85689,0.36098 c 0.1316,0.0554 0.28219,-0.006 0.33763,-0.13749 l 0.10105,-0.23988 c 0.57893,-0.005 1.34332,-0.31459 1.64931,-1.04096 0.46911,-1.11361 -0.11111,-2.48085 -1.25188,-2.96156 z" id="path14941"/>
      <path id="path825" d="m -352.816,-901.02513 c -1.14083,-0.48059 -2.52452,0.0595 -2.99365,1.17309 -0.30599,0.72637 0.007,1.48943 0.40732,1.90734 l -0.10105,0.23988 c -0.0554,0.13161 0.006,0.28219 0.13749,0.33763 l 0.85689,0.36097 0.85689,0.36098 c 0.1316,0.0554 0.28219,-0.006 0.33763,-0.13749 l 0.10105,-0.23988 c 0.57893,-0.005 1.34332,-0.31459 1.64931,-1.04096 0.46911,-1.11361 -0.11111,-2.48085 -1.25188,-2.96156 z" style="opacity:1;fill:#e0ccb5;fill-opacity:1;fill-rule:nonzero;stroke:none;stroke-width:0.89999998;stroke-linecap:round;stroke-linejoin:miter;stroke-miterlimit:4;stroke-dasharray:none;stroke-dashoffset:0;stroke-opacity:1;paint-order:markers stroke fill" inkscape:connector-curvature="0"/>
      <path style="opacity:1;fill:#fae3c7;fill-opacity:1;fill-rule:nonzero;stroke:none;stroke-width:4.01693916;stroke-linecap:round;stroke-linejoin:round;stroke-miterlimit:4;stroke-dasharray:none;stroke-dashoffset:0;stroke-opacity:1;paint-order:markers stroke fill" d="m -1336.8145,-3406.1152 c -3.373,0.01 -6.6487,1.9429 -7.9785,5.0996 -1.039,2.4664 -0.1847,5.0359 1.0957,6.6797 a 7.4821118,9.0580285 50.195452 0 0 7.4004,-2.9356 7.4821118,9.0580285 50.195452 0 0 2.918,-8.1289 c -0.034,-0.015 -0.065,-0.034 -0.1,-0.049 -1.078,-0.4541 -2.2116,-0.6677 -3.336,-0.666 z" transform="scale(0.26458333)" id="path14943" inkscape:connector-curvature="0"/>
      <ellipse style="opacity:1;fill:#693b15;fill-opacity:1;fill-rule:nonzero;stroke:none;stroke-width:0.04113487;stroke-linecap:round;stroke-linejoin:miter;stroke-miterlimit:4;stroke-dasharray:none;stroke-dashoffset:0;stroke-opacity:1;paint-order:markers stroke fill" id="ellipse14945" cx="-675.95636" cy="-690.70551" rx="0.66854781" ry="0.69210625" transform="rotate(22.843686)"/>
      <ellipse ry="0.69210625" rx="0.66854781" cy="-690.70551" cx="-673.86957" id="ellipse14947" style="opacity:1;fill:#693b15;fill-opacity:1;fill-rule:nonzero;stroke:none;stroke-width:0.04113487;stroke-linecap:round;stroke-linejoin:miter;stroke-miterlimit:4;stroke-dasharray:none;stroke-dashoffset:0;stroke-opacity:1;paint-order:markers stroke fill" transform="rotate(22.843686)"/>
      <path style="opacity:1;fill:#693b15;fill-opacity:1;fill-rule:nonzero;stroke:none;stroke-width:0.01975339;stroke-linecap:round;stroke-linejoin:miter;stroke-miterlimit:4;stroke-dasharray:none;stroke-dashoffset:0;stroke-opacity:1;paint-order:markers stroke fill" inkscape:transform-center-x="-4.5872882e-006" inkscape:transform-center-y="-0.18273362" d="m -354.49076,-897.9412 0.55167,-0.38946 0.0856,0.65791 z" id="path14949" inkscape:connector-curvature="0" sodipodi:nodetypes="cccc"/>
      <rect style="opacity:1;fill:#693b15;fill-opacity:1;fill-rule:nonzero;stroke:none;stroke-width:0.01948564;stroke-linecap:round;stroke-linejoin:miter;stroke-miterlimit:4;stroke-dasharray:none;stroke-dashoffset:0;stroke-opacity:1;paint-order:markers stroke fill" id="rect14951" width="0.73251706" height="0.31600735" x="-966.84558" y="-11.543047" transform="rotate(67.843686)" rx="0.13345289" ry="0.15570208"/>
      <rect ry="0.15570208" rx="0.13345289" transform="matrix(-0.92615841,0.37713473,0.37713473,0.92615841,0,0)" y="-966.03583" x="-12.352781" height="0.31600735" width="0.73251706" id="rect14953" style="opacity:1;fill:#693b15;fill-opacity:1;fill-rule:nonzero;stroke:none;stroke-width:0.01948564;stroke-linecap:round;stroke-linejoin:miter;stroke-miterlimit:4;stroke-dasharray:none;stroke-dashoffset:0;stroke-opacity:1;paint-order:markers stroke fill"/>
      <rect style="opacity:1;fill:none;fill-opacity:1;fill-rule:nonzero;stroke:none;stroke-width:0.04788959;stroke-linecap:round;stroke-linejoin:round;stroke-miterlimit:4;stroke-dasharray:none;stroke-dashoffset:0;stroke-opacity:1;paint-order:markers stroke fill" id="rect14955" width="5.4445133" height="5.4445133" x="-356.33154" y="-901.76611"/>
    </g>
  </g>
</svg>