<?xml version="1.0" encoding="UTF-8" standalone="no"?>
<svg
   width="0.23812503mm"
   height="0.39687839mm"
   viewBox="0 0 0.23812503 0.39687839"
   version="1.1"
   id="svg3893"
   inkscape:version="1.1 (c68e22c387, 2021-05-23)"
   sodipodi:docname="waterpark_fence_r.svg"
   xmlns:inkscape="http://www.inkscape.org/namespaces/inkscape"
   xmlns:sodipodi="http://sodipodi.sourceforge.net/DTD/sodipodi-0.dtd"
   xmlns="http://www.w3.org/2000/svg"
   xmlns:svg="http://www.w3.org/2000/svg"
   xmlns:rdf="http://www.w3.org/1999/02/22-rdf-syntax-ns#"
   xmlns:cc="http://creativecommons.org/ns#"
   xmlns:dc="http://purl.org/dc/elements/1.1/">
  <defs
     id="defs3887" />
  <sodipodi:namedview
     id="base"
     pagecolor="#ffffff"
     bordercolor="#666666"
     borderopacity="1.0"
     inkscape:pageopacity="0.0"
     inkscape:pageshadow="2"
     inkscape:zoom="179.2"
     inkscape:cx="1.1104911"
     inkscape:cy="0.68359375"
     inkscape:document-units="px"
     inkscape:current-layer="layer1"
     inkscape:document-rotation="0"
     showgrid="false"
     inkscape:pagecheckerboard="0"
     inkscape:window-width="1920"
     inkscape:window-height="1057"
     inkscape:window-x="-8"
     inkscape:window-y="-8"
     inkscape:window-maximized="1" />
  <metadata
     id="metadata3890">
    <rdf:RDF>
      <cc:Work
         rdf:about="">
        <dc:format>image/svg+xml</dc:format>
        <dc:type
           rdf:resource="http://purl.org/dc/dcmitype/StillImage" />
      </cc:Work>
    </rdf:RDF>
  </metadata>
  <g
     inkscape:label="Layer 1"
     inkscape:groupmode="layer"
     id="layer1"
     transform="translate(-104.20805,-136.63838)">
    <g
       id="g24476"
       transform="matrix(0.05000032,0,0,0.05000032,60.882256,140.43518)"
       style="stroke-width:19.9999">
      <path
         id="path24456"
         style="fill:#000000;fill-opacity:0.18;stroke:none;stroke-width:755.901;stroke-linecap:round;stroke-linejoin:round;paint-order:markers fill stroke"
         d="m 3276,-271 v 10 c 0,2.216 1.784,4 4,4 h 12.9998 v -14 z"
         sodipodi:nodetypes="cscccc"
         transform="scale(0.26458333)" />
      <path
         id="path24458"
         style="color:#000000;fill:#18483c;fill-opacity:1;stroke-width:21.1665;stroke-linecap:round;stroke-linejoin:round;-inkscape-stroke:none;paint-order:markers fill stroke"
         d="m 868.62687,-75.935416 c -1.01696,-2.4e-5 -1.85211,0.834536 -1.85209,1.851049 v 1.786972 c -0.0119,0.01061 -0.0238,0.0217 -0.0351,0.03307 v 0.0021 c -0.30568,0.305271 -0.30568,0.815592 0,1.120863 v 0.0015 c 0.0116,0.01154 0.0233,0.02273 0.0351,0.03411 v 0.460435 c -2e-5,1.016514 0.83513,1.853658 1.85209,1.853634 1.01695,3.2e-5 1.85211,-0.837115 1.85208,-1.853634 v -0.263032 h 0.79394 v -2.38125 h -0.79394 v -0.794785 c 3e-5,-1.016518 -0.83513,-1.85108 -1.85208,-1.851049 z"
         sodipodi:nodetypes="ssccccccsssccccsss" />
      <path
         id="path24460"
         style="fill:#0c6454;fill-opacity:1;stroke:none;stroke-width:21.1665;stroke-linecap:round;stroke-linejoin:round;stroke-miterlimit:4;stroke-dasharray:none;paint-order:markers fill stroke"
         d="m 868.62704,-75.406249 c -0.73062,-1.9e-5 -1.32294,0.592283 -1.32291,1.322917 v 3.439583 c -3e-5,0.730634 0.59229,1.322935 1.32291,1.322917 0.73065,2.3e-5 1.32295,-0.592281 1.32292,-1.322917 v -3.439583 c 3e-5,-0.730637 -0.59227,-1.322941 -1.32292,-1.322917 z m 1.85209,2.645833 v 0.464056 c 0.0116,0.01024 0.0235,0.02098 0.0346,0.03204 0.22125,0.219681 0.28282,0.546796 0.1855,0.826823 h 0.57362 v -1.322917 z" />
      <path
         style="color:#000000;fill:#08745c;fill-opacity:1;stroke-width:19.9999;stroke-linecap:round;stroke-linejoin:round;-inkscape-stroke:none"
         d="m 867.3046,-71.96745 a 0.2645835,0.2645835 0 0 0 -0.1875,0.07813 0.2645835,0.2645835 0 0 0 0,0.375 c 0.327,0.327008 0.89243,0.605469 1.50976,0.605469 0.61733,0 1.18276,-0.278461 1.50977,-0.605469 a 0.2645835,0.2645835 0 0 0 0,-0.375 0.2645835,0.2645835 0 0 0 -0.37305,0 c -0.20231,0.202313 -0.69573,0.451172 -1.13672,0.451172 -0.44099,0 -0.93245,-0.248859 -1.13476,-0.451172 a 0.2645835,0.2645835 0 0 0 -0.1875,-0.07813 z"
         id="path24462" />
      <path
         id="path24464"
         style="fill:#087c64;fill-opacity:1;stroke:none;stroke-width:21.1665;stroke-linecap:round;stroke-linejoin:round;stroke-miterlimit:4;stroke-dasharray:none;paint-order:markers fill stroke"
         d="m 868.62704,-73.289582 v 3.96875 c 0.73065,2.1e-5 1.32295,-0.592281 1.32292,-1.322917 v -2.645833 z m 1.85209,0.529166 v 0.464056 c 0.0116,0.01024 0.0235,0.02098 0.0346,0.03204 0.0865,0.08593 0.14833,0.188127 0.18603,0.297656 h 0.57309 v -0.79375 z" />
      <path
         id="path24466"
         style="color:#000000;fill:#048c6c;fill-opacity:1;stroke-width:19.9999;stroke-linecap:round;stroke-linejoin:round;-inkscape-stroke:none"
         d="m 869.9499,-71.966152 a 0.26458349,0.26458349 0 0 0 -0.18656,0.077 c -0.2023,0.202314 -0.69538,0.451136 -1.13636,0.451136 v 0.529167 c 0.61733,0 1.18245,-0.278641 1.50948,-0.60565 a 0.26458349,0.26458349 0 0 0 0,-0.374653 0.26458349,0.26458349 0 0 0 -0.18656,-0.077 z" />
      <path
         id="path24468"
         style="fill:#0c9478;fill-opacity:1;stroke:none;stroke-width:21.1665;stroke-linecap:round;stroke-linejoin:round;stroke-miterlimit:4;stroke-dasharray:none;paint-order:markers fill stroke"
         d="m 869.42079,-74.083332 v 4.4974 c 0.33298,-0.249724 0.52901,-0.641598 0.52917,-1.057817 v -3.439583 z m 1.05834,1.322916 v 0.264584 h 0.79375 v -0.264584 z" />
      <path
         id="path24470"
         style="color:#000000;fill:#08a080;fill-opacity:1;stroke-width:19.9999;stroke-linecap:round;stroke-linejoin:round;-inkscape-stroke:none"
         d="m 869.9499,-71.966152 a 0.26458349,0.26458349 0 0 0 -0.18656,0.077 c -0.0777,0.07772 -0.19846,0.16197 -0.34261,0.236678 v 0.591695 c 0.28914,-0.112148 0.53774,-0.275754 0.71573,-0.45372 a 0.26458349,0.26458349 0 0 0 0.078,-0.180351 0.26458349,0.26458349 0 0 0 0,-0.01395 0.26458349,0.26458349 0 0 0 -0.078,-0.180351 0.26458349,0.26458349 0 0 0 -0.18656,-0.077 z" />
      <circle
         style="fill:#38b89c;fill-opacity:1;stroke:none;stroke-width:21.1665;stroke-linecap:round;stroke-linejoin:round;stroke-miterlimit:4;stroke-dasharray:none;paint-order:markers fill stroke"
         id="circle24472"
         cx="868.62708"
         cy="-74.083374"
         r="1.3228778" />
      <circle
         style="fill:#04241c;fill-opacity:1;stroke:none;stroke-width:21.1665;stroke-linecap:round;stroke-linejoin:round;stroke-miterlimit:4;stroke-dasharray:none;paint-order:markers fill stroke"
         id="circle24474"
         cx="868.62708"
         cy="-74.083374"
         r="0.66145915" />
    </g>
  </g>
</svg>
