<?xml version="1.0" ?><!-- Created with Inkscape (http://www.inkscape.org/) --><svg xmlns:dc="http://purl.org/dc/elements/1.1/" xmlns:cc="http://creativecommons.org/ns#" xmlns:rdf="http://www.w3.org/1999/02/22-rdf-syntax-ns#" xmlns:svg="http://www.w3.org/2000/svg" xmlns="http://www.w3.org/2000/svg" xmlns:sodipodi="http://sodipodi.sourceforge.net/DTD/sodipodi-0.dtd" xmlns:inkscape="http://www.inkscape.org/namespaces/inkscape" width="0.26458335mm" height="0.46302241mm" viewBox="0 0 0.26458335 0.46302241" version="1.1" id="svg28275" inkscape:version="0.92.4 (5da689c313, 2019-01-14)" sodipodi:docname="yellow_block.svg">
  <defs id="defs28269"/>
  <sodipodi:namedview id="base" pagecolor="#ffffff" bordercolor="#666666" borderopacity="1.0" inkscape:pageopacity="0.0" inkscape:pageshadow="2" inkscape:zoom="256" inkscape:cx="0.93119567" inkscape:cy="0.26039529" inkscape:document-units="mm" inkscape:current-layer="layer1" showgrid="false" inkscape:window-width="1920" inkscape:window-height="1057" inkscape:window-x="-8" inkscape:window-y="-8" inkscape:window-maximized="1" fit-margin-top="0" fit-margin-left="0" fit-margin-right="0" fit-margin-bottom="0"/>
  <metadata id="metadata28272">
    <rdf:RDF>
      <cc:Work rdf:about="">
        <dc:format>image/svg+xml</dc:format>
        <dc:type rdf:resource="http://purl.org/dc/dcmitype/StillImage"/>
        <dc:title/>
      </cc:Work>
    </rdf:RDF>
  </metadata>
  <g inkscape:label="Layer 1" inkscape:groupmode="layer" id="layer1" transform="translate(165.1756,-87.988638)">
    <g id="g9201" transform="matrix(0.04999999,0,0,0.04999999,-163.53518,149.45769)">
      <rect style="opacity:1;fill:#000000;fill-opacity:0.18000004;fill-rule:nonzero;stroke:none;stroke-width:3.93964863;stroke-linecap:round;stroke-linejoin:round;stroke-miterlimit:4;stroke-dasharray:none;stroke-dashoffset:0;stroke-opacity:1;paint-order:markers stroke fill;filter:url(#filter1957)" id="rect19227-0-4-9-2-7-4-7-0-5" width="5.2916665" height="3.174943" x="-32.808334" y="-1223.2958" ry="1.0583171"/>
      <path transform="scale(0.26458333)" id="rect9161" d="m -117,-4646.4805 c -3.29401,0 -5.73592,2.7586 -5.99219,5.834 l -0.48047,5.7598 c -0.3197,0.7196 -0.52734,1.5326 -0.52734,2.4062 v 4 2 3 c 0,3.2897 2.71062,6 6,6 h 8 c 3.28938,0 6,-2.7103 6,-6 v -5 -1 -3 c 0,-0.8736 -0.20764,-1.6866 -0.52734,-2.4062 l -0.48047,-5.7598 c -0.25629,-3.075 -2.69818,-5.834 -5.99219,-5.834 z" style="opacity:1;fill:#3c3460;fill-opacity:1;fill-rule:nonzero;stroke:none;stroke-width:3.99999976;stroke-linecap:round;stroke-linejoin:round;stroke-miterlimit:4;stroke-dasharray:none;stroke-dashoffset:0;stroke-opacity:1;paint-order:markers stroke fill" inkscape:connector-curvature="0"/>
      <rect style="opacity:1;fill:#144088;fill-opacity:1;fill-rule:nonzero;stroke:none;stroke-width:1.05833328;stroke-linecap:round;stroke-linejoin:round;stroke-miterlimit:4;stroke-dasharray:none;stroke-dashoffset:0;stroke-opacity:1;paint-order:markers stroke fill" id="rect9159" width="4.2333674" height="3.7041667" x="-32.279167" y="-1225.9418" ry="1.058309"/>
      <rect ry="1.058309" y="-1226.7355" x="-32.279167" height="3.7041667" width="4.2333674" id="rect9120" style="opacity:1;fill:#2c6cd0;fill-opacity:1;fill-rule:nonzero;stroke:none;stroke-width:1.05833328;stroke-linecap:round;stroke-linejoin:round;stroke-miterlimit:4;stroke-dasharray:none;stroke-dashoffset:0;stroke-opacity:1;paint-order:markers stroke fill"/>
      <path style="opacity:1;fill:#fcbc1c;fill-opacity:1;fill-rule:nonzero;stroke:none;stroke-width:1.05833328;stroke-linecap:round;stroke-linejoin:round;stroke-miterlimit:4;stroke-dasharray:none;stroke-dashoffset:0;stroke-opacity:1;paint-order:markers stroke fill" d="m -30.956226,-1228.8521 h 1.5875 c 0.586303,0 1.009615,0.474 1.058309,1.0583 l 0.264609,3.175 c 0.04869,0.5843 -0.472006,1.0583 -1.058309,1.0583 h -2.116715 c -0.586303,0 -1.107003,-0.474 -1.058309,-1.0583 l 0.264606,-3.175 c 0.04869,-0.5843 0.472006,-1.0583 1.058309,-1.0583 z" id="path9122" inkscape:connector-curvature="0" sodipodi:nodetypes="sssssssss"/>
      <path sodipodi:nodetypes="csssscc" inkscape:connector-curvature="0" id="path9124" d="m -28.839559,-1227.5292 0.264546,3.1749 c 0.03651,0.4382 -0.353996,0.7937 -0.793713,0.7937 h -1.587497 c -0.439717,0 -0.830233,-0.3555 -0.793713,-0.7937 l 0.264544,-3.1749 z" style="opacity:1;fill:#e49800;fill-opacity:1;fill-rule:nonzero;stroke:none;stroke-width:0.79373074;stroke-linecap:round;stroke-linejoin:round;stroke-miterlimit:4;stroke-dasharray:none;stroke-dashoffset:0;stroke-opacity:1;paint-order:markers stroke fill"/>
      <path id="rect9126" transform="scale(0.26458333)" d="m -121.66602,-4632.4805 -0.16796,2 H -118 v -2 z" style="opacity:1;fill:#c48004;fill-opacity:1;fill-rule:nonzero;stroke:none;stroke-width:3.99999976;stroke-linecap:round;stroke-linejoin:round;stroke-miterlimit:4;stroke-dasharray:none;stroke-dashoffset:0;stroke-opacity:1;paint-order:markers stroke fill" inkscape:connector-curvature="0"/>
      <path id="rect9128" transform="scale(0.26458333)" d="m -121.91602,-4629.4805 -0.084,1 c -0.0289,0.3473 0.0119,0.6787 0.082,1 H -118 v -2 z" style="opacity:1;fill:#c48004;fill-opacity:1;fill-rule:nonzero;stroke:none;stroke-width:3.99999976;stroke-linecap:round;stroke-linejoin:round;stroke-miterlimit:4;stroke-dasharray:none;stroke-dashoffset:0;stroke-opacity:1;paint-order:markers stroke fill" inkscape:connector-curvature="0"/>
      <path id="rect9130" transform="scale(0.26458333)" d="m -110,-4629.4805 v 2 h 3.91797 c 0.0701,-0.3213 0.11097,-0.6527 0.082,-1 l -0.084,-1 z" style="opacity:1;fill:#c48004;fill-opacity:1;fill-rule:nonzero;stroke:none;stroke-width:3.99999976;stroke-linecap:round;stroke-linejoin:round;stroke-miterlimit:4;stroke-dasharray:none;stroke-dashoffset:0;stroke-opacity:1;paint-order:markers stroke fill" inkscape:connector-curvature="0"/>
      <path id="rect9132" transform="scale(0.26458333)" d="m -110,-4632.4805 v 2 h 3.83398 l -0.16796,-2 z" style="opacity:1;fill:#c48004;fill-opacity:1;fill-rule:nonzero;stroke:none;stroke-width:3.99999976;stroke-linecap:round;stroke-linejoin:round;stroke-miterlimit:4;stroke-dasharray:none;stroke-dashoffset:0;stroke-opacity:1;paint-order:markers stroke fill" inkscape:connector-curvature="0"/>
      <rect style="opacity:1;fill:#c48004;fill-opacity:1;fill-rule:nonzero;stroke:none;stroke-width:1.05833328;stroke-linecap:round;stroke-linejoin:round;stroke-miterlimit:4;stroke-dasharray:none;stroke-dashoffset:0;stroke-opacity:1;paint-order:markers stroke fill" id="rect9134" width="1.5875003" height="0.52913409" x="-30.956224" y="-1227" ry="4.0690105e-05"/>
    </g>
  </g>
</svg>