<?xml version="1.0" ?><svg xmlns:dc="http://purl.org/dc/elements/1.1/" xmlns:cc="http://creativecommons.org/ns#" xmlns:rdf="http://www.w3.org/1999/02/22-rdf-syntax-ns#" xmlns:svg="http://www.w3.org/2000/svg" xmlns="http://www.w3.org/2000/svg" xmlns:sodipodi="http://sodipodi.sourceforge.net/DTD/sodipodi-0.dtd" xmlns:inkscape="http://www.inkscape.org/namespaces/inkscape" sodipodi:docname="balloon.svg" inkscape:version="1.0 (4035a4fb49, 2020-05-01)" id="svg3893" version="1.1" viewBox="0 0 0.238125 0.51593632" height="0.51593632mm" width="0.238125mm">
  <defs id="defs3887"/>
  <sodipodi:namedview inkscape:window-maximized="1" inkscape:window-y="-8" inkscape:window-x="-8" inkscape:window-height="1057" inkscape:window-width="1920" showgrid="false" inkscape:document-rotation="0" inkscape:current-layer="layer1" inkscape:document-units="px" inkscape:cy="1.4149647" inkscape:cx="1.1313596" inkscape:zoom="126.71353" inkscape:pageshadow="2" inkscape:pageopacity="0.0" borderopacity="1.0" bordercolor="#666666" pagecolor="#ffffff" id="base"/>
  <metadata id="metadata3890">
    <rdf:RDF>
      <cc:Work rdf:about="">
        <dc:format>image/svg+xml</dc:format>
        <dc:type rdf:resource="http://purl.org/dc/dcmitype/StillImage"/>
        <dc:title/>
      </cc:Work>
    </rdf:RDF>
  </metadata>
  <g transform="translate(-90.600892,-147.54302)" id="layer1" inkscape:groupmode="layer" inkscape:label="Layer 1">
    <g style="stroke-width:20" transform="matrix(0.05,0,0,0.05,82.795684,151.98802)" id="g2521">
      <ellipse ry="2.3812294" rx="2.3812466" cy="-80.962502" cx="158.48541" id="path6763-8-9-1-6-6" style="opacity:1;fill:#000000;fill-opacity:0.18;fill-rule:nonzero;stroke:none;stroke-width:21.1666;stroke-linecap:round;stroke-linejoin:round;stroke-miterlimit:4;stroke-dasharray:none;stroke-dashoffset:0;stroke-opacity:1;paint-order:markers fill stroke"/>
      <rect y="-82.549995" x="158.22083" height="1.8520833" width="0.52916664" id="rect2461" style="opacity:1;fill:#283448;fill-opacity:1;stroke:none;stroke-width:21.1666;stroke-linecap:square;stroke-linejoin:round;stroke-miterlimit:4;stroke-dasharray:none;stroke-opacity:1;paint-order:markers fill stroke"/>
      <path id="path2491" style="color:#000000;font-style:normal;font-variant:normal;font-weight:normal;font-stretch:normal;font-size:medium;line-height:normal;font-family:sans-serif;font-variant-ligatures:normal;font-variant-position:normal;font-variant-caps:normal;font-variant-numeric:normal;font-variant-alternates:normal;font-variant-east-asian:normal;font-feature-settings:normal;font-variation-settings:normal;text-indent:0;text-align:start;text-decoration:none;text-decoration-line:none;text-decoration-style:solid;text-decoration-color:#000000;letter-spacing:normal;word-spacing:normal;text-transform:none;writing-mode:lr-tb;direction:ltr;text-orientation:mixed;dominant-baseline:auto;baseline-shift:baseline;text-anchor:start;white-space:normal;shape-padding:0;shape-margin:0;inline-size:0;clip-rule:nonzero;display:inline;overflow:visible;visibility:visible;isolation:auto;mix-blend-mode:normal;color-interpolation:sRGB;color-interpolation-filters:linearRGB;solid-color:#000000;solid-opacity:1;vector-effect:none;fill:#102c64;fill-opacity:1;fill-rule:nonzero;stroke:none;stroke-width:79.9998;stroke-linecap:square;stroke-linejoin:round;stroke-miterlimit:4;stroke-dasharray:none;stroke-dashoffset:0;stroke-opacity:1;paint-order:markers fill stroke;color-rendering:auto;image-rendering:auto;shape-rendering:auto;text-rendering:auto;enable-background:accumulate;stop-color:#000000" d="m 599,-336 c -4.94683,3e-5 -9,4.05313 -9,9 0,2.47343 0.89225,5.18106 2.35742,7.51367 0.94745,1.50842 2.2312,2.87636 3.80469,3.70117 C 595.4361,-315.03713 595,-314.03046 595,-313 c 0,0.29167 0.0188,0.63398 0.20703,1.07422 0.1886,0.44024 0.65816,0.96287 1.17774,1.18555 1.03906,0.44533 1.55908,0.11637 1.87304,0.0117 0.41264,-0.13753 0.65778,-0.2076 0.74219,-0.24218 0.0844,0.0346 0.3295,0.10468 0.74219,0.24218 0.31408,0.10466 0.83398,0.43362 1.87304,-0.0117 0.51958,-0.22266 0.98906,-0.74531 1.17774,-1.18555 C 602.98157,-312.36603 603,-312.70834 603,-313 c 0,-1.03046 -0.4361,-2.03713 -1.16211,-2.78516 1.57346,-0.8248 2.85724,-2.19275 3.80469,-3.70117 C 607.10771,-321.81894 608,-324.52656 608,-327 c 0,-4.94688 -4.05309,-9.00001 -9,-9 z" transform="scale(0.26458333)"/>
      <path sodipodi:nodetypes="sssss" d="m 160.3375,-86.518751 c 0,1.022881 -0.82921,2.645832 -1.85209,2.645831 -1.02288,-4e-6 -1.85208,-1.622954 -1.85208,-2.645831 0,-1.022877 0.8292,-1.852083 1.85208,-1.852087 1.02288,-2e-6 1.85209,0.829206 1.85209,1.852087 z" style="opacity:1;fill:#4054d0;fill-opacity:1;stroke:none;stroke-width:21.1666;stroke-linecap:square;stroke-linejoin:round;stroke-miterlimit:4;stroke-dasharray:none;stroke-opacity:1;paint-order:markers fill stroke" id="path2451"/>
      <path sodipodi:nodetypes="zzzzz" id="path2459" d="m 158.48541,-83.343752 c -0.32337,2e-6 -0.52916,0.264584 -0.52916,0.529166 0,0.264582 0.26457,0 0.52916,0 0.26459,0 0.52917,0.264582 0.52917,0 0,-0.264582 -0.2058,-0.529168 -0.52917,-0.529166 z" style="opacity:1;fill:#2030a4;fill-opacity:1;stroke:none;stroke-width:5.29166px;stroke-linecap:butt;stroke-linejoin:miter;stroke-opacity:1"/>
      <path id="path2478" style="opacity:1;fill:#4c60d0;fill-opacity:1;stroke:none;stroke-width:79.9998;stroke-linecap:square;stroke-linejoin:round;stroke-miterlimit:4;stroke-dasharray:none;stroke-opacity:1;paint-order:markers fill stroke" d="m 599,-334 c -3.866,2e-5 -7,3.13401 -7,7 0,0.32895 0.0303,0.67854 0.0742,1.03516 0.4715,-3.40777 3.3883,-6.03515 6.92578,-6.03516 3.53754,-10e-6 6.45435,2.62729 6.92578,6.03516 0.0439,-0.35657 0.0742,-0.70625 0.0742,-1.03516 0,-3.86601 -3.134,-7.00001 -7,-7 z" transform="scale(0.26458333)"/>
      <path id="path2481" style="opacity:1;fill:#2030a4;fill-opacity:1;stroke:none;stroke-width:79.9998;stroke-linecap:square;stroke-linejoin:round;stroke-miterlimit:4;stroke-dasharray:none;stroke-opacity:1;paint-order:markers fill stroke" d="M 593.0332,-330.64648 C 592.38212,-329.58349 592,-328.33786 592,-327 c 0,3.86599 3.134,9.99998 7,10 3.27177,0 6.01197,-4.39016 6.7793,-8.08398 C 604.51829,-322.36531 602.40063,-320 600,-320 c -3.866,-2e-5 -7,-6.13401 -7,-10 0,-0.21851 0.0136,-0.43308 0.0332,-0.64648 z" transform="scale(0.26458333)"/>
      <circle r="0.52916664" cy="-87.3125" cx="159.01459" id="circle2453" style="opacity:1;fill:#b4bcec;fill-opacity:1;stroke:none;stroke-width:21.1666;stroke-linecap:square;stroke-linejoin:round;stroke-miterlimit:4;stroke-dasharray:none;stroke-opacity:1;paint-order:markers fill stroke"/>
    </g>
  </g>
</svg>