<?xml version="1.0" ?><!-- Created with Inkscape (http://www.inkscape.org/) --><svg xmlns:dc="http://purl.org/dc/elements/1.1/" xmlns:cc="http://creativecommons.org/ns#" xmlns:rdf="http://www.w3.org/1999/02/22-rdf-syntax-ns#" xmlns:svg="http://www.w3.org/2000/svg" xmlns="http://www.w3.org/2000/svg" xmlns:sodipodi="http://sodipodi.sourceforge.net/DTD/sodipodi-0.dtd" xmlns:inkscape="http://www.inkscape.org/namespaces/inkscape" width="0.26458335mm" height="0.44978824mm" viewBox="0 0 0.26458335 0.44978824" version="1.1" id="svg14574" inkscape:version="0.92.4 (5da689c313, 2019-01-14)" sodipodi:docname="basjet].svg">
  <defs id="defs14568"/>
  <sodipodi:namedview id="base" pagecolor="#ffffff" bordercolor="#666666" borderopacity="1.0" inkscape:pageopacity="0.0" inkscape:pageshadow="2" inkscape:zoom="179.2" inkscape:cx="0.50169859" inkscape:cy="0.8827703" inkscape:document-units="mm" inkscape:current-layer="layer1" showgrid="false" inkscape:window-width="1920" inkscape:window-height="1057" inkscape:window-x="-8" inkscape:window-y="-8" inkscape:window-maximized="1"/>
  <metadata id="metadata14571">
    <rdf:RDF>
      <cc:Work rdf:about="">
        <dc:format>image/svg+xml</dc:format>
        <dc:type rdf:resource="http://purl.org/dc/dcmitype/StillImage"/>
        <dc:title/>
      </cc:Work>
    </rdf:RDF>
  </metadata>
  <g inkscape:label="Layer 1" inkscape:groupmode="layer" id="layer1" transform="translate(170.46728,-43.268309)">
    <g id="g11189" transform="matrix(0.04999981,0,0,0.04999981,-184.68858,108.79837)" style="stroke-width:20.00007629">
      <g id="g12849" transform="translate(-8.1380208e-4)" style="stroke-width:20.00007629">
        <ellipse ry="2.6458249" rx="2.6458435" cy="-1304.2562" cx="287.07373" id="path6763-8-9" style="opacity:1;fill:#000000;fill-opacity:0.18000004;fill-rule:nonzero;stroke:none;stroke-width:21.16674614;stroke-linecap:round;stroke-linejoin:round;stroke-miterlimit:4;stroke-dasharray:none;stroke-dashoffset:0;stroke-opacity:1;paint-order:markers fill stroke"/>
        <path inkscape:connector-curvature="0" style="opacity:1;fill:#683c14;fill-opacity:1;fill-rule:nonzero;stroke:none;stroke-width:21.16674614;stroke-linecap:round;stroke-linejoin:round;stroke-miterlimit:4;stroke-dasharray:none;stroke-dashoffset:0;stroke-opacity:1;paint-order:markers stroke fill" d="m 287.07292,-1310.6062 c -0.67319,0 -1.21888,0.2559 -1.58012,0.6051 -0.36123,0.3491 -0.54986,0.7669 -0.63245,1.1292 -0.31811,1.3949 -0.41052,1.9604 -0.43198,3.0176 -0.0277,1.3709 1.14854,2.6564 2.64455,2.6564 1.49605,0 2.67391,-1.2855 2.64616,-2.6564 -0.0214,-1.0571 -0.11546,-1.6227 -0.43355,-3.0176 -0.0826,-0.3623 -0.26966,-0.7801 -0.6309,-1.1292 -0.36126,-0.3492 -0.90847,-0.6051 -1.58171,-0.6051 z" id="path11131"/>
        <path id="path11119" d="m 287.07291,-1310.0775 c -1.09622,0 -1.57276,0.7779 -1.69706,1.3229 -0.31652,1.3878 -0.39862,1.8779 -0.4196,2.9104 -0.0209,1.0326 0.94768,2.1167 2.11666,2.1167 1.16899,0 2.13757,-1.0841 2.11667,-2.1167 -0.021,-1.0324 -0.10308,-1.5226 -0.4196,-2.9104 -0.1243,-0.5451 -0.60085,-1.3229 -1.69707,-1.3229 z" style="opacity:1;fill:#c86828;fill-opacity:1;fill-rule:nonzero;stroke:none;stroke-width:21.16674614;stroke-linecap:round;stroke-linejoin:round;stroke-miterlimit:4;stroke-dasharray:none;stroke-dashoffset:0;stroke-opacity:1;paint-order:markers stroke fill" inkscape:connector-curvature="0"/>
        <path inkscape:connector-curvature="0" style="opacity:1;fill:#b45420;fill-opacity:1;fill-rule:nonzero;stroke:none;stroke-width:21.16674614;stroke-linecap:round;stroke-linejoin:round;stroke-miterlimit:4;stroke-dasharray:none;stroke-dashoffset:0;stroke-opacity:1;paint-order:markers stroke fill" d="m 285.48541,-1306.6396 v 0.2646 h -0.26458 v 0.2646 h 0.26458 v 0.2646 H 285.75 v -0.2646 h 0.26458 v -0.2646 H 285.75 v -0.2646 z m 2.64584,0 v 0.2646 h -0.26459 v 0.2646 h 0.26459 v 0.2646 h 0.26458 v -0.2646 h 0.26458 v -0.2646 h -0.26458 v -0.2646 z m -1.32292,0.2646 v 0.2646 h -0.26458 v 0.2646 h 0.26458 v 0.2645 h 0.26458 v -0.2645 h 0.26459 v -0.2646 h -0.26459 v -0.2646 z m -0.79375,1.0583 v 0.2646 H 285.75 v 0.2646 h 0.26458 v 0.2646 h 0.26458 v -0.2646 h 0.26459 v -0.2646 h -0.26459 v -0.2646 z m 1.5875,0 v 0.2646 h -0.26458 v 0.2646 h 0.26458 v 0.2646 h 0.26458 v -0.2646 h 0.26459 v -0.2646 h -0.26459 v -0.2646 z" id="rect11015"/>
        <path id="path11123" d="m 287.73437,-1309.9643 c -0.63439,0.2347 -0.93996,0.7904 -1.0356,1.2097 -0.31653,1.3878 -0.39863,1.878 -0.41961,2.9104 -0.0168,0.8289 0.60492,1.6895 1.45521,1.9974 0.85029,-0.3079 1.47198,-1.1685 1.45521,-1.9974 -0.021,-1.0324 -0.10308,-1.5226 -0.4196,-2.9104 -0.0956,-0.4193 -0.40122,-0.975 -1.03561,-1.2097 z" style="opacity:1;fill:#dc702c;fill-opacity:1;fill-rule:nonzero;stroke:none;stroke-width:21.16674614;stroke-linecap:round;stroke-linejoin:round;stroke-miterlimit:4;stroke-dasharray:none;stroke-dashoffset:0;stroke-opacity:1;paint-order:markers stroke fill" inkscape:connector-curvature="0"/>
        <path id="path11121" d="m 287.07291,-1310.0775 a 1.7197885,1.5875 0 0 0 -0.17155,0.01 1.7197885,1.5875 0 0 0 -1.07487,0.4873 c -0.244,0.2515 -0.38487,0.5558 -0.44598,0.8129 a 1.7197885,1.5875 0 0 0 -0.0274,0.2795 1.7197885,1.5875 0 0 0 1.71979,1.5875 1.7197885,1.5875 0 0 0 1.71979,-1.5875 1.7197885,1.5875 0 0 0 -0.0294,-0.2878 c -0.0613,-0.2522 -0.19974,-0.5477 -0.43564,-0.7948 a 1.7197885,1.5875 0 0 0 -1.11466,-0.4987 c -0.046,0 -0.0917,-0.01 -0.14005,-0.01 z" style="opacity:1;fill:#f4a068;fill-opacity:1;fill-rule:nonzero;stroke:none;stroke-width:21.16674614;stroke-linecap:round;stroke-linejoin:round;stroke-miterlimit:4;stroke-dasharray:none;stroke-dashoffset:0;stroke-opacity:1;paint-order:markers stroke fill" inkscape:connector-curvature="0"/>
        <ellipse style="opacity:1;fill:#d87c40;fill-opacity:1;fill-rule:nonzero;stroke:none;stroke-width:21.16674614;stroke-linecap:round;stroke-linejoin:round;stroke-miterlimit:4;stroke-dasharray:none;stroke-dashoffset:0;stroke-opacity:1;paint-order:markers stroke fill" id="ellipse11005" cx="287.07291" cy="-1308.4916" rx="0.92604214" ry="0.92607164"/>
        <path id="path11007" d="m 287.07291,-1309.4177 a 0.92604213,0.92607163 0 0 0 -0.92604,0.926 0.92604213,0.92607163 0 0 0 0.062,0.3318 0.92604213,0.92607163 0 0 1 0.86402,-0.5964 0.92604213,0.92607163 0 0 1 0.86456,0.5948 0.92604213,0.92607163 0 0 0 0.0615,-0.3302 0.92604213,0.92607163 0 0 0 -0.92604,-0.926 z" style="opacity:1;fill:#ac6434;fill-opacity:1;fill-rule:nonzero;stroke:none;stroke-width:21.16674614;stroke-linecap:round;stroke-linejoin:round;stroke-miterlimit:4;stroke-dasharray:none;stroke-dashoffset:0;stroke-opacity:1;paint-order:markers stroke fill" inkscape:connector-curvature="0"/>
        <path inkscape:connector-curvature="0" style="opacity:1;fill:#c85c24;fill-opacity:1;fill-rule:nonzero;stroke:none;stroke-width:21.16674614;stroke-linecap:round;stroke-linejoin:round;stroke-miterlimit:4;stroke-dasharray:none;stroke-dashoffset:0;stroke-opacity:1;paint-order:markers stroke fill" d="m 288.13125,-1306.6396 v 0.2646 h -0.26459 v 0.2646 h 0.26459 v 0.2646 h 0.26458 v -0.2646 h 0.26458 v -0.2646 h -0.26458 v -0.2646 z m -1.32292,0.2646 v 0.2646 h -0.26458 v 0.2646 h 0.26458 v 0.2645 h 0.26458 v -0.2645 h 0.26459 v -0.2646 h -0.26459 v -0.2646 z m 0.79375,1.0583 v 0.2646 h -0.26458 v 0.2646 h 0.26458 v 0.2646 h 0.26458 v -0.2646 h 0.26459 v -0.2646 h -0.26459 v -0.2646 z m -1.14721,0.2646 c 0.0274,0.061 0.0556,0.1214 0.0889,0.1804 v -0.1804 z" id="path11125"/>
      </g>
    </g>
  </g>
</svg>