<?xml version="1.0" encoding="UTF-8" standalone="no"?>
<svg
   width="0.6746875mm"
   height="0.9921875mm"
   viewBox="0 0 0.6746875 0.9921875"
   version="1.1"
   id="svg3893"
   inkscape:version="1.1 (c68e22c387, 2021-05-23)"
   sodipodi:docname="basket_hoop_blue.svg"
   xmlns:inkscape="http://www.inkscape.org/namespaces/inkscape"
   xmlns:sodipodi="http://sodipodi.sourceforge.net/DTD/sodipodi-0.dtd"
   xmlns="http://www.w3.org/2000/svg"
   xmlns:svg="http://www.w3.org/2000/svg"
   xmlns:rdf="http://www.w3.org/1999/02/22-rdf-syntax-ns#"
   xmlns:cc="http://creativecommons.org/ns#"
   xmlns:dc="http://purl.org/dc/elements/1.1/">
  <defs
     id="defs3887" />
  <sodipodi:namedview
     id="base"
     pagecolor="#ffffff"
     bordercolor="#666666"
     borderopacity="1.0"
     inkscape:pageopacity="0.0"
     inkscape:pageshadow="2"
     inkscape:zoom="22.4"
     inkscape:cx="1.4732143"
     inkscape:cy="-8.3258929"
     inkscape:document-units="px"
     inkscape:current-layer="layer1"
     inkscape:document-rotation="0"
     showgrid="false"
     inkscape:pagecheckerboard="0"
     inkscape:window-width="1920"
     inkscape:window-height="1057"
     inkscape:window-x="-8"
     inkscape:window-y="-8"
     inkscape:window-maximized="1" />
  <metadata
     id="metadata3890">
    <rdf:RDF>
      <cc:Work
         rdf:about="">
        <dc:format>image/svg+xml</dc:format>
        <dc:type
           rdf:resource="http://purl.org/dc/dcmitype/StillImage" />
      </cc:Work>
    </rdf:RDF>
  </metadata>
  <g
     inkscape:label="Layer 1"
     inkscape:groupmode="layer"
     id="layer1"
     transform="translate(-122.52098,-146.56027)">
    <g
       id="g527375"
       transform="matrix(0.05,0,0,0.05,67.619936,152.61923)"
       style="stroke-width:20">
      <path
         id="path527339"
         style="fill:#000000;fill-opacity:0.25098;stroke:none;stroke-width:10.5833;stroke-linecap:round;stroke-linejoin:round;stroke-miterlimit:4;stroke-dasharray:none;paint-order:markers fill stroke"
         d="m 1104.9,-110.59583 -3.929,1.35599 -1.6273,3.27422 1.6273,3.2737 3.929,1.3565 3.9284,-1.3565 1.6278,-3.2737 -1.6278,-3.27422 z" />
      <g
         id="g527351"
         transform="translate(-66.145816,-30.956253)"
         style="stroke-width:20">
        <path
           id="path527341"
           style="color:#000000;fill:#38384c;fill-opacity:1;stroke-width:79.9998;stroke-linecap:square;stroke-linejoin:round;-inkscape-stroke:none;paint-order:markers fill stroke"
           d="m 4409,-304 c -2.3577,0 -4.5301,0.73843 -6.1855,2.03906 -1.6555,1.30064 -2.8145,3.25433 -2.8145,5.46094 v 4 c 0,2.20661 1.159,4.1603 2.8145,5.46094 1.6554,1.30063 3.8278,2.03906 6.1855,2.03906 2.3577,0 4.5301,-0.73843 6.1855,-2.03906 1.6555,-1.30064 2.8145,-3.25433 2.8145,-5.46094 v -4 c 0,-2.20661 -1.159,-4.1603 -2.8145,-5.46094 C 4413.5301,-303.26157 4411.3577,-304 4409,-304 Z"
           transform="scale(0.26458333)" />
        <path
           id="path527343"
           style="opacity:1;fill:#646884;fill-opacity:1;stroke:none;stroke-width:79.9998;stroke-linecap:square;stroke-linejoin:round;stroke-miterlimit:4;stroke-dasharray:none;paint-order:markers fill stroke"
           d="m 4402,-296.5 v 4 c 0,3.03756 3.134,5.5 7,5.5 3.866,0 7,-2.46244 7,-5.5 v -4 z"
           transform="scale(0.26458333)"
           sodipodi:nodetypes="cssscc" />
        <path
           id="path527345"
           style="opacity:1;fill:#545468;fill-opacity:1;stroke:none;stroke-width:79.9998;stroke-linecap:square;stroke-linejoin:round;stroke-miterlimit:4;stroke-dasharray:none;paint-order:markers fill stroke"
           d="m 4402,-296.5 v 4 c 0,3.03756 3.134,5.5 7,5.5 0.02,0 0.039,-0.002 0.059,-0.002 a 7,5.7499933 0 0 1 -3.059,-4.748 7,5.7499933 0 0 1 3.0605,-4.75 z"
           transform="scale(0.26458333)" />
        <path
           id="path527347"
           style="opacity:1;fill:#787898;fill-opacity:1;stroke:none;stroke-width:79.9998;stroke-linecap:square;stroke-linejoin:round;stroke-miterlimit:4;stroke-dasharray:none;paint-order:markers fill stroke"
           d="m 4402,-296.5 v 0.0352 a 7,5.7499933 0 0 1 0.06,-0.0352 z m 7.9434,0 a 7,5.7499933 0 0 1 3.0566,4.75 7,5.7499933 0 0 1 -2.9551,4.68945 c 3.3705,-0.39631 5.9551,-2.68086 5.9551,-5.43945 v -4 z"
           transform="scale(0.26458333)" />
        <ellipse
           style="opacity:1;fill:#787ca0;fill-opacity:1;stroke:none;stroke-width:21.1666;stroke-linecap:square;stroke-linejoin:round;stroke-miterlimit:4;stroke-dasharray:none;paint-order:markers fill stroke"
           id="ellipse527349"
           cx="1166.5479"
           cy="-78.448959"
           rx="1.8520833"
           ry="1.4552059" />
      </g>
      <path
         id="path527353"
         style="color:#000000;fill:#ffffff;stroke-width:20;stroke-linecap:round;stroke-linejoin:round;-inkscape-stroke:none"
         d="m 1107.966,-114.855 a 0.26458349,0.26458349 0 0 0 -0.2222,0.17467 c -0.2982,0.83733 -0.5725,1.68063 -0.817,2.52904 -0.1746,-0.0725 -0.3552,-0.13256 -0.5416,-0.17932 0.09,-0.66262 0.1855,-1.32625 0.2806,-1.99057 a 0.26458349,0.26458349 0 0 0 -0.2227,-0.29869 0.26458349,0.26458349 0 0 0 -0.3007,0.22479 c -0.094,0.65617 -0.1892,1.31308 -0.2786,1.97094 -0.1422,-0.0155 -0.287,-0.0238 -0.4346,-0.0238 -0.1475,0 -0.2924,0.008 -0.4346,0.0238 -0.089,-0.65786 -0.184,-1.31477 -0.278,-1.97094 a 0.26458349,0.26458349 0 0 0 -0.2992,-0.22479 0.26458349,0.26458349 0 0 0 -0.2243,0.29869 c 0.095,0.66432 0.1906,1.32795 0.2806,1.99057 -0.1864,0.0468 -0.367,0.10672 -0.5416,0.17932 -0.2444,-0.84841 -0.5187,-1.69171 -0.817,-2.52904 a 0.26458349,0.26458349 0 0 0 -0.3379,-0.1602 0.26458349,0.26458349 0 0 0 -0.1602,0.33797 c 0.306,0.85911 0.5861,1.72322 0.834,2.59157 -0.1988,0.11632 -0.3883,0.24873 -0.5669,0.39687 -0.3195,-0.72555 -0.6895,-1.43541 -1.1265,-2.13113 a 0.26458349,0.26458349 0 0 0 -0.1664,-0.11731 0.26458349,0.26458349 0 0 0 -0.199,0.0336 0.26458349,0.26458349 0 0 0 -0.082,0.36484 c 0.4566,0.72694 0.8381,1.47064 1.1648,2.235 -0.1513,0.15992 -0.293,0.33111 -0.4253,0.51263 -0.1757,-0.32285 -0.3598,-0.63275 -0.5519,-0.92914 a 0.26458349,0.26458349 0 0 0 -0.3649,-0.078 h -5e-4 a 0.26458349,0.26458349 0 0 0 -0.078,0.36742 c 0.2339,0.36082 0.4557,0.74265 0.6651,1.14618 -0.3099,0.53341 -0.5491,1.13057 -0.7121,1.76372 a 0.26458349,0.26458349 0 0 0 0.1917,0.32246 0.26458349,0.26458349 0 0 0 0.3219,-0.19172 c 0.1198,-0.46517 0.2832,-0.90625 0.4852,-1.31103 0.1553,0.33287 0.3027,0.67874 0.4424,1.03869 -0.01,0.0159 -0.013,0.0321 -0.019,0.0481 a 0.26458349,0.26458349 0 0 0 0.1483,0.34365 0.26458349,0.26458349 0 0 0 0.02,0.006 c 0.025,0.0706 0.051,0.14133 0.076,0.21291 a 0.26458349,0.26458349 0 0 0 0.338,0.16226 0.26458349,0.26458349 0 0 0 0.1617,-0.33589 c -0.049,-0.14011 -0.099,-0.27836 -0.1503,-0.41496 0.073,-0.1355 0.161,-0.26574 0.2614,-0.38913 0.098,0.3313 0.1901,0.66656 0.2775,1.00666 -0.01,0.0177 -0.019,0.0355 -0.027,0.0532 a 0.26458349,0.26458349 0 0 0 0.1193,0.35347 0.26458349,0.26458349 0 0 0 0.3153,-0.0615 0.26458349,0.26458349 0 0 0 0.1565,-0.25735 c 0.057,-0.0833 0.122,-0.16298 0.1964,-0.23668 0.025,0.15912 0.048,0.31824 0.07,0.47749 a 0.26458349,0.26458349 0 0 0 0.2971,0.22635 0.26458349,0.26458349 0 0 0 0.2263,-0.29869 c -0.033,-0.24234 -0.07,-0.48427 -0.1095,-0.72606 0.027,-0.0112 0.055,-0.0223 0.084,-0.032 0.016,0.26779 0.029,0.53559 0.038,0.80306 a 0.26458349,0.26458349 0 0 0 0.2734,0.25579 0.26458349,0.26458349 0 0 0 0.2289,-0.15141 0.26458349,0.26458349 0 0 0 0.23,0.15141 0.26458349,0.26458349 0 0 0 0.2733,-0.25579 c 0.01,-0.26712 0.022,-0.53459 0.038,-0.80202 0.028,0.01 0.055,0.0196 0.082,0.0305 -0.04,0.24195 -0.076,0.48406 -0.1095,0.72657 a 0.26458349,0.26458349 0 0 0 0.2268,0.29869 0.26458349,0.26458349 0 0 0 0.2987,-0.22634 c 0.022,-0.15926 0.045,-0.31838 0.07,-0.47749 0.075,0.074 0.14,0.15406 0.1969,0.23771 a 0.26458349,0.26458349 0 0 0 0.155,0.25476 0.26458349,0.26458349 0 0 0 0.3147,0.0631 0.26458349,0.26458349 0 0 0 0.1209,-0.35347 c -0.01,-0.0186 -0.019,-0.0373 -0.029,-0.0558 0.087,-0.33955 0.1795,-0.67433 0.2775,-1.0051 0.1006,0.12325 0.1892,0.25324 0.262,0.3886 -0.051,0.1371 -0.1018,0.27589 -0.1509,0.41652 a 0.26458349,0.26458349 0 0 0 0.1638,0.33589 0.26458349,0.26458349 0 0 0 0.3359,-0.16226 c 0.025,-0.0717 0.05,-0.14269 0.076,-0.21343 a 0.26458349,0.26458349 0 0 0 0.02,-0.005 0.26458349,0.26458349 0 0 0 0.1504,-0.34364 c -0.01,-0.0166 -0.013,-0.0332 -0.02,-0.0496 0.1398,-0.35953 0.2871,-0.70517 0.4424,-1.03767 0.2026,0.40495 0.3664,0.84615 0.4863,1.31155 a 0.26458349,0.26458349 0 0 0 0.3224,0.19172 0.26458349,0.26458349 0 0 0 0.1891,-0.32246 c -0.1629,-0.63291 -0.4013,-1.22994 -0.7105,-1.7632 0.2098,-0.40375 0.4316,-0.7857 0.6656,-1.1467 a 0.26458349,0.26458349 0 0 0 -0.078,-0.36742 0.26458349,0.26458349 0 0 0 -0.3675,0.078 c -0.1919,0.29608 -0.3754,0.60563 -0.5508,0.92811 -0.1322,-0.18129 -0.2738,-0.35239 -0.4248,-0.51211 0.327,-0.76421 0.7088,-1.50769 1.1653,-2.23449 a 0.26458349,0.26458349 0 0 0 -0.084,-0.36484 0.26458349,0.26458349 0 0 0 -0.199,-0.0336 0.26458349,0.26458349 0 0 0 -0.1638,0.11731 c -0.4371,0.69592 -0.8075,1.40589 -1.1271,2.13165 -0.1786,-0.14813 -0.3679,-0.28107 -0.5669,-0.39739 0.2479,-0.86835 0.5286,-1.73246 0.8346,-2.59157 a 0.26458349,0.26458349 0 0 0 -0.1602,-0.33797 0.26458349,0.26458349 0 0 0 -0.1178,-0.0145 z m -2.5368,2.93626 c 0.1241,0 0.2457,0.006 0.3648,0.0186 -0.061,0.46987 -0.119,0.94 -0.1705,1.41076 -0.065,-0.005 -0.1297,-0.007 -0.1943,-0.007 -0.064,0 -0.1293,0.002 -0.1943,0.007 -0.052,-0.47076 -0.1092,-0.94089 -0.1705,-1.41076 0.1191,-0.0123 0.2408,-0.0186 0.3648,-0.0186 z m -0.8852,0.1142 c 0.061,0.46801 0.118,0.93538 0.169,1.4025 -0.1012,0.0262 -0.2018,0.0572 -0.3013,0.0935 -0.1031,-0.4453 -0.2155,-0.88942 -0.3364,-1.33222 0.151,-0.066 0.3072,-0.12068 0.4687,-0.16381 z m 1.7714,0 c 0.1611,0.0431 0.3171,0.098 0.4677,0.16382 -0.1209,0.44279 -0.2333,0.88691 -0.3364,1.33221 -0.099,-0.0361 -0.199,-0.0675 -0.2997,-0.0935 0.051,-0.46712 0.1076,-0.93448 0.1684,-1.4025 z m -2.7186,0.42065 c 0.1165,0.43239 0.2254,0.86555 0.3245,1.29966 -0.135,0.0747 -0.2652,0.15852 -0.3902,0.25063 -0.1324,-0.39456 -0.2755,-0.78426 -0.4315,-1.16944 0.1573,-0.14196 0.3232,-0.26931 0.4972,-0.38085 z m 3.6664,10e-4 c 0.174,0.11168 0.3398,0.23924 0.4971,0.38137 -0.1556,0.38468 -0.2987,0.77384 -0.4309,1.16789 -0.1247,-0.0918 -0.2552,-0.17511 -0.3897,-0.2496 0.099,-0.43406 0.207,-0.86733 0.3235,-1.29966 z m -4.5666,0.79685 c 0.1446,0.3711 0.2777,0.7469 0.4015,1.12861 -0.1151,0.11798 -0.2216,0.24404 -0.3173,0.37724 -0.1444,-0.34737 -0.2961,-0.68265 -0.4558,-1.00562 0.1153,-0.17719 0.2396,-0.34448 0.3716,-0.50023 z m 5.4663,5.2e-4 c 0.1319,0.15559 0.2557,0.32273 0.371,0.49971 -0.1595,0.32248 -0.3111,0.65726 -0.4552,1.00407 -0.096,-0.13295 -0.2023,-0.25896 -0.3173,-0.37672 0.1238,-0.38114 0.2568,-0.75651 0.4015,-1.12706 z m -2.7337,0.61805 c 0.046,0 0.092,0.002 0.1395,0.006 -0.033,0.33211 -0.062,0.66427 -0.087,0.99684 -0.017,-3.9e-4 -0.035,-5.2e-4 -0.052,-5.2e-4 -0.018,0 -0.035,1.2e-4 -0.052,5.2e-4 -0.025,-0.33257 -0.054,-0.66473 -0.087,-0.99684 0.047,-0.004 0.093,-0.006 0.139,-0.006 z m -0.6599,0.108 c 0.032,0.32335 0.06,0.64655 0.084,0.96945 -0.047,0.0129 -0.094,0.027 -0.139,0.0429 -0.056,-0.30902 -0.1175,-0.61754 -0.1834,-0.92552 0.079,-0.0326 0.1586,-0.062 0.2382,-0.0868 z m 1.3219,5.2e-4 c 0.079,0.0247 0.1577,0.054 0.2361,0.0863 -0.066,0.30797 -0.127,0.61651 -0.1834,0.92552 -0.045,-0.0156 -0.09,-0.0296 -0.137,-0.0424 0.024,-0.32289 0.053,-0.64611 0.084,-0.96944 z m -2.0469,0.33796 c 0.064,0.30829 0.1241,0.61707 0.1788,0.92604 -0.092,0.0639 -0.1771,0.13369 -0.2553,0.20878 -0.082,-0.30056 -0.1674,-0.59851 -0.2584,-0.89349 0.1064,-0.0874 0.2187,-0.16805 0.3349,-0.24133 z m 2.7719,5.2e-4 c 0.1162,0.0733 0.2285,0.15396 0.3349,0.24133 -0.091,0.29486 -0.1774,0.59254 -0.2589,0.89297 -0.078,-0.0748 -0.1631,-0.14452 -0.2548,-0.20826 0.055,-0.30897 0.1143,-0.61775 0.1788,-0.92604 z m -1.403,1.08417 c 0.01,-5e-5 0.011,0 0.016,0 0.01,0 0.011,-5e-5 0.016,0 -0.01,0.0947 -0.01,0.18951 -0.015,0.28422 0,-0.0947 -0.011,-0.18954 -0.016,-0.28422 z" />
      <g
         id="g527365"
         transform="translate(-32.279149,-20.372929)"
         style="stroke-width:20">
        <path
           id="path527355"
           style="color:#000000;opacity:1;fill:#3d3dae;fill-opacity:1;stroke-width:79.9998;stroke-linecap:square;stroke-linejoin:bevel;-inkscape-stroke:none;paint-order:markers fill stroke"
           d="m 4300,-366 c -6.3863,9e-5 -12.2254,2.34893 -16.4238,6.16016 C 4283.0623,-359.94179 4282.5349,-360 4282,-360 c -3.6261,0 -7,2.43977 -7,6 v 16 c 0,3.56023 3.3739,6 7,6 0.2266,0 0.4519,-0.009 0.6758,-0.0273 4.2412,4.31928 10.467,7.02725 17.3242,7.02734 12.5503,-1.7e-4 23,-9.0559 23,-20.5 0,-11.4441 -10.4497,-20.49983 -23,-20.5 z m 0,11 c 6.8443,1.3e-4 12,4.46469 12,9.5 0,5.03531 -5.1557,9.49987 -12,9.5 -5.0563,-10e-5 -9.1848,-2.43872 -11,-5.74219 v -7.51367 c 1.8148,-3.30408 5.9431,-5.74404 11,-5.74414 z"
           transform="scale(0.26458333)" />
        <path
           id="path527357"
           style="opacity:1;fill:#7e7ef2;fill-opacity:1;stroke:none;stroke-width:79.9998;stroke-linecap:square;stroke-linejoin:bevel;stroke-miterlimit:4;stroke-dasharray:none;paint-order:markers fill stroke"
           d="m 4301.3574,-363.54688 -12.0918,2.1836 c -0.024,0.0128 -0.048,0.0262 -0.072,0.0391 l -0.5625,0.31055 v 0.002 c -1.0973,0.6281 -2.1341,1.34761 -3.0918,2.15625 1.5439,0.30312 2.8114,1.05429 3.7109,2.06641 0.303,0.34099 0.5628,0.71017 0.7852,1.09765 v -0.004 l 13.7324,-5.2168 z m 13.8223,9.83594 -1.2656,9.47852 -0.01,-0.002 c -0.2212,1.62286 -0.858,3.19462 -1.8828,4.60547 1.8414,1.83719 2.7004,4.25531 2.92,7.06055 1.3734,-1.2254 2.5294,-2.60466 3.455,-4.08789 l -0.83,-0.44141 1.2519,-1.33984 1.3086,-6.12109 -1.873,-7.8086 z m -4.4473,15.59571 c -0.3538,0.34692 -0.7307,0.67347 -1.1269,0.98046 -0.011,0.009 -0.024,0.0166 -0.035,0.0254 -0.4391,0.33795 -0.9043,0.64888 -1.3887,0.93555 l -0.043,0.0293 -0.029,0.0137 c -0.7325,0.42772 -1.5109,0.79575 -2.3262,1.09961 l -7.7969,3.6875 2.5879,1.48437 11.3067,-2.40624 0.9355,-1.38086 c -0.2808,-1.82412 -0.9118,-3.28584 -2.084,-4.46875 z"
           transform="scale(0.26458333)"
           sodipodi:nodetypes="ccccccscccccccccccccccsscccccccccss" />
        <path
           id="path527359"
           style="opacity:1;fill:#9090ff;fill-opacity:1;stroke:none;stroke-width:79.9998;stroke-linecap:square;stroke-linejoin:bevel;stroke-miterlimit:4;stroke-dasharray:none;paint-order:markers fill stroke"
           d="m 4178,-441 c -4.0654,0.0114 -8.0081,1.06336 -11.3711,2.98828 2.3736,-0.65043 4.8635,-0.98426 7.3711,-0.98828 2.648,0.002 5.2758,0.37091 7.7676,1.0918 v -0.004 l 0.021,0.008 c 0.929,0.27242 1.8352,0.59275 2.7129,0.95899 l 4.7265,1.67187 v 0.006 c 0.6437,-0.58038 1.4273,-1.0431 2.3281,-1.34375 -3.7867,-2.82811 -8.5883,-4.38296 -13.5527,-4.38867 z m 15.4609,6.02344 c -1.1203,0.0877 -1.9807,0.45132 -2.6523,0.98633 l 2.3711,3.27929 v 0.002 c 2.4727,3.00586 3.8204,6.5517 3.8203,10.20898 -0.01,3.75847 -1.4342,7.42647 -4.0957,10.51562 0.014,0.13793 0.028,0.27615 0.039,0.41602 0.4677,-0.41735 0.9107,-0.85204 1.3281,-1.30273 l 1.2969,-3.22657 1.4336,-0.79492 1.0097,-2.07617 c 0.6395,-1.77383 0.9806,-3.63651 0.9883,-5.53125 0,-4.62244 -1.9882,-9.07336 -5.5391,-12.47656 z M 4162,-431 v 2.4707 l 0.6855,4.58203 c 0.8776,0.12806 1.6741,0.49022 2.3145,0.98438 V -431 Z m 1,9.16211 -0.645,5.97495 1.2915,0.9645 v 0.0137 c 0.5185,-0.86014 1.1727,-1.63966 1.9941,-2.32031 -0.2381,-0.37315 -0.625,-0.51367 -0.625,-1.51367 0,-1.22957 -0.6717,-2.64782 -2.0156,-3.11914 z m 3.834,6.21289 c -0.7526,0.62227 -1.3195,1.33091 -1.7481,2.13281 l 4.3008,4.07227 6.5996,1.07617 c 4.4534,-0.76136 8.5483,-2.77615 11.627,-5.79687 -2.5837,2.00485 -6.018,3.14062 -9.6133,3.14062 -4.3997,-0.0151 -8.5358,-1.72773 -11.166,-4.625 z m 24.168,7.56836 c -0.058,0.051 -0.1168,0.10183 -0.1758,0.15234 0.058,-0.0402 0.1176,-0.0803 0.1758,-0.12109 z"
           transform="matrix(0.26458333,0,0,0.26458333,32.279149,20.372929)"
           sodipodi:nodetypes="scccccccccssccccccccccccccccccccccccscccccccccccccc" />
        <path
           id="path527361"
           style="opacity:1;fill:#6969da;fill-opacity:1;stroke:none;stroke-width:79.9998;stroke-linecap:square;stroke-linejoin:bevel;stroke-miterlimit:4;stroke-dasharray:none;paint-order:markers fill stroke"
           d="m 4180,-438 a 14.000054,10.999999 0 0 0 -11.9688,5.30664 c 0.2944,0.51223 0.5223,1.0571 0.6817,1.62109 2.555,-1.87683 5.8594,-2.91855 9.2871,-2.92773 3.3392,0.004 6.5666,0.98854 9.0996,2.77539 0.2079,-1.30072 0.7482,-2.55325 1.6504,-3.56836 0.149,-0.16765 0.3096,-0.32651 0.4785,-0.47851 A 14.000054,10.999999 0 0 0 4180,-438 Z m 10.8066,4.00586 c -0.2029,0.16148 -0.389,0.33876 -0.5586,0.5293 -0.816,0.9188 -1.246,2.18507 -1.246,3.46289 v 0.43554 c 1.9302,2.01506 2.9855,4.50227 2.998,7.06641 0,0.42539 -0.03,0.84932 -0.088,1.26953 A 14.000054,10.999999 0 0 0 4194,-427 a 14.000054,10.999999 0 0 0 -3.1934,-6.99414 z m 7.2344,16.94922 a 20.999827,18.5 0 0 1 -5.418,5.3164 c 0.1566,0.69057 0.2617,1.41062 0.3204,2.16016 2.3729,-2.1172 4.1071,-4.68705 5.0976,-7.47656 z M 4155,-417 v 2 a 4.9999993,3.9999993 0 0 0 4,3.91211 v -0.0996 c -0.3652,-0.59766 -0.6929,-1.24761 -0.9746,-1.93359 l -0.01,-0.004 z m 7.168,0.25781 v 0.008 l -2.1914,2.98633 c 0.5963,1.38062 1.3933,2.58302 2.1875,3.37696 0.2135,-1.67691 0.6833,-3.2001 1.4843,-4.52539 a 20.999827,18.5 0 0 1 -1.4804,-1.84571 z m 2.9101,3.24219 c -0.6971,1.30244 -1.008,2.86621 -1.0683,4.76953 3.8445,3.03878 8.8251,4.72291 13.9902,4.73047 4.7248,-0.0151 9.3056,-1.43335 13.002,-4.02539 0,-0.95509 -0.056,-1.82827 -0.1797,-2.63086 A 20.999827,18.5 0 0 1 4180,-408 a 20.999827,18.5 0 0 1 -14.9219,-5.5 z"
           transform="matrix(0.26458333,0,0,0.26458333,32.279149,20.372929)" />
        <ellipse
           style="opacity:1;fill:#9f9fff;fill-opacity:1;stroke:none;stroke-width:21.1666;stroke-linecap:square;stroke-linejoin:bevel;stroke-miterlimit:4;stroke-dasharray:none;paint-order:markers fill stroke"
           id="ellipse527363"
           cx="1132.9458"
           cy="-93.662506"
           rx="1.3229166"
           ry="1.0583333" />
      </g>
      <g
         id="g527373"
         transform="translate(-47.624947,-20.6375)"
         style="stroke-width:20">
        <path
           style="color:#000000;opacity:1;fill:#344c64;fill-opacity:1;stroke-width:5.29166;stroke-linecap:square;stroke-linejoin:round;-inkscape-stroke:none;paint-order:markers fill stroke"
           d="m 1148.0271,-100.54167 c -0.5772,0 -1.0584,0.48124 -1.0584,1.058338 v 3.439583 2.910417 3.439583 c 0,0.577099 0.4812,1.058333 1.0584,1.058333 0.5771,0 1.0583,-0.481107 1.0583,-1.058333 v -3.439583 -2.910417 -3.439583 c 0,-0.577228 -0.4812,-1.058338 -1.0583,-1.058338 z"
           id="path527367" />
        <path
           id="path527369"
           style="opacity:1;fill:#b8c0c8;fill-opacity:1;stroke-width:10.5833;stroke-linecap:square;stroke-linejoin:round;paint-order:markers fill stroke"
           d="m 1148.5563,-93.133334 v 3.439584 c 0,0.293158 -0.2361,0.529167 -0.5292,0.529167 -0.2932,0 -0.5292,-0.236009 -0.5292,-0.529167 v -3.439584 z"
           sodipodi:nodetypes="cssscc" />
        <path
           id="path527371"
           style="opacity:1;fill:#e4ecf8;fill-opacity:1;stroke-width:10.5833;stroke-linecap:square;stroke-linejoin:round;paint-order:markers fill stroke"
           d="m 1148.0271,-100.0125 c 0.2931,0 0.5292,0.236009 0.5292,0.529167 v 6.35 c 0,0.293158 -0.2361,0.529167 -0.5292,0.529167 -0.2932,0 -0.5292,-0.236009 -0.5292,-0.529167 v -6.35 c 0,-0.293158 0.236,-0.529167 0.5292,-0.529167 z" />
      </g>
    </g>
  </g>
</svg>
