<?xml version="1.0" ?><svg xmlns:dc="http://purl.org/dc/elements/1.1/" xmlns:cc="http://creativecommons.org/ns#" xmlns:rdf="http://www.w3.org/1999/02/22-rdf-syntax-ns#" xmlns:svg="http://www.w3.org/2000/svg" xmlns="http://www.w3.org/2000/svg" xmlns:xlink="http://www.w3.org/1999/xlink" xmlns:sodipodi="http://sodipodi.sourceforge.net/DTD/sodipodi-0.dtd" xmlns:inkscape="http://www.inkscape.org/namespaces/inkscape" inkscape:version="1.0 (4035a4fb49, 2020-05-01)" id="svg3893" version="1.1" viewBox="0 0 0.26458335 0.50270736" height="0.50270736mm" width="0.26458335mm" sodipodi:docname="factory.svg">
  <defs id="defs3887">
    <linearGradient inkscape:collect="always" xlink:href="#linearGradient1364" id="linearGradient1366" x1="-648.5" y1="436" x2="-648.5" y2="439" gradientUnits="userSpaceOnUse" gradientTransform="scale(0.26458333)"/>
    <linearGradient inkscape:collect="always" id="linearGradient1364">
      <stop style="stop-color:#7474a8;stop-opacity:1" offset="0" id="stop1360"/>
      <stop style="stop-color:#606498;stop-opacity:1" offset="1" id="stop1362"/>
    </linearGradient>
    <linearGradient inkscape:collect="always" xlink:href="#linearGradient1603" id="linearGradient1605" x1="-171.97916" y1="116.15211" x2="-171.97916" y2="116.68127" gradientUnits="userSpaceOnUse"/>
    <linearGradient inkscape:collect="always" id="linearGradient1603">
      <stop style="stop-color:#c8bc48;stop-opacity:1;" offset="0" id="stop1599"/>
      <stop style="stop-color:#b4a82c;stop-opacity:1" offset="1" id="stop1601"/>
    </linearGradient>
  </defs>
  <sodipodi:namedview showgrid="false" inkscape:document-rotation="0" inkscape:current-layer="layer1" inkscape:document-units="px" inkscape:cy="0.30091336" inkscape:cx="2.692549" inkscape:zoom="89.6" inkscape:pageshadow="2" inkscape:pageopacity="0.0" borderopacity="1.0" bordercolor="#666666" pagecolor="#ffffff" id="base" fit-margin-top="0" fit-margin-left="0" fit-margin-right="0" fit-margin-bottom="0" inkscape:window-width="1920" inkscape:window-height="1057" inkscape:window-x="-8" inkscape:window-y="-8" inkscape:window-maximized="1"/>
  <metadata id="metadata3890">
    <rdf:RDF>
      <cc:Work rdf:about="">
        <dc:format>image/svg+xml</dc:format>
        <dc:type rdf:resource="http://purl.org/dc/dcmitype/StillImage"/>
        <dc:title/>
      </cc:Work>
    </rdf:RDF>
  </metadata>
  <g id="layer1" inkscape:groupmode="layer" inkscape:label="Layer 1" transform="translate(70.68155,-91.73483)">
    <g id="g1595" transform="matrix(0.04999997,0,0,0.04999997,-61.950305,86.152124)">
      <rect rx="0.93459511" style="opacity:1;fill:#000000;fill-opacity:0.18;fill-rule:nonzero;stroke:none;stroke-width:3.9397;stroke-linecap:round;stroke-linejoin:round;stroke-miterlimit:4;stroke-dasharray:none;stroke-dashoffset:0;stroke-opacity:1;paint-order:markers stroke fill;filter:url(#filter1957)" id="rect19227-0-4-9-9-3-8-1" width="5.291667" height="3.1749847" x="-174.625" y="118.53335" ry="0.93459511"/>
      <path d="m -173.56666,111.65418 c -0.57716,0 -1.05834,0.48119 -1.05834,1.05833 v 3.175 3.175 c 0,0.57715 0.48118,1.05834 1.05834,1.05834 h 0.26458 a 0.52921958,0.52921958 0 0 0 0.45785,-0.26459 h 1.73013 a 0.52921958,0.52921958 0 0 0 0.45785,0.26459 h 0.26459 c 0.57714,0 1.05833,-0.48119 1.05833,-1.05834 v -3.175 -3.175 c 0,-0.57714 -0.48119,-1.05833 -1.05833,-1.05833 h -0.26459 a 0.52921958,0.52921958 0 0 0 -0.45785,0.26458 h -1.73013 a 0.52921958,0.52921958 0 0 0 -0.45785,-0.26458 z" style="color:#000000;font-style:normal;font-variant:normal;font-weight:normal;font-stretch:normal;font-size:medium;line-height:normal;font-family:sans-serif;font-variant-ligatures:normal;font-variant-position:normal;font-variant-caps:normal;font-variant-numeric:normal;font-variant-alternates:normal;font-variant-east-asian:normal;font-feature-settings:normal;font-variation-settings:normal;text-indent:0;text-align:start;text-decoration:none;text-decoration-line:none;text-decoration-style:solid;text-decoration-color:#000000;letter-spacing:normal;word-spacing:normal;text-transform:none;writing-mode:lr-tb;direction:ltr;text-orientation:mixed;dominant-baseline:auto;baseline-shift:baseline;text-anchor:start;white-space:normal;shape-padding:0;shape-margin:0;inline-size:0;clip-rule:nonzero;display:inline;overflow:visible;visibility:visible;isolation:auto;mix-blend-mode:normal;color-interpolation:sRGB;color-interpolation-filters:linearRGB;solid-color:#000000;solid-opacity:1;vector-effect:none;fill:#2c3448;fill-opacity:1;fill-rule:nonzero;stroke:none;stroke-width:1.05833;stroke-linecap:round;stroke-linejoin:round;stroke-miterlimit:4;stroke-dasharray:none;stroke-dashoffset:0;stroke-opacity:1;paint-order:markers fill stroke;color-rendering:auto;image-rendering:auto;shape-rendering:auto;text-rendering:auto;enable-background:accumulate;stop-color:#000000" id="path1549"/>
      <rect style="opacity:1;fill:#343850;fill-opacity:1;stroke:none;stroke-width:1.05833;stroke-linecap:round;stroke-linejoin:round;stroke-miterlimit:4;stroke-dasharray:none;paint-order:markers fill stroke" id="rect1292" width="2.6458333" height="6.8791499" x="-173.30208" y="112.44794"/>
      <path d="m -173.03698,114.56513 a 0.26460995,0.26460995 0 0 0 -0.26562,0.26356 v 0.79478 a 0.26460995,0.26460995 0 0 0 0.26562,0.26407 h 0.79272 a 0.26460995,0.26460995 0 0 0 0.26561,-0.26407 v -0.79478 a 0.26460995,0.26460995 0 0 0 -0.26561,-0.26356 z" style="color:#000000;font-style:normal;font-variant:normal;font-weight:normal;font-stretch:normal;font-size:medium;line-height:normal;font-family:sans-serif;font-variant-ligatures:normal;font-variant-position:normal;font-variant-caps:normal;font-variant-numeric:normal;font-variant-alternates:normal;font-variant-east-asian:normal;font-feature-settings:normal;font-variation-settings:normal;text-indent:0;text-align:start;text-decoration:none;text-decoration-line:none;text-decoration-style:solid;text-decoration-color:#000000;letter-spacing:normal;word-spacing:normal;text-transform:none;writing-mode:lr-tb;direction:ltr;text-orientation:mixed;dominant-baseline:auto;baseline-shift:baseline;text-anchor:start;white-space:normal;shape-padding:0;shape-margin:0;inline-size:0;clip-rule:nonzero;display:inline;overflow:visible;visibility:visible;isolation:auto;mix-blend-mode:normal;color-interpolation:sRGB;color-interpolation-filters:linearRGB;solid-color:#000000;solid-opacity:1;vector-effect:none;fill:#dccc50;fill-opacity:1;fill-rule:nonzero;stroke:none;stroke-width:0.529167;stroke-linecap:round;stroke-linejoin:round;stroke-miterlimit:4;stroke-dasharray:none;stroke-dashoffset:0;stroke-opacity:1;paint-order:markers fill stroke;color-rendering:auto;image-rendering:auto;shape-rendering:auto;text-rendering:auto;enable-background:accumulate;stop-color:#000000" id="path1373"/>
      <rect rx="0.52917022" style="opacity:1;fill:#484c70;fill-opacity:1;stroke:none;stroke-width:1.05833;stroke-linecap:round;stroke-linejoin:round;stroke-miterlimit:4;stroke-dasharray:none;paint-order:markers fill stroke" id="rect1298" width="2.1166575" height="1.5874873" x="-173.03749" y="112.44793" ry="0.52917022"/>
      <path d="m -172.50833,112.44795 c -0.29316,0 -0.52917,0.23601 -0.52917,0.52917 v 0.26458 c 0,-0.29316 0.23601,-0.52916 0.52917,-0.52916 h 1.05833 c 0.29316,0 0.52917,0.236 0.52917,0.52916 v -0.26458 c 0,-0.29316 -0.23601,-0.52917 -0.52917,-0.52917 z" style="opacity:1;fill:#545878;fill-opacity:1;stroke:none;stroke-width:1.05833;stroke-linecap:round;stroke-linejoin:round;stroke-miterlimit:4;stroke-dasharray:none;paint-order:markers fill stroke" id="rect1336"/>
      <path sodipodi:nodetypes="sssssss" id="path1092" style="color:#000000;font-style:normal;font-variant:normal;font-weight:normal;font-stretch:normal;font-size:medium;line-height:normal;font-family:sans-serif;font-variant-ligatures:normal;font-variant-position:normal;font-variant-caps:normal;font-variant-numeric:normal;font-variant-alternates:normal;font-variant-east-asian:normal;font-feature-settings:normal;font-variation-settings:normal;text-indent:0;text-align:start;text-decoration:none;text-decoration-line:none;text-decoration-style:solid;text-decoration-color:#000000;letter-spacing:normal;word-spacing:normal;text-transform:none;writing-mode:lr-tb;direction:ltr;text-orientation:mixed;dominant-baseline:auto;baseline-shift:baseline;text-anchor:start;white-space:normal;shape-padding:0;shape-margin:0;inline-size:0;clip-rule:nonzero;display:inline;overflow:visible;visibility:visible;isolation:auto;mix-blend-mode:normal;color-interpolation:sRGB;color-interpolation-filters:linearRGB;solid-color:#000000;solid-opacity:1;vector-effect:none;fill:#2c2c40;fill-opacity:1;fill-rule:nonzero;stroke:none;stroke-width:0.529167;stroke-linecap:round;stroke-linejoin:round;stroke-miterlimit:4;stroke-dasharray:none;stroke-dashoffset:0;stroke-opacity:1;paint-order:markers fill stroke;color-rendering:auto;image-rendering:auto;shape-rendering:auto;text-rendering:auto;enable-background:accumulate;stop-color:#000000" d="m -171.58229,112.44794 c -0.36187,0 -0.66146,0.29959 -0.66146,0.66146 v 0.26454 c 0,0.36187 0.29959,0.66146 0.66146,0.66146 0.36187,0 0.66146,-0.29959 0.66146,-0.66146 v -0.26454 c 0,-0.36187 -0.29959,-0.66146 -0.66146,-0.66146 z"/>
      <path d="m -171.58229,112.18337 c -0.36187,0 -0.66146,0.29959 -0.66146,0.66146 v 0.26454 c 0,0.36187 0.29959,0.66146 0.66146,0.66146 0.36187,0 0.66146,-0.29959 0.66146,-0.66146 v -0.26454 c 0,-0.36187 -0.29959,-0.66146 -0.66146,-0.66146 z" style="color:#000000;font-style:normal;font-variant:normal;font-weight:normal;font-stretch:normal;font-size:medium;line-height:normal;font-family:sans-serif;font-variant-ligatures:normal;font-variant-position:normal;font-variant-caps:normal;font-variant-numeric:normal;font-variant-alternates:normal;font-variant-east-asian:normal;font-feature-settings:normal;font-variation-settings:normal;text-indent:0;text-align:start;text-decoration:none;text-decoration-line:none;text-decoration-style:solid;text-decoration-color:#000000;letter-spacing:normal;word-spacing:normal;text-transform:none;writing-mode:lr-tb;direction:ltr;text-orientation:mixed;dominant-baseline:auto;baseline-shift:baseline;text-anchor:start;white-space:normal;shape-padding:0;shape-margin:0;inline-size:0;clip-rule:nonzero;display:inline;overflow:visible;visibility:visible;isolation:auto;mix-blend-mode:normal;color-interpolation:sRGB;color-interpolation-filters:linearRGB;solid-color:#000000;solid-opacity:1;vector-effect:none;fill:#3c4060;fill-opacity:1;fill-rule:nonzero;stroke:none;stroke-width:0.529167;stroke-linecap:round;stroke-linejoin:round;stroke-miterlimit:4;stroke-dasharray:none;stroke-dashoffset:0;stroke-opacity:1;paint-order:markers fill stroke;color-rendering:auto;image-rendering:auto;shape-rendering:auto;text-rendering:auto;enable-background:accumulate;stop-color:#000000" id="path1353" sodipodi:nodetypes="sssssss"/>
      <path sodipodi:nodetypes="sssssss" d="m -171.58229,112.44795 c -0.21987,0 -0.39687,0.17701 -0.39687,0.39688 v 0.26455 c 0,0.21987 0.177,0.39687 0.39687,0.39687 0.21987,0 0.39688,-0.177 0.39688,-0.39687 v -0.26455 c 0,-0.21987 -0.17701,-0.39688 -0.39688,-0.39688 z" style="opacity:1;fill:url(#linearGradient1366);fill-opacity:1;stroke:none;stroke-width:1.05833;stroke-linecap:round;stroke-linejoin:round;stroke-miterlimit:4;stroke-dasharray:none;paint-order:markers fill stroke" id="rect1300"/>
      <rect style="opacity:1;fill:#8c8cbc;fill-opacity:1;stroke:none;stroke-width:1.05833;stroke-linecap:round;stroke-linejoin:round;stroke-miterlimit:4;stroke-dasharray:none;paint-order:markers fill stroke" id="rect1304" width="0.79374999" height="0.79374999" x="-171.97917" y="112.44793" ry="0.39687499" rx="0.39687499"/>
      <rect rx="0.39687499" ry="0.39687499" y="112.71251" x="-171.71458" height="0.26458332" width="0.26458332" id="rect1306" style="opacity:1;fill:#101424;fill-opacity:1;stroke:none;stroke-width:1.05833;stroke-linecap:round;stroke-linejoin:round;stroke-miterlimit:4;stroke-dasharray:none;paint-order:markers fill stroke"/>
      <rect style="opacity:1;fill:url(#linearGradient1605);fill-opacity:1;stroke:none;stroke-width:1.05833;stroke-linecap:round;stroke-linejoin:round;stroke-miterlimit:4;stroke-dasharray:none;paint-order:markers fill stroke" id="rect1308" width="3.1750093" height="0.52916664" x="-173.56667" y="116.1521"/>
      <path d="m -171.71458,116.68232 a 0.26460995,0.26460995 0 0 0 -0.26407,0.26355 v 0.52917 a 0.26460995,0.26460995 0 0 0 0.26407,0.26354 h 0.79478 a 0.26460995,0.26460995 0 0 0 0.26355,-0.26354 v -0.52917 a 0.26460995,0.26460995 0 0 0 -0.26355,-0.26355 z" style="color:#000000;font-style:normal;font-variant:normal;font-weight:normal;font-stretch:normal;font-size:medium;line-height:normal;font-family:sans-serif;font-variant-ligatures:normal;font-variant-position:normal;font-variant-caps:normal;font-variant-numeric:normal;font-variant-alternates:normal;font-variant-east-asian:normal;font-feature-settings:normal;font-variation-settings:normal;text-indent:0;text-align:start;text-decoration:none;text-decoration-line:none;text-decoration-style:solid;text-decoration-color:#000000;letter-spacing:normal;word-spacing:normal;text-transform:none;writing-mode:lr-tb;direction:ltr;text-orientation:mixed;dominant-baseline:auto;baseline-shift:baseline;text-anchor:start;white-space:normal;shape-padding:0;shape-margin:0;inline-size:0;clip-rule:nonzero;display:inline;overflow:visible;visibility:visible;isolation:auto;mix-blend-mode:normal;color-interpolation:sRGB;color-interpolation-filters:linearRGB;solid-color:#000000;solid-opacity:1;vector-effect:none;fill:#40405c;fill-opacity:1;fill-rule:nonzero;stroke:none;stroke-width:0.529167;stroke-linecap:round;stroke-linejoin:round;stroke-miterlimit:4;stroke-dasharray:none;stroke-dashoffset:0;stroke-opacity:1;paint-order:markers fill stroke;color-rendering:auto;image-rendering:auto;shape-rendering:auto;text-rendering:auto;enable-background:accumulate;stop-color:#000000" id="path1393"/>
      <rect style="opacity:1;fill:#6074bc;fill-opacity:1;stroke:none;stroke-width:1.05833;stroke-linecap:round;stroke-linejoin:round;stroke-miterlimit:4;stroke-dasharray:none;paint-order:markers fill stroke" id="rect1310" width="0.79374999" height="0.52916664" x="-171.71458" y="116.94585"/>
      <rect style="opacity:1;fill:#48588c;fill-opacity:1;stroke:none;stroke-width:1.05833;stroke-linecap:round;stroke-linejoin:round;stroke-miterlimit:4;stroke-dasharray:none;paint-order:markers fill stroke" id="rect1312" width="0.79374999" height="0.26458332" x="-171.71458" y="116.94585"/>
      <rect style="opacity:1;fill:#2c2c40;fill-opacity:1;stroke:none;stroke-width:1.05833;stroke-linecap:round;stroke-linejoin:round;stroke-miterlimit:4;stroke-dasharray:none;paint-order:markers fill stroke" id="rect1314" width="2.6458333" height="0.26458332" x="-173.30208" y="116.68127"/>
      <path style="opacity:1;fill:#887c20;fill-opacity:1;stroke:none;stroke-width:0.264583px;stroke-linecap:butt;stroke-linejoin:miter;stroke-opacity:1" d="m -173.30208,116.94586 2.64583,1.32292 v 1.05833 l -2.64583,-1.32292 z" id="path1316"/>
      <path d="m -173.0375,113.50625 v 0.26458 c 0,0.29316 0.23601,0.52917 0.52917,0.52917 h 1.05833 c 0.29316,0 0.52917,-0.23601 0.52917,-0.52917 v -0.26458 c 0,0.29316 -0.23601,0.52917 -0.52917,0.52917 h -1.05833 c -0.29316,0 -0.52917,-0.23601 -0.52917,-0.52917 z" style="opacity:1;fill:#3c4060;fill-opacity:1;stroke:none;stroke-width:1.05833;stroke-linecap:round;stroke-linejoin:round;stroke-miterlimit:4;stroke-dasharray:none;paint-order:markers fill stroke" id="rect1327" sodipodi:nodetypes="csssscssc"/>
      <path id="path1382" style="color:#000000;font-style:normal;font-variant:normal;font-weight:normal;font-stretch:normal;font-size:medium;line-height:normal;font-family:sans-serif;font-variant-ligatures:normal;font-variant-position:normal;font-variant-caps:normal;font-variant-numeric:normal;font-variant-alternates:normal;font-variant-east-asian:normal;font-feature-settings:normal;font-variation-settings:normal;text-indent:0;text-align:start;text-decoration:none;text-decoration-line:none;text-decoration-style:solid;text-decoration-color:#000000;letter-spacing:normal;word-spacing:normal;text-transform:none;writing-mode:lr-tb;direction:ltr;text-orientation:mixed;dominant-baseline:auto;baseline-shift:baseline;text-anchor:start;white-space:normal;shape-padding:0;shape-margin:0;inline-size:0;clip-rule:nonzero;display:inline;overflow:visible;visibility:visible;isolation:auto;mix-blend-mode:normal;color-interpolation:sRGB;color-interpolation-filters:linearRGB;solid-color:#000000;solid-opacity:1;vector-effect:none;fill:#dccc50;fill-opacity:1;fill-rule:nonzero;stroke:none;stroke-width:0.529167;stroke-linecap:round;stroke-linejoin:round;stroke-miterlimit:4;stroke-dasharray:none;stroke-dashoffset:0;stroke-opacity:1;paint-order:markers fill stroke;color-rendering:auto;image-rendering:auto;shape-rendering:auto;text-rendering:auto;enable-background:accumulate;stop-color:#000000" d="m -171.71407,114.56513 a 0.26460995,0.26460995 0 0 0 -0.26562,0.26356 v 0.79478 a 0.26460995,0.26460995 0 0 0 0.26562,0.26407 h 0.79271 a 0.26460995,0.26460995 0 0 0 0.26562,-0.26407 v -0.79478 a 0.26460995,0.26460995 0 0 0 -0.26562,-0.26356 z"/>
      <path d="m -171.71458,116.68232 a 0.26460995,0.26460995 0 0 0 -0.26407,0.26355 h 1.3224 a 0.26460995,0.26460995 0 0 0 -0.26355,-0.26355 z" style="opacity:1;fill:#403c58;fill-opacity:1;stroke:none;stroke-width:1.05833;stroke-linecap:round;stroke-linejoin:round;stroke-miterlimit:4;stroke-dasharray:none;paint-order:markers fill stroke" id="rect1400"/>
      <rect y="114.8292" x="-173.56667" height="0.79374999" width="3.175" id="rect1412" style="opacity:1;fill:#dccc50;fill-opacity:1;stroke:none;stroke-width:0.529167;stroke-linecap:round;stroke-linejoin:round;stroke-miterlimit:4;stroke-dasharray:none;paint-order:markers fill stroke"/>
      <path id="path1288" style="opacity:1;fill:#887c20;fill-opacity:1;stroke:none;stroke-width:1.05833;stroke-linecap:round;stroke-linejoin:round;stroke-miterlimit:4;stroke-dasharray:none;paint-order:markers fill stroke" d="m -173.56666,115.35836 c -0.29317,0 -0.52917,0.23601 -0.52917,0.52917 v 3.175 c 0,0.29316 0.236,0.52917 0.52917,0.52917 h 0.26458 v -4.23334 z" sodipodi:nodetypes="ssssccs"/>
      <rect style="opacity:1;fill:#748ce8;fill-opacity:1;stroke:none;stroke-width:1.05833;stroke-linecap:round;stroke-linejoin:round;stroke-miterlimit:4;stroke-dasharray:none;paint-order:markers fill stroke" id="rect1294" width="0.79374999" height="0.79374999" x="-173.03749" y="114.82918"/>
      <rect style="opacity:1;fill:#5874d8;fill-opacity:1;stroke:none;stroke-width:1.05833;stroke-linecap:round;stroke-linejoin:round;stroke-miterlimit:4;stroke-dasharray:none;paint-order:markers fill stroke" id="rect1296" width="0.79374999" height="0.26458332" x="-173.03749" y="114.82918"/>
      <rect y="114.82918" x="-171.71458" height="0.79374999" width="0.79374999" id="rect1384" style="opacity:1;fill:#748ce8;fill-opacity:1;stroke:none;stroke-width:1.05833;stroke-linecap:round;stroke-linejoin:round;stroke-miterlimit:4;stroke-dasharray:none;paint-order:markers fill stroke"/>
      <rect y="114.82918" x="-171.71458" height="0.26458332" width="0.79374999" id="rect1386" style="opacity:1;fill:#5874d8;fill-opacity:1;stroke:none;stroke-width:1.05833;stroke-linecap:round;stroke-linejoin:round;stroke-miterlimit:4;stroke-dasharray:none;paint-order:markers fill stroke"/>
      <path d="m -173.30208,116.94587 v 0.26458 l 2.64583,1.32292 v -0.26458 z" style="opacity:1;fill:#9c9034;fill-opacity:1;stroke:none;stroke-width:0.264583px;stroke-linecap:butt;stroke-linejoin:miter;stroke-opacity:1" id="path1416"/>
      <path d="m -173.30208,118.0042 v 0.26459 l 2.11667,1.05833 h 0.52916 z" style="opacity:1;fill:#2c3044;fill-opacity:1;stroke:none;stroke-width:0.264583px;stroke-linecap:butt;stroke-linejoin:miter;stroke-opacity:1" id="path1419"/>
      <path id="rect1428" style="opacity:1;fill:#887c20;fill-opacity:1;stroke:none;stroke-width:2;stroke-linecap:round;stroke-linejoin:round;stroke-miterlimit:4;stroke-dasharray:none;paint-order:markers fill stroke" d="m -654,433.00195 a 1.0001006,1.0001006 0 0 0 -1,0.93946 V 434 h -1 v 3 h 1 v 0.043 a 1.0001006,1.0001006 0 0 0 1,0.957 z m 8,0 V 438 a 1.0001006,1.0001006 0 0 0 1,-0.95703 V 437 h 1 v -3 h -1 v -0.0586 a 1.0001006,1.0001006 0 0 0 -1,-0.93946 z M -656,439 v 2 h 1 1 v -2 h -1 z m 10,0 v 2 h 1 1 v -2 h -1 z" transform="scale(0.26458333)"/>
      <path d="m -173.30208,116.94587 v 1.05833 l 0.26458,0.13229 v -1.05833 z" style="opacity:1;fill:#70681c;fill-opacity:1;stroke:none;stroke-width:0.529167;stroke-linecap:round;stroke-linejoin:round;stroke-miterlimit:4;stroke-dasharray:none;paint-order:markers fill stroke" id="rect1440"/>
      <path d="m -173.83125,115.43123 c -0.15764,0.0914 -0.26458,0.26023 -0.26458,0.45631 v 3.175 c 0,0.19607 0.10694,0.36487 0.26458,0.4563 z" style="opacity:1;fill:#a0983c;fill-opacity:1;stroke:none;stroke-width:1.05833;stroke-linecap:round;stroke-linejoin:round;stroke-miterlimit:4;stroke-dasharray:none;paint-order:markers fill stroke" id="path1463"/>
      <path id="path1290" style="opacity:1;fill:#d0bc30;fill-opacity:1;stroke:none;stroke-width:1.05833;stroke-linecap:round;stroke-linejoin:round;stroke-miterlimit:4;stroke-dasharray:none;paint-order:markers fill stroke" d="m -173.56666,112.18336 c -0.29317,0 -0.52917,0.23601 -0.52917,0.52917 v 3.175 c 0,0.29315 0.236,0.52917 0.52917,0.52917 h 0.26458 v -4.23334 z" sodipodi:nodetypes="ssssccs"/>
      <path d="m -173.56666,112.18337 c -0.29317,0 -0.52917,0.236 -0.52917,0.52917 v 3.175 c 0,0.19606 0.10694,0.36487 0.26458,0.4563 v -3.6313 c 0,-0.14658 0.11801,-0.26459 0.26459,-0.26459 h 0.26458 v -0.26458 z" style="opacity:1;fill:#dccc50;fill-opacity:1;stroke:none;stroke-width:1.05833;stroke-linecap:round;stroke-linejoin:round;stroke-miterlimit:4;stroke-dasharray:none;paint-order:markers fill stroke" id="path1455"/>
      <path sodipodi:nodetypes="ssssccs" d="m -170.39167,115.35836 c 0.29317,0 0.52917,0.23601 0.52917,0.52917 v 3.175 c 0,0.29316 -0.236,0.52917 -0.52917,0.52917 h -0.26458 v -4.23334 z" style="opacity:1;fill:#887c20;fill-opacity:1;stroke:none;stroke-width:1.05833;stroke-linecap:round;stroke-linejoin:round;stroke-miterlimit:4;stroke-dasharray:none;paint-order:markers fill stroke" id="path1467"/>
      <path id="path1469" style="opacity:1;fill:#a0983c;fill-opacity:1;stroke:none;stroke-width:1.05833;stroke-linecap:round;stroke-linejoin:round;stroke-miterlimit:4;stroke-dasharray:none;paint-order:markers fill stroke" d="m -170.12708,115.43123 c 0.15764,0.0914 0.26458,0.26023 0.26458,0.45631 v 3.175 c 0,0.19607 -0.10694,0.36487 -0.26458,0.4563 z"/>
      <path sodipodi:nodetypes="ssssccs" d="m -170.39167,112.18336 c 0.29317,0 0.52917,0.23601 0.52917,0.52917 v 3.175 c 0,0.29315 -0.236,0.52917 -0.52917,0.52917 h -0.26458 v -4.23334 z" style="opacity:1;fill:#d0bc30;fill-opacity:1;stroke:none;stroke-width:1.05833;stroke-linecap:round;stroke-linejoin:round;stroke-miterlimit:4;stroke-dasharray:none;paint-order:markers fill stroke" id="path1471"/>
      <path id="path1473" style="opacity:1;fill:#dccc50;fill-opacity:1;stroke:none;stroke-width:1.05833;stroke-linecap:round;stroke-linejoin:round;stroke-miterlimit:4;stroke-dasharray:none;paint-order:markers fill stroke" d="m -170.39167,112.18337 c 0.29317,0 0.52917,0.236 0.52917,0.52917 v 3.175 c 0,0.19606 -0.10694,0.36487 -0.26458,0.4563 v -3.6313 c 0,-0.14658 -0.11801,-0.26459 -0.26459,-0.26459 h -0.26458 v -0.26458 z"/>
      <path id="path1475" style="opacity:1;fill:#70681c;fill-opacity:1;stroke:none;stroke-width:0.529167;stroke-linecap:round;stroke-linejoin:round;stroke-miterlimit:4;stroke-dasharray:none;paint-order:markers fill stroke" d="m -170.65625,119.32712 v -1.05833 l -0.26458,-0.13229 v 1.05833 z"/>
    </g>
  </g>
</svg>