<?xml version="1.0" encoding="UTF-8" standalone="no"?>
<!-- Created with Inkscape (http://www.inkscape.org/) -->

<svg
   width="0.18520834mm"
   height="0.42755574mm"
   viewBox="0 0 0.18520834 0.42755574"
   version="1.1"
   id="svg32907"
   inkscape:version="1.1 (c68e22c387, 2021-05-23)"
   sodipodi:docname="fence_ver_castle.svg"
   xmlns:inkscape="http://www.inkscape.org/namespaces/inkscape"
   xmlns:sodipodi="http://sodipodi.sourceforge.net/DTD/sodipodi-0.dtd"
   xmlns="http://www.w3.org/2000/svg"
   xmlns:svg="http://www.w3.org/2000/svg">
  <sodipodi:namedview
     id="namedview32909"
     pagecolor="#ffffff"
     bordercolor="#999999"
     borderopacity="1"
     inkscape:pageshadow="0"
     inkscape:pageopacity="0"
     inkscape:pagecheckerboard="0"
     inkscape:document-units="mm"
     showgrid="false"
     inkscape:zoom="198.86689"
     inkscape:cx="0.52799136"
     inkscape:cy="1.3199784"
     inkscape:window-width="1920"
     inkscape:window-height="1057"
     inkscape:window-x="-8"
     inkscape:window-y="-8"
     inkscape:window-maximized="1"
     inkscape:current-layer="layer1" />
  <defs
     id="defs32904" />
  <g
     inkscape:label="Layer 1"
     inkscape:groupmode="layer"
     id="layer1"
     transform="translate(-106.4575,-128.55693)">
    <g
       id="g203000"
       transform="matrix(0.0499982,0,0,0.05,30.326384,133.15167)"
       style="stroke-width:20.0004">
      <path
         id="rect191504"
         style="opacity:1;fill:#502038;fill-opacity:1;stroke-width:21.167;stroke-linecap:round;stroke-linejoin:round;paint-order:markers stroke fill"
         d="m 1526.3813,-83.343749 h -3.7042 v -7.408335 c 0,-0.586316 0.472,-1.058333 1.0584,-1.058333 h 1.5876 c 0.5863,0 1.0583,0.472017 1.0583,1.058333"
         sodipodi:nodetypes="ccsssc" />
      <path
         id="rect189835"
         style="opacity:1;fill:#542844;fill-opacity:1;stroke:none;stroke-width:80.0012;stroke-linecap:round;stroke-linejoin:round;stroke-miterlimit:4;stroke-dasharray:none;stroke-opacity:1;paint-order:markers stroke fill"
         d="m 5757,-321 v 4 h 10 v -4 c 0,1.662 -1.338,3 -3,3 h -4 c -1.662,0 -3,-1.338 -3,-3 z"
         transform="scale(0.26458333)" />
      <rect
         style="opacity:1;fill:#9c6000;fill-opacity:1;stroke:none;stroke-width:21.167;stroke-linecap:round;stroke-linejoin:round;stroke-miterlimit:4;stroke-dasharray:none;stroke-opacity:1;paint-order:markers stroke fill"
         id="rect179768"
         width="2.6458333"
         height="5.8208332"
         x="1523.2062"
         y="-90.487495"
         ry="0.79374981" />
      <rect
         style="opacity:1;fill:#dca450;fill-opacity:1;stroke:none;stroke-width:21.167;stroke-linecap:round;stroke-linejoin:round;stroke-miterlimit:4;stroke-dasharray:none;stroke-opacity:1;paint-order:markers stroke fill"
         id="rect179770"
         width="2.6458333"
         height="5.8208332"
         x="1523.2062"
         y="-91.28125"
         ry="0.79374981" />
      <rect
         style="opacity:1;fill:#cc9418;fill-opacity:1;stroke:none;stroke-width:21.167;stroke-linecap:round;stroke-linejoin:round;stroke-miterlimit:4;stroke-dasharray:none;stroke-opacity:1;paint-order:markers stroke fill"
         id="rect179772"
         width="1.5875"
         height="4.7624998"
         x="1523.7354"
         y="-90.752083" />
      <rect
         style="opacity:1;fill:#ac7c08;fill-opacity:1;stroke:none;stroke-width:21.167;stroke-linecap:round;stroke-linejoin:round;stroke-miterlimit:4;stroke-dasharray:none;stroke-opacity:1;paint-order:markers stroke fill"
         id="rect179774"
         width="1.5874553"
         height="2.9104145"
         x="1523.7355"
         y="-88.900002"
         ry="0.79374999" />
      <path
         style="fill:#684408;fill-opacity:1;fill-rule:nonzero;stroke:none;stroke-width:1.05836;stroke-linecap:round;stroke-linejoin:round;stroke-miterlimit:4;stroke-dasharray:none;stroke-dashoffset:0;stroke-opacity:1;paint-order:markers stroke fill"
         d="m 1524.5292,-89.428601 c -0.4306,0 -0.7932,0.362204 -0.7932,0.792696 v 0.793225 c 0,0.430571 0.3626,0.79476 0.7932,0.79476 0.4306,0 0.7927,-0.364189 0.7927,-0.79476 v -0.793225 c 0,-0.430492 -0.3621,-0.792696 -0.7927,-0.792696 z"
         id="path179776"
         inkscape:connector-curvature="0" />
      <rect
         style="fill:#745004;fill-opacity:1;fill-rule:nonzero;stroke:none;stroke-width:1.05835;stroke-linecap:round;stroke-linejoin:round;stroke-miterlimit:4;stroke-dasharray:none;stroke-dashoffset:0;stroke-opacity:1;paint-order:markers stroke fill"
         id="rect179778"
         width="0.52916008"
         height="1.3229042"
         x="1524.2646"
         y="-88.900475"
         ry="0.26457596" />
      <path
         style="fill:#986c04;fill-opacity:1;fill-rule:nonzero;stroke:none;stroke-width:1.05836;stroke-linecap:round;stroke-linejoin:round;stroke-miterlimit:4;stroke-dasharray:none;stroke-dashoffset:0;stroke-opacity:1;paint-order:markers stroke fill"
         d="m 1524.5292,-88.900481 v 1.32288 c 0.1466,0 0.2646,-0.118001 0.2646,-0.264576 v -0.793728 c 0,-0.146575 -0.118,-0.264576 -0.2646,-0.264576 z"
         id="path179780"
         inkscape:connector-curvature="0" />
      <path
         style="color:#000000;fill:#68440c;stroke-width:20.0004;stroke-linecap:round;stroke-linejoin:round;-inkscape-stroke:none;paint-order:markers stroke fill"
         d="m 1525.3398,-91.562055 c -0.4437,-0.44378 -1.1776,-0.44371 -1.6213,0 l -0.529,0.528987 c -0.4437,0.443709 -0.4424,1.176201 0,1.619981 l 0.5289,0.528916 c 0.4438,0.44378 1.1749,0.44378 1.6186,7.1e-5 l 0.529,-0.528987 c 0.4437,-0.443709 0.4451,-1.176272 0,-1.620052 z"
         id="path33027"
         sodipodi:nodetypes="csscssscc" />
      <path
         style="color:#000000;fill:#9c6c04;stroke-width:15.8753;stroke-linecap:round;stroke-linejoin:round;-inkscape-stroke:none;paint-order:markers stroke fill"
         d="m 1525.0583,-91.281263 0.5293,0.52927 c 0.2932,0.293166 0.2931,0.76516 0,1.058256 l -0.5293,0.529269 c -0.2931,0.293166 -0.765,0.293166 -1.0582,0 l -0.5293,-0.529269 c -0.2931,-0.293167 -0.2931,-0.76509 0,-1.058256 l 0.5293,-0.52927 c 0.2931,-0.293096 0.7651,-0.293166 1.0582,0 z"
         id="path33029" />
      <path
         id="path179784"
         style="fill:#cc9004;fill-opacity:1;stroke:none;stroke-width:15.8753;stroke-linecap:round;stroke-linejoin:round;stroke-miterlimit:4;stroke-dasharray:none;stroke-opacity:1;paint-order:markers stroke fill"
         d="m 1524.5112,-91.500977 c -0.01,2.25e-4 -0.018,5.29e-4 -0.028,0.0011 l -0.2186,0.218567 c -0.2931,0.293137 -0.2931,0.765196 0,1.058334 l 0.5292,0.529166 c 0.1583,0.158345 0.3688,0.231315 0.5751,0.218591 l 0.2186,-0.218591 c 0.2932,-0.293137 0.2932,-0.765196 0,-1.058333 l -0.5291,-0.529167 c -0.1512,-0.151148 -0.3501,-0.224348 -0.5473,-0.219625 z" />
    </g>
  </g>
</svg>
