<?xml version="1.0" encoding="UTF-8" standalone="no"?>
<svg
   xmlns:dc="http://purl.org/dc/elements/1.1/"
   xmlns:cc="http://creativecommons.org/ns#"
   xmlns:rdf="http://www.w3.org/1999/02/22-rdf-syntax-ns#"
   xmlns:svg="http://www.w3.org/2000/svg"
   xmlns="http://www.w3.org/2000/svg"
   xmlns:sodipodi="http://sodipodi.sourceforge.net/DTD/sodipodi-0.dtd"
   xmlns:inkscape="http://www.inkscape.org/namespaces/inkscape"
   inkscape:version="1.0 (4035a4fb49, 2020-05-01)"
   id="svg3893"
   version="1.1"
   viewBox="0 0 1.4287499 1.4287505"
   height="1.4287505mm"
   width="1.4287499mm"
   sodipodi:docname="mega_spawn.svg">
  <defs
     id="defs3887" />
  <sodipodi:namedview
     showgrid="false"
     inkscape:document-rotation="0"
     inkscape:current-layer="layer1"
     inkscape:document-units="px"
     inkscape:cy="0.80123664"
     inkscape:cx="-5.0365731"
     inkscape:zoom="7.9195959"
     inkscape:pageshadow="2"
     inkscape:pageopacity="0.0"
     borderopacity="1.0"
     bordercolor="#666666"
     pagecolor="#ffffff"
     id="base"
     inkscape:window-width="1920"
     inkscape:window-height="1057"
     inkscape:window-x="-8"
     inkscape:window-y="-8"
     inkscape:window-maximized="1" />
  <metadata
     id="metadata3890">
    <rdf:RDF>
      <cc:Work
         rdf:about="">
        <dc:format>image/svg+xml</dc:format>
        <dc:type
           rdf:resource="http://purl.org/dc/dcmitype/StillImage" />
        <dc:title />
      </cc:Work>
    </rdf:RDF>
  </metadata>
  <g
     id="layer1"
     inkscape:groupmode="layer"
     inkscape:label="Layer 1"
     transform="translate(13.53155,-139.17082)">
    <g
       id="g1672"
       transform="matrix(0.04999999,0,0,0.04999999,-7.5122798,138.28447)">
      <path
         d="m -106.14184,17.727083 a 14.2875,14.2875 0 0 0 -14.24358,14.2875 14.2875,14.2875 0 0 0 14.2875,14.2875 14.2875,14.2875 0 0 0 14.287504,-14.2875 14.2875,14.2875 0 0 0 -14.287504,-14.2875 14.2875,14.2875 0 0 0 -0.0439,0 z m 0.03,1.058333 a 13.229173,13.229173 0 0 1 0.0139,0 13.229173,13.229173 0 0 1 13.229163,13.229167 13.229173,13.229173 0 0 1 -13.229163,13.229166 13.229173,13.229173 0 0 1 -13.22917,-13.229166 13.229173,13.229173 0 0 1 13.21522,-13.229167 z"
         style="fill:#a40c10;fill-opacity:1;stroke:none;stroke-width:3.2657;stroke-linecap:round;stroke-linejoin:round;stroke-miterlimit:4;stroke-dasharray:none;paint-order:markers stroke fill"
         id="circle1640" />
      <path
         d="m -106.11187,18.785416 a 13.229173,13.229173 0 0 0 -13.21521,13.229167 13.229173,13.229173 0 0 0 13.22916,13.229166 13.229173,13.229173 0 0 0 13.229171,-13.229166 13.229173,13.229173 0 0 0 -13.229171,-13.229167 13.229173,13.229173 0 0 0 -0.0139,0 z m 0.0139,1.5875 a 11.641673,11.641673 0 0 1 11.641671,11.641667 11.641673,11.641673 0 0 1 -11.641671,11.641666 11.641673,11.641673 0 0 1 -11.64166,-11.641666 11.641673,11.641673 0 0 1 11.64166,-11.641667 z"
         style="fill:#e85054;fill-opacity:1;stroke:none;stroke-width:3.02379;stroke-linecap:round;stroke-linejoin:round;stroke-miterlimit:4;stroke-dasharray:none;paint-order:markers stroke fill"
         id="circle1642" />
      <circle
         style="fill:#6c2024;fill-opacity:0.501961;stroke:none;stroke-width:2.66094;stroke-linecap:round;stroke-linejoin:round;stroke-miterlimit:4;stroke-dasharray:none;paint-order:markers stroke fill"
         id="circle1644"
         cx="-106.09792"
         cy="32.014587"
         r="11.641673" />
      <path
         id="path1646"
         style="color:#000000;font-style:normal;font-variant:normal;font-weight:normal;font-stretch:normal;font-size:medium;line-height:normal;font-family:sans-serif;font-variant-ligatures:normal;font-variant-position:normal;font-variant-caps:normal;font-variant-numeric:normal;font-variant-alternates:normal;font-variant-east-asian:normal;font-feature-settings:normal;font-variation-settings:normal;text-indent:0;text-align:start;text-decoration:none;text-decoration-line:none;text-decoration-style:solid;text-decoration-color:#000000;letter-spacing:normal;word-spacing:normal;text-transform:none;writing-mode:lr-tb;direction:ltr;text-orientation:mixed;dominant-baseline:auto;baseline-shift:baseline;text-anchor:start;white-space:normal;shape-padding:0;shape-margin:0;inline-size:0;clip-rule:nonzero;display:inline;overflow:visible;visibility:visible;isolation:auto;mix-blend-mode:normal;color-interpolation:sRGB;color-interpolation-filters:linearRGB;solid-color:#000000;solid-opacity:1;vector-effect:none;fill:#000000;fill-opacity:1;fill-rule:nonzero;stroke:none;stroke-width:0.864333;stroke-linecap:butt;stroke-linejoin:round;stroke-miterlimit:4;stroke-dasharray:none;stroke-dashoffset:0;stroke-opacity:1;color-rendering:auto;image-rendering:auto;shape-rendering:auto;text-rendering:auto;enable-background:accumulate;stop-color:#000000"
         d="m -110.84744,26.848663 c -0.1269,-0.0035 -0.25389,-0.0031 -0.38067,0.0014 -0.67632,0.02311 -1.35176,0.152226 -1.99034,0.376458 -0.19279,0.06773 -0.31181,0.26121 -0.28531,0.463823 0.15003,1.143938 0.71548,2.700554 1.26697,3.810164 -0.14128,0.161825 -0.27405,0.329813 -0.39629,0.504336 -0.99923,0.165725 -2.53746,0.531641 -3.59873,1.7101 -0.15418,0.171363 -0.14675,0.43357 0.0169,0.59592 0.78305,0.776218 1.74483,1.274414 2.54785,1.798729 0.0455,0.505152 0.15296,0.997524 0.33763,1.463207 0.36611,0.923111 1.04662,1.731909 2.08319,2.273945 0.1156,0.06045 0.23732,0.113319 0.36084,0.16375 0.0162,0.0089 0.033,0.01684 0.0502,0.02363 0.0479,0.01893 0.0513,0.01975 0.01,0.0033 0.0402,0.01579 0.0506,0.01833 0.0317,0.01098 0.13134,0.05069 0.26831,0.09834 0.41147,0.141385 0.0675,0.02027 0.12222,0.03269 0.15997,0.04305 v -4.23e-4 c 0.0972,0.02667 0.19979,0.05492 0.31188,0.0806 0.0702,0.01608 0.13344,0.02779 0.18696,0.03883 0.0991,0.02047 0.20365,0.04197 0.31569,0.06119 0.0729,0.01251 0.14086,0.02189 0.20216,0.03123 0.0974,0.01482 0.1982,0.03042 0.30513,0.04389 0.0812,0.01025 0.15916,0.01814 0.23339,0.02616 0.0995,0.01075 0.20132,0.02132 0.30639,0.03038 0.0713,0.0061 0.14089,0.01112 0.20849,0.01604 0.10721,0.0078 0.21549,0.0156 0.32666,0.02152 0.0802,0.0042 0.15938,0.0073 0.23761,0.01056 0.0968,0.0039 0.19402,0.0076 0.29289,0.01014 0.0833,0.0022 0.16638,0.0036 0.24943,0.0047 0.0989,0.0014 0.19693,0.0018 0.29458,0.0018 0.0801,-4e-5 0.15957,-3.93e-4 0.23973,-0.0014 0.0947,-0.0011 0.18875,-0.0024 0.28276,-0.0047 0.0686,-0.0016 0.13544,-0.0038 0.20257,-0.0059 0.22985,-0.0071 0.44281,-0.01996 0.65333,-0.03207 0.12062,-0.0069 0.25127,-0.01209 0.38194,-0.02151 0.21103,-0.01525 0.39976,-0.03337 0.58663,-0.05149 0.0875,-0.0085 0.19272,-0.01583 0.29458,-0.02701 0.26954,-0.02954 0.51537,-0.06112 0.72886,-0.09369 0.89555,-0.136636 1.67331,-0.397966 2.24524,-0.914981 0.57151,-0.51662 0.8859,-1.285571 0.87954,-2.248622 l -10.59149,-10.359358 z"
         sodipodi:nodetypes="ccccccccccscccccccscsssscsccccccccccscssccc" />
      <path
         id="path1648"
         style="color:#000000;font-style:normal;font-variant:normal;font-weight:normal;font-stretch:normal;font-size:medium;line-height:normal;font-family:sans-serif;font-variant-ligatures:normal;font-variant-position:normal;font-variant-caps:normal;font-variant-numeric:normal;font-variant-alternates:normal;font-variant-east-asian:normal;font-feature-settings:normal;font-variation-settings:normal;text-indent:0;text-align:start;text-decoration:none;text-decoration-line:none;text-decoration-style:solid;text-decoration-color:#000000;letter-spacing:normal;word-spacing:normal;text-transform:none;writing-mode:lr-tb;direction:ltr;text-orientation:mixed;dominant-baseline:auto;baseline-shift:baseline;text-anchor:start;white-space:normal;shape-padding:0;shape-margin:0;inline-size:0;clip-rule:nonzero;display:inline;overflow:visible;visibility:visible;isolation:auto;mix-blend-mode:normal;color-interpolation:sRGB;color-interpolation-filters:linearRGB;solid-color:#000000;solid-opacity:1;vector-effect:none;fill:#000000;fill-opacity:1;fill-rule:nonzero;stroke:none;stroke-width:1.05833;stroke-linecap:butt;stroke-linejoin:round;stroke-miterlimit:4;stroke-dasharray:none;stroke-dashoffset:0;stroke-opacity:1;color-rendering:auto;image-rendering:auto;shape-rendering:auto;text-rendering:auto;enable-background:accumulate;stop-color:#000000"
         d="m -109.62845,22.577683 c -0.15538,-0.0043 -0.31086,-0.0038 -0.46612,0.0016 -0.82811,0.0283 -1.65515,0.186394 -2.43706,0.460955 a 0.52921958,0.52921958 0 0 0 -0.34933,0.567925 c 0.20755,1.582619 1.06502,3.813546 1.8128,5.167125 -1.03448,0.156276 -3.54838,0.427694 -5.15317,2.209683 a 0.52921958,0.52921958 0 0 0 0.0207,0.729674 c 1.09401,1.084461 2.47279,1.725541 3.52278,2.476852 a 0.52921958,0.52921958 0 0 0 0.81236,-0.27027 l 1.41955,-4.46846 a 0.52921958,0.52921958 0 0 0 0.0109,-0.28112 0.52921958,0.52921958 0 0 0 0.0672,-0.0186 l 6.06991,-2.148189 a 0.52921958,0.52921958 0 0 0 0.3142,-0.6966 c -1.01205,-2.508946 -3.3139,-3.665678 -5.64462,-3.730522 z" />
      <path
         sodipodi:nodetypes="cccc"
         id="path1650"
         d="m -112.35629,23.539428 c 0.19562,1.491595 1.09682,3.859662 1.81183,5.114888 l 6.06955,-2.148087 c -1.32369,-3.281534 -4.95492,-3.994398 -7.88138,-2.966801 z"
         style="fill:#94ec18;fill-opacity:1;stroke:none;stroke-width:0.264583px;stroke-linecap:butt;stroke-linejoin:miter;stroke-opacity:1" />
      <path
         sodipodi:nodetypes="cccc"
         id="path1652"
         d="m -115.82793,31.338924 c 1.00598,0.997196 2.35127,1.630359 3.45781,2.422131 l 1.41986,-4.468415 c -1.04375,0.159948 -3.43107,0.439945 -4.87767,2.046284 z"
         style="fill:#54d404;fill-opacity:1;stroke:none;stroke-width:0.264583px;stroke-linecap:butt;stroke-linejoin:miter;stroke-opacity:1" />
      <path
         id="path1654"
         d="m -101.59475,31.95356 1.635948,2.108171 -3.428968,1.747935 -2.56368,-3.752559 z"
         style="fill:#000000;stroke:none;stroke-width:0.264583px;stroke-linecap:butt;stroke-linejoin:miter;stroke-opacity:1" />
      <path
         id="path1656"
         style="fill:#f0ff28;fill-opacity:1;stroke:none;stroke-width:0.264583px;stroke-linecap:butt;stroke-linejoin:miter;stroke-opacity:1"
         d="m -110.07648,23.107884 c -0.77265,0.0264 -1.54835,0.174599 -2.27997,0.431499 0.0117,0.08949 0.0335,0.19091 0.0501,0.286287 2.94303,-0.197935 5.54867,0.430617 6.93756,2.996715 l 0.894,-0.316259 c -0.99277,-2.461151 -3.28379,-3.477445 -5.60172,-3.398242 z" />
      <path
         id="path1714-5"
         style="color:#000000;font-style:normal;font-variant:normal;font-weight:normal;font-stretch:normal;font-size:medium;line-height:normal;font-family:sans-serif;font-variant-ligatures:normal;font-variant-position:normal;font-variant-caps:normal;font-variant-numeric:normal;font-variant-alternates:normal;font-variant-east-asian:normal;font-feature-settings:normal;font-variation-settings:normal;text-indent:0;text-align:start;text-decoration:none;text-decoration-line:none;text-decoration-style:solid;text-decoration-color:#000000;letter-spacing:normal;word-spacing:normal;text-transform:none;writing-mode:lr-tb;direction:ltr;text-orientation:mixed;dominant-baseline:auto;baseline-shift:baseline;text-anchor:start;white-space:normal;shape-padding:0;shape-margin:0;inline-size:0;clip-rule:nonzero;display:inline;overflow:visible;visibility:visible;isolation:auto;mix-blend-mode:normal;color-interpolation:sRGB;color-interpolation-filters:linearRGB;solid-color:#000000;solid-opacity:1;vector-effect:none;fill:#000000;fill-opacity:1;fill-rule:nonzero;stroke:none;stroke-width:1.05833;stroke-linecap:butt;stroke-linejoin:round;stroke-miterlimit:4;stroke-dasharray:none;stroke-dashoffset:0;stroke-opacity:1;color-rendering:auto;image-rendering:auto;shape-rendering:auto;text-rendering:auto;enable-background:accumulate;stop-color:#000000"
         d="m -105.46334,25.686538 c -1.03519,0.01884 -2.0577,0.144896 -2.91403,0.494027 -2.58766,1.055 -4.35178,3.300328 -4.66431,5.883878 -0.15193,1.256017 -0.0741,2.5138 0.37413,3.644223 0.44827,1.130419 1.2815,2.121133 2.55075,2.784843 0.14532,0.07599 0.2982,0.142555 0.45372,0.205671 a 0.52921958,0.52921958 0 0 0 0.0501,0.02379 c -0.0278,-0.01098 -0.0267,-0.01071 0.003,0.0011 a 0.52921958,0.52921958 0 0 0 10e-4,0 c 0.0829,0.03273 0.13875,0.04814 0.16122,0.05633 0.11648,0.04246 0.24213,0.08791 0.38241,0.130225 0.093,0.02804 0.17402,0.04739 0.23771,0.0646 0.10435,0.02817 0.21809,0.06002 0.34624,0.0894 0.0949,0.02175 0.1813,0.03723 0.25476,0.05219 0.10825,0.02207 0.22325,0.04617 0.34778,0.0677 0.10232,0.01767 0.20072,0.03208 0.29352,0.04599 0.10961,0.01643 0.22264,0.03309 0.34158,0.04806 0.0933,0.01175 0.18412,0.02148 0.27182,0.03101 0.12511,0.0136 0.2537,0.02724 0.38706,0.03876 0.0938,0.0081 0.18442,0.01434 0.27233,0.02066 0.12692,0.0092 0.25598,0.01831 0.38758,0.02532 0.0893,0.0048 0.17576,0.0079 0.25993,0.01138 0.14003,0.0058 0.2807,0.01109 0.42323,0.01447 0.0772,0.0019 0.15497,0.0034 0.23461,0.0047 0.1356,0.0019 0.27033,0.0027 0.40463,0.0026 0.0922,-7e-5 0.18374,-5.29e-4 0.27543,-0.0016 0.13442,-0.0013 0.26765,-0.0034 0.40153,-0.0067 0.0589,-0.0013 0.11813,-0.0028 0.1788,-0.0047 0.29808,-0.0091 0.57493,-0.02651 0.84698,-0.04237 0.13692,-0.008 0.28799,-0.01318 0.44183,-0.02429 0.26433,-0.01908 0.50004,-0.04256 0.73174,-0.06511 0.10301,-0.01003 0.22754,-0.01881 0.3483,-0.03204 0.33003,-0.03618 0.63104,-0.07484 0.89245,-0.114723 1.09654,-0.167304 2.048877,-0.487286 2.749187,-1.120344 0.699775,-0.632574 1.084728,-1.574111 1.076936,-2.75332 -2.64e-4,-0.518668 -0.196897,-0.896644 -0.355533,-1.207162 a 0.52921958,0.52921958 0 0 0 -0.715213,-0.228928 c -0.171574,0.089 -0.424233,0.207496 -0.631486,0.309025 -0.247731,-0.521173 -0.561021,-0.958838 -0.877471,-1.295546 a 0.52921958,0.52921958 0 0 0 -0.6196,-0.11214 c -0.8772,0.433041 -1.53722,0.917973 -2.04483,1.289844 -0.22715,-0.187486 -0.60727,-0.405098 -1.17513,-0.737423 0.99491,-0.493993 1.98753,-0.990915 2.95331,-1.514636 0.37779,0.184865 0.74599,0.386569 1.08831,0.688848 a 0.52921958,0.52921958 0 0 0 0.778759,-0.08578 c 0.358759,-0.494032 0.559398,-0.98483 0.719336,-1.458824 0.3394,-0.0029 0.682916,-0.0021 1.04593,0 a 0.52921958,0.52921958 0 0 0 0.479557,-0.759646 c -0.503946,-1.042663 -1.214943,-1.969394 -2.144569,-2.749703 a 0.52921958,0.52921958 0 0 0 -0.481103,-0.104902 l -1.19063,0.329695 -0.14418,-0.789099 a 0.52921958,0.52921958 0 0 0 -0.25269,-0.361217 c -0.2217,-0.130038 -0.45496,-0.196324 -0.79014,-0.284221 -0.33517,-0.0879 -0.74898,-0.175548 -1.21749,-0.253214 -0.93706,-0.155332 -2.09007,-0.271362 -3.22875,-0.250632 z" />
      <path
         sodipodi:nodetypes="cccczzzcccccc"
         id="path1660"
         d="m -96.490234,30.379839 c -0.472879,-0.978376 -1.134245,-1.841565 -2.007996,-2.574964 l -1.74814,0.484283 -0.24805,-1.358353 c -0.65528,-0.384366 -5.2596,-1.248749 -7.68292,-0.260747 -2.42333,0.988001 -4.05012,3.073369 -4.33858,5.457921 -0.28845,2.384552 0.31445,4.678025 2.6445,5.896445 2.33004,1.21841 7.22575,0.90562 9.30613,0.58821 -6.5872,-1.659137 -4.79974,-1.868758 -6.44922,-3.980565 2.3302,-1.13603 4.6854,-2.252051 6.90988,-3.472656 0.492783,0.21798 0.969103,0.501814 1.417411,0.897694 0.4058,-0.55881 0.611404,-1.11762 0.774682,-1.67643 0.456892,-0.01749 0.94521,-0.0036 1.422303,-8.38e-4 z"
         style="fill:#b84ce8;fill-opacity:1;stroke:none;stroke-width:0.264583px;stroke-linecap:butt;stroke-linejoin:miter;stroke-opacity:1" />
      <path
         id="path1768"
         d="m -101.09998,29.759287 c 0,1.097462 -0.88965,1.987129 -1.98712,1.987132 -1.09747,-3e-6 -1.98712,-0.88967 -1.98712,-1.987132 0,-1.097462 0.88965,-1.987129 1.98712,-1.987132 1.09747,3e-6 1.98712,0.88967 1.98712,1.987132"
         style="color:#000000;font-style:normal;font-variant:normal;font-weight:normal;font-stretch:normal;font-size:medium;line-height:normal;font-family:sans-serif;font-variant-ligatures:normal;font-variant-position:normal;font-variant-caps:normal;font-variant-numeric:normal;font-variant-alternates:normal;font-variant-east-asian:normal;font-feature-settings:normal;font-variation-settings:normal;text-indent:0;text-align:start;text-decoration:none;text-decoration-line:none;text-decoration-style:solid;text-decoration-color:#000000;letter-spacing:normal;word-spacing:normal;text-transform:none;writing-mode:lr-tb;direction:ltr;text-orientation:mixed;dominant-baseline:auto;baseline-shift:baseline;text-anchor:start;white-space:normal;shape-padding:0;shape-margin:0;inline-size:0;clip-rule:nonzero;display:inline;overflow:visible;visibility:visible;isolation:auto;mix-blend-mode:normal;color-interpolation:sRGB;color-interpolation-filters:linearRGB;solid-color:#000000;solid-opacity:1;vector-effect:none;fill:#000000;fill-opacity:1;fill-rule:nonzero;stroke:none;stroke-width:0.996254;stroke-linecap:round;stroke-linejoin:round;stroke-miterlimit:4;stroke-dasharray:none;stroke-dashoffset:0;stroke-opacity:1;paint-order:markers stroke fill;color-rendering:auto;image-rendering:auto;shape-rendering:auto;text-rendering:auto;enable-background:accumulate;stop-color:#000000" />
      <path
         style="color:#000000;font-style:normal;font-variant:normal;font-weight:normal;font-stretch:normal;font-size:medium;line-height:normal;font-family:sans-serif;font-variant-ligatures:normal;font-variant-position:normal;font-variant-caps:normal;font-variant-numeric:normal;font-variant-alternates:normal;font-variant-east-asian:normal;font-feature-settings:normal;font-variation-settings:normal;text-indent:0;text-align:start;text-decoration:none;text-decoration-line:none;text-decoration-style:solid;text-decoration-color:#000000;letter-spacing:normal;word-spacing:normal;text-transform:none;writing-mode:lr-tb;direction:ltr;text-orientation:mixed;dominant-baseline:auto;baseline-shift:baseline;text-anchor:start;white-space:normal;shape-padding:0;shape-margin:0;inline-size:0;clip-rule:nonzero;display:inline;overflow:visible;visibility:visible;isolation:auto;mix-blend-mode:normal;color-interpolation:sRGB;color-interpolation-filters:linearRGB;solid-color:#000000;solid-opacity:1;vector-effect:none;fill:#ffffff;fill-opacity:1;fill-rule:nonzero;stroke:none;stroke-width:0.796284;stroke-linecap:round;stroke-linejoin:round;stroke-miterlimit:4;stroke-dasharray:none;stroke-dashoffset:0;stroke-opacity:1;paint-order:markers stroke fill;color-rendering:auto;image-rendering:auto;shape-rendering:auto;text-rendering:auto;enable-background:accumulate;stop-color:#000000"
         d="m -101.49883,29.759287 c 0,0.877177 -0.71109,1.58827 -1.58827,1.588271 -0.87718,-1e-6 -1.58827,-0.711094 -1.58827,-1.588271 0,-0.877177 0.71109,-1.58827 1.58827,-1.588271 0.87718,10e-7 1.58827,0.711094 1.58827,1.588271"
         id="path1764" />
      <path
         sodipodi:nodetypes="ccccc"
         id="path1666"
         d="m -104.97589,26.843552 -0.24292,1.541322 3.80506,0.502563 0.16801,-1.143162 z"
         style="fill:#000000;stroke:none;stroke-width:0.264583px;stroke-linecap:butt;stroke-linejoin:miter;stroke-opacity:1" />
      <path
         id="path1668"
         style="fill:#8438cc;fill-opacity:1;stroke:none;stroke-width:0.264583px;stroke-linecap:butt;stroke-linejoin:miter;stroke-opacity:1"
         d="m -109.25896,27.218744 c -1.81854,1.106975 -3.01417,2.900545 -3.25717,4.909262 -0.28845,2.384552 0.31475,4.67786 2.6448,5.896279 0.27717,0.144936 0.59256,0.266867 0.93328,0.371039 l 1.12499,-5.42861 c -1.05161,-1.269323 -2.05821,-3.243379 -1.4459,-5.74797 z m -0.88574,3.450953 a 0.50212966,0.6522994 38.581974 0 1 0.2651,0.08837 0.50212966,0.6522994 38.581974 0 1 -0.014,0.823206 0.50212966,0.6522994 38.581974 0 1 -0.79943,0.196372 0.50212966,0.6522994 38.581974 0 1 0.014,-0.822691 0.50212966,0.6522994 38.581974 0 1 0.53433,-0.285252 z" />
      <path
         sodipodi:nodetypes="zzcscccccz"
         d="m -106.52373,32.71687 c -2.56578,-0.063 -3.08326,2.631204 -3.06242,3.68069 0.0209,1.049483 0.0797,1.321249 0.16751,1.832668 2.46275,0.974645 6.89937,0.680506 8.8532,0.382405 2.080378,-0.31741 3.391799,-1.205513 3.376543,-3.349668 0,-0.399068 -0.135959,-0.650875 -0.297656,-0.967382 -0.298117,0.154643 -0.584693,0.304956 -1.127581,0.551389 -0.179395,-0.725686 -0.587411,-1.19489 -1.010792,-1.645378 -0.991344,0.489386 -1.761444,1.095717 -2.293624,1.476767 0,0 -2.0394,-1.898492 -4.60518,-1.961491 z"
         style="fill:#94ec18;fill-opacity:1;stroke:none;stroke-width:0.264583px;stroke-linecap:butt;stroke-linejoin:miter;stroke-opacity:1"
         id="path1635" />
      <path
         id="path1670"
         style="fill:#54d404;fill-opacity:1;stroke:none;stroke-width:0.264583px;stroke-linecap:butt;stroke-linejoin:miter;stroke-opacity:1"
         d="m -107.81306,32.968781 c -1.45848,0.684961 -1.78975,2.586188 -1.77301,3.428732 0.0209,1.049483 0.0796,1.321544 0.16743,1.832962 1.98353,0.784992 5.22856,0.743916 7.4445,0.543637 -2.83258,-0.02959 -6.02828,-2.119199 -5.83892,-5.805331 z" />
      <ellipse
         style="fill:#d08cff;fill-opacity:1;stroke:none;stroke-width:1.56622;stroke-linecap:round;stroke-linejoin:round;stroke-miterlimit:4;stroke-dasharray:none;paint-order:markers stroke fill"
         id="ellipse1672"
         cx="-46.308022"
         cy="103.27264"
         rx="0.8817004"
         ry="1.1453866"
         transform="rotate(50.939082)" />
    </g>
  </g>
</svg>
