<?xml version="1.0" ?><svg xmlns:dc="http://purl.org/dc/elements/1.1/" xmlns:cc="http://creativecommons.org/ns#" xmlns:rdf="http://www.w3.org/1999/02/22-rdf-syntax-ns#" xmlns:svg="http://www.w3.org/2000/svg" xmlns="http://www.w3.org/2000/svg" xmlns:sodipodi="http://sodipodi.sourceforge.net/DTD/sodipodi-0.dtd" xmlns:inkscape="http://www.inkscape.org/namespaces/inkscape" sodipodi:docname="mine_construction.svg" width="0.57546872mm" height="0.63500017mm" viewBox="0 0 0.5754687 0.63500016" version="1.1" id="svg3893" inkscape:version="1.0 (4035a4fb49, 2020-05-01)">
  <defs id="defs3887"/>
  <sodipodi:namedview inkscape:window-maximized="1" inkscape:window-y="-8" inkscape:window-x="-8" inkscape:window-height="1057" inkscape:window-width="1920" inkscape:object-paths="true" id="base" pagecolor="#ffffff" bordercolor="#666666" borderopacity="1.0" inkscape:pageopacity="0.0" inkscape:pageshadow="2" inkscape:zoom="89.6" inkscape:cx="-0.9534265" inkscape:cy="1.3698979" inkscape:document-units="px" inkscape:current-layer="layer1" inkscape:document-rotation="0" showgrid="false" inkscape:snap-intersection-paths="true" inkscape:snap-smooth-nodes="true" inkscape:snap-midpoints="true">
    <inkscape:grid type="xygrid" id="grid897" originx="0.13153863" originy="0.26458789"/>
  </sodipodi:namedview>
  <metadata id="metadata3890">
    <rdf:RDF>
      <cc:Work rdf:about="">
        <dc:format>image/svg+xml</dc:format>
        <dc:type rdf:resource="http://purl.org/dc/dcmitype/StillImage"/>
        <dc:title/>
      </cc:Work>
    </rdf:RDF>
  </metadata>
  <g transform="translate(-66.685212,-84.458791)" inkscape:label="Layer 1" inkscape:groupmode="layer" id="layer1">
    <g style="stroke-width:1.00004" transform="matrix(0.04999641,0,0,0.04999624,76.480708,79.366037)" id="g1153">
      <rect ry="0.93481451" y="105.30258" x="-195.52783" height="9.2611189" width="10.584091" id="rect19227-0-4-9-9-3-8-5" style="opacity:1;fill:#000000;fill-opacity:0.18;fill-rule:nonzero;stroke:none;stroke-width:3.9403;stroke-linecap:round;stroke-linejoin:round;stroke-miterlimit:4;stroke-dasharray:none;stroke-dashoffset:0;stroke-opacity:1;paint-order:markers stroke fill;filter:url(#filter1957)" rx="0.9346627"/>
      <path d="m -186.39781,102.39195 c 0.22647,2.1e-4 0.43867,0.0659 0.61189,0.19586 0.17323,0.12997 0.3137,0.34535 0.3137,0.59795 0,0.0913 0.0489,0.34862 0.0884,0.57416 0.54525,0.10791 0.97004,0.57099 0.97004,1.14576 v 0.7938 c 0,0.65279 -0.53793,1.19072 -1.19071,1.19072 h -1.58762 c -0.65279,0 -1.19071,-0.53793 -1.19071,-1.19072 v -0.7938 c 0,-0.57403 0.42375,-1.0365 0.96796,-1.14524 0.0407,-0.2191 0.0904,-0.46258 0.0904,-0.5752 0,-0.25261 0.14034,-0.46798 0.3137,-0.59794 0.17335,-0.12996 0.38625,-0.19555 0.61293,-0.19535 z" style="color:#000000;font-style:normal;font-variant:normal;font-weight:normal;font-stretch:normal;font-size:medium;line-height:normal;font-family:sans-serif;font-variant-ligatures:normal;font-variant-position:normal;font-variant-caps:normal;font-variant-numeric:normal;font-variant-alternates:normal;font-variant-east-asian:normal;font-feature-settings:normal;font-variation-settings:normal;text-indent:0;text-align:start;text-decoration:none;text-decoration-line:none;text-decoration-style:solid;text-decoration-color:#000000;letter-spacing:normal;word-spacing:normal;text-transform:none;writing-mode:lr-tb;direction:ltr;text-orientation:mixed;dominant-baseline:auto;baseline-shift:baseline;text-anchor:start;white-space:normal;shape-padding:0;shape-margin:0;inline-size:0;clip-rule:nonzero;display:inline;overflow:visible;visibility:visible;isolation:auto;mix-blend-mode:normal;color-interpolation:sRGB;color-interpolation-filters:linearRGB;solid-color:#000000;solid-opacity:1;vector-effect:none;fill:#a72424;fill-opacity:0.988235;fill-rule:nonzero;stroke:none;stroke-width:0.793839;stroke-linecap:round;stroke-linejoin:miter;stroke-miterlimit:4;stroke-dasharray:none;stroke-dashoffset:0;stroke-opacity:1;paint-order:fill markers stroke;color-rendering:auto;image-rendering:auto;shape-rendering:auto;text-rendering:auto;enable-background:accumulate;stop-color:#000000" id="path923"/>
      <rect transform="scale(-1,1)" ry="0.79387414" y="104.11189" x="184.81071" height="2.3814275" width="3.1752379" id="rect925" style="opacity:1;fill:#a44000;fill-opacity:1;fill-rule:nonzero;stroke:none;stroke-width:0.670928;stroke-linecap:round;stroke-linejoin:miter;stroke-miterlimit:4;stroke-dasharray:none;stroke-dashoffset:0;stroke-opacity:0.945098;paint-order:fill markers stroke" rx="0.79381353"/>
      <rect transform="scale(-1,1)" style="opacity:1;fill:#d47000;fill-opacity:1;fill-rule:nonzero;stroke:none;stroke-width:0.670928;stroke-linecap:round;stroke-linejoin:miter;stroke-miterlimit:4;stroke-dasharray:none;stroke-dashoffset:0;stroke-opacity:0.945098;paint-order:fill markers stroke" id="rect927" width="3.1752379" height="1.8522209" x="184.81071" y="104.11189" ry="0.79386753" rx="0.79380691"/>
      <path id="path929" style="opacity:1;fill:#b86000;fill-opacity:1;stroke:none;stroke-width:1.05845;stroke-linecap:round;stroke-linejoin:round;stroke-miterlimit:4;stroke-dasharray:none;paint-order:markers fill stroke" d="m -186.39833,102.78886 c -0.29227,0 -0.52921,0.17769 -0.52921,0.3969 0,0.42561 -0.2646,1.33976 -0.2646,1.85223 0,0.36533 0.35539,0.6615 0.79381,0.6615 0.4384,0 0.79381,-0.29617 0.79381,-0.6615 v -0.002 c 0,-0.59663 -0.2646,-1.38507 -0.2646,-1.85067 0,-0.21921 -0.23694,-0.39691 -0.52921,-0.39691 z" sodipodi:nodetypes="sccssccss"/>
      <path d="m -186.14613,102.83795 c -0.0616,0.22511 -0.5168,0.14324 -0.5168,0.34781 v 1.85222 c 0,0.28763 0.22155,0.52957 0.5292,0.62068 0.30765,-0.0911 0.52921,-0.33305 0.52921,-0.62068 v -0.002 c 0,-0.59663 -0.2646,-1.38508 -0.2646,-1.85068 0,-0.1504 -0.11258,-0.27996 -0.27701,-0.34729 z" style="opacity:1;fill:#ff8400;fill-opacity:1;stroke:none;stroke-width:1.05845;stroke-linecap:round;stroke-linejoin:round;stroke-miterlimit:4;stroke-dasharray:none;paint-order:markers fill stroke" id="path931"/>
      <path d="m -185.75854,103.94959 a 0.79381607,0.39689899 0 0 1 -0.63979,0.16228 0.79381607,0.39689899 0 0 1 -0.63825,-0.16072 c -0.0368,0.19308 -0.0726,0.38716 -0.10285,0.57623 a 1.0584038,0.39689899 0 0 0 0.7411,0.1137 1.0584038,0.39689899 0 0 0 0.74626,-0.11525 c -0.0302,-0.19323 -0.0684,-0.38656 -0.10647,-0.57624 z" style="opacity:1;fill:#ac9890;fill-opacity:1;stroke:none;stroke-width:0.946695;stroke-linecap:round;stroke-linejoin:round;stroke-miterlimit:4;stroke-dasharray:none;paint-order:markers fill stroke" id="path933"/>
      <ellipse ry="0.39690471" rx="0.52919781" cy="103.18577" cx="-186.39833" id="ellipse935" style="opacity:1;fill:#f89424;fill-opacity:1;stroke:none;stroke-width:0.669417;stroke-linecap:round;stroke-linejoin:round;stroke-miterlimit:4;stroke-dasharray:none;paint-order:markers fill stroke"/>
      <ellipse style="opacity:1;fill:#a8641c;fill-opacity:1;stroke:none;stroke-width:0.334703;stroke-linecap:round;stroke-linejoin:round;stroke-miterlimit:4;stroke-dasharray:none;paint-order:markers fill stroke" id="ellipse937" cx="-186.39833" cy="103.1196" rx="0.26459482" ry="0.1984493"/>
      <path d="m -185.75854,103.94959 a 0.79381607,0.39689899 0 0 1 -0.63979,0.16228 0.79381607,0.39689899 0 0 1 -0.2646,-0.0227 v 0.53903 a 1.0584037,0.39689899 0 0 0 0.2646,0.0129 1.0584037,0.39689899 0 0 0 0.74626,-0.11525 c -0.0302,-0.19323 -0.0684,-0.38656 -0.10647,-0.57624 z" style="opacity:1;fill:#fce4cc;fill-opacity:1;stroke:none;stroke-width:0.946695;stroke-linecap:round;stroke-linejoin:round;stroke-miterlimit:4;stroke-dasharray:none;paint-order:markers fill stroke" id="path939"/>
      <path d="m -188.372,101.86274 c 0.49795,0 0.91526,0.41731 0.91526,0.91526 v 1.34472 c 0,0.36216 -0.22396,0.67699 -0.53593,0.8243 l 0.2553,1.0212 c 0.0833,0.33385 -0.1691,0.65715 -0.51318,0.65737 h -1.58762 c -0.2428,-1.4e-4 -0.45436,-0.16547 -0.51319,-0.40104 l -0.2646,-1.0584 c -0.0106,-0.0419 -0.0159,-0.0849 -0.016,-0.12817 h -2.11681 c -9e-5,0.0432 -0.005,0.0863 -0.016,0.12817 l -0.2646,1.0584 c -0.0588,0.23557 -0.27038,0.4009 -0.51318,0.40104 h -1.58762 c -0.34408,-2.2e-4 -0.59647,-0.32352 -0.51318,-0.65737 l 0.2553,-1.0212 c -0.31198,-0.14731 -0.53593,-0.46214 -0.53593,-0.8243 V 102.778 c 3e-5,-0.49795 0.41734,-0.91526 0.91529,-0.91526 z" style="color:#000000;font-style:normal;font-variant:normal;font-weight:normal;font-stretch:normal;font-size:medium;line-height:normal;font-family:sans-serif;font-variant-ligatures:normal;font-variant-position:normal;font-variant-caps:normal;font-variant-numeric:normal;font-variant-alternates:normal;font-variant-east-asian:normal;font-feature-settings:normal;font-variation-settings:normal;text-indent:0;text-align:start;text-decoration:none;text-decoration-line:none;text-decoration-style:solid;text-decoration-color:#000000;letter-spacing:normal;word-spacing:normal;text-transform:none;writing-mode:lr-tb;direction:ltr;text-orientation:mixed;dominant-baseline:auto;baseline-shift:baseline;text-anchor:start;white-space:normal;shape-padding:0;shape-margin:0;inline-size:0;clip-rule:nonzero;display:inline;overflow:visible;visibility:visible;isolation:auto;mix-blend-mode:normal;color-interpolation:sRGB;color-interpolation-filters:linearRGB;solid-color:#000000;solid-opacity:1;vector-effect:none;fill:#443400;fill-opacity:1;fill-rule:nonzero;stroke:none;stroke-width:1.05845;stroke-linecap:round;stroke-linejoin:round;stroke-miterlimit:4;stroke-dasharray:none;stroke-dashoffset:0;stroke-opacity:1;paint-order:markers fill stroke;color-rendering:auto;image-rendering:auto;shape-rendering:auto;text-rendering:auto;enable-background:accumulate;stop-color:#000000" id="path941" sodipodi:nodetypes="sssccccccccccccccssss"/>
      <path d="m -188.51516,105.03798 0.26461,1.05841 h -1.58762 l -0.26461,-1.05841 z m -4.76285,0 -0.2646,1.05841 h -1.58762 l 0.2646,-1.05841 z" style="opacity:1;fill:#cc9800;fill-opacity:1;stroke:none;stroke-width:0.264613px;stroke-linecap:butt;stroke-linejoin:miter;stroke-opacity:1" id="path943"/>
      <rect ry="0.38604259" y="102.39195" x="-195.39482" height="2.1168303" width="7.4088817" id="rect945" style="opacity:1;fill:#503c00;fill-opacity:1;stroke:none;stroke-width:1.05845;stroke-linecap:round;stroke-linejoin:round;stroke-miterlimit:4;stroke-dasharray:none;paint-order:markers fill stroke" rx="0.38601312"/>
      <rect style="opacity:1;fill:#5c4400;fill-opacity:1;stroke:none;stroke-width:1.05845;stroke-linecap:round;stroke-linejoin:round;stroke-miterlimit:4;stroke-dasharray:none;paint-order:markers fill stroke" id="rect947" width="7.4088817" height="0.79381555" x="-195.39482" y="102.39195" ry="0.35263267" rx="0.35260576"/>
      <path d="m -195.00877,102.39195 c -0.21385,0 -0.38605,0.1722 -0.38605,0.38606 v 1.34472 c 0,0.21385 0.1722,0.38605 0.38605,0.38605 h 1.20157 l -1.05842,-2.11683 z m 1.99538,0 1.0584,2.11683 h 1.58762 l -1.05841,-2.11683 z m 3.43983,0 1.05841,2.11683 h 0.14316 c 0.21385,0 0.38605,-0.1722 0.38605,-0.38605 v -1.34472 c 0,-0.21386 -0.1722,-0.38606 -0.38605,-0.38606 z" style="opacity:1;fill:#cc9800;fill-opacity:1;stroke:none;stroke-width:1.05845;stroke-linecap:round;stroke-linejoin:round;stroke-miterlimit:4;stroke-dasharray:none;paint-order:markers fill stroke" id="path949"/>
      <path d="m -195.00877,102.39195 c -0.21385,0 -0.38605,0.1722 -0.38605,0.38606 v 0.0553 c 0,0.19535 0.15711,0.35246 0.35246,0.35246 h 0.57365 l -0.39691,-0.79381 z m 1.99538,0 0.3969,0.79381 h 1.58761 l -0.3969,-0.79381 z m 3.43983,0 0.3969,0.79381 h 0.83826 c 0.19535,0 0.35246,-0.15711 0.35246,-0.35246 v -0.0553 c 0,-0.21386 -0.1722,-0.38606 -0.38605,-0.38606 z" style="opacity:1;fill:#ffc000;fill-opacity:1;stroke:none;stroke-width:1.05845;stroke-linecap:round;stroke-linejoin:round;stroke-miterlimit:4;stroke-dasharray:none;paint-order:markers fill stroke" id="path951"/>
      <path inkscape:connector-curvature="0" style="opacity:1;fill:#343860;fill-opacity:1;fill-rule:nonzero;stroke:none;stroke-width:1.05845;stroke-linecap:round;stroke-linejoin:round;stroke-miterlimit:4;stroke-dasharray:none;stroke-dashoffset:0;stroke-opacity:1;paint-order:markers stroke fill" d="m -189.96936,103.97954 c -2.03963,0 -3.70546,1.66532 -3.70546,3.70497 v 0.79326 c 0,2.03965 1.66583,3.70548 3.70546,3.70548 2.03964,0 3.70342,-1.66583 3.70342,-3.70548 v -0.79326 c 0,-2.03965 -1.66378,-3.70497 -3.70342,-3.70497 z" id="path10559"/>
      <path id="path10561" d="m -189.97039,104.50878 a 3.1752339,3.1752339 0 0 0 -3.17523,3.17523 v 0.79376 a 3.1752339,3.1752339 0 0 0 3.17523,3.17524 3.1752339,3.1752339 0 0 0 3.17524,-3.17524 v -0.79376 a 3.1752339,3.1752339 0 0 0 -3.17524,-3.17523 z" style="opacity:1;fill:#58586c;fill-opacity:1;fill-rule:nonzero;stroke:none;stroke-width:12.0014;stroke-linecap:round;stroke-linejoin:round;stroke-miterlimit:4;stroke-dasharray:none;stroke-dashoffset:0;stroke-opacity:1;paint-order:markers stroke fill" inkscape:connector-curvature="0"/>
      <circle r="3.1752338" cy="107.68393" cx="-189.9704" id="circle10563" style="opacity:1;fill:#9498b0;fill-opacity:1;fill-rule:nonzero;stroke:none;stroke-width:12.0014;stroke-linecap:round;stroke-linejoin:round;stroke-miterlimit:4;stroke-dasharray:none;stroke-dashoffset:0;stroke-opacity:1;paint-order:markers stroke fill"/>
      <path sodipodi:nodetypes="ccccccc" id="path10565" d="m -189.97039,105.03792 c -1.55213,0.002 -2.87562,1.12511 -3.12924,2.65639 v 5.1e-4 c 0.26284,1.52286 1.58388,2.63532 3.12924,2.63519 1.55215,-0.002 2.87564,-1.12511 3.12925,-2.6564 v -5e-4 c -0.26283,-1.52285 -1.58387,-2.63533 -3.12925,-2.63519 z" style="opacity:1;fill:#707090;fill-opacity:1;fill-rule:nonzero;stroke:none;stroke-width:12.0014;stroke-linecap:round;stroke-linejoin:round;stroke-miterlimit:4;stroke-dasharray:none;stroke-dashoffset:0;stroke-opacity:1;paint-order:markers stroke fill" inkscape:connector-curvature="0"/>
      <circle style="opacity:1;fill:#202040;fill-opacity:1;fill-rule:nonzero;stroke:none;stroke-width:12.0014;stroke-linecap:round;stroke-linejoin:round;stroke-miterlimit:4;stroke-dasharray:none;stroke-dashoffset:0;stroke-opacity:1;paint-order:markers stroke fill" id="circle10567" cx="-189.9704" cy="107.68406" r="2.1168473"/>
      <path inkscape:connector-curvature="0" style="opacity:1;fill:#2c3058;fill-opacity:1;fill-rule:nonzero;stroke:none;stroke-width:12.0014;stroke-linecap:round;stroke-linejoin:round;stroke-miterlimit:4;stroke-dasharray:none;stroke-dashoffset:0;stroke-opacity:1;paint-order:markers stroke fill" d="m -189.97039,105.56716 a 2.1168473,2.1168473 0 0 0 -2.11682,2.11685 2.1168473,2.1168473 0 0 0 0.0692,0.53174 2.1168473,2.1168473 0 0 1 2.04757,-1.59022 2.1168473,2.1168473 0 0 1 2.04758,1.58512 2.1168473,2.1168473 0 0 0 0.0692,-0.52664 2.1168473,2.1168473 0 0 0 -2.11683,-2.11685 z" id="path10569"/>
      <path id="path10641" style="color:#000000;font-style:normal;font-variant:normal;font-weight:normal;font-stretch:normal;font-size:medium;line-height:normal;font-family:sans-serif;font-variant-ligatures:normal;font-variant-position:normal;font-variant-caps:normal;font-variant-numeric:normal;font-variant-alternates:normal;font-variant-east-asian:normal;font-feature-settings:normal;font-variation-settings:normal;text-indent:0;text-align:start;text-decoration:none;text-decoration-line:none;text-decoration-style:solid;text-decoration-color:#000000;letter-spacing:normal;word-spacing:normal;text-transform:none;writing-mode:lr-tb;direction:ltr;text-orientation:mixed;dominant-baseline:auto;baseline-shift:baseline;text-anchor:start;white-space:normal;shape-padding:0;shape-margin:0;inline-size:0;clip-rule:nonzero;display:inline;overflow:visible;visibility:visible;isolation:auto;mix-blend-mode:normal;color-interpolation:sRGB;color-interpolation-filters:linearRGB;solid-color:#000000;solid-opacity:1;vector-effect:none;fill:#a72424;fill-opacity:0.988235;fill-rule:nonzero;stroke:none;stroke-width:0.793839;stroke-linecap:round;stroke-linejoin:miter;stroke-miterlimit:4;stroke-dasharray:none;stroke-dashoffset:0;stroke-opacity:1;paint-order:fill markers stroke;color-rendering:auto;image-rendering:auto;shape-rendering:auto;text-rendering:auto;enable-background:accumulate;stop-color:#000000" d="m -193.93995,108.87473 c -0.22648,2.1e-4 -0.43868,0.0659 -0.6119,0.19587 -0.17322,0.12996 -0.31369,0.34534 -0.31369,0.59794 0,0.0913 -0.0489,0.34863 -0.0884,0.57416 -0.54525,0.10791 -0.97004,0.57099 -0.97004,1.14576 v 0.79381 c 0,0.65278 0.53793,1.1907 1.19072,1.1907 h 1.58762 c 0.65278,0 1.1907,-0.53792 1.1907,-1.1907 v -0.79381 c 0,-0.57403 -0.42375,-1.0365 -0.96796,-1.14524 -0.0407,-0.21909 -0.0904,-0.46258 -0.0904,-0.5752 0,-0.25261 -0.14034,-0.46799 -0.31371,-0.59794 -0.17335,-0.12996 -0.38625,-0.19555 -0.61292,-0.19535 z"/>
      <rect style="opacity:1;fill:#a44000;fill-opacity:1;fill-rule:nonzero;stroke:none;stroke-width:0.670928;stroke-linecap:round;stroke-linejoin:miter;stroke-miterlimit:4;stroke-dasharray:none;stroke-dashoffset:0;stroke-opacity:0.945098;paint-order:fill markers stroke" id="rect10583" width="3.1752379" height="2.3814275" x="-195.52705" y="110.59467" ry="0.79387414" rx="0.79381353"/>
      <rect ry="0.79386753" y="110.59467" x="-195.52705" height="1.8522209" width="3.1752379" id="rect10585" style="opacity:1;fill:#d47000;fill-opacity:1;fill-rule:nonzero;stroke:none;stroke-width:0.670928;stroke-linecap:round;stroke-linejoin:miter;stroke-miterlimit:4;stroke-dasharray:none;stroke-dashoffset:0;stroke-opacity:0.945098;paint-order:fill markers stroke" rx="0.79380691"/>
      <path sodipodi:nodetypes="sccssccss" d="m -193.93943,109.27163 c -0.29227,0 -0.52921,0.17769 -0.52921,0.3969 0,0.42561 -0.2646,1.33976 -0.2646,1.85223 0,0.36533 0.35539,0.66151 0.79381,0.66151 0.4384,0 0.79381,-0.29618 0.79381,-0.66151 v -0.002 c 0,-0.59663 -0.2646,-1.38507 -0.2646,-1.85067 0,-0.21921 -0.23694,-0.39691 -0.52921,-0.39691 z" style="opacity:1;fill:#b86000;fill-opacity:1;stroke:none;stroke-width:1.05845;stroke-linecap:round;stroke-linejoin:round;stroke-miterlimit:4;stroke-dasharray:none;paint-order:markers fill stroke" id="path10589"/>
      <path id="path10591" style="opacity:1;fill:#ff8400;fill-opacity:1;stroke:none;stroke-width:1.05845;stroke-linecap:round;stroke-linejoin:round;stroke-miterlimit:4;stroke-dasharray:none;paint-order:markers fill stroke" d="m -193.68723,109.32073 c -0.0616,0.22511 -0.5168,0.14324 -0.5168,0.34781 v 1.85222 c 0,0.28762 0.22155,0.52957 0.5292,0.62067 0.30765,-0.0911 0.52921,-0.33305 0.52921,-0.62067 v -0.002 c 0,-0.59663 -0.2646,-1.38507 -0.2646,-1.85067 0,-0.15041 -0.11258,-0.27996 -0.27701,-0.34729 z"/>
      <path id="ellipse10593" style="opacity:1;fill:#ac9890;fill-opacity:1;stroke:none;stroke-width:0.946695;stroke-linecap:round;stroke-linejoin:round;stroke-miterlimit:4;stroke-dasharray:none;paint-order:markers fill stroke" d="m -193.29964,110.43237 a 0.79381607,0.39689899 0 0 1 -0.63979,0.16228 0.79381607,0.39689899 0 0 1 -0.63825,-0.16072 c -0.0368,0.19308 -0.0726,0.38717 -0.10285,0.57623 a 1.0584038,0.39689899 0 0 0 0.7411,0.1137 1.0584038,0.39689899 0 0 0 0.74626,-0.11525 c -0.0302,-0.19324 -0.0684,-0.38656 -0.10647,-0.57624 z"/>
      <ellipse style="opacity:1;fill:#f89424;fill-opacity:1;stroke:none;stroke-width:0.669417;stroke-linecap:round;stroke-linejoin:round;stroke-miterlimit:4;stroke-dasharray:none;paint-order:markers fill stroke" id="ellipse10597" cx="-193.93942" cy="109.66855" rx="0.52919781" ry="0.39690471"/>
      <ellipse ry="0.1984493" rx="0.26459482" cy="109.60238" cx="-193.93942" id="ellipse10599" style="opacity:1;fill:#a8641c;fill-opacity:1;stroke:none;stroke-width:0.334703;stroke-linecap:round;stroke-linejoin:round;stroke-miterlimit:4;stroke-dasharray:none;paint-order:markers fill stroke"/>
      <path id="path10619" style="opacity:1;fill:#fce4cc;fill-opacity:1;stroke:none;stroke-width:0.946695;stroke-linecap:round;stroke-linejoin:round;stroke-miterlimit:4;stroke-dasharray:none;paint-order:markers fill stroke" d="m -193.29964,110.43237 a 0.79381607,0.39689899 0 0 1 -0.63979,0.16228 0.79381607,0.39689899 0 0 1 -0.2646,-0.0227 v 0.53903 a 1.0584037,0.39689899 0 0 0 0.2646,0.0129 1.0584037,0.39689899 0 0 0 0.74626,-0.11525 c -0.0302,-0.19324 -0.0684,-0.38656 -0.10647,-0.57624 z"/>
      <path sodipodi:nodetypes="sssccccccccccccccssss" id="path10650" style="color:#000000;font-style:normal;font-variant:normal;font-weight:normal;font-stretch:normal;font-size:medium;line-height:normal;font-family:sans-serif;font-variant-ligatures:normal;font-variant-position:normal;font-variant-caps:normal;font-variant-numeric:normal;font-variant-alternates:normal;font-variant-east-asian:normal;font-feature-settings:normal;font-variation-settings:normal;text-indent:0;text-align:start;text-decoration:none;text-decoration-line:none;text-decoration-style:solid;text-decoration-color:#000000;letter-spacing:normal;word-spacing:normal;text-transform:none;writing-mode:lr-tb;direction:ltr;text-orientation:mixed;dominant-baseline:auto;baseline-shift:baseline;text-anchor:start;white-space:normal;shape-padding:0;shape-margin:0;inline-size:0;clip-rule:nonzero;display:inline;overflow:visible;visibility:visible;isolation:auto;mix-blend-mode:normal;color-interpolation:sRGB;color-interpolation-filters:linearRGB;solid-color:#000000;solid-opacity:1;vector-effect:none;fill:#443400;fill-opacity:1;fill-rule:nonzero;stroke:none;stroke-width:1.05845;stroke-linecap:round;stroke-linejoin:round;stroke-miterlimit:4;stroke-dasharray:none;stroke-dashoffset:0;stroke-opacity:1;paint-order:markers fill stroke;color-rendering:auto;image-rendering:auto;shape-rendering:auto;text-rendering:auto;enable-background:accumulate;stop-color:#000000" d="m -191.96577,109.00703 c -0.49794,0 -0.91525,0.41731 -0.91525,0.91526 v 1.34472 c 0,0.36217 0.22395,0.67699 0.53593,0.8243 l -0.2553,1.0212 c -0.0833,0.33384 0.1691,0.65715 0.51317,0.65737 h 1.58762 c 0.2428,-1.4e-4 0.45437,-0.16547 0.51319,-0.40104 l 0.2646,-1.0584 c 0.0106,-0.0419 0.0159,-0.0849 0.016,-0.12817 h 2.11682 c 9e-5,0.0432 0.005,0.0863 0.016,0.12817 l 0.2646,1.0584 c 0.0588,0.23557 0.27038,0.4009 0.51319,0.40104 h 1.58762 c 0.34407,-2.2e-4 0.59646,-0.32353 0.51317,-0.65737 l -0.2553,-1.0212 c 0.31199,-0.14731 0.53593,-0.46213 0.53593,-0.8243 v -1.34472 c -3e-5,-0.49795 -0.41734,-0.91526 -0.91528,-0.91526 z"/>
      <path id="path10575" style="opacity:1;fill:#cc9800;fill-opacity:1;stroke:none;stroke-width:0.264613px;stroke-linecap:butt;stroke-linejoin:miter;stroke-opacity:1" d="m -191.82261,112.18227 -0.26461,1.0584 h 1.58762 l 0.26461,-1.0584 z m 4.76286,0 0.2646,1.0584 h 1.58762 l -0.2646,-1.0584 z"/>
      <rect style="opacity:1;fill:#503c00;fill-opacity:1;stroke:none;stroke-width:1.05845;stroke-linecap:round;stroke-linejoin:round;stroke-miterlimit:4;stroke-dasharray:none;paint-order:markers fill stroke" id="rect10657" width="7.4088817" height="2.1168303" x="-192.35184" y="109.53625" ry="0.38604259" rx="0.38601312"/>
      <rect ry="0.35263267" y="109.53625" x="-192.35184" height="0.79381555" width="7.4088817" id="rect10659" style="opacity:1;fill:#5c4400;fill-opacity:1;stroke:none;stroke-width:1.05845;stroke-linecap:round;stroke-linejoin:round;stroke-miterlimit:4;stroke-dasharray:none;paint-order:markers fill stroke" rx="0.35260576"/>
      <path id="rect10665" style="opacity:1;fill:#cc9800;fill-opacity:1;stroke:none;stroke-width:1.05845;stroke-linecap:round;stroke-linejoin:round;stroke-miterlimit:4;stroke-dasharray:none;paint-order:markers fill stroke" d="m -191.96577,109.53623 c -0.21384,0 -0.38604,0.1722 -0.38604,0.38606 v 1.34472 c 0,0.21385 0.1722,0.38605 0.38604,0.38605 h 1.20157 l -1.05842,-2.11683 z m 1.99538,0 1.05841,2.11683 h 1.58762 l -1.05841,-2.11683 z m 3.43984,0 1.05841,2.11683 h 0.14316 c 0.21384,0 0.38605,-0.1722 0.38605,-0.38605 v -1.34472 c 0,-0.21386 -0.17221,-0.38606 -0.38605,-0.38606 z"/>
      <path id="rect10675" style="opacity:1;fill:#ffc000;fill-opacity:1;stroke:none;stroke-width:1.05845;stroke-linecap:round;stroke-linejoin:round;stroke-miterlimit:4;stroke-dasharray:none;paint-order:markers fill stroke" d="m -191.96577,109.53623 c -0.21384,0 -0.38604,0.1722 -0.38604,0.38606 v 0.0553 c 0,0.19535 0.15711,0.35246 0.35245,0.35246 h 0.57365 l -0.39691,-0.79381 z m 1.99538,0 0.3969,0.79381 h 1.58762 l -0.3969,-0.79381 z m 3.43984,0 0.3969,0.79381 h 0.83826 c 0.19534,0 0.35246,-0.15711 0.35246,-0.35246 v -0.0553 c 0,-0.21386 -0.17221,-0.38606 -0.38605,-0.38606 z"/>
    </g>
  </g>
</svg>