<?xml version="1.0" ?><!-- Created with Inkscape (http://www.inkscape.org/) --><svg xmlns:dc="http://purl.org/dc/elements/1.1/" xmlns:cc="http://creativecommons.org/ns#" xmlns:rdf="http://www.w3.org/1999/02/22-rdf-syntax-ns#" xmlns:svg="http://www.w3.org/2000/svg" xmlns="http://www.w3.org/2000/svg" xmlns:xlink="http://www.w3.org/1999/xlink" xmlns:sodipodi="http://sodipodi.sourceforge.net/DTD/sodipodi-0.dtd" xmlns:inkscape="http://www.inkscape.org/namespaces/inkscape" width="0.26458335mm" height="0.50270838mm" viewBox="0 0 0.26458335 0.50270838" version="1.1" id="svg25727" inkscape:version="0.92.4 (5da689c313, 2019-01-14)" sodipodi:docname="orange_barrel.svg">
  <defs id="defs25721">
    <linearGradient inkscape:collect="always" xlink:href="#linearGradient9291" id="linearGradient9293" x1="-50.535416" y1="-1227.2645" x2="-50.535416" y2="-1227.5292" gradientUnits="userSpaceOnUse"/>
    <linearGradient inkscape:collect="always" id="linearGradient9291">
      <stop style="stop-color:#d08800;stop-opacity:1" offset="0" id="stop9287"/>
      <stop style="stop-color:#ecac04;stop-opacity:1" offset="1" id="stop9289"/>
    </linearGradient>
    <linearGradient inkscape:collect="always" xlink:href="#linearGradient9291" id="linearGradient9297" gradientUnits="userSpaceOnUse" x1="-50.535416" y1="-1227.2645" x2="-50.535416" y2="-1227.5292" gradientTransform="translate(-3.7041677)"/>
  </defs>
  <sodipodi:namedview id="base" pagecolor="#ffffff" bordercolor="#666666" borderopacity="1.0" inkscape:pageopacity="0.0" inkscape:pageshadow="2" inkscape:zoom="126.71353" inkscape:cx="1.9851578" inkscape:cy="1.2230514" inkscape:document-units="mm" inkscape:current-layer="layer1" showgrid="false" fit-margin-top="0" fit-margin-left="0" fit-margin-right="0" fit-margin-bottom="0" inkscape:window-width="1920" inkscape:window-height="1057" inkscape:window-x="-8" inkscape:window-y="-8" inkscape:window-maximized="1"/>
  <metadata id="metadata25724">
    <rdf:RDF>
      <cc:Work rdf:about="">
        <dc:format>image/svg+xml</dc:format>
        <dc:type rdf:resource="http://purl.org/dc/dcmitype/StillImage"/>
        <dc:title/>
      </cc:Work>
    </rdf:RDF>
  </metadata>
  <g inkscape:label="Layer 1" inkscape:groupmode="layer" id="layer1" transform="translate(175.00298,-86.833857)">
    <g id="g9438" transform="matrix(0.04999988,0,0,0.04999988,-172.25132,148.35569)">
      <ellipse style="opacity:1;fill:#000000;fill-opacity:0.18000004;fill-rule:nonzero;stroke:none;stroke-width:1.05833328;stroke-linecap:round;stroke-linejoin:round;stroke-miterlimit:4;stroke-dasharray:none;stroke-dashoffset:0;stroke-opacity:1;paint-order:markers fill stroke" id="path6763-0-4" cx="-52.387501" cy="-1223.0312" rx="2.6458399" ry="2.6458249"/>
      <path id="path9387" transform="scale(0.26458333)" d="m -200,-4650.4805 c -1.36954,0 -2.37615,1.0523 -2.71875,2.3301 -1.22055,0.6679 -2.25732,1.5671 -3.10352,2.6699 H -206 a 2.0001999,2.0001999 0 0 0 -2,2 v 4 3 8 c 0,5.4992 4.50084,10 10,10 5.49916,0 10,-4.5008 10,-10 v -11 -4 a 2.0001999,2.0001999 0 0 0 -2,-2 h -0.17383 c -0.84729,-1.1043 -1.88679,-2.0036 -3.10937,-2.6718 -0.34349,-1.2768 -1.34816,-2.3282 -2.7168,-2.3282 z" style="opacity:1;fill:#8c3c04;fill-opacity:1;fill-rule:nonzero;stroke:none;stroke-width:3.99999976;stroke-linecap:round;stroke-linejoin:round;stroke-miterlimit:4;stroke-dasharray:none;stroke-dashoffset:0;stroke-opacity:1;paint-order:markers stroke fill" inkscape:connector-curvature="0"/>
      <path id="circle9245" transform="scale(0.26458333)" d="m -198,-4647.4805 a 7.9999996,7.9999996 0 0 0 -8,8 v 11 a 7.9999995,7.9999995 0 0 0 8,8 7.9999995,7.9999995 0 0 0 8,-8 v -11 a 7.9999996,7.9999996 0 0 0 -8,-8 z" style="opacity:1;fill:#e49800;fill-opacity:1;fill-rule:nonzero;stroke:none;stroke-width:3.99999976;stroke-linecap:round;stroke-linejoin:round;stroke-miterlimit:4;stroke-dasharray:none;stroke-dashoffset:0;stroke-opacity:1;paint-order:markers stroke fill" inkscape:connector-curvature="0"/>
      <path id="circle9322" transform="scale(0.26458333)" d="m -198,-4639.4805 a 7.9999996,7.9999996 0 0 0 -3.85352,1 H -206 v 7 a 7.9999996,7.9999996 0 0 0 8,8 7.9999996,7.9999996 0 0 0 8,-8 v -7 h -4.13281 a 7.9999996,7.9999996 0 0 0 -3.86719,-1 z" style="opacity:1;fill:#ff5c0c;fill-opacity:1;fill-rule:nonzero;stroke:none;stroke-width:3.99999976;stroke-linecap:round;stroke-linejoin:round;stroke-miterlimit:4;stroke-dasharray:none;stroke-dashoffset:0;stroke-opacity:1;paint-order:markers stroke fill" inkscape:connector-curvature="0"/>
      <path transform="scale(0.26458333)" id="rect9332" d="m -205,-4634.4805 v 6.8711 a 7.9999995,7.9999995 0 0 0 2,2.3731 v -9.2442 z m 12,0 v 9.2364 a 7.9999995,7.9999995 0 0 0 2,-2.3829 v -6.8535 z m -7,2 v 8.7403 a 7.9999995,7.9999995 0 0 0 2,0.2597 7.9999995,7.9999995 0 0 0 2,-0.2656 v -8.7344 z" style="opacity:1;fill:#5c6068;fill-opacity:1;fill-rule:nonzero;stroke:none;stroke-width:5.65685368;stroke-linecap:round;stroke-linejoin:round;stroke-miterlimit:4;stroke-dasharray:none;stroke-dashoffset:0;stroke-opacity:1;paint-order:markers stroke fill" inkscape:connector-curvature="0"/>
      <circle style="opacity:1;fill:#e49800;fill-opacity:1;fill-rule:nonzero;stroke:none;stroke-width:1.05833328;stroke-linecap:round;stroke-linejoin:round;stroke-miterlimit:4;stroke-dasharray:none;stroke-dashoffset:0;stroke-opacity:1;paint-order:markers stroke fill" id="circle9385" cx="-52.387501" cy="-1227.2645" r="2.1166666"/>
      <circle r="2.1166666" cy="-1227.5292" cx="-52.387501" id="circle9282" style="opacity:1;fill:#ffb80c;fill-opacity:1;fill-rule:nonzero;stroke:none;stroke-width:1.05833328;stroke-linecap:round;stroke-linejoin:round;stroke-miterlimit:4;stroke-dasharray:none;stroke-dashoffset:0;stroke-opacity:1;paint-order:markers stroke fill"/>
      <rect style="opacity:1;fill:#ffb80c;fill-opacity:1;fill-rule:nonzero;stroke:none;stroke-width:1.05833328;stroke-linecap:round;stroke-linejoin:round;stroke-miterlimit:4;stroke-dasharray:none;stroke-dashoffset:0;stroke-opacity:1;paint-order:markers stroke fill" id="rect9263" width="1.5875" height="1.3229166" x="-53.181248" y="-1229.9104" ry="0.26456705"/>
      <rect ry="0.26456705" y="-1229.6459" x="-53.181248" height="1.3229166" width="1.5875" id="rect9265" style="opacity:1;fill:#d08800;fill-opacity:1;fill-rule:nonzero;stroke:none;stroke-width:1.05833328;stroke-linecap:round;stroke-linejoin:round;stroke-miterlimit:4;stroke-dasharray:none;stroke-dashoffset:0;stroke-opacity:1;paint-order:markers stroke fill"/>
      <ellipse style="opacity:1;fill:#ac7c08;fill-opacity:1;fill-rule:nonzero;stroke:none;stroke-width:0.79375178;stroke-linecap:round;stroke-linejoin:round;stroke-miterlimit:4;stroke-dasharray:none;stroke-dashoffset:0;stroke-opacity:1;paint-order:markers stroke fill" id="ellipse9261" cx="-52.387497" cy="-1227.5292" rx="1.5874988" ry="1.5875081"/>
      <path sodipodi:nodetypes="ccccccc" inkscape:connector-curvature="0" id="ellipse9251" transform="scale(0.26458333)" d="m -198,-4645.4805 c -2.76147,0 -5.00007,1.7909 -5,4 v 3.0001 c -7e-5,2.2092 2.23853,4 5,4 2.76147,0 5.00007,-1.7908 5,-4 v -3.0001 c 7e-5,-2.2091 -2.23853,-4 -5,-4 z" style="opacity:1;fill:#dc4c08;fill-opacity:1;fill-rule:nonzero;stroke:none;stroke-width:2.23604059;stroke-linecap:round;stroke-linejoin:round;stroke-miterlimit:4;stroke-dasharray:none;stroke-dashoffset:0;stroke-opacity:1;paint-order:markers stroke fill"/>
      <ellipse style="opacity:1;fill:#ff5400;fill-opacity:1;fill-rule:nonzero;stroke:none;stroke-width:0.59161907;stroke-linecap:round;stroke-linejoin:round;stroke-miterlimit:4;stroke-dasharray:none;stroke-dashoffset:0;stroke-opacity:1;paint-order:markers stroke fill" id="ellipse9255" cx="-52.387497" cy="-1228.0583" rx="1.3229154" ry="1.0583084"/>
      <ellipse ry="0.52915037" rx="0.79374874" cy="-1228.0583" cx="-52.387497" id="ellipse9257" style="opacity:1;fill:#dc4c08;fill-opacity:1;fill-rule:nonzero;stroke:none;stroke-width:0.32404184;stroke-linecap:round;stroke-linejoin:round;stroke-miterlimit:4;stroke-dasharray:none;stroke-dashoffset:0;stroke-opacity:1;paint-order:markers stroke fill"/>
      <ellipse style="opacity:1;fill:#ff5400;fill-opacity:1;fill-rule:nonzero;stroke:none;stroke-width:0.18708269;stroke-linecap:round;stroke-linejoin:round;stroke-miterlimit:4;stroke-dasharray:none;stroke-dashoffset:0;stroke-opacity:1;paint-order:markers stroke fill" id="ellipse9259" cx="-52.387497" cy="-1228.0583" rx="0.52916539" ry="0.26456705"/>
      <rect ry="2.4414063e-05" y="-1228.5875" x="-50.799999" height="1.8520833" width="0.52916664" id="rect9273" style="opacity:1;fill:url(#linearGradient9293);fill-opacity:1;fill-rule:nonzero;stroke:none;stroke-width:1.05833328;stroke-linecap:round;stroke-linejoin:round;stroke-miterlimit:4;stroke-dasharray:none;stroke-dashoffset:0;stroke-opacity:1;paint-order:markers stroke fill"/>
      <rect ry="0.26456705" y="-1226.4708" x="-53.181248" height="0.79374188" width="1.5875015" id="rect9267" style="opacity:1;fill:#ecac04;fill-opacity:1;fill-rule:nonzero;stroke:none;stroke-width:1.05833328;stroke-linecap:round;stroke-linejoin:round;stroke-miterlimit:4;stroke-dasharray:none;stroke-dashoffset:0;stroke-opacity:1;paint-order:markers stroke fill"/>
      <rect style="opacity:1;fill:#e49800;fill-opacity:1;fill-rule:nonzero;stroke:none;stroke-width:1.05833328;stroke-linecap:round;stroke-linejoin:round;stroke-miterlimit:4;stroke-dasharray:none;stroke-dashoffset:0;stroke-opacity:1;paint-order:markers stroke fill" id="rect9269" width="1.5875015" height="1.0583822" x="-53.181248" y="-1226.2063" ry="0.26456705"/>
      <rect style="opacity:1;fill:url(#linearGradient9297);fill-opacity:1;fill-rule:nonzero;stroke:none;stroke-width:1.05833328;stroke-linecap:round;stroke-linejoin:round;stroke-miterlimit:4;stroke-dasharray:none;stroke-dashoffset:0;stroke-opacity:1;paint-order:markers stroke fill" id="rect9295" width="0.52916664" height="1.8520833" x="-54.504166" y="-1228.5875" ry="2.4414063e-05"/>
      <path id="circle9317" transform="scale(0.26458333)" d="m -190.02148,-4630.0566 a 7.9999996,7.9999996 0 0 1 -7.97852,7.5761 7.9999996,7.9999996 0 0 1 -7.97852,-7.4238 7.9999996,7.9999996 0 0 0 -0.0215,0.4238 7.9999996,7.9999996 0 0 0 8,8 7.9999996,7.9999996 0 0 0 8,-8 7.9999996,7.9999996 0 0 0 -0.0215,-0.5761 z" style="opacity:1;fill:#b07400;fill-opacity:1;fill-rule:nonzero;stroke:none;stroke-width:3.99999976;stroke-linecap:round;stroke-linejoin:round;stroke-miterlimit:4;stroke-dasharray:none;stroke-dashoffset:0;stroke-opacity:1;paint-order:markers stroke fill" inkscape:connector-curvature="0"/>
      <path id="path9349" transform="scale(0.26458333)" d="m -206,-4638.4805 v 1 a 7.9999993,7.9999993 0 0 0 8,8 7.9999993,7.9999993 0 0 0 8,-8 v -1 a 7.9999994,7.9999994 0 0 1 -8,8 7.9999994,7.9999994 0 0 1 -8,-8 z m 0,3 v 2 a 7.9999992,7.9999992 0 0 0 8,8 7.9999992,7.9999992 0 0 0 8,-8 v -2 a 7.9999992,7.9999992 0 0 1 -8,8 7.9999992,7.9999992 0 0 1 -8,-8 z" style="opacity:1;fill:#5c6068;fill-opacity:1;fill-rule:nonzero;stroke:none;stroke-width:3.99999976;stroke-linecap:round;stroke-linejoin:round;stroke-miterlimit:4;stroke-dasharray:none;stroke-dashoffset:0;stroke-opacity:1;paint-order:markers stroke fill" inkscape:connector-curvature="0"/>
      <path id="path9377" transform="scale(0.26458333)" d="m -205,-4634.4805 v 0.8711 a 7.9999992,7.9999992 0 0 0 2,2.3731 v -1.0078 a 7.9999993,7.9999993 0 0 1 -1.91602,-2.2364 z m 13.91992,0 a 7.9999993,7.9999993 0 0 1 -1.91992,2.2442 v 0.9922 a 7.9999992,7.9999992 0 0 0 2,-2.3829 v -0.8535 z M -205,-4631.627 v 2.0176 a 7.9999991,7.9999991 0 0 0 2,2.3731 v -2.0078 a 7.9999991,7.9999991 0 0 1 -2,-2.3829 z m 14,0.018 a 7.9999991,7.9999991 0 0 1 -2,2.3731 v 1.9922 a 7.9999991,7.9999991 0 0 0 2,-2.3829 z m -9,0.8633 v 1.0059 a 7.9999992,7.9999992 0 0 0 2,0.2597 7.9999992,7.9999992 0 0 0 2,-0.2656 v -0.9941 a 7.9999993,7.9999993 0 0 1 -2,0.2597 7.9999993,7.9999993 0 0 1 -2,-0.2656 z m 0,3 v 2.0059 a 7.9999991,7.9999991 0 0 0 2,0.2597 7.9999991,7.9999991 0 0 0 2,-0.2656 v -1.9941 a 7.9999991,7.9999991 0 0 1 -2,0.2597 7.9999991,7.9999991 0 0 1 -2,-0.2656 z" style="opacity:1;fill:#ff5c0c;fill-opacity:1;fill-rule:nonzero;stroke:none;stroke-width:5.65685368;stroke-linecap:round;stroke-linejoin:round;stroke-miterlimit:4;stroke-dasharray:none;stroke-dashoffset:0;stroke-opacity:1;paint-order:markers stroke fill" inkscape:connector-curvature="0"/>
    </g>
  </g>
</svg>