<?xml version="1.0" encoding="UTF-8" standalone="no"?>
<!-- Created with Inkscape (http://www.inkscape.org/) -->

<svg
   width="0.43873474mm"
   height="0.48394939mm"
   viewBox="0 0 0.43873474 0.48394939"
   version="1.1"
   id="svg5129"
   inkscape:version="1.1 (c68e22c387, 2021-05-23)"
   sodipodi:docname="poison_pink.svg"
   xmlns:inkscape="http://www.inkscape.org/namespaces/inkscape"
   xmlns:sodipodi="http://sodipodi.sourceforge.net/DTD/sodipodi-0.dtd"
   xmlns="http://www.w3.org/2000/svg"
   xmlns:svg="http://www.w3.org/2000/svg">
  <sodipodi:namedview
     id="namedview5131"
     pagecolor="#ffffff"
     bordercolor="#999999"
     borderopacity="1"
     inkscape:pageshadow="0"
     inkscape:pageopacity="0"
     inkscape:pagecheckerboard="0"
     inkscape:document-units="mm"
     showgrid="false"
     inkscape:zoom="256"
     inkscape:cx="1"
     inkscape:cy="0.84570312"
     inkscape:window-width="1920"
     inkscape:window-height="1057"
     inkscape:window-x="-8"
     inkscape:window-y="-8"
     inkscape:window-maximized="1"
     inkscape:current-layer="layer1" />
  <defs
     id="defs5126" />
  <g
     inkscape:label="Layer 1"
     inkscape:groupmode="layer"
     id="layer1"
     transform="translate(-138.66309,-160.34971)">
    <g
       id="g62163"
       transform="matrix(0.04999979,0,0,0.04999979,89.384671,165.92687)">
      <path
         id="path55915"
         style="fill:#c167ce;fill-opacity:1;stroke:none;stroke-width:0.091285px;stroke-linecap:butt;stroke-linejoin:miter;stroke-opacity:1"
         d="m 989.63228,-111.54358 c -0.75277,0.006 -1.46974,0.19386 -1.84436,0.63459 -0.16939,0.19932 -0.27131,0.40823 -0.32658,0.61857 -0.62769,0.045 -1.19999,0.23172 -1.51826,0.60616 -0.58274,0.68564 -0.34665,1.48854 -0.17208,2.05362 0.0962,0.31135 0.50774,0.63256 1.0976,0.84801 -0.0231,0.39641 0.0606,0.78423 0.15711,1.12603 -0.25064,0.0999 -0.46443,0.23817 -0.6191,0.42013 -0.59235,0.69694 -0.35211,1.51282 -0.17465,2.08721 0.17751,0.5744 1.40927,1.18263 2.86856,1.11931 0.11086,-0.005 0.21701,-0.0119 0.31988,-0.0207 0.40658,0.13024 0.8941,0.2045 1.41488,0.18191 1.28564,-0.0558 1.95636,-0.40666 2.14509,-1.27641 0.0177,-0.0815 0.0248,-0.16315 0.0227,-0.2434 0.73131,-0.2488 1.15398,-0.70155 1.3136,-1.43712 0.13423,-0.61843 -0.18597,-1.21723 -0.70641,-1.69137 0.0822,-0.16108 0.14515,-0.3407 0.18862,-0.54105 0.15053,-0.69363 -0.25413,-1.3638 -0.87643,-1.86914 0.0209,-0.0648 0.0389,-0.1324 0.0543,-0.20309 0.21677,-0.99887 -0.91991,-1.94068 -2.01695,-2.24172 -0.41137,-0.1129 -0.8759,-0.17506 -1.32754,-0.17157 z" />
      <path
         id="path55214"
         style="fill:#cd73e6;fill-opacity:1;stroke:none;stroke-width:0.0848199px;stroke-linecap:butt;stroke-linejoin:miter;stroke-opacity:1"
         d="m 989.63227,-111.54358 c -0.75279,0.006 -1.46973,0.19388 -1.84435,0.63459 -0.16913,0.19899 -0.27081,0.40806 -0.32608,0.61805 -0.62791,0.0452 -1.20041,0.23266 -1.51876,0.6072 -0.28636,0.33689 -0.37462,0.70178 -0.36999,1.05316 0.0315,0.0798 0.0683,0.1628 0.1111,0.2496 0.22725,0.46091 0.74075,0.7174 1.38337,0.84388 -0.15192,0.30413 -0.20659,0.61724 -0.20256,0.92242 0.0394,0.0999 0.0854,0.20395 0.13901,0.31264 0.10128,0.20547 0.24823,0.37806 0.43148,0.52297 -0.42651,0.0937 -0.79536,0.26792 -1.02888,0.5426 -0.29107,0.34244 -0.3809,0.71357 -0.37619,1.07074 0.032,0.0811 0.0697,0.1655 0.11316,0.25373 0.31163,0.63201 1.15237,0.88663 2.13114,0.94723 -0.0701,-0.2339 -0.13925,-0.50422 -0.14314,-0.78445 0.0281,0.0711 0.0606,0.14486 0.0987,0.22221 0.37153,0.75354 1.59708,0.89897 2.82205,0.83457 1.17067,-0.0615 1.71397,-0.2265 1.90841,-0.9679 -0.0648,-0.22735 -0.20103,-0.44269 -0.38137,-0.63665 0.99886,-0.12569 1.50511,-0.41746 1.71154,-1.20458 -0.10565,-0.37045 -0.35415,-0.71758 -0.68109,-1.01544 -0.0526,-0.17266 -0.13417,-0.34021 -0.23876,-0.50075 0.18878,-0.18096 0.31861,-0.41919 0.40153,-0.73535 -0.15092,-0.52914 -0.58388,-1.01275 -1.12551,-1.37769 0.14216,-0.14943 0.24206,-0.34184 0.30747,-0.59118 -0.21691,-0.76062 -1.11847,-1.40957 -1.99472,-1.65003 -0.41135,-0.11287 -0.8759,-0.17506 -1.32755,-0.17157 z" />
    </g>
  </g>
</svg>
