<?xml version="1.0" ?><!-- Created with Inkscape (http://www.inkscape.org/) --><svg xmlns:dc="http://purl.org/dc/elements/1.1/" xmlns:cc="http://creativecommons.org/ns#" xmlns:rdf="http://www.w3.org/1999/02/22-rdf-syntax-ns#" xmlns:svg="http://www.w3.org/2000/svg" xmlns="http://www.w3.org/2000/svg" xmlns:sodipodi="http://sodipodi.sourceforge.net/DTD/sodipodi-0.dtd" xmlns:inkscape="http://www.inkscape.org/namespaces/inkscape" width="0.34396639mm" height="0.38365692mm" viewBox="0 0 0.34396639 0.38365692" version="1.1" id="svg12362" inkscape:version="0.92.4 (5da689c313, 2019-01-14)" sodipodi:docname="soccerball.svg">
  <defs id="defs12356"/>
  <sodipodi:namedview id="base" pagecolor="#ffffff" bordercolor="#666666" borderopacity="1.0" inkscape:pageopacity="0.0" inkscape:pageshadow="2" inkscape:zoom="256" inkscape:cx="0.3583687" inkscape:cy="0.2608928" inkscape:document-units="mm" inkscape:current-layer="layer1" showgrid="false" inkscape:window-width="1920" inkscape:window-height="1057" inkscape:window-x="-8" inkscape:window-y="-8" inkscape:window-maximized="1" inkscape:snap-midpoints="true" inkscape:object-nodes="true" inkscape:snap-smooth-nodes="true">
    <inkscape:grid type="xygrid" id="grid14695"/>
  </sodipodi:namedview>
  <metadata id="metadata12359">
    <rdf:RDF>
      <cc:Work rdf:about="">
        <dc:format>image/svg+xml</dc:format>
        <dc:type rdf:resource="http://purl.org/dc/dcmitype/StillImage"/>
        <dc:title/>
      </cc:Work>
    </rdf:RDF>
  </metadata>
  <g inkscape:label="Layer 1" inkscape:groupmode="layer" id="layer1" transform="translate(219.49976,-68.434913)">
    <g transform="matrix(0.05000083,0,0,0.05000083,-226.08799,131.7968)" id="g11664" style="stroke-width:19.99966812">
      <ellipse ry="3.4395874" rx="3.4396069" cy="-1262.9833" cx="135.20209" id="path6763-0-4-1" style="opacity:1;fill:#000000;fill-opacity:0.18000004;fill-rule:nonzero;stroke:none;stroke-width:21.16631508;stroke-linecap:round;stroke-linejoin:round;stroke-miterlimit:4;stroke-dasharray:none;stroke-dashoffset:0;stroke-opacity:1;paint-order:markers fill stroke"/>
      <path inkscape:connector-curvature="0" id="ellipse11599" d="m 135.20259,-1267.2167 c -1.88699,0 -3.43958,1.4854 -3.43958,3.3264 0,1.8409 1.55259,3.3259 3.43958,3.3259 1.88699,0 3.43907,-1.485 3.43907,-3.3259 0,-1.841 -1.55208,-3.3264 -3.43907,-3.3264 z" style="color:#000000;font-style:normal;font-variant:normal;font-weight:normal;font-stretch:normal;font-size:medium;line-height:normal;font-family:sans-serif;font-variant-ligatures:normal;font-variant-position:normal;font-variant-caps:normal;font-variant-numeric:normal;font-variant-alternates:normal;font-feature-settings:normal;text-indent:0;text-align:start;text-decoration:none;text-decoration-line:none;text-decoration-style:solid;text-decoration-color:#000000;letter-spacing:normal;word-spacing:normal;text-transform:none;writing-mode:lr-tb;direction:ltr;text-orientation:mixed;dominant-baseline:auto;baseline-shift:baseline;text-anchor:start;white-space:normal;shape-padding:0;clip-rule:nonzero;display:inline;overflow:visible;visibility:visible;opacity:1;isolation:auto;mix-blend-mode:normal;color-interpolation:sRGB;color-interpolation-filters:linearRGB;solid-color:#000000;solid-opacity:1;vector-effect:none;fill:#1c1c1c;fill-opacity:1;fill-rule:nonzero;stroke:none;stroke-width:15.87473679;stroke-linecap:butt;stroke-linejoin:miter;stroke-miterlimit:4;stroke-dasharray:none;stroke-dashoffset:0;stroke-opacity:1;paint-order:markers stroke fill;color-rendering:auto;image-rendering:auto;shape-rendering:auto;text-rendering:auto;enable-background:accumulate"/>
      <ellipse ry="2.9300261" rx="3.0427134" cy="-1263.8905" cx="135.20218" id="ellipse9917" style="opacity:1;fill:#7884c0;fill-opacity:1;fill-rule:nonzero;stroke:none;stroke-width:15.87473679;stroke-linecap:butt;stroke-linejoin:miter;stroke-miterlimit:4;stroke-dasharray:none;stroke-dashoffset:0;stroke-opacity:1;paint-order:markers stroke fill"/>
      <path inkscape:connector-curvature="0" id="ellipse9944" d="m 135.20219,-1266.8206 a 3.0427133,2.930026 0 0 0 -2.77192,1.7285 3.0427133,2.930026 0 0 0 2.77192,1.7307 3.0427133,2.930026 0 0 0 2.77192,-1.7284 3.0427133,2.930026 0 0 0 -2.77192,-1.7308 z" style="opacity:1;fill:#c7d3ff;fill-opacity:1;fill-rule:nonzero;stroke:none;stroke-width:21.16631508;stroke-linecap:butt;stroke-linejoin:miter;stroke-miterlimit:4;stroke-dasharray:none;stroke-dashoffset:0;stroke-opacity:1;paint-order:markers stroke fill"/>
      <path inkscape:connector-curvature="0" id="path9897" d="m 135.20219,-1266.8206 a 3.0427133,2.930026 0 0 0 -1.92082,0.6601 0.03969147,0.03969147 0 0 0 0.0207,0.013 l 0.32556,0.081 a 0.03969147,0.03969147 0 0 0 0.009,0 c 0.005,0 0.009,0 0.0134,0 0.0586,0.01 0.11495,-7e-4 0.1695,-0.022 a 0.03969147,0.03969147 0 0 0 0.0372,0 l 1.12758,-0.4512 0.002,-5e-4 a 0.03969147,0.03969147 0 0 0 0.0139,-0.01 c 0.0363,-0.016 0.0701,-0.037 0.0992,-0.064 0.003,0 0.007,2e-4 0.01,-0.01 a 0.03969147,0.03969147 0 0 0 0.001,0 l 0.17364,-0.1737 a 0.03969147,0.03969147 0 0 0 0.0103,-0.017 3.0427133,2.930026 0 0 0 -0.092,0 z m -0.18759,0.3587 h 5.2e-4 c -0.0394,9e-4 -0.0767,0.012 -0.11265,0.024 h -5.2e-4 a 0.03969147,0.03969147 0 0 0 -0.0171,0 l -0.95601,0.3829 c -0.10139,0.04 -0.18007,0.1239 -0.21446,0.2273 l -0.11162,0.3307 c -0.0533,0.1583 0.008,0.335 0.14625,0.4274 l 0.3669,0.2439 a 0.03969147,0.03969147 0 0 0 0.0372,0 c 0.0949,0.05 0.2043,0.073 0.3054,0.033 l 0.95912,-0.3829 c 0.1011,-0.04 0.17998,-0.1231 0.21446,-0.2263 a 0.03969147,0.03969147 0 0 0 0.002,-0.011 v 0.01 l 0.10904,-0.326 c 0.0529,-0.1582 -0.008,-0.3344 -0.14728,-0.4264 l -0.36587,-0.2423 a 0.03969147,0.03969147 0 0 0 -0.004,0 c -0.0359,-0.023 -0.0678,-0.02 -0.0811,-0.025 h 0.008 c -0.0331,-0.022 -0.0731,-0.029 -0.11266,-0.033 h -5.1e-4 a 0.03969147,0.03969147 0 0 0 -0.0248,-0.01 z m 1.86707,0.1303 a 0.03969147,0.03969147 0 0 0 -0.005,0.03 l 0.0512,0.2065 a 0.03969147,0.03969147 0 0 0 0.002,0.01 c 0.0107,0.043 0.031,0.082 0.0558,0.1184 a 0.03969147,0.03969147 0 0 0 5.2e-4,0 0.03969147,0.03969147 0 0 0 0.005,0.01 0.03969147,0.03969147 0 0 0 5.2e-4,5e-4 0.03969147,0.03969147 0 0 0 5.2e-4,5e-4 l 0.66042,0.8826 a 0.03969147,0.03969147 0 0 0 0.0222,0.015 0.03969147,0.03969147 0 0 0 5.2e-4,0 c 0.0496,0.057 0.11025,0.1047 0.18397,0.123 v -5e-4 l 0.1757,0.044 a 0.03969147,0.03969147 0 0 0 0.0232,-10e-4 3.0427133,2.930026 0 0 0 -1.17719,-1.4392 z m -0.72708,0.3517 a 0.03969147,0.03969147 0 0 0 -0.005,7e-4 v 0 c -0.15885,10e-5 -0.30143,0.103 -0.3514,0.2543 l -0.10749,0.3234 c -0.0387,0.1153 -0.0178,0.2428 0.0553,0.34 l 0.5488,0.7318 c 0.0698,0.093 0.17951,0.1486 0.2961,0.1486 h 0.57413 c 0.15862,0 0.30117,-0.1019 0.3514,-0.2532 a 0.03969147,0.03969147 0 0 0 0.002,-0.011 l 0.10541,-0.3177 c 0.0381,-0.1149 0.0177,-0.2415 -0.0548,-0.3386 a 0.03969147,0.03969147 0 0 0 -5.2e-4,0 l -0.36794,-0.4914 a 0.03969147,0.03969147 0 0 0 -0.0305,-0.016 h 0.0181 l -0.1695,-0.2248 c -0.0697,-0.093 -0.17926,-0.1475 -0.29507,-0.1478 h -0.5612 a 0.03969147,0.03969147 0 0 0 -0.008,-5e-4 z m -1.14516,0.013 0.2558,0.1691 -0.0698,0.2082 -0.86196,0.3449 -0.25373,-0.1691 0.0698,-0.2098 z m 1.21595,0.4672 h 0.44442 l 0.14986,0.1985 a 0.03969147,0.03969147 0 0 0 0.0119,0.01 l 0.32297,0.4321 -0.0656,0.199 h -0.44544 l -0.4837,-0.6459 z m -2.74815,0.3959 c -0.0712,6e-4 -0.14081,0.022 -0.2005,0.061 a 0.03969147,0.03969147 0 0 0 -0.002,5e-4 l -0.39636,0.2637 a 0.03969147,0.03969147 0 0 0 -0.0176,0.033 v 5e-4 c -0.0838,0.07 -0.14726,0.1641 -0.14728,0.2745 v 0.9127 c -5e-5,0.1161 0.0549,0.2256 0.14779,0.2955 a 0.03969147,0.03969147 0 0 0 0.0212,0.01 h -0.0103 l 0.61443,0.4601 c 0.13793,0.1038 0.3274,0.089 0.45785,-0.021 a 0.03969147,0.03969147 0 0 0 0.0264,-0.012 0.03969147,0.03969147 0 0 0 5.2e-4,0 l 0.29094,-0.2914 0.10851,-0.108 5.2e-4,-6e-4 h 5.2e-4 a 0.03969147,0.03969147 0 0 0 0,-6e-4 c 0.0872,-0.087 0.12545,-0.2127 0.10128,-0.3339 a 0.03969147,0.03969147 0 0 0 -0.001,0 0.03969147,0.03969147 0 0 0 -0.001,0 l -0.18914,-0.9426 a 0.03969147,0.03969147 0 0 0 -0.001,-0.01 c -0.0195,-0.096 -0.0758,-0.1805 -0.1571,-0.2346 l -0.4377,-0.2915 c -0.055,-0.037 -0.1203,-0.052 -0.18603,-0.055 a 0.03969147,0.03969147 0 0 0 -0.0233,-0.01 z m -1.07435,0.066 a 3.0427133,2.930026 0 0 0 -0.21756,0.7855 v 0.7127 a 3.0427133,2.930026 0 0 0 0.21859,0.7923 0.03969147,0.03969147 0 0 0 0.0186,-0.021 l 0.21033,-0.5229 a 0.03969147,0.03969147 0 0 0 5.1e-4,-6e-4 0.03969147,0.03969147 0 0 0 0.002,0 c 0.0177,-0.045 0.0269,-0.093 0.0264,-0.1405 v -1.124 c -3e-4,-0.073 -0.0217,-0.1437 -0.062,-0.2041 l -0.16794,-0.2522 c -0.008,-0.012 -0.0123,-0.015 -0.01,-0.011 a 0.03969147,0.03969147 0 0 0 -0.0191,-0.014 z m 1.07745,0.4321 0.34365,0.228 0.17156,0.8542 -0.0574,0.056 h 0.016 a 0.03969147,0.03969147 0 0 0 -0.0279,0.012 l -0.22686,0.2266 -0.50902,-0.3818 v -0.8031 z m 3.1104,0.4811 c -0.11624,0 -0.22616,0.055 -0.2961,0.1477 a 0.03969147,0.03969147 0 0 0 -0.008,0.018 v -0.01 l -0.55242,0.7374 c -0.0672,0.09 -0.0904,0.205 -0.0625,0.3136 l 0.14469,0.5737 c 0.0412,0.1632 0.1895,0.2797 0.35812,0.2799 h 5.1e-4 0.81236 c 0.1165,-2e-4 0.22635,-0.056 0.29611,-0.1488 a 0.03969147,0.03969147 0 0 0 5.1e-4,-5e-4 l 0.52659,-0.7023 a 0.03969147,0.03969147 0 0 0 5.1e-4,0 c 0.0838,-0.1121 0.0973,-0.2625 0.0346,-0.3876 l -0.308,-0.6185 h -5.1e-4 c -0.0628,-0.1248 -0.19154,-0.2043 -0.33125,-0.2041 l -0.61443,-6e-4 z m 0.0522,0.4771 h 0.49712 l 0.25012,0.5023 -0.45579,0.6077 h -0.67696 l -0.11265,-0.4455 z m -1.9942,0.359 a 0.03969147,0.03969147 0 0 0 -0.004,6e-4 c -0.002,10e-5 -0.004,3e-4 -0.006,5e-4 -0.003,3e-4 -0.0139,-10e-5 -0.0243,0.01 -0.003,0 -0.003,-2e-4 -0.006,0.01 -0.0756,0.012 -0.15159,0.037 -0.20929,0.095 l -0.47646,0.4759 a 0.03969147,0.03969147 0 0 0 0,5e-4 c -8.9e-4,9e-4 -0.001,0 -0.002,0 l 0.003,-0.01 a 0.03969147,0.03969147 0 0 0 -0.0103,0.017 c -0.0835,0.091 -0.11761,0.2184 -0.0873,0.339 l 0.15244,0.6088 c 0.0297,0.1182 0.12792,0.1977 0.24029,0.2403 a 0.03969147,0.03969147 0 0 0 0.0284,0.029 l 0.60978,0.1519 a 0.03969147,0.03969147 0 0 0 0.001,6e-4 c 0.1269,0.031 0.25945,-0.011 0.35037,-0.098 a 0.03969147,0.03969147 0 0 0 5.2e-4,-5e-4 l 0.47387,-0.4755 c 0.0913,-0.091 0.12856,-0.2231 0.0987,-0.3483 l -0.0207,-0.085 a 0.03969147,0.03969147 0 0 0 -0.003,-0.01 0.03969147,0.03969147 0 0 0 -5.2e-4,0 0.03969147,0.03969147 0 0 0 -5.1e-4,0 l -0.1292,-0.5142 h -5.1e-4 a 0.03969147,0.03969147 0 0 0 -5.2e-4,0 c -0.0336,-0.1315 -0.13688,-0.2347 -0.26872,-0.2676 l -0.60771,-0.152 a 0.03969147,0.03969147 0 0 0 -0.008,0 c -0.007,-2e-4 -0.0139,-2e-4 -0.0207,0 -0.01,0 -0.0161,3e-4 -0.0196,0 -0.0168,0 -0.0337,-0.01 -0.0512,-0.01 a 0.03969147,0.03969147 0 0 0 -0.003,0 h -5.2e-4 z m 3.48248,0.1261 5.2e-4,0.01 a 0.03969147,0.03969147 0 0 0 -0.0202,0.01 l -0.0615,0.041 a 0.03969147,0.03969147 0 0 0 0,5e-4 c -0.0344,0.024 -0.0647,0.052 -0.0894,0.084 a 0.03969147,0.03969147 0 0 0 0,6e-4 l -0.0491,0.065 a 0.03969147,0.03969147 0 0 0 -0.003,0 h -5.1e-4 a 0.03969147,0.03969147 0 0 0 -5.2e-4,5e-4 l -0.64337,0.8574 a 0.03969147,0.03969147 0 0 0 -0.003,0 h -5.2e-4 a 0.03969147,0.03969147 0 0 0 -0.001,5e-4 c -0.0333,0.045 -0.0557,0.097 -0.0661,0.1519 l -0.0527,0.2651 a 0.03969147,0.03969147 0 0 0 0.0108,0.036 3.0427133,2.930026 0 0 0 0.99374,-1.5162 0.03969147,0.03969147 0 0 0 -0.0139,0 z m -3.43597,0.3627 0.48835,0.1214 0.11627,0.462 a 0.03969147,0.03969147 0 0 0 0.004,0.011 l 0.003,0.011 -0.39067,0.3918 -0.48989,-0.122 -0.12196,-0.4884 z m -0.75757,1.3327 a 0.03969147,0.03969147 0 0 0 -0.005,0 l -0.28732,0.057 a 0.03969147,0.03969147 0 0 0 -0.0248,0.018 3.0427133,2.930026 0 0 0 1.58182,0.431 3.0427133,2.930026 0 0 0 0.0971,0 0.03969147,0.03969147 0 0 0 -0.0108,-0.023 l -0.15917,-0.1592 h -5.1e-4 c -0.0475,-0.048 -0.10728,-0.082 -0.17208,-0.098 a 0.03969147,0.03969147 0 0 0 -0.006,0 l -0.85628,-0.2149 a 0.03969147,0.03969147 0 0 0 -0.008,0 c -0.007,-4e-4 -0.0139,-3e-4 -0.0207,0 -0.012,0 -0.0222,4e-4 -0.0305,0 -0.008,-5e-4 -0.0161,-4e-4 -0.0243,0 h -0.03 a 0.03969147,0.03969147 0 0 0 -0.014,0 c -0.01,-7e-4 -0.0201,-7e-4 -0.03,0 z" style="color:#000000;font-style:normal;font-variant:normal;font-weight:normal;font-stretch:normal;font-size:medium;line-height:normal;font-family:sans-serif;font-variant-ligatures:normal;font-variant-position:normal;font-variant-caps:normal;font-variant-numeric:normal;font-variant-alternates:normal;font-feature-settings:normal;text-indent:0;text-align:start;text-decoration:none;text-decoration-line:none;text-decoration-style:solid;text-decoration-color:#000000;letter-spacing:normal;word-spacing:normal;text-transform:none;writing-mode:lr-tb;direction:ltr;text-orientation:mixed;dominant-baseline:auto;baseline-shift:baseline;text-anchor:start;white-space:normal;shape-padding:0;clip-rule:nonzero;display:inline;overflow:visible;visibility:visible;opacity:1;isolation:auto;mix-blend-mode:normal;color-interpolation:sRGB;color-interpolation-filters:linearRGB;solid-color:#000000;solid-opacity:1;vector-effect:none;fill:#b4b8d4;fill-opacity:1;fill-rule:nonzero;stroke:none;stroke-width:1.58747375;stroke-linecap:butt;stroke-linejoin:round;stroke-miterlimit:4;stroke-dasharray:none;stroke-dashoffset:0;stroke-opacity:1;paint-order:markers stroke fill;color-rendering:auto;image-rendering:auto;shape-rendering:auto;text-rendering:auto;enable-background:accumulate"/>
      <path inkscape:connector-curvature="0" id="path9951" d="m 135.39494,-1266.8113 c -0.11667,0.1648 -0.0818,0.4047 0.0915,0.5209 l 5.1e-4,6e-4 0.001,6e-4 0.28732,0.1907 h 0.004 c 0.0611,0.041 0.13262,0.06 0.20464,0.06 h 0.42995 c 0.0203,0 0.0478,-7e-4 0.0765,-0.012 0.16531,-0.035 0.27885,-0.1799 0.28887,-0.3416 a 3.0427133,2.930026 0 0 0 -1.38441,-0.4191 z m -2.17196,0.7003 a 3.0427133,2.930026 0 0 0 -0.78497,1.0029 l 0.0522,0.079 c 0.11178,0.1687 0.34442,0.2163 0.51315,0.1042 h 0.004 l 0.3483,-0.2325 c 0.0681,-0.046 0.12016,-0.1127 0.14625,-0.1907 l 0.0863,-0.258 v -5e-4 c 0.067,-0.202 -0.0555,-0.4249 -0.262,-0.4764 v 5e-4 z m 3.26647,0.062 c -0.001,0 -0.001,7e-4 -0.002,9e-4 h -0.008 0.01 z m -3.39359,0.4072 -0.0346,0.1048 -0.0987,0.066 c 0.0438,-0.058 0.0847,-0.117 0.13333,-0.1711 z m 2.37711,0.5378 c -0.0519,0 -0.1016,0.011 -0.14624,0.027 l -0.002,10e-4 -0.73277,0.2942 -5.2e-4,-6e-4 c -0.16467,0.066 -0.26016,0.2425 -0.22531,0.4164 l 0.15038,0.752 c 0.0279,0.1394 0.13394,0.2511 0.27182,0.2862 h 0.005 l 0.5519,0.1396 c 0.0372,0.012 0.0744,0.014 0.10956,0.012 0.0367,0 0.0683,-0.011 0.0971,-0.02 0.003,0 0.008,0 0.0114,0 l 0.002,-5e-4 c 0.0673,-0.025 0.12601,-0.068 0.16899,-0.1261 l 0.44493,-0.5942 h -0.0191 l 0.032,-0.016 c 0.0923,-0.1239 0.09,-0.2911 0.008,-0.4197 l -0.008,-0.024 -0.4315,-0.5771 c -0.0603,-0.081 -0.15658,-0.1205 -0.2558,-0.1332 h -0.004 l -5.2e-4,5e-4 h -0.001 l -0.0181,-0.01 c -0.003,-2e-4 -0.005,0 -0.008,0 z m 2.47582,0.2585 c -0.004,0 -0.009,0.01 -0.0139,0.01 h -0.007 c -0.0102,0.011 -0.0104,0.017 -0.0124,0.024 l 0.0103,-0.01 -0.003,0.01 c -0.12948,0.023 -0.25206,0.095 -0.29559,0.2244 l -0.0977,0.2893 c -0.0317,0.093 -0.0246,0.195 0.0191,0.2833 v 5e-4 l 0.25425,0.509 c 0.0718,0.1452 0.22949,0.2181 0.38085,0.1994 a 3.0427133,2.930026 0 0 0 0.0615,-0.5854 3.0427133,2.930026 0 0 0 -0.16227,-0.9322 h -0.0145 -0.01 -0.0191 -0.0424 l 0.003,0.011 -0.0424,-0.03 c 2.4e-4,0 -0.003,-10e-5 -0.009,0 z m -2.52181,0.2397 0.33641,0.4501 -0.3669,0.4894 -0.4253,-0.1075 -0.11988,-0.6005 z m -2.58279,1.4998 h -0.002 c -0.14242,0.011 -0.2692,0.099 -0.32246,0.2325 l -0.0801,0.2005 a 3.0427133,2.930026 0 0 0 1.0976,1.231 l 0.0568,-0.011 h -0.004 l 0.008,-10e-4 c 0.20362,-0.041 0.33371,-0.2498 0.28422,-0.4512 h 0.002 l -0.12816,-0.5115 -0.001,-0.01 c -0.0204,-0.082 -0.0688,-0.1546 -0.13643,-0.2057 l -5.1e-4,-6e-4 -0.53124,-0.3988 h -10e-4 l -0.001,-7e-4 c -0.0694,-0.051 -0.15469,-0.077 -0.24082,-0.072 z m 0.0667,0.538 0.39016,0.2929 0.0935,0.3748 -0.0429,0.01 c -0.18914,-0.1622 -0.3529,-0.3484 -0.4899,-0.5532 z m 3.11506,0.5545 c -0.0981,10e-5 -0.19257,0.04 -0.262,0.1089 l -0.0119,0.028 v -0.016 l -0.3824,0.3835 c -0.14252,0.1425 -0.14337,0.3786 -0.002,0.5219 l 5.2e-4,6e-4 0.0196,0.02 a 3.0427133,2.930026 0 0 0 1.67741,-0.6093 c 0.0407,-0.2232 -0.13618,-0.4371 -0.3638,-0.4372 z m 0.0434,0.477 h 0.42168 c -0.20791,0.1045 -0.42741,0.1839 -0.65629,0.2356 z" style="color:#000000;font-style:normal;font-variant:normal;font-weight:normal;font-stretch:normal;font-size:medium;line-height:normal;font-family:sans-serif;font-variant-ligatures:normal;font-variant-position:normal;font-variant-caps:normal;font-variant-numeric:normal;font-variant-alternates:normal;font-feature-settings:normal;text-indent:0;text-align:start;text-decoration:none;text-decoration-line:none;text-decoration-style:solid;text-decoration-color:#000000;letter-spacing:normal;word-spacing:normal;text-transform:none;writing-mode:lr-tb;direction:ltr;text-orientation:mixed;dominant-baseline:auto;baseline-shift:baseline;text-anchor:start;white-space:normal;shape-padding:0;clip-rule:nonzero;display:inline;overflow:visible;visibility:visible;opacity:1;isolation:auto;mix-blend-mode:normal;color-interpolation:sRGB;color-interpolation-filters:linearRGB;solid-color:#000000;solid-opacity:1;vector-effect:none;fill:#121214;fill-opacity:1;fill-rule:nonzero;stroke:none;stroke-width:1.58747375;stroke-linecap:butt;stroke-linejoin:bevel;stroke-miterlimit:4;stroke-dasharray:none;stroke-dashoffset:0;stroke-opacity:1;paint-order:markers stroke fill;color-rendering:auto;image-rendering:auto;shape-rendering:auto;text-rendering:auto;enable-background:accumulate"/>
      <path inkscape:connector-curvature="0" id="ellipse11481" d="m 135.39494,-1266.8113 c -0.11667,0.1648 -0.0818,0.4047 0.0915,0.5209 l 5.1e-4,6e-4 0.001,6e-4 0.28732,0.1907 h 0.004 c 0.0611,0.041 0.13262,0.06 0.20464,0.06 h 0.42995 c 0.0203,0 0.0478,-7e-4 0.0765,-0.012 0.16531,-0.035 0.27885,-0.1799 0.28887,-0.3416 a 3.0427133,2.930026 0 0 0 -0.0367,-0.019 c 0,-7e-4 5.3e-4,0 5.2e-4,0 a 3.0427133,2.930026 0 0 0 -0.16536,-0.084 3.0427133,2.930026 0 0 0 -0.0754,-0.038 3.0427133,2.930026 0 0 0 -0.19172,-0.078 3.0427133,2.930026 0 0 0 -0.0946,-0.037 3.0427133,2.930026 0 0 0 -0.19534,-0.057 3.0427133,2.930026 0 0 0 -0.093,-0.026 3.0427133,2.930026 0 0 0 -0.20464,-0.039 3.0427133,2.930026 0 0 0 -0.0966,-0.017 3.0427133,2.930026 0 0 0 -0.18552,-0.021 c -6.5e-4,8e-4 -9e-4,0 -0.002,0 a 3.0427133,2.930026 0 0 0 -0.0444,0 z m -2.17196,0.7003 a 3.0427133,2.930026 0 0 0 -0.0346,0.031 l -0.002,-6e-4 a 3.0427133,2.930026 0 0 0 -0.0786,0.074 3.0427133,2.930026 0 0 0 -0.10542,0.096 3.0427133,2.930026 0 0 0 -0.0196,0.022 3.0427133,2.930026 0 0 0 -0.077,0.086 3.0427133,2.930026 0 0 0 -0.1018,0.1138 3.0427133,2.930026 0 0 0 -0.0171,0.024 3.0427133,2.930026 0 0 0 -0.0651,0.089 3.0427133,2.930026 0 0 0 -0.0879,0.1204 3.0427133,2.930026 0 0 0 -0.017,0.029 3.0427133,2.930026 0 0 0 -0.0532,0.09 3.0427133,2.930026 0 0 0 -0.0811,0.1395 3.0427133,2.930026 0 0 0 -0.0233,0.047 3.0427133,2.930026 0 0 0 -5.1e-4,0 3.0427133,2.930026 0 0 0 -0.0207,0.041 l 0.0522,0.079 c 0.11178,0.1687 0.34442,0.2163 0.51315,0.1043 h 0.004 l 0.3483,-0.2326 c 0.0681,-0.046 0.12016,-0.1126 0.14625,-0.1907 l 0.0863,-0.2579 v -6e-4 c 0.067,-0.202 -0.0555,-0.4249 -0.262,-0.4764 v 6e-4 z m 3.26647,0.062 c -0.001,0 -0.001,7e-4 -0.002,9e-4 h -0.008 0.01 z m -3.39359,0.4072 -0.0346,0.1048 -0.0987,0.066 c 0.0438,-0.058 0.0847,-0.117 0.13333,-0.1711 z m 2.37711,0.5378 c -0.0519,0 -0.1016,0.011 -0.14624,0.027 l -0.002,10e-4 -0.73277,0.2942 -5.2e-4,-6e-4 c -0.16467,0.066 -0.26016,0.2425 -0.22531,0.4164 l 0.15038,0.752 c 0.0153,0.076 0.0554,0.143 0.11007,0.1947 a 3.0427133,2.930026 0 0 0 0.0754,0.011 c 0.002,0 0.004,0 0.006,0 a 3.0427133,2.930026 0 0 0 0.13333,0.015 3.0427133,2.930026 0 0 0 0.12195,0.014 3.0427133,2.930026 0 0 0 0.2372,0.012 3.0427133,2.930026 0 0 0 0.002,0 3.0427133,2.930026 0 0 0 0.42271,-0.033 3.0427133,2.930026 0 0 0 0.12712,-0.018 h 5.2e-4 a 3.0427133,2.930026 0 0 0 0.0553,-0.01 l 0.37155,-0.4966 h -0.0191 l 0.032,-0.016 c 0.0923,-0.1239 0.09,-0.2909 0.008,-0.4197 l -0.008,-0.024 -0.4315,-0.5772 c -0.0603,-0.081 -0.15658,-0.1206 -0.2558,-0.1333 h -0.004 l -5.2e-4,5e-4 h -0.001 l -0.0181,-0.01 c -0.003,-2e-4 -0.005,0 -0.008,0 z m 2.32079,0.337 c -0.0753,0.038 -0.1386,0.096 -0.16691,0.1798 l -0.0351,0.105 a 3.0427133,2.930026 0 0 0 0.0956,-0.1324 c -0.005,0.01 -0.011,0.017 -0.015,0.027 a 3.0427133,2.930026 0 0 0 0.0749,-0.1053 c -0.006,0.01 -0.0113,0.012 -0.017,0.019 a 3.0427133,2.930026 0 0 0 0.0636,-0.092 z m -2.36678,0.1612 0.33641,0.4501 -0.3669,0.4894 -0.4253,-0.1075 -0.11988,-0.6005 z" style="opacity:1;fill:#1c1c18;fill-opacity:1;fill-rule:nonzero;stroke:none;stroke-width:21.16631508;stroke-linecap:butt;stroke-linejoin:miter;stroke-miterlimit:4;stroke-dasharray:none;stroke-dashoffset:0;stroke-opacity:1;paint-order:markers stroke fill"/>
      <path inkscape:connector-curvature="0" id="path9736" d="m 135.68795,-1266.7798 -0.0889,0.089 a 0.13230489,0.13230489 0 0 0 0.0202,0.2037 l 0.29094,0.1933 a 0.13230489,0.13230489 0 0 0 0.0734,0.022 h 0.42995 a 0.13230489,0.13230489 0 0 0 0.12816,-0.1643 l -0.0227,-0.091 a 3.0427133,2.930026 0 0 0 -0.83095,-0.2516 z m -2.67633,0.861 a 3.0427133,2.930026 0 0 0 -0.44648,0.5719 l 0.12299,0.1857 a 0.13230489,0.13230489 0 0 0 0.18345,0.037 l 0.3514,-0.2345 a 0.13230489,0.13230489 0 0 0 0.0522,-0.068 l 0.0863,-0.2579 a 0.13230489,0.13230489 0 0 0 -0.0935,-0.17 z m 2.45619,1.0542 a 0.13230489,0.13230489 0 0 0 -0.0527,0.01 l -0.73433,0.2947 a 0.13230489,0.13230489 0 0 0 -0.0806,0.1488 l 0.15038,0.7518 a 0.13230489,0.13230489 0 0 0 0.0971,0.1023 l 0.55862,0.1412 a 0.13230489,0.13230489 0 0 0 0.13849,-0.049 l 0.45682,-0.6104 a 0.13230489,0.13230489 0 0 0 0,-0.1581 l -0.4315,-0.5778 a 0.13230489,0.13230489 0 0 0 -0.10231,-0.053 z m 2.50268,0.2579 a 0.13230489,0.13230489 0 0 0 -0.11834,0.09 l -0.0977,0.2895 a 0.13230489,0.13230489 0 0 0 0.007,0.1012 l 0.25424,0.5095 a 0.13230489,0.13230489 0 0 0 0.19224,0.051 l 0.0191,-0.013 a 3.0427133,2.930026 0 0 0 0.0181,-0.3121 3.0427133,2.930026 0 0 0 -0.0858,-0.6749 l -0.14986,-0.038 a 0.13230489,0.13230489 0 0 0 -0.0393,0 z m -5.11338,1.7419 a 0.13230489,0.13230489 0 0 0 -0.11575,0.083 l -0.15348,0.3834 a 3.0427133,2.930026 0 0 0 0.68058,0.7679 l 0.28267,-0.057 a 0.13230489,0.13230489 0 0 0 0.1018,-0.1619 l -0.12919,-0.5173 a 0.13230489,0.13230489 0 0 0 -0.0486,-0.074 l -0.53123,-0.399 a 0.13230489,0.13230489 0 0 0 -0.0868,-0.026 z m 3.16932,1.0919 a 0.13230489,0.13230489 0 0 0 -0.0935,0.039 l -0.39429,0.3948 a 0.13230489,0.13230489 0 0 0 -5.2e-4,0.1866 l 0.15193,0.1529 a 3.0427133,2.930026 0 0 0 1.09761,-0.3928 l 0.0444,-0.2221 a 0.13230489,0.13230489 0 0 0 -0.12971,-0.1582 z" style="fill:#1b1b1d;fill-opacity:1;stroke:none;stroke-width:7.93736839;stroke-linecap:butt;stroke-linejoin:round;stroke-miterlimit:4;stroke-dasharray:none;stroke-opacity:1;paint-order:markers stroke fill"/>
      <path inkscape:connector-curvature="0" id="path9738" d="m 134.96499,-1266.8107 a 3.0427133,2.930026 0 0 0 -1.4366,0.4754 l 0.15761,0.04 a 0.13230489,0.13230489 0 0 0 0.0811,-0.01 l 1.12913,-0.4516 a 0.13230489,0.13230489 0 0 0 0.0445,-0.029 z m 0.0558,0.5885 a 0.13230489,0.13230489 0 0 0 -0.047,0.01 l -0.95705,0.3829 a 0.13230489,0.13230489 0 0 0 -0.0765,0.081 l -0.11162,0.3318 a 0.13230489,0.13230489 0 0 0 0.0522,0.1524 l 0.36742,0.2444 a 0.13230489,0.13230489 0 0 0 0.12247,0.013 l 0.95912,-0.3829 a 0.13230489,0.13230489 0 0 0 0.0765,-0.081 l 0.11111,-0.3323 a 0.13230489,0.13230489 0 0 0 -0.0527,-0.1524 l -0.36897,-0.2439 a 0.13230489,0.13230489 0 0 0 -0.0749,-0.022 z m 2.14768,0.096 a 0.13230489,0.13230489 0 0 0 0.0139,0.023 l 0.66042,0.8832 a 0.13230489,0.13230489 0 0 0 0.0739,0.049 l 0.0222,0.01 a 3.0427133,2.930026 0 0 0 -0.77049,-0.9611 z m -1.01855,0.3844 a 0.13230489,0.13230489 0 0 0 -0.12557,0.091 l -0.10749,0.324 a 0.13230489,0.13230489 0 0 0 0.0196,0.1214 l 0.5488,0.7322 a 0.13230489,0.13230489 0 0 0 0.10594,0.053 h 0.57413 a 0.13230489,0.13230489 0 0 0 0.12557,-0.09 l 0.10749,-0.3241 a 0.13230489,0.13230489 0 0 0 -0.0196,-0.1208 l -0.36794,-0.4915 a 0.13230489,0.13230489 0 0 0 -5.1e-4,-6e-4 l -0.18139,-0.2408 a 0.13230489,0.13230489 0 0 0 -0.10542,-0.053 z m -2.67012,0.8729 a 0.13230489,0.13230489 0 0 0 -0.0718,0.022 l -0.39636,0.2635 a 0.13230489,0.13230489 0 0 0 -0.0589,0.1101 v 0.9121 a 0.13230489,0.13230489 0 0 0 0.0527,0.1059 l 0.62529,0.4687 a 0.13230489,0.13230489 0 0 0 0.17311,-0.012 l 0.29146,-0.2914 0.10904,-0.1086 a 0.13230489,0.13230489 0 0 0 0.0362,-0.1193 l -0.19172,-0.9535 a 0.13230489,0.13230489 0 0 0 -0.0563,-0.084 l -0.4377,-0.2914 a 0.13230489,0.13230489 0 0 0 -0.0749,-0.022 z m -1.1746,0.086 a 3.0427133,2.930026 0 0 0 -0.14573,0.8925 3.0427133,2.930026 0 0 0 0.12557,0.8253 l 0.12971,-0.3231 a 0.13230489,0.13230489 0 0 0 0.009,-0.05 v -1.1266 a 0.13230489,0.13230489 0 0 0 -0.0222,-0.073 z m 4.28604,0.8935 a 0.13230489,0.13230489 0 0 0 -0.10594,0.053 l -0.56068,0.7478 a 0.13230489,0.13230489 0 0 0 -0.0222,0.1122 l 0.1447,0.5742 a 0.13230489,0.13230489 0 0 0 0.12815,0.1002 h 0.81236 a 0.13230489,0.13230489 0 0 0 0.10594,-0.053 l 0.52709,-0.7029 a 0.13230489,0.13230489 0 0 0 0.0124,-0.1385 l -0.30851,-0.619 a 0.13230489,0.13230489 0 0 0 -0.11834,-0.073 z m -1.93528,0.8356 a 0.13230489,0.13230489 0 0 0 -0.0863,0.039 l -0.47646,0.4764 a 0.13230489,0.13230489 0 0 0 -0.0346,0.1256 l 0.15245,0.6088 a 0.13230489,0.13230489 0 0 0 0.0961,0.096 l 0.60979,0.1524 a 0.13230489,0.13230489 0 0 0 0.12557,-0.035 l 0.47439,-0.4759 a 0.13230489,0.13230489 0 0 0 0.0351,-0.1251 l -0.0207,-0.085 a 0.13230489,0.13230489 0 0 0 -5.2e-4,-5e-4 l -0.13177,-0.525 a 0.13230489,0.13230489 0 0 0 -0.0961,-0.096 l -0.60772,-0.152 a 0.13230489,0.13230489 0 0 0 -0.0393,0 z m 3.25665,0.4879 -0.46044,0.6134 a 0.13230489,0.13230489 0 0 0 -0.0238,0.054 3.0427133,2.930026 0 0 0 0.48421,-0.667 z m -3.92793,1.3317 a 0.13230489,0.13230489 0 0 0 -0.005,6e-4 l -0.0367,0.01 a 3.0427133,2.930026 0 0 0 1.02785,0.2554 l -0.0103,-0.01 a 0.13230489,0.13230489 0 0 0 -0.0615,-0.035 l -0.86145,-0.2155 a 0.13230489,0.13230489 0 0 0 -0.0393,0 v 0 a 0.13230489,0.13230489 0 0 0 -0.0134,-5e-4 z" style="fill:#a8acd4;fill-opacity:1;stroke:none;stroke-width:7.93736839;stroke-linecap:butt;stroke-linejoin:round;stroke-miterlimit:4;stroke-dasharray:none;stroke-opacity:1;paint-order:markers stroke fill"/>
      <path inkscape:connector-curvature="0" id="ellipse9923" d="m 135.20219,-1266.8206 a 3.0427133,2.930026 0 0 0 -1.89033,0.6347 h 0.006 a 3.0427133,2.930026 0 0 0 -0.0351,0.025 0.03969147,0.03969147 0 0 0 0.0191,0.011 l 0.32556,0.081 a 0.03969147,0.03969147 0 0 0 0.009,0 c 0.005,10e-5 0.009,10e-5 0.0134,0 0.0586,0.01 0.11495,-7e-4 0.1695,-0.022 a 0.03969147,0.03969147 0 0 0 0.0372,0 l 1.12758,-0.4511 0.002,-5e-4 a 0.03969147,0.03969147 0 0 0 0.0139,-0.01 c 0.0363,-0.016 0.0701,-0.037 0.0992,-0.064 0.003,0 0.007,2e-4 0.01,-0.01 a 0.03969147,0.03969147 0 0 0 0.001,0 l 0.17364,-0.1736 a 0.03969147,0.03969147 0 0 0 0.0103,-0.017 3.0427133,2.930026 0 0 0 -0.0393,0 3.0427133,2.930026 0 0 0 -0.0527,0 z m -0.18759,0.3587 h 5.2e-4 c -0.0394,9e-4 -0.0767,0.012 -0.11265,0.024 h -5.2e-4 a 0.03969147,0.03969147 0 0 0 -0.0171,0 l -0.95601,0.3829 c -0.10139,0.04 -0.18007,0.1239 -0.21446,0.2273 l -0.11162,0.3307 c -0.0533,0.1583 0.008,0.335 0.14625,0.4274 l 0.3669,0.2439 a 0.03969147,0.03969147 0 0 0 0.0372,0 c 0.0949,0.05 0.2043,0.073 0.3054,0.033 l 0.95912,-0.3829 c 0.1011,-0.04 0.17998,-0.1231 0.21446,-0.2263 a 0.03969147,0.03969147 0 0 0 0.002,-0.011 v 0.01 l 0.10904,-0.326 c 0.0529,-0.1582 -0.008,-0.3344 -0.14728,-0.4264 l -0.36587,-0.2423 a 0.03969147,0.03969147 0 0 0 -0.004,0 c -0.0359,-0.023 -0.0678,-0.02 -0.0811,-0.025 h 0.008 c -0.0331,-0.022 -0.0731,-0.029 -0.11266,-0.033 h -5.1e-4 a 0.03969147,0.03969147 0 0 0 -0.0248,-0.01 z m 1.865,0.1339 a 0.03969147,0.03969147 0 0 0 -0.003,0.026 l 0.0512,0.2066 a 0.03969147,0.03969147 0 0 0 0.002,0.01 c 0.0107,0.043 0.031,0.082 0.0558,0.1183 a 0.03969147,0.03969147 0 0 0 5.2e-4,0 0.03969147,0.03969147 0 0 0 0.005,0.01 0.03969147,0.03969147 0 0 0 5.2e-4,5e-4 0.03969147,0.03969147 0 0 0 5.2e-4,5e-4 l 0.66042,0.8826 a 0.03969147,0.03969147 0 0 0 0.0222,0.015 0.03969147,0.03969147 0 0 0 5.2e-4,0 c 0.0496,0.057 0.11025,0.1047 0.18397,0.123 v -5e-4 l 0.0305,0.01 a 3.0427133,2.930026 0 0 0 0.0196,-0.038 l 0.002,5e-4 a 3.0427133,2.930026 0 0 0 0.0615,-0.1225 3.0427133,2.930026 0 0 0 5.2e-4,-10e-4 3.0427133,2.930026 0 0 0 -0.005,-0.01 3.0427133,2.930026 0 0 0 -0.005,-0.011 3.0427133,2.930026 0 0 0 -0.093,-0.1757 3.0427133,2.930026 0 0 0 -0.009,-0.016 3.0427133,2.930026 0 0 0 -0.0367,-0.065 3.0427133,2.930026 0 0 0 -0.004,-0.01 3.0427133,2.930026 0 0 0 -0.0816,-0.1215 3.0427133,2.930026 0 0 0 -0.0341,-0.051 3.0427133,2.930026 0 0 0 -0.0465,-0.066 3.0427133,2.930026 0 0 0 -0.74259,-0.6987 l 0.002,0.01 a 3.0427133,2.930026 0 0 0 -0.0383,-0.025 z m -0.72501,0.3483 a 0.03969147,0.03969147 0 0 0 -0.005,5e-4 v 0 c -0.15885,10e-5 -0.30143,0.103 -0.3514,0.2543 l -0.10749,0.3234 c -0.0387,0.1153 -0.0178,0.2428 0.0553,0.3401 l 0.5488,0.7317 c 0.0698,0.093 0.17951,0.1487 0.2961,0.1488 h 0.57413 c 0.0781,0 0.15221,-0.025 0.21342,-0.068 a 3.0427133,2.930026 0 0 0 0.0961,-0.1044 c 0.0162,-0.025 0.0321,-0.051 0.0419,-0.081 a 0.03969147,0.03969147 0 0 0 0.002,-0.011 l 0.10541,-0.3178 c 0.0381,-0.1149 0.0177,-0.2415 -0.0548,-0.3385 a 0.03969147,0.03969147 0 0 0 -5.2e-4,0 l -0.36794,-0.4914 a 0.03969147,0.03969147 0 0 0 -0.0305,-0.016 h 0.0181 l -0.1695,-0.2248 c -0.0697,-0.093 -0.17926,-0.1475 -0.29507,-0.1478 h -0.5612 a 0.03969147,0.03969147 0 0 0 -0.008,-5e-4 z m -1.14516,0.013 0.2558,0.169 -0.0698,0.2083 -0.86196,0.3447 -0.25373,-0.169 0.0698,-0.2098 z m 1.21595,0.4672 h 0.44442 l 0.14986,0.1984 a 0.03969147,0.03969147 0 0 0 0.0119,0.01 l 0.32297,0.4321 -0.0656,0.1989 h -0.44544 l -0.4837,-0.6459 z m -2.74815,0.3958 c -0.0712,6e-4 -0.14081,0.022 -0.2005,0.061 a 0.03969147,0.03969147 0 0 0 -0.002,5e-4 l -0.39636,0.2636 a 0.03969147,0.03969147 0 0 0 -0.0176,0.033 v 6e-4 c -0.0545,0.046 -0.0981,0.1021 -0.12351,0.1658 a 3.0427133,2.930026 0 0 0 0.0269,0.032 c -2.2e-4,9e-4 -8.3e-4,0 -0.001,0 a 3.0427133,2.930026 0 0 0 0.12557,0.146 3.0427133,2.930026 0 0 0 0.0455,0.053 3.0427133,2.930026 0 0 0 0.21652,0.213 v 0 a 3.0427133,2.930026 0 0 0 0.0398,0.034 v -0.3137 l 0.28991,-0.1917 0.34365,0.2279 0.15348,0.7632 a 3.0427133,2.930026 0 0 0 0.0434,0.016 l 0.002,0.01 a 3.0427133,2.930026 0 0 0 0.21239,0.072 3.0427133,2.930026 0 0 0 0.0408,0.014 3.0427133,2.930026 0 0 0 0.15606,0.044 3.0427133,2.930026 0 0 0 0.006,0 3.0427133,2.930026 0 0 0 0.0382,0.011 c 0.004,-0.037 0.004,-0.074 -0.003,-0.1116 a 0.03969147,0.03969147 0 0 0 -0.001,0 0.03969147,0.03969147 0 0 0 -0.001,0 l -0.18914,-0.9426 a 0.03969147,0.03969147 0 0 0 -0.001,-0.01 c -0.0195,-0.096 -0.0758,-0.1805 -0.1571,-0.2346 l -0.4377,-0.2915 c -0.055,-0.037 -0.1203,-0.052 -0.18603,-0.055 a 0.03969147,0.03969147 0 0 0 -0.0233,-0.01 z m 3.1135,0.9793 c -0.11624,0 -0.22616,0.055 -0.2961,0.1478 a 0.03969147,0.03969147 0 0 0 -0.008,0.018 v -0.01 l -0.39275,0.5239 a 3.0427133,2.930026 0 0 0 0.0615,-0.017 h -0.004 a 3.0427133,2.930026 0 0 0 0.17467,-0.052 3.0427133,2.930026 0 0 0 0.0739,-0.022 3.0427133,2.930026 0 0 0 0.20722,-0.08 3.0427133,2.930026 0 0 0 0.0749,-0.03 3.0427133,2.930026 0 0 0 0.20206,-0.1014 3.0427133,2.930026 0 0 0 0.0646,-0.034 3.0427133,2.930026 0 0 0 0.20981,-0.1328 3.0427133,2.930026 0 0 0 0.0403,-0.027 3.0427133,2.930026 0 0 0 0.19896,-0.1509 h -0.005 a 3.0427133,2.930026 0 0 0 0.0419,-0.034 c -0.01,-8e-4 -0.0194,0 -0.0295,0 l -0.61443,-5e-4 z" style="opacity:1;fill:#ecf4ff;fill-opacity:1;fill-rule:nonzero;stroke:none;stroke-width:21.16631508;stroke-linecap:butt;stroke-linejoin:miter;stroke-miterlimit:4;stroke-dasharray:none;stroke-dashoffset:0;stroke-opacity:1;paint-order:markers stroke fill"/>
      <path inkscape:connector-curvature="0" id="ellipse9919" d="m 134.96499,-1266.8107 a 3.0427133,2.930026 0 0 0 -1.4366,0.4754 l 0.15761,0.04 a 0.13230488,0.13230488 0 0 0 0.0811,-0.01 l 1.12913,-0.4516 a 0.13230488,0.13230488 0 0 0 0.0445,-0.029 z m 0.0558,0.5885 a 0.13230488,0.13230488 0 0 0 -0.047,0.01 l -0.95705,0.3829 a 0.13230488,0.13230488 0 0 0 -0.0765,0.081 l -0.11162,0.3318 a 0.13230488,0.13230488 0 0 0 0.0522,0.1524 l 0.36742,0.2444 a 0.13230488,0.13230488 0 0 0 0.12247,0.013 l 0.95912,-0.3829 a 0.13230488,0.13230488 0 0 0 0.0765,-0.081 l 0.11111,-0.3323 a 0.13230488,0.13230488 0 0 0 -0.0527,-0.1524 l -0.36897,-0.2439 a 0.13230488,0.13230488 0 0 0 -0.0749,-0.022 z m 2.14768,0.096 a 0.13230488,0.13230488 0 0 0 0.0139,0.023 l 0.66042,0.8832 a 0.13230488,0.13230488 0 0 0 0.0739,0.049 l 0.0222,0.01 a 3.0427133,2.930026 0 0 0 -0.77049,-0.9611 z m -1.01855,0.3844 a 0.13230488,0.13230488 0 0 0 -0.12557,0.091 l -0.10749,0.324 a 0.13230488,0.13230488 0 0 0 0.0196,0.1214 l 0.5488,0.7322 a 0.13230488,0.13230488 0 0 0 0.10594,0.053 h 0.57413 a 0.13230488,0.13230488 0 0 0 0.12557,-0.09 l 0.10749,-0.3241 a 0.13230488,0.13230488 0 0 0 -0.0196,-0.1208 l -0.36794,-0.4915 a 0.13230488,0.13230488 0 0 0 -5.1e-4,-6e-4 l -0.18139,-0.2408 a 0.13230488,0.13230488 0 0 0 -0.10542,-0.053 z m -2.67012,0.8729 a 0.13230488,0.13230488 0 0 0 -0.0718,0.022 l -0.39636,0.2635 a 0.13230488,0.13230488 0 0 0 -0.0589,0.1101 v 0.1504 a 3.0427133,2.930026 0 0 0 1.2883,0.8092 0.13230488,0.13230488 0 0 0 -5.2e-4,0 l -0.19172,-0.9536 a 0.13230488,0.13230488 0 0 0 -0.0563,-0.084 l -0.4377,-0.2914 a 0.13230488,0.13230488 0 0 0 -0.0749,-0.022 z m 3.11144,0.9792 a 0.13230488,0.13230488 0 0 0 -0.10594,0.053 l -0.216,0.2879 a 3.0427133,2.930026 0 0 0 0.66869,-0.34 z" style="opacity:1;fill:#d8e0fc;fill-opacity:1;fill-rule:nonzero;stroke:none;stroke-width:21.16631508;stroke-linecap:butt;stroke-linejoin:miter;stroke-miterlimit:4;stroke-dasharray:none;stroke-dashoffset:0;stroke-opacity:1;paint-order:markers stroke fill"/>
      <path inkscape:connector-curvature="0" id="ellipse11483" d="m 135.68795,-1266.7798 -0.0889,0.089 a 0.13230488,0.13230488 0 0 0 0.0202,0.2037 l 0.29094,0.1933 a 0.13230488,0.13230488 0 0 0 0.0734,0.022 h 0.42995 a 0.13230488,0.13230488 0 0 0 0.12816,-0.1643 l -0.0227,-0.091 a 3.0427133,2.930026 0 0 0 -0.83095,-0.2516 z m -2.67633,0.861 a 3.0427133,2.930026 0 0 0 -0.44648,0.5719 l 0.12299,0.1857 a 0.13230488,0.13230488 0 0 0 0.18345,0.037 l 0.3514,-0.2345 a 0.13230488,0.13230488 0 0 0 0.0522,-0.068 l 0.0863,-0.2579 a 0.13230488,0.13230488 0 0 0 -0.0935,-0.17 z m 2.45619,1.0542 a 0.13230488,0.13230488 0 0 0 -0.0527,0.01 l -0.73433,0.2947 a 0.13230488,0.13230488 0 0 0 -0.0806,0.1488 l 0.15038,0.7518 a 0.13230488,0.13230488 0 0 0 0.0971,0.1023 l 0.55862,0.1412 a 0.13230488,0.13230488 0 0 0 0.13849,-0.049 l 0.45682,-0.6104 a 0.13230488,0.13230488 0 0 0 0,-0.1581 l -0.4315,-0.5778 a 0.13230488,0.13230488 0 0 0 -0.10231,-0.053 z" style="opacity:1;fill:#2c3030;fill-opacity:1;fill-rule:nonzero;stroke:none;stroke-width:21.16631508;stroke-linecap:butt;stroke-linejoin:miter;stroke-miterlimit:4;stroke-dasharray:none;stroke-dashoffset:0;stroke-opacity:1;paint-order:markers stroke fill"/>
    </g>
  </g>
</svg>