<?xml version="1.0" encoding="UTF-8" standalone="no"?>
<svg
   xmlns:dc="http://purl.org/dc/elements/1.1/"
   xmlns:cc="http://creativecommons.org/ns#"
   xmlns:rdf="http://www.w3.org/1999/02/22-rdf-syntax-ns#"
   xmlns:svg="http://www.w3.org/2000/svg"
   xmlns="http://www.w3.org/2000/svg"
   xmlns:xlink="http://www.w3.org/1999/xlink"
   xmlns:sodipodi="http://sodipodi.sourceforge.net/DTD/sodipodi-0.dtd"
   xmlns:inkscape="http://www.inkscape.org/namespaces/inkscape"
   sodipodi:docname="spacestation_wall_b.svg"
   inkscape:version="1.0 (4035a4fb49, 2020-05-01)"
   id="svg3893"
   version="1.1"
   viewBox="0 0 0.2645846 0.50270826"
   height="0.50270826mm"
   width="0.2645846mm">
  <defs
     id="defs3887">
    <linearGradient
       inkscape:collect="always"
       xlink:href="#linearGradient3265"
       id="linearGradient10828"
       gradientUnits="userSpaceOnUse"
       x1="1965"
       y1="-282"
       x2="1975"
       y2="-282" />
    <linearGradient
       inkscape:collect="always"
       id="linearGradient3265">
      <stop
         style="stop-color:#80a8d0;stop-opacity:1;"
         offset="0"
         id="stop3261" />
      <stop
         id="stop3269"
         offset="0.3000015"
         style="stop-color:#648cb4;stop-opacity:1" />
      <stop
         style="stop-color:#648cb4;stop-opacity:1"
         offset="0.72000062"
         id="stop3271" />
      <stop
         style="stop-color:#80a8d0;stop-opacity:1"
         offset="1"
         id="stop3263" />
    </linearGradient>
  </defs>
  <sodipodi:namedview
     inkscape:window-maximized="1"
     inkscape:window-y="-8"
     inkscape:window-x="-8"
     inkscape:window-height="1057"
     inkscape:window-width="1920"
     showgrid="false"
     inkscape:document-rotation="0"
     inkscape:current-layer="layer1"
     inkscape:document-units="px"
     inkscape:cy="4.363898"
     inkscape:cx="1.0997581"
     inkscape:zoom="31.678384"
     inkscape:pageshadow="2"
     inkscape:pageopacity="0.0"
     borderopacity="1.0"
     bordercolor="#666666"
     pagecolor="#ffffff"
     id="base" />
  <metadata
     id="metadata3890">
    <rdf:RDF>
      <cc:Work
         rdf:about="">
        <dc:format>image/svg+xml</dc:format>
        <dc:type
           rdf:resource="http://purl.org/dc/dcmitype/StillImage" />
        <dc:title></dc:title>
      </cc:Work>
    </rdf:RDF>
  </metadata>
  <g
     transform="translate(-87.558185,-124.48079)"
     id="layer1"
     inkscape:groupmode="layer"
     inkscape:label="Layer 1">
    <g
       id="g10644"
       transform="matrix(0.05000005,0,0,0.05000005,61.628993,128.40986)">
      <rect
         ry="0.93459511"
         y="-74.083336"
         x="518.58331"
         height="5.5562415"
         width="5.291687"
         id="rect10630"
         style="opacity:1;fill:#000000;fill-opacity:0.180392;fill-rule:nonzero;stroke:none;stroke-width:3.93973;stroke-linecap:round;stroke-linejoin:round;stroke-miterlimit:4;stroke-dasharray:none;stroke-dashoffset:0;stroke-opacity:1;paint-order:markers stroke fill;filter:url(#filter1957)" />
      <path
         id="path10632"
         style="color:#000000;font-style:normal;font-variant:normal;font-weight:normal;font-stretch:normal;font-size:medium;line-height:normal;font-family:sans-serif;font-variant-ligatures:normal;font-variant-position:normal;font-variant-caps:normal;font-variant-numeric:normal;font-variant-alternates:normal;font-variant-east-asian:normal;font-feature-settings:normal;font-variation-settings:normal;text-indent:0;text-align:start;text-decoration:none;text-decoration-line:none;text-decoration-style:solid;text-decoration-color:#000000;letter-spacing:normal;word-spacing:normal;text-transform:none;writing-mode:lr-tb;direction:ltr;text-orientation:mixed;dominant-baseline:auto;baseline-shift:baseline;text-anchor:start;white-space:normal;shape-padding:0;shape-margin:0;inline-size:0;clip-rule:nonzero;display:inline;overflow:visible;visibility:visible;isolation:auto;mix-blend-mode:normal;color-interpolation:sRGB;color-interpolation-filters:linearRGB;solid-color:#000000;solid-opacity:1;vector-effect:none;fill:#243454;fill-opacity:1;fill-rule:nonzero;stroke:none;stroke-width:3.99999;stroke-linecap:round;stroke-linejoin:miter;stroke-miterlimit:4;stroke-dasharray:none;stroke-dashoffset:0;stroke-opacity:1;paint-order:markers stroke fill;color-rendering:auto;image-rendering:auto;shape-rendering:auto;text-rendering:auto;enable-background:accumulate;stop-color:#000000"
         d="m 1964.1719,-297 -0.586,0.58594 c -0.6009,0.60095 -0.897,1.18445 -1.2734,1.95312 -0.3764,0.76868 -0.746,1.68289 -1.084,2.69532 -0.6759,2.02484 -1.2284,4.42308 -1.2285,6.76562 v 11 c 0,1.63498 0.882,2.96315 2,4.04883 V -268 c 0,1.62741 1.3726,3 3,3 h 10 c 1.6274,0 3,-1.37259 3,-3 v -1.95117 c 1.118,-1.08568 2,-2.41385 2,-4.04883 v -11 c -10e-5,-2.34254 -0.5526,-4.7408 -1.2285,-6.76562 -0.3379,-1.01243 -0.7076,-1.92664 -1.084,-2.69532 -0.3764,-0.76867 -0.6725,-1.35218 -1.2734,-1.95312 L 1975.8281,-297 Z"
         transform="scale(0.26458333)" />
      <rect
         ry="0.2645801"
         y="-72.231255"
         x="519.64166"
         height="1.5875"
         width="3.175"
         id="rect10634"
         style="opacity:1;fill:#484864;fill-opacity:1;stroke:none;stroke-width:0.529167;stroke-linecap:round;stroke-linejoin:round;stroke-miterlimit:4;stroke-dasharray:none;paint-order:markers stroke fill" />
      <rect
         y="-78.052086"
         x="520.17078"
         height="0.79374999"
         width="2.1166666"
         id="rect10636"
         style="fill:#485070;fill-opacity:1;stroke:none;stroke-width:1.05833;stroke-linecap:round;stroke-linejoin:miter;stroke-miterlimit:4;stroke-dasharray:none;paint-order:markers stroke fill" />
      <path
         id="path10638"
         style="fill:url(#linearGradient10828);fill-opacity:1;stroke:none;stroke-width:2.04302;stroke-linecap:round;stroke-linejoin:round;stroke-miterlimit:4;stroke-dasharray:none;paint-order:markers stroke fill"
         d="m 1965,-295 c -1,1 -2.9999,5.97783 -3,10 v 11 c 0,2.76142 3.5817,5 8,5 4.4183,0 8,-2.23858 8,-5 v -11 c -10e-5,-4.02217 -2,-8.99997 -3,-10 h -2 c 0,1.108 -0.892,2 -2,2 h -2 c -1.108,0 -2,-0.892 -2,-2 z"
         transform="scale(0.26458333)"
         sodipodi:nodetypes="cccsccccsscc" />
      <path
         id="path10640"
         style="color:#000000;font-style:normal;font-variant:normal;font-weight:normal;font-stretch:normal;font-size:medium;line-height:normal;font-family:sans-serif;font-variant-ligatures:normal;font-variant-position:normal;font-variant-caps:normal;font-variant-numeric:normal;font-variant-alternates:normal;font-variant-east-asian:normal;font-feature-settings:normal;font-variation-settings:normal;text-indent:0;text-align:start;text-decoration:none;text-decoration-line:none;text-decoration-style:solid;text-decoration-color:#000000;letter-spacing:normal;word-spacing:normal;text-transform:none;writing-mode:lr-tb;direction:ltr;text-orientation:mixed;dominant-baseline:auto;baseline-shift:baseline;text-anchor:start;white-space:normal;shape-padding:0;shape-margin:0;inline-size:0;clip-rule:nonzero;display:inline;overflow:visible;visibility:visible;isolation:auto;mix-blend-mode:normal;color-interpolation:sRGB;color-interpolation-filters:linearRGB;solid-color:#000000;solid-opacity:1;vector-effect:none;fill:#f0f8ff;fill-opacity:1;fill-rule:nonzero;stroke:none;stroke-width:2;stroke-linecap:round;stroke-linejoin:miter;stroke-miterlimit:4;stroke-dasharray:none;stroke-dashoffset:0;stroke-opacity:1;paint-order:markers stroke fill;color-rendering:auto;image-rendering:auto;shape-rendering:auto;text-rendering:auto;enable-background:accumulate;stop-color:#000000"
         d="m 1965,-295 v 14 c 0,2.74961 2.2504,5 5,5 0.023,1.5e-4 0.046,1.9e-4 0.068,0 h 0.01 c 2.7205,-0.0412 4.9241,-2.27916 4.9238,-5 10e-5,-0.0227 2e-4,-0.0457 0,-0.0684 V -295 h -1.9922 v 13.94336 0.004 c 10e-5,0.0151 10e-5,0.0302 0,0.0449 v 0.004 0.004 c 2e-4,1.6506 -1.3047,2.97502 -2.9551,3 h -0.01 c -0.011,4e-5 -0.026,8e-5 -0.037,0 -1.6687,0 -3,-1.3313 -3,-3 v -13.92383 c -10e-4,-0.0258 -0.01,-0.0501 -0.01,-0.0762 z"
         transform="scale(0.26458333)" />
      <path
         id="path10642"
         style="color:#000000;font-style:normal;font-variant:normal;font-weight:normal;font-stretch:normal;font-size:medium;line-height:normal;font-family:sans-serif;font-variant-ligatures:normal;font-variant-position:normal;font-variant-caps:normal;font-variant-numeric:normal;font-variant-alternates:normal;font-variant-east-asian:normal;font-feature-settings:normal;font-variation-settings:normal;text-indent:0;text-align:start;text-decoration:none;text-decoration-line:none;text-decoration-style:solid;text-decoration-color:#000000;letter-spacing:normal;word-spacing:normal;text-transform:none;writing-mode:lr-tb;direction:ltr;text-orientation:mixed;dominant-baseline:auto;baseline-shift:baseline;text-anchor:start;white-space:normal;shape-padding:0;shape-margin:0;inline-size:0;clip-rule:nonzero;display:inline;overflow:visible;visibility:visible;opacity:1;isolation:auto;mix-blend-mode:normal;color-interpolation:sRGB;color-interpolation-filters:linearRGB;solid-color:#000000;solid-opacity:1;vector-effect:none;fill:#b8e0ff;fill-opacity:1;fill-rule:nonzero;stroke:none;stroke-width:2;stroke-linecap:round;stroke-linejoin:miter;stroke-miterlimit:4;stroke-dasharray:none;stroke-dashoffset:0;stroke-opacity:1;paint-order:markers stroke fill;color-rendering:auto;image-rendering:auto;shape-rendering:auto;text-rendering:auto;enable-background:accumulate;stop-color:#000000"
         d="m 1966,-295 v 14 c 0,2.20913 1.7909,4 4,4 0.019,1.1e-4 0.04,1.1e-4 0.061,0 2.1856,-0.034 3.9398,-1.81426 3.9395,-4 2e-4,-0.0189 2e-4,-0.0405 0,-0.0605 V -295 h -1 c 0,1.108 -0.892,2 -2,2 h -2 c -1.108,0 -2,-0.892 -2,-2 z"
         transform="scale(0.26458333)" />
    </g>
  </g>
</svg>
