<?xml version="1.0" encoding="UTF-8" standalone="no"?>
<svg
   xmlns:dc="http://purl.org/dc/elements/1.1/"
   xmlns:cc="http://creativecommons.org/ns#"
   xmlns:rdf="http://www.w3.org/1999/02/22-rdf-syntax-ns#"
   xmlns:svg="http://www.w3.org/2000/svg"
   xmlns="http://www.w3.org/2000/svg"
   xmlns:xlink="http://www.w3.org/1999/xlink"
   xmlns:sodipodi="http://sodipodi.sourceforge.net/DTD/sodipodi-0.dtd"
   xmlns:inkscape="http://www.inkscape.org/namespaces/inkscape"
   sodipodi:docname="tree_snowless.svg"
   inkscape:version="1.0 (4035a4fb49, 2020-05-01)"
   id="svg3893"
   version="1.1"
   viewBox="0 0 0.26836687 0.44979116"
   height="0.44979116mm"
   width="0.26836687mm">
  <defs
     id="defs3887">
    <linearGradient
       inkscape:collect="always"
       xlink:href="#linearGradient2553"
       id="linearGradient2555"
       x1="389.42886"
       y1="-85.592712"
       x2="393.73782"
       y2="-85.592712"
       gradientUnits="userSpaceOnUse" />
    <linearGradient
       inkscape:collect="always"
       id="linearGradient2553">
      <stop
         style="stop-color:#04983c;stop-opacity:1"
         offset="0"
         id="stop2549" />
      <stop
         style="stop-color:#08843c;stop-opacity:1"
         offset="1"
         id="stop2551" />
    </linearGradient>
    <radialGradient
       inkscape:collect="always"
       xlink:href="#linearGradient2625"
       id="radialGradient2615"
       gradientUnits="userSpaceOnUse"
       gradientTransform="matrix(1.5964775,0,0,1.3508745,-233.57064,30.051198)"
       cx="391.58334"
       cy="-85.90049"
       fx="391.58334"
       fy="-85.90049"
       r="2.154475" />
    <linearGradient
       inkscape:collect="always"
       id="linearGradient2625">
      <stop
         style="stop-color:#086c30;stop-opacity:1"
         offset="0"
         id="stop2617" />
      <stop
         id="stop2619"
         offset="0.49000046"
         style="stop-color:#086c30;stop-opacity:1;" />
      <stop
         id="stop2621"
         offset="0.74500024"
         style="stop-color:#086c30;stop-opacity:0" />
      <stop
         style="stop-color:#086c30;stop-opacity:0"
         offset="1"
         id="stop2623" />
    </linearGradient>
    <radialGradient
       inkscape:collect="always"
       xlink:href="#linearGradient2589"
       id="radialGradient2583"
       cx="391.58334"
       cy="-85.90049"
       fx="391.58334"
       fy="-85.90049"
       r="2.154475"
       gradientTransform="matrix(1.1052604,0,0,1.2894633,-41.218208,24.775946)"
       gradientUnits="userSpaceOnUse" />
    <linearGradient
       id="linearGradient2589"
       inkscape:collect="always">
      <stop
         id="stop2585"
         offset="0"
         style="stop-color:#086c30;stop-opacity:1" />
      <stop
         style="stop-color:#086c30;stop-opacity:1;"
         offset="0.43054506"
         id="stop2613" />
      <stop
         style="stop-color:#086c30;stop-opacity:0"
         offset="0.70000064"
         id="stop2591" />
      <stop
         id="stop2587"
         offset="1"
         style="stop-color:#086c30;stop-opacity:0" />
    </linearGradient>
    <linearGradient
       inkscape:collect="always"
       xlink:href="#linearGradient2545"
       id="linearGradient2547"
       x1="389.65564"
       y1="-86.651047"
       x2="393.51096"
       y2="-86.651047"
       gradientUnits="userSpaceOnUse" />
    <linearGradient
       inkscape:collect="always"
       id="linearGradient2545">
      <stop
         style="stop-color:#089038;stop-opacity:1"
         offset="0"
         id="stop2541" />
      <stop
         style="stop-color:#008c38;stop-opacity:1"
         offset="1"
         id="stop2543" />
    </linearGradient>
    <radialGradient
       inkscape:collect="always"
       xlink:href="#linearGradient2577"
       id="radialGradient2571"
       cx="391.58331"
       cy="-86.764435"
       fx="391.58331"
       fy="-86.764435"
       r="1.927655"
       gradientTransform="matrix(1.0980573,-3.98523e-6,4.2342902e-6,1.1666813,-38.397218,14.444669)"
       gradientUnits="userSpaceOnUse" />
    <linearGradient
       id="linearGradient2577"
       inkscape:collect="always">
      <stop
         id="stop2573"
         offset="0"
         style="stop-color:#086428;stop-opacity:1" />
      <stop
         style="stop-color:#086428;stop-opacity:0"
         offset="0.69999999"
         id="stop2579" />
      <stop
         id="stop2575"
         offset="1"
         style="stop-color:#086428;stop-opacity:0" />
    </linearGradient>
    <radialGradient
       inkscape:collect="always"
       xlink:href="#linearGradient2607"
       id="radialGradient2599"
       gradientUnits="userSpaceOnUse"
       gradientTransform="matrix(1.5098052,-7.5431903e-6,6.1717632e-6,1.2353085,-199.63062,20.416025)"
       cx="391.58331"
       cy="-86.991219"
       fx="391.58331"
       fy="-86.991219"
       r="1.927655" />
    <linearGradient
       inkscape:collect="always"
       id="linearGradient2607">
      <stop
         style="stop-color:#086428;stop-opacity:1"
         offset="0"
         id="stop2601" />
      <stop
         id="stop2609"
         offset="0.3857981"
         style="stop-color:#086428;stop-opacity:0.68141592" />
      <stop
         id="stop2603"
         offset="0.64299685"
         style="stop-color:#086428;stop-opacity:0" />
      <stop
         style="stop-color:#086428;stop-opacity:0"
         offset="1"
         id="stop2605" />
    </linearGradient>
    <linearGradient
       inkscape:collect="always"
       xlink:href="#linearGradient2537"
       id="linearGradient2539"
       x1="389.99585"
       y1="-87.3125"
       x2="393.17084"
       y2="-87.3125"
       gradientUnits="userSpaceOnUse" />
    <linearGradient
       inkscape:collect="always"
       id="linearGradient2537">
      <stop
         style="stop-color:#089040;stop-opacity:1"
         offset="0"
         id="stop2533" />
      <stop
         style="stop-color:#08a848;stop-opacity:1"
         offset="1"
         id="stop2535" />
    </linearGradient>
    <radialGradient
       inkscape:collect="always"
       xlink:href="#linearGradient2565"
       id="radialGradient2559"
       cx="391.58334"
       cy="-88.057968"
       fx="391.58334"
       fy="-88.057968"
       r="1.5875"
       gradientTransform="matrix(1.1666433,6.8044321e-6,-7.7766785e-6,1.3333383,-65.25541,29.302154)"
       gradientUnits="userSpaceOnUse" />
    <linearGradient
       id="linearGradient2565"
       inkscape:collect="always">
      <stop
         id="stop2561"
         offset="0"
         style="stop-color:#08b44c;stop-opacity:0" />
      <stop
         style="stop-color:#08b44c;stop-opacity:0"
         offset="0.6999979"
         id="stop2567" />
      <stop
         id="stop2563"
         offset="1"
         style="stop-color:#08b44c;stop-opacity:0.66666675" />
    </linearGradient>
  </defs>
  <sodipodi:namedview
     inkscape:window-maximized="1"
     inkscape:window-y="-8"
     inkscape:window-x="-8"
     inkscape:window-height="1057"
     inkscape:window-width="1920"
     showgrid="false"
     inkscape:document-rotation="0"
     inkscape:current-layer="layer1"
     inkscape:document-units="px"
     inkscape:cy="0.93677814"
     inkscape:cx="0.98528573"
     inkscape:zoom="179.2"
     inkscape:pageshadow="2"
     inkscape:pageopacity="0.0"
     borderopacity="1.0"
     bordercolor="#666666"
     pagecolor="#ffffff"
     id="base" />
  <metadata
     id="metadata3890">
    <rdf:RDF>
      <cc:Work
         rdf:about="">
        <dc:format>image/svg+xml</dc:format>
        <dc:type
           rdf:resource="http://purl.org/dc/dcmitype/StillImage" />
        <dc:title></dc:title>
      </cc:Work>
    </rdf:RDF>
  </metadata>
  <g
     transform="translate(-116.00086,-176.1747)"
     id="layer1"
     inkscape:groupmode="layer"
     inkscape:label="Layer 1">
    <g
       transform="matrix(0.05,0,0,0.05,96.555867,180.68585)"
       id="g2695">
      <ellipse
         ry="2.6458247"
         rx="2.6458435"
         cy="-83.872917"
         cx="391.58334"
         id="ellipse2106-2"
         style="opacity:1;fill:#000000;fill-opacity:0.180392;fill-rule:nonzero;stroke:none;stroke-width:1.05833;stroke-linecap:round;stroke-linejoin:round;stroke-miterlimit:4;stroke-dasharray:none;stroke-dashoffset:0;stroke-opacity:1;paint-order:markers fill stroke" />
      <path
         transform="scale(0.26458333)"
         d="m 1480,-341 c -1.5,0 -2.3498,0.82534 -3.0918,1.60742 -0.742,0.78208 -1.3885,1.72232 -1.998,2.73828 -1.2192,2.03193 -2.2434,4.33175 -2.8067,6.02149 L 1472,-330.32422 V -330 c 0,0.37909 0.1156,0.66376 0.1855,0.98828 -0.5374,1.17634 -1.046,2.34286 -1.3671,3.30664 l -0.1036,0.3086 v 0.32421 c 0,0.42832 0.087,0.86128 0.1778,1.29297 -0.3474,0.82386 -0.6957,1.65354 -0.9317,2.36133 l -0.1035,0.30859 v 0.32422 c 0,0.84787 0.1716,1.69802 0.4844,2.53516 v 0.002 c 0.2185,0.58479 0.6915,1.01397 1.0195,1.21094 0.011,0.004 0.012,0.002 0.012,0.006 0.023,0.38833 0.072,0.92611 0.6915,1.62891 0.5368,0.60907 1.1731,1.17487 1.9082,1.66406 1.1984,0.79762 2.0984,0.48363 2.6328,0.41211 0.2362,-0.0316 0.4051,-0.0321 0.5215,-0.0352 0.07,0.0559 0.1511,0.11766 0.3183,0.26953 0.4221,0.38355 1.3443,1.0918 2.5547,1.0918 0.6274,0 1.2315,-0.047 1.8105,-0.13477 1.1484,-0.17401 1.6871,-0.97761 1.9571,-1.49218 0.034,-0.0651 0.03,-0.11635 0.061,-0.17969 0.1085,0.0431 0.1421,0.10656 0.2676,0.14258 0.6674,0.19113 1.7491,0.0924 2.457,-0.44922 1.0266,-0.78547 1.8285,-1.82524 2.4649,-2.96289 0.6364,-1.13766 1.125,-2.33334 1.125,-3.70899 v -0.32422 l -0.1035,-0.30859 c -0.2446,-0.73354 -0.5986,-1.57996 -0.959,-2.42969 0.082,-0.40788 0.2051,-0.81478 0.2051,-1.22461 v -0.32421 l -0.1036,-0.3086 c -0.3201,-0.9608 -0.8251,-2.12608 -1.3613,-3.30078 0.065,-0.32984 0.1797,-0.64296 0.1797,-0.99414 v -0.32422 l -0.1035,-0.30859 c -0.5633,-1.68974 -1.5875,-3.98956 -2.8067,-6.02149 -0.6095,-1.01596 -1.256,-1.9562 -1.998,-2.73828 C 1482.349,-340.17485 1481.5,-341 1480,-341 Z m 8.8809,18.09375 v 0.0312 c -0.152,0.38139 -0.3175,0.53218 -0.3008,0.51172 0.015,-0.017 0.1723,-0.24884 0.3008,-0.54297 z"
         style="color:#000000;font-style:normal;font-variant:normal;font-weight:normal;font-stretch:normal;font-size:medium;line-height:normal;font-family:sans-serif;font-variant-ligatures:normal;font-variant-position:normal;font-variant-caps:normal;font-variant-numeric:normal;font-variant-alternates:normal;font-variant-east-asian:normal;font-feature-settings:normal;font-variation-settings:normal;text-indent:0;text-align:start;text-decoration:none;text-decoration-line:none;text-decoration-style:solid;text-decoration-color:#000000;letter-spacing:normal;word-spacing:normal;text-transform:none;writing-mode:lr-tb;direction:ltr;text-orientation:mixed;dominant-baseline:auto;baseline-shift:baseline;text-anchor:start;white-space:normal;shape-padding:0;shape-margin:0;inline-size:0;clip-rule:nonzero;display:inline;overflow:visible;visibility:visible;isolation:auto;mix-blend-mode:normal;color-interpolation:sRGB;color-interpolation-filters:linearRGB;solid-color:#000000;solid-opacity:1;vector-effect:none;fill:#08401c;fill-opacity:1;fill-rule:nonzero;stroke:none;stroke-width:3.99999;stroke-linecap:butt;stroke-linejoin:miter;stroke-miterlimit:4;stroke-dasharray:none;stroke-dashoffset:0;stroke-opacity:1;color-rendering:auto;image-rendering:auto;shape-rendering:auto;text-rendering:auto;enable-background:accumulate;stop-color:#000000"
         id="path2663" />
      <path
         id="path2512"
         style="opacity:1;fill:url(#linearGradient2555);fill-opacity:1;stroke:none;stroke-width:0.359076px;stroke-linecap:butt;stroke-linejoin:miter;stroke-opacity:1"
         d="m 391.58333,-88.106252 c -0.71815,0 -1.79539,2.154464 -2.15447,3.231697 0,0.150551 0.0316,0.316882 0.0947,0.485762 0.0352,0.09419 0.19717,0.07225 0.25201,0.165728 0.0616,0.104924 0.0186,0.324884 0.10484,0.422774 0.1127,0.127841 0.24649,0.246916 0.40138,0.349991 0.16194,0.107772 0.49311,-0.0475 0.70118,0.01703 0.22248,0.069 0.32516,0.354103 0.60038,0.354103 0.14007,0 0.27332,-0.01024 0.39973,-0.0294 0.20686,-0.03135 0.26315,-0.651772 0.24707,-0.808778 0.23094,0.125294 0.53813,0.561953 0.76565,0.387866 0.37593,-0.287636 0.74201,-0.923616 0.74201,-1.345071 -0.35908,-1.077233 -1.43632,-3.231697 -2.15446,-3.231697 z"
         sodipodi:nodetypes="scssssssscscss" />
      <path
         id="path2611"
         style="opacity:1;fill:url(#radialGradient2615);fill-opacity:1;stroke:none;stroke-width:0.359076px;stroke-linecap:butt;stroke-linejoin:miter;stroke-opacity:1"
         d="m 391.58333,-88.106252 c -0.71815,0 -1.79539,2.154464 -2.15447,3.231697 0,0.150551 0.0316,0.316882 0.0947,0.485762 0.0352,0.09419 0.19717,0.07225 0.25201,0.165728 0.0616,0.104924 0.0186,0.324884 0.10484,0.422774 0.1127,0.127841 0.24649,0.246916 0.40138,0.349991 0.16194,0.107772 0.49311,-0.0475 0.70118,0.01703 0.22248,0.069 0.32516,0.354103 0.60038,0.354103 0.14007,0 0.27332,-0.01024 0.39973,-0.0294 0.20686,-0.03135 0.26315,-0.651772 0.24707,-0.808778 0.23094,0.125294 0.53813,0.561953 0.76565,0.387866 0.37593,-0.287636 0.74201,-0.923616 0.74201,-1.345071 -0.35908,-1.077233 -1.43632,-3.231697 -2.15446,-3.231697 z"
         sodipodi:nodetypes="scssssssscscss" />
      <path
         sodipodi:nodetypes="scssssssscscss"
         d="m 391.58333,-88.106252 c -0.71815,0 -1.79539,2.154464 -2.15447,3.231697 0,0.150551 0.0316,0.316882 0.0947,0.485762 0.0352,0.09419 0.19717,0.07225 0.25201,0.165728 0.0616,0.104924 0.0186,0.324884 0.10484,0.422774 0.1127,0.127841 0.24649,0.246916 0.40138,0.349991 0.16194,0.107772 0.49311,-0.0475 0.70118,0.01703 0.22248,0.069 0.32516,0.354103 0.60038,0.354103 0.14007,0 0.27332,-0.01024 0.39973,-0.0294 0.20686,-0.03135 0.26315,-0.651772 0.24707,-0.808778 0.23094,0.125294 0.53813,0.561953 0.76565,0.387866 0.37593,-0.287636 0.74201,-0.923616 0.74201,-1.345071 -0.35908,-1.077233 -1.43632,-3.231697 -2.15446,-3.231697 z"
         style="opacity:1;fill:url(#radialGradient2583);fill-opacity:1;stroke:none;stroke-width:0.359076px;stroke-linecap:butt;stroke-linejoin:miter;stroke-opacity:1"
         id="path2581" />
      <path
         d="m 391.58333,-88.900003 c -0.64256,0 -1.6064,1.927679 -1.92768,2.891519 0,0.09629 0.0144,0.199793 0.0433,0.306188 0.0348,0.128282 0.19392,0.06646 0.27067,0.195568 0.0914,0.153745 0.10919,0.496997 0.26009,0.628362 0.0992,0.08636 0.21126,0.165094 0.33616,0.232624 0.10258,0.05546 0.27193,-0.132777 0.35226,-0.10208 0.10233,0.0391 0.008,0.261765 0.20365,0.301124 0.14334,0.02884 0.2972,0.04461 0.46156,0.04461 0.19083,0 0.36749,-0.190751 0.52998,-0.229047 0.34281,-0.08079 0.62255,-0.06795 0.83924,-0.260959 0.13682,-0.121871 0.14929,-0.336784 0.23583,-0.477695 0.0687,-0.111849 0.22076,-0.148014 0.25777,-0.260618 0.0432,-0.131549 0.0648,-0.260219 0.0648,-0.378079 -0.32128,-0.96384 -1.28512,-2.891519 -1.92767,-2.891519 z"
         style="opacity:1;fill:url(#linearGradient2547);fill-opacity:1;stroke:none;stroke-width:0.321279px;stroke-linecap:butt;stroke-linejoin:miter;stroke-opacity:1"
         id="path2514"
         sodipodi:nodetypes="scssssssssssscss" />
      <path
         sodipodi:nodetypes="scssssssssssscss"
         id="path2569"
         style="opacity:1;fill:url(#radialGradient2571);fill-opacity:1;stroke:none;stroke-width:0.321279px;stroke-linecap:butt;stroke-linejoin:miter;stroke-opacity:1"
         d="m 391.58333,-88.900003 c -0.64256,0 -1.6064,1.927679 -1.92768,2.891519 0,0.09629 0.0144,0.199793 0.0433,0.306188 0.0348,0.128282 0.19392,0.06646 0.27067,0.195568 0.0914,0.153745 0.10919,0.496997 0.26009,0.628362 0.0992,0.08636 0.21126,0.165094 0.33616,0.232624 0.10258,0.05546 0.27193,-0.132777 0.35226,-0.10208 0.10233,0.0391 0.008,0.261765 0.20365,0.301124 0.14334,0.02884 0.2972,0.04461 0.46156,0.04461 0.19083,0 0.36749,-0.190751 0.52998,-0.229047 0.34281,-0.08079 0.62255,-0.06795 0.83924,-0.260959 0.13682,-0.121871 0.14929,-0.336784 0.23583,-0.477695 0.0687,-0.111849 0.22076,-0.148014 0.25777,-0.260618 0.0432,-0.131549 0.0648,-0.260219 0.0648,-0.378079 -0.32128,-0.96384 -1.28512,-2.891519 -1.92767,-2.891519 z" />
      <path
         d="m 391.58333,-88.900003 c -0.64256,0 -1.6064,1.927679 -1.92768,2.891519 0,0.09629 0.0144,0.199793 0.0433,0.306188 0.0348,0.128282 0.19392,0.06646 0.27067,0.195568 0.0914,0.153745 0.10919,0.496997 0.26009,0.628362 0.0992,0.08636 0.21126,0.165094 0.33616,0.232624 0.10258,0.05546 0.27193,-0.132777 0.35226,-0.10208 0.10233,0.0391 0.008,0.261765 0.20365,0.301124 0.14334,0.02884 0.2972,0.04461 0.46156,0.04461 0.19083,0 0.36749,-0.190751 0.52998,-0.229047 0.34281,-0.08079 0.62255,-0.06795 0.83924,-0.260959 0.13682,-0.121871 0.14929,-0.336784 0.23583,-0.477695 0.0687,-0.111849 0.22076,-0.148014 0.25777,-0.260618 0.0432,-0.131549 0.0648,-0.260219 0.0648,-0.378079 -0.32128,-0.96384 -1.28512,-2.891519 -1.92767,-2.891519 z"
         style="opacity:1;fill:url(#radialGradient2599);fill-opacity:1;stroke:none;stroke-width:0.321279px;stroke-linecap:butt;stroke-linejoin:miter;stroke-opacity:1"
         id="path2597"
         sodipodi:nodetypes="scssssssssssscss" />
      <path
         id="path2516"
         style="opacity:1;fill:url(#linearGradient2539);fill-opacity:1;stroke:none;stroke-width:0.264583px;stroke-linecap:butt;stroke-linejoin:miter;stroke-opacity:1"
         d="m 391.58333,-89.693751 c -0.52917,0 -1.32292,1.5875 -1.5875,2.38125 0,0.133784 0.0338,0.28448 0.10147,0.434985 0.0529,0.117602 0.19068,0.153234 0.28485,0.262443 0.10514,0.121949 0.17171,0.315434 0.32837,0.405384 0.14674,0.08427 0.25763,0.254752 0.44961,0.291624 0.11364,0.02183 0.29368,-0.07152 0.4232,-0.07152 0.2141,0 0.40656,-0.03249 0.57735,-0.0887 0.24574,-0.08088 0.33557,-0.24887 0.49164,-0.401873 0.0861,-0.08444 0.26967,-0.13788 0.32848,-0.231947 0.12669,-0.202584 0.19003,-0.417325 0.19003,-0.600398 -0.26458,-0.79375 -1.05833,-2.38125 -1.5875,-2.38125 z"
         sodipodi:nodetypes="scsssssssscs" />
      <path
         sodipodi:nodetypes="scsssssssscs"
         d="m 391.58333,-89.693751 c -0.52917,0 -1.32292,1.5875 -1.5875,2.38125 0,0.133784 0.0338,0.28448 0.10147,0.434985 0.0529,0.117602 0.19068,0.153234 0.28485,0.262443 0.10514,0.121949 0.17171,0.315434 0.32837,0.405384 0.14674,0.08427 0.25763,0.254752 0.44961,0.291624 0.11364,0.02183 0.29368,-0.07152 0.4232,-0.07152 0.2141,0 0.40656,-0.03249 0.57735,-0.0887 0.24574,-0.08088 0.33557,-0.24887 0.49164,-0.401873 0.0861,-0.08444 0.26967,-0.13788 0.32848,-0.231947 0.12669,-0.202584 0.19003,-0.417325 0.19003,-0.600398 -0.26458,-0.79375 -1.05833,-2.38125 -1.5875,-2.38125 z"
         style="opacity:1;fill:url(#radialGradient2559);fill-opacity:1;stroke:none;stroke-width:0.264583px;stroke-linecap:butt;stroke-linejoin:miter;stroke-opacity:1"
         id="path2557" />
    </g>
  </g>
</svg>
