<?xml version="1.0" encoding="UTF-8" standalone="no"?>
<!-- Created with Inkscape (http://www.inkscape.org/) -->

<svg
   width="0.54495579mm"
   height="0.73110348mm"
   viewBox="0 0 0.54495579 0.73110348"
   version="1.1"
   id="svg15799"
   inkscape:version="1.1 (c68e22c387, 2021-05-23)"
   sodipodi:docname="vault_offset.svg"
   xmlns:inkscape="http://www.inkscape.org/namespaces/inkscape"
   xmlns:sodipodi="http://sodipodi.sourceforge.net/DTD/sodipodi-0.dtd"
   xmlns:xlink="http://www.w3.org/1999/xlink"
   xmlns="http://www.w3.org/2000/svg"
   xmlns:svg="http://www.w3.org/2000/svg"
   xmlns:rdf="http://www.w3.org/1999/02/22-rdf-syntax-ns#"
   xmlns:cc="http://creativecommons.org/ns#"
   xmlns:dc="http://purl.org/dc/elements/1.1/">
  <defs
     id="defs15793">
    <linearGradient
       inkscape:collect="always"
       xlink:href="#linearGradient13702"
       id="linearGradient15708"
       gradientUnits="userSpaceOnUse"
       x1="-1438.7855"
       y1="590.37762"
       x2="-1444.5308"
       y2="590.33344" />
    <linearGradient
       inkscape:collect="always"
       id="linearGradient13702">
      <stop
         style="stop-color:#98bef1;stop-opacity:1;"
         offset="0"
         id="stop13693" />
      <stop
         style="stop-color:#5881c7;stop-opacity:1"
         offset="1"
         id="stop13695" />
    </linearGradient>
    <linearGradient
       inkscape:collect="always"
       xlink:href="#linearGradient13660"
       id="linearGradient15710"
       gradientUnits="userSpaceOnUse"
       x1="-386.08084"
       y1="147.63309"
       x2="-386.08084"
       y2="149.19997"
       gradientTransform="matrix(0.0485864,0,0,0.0485864,-91.862538,190.88371)" />
    <linearGradient
       inkscape:collect="always"
       id="linearGradient13660">
      <stop
         style="stop-color:#cce5fb;stop-opacity:1"
         offset="0"
         id="stop13656" />
      <stop
         style="stop-color:#a5c4f4;stop-opacity:1"
         offset="1"
         id="stop13658" />
    </linearGradient>
    <clipPath
       clipPathUnits="userSpaceOnUse"
       id="clipPath13535">
      <rect
         ry="0.94551259"
         y="148.17261"
         x="-390.07361"
         height="9.4264736"
         width="7.9938788"
         id="rect13537"
         style="opacity:1;fill:#7faffc;fill-opacity:1;fill-rule:nonzero;stroke:none;stroke-width:0.99999994;stroke-linecap:round;stroke-linejoin:round;stroke-miterlimit:4;stroke-dasharray:none;stroke-dashoffset:0;stroke-opacity:1;paint-order:markers stroke fill" />
    </clipPath>
    <linearGradient
       inkscape:collect="always"
       xlink:href="#linearGradient13974"
       id="linearGradient15712"
       gradientUnits="userSpaceOnUse"
       x1="-390.38327"
       y1="155.58417"
       x2="-387.88934"
       y2="155.33125"
       gradientTransform="matrix(0.0485864,0,0,0.0485864,-91.862538,190.88371)" />
    <linearGradient
       inkscape:collect="always"
       id="linearGradient13974">
      <stop
         style="stop-color:#9dc4f6;stop-opacity:1"
         offset="0"
         id="stop13970" />
      <stop
         style="stop-color:#7eb2f9;stop-opacity:1"
         offset="1"
         id="stop13972" />
    </linearGradient>
    <linearGradient
       inkscape:collect="always"
       xlink:href="#linearGradient13443"
       id="linearGradient15714"
       gradientUnits="userSpaceOnUse"
       gradientTransform="matrix(0.19952328,0,0,0.18363365,77.987502,-26.973792)"
       x1="-386.07666"
       y1="153.5634"
       x2="-386.07666"
       y2="158.74554" />
    <linearGradient
       inkscape:collect="always"
       id="linearGradient13443">
      <stop
         style="stop-color:#73a4ef;stop-opacity:1;"
         offset="0"
         id="stop13439" />
      <stop
         style="stop-color:#647ac4;stop-opacity:1"
         offset="1"
         id="stop13441" />
    </linearGradient>
    <linearGradient
       inkscape:collect="always"
       xlink:href="#linearGradient13443"
       id="linearGradient915"
       gradientUnits="userSpaceOnUse"
       gradientTransform="matrix(0.05279049,0,0,0.04858637,-90.234894,190.89281)"
       x1="-386.07666"
       y1="153.5634"
       x2="-386.07666"
       y2="158.74554" />
  </defs>
  <sodipodi:namedview
     id="base"
     pagecolor="#ffffff"
     bordercolor="#666666"
     borderopacity="1.0"
     inkscape:pageopacity="0.0"
     inkscape:pageshadow="2"
     inkscape:zoom="256"
     inkscape:cx="1.6132812"
     inkscape:cy="1.6191406"
     inkscape:document-units="mm"
     inkscape:current-layer="layer1"
     showgrid="false"
     inkscape:object-paths="true"
     inkscape:snap-midpoints="true"
     inkscape:window-width="1920"
     inkscape:window-height="1057"
     inkscape:window-x="-8"
     inkscape:window-y="-8"
     inkscape:window-maximized="1"
     inkscape:snap-intersection-paths="false"
     inkscape:snap-smooth-nodes="true"
     inkscape:pagecheckerboard="0" />
  <metadata
     id="metadata15796">
    <rdf:RDF>
      <cc:Work
         rdf:about="">
        <dc:format>image/svg+xml</dc:format>
        <dc:type
           rdf:resource="http://purl.org/dc/dcmitype/StillImage" />
        <dc:title />
      </cc:Work>
    </rdf:RDF>
  </metadata>
  <g
     inkscape:label="Layer 1"
     inkscape:groupmode="layer"
     id="layer1"
     transform="translate(110.86907,-198.02962)">
    <g
       id="g1081">
      <path
         id="path1205"
         style="color:#000000;fill:#2b3a53;fill-opacity:1;stroke-width:0.0486079;stroke-linecap:round;stroke-linejoin:round;-inkscape-stroke:none;paint-order:markers stroke fill"
         d="m -110.48084,198.02913 -0.2798,8e-5 c -0.0275,0 -0.0527,0.007 -0.0727,0.0194 -0.02,0.0126 -0.0359,0.0332 -0.0359,0.0582 v 0.21146 a 0.02430466,0.02430466 0 0 0 1.8e-4,0.003 l 0.0117,0.0976 v -0.001 a 0.02430466,0.02430466 0 0 0 1.8e-4,0.003 l 0.01,0.0813 c 8e-5,0.004 2e-4,0.007 5.3e-4,0.0107 1.2e-4,0.001 2.5e-4,0.002 2.5e-4,0.003 1.2e-4,0.001 2.4e-4,0.002 5.3e-4,0.003 5.3e-4,0.003 0.001,0.006 0.002,0.01 2.4e-4,0.001 5.3e-4,0.002 8e-4,0.003 0.002,0.006 0.004,0.0122 0.006,0.0179 a 0.02430466,0.02430466 0 0 0 0,3e-5 c 2e-4,5.3e-4 5.3e-4,0.001 8e-4,0.002 0.0199,0.0453 0.0651,0.0773 0.1178,0.0773 h 0.0982 0.0977 c 0.0424,0 0.0803,-0.0204 0.10397,-0.0522 0.007,0.003 0.014,0.005 0.0217,0.005 0.0311,0 0.0548,-0.025 0.0548,-0.0548 0,8e-4 8e-4,-0.009 0.002,-0.0188 0.002,-0.01 0.004,-0.0222 0.006,-0.0339 0.004,-0.0235 0.009,-0.0451 0.009,-0.0451 a 0.02430466,0.02430466 0 0 0 1.8e-4,-0.001 c 5.3e-4,-0.004 0.001,-0.008 0.001,-0.0113 a 0.02430466,0.02430466 0 0 0 0,-2e-5 0.02430466,0.02430466 0 0 0 0,-3e-5 0.02430466,0.02430466 0 0 0 0,-3e-5 0.02430466,0.02430466 0 0 0 0,-2e-5 0.02430466,0.02430466 0 0 0 0,-3e-5 0.02430466,0.02430466 0 0 0 0,-3e-5 0.02430466,0.02430466 0 0 0 0,-2e-5 0.02430466,0.02430466 0 0 0 0,-3e-5 0.02430466,0.02430466 0 0 0 0,-3e-5 c 0,-0.0109 -0.002,-0.0212 -0.007,-0.0305 0.001,-0.005 0.002,-0.01 0.002,-0.0149 0,-0.0275 -0.0182,-0.0504 -0.0427,-0.0595 v -0.20402 c 0,-0.0252 -0.0162,-0.0456 -0.0363,-0.0582 -0.02,-0.0126 -0.0454,-0.0193 -0.0729,-0.0193 z" />
      <g
         id="g1061">
        <g
           id="g15678"
           transform="matrix(0.04858642,0,0,0.04858642,-91.862531,190.88371)">
          <path
             style="opacity:1;fill:url(#linearGradient15708);fill-opacity:1;fill-rule:nonzero;stroke:none;stroke-width:8.50394;stroke-linecap:round;stroke-linejoin:round;stroke-miterlimit:4;stroke-dasharray:none;stroke-dashoffset:0;stroke-opacity:1;paint-order:markers stroke fill"
             d="m -1441.8125,582.12891 c -2.097,-10e-6 -3.7969,1.69991 -3.7969,3.79687 3e-4,0.20943 0.018,0.41848 0.053,0.625 v 0 0.0215 l 1.377,7.92773 c 2e-4,1.31049 1.0625,2.3728 2.373,2.37305 1.3105,-1.9e-4 2.3731,-1.15439 2.3731,-2.37305 0,-1.21866 1.3691,-7.98438 1.3691,-7.98438 v 0 c 0.032,-0.19499 0.049,-0.3922 0.051,-0.58984 0,-2.09696 -1.6999,-3.79688 -3.7969,-3.79687 z"
             transform="scale(0.26458333)"
             id="path15672"
             inkscape:connector-curvature="0"
             sodipodi:nodetypes="ccccccczccccc" />
          <ellipse
             ry="0.76244378"
             rx="0.83685786"
             cy="154.77176"
             cx="-381.41339"
             id="ellipse15674"
             style="opacity:1;fill:#5b6f96;fill-opacity:1;fill-rule:nonzero;stroke:none;stroke-width:2.25;stroke-linecap:round;stroke-linejoin:round;stroke-miterlimit:4;stroke-dasharray:none;stroke-dashoffset:0;stroke-opacity:1;paint-order:markers stroke fill" />
          <ellipse
             ry="0.81028652"
             rx="0.8570587"
             style="opacity:1;fill:#a5c4f4;fill-opacity:1;fill-rule:nonzero;stroke:none;stroke-width:2.25;stroke-linecap:round;stroke-linejoin:round;stroke-miterlimit:4;stroke-dasharray:none;stroke-dashoffset:0;stroke-opacity:1;paint-order:markers stroke fill"
             id="ellipse15676"
             cx="-381.43277"
             cy="154.09193" />
        </g>
        <path
           style="fill:url(#linearGradient15710);fill-opacity:1;fill-rule:nonzero;stroke:none;stroke-width:0.0485865;stroke-linecap:round;stroke-linejoin:round;stroke-miterlimit:4;stroke-dasharray:none;stroke-dashoffset:0;stroke-opacity:1;paint-order:markers stroke fill"
           d="m -110.76055,198.05391 c -0.0467,0 -0.0842,0.0239 -0.0842,0.0532 v 0.21136 l 0.0217,0.18087 c 0,0.0145 0.003,0.0283 0.008,0.0408 0.006,0.0146 0.0177,0.0254 0.0295,0.0357 0.009,0.002 0.015,0.007 0.0248,0.007 h 0.27957 c 0.0103,0 0.0173,-0.005 0.0264,-0.007 0.0137,-0.0124 0.0264,-0.0268 0.032,-0.045 0.003,-0.01 0.005,-0.0207 0.005,-0.0315 l 0.0217,-0.18087 v -0.21136 c 0,-0.0294 -0.038,-0.0532 -0.0847,-0.0532 z"
           id="rect15680" />
        <rect
           style="fill:#7faffc;fill-opacity:1;fill-rule:nonzero;stroke:none;stroke-width:0.0485865;stroke-linecap:round;stroke-linejoin:round;stroke-miterlimit:4;stroke-dasharray:none;stroke-dashoffset:0;stroke-opacity:1;paint-order:markers stroke fill"
           id="rect15682"
           width="0.38839397"
           height="0.4579986"
           x="-110.81481"
           y="198.08289"
           ry="0.045939073"
           rx="0.063629784" />
        <rect
           style="fill:#92baf7;fill-opacity:1;fill-rule:nonzero;stroke:none;stroke-width:1;stroke-linecap:round;stroke-linejoin:round;stroke-miterlimit:4;stroke-dasharray:none;stroke-dashoffset:0;stroke-opacity:1;paint-order:markers stroke fill"
           id="rect15684"
           width="8.7373438"
           height="10.880989"
           x="-390.44534"
           y="152.34734"
           ry="1.0914001"
           clip-path="url(#clipPath13535)"
           transform="matrix(0.04858642,0,0,0.04858642,-91.862531,190.88371)" />
        <path
           style="fill:#364a75;fill-opacity:1;fill-rule:nonzero;stroke:none;stroke-width:0.0485865;stroke-linecap:round;stroke-linejoin:round;stroke-miterlimit:4;stroke-dasharray:none;stroke-dashoffset:0;stroke-opacity:1;paint-order:markers stroke fill"
           d="m -110.77967,198.29885 c -0.0294,0 -0.0532,0.0233 -0.0532,0.0527 v 0.0661 l 0.01,0.0816 c 0,0.0145 0.003,0.0283 0.008,0.0408 0.0159,0.0376 0.0527,0.0641 0.0961,0.0641 h 0.0982 0.0977 c 0.0471,0 0.0871,-0.0308 0.10025,-0.0734 0.003,-0.01 0.005,-0.0207 0.005,-0.0315 l 0.01,-0.0816 v -0.0661 c 0,-0.0294 -0.0239,-0.0527 -0.0532,-0.0527 z"
           id="rect15686" />
        <path
           style="fill:url(#linearGradient15712);fill-opacity:1;fill-rule:nonzero;stroke:none;stroke-width:0.0485865;stroke-linecap:round;stroke-linejoin:round;stroke-miterlimit:4;stroke-dasharray:none;stroke-dashoffset:0;stroke-opacity:1;paint-order:markers stroke fill"
           d="m -110.77967,198.32107 c -0.0296,0 -0.0532,0.0226 -0.0532,0.0507 v 0.046 l 0.01,0.0816 c 0,0.0145 0.003,0.0283 0.008,0.0408 0.0159,0.0376 0.0527,0.0641 0.0961,0.0641 h 0.0982 0.0977 c 0.0471,0 0.0871,-0.0308 0.10025,-0.0734 0.003,-0.01 0.005,-0.0207 0.005,-0.0315 l 0.01,-0.0816 v -0.046 c 0,-0.0281 -0.0241,-0.0507 -0.0537,-0.0507 z"
           id="rect15688" />
        <path
           style="fill:url(#linearGradient915);fill-opacity:1;fill-rule:nonzero;stroke:none;stroke-width:0.0485865;stroke-linecap:round;stroke-linejoin:round;stroke-miterlimit:4;stroke-dasharray:none;stroke-dashoffset:0;stroke-opacity:1;paint-order:markers stroke fill"
           d="m -110.74763,198.35415 c -0.0341,0 -0.0653,0.0276 -0.0615,0.0615 l 0.0176,0.15245 c 10e-5,1e-4 -9e-5,4.2e-4 0,5.1e-4 0.019,0.0202 0.0428,0.0357 0.0729,0.0357 h 0.0982 0.0977 c 0.0406,0 0.0725,-0.0253 0.0899,-0.0589 l 0.01,-0.12971 c 0.003,-0.034 -0.0274,-0.0615 -0.0615,-0.0615 z"
           id="path15690" />
        <ellipse
           ry="0.074827395"
           rx="0.12280919"
           cy="198.48448"
           cx="-110.6233"
           id="ellipse15692"
           style="fill:#465f95;fill-opacity:1;fill-rule:nonzero;stroke:none;stroke-width:0.109319;stroke-linecap:round;stroke-linejoin:round;stroke-miterlimit:4;stroke-dasharray:none;stroke-dashoffset:0;stroke-opacity:1;paint-order:markers stroke fill" />
        <path
           inkscape:connector-curvature="0"
           id="path15694"
           d="m -110.62338,198.44302 a 0.10761645,0.06651063 0 0 0 -0.009,2.6e-4 0.10761646,0.06651063 0 0 0 -0.006,5.3e-4 0.10761645,0.06651063 0 0 0 -0.004,2.7e-4 0.10761646,0.06651063 0 0 0 -0.006,7.9e-4 0.10761645,0.06651063 0 0 0 -0.005,7.9e-4 0.10761646,0.06651063 0 0 0 -0.005,0.001 0.10761645,0.06651063 0 0 0 -0.005,0.001 0.10761646,0.06651063 0 0 0 -0.004,10e-4 0.10761645,0.06651063 0 0 0 -0.006,0.002 0.10761646,0.06651063 0 0 0 -0.004,0.001 0.10761645,0.06651063 0 0 0 -0.005,0.002 0.10761646,0.06651063 0 0 0 -0.004,0.002 0.10761645,0.06651063 0 0 0 -0.005,0.002 0.10761646,0.06651063 0 0 0 -0.003,0.002 0.10761645,0.06651063 0 0 0 -0.005,0.003 0.10761646,0.06651063 0 0 0 -0.003,0.002 0.10761645,0.06651063 0 0 0 -0.005,0.003 0.10761646,0.06651063 0 0 0 -0.002,0.002 0.10761645,0.06651063 0 0 0 -0.004,0.003 0.10761646,0.06651063 0 0 0 -0.002,0.002 0.10761645,0.06651063 0 0 0 -0.003,0.004 0.10761646,0.06651063 0 0 0 -0.002,0.002 0.10761645,0.06651063 0 0 0 -0.003,0.004 0.10761646,0.06651063 0 0 0 -0.002,0.003 0.10761645,0.06651063 0 0 0 -0.002,0.004 0.10761646,0.06651063 0 0 0 -0.001,0.003 0.10761645,0.06651063 0 0 0 -0.001,0.003 0.10761646,0.06651063 0 0 0 -8e-4,0.003 0.10761645,0.06651063 0 0 0 -7.9e-4,0.003 0.10761646,0.06651063 0 0 0 -2.6e-4,0.005 0.10761645,0.06651063 0 0 0 -1.5e-4,0.001 0.10761645,0.06651063 0 0 0 5.3e-4,0.005 0.10761646,0.06651063 0 0 0 2.6e-4,0.002 0.10761645,0.06651063 0 0 0 0.001,0.004 0.10761646,0.06651063 0 0 0 8e-4,0.002 0.10761645,0.06651063 0 0 0 0.002,0.004 0.10761646,0.06651063 0 0 0 10e-4,0.003 0.10761645,0.06651063 0 0 0 0.002,0.004 0.10761646,0.06651063 0 0 0 0.002,0.002 0.10761645,0.06651063 0 0 0 0.003,0.004 0.10761646,0.06651063 0 0 0 0.002,0.002 0.10761645,0.06651063 0 0 0 0.004,0.004 0.10761646,0.06651063 0 0 0 0.002,0.002 l -1.5e-4,3e-5 0.0415,0.0359 1.4e-4,5e-5 v 0 a 0.05370971,0.03319443 0 0 0 0.003,0.003 0.05370971,0.03319443 0 0 0 0.003,0.003 0.05370971,0.03319443 0 0 0 0.004,0.002 0.05370971,0.03319443 0 0 0 1.9e-4,10e-5 0.05370971,0.03319443 0 0 0 0.004,0.002 0.05370971,0.03319443 0 0 0 2.6e-4,1.5e-4 0.05370971,0.03319443 0 0 0 2.6e-4,1.4e-4 0.05370971,0.03319443 0 0 0 0.003,0.001 0.05370971,0.03319443 0 0 0 0.001,5.3e-4 0.05370971,0.03319443 0 0 0 0.004,0.001 0.05370971,0.03319443 0 0 0 5.3e-4,1.5e-4 0.05370971,0.03319443 0 0 0 0.004,0.001 0.05370971,0.03319443 0 0 0 0.001,2.7e-4 0.05370971,0.03319443 0 0 0 0.003,5.3e-4 0.05370971,0.03319443 0 0 0 0.002,2.6e-4 0.05370971,0.03319443 0 0 0 0.002,2.7e-4 0.05370971,0.03319443 0 0 0 0.003,2.4e-4 0.05370971,0.03319443 0 0 0 0.003,2e-4 0.05370971,0.03319443 0 0 0 0.004,9e-5 0.05370971,0.03319443 0 0 0 0.004,-9e-5 0.05370971,0.03319443 0 0 0 0.003,-2e-4 0.05370971,0.03319443 0 0 0 0.003,-2.4e-4 0.05370971,0.03319443 0 0 0 0.002,-2.7e-4 0.05370971,0.03319443 0 0 0 0.002,-2.6e-4 0.05370971,0.03319443 0 0 0 0.003,-5.3e-4 0.05370971,0.03319443 0 0 0 0.001,-2.7e-4 0.05370971,0.03319443 0 0 0 0.004,-0.001 0.05370971,0.03319443 0 0 0 5.3e-4,-1.5e-4 0.05370971,0.03319443 0 0 0 0.004,-0.001 0.05370971,0.03319443 0 0 0 1.4e-4,-3e-5 0.05370971,0.03319443 0 0 0 1.5e-4,-5e-5 0.05370971,0.03319443 0 0 0 0.004,-0.002 0.05370971,0.03319443 0 0 0 5.3e-4,-2.7e-4 0.05370971,0.03319443 0 0 0 0.004,-0.002 0.05370971,0.03319443 0 0 0 2e-4,-1e-4 0.05370971,0.03319443 0 0 0 0.004,-0.002 0.05370971,0.03319443 0 0 0 0.003,-0.003 0.05370971,0.03319443 0 0 0 0.003,-0.003 l 1.4e-4,-5e-5 0.0415,-0.0359 -1.4e-4,-3e-5 a 0.10761645,0.06651063 0 0 0 0.002,-0.002 0.10761646,0.06651063 0 0 0 0.003,-0.003 0.10761645,0.06651063 0 0 0 0.002,-0.003 0.10761646,0.06651063 0 0 0 0.003,-0.003 0.10761645,0.06651063 0 0 0 0.002,-0.003 0.10761646,0.06651063 0 0 0 0.002,-0.003 0.10761645,0.06651063 0 0 0 0.002,-0.003 0.10761646,0.06651063 0 0 0 0.001,-0.003 0.10761645,0.06651063 0 0 0 0.001,-0.003 0.10761646,0.06651063 0 0 0 7.9e-4,-0.003 0.10761645,0.06651063 0 0 0 5.3e-4,-0.003 0.10761646,0.06651063 0 0 0 2.7e-4,-0.005 0.10761645,0.06651063 0 0 0 -5.3e-4,-0.006 0.10761646,0.06651063 0 0 0 -5.3e-4,-0.003 0.10761645,0.06651063 0 0 0 -0.001,-0.004 0.10761646,0.06651063 0 0 0 -0.001,-0.003 0.10761645,0.06651063 0 0 0 -0.002,-0.004 0.10761646,0.06651063 0 0 0 -0.002,-0.003 0.10761645,0.06651063 0 0 0 -0.002,-0.003 0.10761646,0.06651063 0 0 0 -0.002,-0.003 0.10761645,0.06651063 0 0 0 -0.002,-0.003 0.10761646,0.06651063 0 0 0 -0.003,-0.003 0.10761645,0.06651063 0 0 0 -0.003,-0.003 0.10761646,0.06651063 0 0 0 -0.003,-0.003 0.10761645,0.06651063 0 0 0 -0.003,-0.002 0.10761646,0.06651063 0 0 0 -0.004,-0.003 0.10761645,0.06651063 0 0 0 -0.003,-0.002 0.10761646,0.06651063 0 0 0 -0.004,-0.002 0.10761645,0.06651063 0 0 0 -0.004,-0.002 0.10761646,0.06651063 0 0 0 -0.004,-0.002 0.10761645,0.06651063 0 0 0 -0.004,-0.002 0.10761646,0.06651063 0 0 0 -0.005,-0.002 0.10761645,0.06651063 0 0 0 -0.004,-0.002 0.10761646,0.06651063 0 0 0 -0.005,-0.002 0.10761645,0.06651063 0 0 0 -0.005,-0.001 0.10761646,0.06651063 0 0 0 -0.005,-10e-4 0.10761645,0.06651063 0 0 0 -0.005,-0.001 0.10761646,0.06651063 0 0 0 -0.005,-8e-4 0.10761645,0.06651063 0 0 0 -0.005,-7.9e-4 0.10761646,0.06651063 0 0 0 -0.006,-5.3e-4 0.10761645,0.06651063 0 0 0 -0.004,-2.7e-4 0.10761646,0.06651063 0 0 0 -0.01,-2.6e-4 0.10761646,0.06651063 0 0 0 -1.5e-4,0 z"
           style="fill:#dd9621;fill-opacity:1;fill-rule:nonzero;stroke:none;stroke-width:0.183634;stroke-linecap:round;stroke-linejoin:round;stroke-miterlimit:4;stroke-dasharray:none;stroke-dashoffset:0;stroke-opacity:1;paint-order:markers stroke fill" />
        <path
           id="path15696"
           d="m -110.59983,198.48144 -1.4e-4,2e-5 -0.006,0.055 2.6e-4,1e-4 a 0.05730911,0.03416847 0 0 1 0.0138,0.004 l 2.4e-4,1e-4 0.0327,-0.0422 a 0.08276349,0.05115065 0 0 0 -2.5e-4,-2e-4 0.08276349,0.05115065 0 0 0 -0.003,-0.002 0.08276349,0.05115065 0 0 0 -0.003,-0.002 0.08276349,0.05115065 0 0 0 -0.003,-0.002 0.08276349,0.05115065 0 0 0 -0.003,-0.002 0.08276349,0.05115065 0 0 0 -0.003,-0.002 0.08276349,0.05115065 0 0 0 -0.003,-0.001 0.08276349,0.05115065 0 0 0 -0.004,-0.001 0.08276349,0.05115065 0 0 0 -0.003,-10e-4 0.08276349,0.05115065 0 0 0 -0.004,-0.001 0.08276349,0.05115065 0 0 0 -0.004,-0.001 0.08276349,0.05115065 0 0 0 -0.004,-7.9e-4 0.08276349,0.05115065 0 0 0 -0.004,-7.9e-4 z"
           style="fill:#d0831c;fill-opacity:1;fill-rule:nonzero;stroke:none;stroke-width:0.183634;stroke-linecap:round;stroke-linejoin:round;stroke-miterlimit:4;stroke-dasharray:none;stroke-dashoffset:0;stroke-opacity:1;paint-order:markers stroke fill"
           inkscape:connector-curvature="0" />
        <path
           id="path15698"
           d="m -110.6467,198.48146 a 0.08276349,0.05115065 0 0 0 -0.004,8e-4 0.08276349,0.05115065 0 0 0 -0.004,7.9e-4 0.08276349,0.05115065 0 0 0 -0.003,0.001 0.08276349,0.05115065 0 0 0 -0.004,0.001 0.08276349,0.05115065 0 0 0 -0.003,0.001 0.08276349,0.05115065 0 0 0 -0.004,0.002 0.08276349,0.05115065 0 0 0 -0.003,0.001 0.08276349,0.05115065 0 0 0 -0.004,0.002 0.08276349,0.05115065 0 0 0 -0.002,0.001 0.08276349,0.05115065 0 0 0 -0.004,0.002 0.08276349,0.05115065 0 0 0 -0.002,0.001 0.08276349,0.05115065 0 0 0 -0.003,0.002 l 0.0327,0.0422 1.4e-4,-5e-5 a 0.05730911,0.03416847 0 0 1 0.0135,-0.004 l 7.9e-4,-1.9e-4 z"
           style="fill:#d0831c;fill-opacity:1;fill-rule:nonzero;stroke:none;stroke-width:0.183634;stroke-linecap:round;stroke-linejoin:round;stroke-miterlimit:4;stroke-dasharray:none;stroke-dashoffset:0;stroke-opacity:1;paint-order:markers stroke fill"
           inkscape:connector-curvature="0" />
        <ellipse
           ry="0.016554892"
           rx="0.027766708"
           cy="198.56902"
           cx="-110.62331"
           id="ellipse15700"
           style="fill:#d0861b;fill-opacity:1;fill-rule:nonzero;stroke:none;stroke-width:0.109319;stroke-linecap:round;stroke-linejoin:round;stroke-miterlimit:4;stroke-dasharray:none;stroke-dashoffset:0;stroke-opacity:1;paint-order:markers stroke fill" />
        <path
           style="fill:#c78318;fill-opacity:1;fill-rule:nonzero;stroke:none;stroke-width:0.183634;stroke-linecap:round;stroke-linejoin:round;stroke-miterlimit:4;stroke-dasharray:none;stroke-dashoffset:0;stroke-opacity:1;paint-order:markers stroke fill"
           d="m -110.62338,198.43238 a 0.10761645,0.06651063 0 0 0 -0.009,2.7e-4 0.10761645,0.06651063 0 0 0 -0.006,5.3e-4 0.10761645,0.06651063 0 0 0 -0.004,2.6e-4 0.10761645,0.06651063 0 0 0 -0.006,7.9e-4 0.10761645,0.06651063 0 0 0 -0.005,8e-4 0.10761645,0.06651063 0 0 0 -0.005,10e-4 0.10761645,0.06651063 0 0 0 -0.005,0.001 0.10761645,0.06651063 0 0 0 -0.004,0.001 0.10761645,0.06651063 0 0 0 -0.006,0.002 0.10761645,0.06651063 0 0 0 -0.004,0.001 0.10761645,0.06651063 0 0 0 -0.005,0.002 0.10761645,0.06651063 0 0 0 -0.004,0.002 0.10761645,0.06651063 0 0 0 -0.005,0.002 0.10761645,0.06651063 0 0 0 -0.003,0.002 0.10761645,0.06651063 0 0 0 -0.005,0.003 0.10761645,0.06651063 0 0 0 -0.003,0.002 0.10761645,0.06651063 0 0 0 -0.005,0.003 0.10761645,0.06651063 0 0 0 -0.002,0.002 0.10761645,0.06651063 0 0 0 -0.004,0.003 0.10761645,0.06651063 0 0 0 -0.002,0.002 0.10761645,0.06651063 0 0 0 -0.003,0.004 0.10761645,0.06651063 0 0 0 -0.002,0.002 0.10761645,0.06651063 0 0 0 -0.003,0.004 0.10761645,0.06651063 0 0 0 -0.002,0.003 0.10761645,0.06651063 0 0 0 -0.002,0.004 0.10761645,0.06651063 0 0 0 -0.001,0.003 0.10761645,0.06651063 0 0 0 -0.001,0.003 0.10761645,0.06651063 0 0 0 -7.9e-4,0.003 0.10761645,0.06651063 0 0 0 -8e-4,0.003 0.10761645,0.06651063 0 0 0 -2.6e-4,0.005 0.10761645,0.06651063 0 0 0 -1.5e-4,0.001 0.10761645,0.06651063 0 0 0 5.3e-4,0.005 0.10761645,0.06651063 0 0 0 1.5e-4,8e-4 0.10761645,0.06022668 0 0 1 5.3e-4,-0.003 0.10761645,0.06022668 0 0 1 7.9e-4,-0.003 0.10761645,0.06022668 0 0 1 0.001,-0.003 0.10761645,0.06022668 0 0 1 0.001,-0.003 0.10761645,0.06022668 0 0 1 0.002,-0.003 0.10761645,0.06022668 0 0 1 0.002,-0.002 0.10761645,0.06022668 0 0 1 0.003,-0.003 0.10761645,0.06022668 0 0 1 0.002,-0.002 0.10761645,0.06022668 0 0 1 0.003,-0.003 0.10761645,0.06022668 0 0 1 0.002,-0.002 0.10761645,0.06022668 0 0 1 0.004,-0.003 0.10761645,0.06022668 0 0 1 0.002,-0.002 0.10761645,0.06022668 0 0 1 0.005,-0.003 0.10761645,0.06022668 0 0 1 0.003,-0.002 0.10761645,0.06022668 0 0 1 0.005,-0.003 0.10761645,0.06022668 0 0 1 0.003,-0.002 0.10761645,0.06022668 0 0 1 0.005,-0.002 0.10761645,0.06022668 0 0 1 0.004,-10e-4 0.10761645,0.06022668 0 0 1 0.005,-0.002 0.10761645,0.06022668 0 0 1 0.004,-0.001 0.10761645,0.06022668 0 0 1 0.006,-0.002 0.10761645,0.06022668 0 0 1 0.004,-10e-4 0.10761645,0.06022668 0 0 1 0.005,-0.001 0.10761645,0.06022668 0 0 1 0.005,-0.001 0.10761645,0.06022668 0 0 1 0.005,-8e-4 0.10761645,0.06022668 0 0 1 0.006,-7.9e-4 0.10761645,0.06022668 0 0 1 0.004,-2.7e-4 0.10761645,0.06022668 0 0 1 0.006,-5.2e-4 0.10761645,0.06022668 0 0 1 0.009,-2.5e-4 l -2e-5,1.5e-4 a 0.10761645,0.06022668 0 0 1 1.4e-4,0 0.10761645,0.06022668 0 0 1 0.01,2.4e-4 0.10761645,0.06022668 0 0 1 0.004,2.4e-4 0.10761645,0.06022668 0 0 1 0.006,5.3e-4 0.10761645,0.06022668 0 0 1 0.005,8e-4 0.10761645,0.06022668 0 0 1 0.005,7.9e-4 0.10761645,0.06022668 0 0 1 0.005,10e-4 0.10761645,0.06022668 0 0 1 0.005,0.001 0.10761645,0.06022668 0 0 1 0.005,0.001 0.10761645,0.06022668 0 0 1 0.005,0.001 0.10761645,0.06022668 0 0 1 0.004,0.001 0.10761645,0.06022668 0 0 1 0.005,0.002 0.10761645,0.06022668 0 0 1 0.004,0.002 0.10761645,0.06022668 0 0 1 0.004,0.002 0.10761645,0.06022668 0 0 1 0.004,0.002 0.10761645,0.06022668 0 0 1 0.004,0.002 0.10761645,0.06022668 0 0 1 0.003,0.002 0.10761645,0.06022668 0 0 1 0.004,0.002 0.10761645,0.06022668 0 0 1 0.003,0.002 0.10761645,0.06022668 0 0 1 0.003,0.003 0.10761645,0.06022668 0 0 1 0.003,0.002 0.10761645,0.06022668 0 0 1 0.003,0.003 0.10761645,0.06022668 0 0 1 0.002,0.003 0.10761645,0.06022668 0 0 1 0.002,0.003 0.10761645,0.06022668 0 0 1 0.002,0.003 0.10761645,0.06022668 0 0 1 0.002,0.003 0.10761645,0.06022668 0 0 1 0.002,0.003 0.10761645,0.06022668 0 0 1 0.001,0.002 0.10761645,0.06022668 0 0 1 0.001,0.004 0.10761645,0.06022668 0 0 1 5.3e-4,0.002 0.10761645,0.06651063 0 0 0 1.4e-4,-8e-4 0.10761645,0.06651063 0 0 0 2.7e-4,-0.005 0.10761645,0.06651063 0 0 0 -5.3e-4,-0.006 0.10761645,0.06651063 0 0 0 -5.3e-4,-0.003 0.10761645,0.06651063 0 0 0 -10e-4,-0.004 0.10761645,0.06651063 0 0 0 -0.001,-0.003 0.10761645,0.06651063 0 0 0 -0.002,-0.004 0.10761645,0.06651063 0 0 0 -0.002,-0.003 0.10761645,0.06651063 0 0 0 -0.002,-0.003 0.10761645,0.06651063 0 0 0 -0.002,-0.003 0.10761645,0.06651063 0 0 0 -0.002,-0.003 0.10761645,0.06651063 0 0 0 -0.003,-0.003 0.10761645,0.06651063 0 0 0 -0.003,-0.003 0.10761645,0.06651063 0 0 0 -0.003,-0.003 0.10761645,0.06651063 0 0 0 -0.003,-0.002 0.10761645,0.06651063 0 0 0 -0.004,-0.003 0.10761645,0.06651063 0 0 0 -0.003,-0.002 0.10761645,0.06651063 0 0 0 -0.004,-0.002 0.10761645,0.06651063 0 0 0 -0.004,-0.002 0.10761645,0.06651063 0 0 0 -0.004,-0.002 0.10761645,0.06651063 0 0 0 -0.004,-0.002 0.10761645,0.06651063 0 0 0 -0.005,-0.002 0.10761645,0.06651063 0 0 0 -0.004,-0.002 0.10761645,0.06651063 0 0 0 -0.005,-0.002 0.10761645,0.06651063 0 0 0 -0.005,-0.001 0.10761645,0.06651063 0 0 0 -0.005,-0.001 0.10761645,0.06651063 0 0 0 -0.005,-10e-4 0.10761645,0.06651063 0 0 0 -0.005,-8e-4 0.10761645,0.06651063 0 0 0 -0.005,-7.9e-4 0.10761645,0.06651063 0 0 0 -0.006,-5.3e-4 0.10761645,0.06651063 0 0 0 -0.004,-2.6e-4 0.10761645,0.06651063 0 0 0 -0.01,-2.7e-4 0.10761645,0.06651063 0 0 0 -1.5e-4,0 z"
           id="path15702"
           inkscape:connector-curvature="0" />
      </g>
    </g>
  </g>
</svg>
