<?xml version="1.0" encoding="UTF-8" standalone="no"?>
<!-- Created with Inkscape (http://www.inkscape.org/) -->

<svg
   xmlns:dc="http://purl.org/dc/elements/1.1/"
   xmlns:cc="http://creativecommons.org/ns#"
   xmlns:rdf="http://www.w3.org/1999/02/22-rdf-syntax-ns#"
   xmlns:svg="http://www.w3.org/2000/svg"
   xmlns="http://www.w3.org/2000/svg"
   xmlns:xlink="http://www.w3.org/1999/xlink"
   xmlns:sodipodi="http://sodipodi.sourceforge.net/DTD/sodipodi-0.dtd"
   xmlns:inkscape="http://www.inkscape.org/namespaces/inkscape"
   width="0.26458335mm"
   height="0.45115373mm"
   viewBox="0 0 0.26458335 0.45115373"
   version="1.1"
   id="svg11333"
   inkscape:version="0.92.3 (2405546, 2018-03-11)"
   sodipodi:docname="barrel.svg">
  <defs
     id="defs11327">
    <linearGradient
       inkscape:collect="always"
       xlink:href="#linearGradient7382"
       id="linearGradient8265"
       gradientUnits="userSpaceOnUse"
       gradientTransform="matrix(0.26977467,0,0,0.27011749,32.188282,24.598633)"
       x1="-6190.5786"
       y1="-4457.4663"
       x2="-6190.5781"
       y2="-4439.9473" />
    <linearGradient
       id="linearGradient7382"
       inkscape:collect="always">
      <stop
         id="stop7378"
         offset="0"
         style="stop-color:#d98043;stop-opacity:1" />
      <stop
         id="stop7380"
         offset="1"
         style="stop-color:#b26733;stop-opacity:1" />
    </linearGradient>
    <linearGradient
       inkscape:collect="always"
       xlink:href="#linearGradient7374"
       id="linearGradient8267"
       gradientUnits="userSpaceOnUse"
       gradientTransform="matrix(0.90953871,0,0,0.91360635,-148.15961,-101.68296)"
       x1="-1637.87"
       y1="-1179.1652"
       x2="-1637.87"
       y2="-1177.4803" />
    <linearGradient
       inkscape:collect="always"
       id="linearGradient7374">
      <stop
         style="stop-color:#f4a06a;stop-opacity:1;"
         offset="0"
         id="stop7370" />
      <stop
         style="stop-color:#f6af81;stop-opacity:1"
         offset="1"
         id="stop7372" />
    </linearGradient>
    <clipPath
       clipPathUnits="userSpaceOnUse"
       id="clipPath7075-3">
      <path
         id="path7077-974"
         d="m -1637.9238,-1181.4359 a 2.0647873,2.0647873 0 0 0 -1.9337,1.3447 c 0,0 0,0 0,0 -0.012,0.031 -0.019,0.063 -0.029,0.094 a 2.0647873,2.0647873 0 0 0 -0.026,0.085 c -0.242,0.7917 -0.1874,1.7109 -0.155,2.2071 0.035,0.5336 0.2235,1.5204 0.6878,2.1957 0,0 0.01,0 0.01,0.01 a 1.6903625,1.5533958 0 0 0 1.4536,0.7643 1.6903625,1.5533958 0 0 0 1.4527,-0.7627 c 0,0 0.01,-0.01 0.01,-0.01 0.01,-0.012 0.015,-0.026 0.023,-0.039 0.4461,-0.6738 0.6302,-1.633 0.6646,-2.157 0.032,-0.4966 0.087,-1.417 -0.1556,-2.2092 a 2.0647873,2.0647873 0 0 0 -0.023,-0.073 c -0.011,-0.034 -0.02,-0.07 -0.033,-0.1033 0,0 0,0 0,0 a 2.0647873,2.0647873 0 0 0 -1.9337,-1.3446 z"
         style="opacity:1;fill:url(#linearGradient7079);fill-opacity:1;stroke:none;stroke-width:0.26458332px;stroke-linecap:butt;stroke-linejoin:miter;stroke-opacity:1"
         inkscape:connector-curvature="0" />
    </clipPath>
    <filter
       inkscape:collect="always"
       style="color-interpolation-filters:sRGB"
       id="filter7121-1"
       x="-0.045149613"
       width="1.0902992"
       y="-0.054048728"
       height="1.1080976">
      <feGaussianBlur
         inkscape:collect="always"
         stdDeviation="0.084881275"
         id="feGaussianBlur7123-2" />
    </filter>
    <clipPath
       clipPathUnits="userSpaceOnUse"
       id="clipPath7047-8">
      <path
         id="path7049-7"
         d="m -1637.9238,-1181.4359 a 2.0647873,2.0647873 0 0 0 -1.9337,1.3447 c 0,0 0,0 0,0 -0.012,0.031 -0.019,0.063 -0.029,0.094 a 2.0647873,2.0647873 0 0 0 -0.026,0.085 c -0.242,0.7917 -0.1874,1.7109 -0.155,2.2071 0.035,0.5336 0.2235,1.5204 0.6878,2.1957 0,0 0.01,0 0.01,0.01 a 1.6903625,1.5533958 0 0 0 1.4536,0.7643 1.6903625,1.5533958 0 0 0 1.4527,-0.7627 c 0,0 0.01,-0.01 0.01,-0.01 0.01,-0.012 0.015,-0.026 0.023,-0.039 0.4461,-0.6738 0.6302,-1.633 0.6646,-2.157 0.032,-0.4966 0.087,-1.417 -0.1556,-2.2092 a 2.0647873,2.0647873 0 0 0 -0.023,-0.073 c -0.011,-0.034 -0.02,-0.07 -0.033,-0.1033 0,0 0,0 0,0 a 2.0647873,2.0647873 0 0 0 -1.9337,-1.3446 z"
         style="opacity:1;fill:url(#linearGradient7051);fill-opacity:1;stroke:none;stroke-width:0.26458332px;stroke-linecap:butt;stroke-linejoin:miter;stroke-opacity:1"
         inkscape:connector-curvature="0" />
    </clipPath>
    <clipPath
       clipPathUnits="userSpaceOnUse"
       id="clipPath7057-5">
      <path
         id="path7059-5"
         d="m -1637.9238,-1181.4359 a 2.0647873,2.0647873 0 0 0 -1.9337,1.3447 c 0,0 0,0 0,0 -0.012,0.031 -0.019,0.063 -0.029,0.094 a 2.0647873,2.0647873 0 0 0 -0.026,0.085 c -0.242,0.7917 -0.1874,1.7109 -0.155,2.2071 0.035,0.5336 0.2235,1.5204 0.6878,2.1957 0,0 0.01,0 0.01,0.01 a 1.6903625,1.5533958 0 0 0 1.4536,0.7643 1.6903625,1.5533958 0 0 0 1.4527,-0.7627 c 0,0 0.01,-0.01 0.01,-0.01 0.01,-0.012 0.015,-0.026 0.023,-0.039 0.4461,-0.6738 0.6302,-1.633 0.6646,-2.157 0.032,-0.4966 0.087,-1.417 -0.1556,-2.2092 a 2.0647873,2.0647873 0 0 0 -0.023,-0.073 c -0.011,-0.034 -0.02,-0.07 -0.033,-0.1033 0,0 0,0 0,0 a 2.0647873,2.0647873 0 0 0 -1.9337,-1.3446 z"
         style="opacity:1;fill:url(#linearGradient7061);fill-opacity:1;stroke:none;stroke-width:0.26458332px;stroke-linecap:butt;stroke-linejoin:miter;stroke-opacity:1"
         inkscape:connector-curvature="0" />
    </clipPath>
    <linearGradient
       inkscape:collect="always"
       xlink:href="#linearGradient7093"
       id="linearGradient8269"
       gradientUnits="userSpaceOnUse"
       x1="-1638.0106"
       y1="-1176.4397"
       x2="-1638.0106"
       y2="-1175.2244" />
    <linearGradient
       inkscape:collect="always"
       id="linearGradient7093">
      <stop
         style="stop-color:#606566;stop-opacity:1"
         offset="0"
         id="stop7089" />
      <stop
         style="stop-color:#555554;stop-opacity:1"
         offset="1"
         id="stop7091" />
    </linearGradient>
    <clipPath
       clipPathUnits="userSpaceOnUse"
       id="clipPath11301">
      <path
         id="path11299"
         d="m -1637.9238,-1181.4359 a 2.0647873,2.0647873 0 0 0 -1.9337,1.3447 c 0,0 0,0 0,0 -0.012,0.031 -0.019,0.063 -0.029,0.094 a 2.0647873,2.0647873 0 0 0 -0.026,0.085 c -0.242,0.7917 -0.1874,1.7109 -0.155,2.2071 0.035,0.5336 0.2235,1.5204 0.6878,2.1957 0,0 0.01,0 0.01,0.01 a 1.6903625,1.5533958 0 0 0 1.4536,0.7643 1.6903625,1.5533958 0 0 0 1.4527,-0.7627 c 0,0 0.01,-0.01 0.01,-0.01 0.01,-0.012 0.015,-0.026 0.023,-0.039 0.4461,-0.6738 0.6302,-1.633 0.6646,-2.157 0.032,-0.4966 0.087,-1.417 -0.1556,-2.2092 a 2.0647873,2.0647873 0 0 0 -0.023,-0.073 c -0.011,-0.034 -0.02,-0.07 -0.033,-0.1033 0,0 0,0 0,0 a 2.0647873,2.0647873 0 0 0 -1.9337,-1.3446 z"
         style="opacity:1;fill:url(#linearGradient7051);fill-opacity:1;stroke:none;stroke-width:0.26458332px;stroke-linecap:butt;stroke-linejoin:miter;stroke-opacity:1"
         inkscape:connector-curvature="0" />
    </clipPath>
    <linearGradient
       inkscape:collect="always"
       xlink:href="#linearGradient7093"
       id="linearGradient8271"
       gradientUnits="userSpaceOnUse"
       x1="-1637.9692"
       y1="-1177.7181"
       x2="-1637.9692"
       y2="-1176.4067" />
    <clipPath
       clipPathUnits="userSpaceOnUse"
       id="clipPath11312">
      <path
         id="path11310"
         d="m -1637.9238,-1181.4359 a 2.0647873,2.0647873 0 0 0 -1.9337,1.3447 c 0,0 0,0 0,0 -0.012,0.031 -0.019,0.063 -0.029,0.094 a 2.0647873,2.0647873 0 0 0 -0.026,0.085 c -0.242,0.7917 -0.1874,1.7109 -0.155,2.2071 0.035,0.5336 0.2235,1.5204 0.6878,2.1957 0,0 0.01,0 0.01,0.01 a 1.6903625,1.5533958 0 0 0 1.4536,0.7643 1.6903625,1.5533958 0 0 0 1.4527,-0.7627 c 0,0 0.01,-0.01 0.01,-0.01 0.01,-0.012 0.015,-0.026 0.023,-0.039 0.4461,-0.6738 0.6302,-1.633 0.6646,-2.157 0.032,-0.4966 0.087,-1.417 -0.1556,-2.2092 a 2.0647873,2.0647873 0 0 0 -0.023,-0.073 c -0.011,-0.034 -0.02,-0.07 -0.033,-0.1033 0,0 0,0 0,0 a 2.0647873,2.0647873 0 0 0 -1.9337,-1.3446 z"
         style="opacity:1;fill:url(#linearGradient7061);fill-opacity:1;stroke:none;stroke-width:0.26458332px;stroke-linecap:butt;stroke-linejoin:miter;stroke-opacity:1"
         inkscape:connector-curvature="0" />
    </clipPath>
  </defs>
  <sodipodi:namedview
     id="base"
     pagecolor="#ffffff"
     bordercolor="#666666"
     borderopacity="1.0"
     inkscape:pageopacity="0.0"
     inkscape:pageshadow="2"
     inkscape:zoom="8"
     inkscape:cx="-2.6658821"
     inkscape:cy="9.4594056"
     inkscape:document-units="mm"
     inkscape:current-layer="layer1"
     showgrid="false"
     fit-margin-top="0"
     fit-margin-left="0"
     fit-margin-right="0"
     fit-margin-bottom="0"
     inkscape:snap-nodes="false"
     inkscape:window-width="1920"
     inkscape:window-height="1057"
     inkscape:window-x="-8"
     inkscape:window-y="-8"
     inkscape:window-maximized="1" />
  <metadata
     id="metadata11330">
    <rdf:RDF>
      <cc:Work
         rdf:about="">
        <dc:format>image/svg+xml</dc:format>
        <dc:type
           rdf:resource="http://purl.org/dc/dcmitype/StillImage" />
        <dc:title />
      </cc:Work>
    </rdf:RDF>
  </metadata>
  <g
     inkscape:label="Layer 1"
     inkscape:groupmode="layer"
     id="layer1"
     transform="translate(-59.265326,-168.14402)">
    <g
       id="g8263"
       style="opacity:1;filter:url(#filter1957)"
       transform="matrix(0.04858638,0,0,0.04858638,138.97563,225.57525)"
       inkscape:export-filename="C:\Users\Donatas\Documents\ShareX\Screenshots\2019-01\AssetTest.png"
       inkscape:export-xdpi="650"
       inkscape:export-ydpi="650">
      <rect
         ry="2.7227883"
         y="-1178.2516"
         x="-1640.5895"
         height="5.4933619"
         width="5.4455767"
         id="rect8238"
         style="opacity:0.18000004;fill:#000000;fill-opacity:0.99590167;fill-rule:nonzero;stroke:none;stroke-width:4.05429649;stroke-linecap:round;stroke-linejoin:round;stroke-miterlimit:4;stroke-dasharray:none;stroke-dashoffset:0;stroke-opacity:1;paint-order:markers stroke fill;filter:url(#filter1957)" />
      <rect
         ry="0"
         y="-1179.6525"
         x="-1640.5895"
         height="5.4456277"
         width="5.4456277"
         id="rect8241"
         style="opacity:0.12600002;fill:none;fill-opacity:1;fill-rule:nonzero;stroke:none;stroke-width:3.33504486;stroke-linecap:round;stroke-linejoin:round;stroke-miterlimit:4;stroke-dasharray:none;stroke-dashoffset:0;stroke-opacity:1;paint-order:markers stroke fill;filter:url(#filter1957)" />
      <path
         inkscape:connector-curvature="0"
         id="path8243"
         d="m -1637.8729,-1181.5488 a 2.1053001,2.1079755 0 0 0 -1.9716,1.3727 c -10e-5,10e-5 0,0 0,0 -0.013,0.031 -0.019,0.064 -0.031,0.096 a 2.1053001,2.1079755 0 0 0 -0.026,0.087 c -0.2468,0.8084 -0.1911,1.7469 -0.1581,2.2534 0.035,0.5448 0.228,1.5523 0.7013,2.2417 0,0 0.01,0 0.01,0.01 a 1.7235288,1.5858876 0 0 0 1.4821,0.7802 1.7235288,1.5858876 0 0 0 1.4812,-0.7786 c 0,0 0.011,-0.01 0.011,-0.01 0.011,-0.013 0.015,-0.027 0.024,-0.04 0.4549,-0.688 0.6426,-1.6671 0.6776,-2.202 0.033,-0.5071 0.088,-1.4467 -0.1587,-2.2555 a 2.1053001,2.1079755 0 0 0 -0.024,-0.075 c -0.012,-0.035 -0.02,-0.071 -0.034,-0.1054 0,0 0,0 0,0 a 2.1053001,2.1079755 0 0 0 -1.9717,-1.3727 z"
         style="opacity:1;fill:#af6e41;fill-opacity:1;stroke:#693c14;stroke-width:0.9856586;stroke-linecap:butt;stroke-linejoin:miter;stroke-miterlimit:4;stroke-dasharray:none;stroke-opacity:1" />
      <path
         inkscape:connector-curvature="0"
         style="opacity:1;fill:url(#linearGradient8265);fill-opacity:1;stroke:none;stroke-width:0.26458332px;stroke-linecap:butt;stroke-linejoin:miter;stroke-opacity:1"
         d="m -1637.8729,-1181.5488 a 2.1053001,2.1079755 0 0 0 -1.9716,1.3727 c -10e-5,10e-5 0,0 0,0 -0.013,0.031 -0.019,0.064 -0.031,0.096 a 2.1053001,2.1079755 0 0 0 -0.026,0.087 c -0.2468,0.8084 -0.1911,1.7469 -0.1581,2.2534 0.035,0.5448 0.228,1.5523 0.7013,2.2417 0,0 0.01,0 0.01,0.01 a 1.7235288,1.5858876 0 0 0 1.4821,0.7802 1.7235288,1.5858876 0 0 0 1.4812,-0.7786 c 0,0 0.011,-0.01 0.011,-0.01 0.011,-0.013 0.015,-0.027 0.024,-0.04 0.4549,-0.688 0.6426,-1.6671 0.6776,-2.202 0.033,-0.5071 0.088,-1.4467 -0.1587,-2.2555 a 2.1053001,2.1079755 0 0 0 -0.024,-0.075 c -0.012,-0.035 -0.02,-0.071 -0.034,-0.1054 0,0 0,0 0,0 a 2.1053001,2.1079755 0 0 0 -1.9717,-1.3727 z"
         id="path8245" />
      <ellipse
         style="opacity:1;fill:url(#linearGradient8267);fill-opacity:1;fill-rule:nonzero;stroke:none;stroke-width:3.36168933;stroke-linecap:round;stroke-linejoin:round;stroke-miterlimit:4;stroke-dasharray:none;stroke-dashoffset:0;stroke-opacity:1;paint-order:markers stroke fill"
         id="ellipse8247"
         cx="-1637.873"
         cy="-1179.4408"
         rx="2.1053002"
         ry="2.1079755" />
      <ellipse
         cy="-1179.4408"
         cx="-1637.873"
         id="ellipse8249"
         style="opacity:1;fill:#d97d3f;fill-opacity:1;fill-rule:nonzero;stroke:none;stroke-width:2.01692629;stroke-linecap:round;stroke-linejoin:round;stroke-miterlimit:4;stroke-dasharray:none;stroke-dashoffset:0;stroke-opacity:1;paint-order:markers stroke fill"
         rx="1.2631254"
         ry="1.2647307" />
      <path
         inkscape:connector-curvature="0"
         style="opacity:1;fill:#b06633;fill-opacity:1;fill-rule:nonzero;stroke:none;stroke-width:2.01692629;stroke-linecap:round;stroke-linejoin:round;stroke-miterlimit:4;stroke-dasharray:none;stroke-dashoffset:0;stroke-opacity:1;paint-order:markers stroke fill"
         d="m -1637.8729,-1180.7052 a 1.2631253,1.2647305 0 0 0 -1.263,1.2641 1.2631253,1.2647305 0 0 0 0.046,0.335 1.2631254,1.2647306 0 0 1 1.2156,-0.9254 1.2631254,1.2647306 0 0 1 1.2162,0.9238 1.2631253,1.2647305 0 0 0 0.046,-0.3334 1.2631253,1.2647305 0 0 0 -1.263,-1.2641 z"
         id="path8251" />
      <g
         id="g8257"
         clip-path="url(#clipPath7075-3)"
         style="stroke-width:0.98013419;filter:url(#filter7121-1)"
         transform="matrix(1.0196208,0,0,1.0209165,32.188291,24.598633)">
        <path
           transform="translate(0,0.2514004)"
           style="opacity:0.15;fill:#000000;fill-opacity:1;fill-rule:nonzero;stroke:none;stroke-width:3.70956159;stroke-linecap:round;stroke-linejoin:round;stroke-miterlimit:4;stroke-dasharray:none;stroke-dashoffset:0;stroke-opacity:1;paint-order:markers stroke fill"
           d="m -1640.1474,-1177.8322 a 2.2352586,2.4175859 0 0 0 -0.011,0.2437 2.2352586,2.4175859 0 0 0 2.2351,2.4176 2.2352586,2.4175859 0 0 0 2.2351,-2.4176 2.2352586,2.4175859 0 0 0 -0.013,-0.2437 2.2565363,2.3792831 0 0 1 -2.2217,1.9747 2.2565363,2.3792831 0 0 1 -2.2236,-1.9747 z"
           id="path8253"
           inkscape:connector-curvature="0"
           clip-path="url(#clipPath7047-8)" />
        <path
           transform="translate(0,0.2514004)"
           style="opacity:0.15;fill:#000000;fill-opacity:1;fill-rule:nonzero;stroke:none;stroke-width:3.5999155;stroke-linecap:round;stroke-linejoin:round;stroke-miterlimit:4;stroke-dasharray:none;stroke-dashoffset:0;stroke-opacity:1;paint-order:markers stroke fill"
           d="m -1640.1564,-1178.94 a 2.2559245,2.2559245 0 0 0 -0.024,0.3055 2.2559245,2.2559245 0 0 0 2.256,2.2559 2.2559245,2.2559245 0 0 0 2.256,-2.2559 2.2559245,2.2559245 0 0 0 -0.023,-0.3041 2.2559245,2.2201829 0 0 1 -2.2327,1.9195 2.2559245,2.2201829 0 0 1 -2.2326,-1.9209 z"
           id="path8255"
           inkscape:connector-curvature="0"
           clip-path="url(#clipPath7057-5)" />
      </g>
      <path
         style="opacity:1;fill:url(#linearGradient8269);fill-opacity:1;fill-rule:nonzero;stroke:none;stroke-width:3.70956159;stroke-linecap:round;stroke-linejoin:round;stroke-miterlimit:4;stroke-dasharray:none;stroke-dashoffset:0;stroke-opacity:1;paint-order:markers stroke fill"
         d="m -1640.1474,-1177.8322 a 2.2352586,2.4175859 0 0 0 -0.011,0.2437 2.2352586,2.4175859 0 0 0 2.2351,2.4176 2.2352586,2.4175859 0 0 0 2.2351,-2.4176 2.2352586,2.4175859 0 0 0 -0.013,-0.2437 2.2565363,2.3792831 0 0 1 -2.2217,1.9747 2.2565363,2.3792831 0 0 1 -2.2236,-1.9747 z"
         id="path8259"
         inkscape:connector-curvature="0"
         clip-path="url(#clipPath7047-8)"
         transform="matrix(1.0196208,0,0,1.0209165,32.188291,24.598633)" />
      <path
         style="opacity:1;fill:url(#linearGradient8271);fill-opacity:1;fill-rule:nonzero;stroke:none;stroke-width:3.5999155;stroke-linecap:round;stroke-linejoin:round;stroke-miterlimit:4;stroke-dasharray:none;stroke-dashoffset:0;stroke-opacity:1;paint-order:markers stroke fill"
         d="m -1640.1564,-1178.94 a 2.2559245,2.2559245 0 0 0 -0.024,0.3055 2.2559245,2.2559245 0 0 0 2.256,2.2559 2.2559245,2.2559245 0 0 0 2.256,-2.2559 2.2559245,2.2559245 0 0 0 -0.023,-0.3041 2.2559245,2.2201829 0 0 1 -2.2327,1.9195 2.2559245,2.2201829 0 0 1 -2.2326,-1.9209 z"
         id="path8261"
         inkscape:connector-curvature="0"
         clip-path="url(#clipPath7057-5)"
         transform="matrix(1.0196208,0,0,1.0209165,32.188291,24.598633)" />
    </g>
  </g>
</svg>
