<?xml version="1.0" encoding="UTF-8" standalone="no"?>
<!-- Created with Inkscape (http://www.inkscape.org/) -->

<svg
   xmlns:dc="http://purl.org/dc/elements/1.1/"
   xmlns:cc="http://creativecommons.org/ns#"
   xmlns:rdf="http://www.w3.org/1999/02/22-rdf-syntax-ns#"
   xmlns:svg="http://www.w3.org/2000/svg"
   xmlns="http://www.w3.org/2000/svg"
   xmlns:sodipodi="http://sodipodi.sourceforge.net/DTD/sodipodi-0.dtd"
   xmlns:inkscape="http://www.inkscape.org/namespaces/inkscape"
   width="0.26458332mm"
   height="0.47624436mm"
   viewBox="0 0 0.26458332 0.47624436"
   version="1.1"
   id="svg11362"
   inkscape:version="0.92.4 (5da689c313, 2019-01-14)"
   sodipodi:docname="grass_green_round.svg">
  <defs
     id="defs11356" />
  <sodipodi:namedview
     id="base"
     pagecolor="#ffffff"
     bordercolor="#666666"
     borderopacity="1.0"
     inkscape:pageopacity="0.0"
     inkscape:pageshadow="2"
     inkscape:zoom="256"
     inkscape:cx="1.0234715"
     inkscape:cy="1.3193349"
     inkscape:document-units="mm"
     inkscape:current-layer="layer1"
     showgrid="false"
     inkscape:window-width="1920"
     inkscape:window-height="1057"
     inkscape:window-x="-8"
     inkscape:window-y="-8"
     inkscape:window-maximized="1" />
  <metadata
     id="metadata11359">
    <rdf:RDF>
      <cc:Work
         rdf:about="">
        <dc:format>image/svg+xml</dc:format>
        <dc:type
           rdf:resource="http://purl.org/dc/dcmitype/StillImage" />
        <dc:title></dc:title>
      </cc:Work>
    </rdf:RDF>
  </metadata>
  <g
     inkscape:label="Layer 1"
     inkscape:groupmode="layer"
     id="layer1"
     transform="translate(187.71329,-80.7053)">
    <g
       transform="matrix(0.04999971,0,0,0.04999971,-209.27671,145.29607)"
       id="g12038">
      <rect
         ry="1.0583171"
         y="-1285.4729"
         x="431.27084"
         height="3.174943"
         width="5.2916665"
         id="rect19227-0-4-9-2-7-4"
         style="opacity:0.18000004;fill:#000000;fill-opacity:0.99590167;fill-rule:nonzero;stroke:none;stroke-width:3.93964863;stroke-linecap:round;stroke-linejoin:round;stroke-miterlimit:4;stroke-dasharray:none;stroke-dashoffset:0;stroke-opacity:1;paint-order:markers stroke fill;filter:url(#filter1957)" />
      <path
         sodipodi:nodetypes="scccsscscs"
         style="opacity:1;fill:#38b038;fill-opacity:1;fill-rule:nonzero;stroke:none;stroke-width:3.46376657;stroke-linecap:round;stroke-linejoin:round;stroke-miterlimit:4;stroke-dasharray:none;stroke-dashoffset:0;stroke-opacity:1;paint-order:markers stroke fill"
         d="m 432.15277,-1291.8229 c -0.83393,0 -0.88133,1.5875 -0.88194,2.1167 v 1.8521 c 1.76389,0 3.52778,0 5.29167,0 v -1.8521 c 0,-0.5291 -0.0479,-2.1167 -0.88194,-2.1167 -0.83395,0 -0.88135,1.5875 -0.88196,2.1167 0,-0.5291 -0.048,-2.1167 -0.88192,-2.1167 -0.83396,0 -0.88135,1.5875 -0.88195,2.1167 -6.1e-4,-0.5291 -0.048,-2.1167 -0.88196,-2.1167 z"
         id="path11991"
         inkscape:connector-curvature="0" />
      <path
         sodipodi:nodetypes="cccccscscc"
         inkscape:connector-curvature="0"
         id="path11998"
         d="m 431.27083,-1290.2354 v 3.9687 c 1.7639,0 3.52777,0 5.29167,0 v -3.9687 c -0.83394,0 -0.88151,1.5874 -0.88212,2.1166 0,-0.5291 -0.0476,-2.1166 -0.88159,-2.1166 -0.83397,0 -0.88152,1.5874 -0.88213,2.1166 0,-0.5291 -0.0482,-2.1166 -0.88212,-2.1166 -0.83397,0 -0.88098,1.5874 -0.88159,2.1166 0,-0.5291 -0.0481,-2.1166 -0.88212,-2.1166 z"
         style="opacity:1;fill:#249824;fill-opacity:1;fill-rule:nonzero;stroke:none;stroke-width:3.46376824;stroke-linecap:round;stroke-linejoin:round;stroke-miterlimit:4;stroke-dasharray:none;stroke-dashoffset:0;stroke-opacity:1;paint-order:markers stroke fill" />
      <path
         sodipodi:nodetypes="scccsscscs"
         inkscape:connector-curvature="0"
         id="rect11977"
         d="m 432.15277,-1288.3834 c -0.83393,0 -0.88133,1.5875 -0.88194,2.1167 v 2.1167 h 5.29167 v -2.1167 c 0,-0.5291 -0.0479,-2.1167 -0.88194,-2.1167 -0.83395,0 -0.88135,1.5875 -0.88196,2.1167 0,-0.5291 -0.048,-2.1167 -0.88192,-2.1167 -0.83396,0 -0.88135,1.5875 -0.88195,2.1167 -6.1e-4,-0.5291 -0.048,-2.1167 -0.88196,-2.1167 z"
         style="opacity:1;fill:#10741c;fill-opacity:1;fill-rule:nonzero;stroke:none;stroke-width:3.46376657;stroke-linecap:round;stroke-linejoin:round;stroke-miterlimit:4;stroke-dasharray:none;stroke-dashoffset:0;stroke-opacity:1;paint-order:markers stroke fill" />
      <rect
         y="-1284.4146"
         x="431.27081"
         height="0.52916664"
         width="5.2916665"
         id="rect12001"
         style="opacity:1;fill:#0c5414;fill-opacity:1;fill-rule:nonzero;stroke:none;stroke-width:6;stroke-linecap:round;stroke-linejoin:round;stroke-miterlimit:4;stroke-dasharray:none;stroke-dashoffset:0;stroke-opacity:1;paint-order:markers stroke fill" />
    </g>
  </g>
</svg>
