<?xml version="1.0" encoding="UTF-8" standalone="no"?>
<!-- Created with Inkscape (http://www.inkscape.org/) -->

<svg
   xmlns:dc="http://purl.org/dc/elements/1.1/"
   xmlns:cc="http://creativecommons.org/ns#"
   xmlns:rdf="http://www.w3.org/1999/02/22-rdf-syntax-ns#"
   xmlns:svg="http://www.w3.org/2000/svg"
   xmlns="http://www.w3.org/2000/svg"
   xmlns:sodipodi="http://sodipodi.sourceforge.net/DTD/sodipodi-0.dtd"
   xmlns:inkscape="http://www.inkscape.org/namespaces/inkscape"
   width="6.4339805mm"
   height="3.7075438mm"
   viewBox="0 0 6.4339805 3.7075438"
   version="1.1"
   id="svg22992"
   inkscape:version="0.92.3 (2405546, 2018-03-11)"
   sodipodi:docname="turret_base_blue_range.svg">
  <defs
     id="defs22986" />
  <sodipodi:namedview
     id="base"
     pagecolor="#ffffff"
     bordercolor="#666666"
     borderopacity="1.0"
     inkscape:pageopacity="0.0"
     inkscape:pageshadow="2"
     inkscape:zoom="31.678384"
     inkscape:cx="9.4446519"
     inkscape:cy="3.8018242"
     inkscape:document-units="mm"
     inkscape:current-layer="layer1"
     showgrid="false"
     inkscape:window-width="1920"
     inkscape:window-height="1057"
     inkscape:window-x="-8"
     inkscape:window-y="-8"
     inkscape:window-maximized="1" />
  <metadata
     id="metadata22989">
    <rdf:RDF>
      <cc:Work
         rdf:about="">
        <dc:format>image/svg+xml</dc:format>
        <dc:type
           rdf:resource="http://purl.org/dc/dcmitype/StillImage" />
        <dc:title></dc:title>
      </cc:Work>
    </rdf:RDF>
  </metadata>
  <g
     inkscape:label="Layer 1"
     inkscape:groupmode="layer"
     id="layer1"
     transform="translate(26.649215,-75.987849)">
    <g
       id="g22734"
       transform="matrix(0.06119328,0,0,-0.06119328,0.20208463,-95.177568)">
      <path
         style="opacity:1;fill:none;fill-opacity:1;fill-rule:nonzero;stroke:#798cf3;stroke-width:3.77121639;stroke-linecap:butt;stroke-linejoin:round;stroke-miterlimit:4;stroke-dasharray:none;stroke-dashoffset:0;stroke-opacity:1;paint-order:markers fill stroke"
         d="m -1265.5801,-10798.924 c -0.6172,0.05 -1.0775,0.58 -1.0312,1.197 l 0.957,12.76 c 0.046,0.617 0.582,1.078 1.1992,1.031 0.6173,-0.05 1.0756,-0.58 1.0293,-1.197 l -0.957,-12.76 c -0.046,-0.617 -0.58,-1.077 -1.1973,-1.031 z m -388.3261,0.848 c -0.6173,-0.05 -1.151,0.414 -1.1973,1.031 l -0.957,12.76 c -0.046,0.617 0.412,1.151 1.0293,1.197 0.6172,0.05 1.1529,-0.414 1.1992,-1.031 l 0.957,-12.76 c 0.046,-0.617 -0.414,-1.151 -1.0312,-1.197 z m 389.9374,32.74 c -0.6172,-0.05 -1.1529,0.412 -1.1992,1.029 l -0.955,12.76 c -0.046,0.617 0.412,1.151 1.0292,1.197 0.6173,0.05 1.151,-0.412 1.1973,-1.029 l 0.957,-12.76 c 0.046,-0.617 -0.412,-1.151 -1.0293,-1.197 z m -391.5488,0.846 c -0.6172,0.05 -1.0756,0.582 -1.0293,1.199 l 0.9571,12.758 c 0.046,0.617 0.58,1.077 1.1972,1.031 0.6173,-0.05 1.0776,-0.58 1.0313,-1.197 l -0.9571,-12.76 c -0.046,-0.617 -0.5819,-1.078 -1.1992,-1.031 z m 387.4375,34.074 c -0.431,0.06 -0.8028,0.375 -0.9199,0.824 l -3.2285,12.381 c -0.1562,0.599 0.1999,1.207 0.7988,1.363 0.599,0.157 1.2071,-0.2 1.3633,-0.798 l 3.2285,-12.381 c 0.1562,-0.599 -0.1999,-1.207 -0.7988,-1.364 -0.1498,-0.04 -0.2997,-0.05 -0.4434,-0.02 z m -383.1933,0.648 c -0.1437,-0.02 -0.2937,-0.01 -0.4434,0.03 -0.5987,0.157 -0.9539,0.766 -0.7969,1.365 l 3.2461,12.375 c 0.1571,0.599 0.7665,0.956 1.3653,0.799 0.5987,-0.157 0.9539,-0.767 0.7968,-1.365 l -3.248,-12.377 c -0.1178,-0.449 -0.4889,-0.761 -0.9199,-0.823 z m 373.2226,32.725 c -0.4353,-0.01 -0.8544,0.232 -1.0469,0.654 l -5.3046,11.645 c -0.2566,0.563 -0.01,1.224 0.5546,1.48 0.5633,0.257 1.222,0 1.4786,-0.554 l 5.3046,-11.645 c 0.2566,-0.563 0.01,-1.222 -0.5546,-1.478 -0.1409,-0.06 -0.2866,-0.1 -0.4317,-0.102 z m -363.2539,0.129 c -0.1451,0 -0.2912,0.04 -0.4316,0.103 -0.5619,0.26 -0.8046,0.921 -0.5449,1.483 l 5.3671,11.615 c 0.2597,0.562 0.9206,0.805 1.4825,0.545 0.5618,-0.26 0.8045,-0.921 0.5449,-1.482 l -5.3672,-11.616 c -0.1947,-0.421 -0.6156,-0.663 -1.0508,-0.648 z m 16.5938,30.568 c -0.2812,-0.05 -0.5821,0 -0.836,0.184 -0.5076,0.354 -0.6295,1.049 -0.2754,1.557 l 7.3203,10.494 c 0.3542,0.507 1.0471,0.631 1.5547,0.277 0.5077,-0.354 0.6315,-1.049 0.2774,-1.557 l -7.3203,-10.494 c -0.1771,-0.254 -0.4396,-0.411 -0.7207,-0.461 z m 329.9765,0.1 c -0.2811,0.05 -0.544,0.209 -0.7207,0.463 l -7.3047,10.506 c -0.3534,0.508 -0.2288,1.201 0.2793,1.554 0.5082,0.354 1.2013,0.229 1.5547,-0.279 l 7.3047,-10.504 c 0.3534,-0.508 0.2289,-1.203 -0.2793,-1.556 -0.2541,-0.177 -0.5529,-0.235 -0.834,-0.184 z m -20.748,26.965 c -0.2856,0 -0.5702,0.109 -0.7891,0.328 l -9.0488,9.049 c -0.4377,0.437 -0.4377,1.142 0,1.58 0.4377,0.438 1.1424,0.438 1.5801,0 l 9.0488,-9.049 c 0.4377,-0.438 0.4377,-1.142 0,-1.58 -0.2188,-0.219 -0.5054,-0.328 -0.791,-0.328 z m -288.3496,0 c -0.2856,0 -0.5722,0.109 -0.791,0.328 -0.4377,0.438 -0.4377,1.142 0,1.58 l 9.0488,9.047 c 0.4377,0.438 1.1424,0.438 1.5801,0 0.4376,-0.438 0.4376,-1.143 0,-1.58 l -9.0489,-9.047 c -0.2188,-0.219 -0.5034,-0.328 -0.789,-0.328 z m 262.582,23.728 c -0.281,-0.05 -0.5814,0 -0.8359,0.182 l -10.5235,7.279 c -0.509,0.352 -0.6353,1.046 -0.2832,1.555 0.3521,0.509 1.0457,0.635 1.5547,0.283 l 10.5215,-7.279 c 0.509,-0.352 0.6353,-1.046 0.2832,-1.555 -0.1761,-0.254 -0.4358,-0.414 -0.7168,-0.465 z m -237.125,0.05 c -0.2809,0.05 -0.5431,0.21 -0.7188,0.465 -0.3513,0.509 -0.2224,1.203 0.2872,1.555 l 10.5332,7.263 c 0.5095,0.352 1.2013,0.225 1.5527,-0.285 0.3514,-0.509 0.2244,-1.203 -0.2852,-1.555 l -10.5332,-7.263 c -0.2547,-0.176 -0.555,-0.232 -0.8359,-0.18 z m 207.6875,18.148 c -0.1451,0 -0.2912,0.04 -0.4316,0.104 l -11.6153,5.367 c -0.5619,0.26 -0.8045,0.923 -0.5449,1.485 0.2596,0.561 0.9205,0.804 1.4824,0.544 l 11.6153,-5.367 c 0.5618,-0.259 0.8045,-0.92 0.5449,-1.482 -0.1947,-0.422 -0.6156,-0.665 -1.0508,-0.651 z m -178.3145,0.116 c -0.4353,-0.01 -0.8544,0.232 -1.0468,0.654 -0.2566,0.563 -0.011,1.224 0.5527,1.48 l 11.6445,5.303 c 0.5633,0.257 1.2239,0 1.4805,-0.554 0.2566,-0.564 0.011,-1.222 -0.5527,-1.479 l -11.6446,-5.305 c -0.1408,-0.06 -0.2885,-0.1 -0.4336,-0.1 z m 32.1114,13.187 c -0.4308,0.06 -0.8007,0.379 -0.916,0.828 -0.1539,0.6 0.2051,1.206 0.8046,1.36 l 12.3946,3.181 c 0.5995,0.154 1.2055,-0.205 1.3594,-0.804 0.1538,-0.6 -0.2052,-1.208 -0.8047,-1.362 l -12.3946,-3.179 c -0.1499,-0.04 -0.2997,-0.05 -0.4433,-0.02 z m 114.2207,0.06 c -0.1436,-0.02 -0.2955,-0.01 -0.4453,0.02 l -12.3887,3.197 c -0.5993,0.155 -0.9574,0.762 -0.8027,1.362 0.1547,0.599 0.762,0.957 1.3613,0.803 l 12.3887,-3.198 c 0.5993,-0.154 0.9574,-0.762 0.8027,-1.361 -0.116,-0.45 -0.4852,-0.763 -0.916,-0.826 z m -80.3106,7.023 c -0.6172,-0.05 -1.1509,0.414 -1.1972,1.031 -0.046,0.618 0.412,1.151 1.0293,1.198 l 12.7597,0.957 c 0.6173,0.05 1.151,-0.414 1.1973,-1.031 0.046,-0.618 -0.4121,-1.151 -1.0293,-1.198 z m 46.4024,0.07 -12.7598,0.957 c -0.6172,0.05 -1.0756,0.58 -1.0293,1.197 0.046,0.617 0.58,1.077 1.1973,1.031 l 12.7597,-0.957 c 0.6173,-0.05 1.0756,-0.58 1.0293,-1.197 -0.046,-0.617 -0.58,-1.078 -1.1972,-1.031 z"
         id="path22730"
         transform="scale(0.26458333)"
         inkscape:connector-curvature="0" />
      <path
         style="color:#000000;font-style:normal;font-variant:normal;font-weight:normal;font-stretch:normal;font-size:medium;line-height:normal;font-family:sans-serif;font-variant-ligatures:normal;font-variant-position:normal;font-variant-caps:normal;font-variant-numeric:normal;font-variant-alternates:normal;font-feature-settings:normal;text-indent:0;text-align:start;text-decoration:none;text-decoration-line:none;text-decoration-style:solid;text-decoration-color:#000000;letter-spacing:normal;word-spacing:normal;text-transform:none;writing-mode:lr-tb;direction:ltr;text-orientation:mixed;dominant-baseline:auto;baseline-shift:baseline;text-anchor:start;white-space:normal;shape-padding:0;clip-rule:nonzero;display:inline;overflow:visible;visibility:visible;opacity:1;isolation:auto;mix-blend-mode:normal;color-interpolation:sRGB;color-interpolation-filters:linearRGB;solid-color:#000000;solid-opacity:1;vector-effect:none;fill:#798cf3;fill-opacity:1;fill-rule:nonzero;stroke:none;stroke-width:0.99780101;stroke-linecap:butt;stroke-linejoin:round;stroke-miterlimit:4;stroke-dasharray:none;stroke-dashoffset:0;stroke-opacity:1;paint-order:markers fill stroke;color-rendering:auto;image-rendering:auto;shape-rendering:auto;text-rendering:auto;enable-background:accumulate"
         d="m -334.8886,-2857.713 a 0.4989504,0.4989504 0 0 0 -0.003,6e-4 c -0.42622,0.035 -0.76251,0.4207 -0.7302,0.8511 l 0.25321,3.3761 c 0.0322,0.4313 0.42129,0.7657 0.85267,0.7327 a 0.4989504,0.4989504 0 0 0 0.003,0 c 0.4263,-0.034 0.7619,-0.4215 0.72967,-0.8509 l -0.25323,-3.3761 c -0.0321,-0.4305 -0.42122,-0.7655 -0.85162,-0.7335 z m -102.66815,0.2255 c -0.43346,-0.034 -0.82147,0.3027 -0.8537,0.7321 l -0.25321,3.3761 c -0.032,0.4286 0.30147,0.8173 0.7307,0.8506 0.43358,0.034 0.8219,-0.3016 0.85421,-0.7324 l 0.25323,-3.3758 c 0.032,-0.4297 -0.30205,-0.8173 -0.73123,-0.8506 z m 103.17097,8.6624 c -0.43252,-0.034 -0.82191,0.3011 -0.85421,0.7319 l -0.2527,3.3758 c -0.032,0.4286 0.30144,0.8173 0.7307,0.8506 0.4324,0.034 0.82145,-0.3021 0.8537,-0.7316 l 0.25321,-3.376 c 0.032,-0.4287 -0.30147,-0.8173 -0.7307,-0.8507 z m -103.67431,0.2228 a 0.4989504,0.4989504 0 0 0 -0.003,5e-4 c -0.42738,0.035 -0.76192,0.422 -0.72966,0.8517 l 0.2532,3.3753 c 0.0321,0.4305 0.42122,0.7655 0.85162,0.7334 a 0.4989504,0.4989504 0 0 0 0.003,-5e-4 c 0.42619,-0.035 0.76248,-0.4207 0.73017,-0.8511 l -0.25321,-3.3761 c -0.0321,-0.4313 -0.42129,-0.766 -0.85267,-0.7332 z m 102.53276,9.0144 a 0.4989504,0.4989504 0 0 0 -0.0542,0 c -0.006,8e-4 -0.0107,0.01 -0.0171,0.01 -0.006,0 -0.0101,0 -0.016,-5e-4 l 0.006,0.01 c -0.29824,0.053 -0.55142,0.2704 -0.63045,0.5736 l -0.85421,3.2755 c -0.10885,0.4175 0.15066,0.8607 0.56843,0.9697 0.4177,0.1088 0.85995,-0.1508 0.96894,-0.568 l 0.8542,-3.2758 c 0.1088,-0.417 -0.15017,-0.8592 -0.56687,-0.969 -0.0304,-0.01 -0.072,0 -0.10594,0 a 0.4989504,0.4989504 0 0 0 -0.15298,-0.019 z m -101.30337,0.1762 c -0.10692,-0.015 -0.21371,-0.01 -0.31316,0.02 -0.41733,0.11 -0.67567,0.5529 -0.56637,0.9699 l 0.85886,3.2742 c 0.10954,0.4178 0.55227,0.6771 0.9705,0.5676 0.41827,-0.1098 0.67659,-0.553 0.56689,-0.9705 l -0.85939,-3.2748 c -0.056,-0.2132 -0.21146,-0.3598 -0.39325,-0.463 a 0.4989504,0.4989504 0 0 0 -0.26408,-0.123 z m 98.68908,8.6542 c -0.30652,-0.01 -0.60582,0.1699 -0.74002,0.4641 a 0.4989504,0.4989504 0 0 0 -5.3e-4,5e-4 l -1.4035,3.0811 h 5e-4 c -0.17891,0.3924 4.7e-4,0.8731 0.39378,1.052 0.39682,0.1807 0.87064,0 1.05058,-0.3905 a 0.4989504,0.4989504 0 0 0 0.002,0 l 1.40351,-3.0811 h -5e-4 c 0.17885,-0.3924 -0.001,-0.8739 -0.39429,-1.052 a 0.4989504,0.4989504 0 0 0 -0.0109,0 c -0.0771,-0.033 -0.17629,-0.064 -0.30022,-0.066 z m -96.12953,0.036 c -0.12488,0 -0.22834,0.033 -0.30903,0.069 a 0.4989504,0.4989504 0 0 0 -0.005,0 c -0.39145,0.181 -0.56843,0.6628 -0.38759,1.0541 l 1.42007,3.0731 c 0.18095,0.3916 0.6627,0.5689 1.05421,0.3876 a 0.4989504,0.4989504 0 0 0 5e-4,0 c 0.39145,-0.1812 0.56825,-0.6627 0.38706,-1.0541 l -1.42007,-3.0734 c -0.13473,-0.2913 -0.43209,-0.4662 -0.73999,-0.4587 z m 4.48704,8.093 c -0.18925,-0.034 -0.4123,0 -0.59531,0.1334 -0.35266,0.2482 -0.44119,0.7511 -0.19532,1.1038 a 0.4989504,0.4989504 0 0 0 0,5e-4 l 1.93683,2.7766 a 0.4989504,0.4989504 0 0 0 5.1e-4,0 c 0.2468,0.3532 0.75149,0.4437 1.10537,0.1968 0.35441,-0.2471 0.44434,-0.7522 0.19741,-1.1065 a 0.4989504,0.4989504 0 0 0 0,-5e-4 l -1.93686,-2.776 c -0.12395,-0.1778 -0.31369,-0.2926 -0.51263,-0.3281 z m 87.13113,0.027 c -0.20095,0.036 -0.38923,0.1514 -0.51263,0.3289 l -1.9327,2.7795 c -0.24622,0.354 -0.15537,0.8591 0.19843,1.1054 0.35423,0.2469 0.86017,0.1556 1.10639,-0.1984 l 1.9327,-2.7792 c 0.24656,-0.3543 0.15616,-0.8591 -0.19844,-1.1057 -0.1755,-0.1222 -0.39317,-0.1664 -0.59375,-0.1305 z m -81.69423,7.1269 c -0.20251,0 -0.40889,0.08 -0.56224,0.2331 -0.30475,0.3048 -0.30475,0.8178 0,1.1229 a 0.4989504,0.4989504 0 0 0 0,5e-4 l 2.39416,2.3937 c 0.30507,0.3053 0.81889,0.3053 1.12395,0 a 0.4989504,0.4989504 0 0 0 0,-6e-4 c 0.30499,-0.3053 0.30512,-0.8183 -5e-4,-1.1234 l -2.39366,-2.3931 c -0.15227,-0.1524 -0.35923,-0.2331 -0.56171,-0.2331 z m 76.2925,0 c -0.20252,0 -0.40947,0.081 -0.56174,0.2331 l -2.39363,2.3936 c -0.30568,0.3051 -0.30554,0.8187 -5.3e-4,1.124 0.30506,0.3053 0.81888,0.3053 1.12397,0 l 2.39417,-2.3942 a 0.4989504,0.4989504 0 0 0 0,-5e-4 c 0.30474,-0.3051 0.30474,-0.8181 0,-1.1229 -0.15336,-0.1535 -0.35976,-0.2331 -0.56224,-0.2331 z m -6.73034,6.2854 c -0.19122,-0.034 -0.41566,0 -0.59894,0.1339 l -2.7776,1.9211 c -0.35525,0.2458 -0.44717,0.7504 -0.20156,1.1055 0.24564,0.355 0.7505,0.4468 1.10538,0.2016 l 2.78381,-1.9259 c 0.35523,-0.2458 0.44715,-0.7504 0.20154,-1.1055 a 0.4989504,0.4989504 0 0 0 -5.3e-4,-5e-4 c -0.12155,-0.1754 -0.30896,-0.2932 -0.51057,-0.3297 a 0.4989504,0.4989504 0 0 0 -0.002,-5e-4 z m -62.91554,0.015 c -0.20169,0.036 -0.38975,0.1524 -0.51212,0.3302 -0.24538,0.3558 -0.15153,0.8599 0.20309,1.1046 a 0.4989504,0.4989504 0 0 0 5e-4,5e-4 l 2.78641,1.9214 c 0.35451,0.245 0.86008,0.1519 1.10485,-0.2026 0.24534,-0.3554 0.15319,-0.8599 -0.20207,-1.1052 a 0.4989504,0.4989504 0 0 0 -5e-4,-5e-4 l -2.78641,-1.9214 h -5.2e-4 c -0.17685,-0.122 -0.39405,-0.1636 -0.59323,-0.127 z m 55.03074,4.795 c -0.12525,0 -0.22981,0.032 -0.31213,0.07 a 0.4989504,0.4989504 0 0 0 -0.003,0 l -3.07319,1.42 c -0.39235,0.1815 -0.56851,0.6636 -0.38756,1.0554 0.18116,0.3913 0.6627,0.5681 1.05418,0.3868 v 6e-4 l 3.07269,-1.4201 c 0.39213,-0.1807 0.56888,-0.6627 0.38809,-1.0541 h 5.3e-4 c -0.13447,-0.2915 -0.43186,-0.4667 -0.74002,-0.4598 z m -47.17026,0.028 a 0.4989504,0.4989504 0 0 0 -0.26199,0.075 c -0.19735,0.07 -0.37637,0.1876 -0.46871,0.3902 -0.17883,0.3924 -8e-5,0.8737 0.39378,1.0526 l 3.07991,1.403 c 0.39733,0.1813 0.87122,0 1.05161,-0.391 a 0.4989504,0.4989504 0 0 0 0.002,0 c 0.17815,-0.3915 -10e-4,-0.8736 -0.39325,-1.0522 a 0.4989504,0.4989504 0 0 0 -5.2e-4,0 l -3.08095,-1.4034 a 0.4989504,0.4989504 0 0 0 -0.0114,-0.01 c -0.0771,-0.033 -0.17629,-0.062 -0.30075,-0.064 h 0.002 c -0.002,0 -0.003,0 -0.005,0 -0.003,0 -0.004,0 -0.006,0 z m 8.48167,3.4891 a 0.4989504,0.4989504 0 0 0 -0.0543,0 c -0.006,8e-4 -0.01,0.01 -0.0155,0.01 -0.006,0 -0.0111,0 -0.0176,-6e-4 l 0.007,0.01 c -0.30128,0.054 -0.55271,0.2738 -0.63045,0.5768 -0.10721,0.4177 0.15444,0.8599 0.57206,0.9673 l 3.27938,0.8414 c 0.41807,0.1071 0.85955,-0.154 0.96686,-0.5718 a 0.4989504,0.4989504 0 0 0 0,-5e-4 c 0.10721,-0.4181 -0.15343,-0.8597 -0.57205,-0.9674 l -3.27472,-0.8397 c -1.6e-4,0 -3.7e-4,2e-4 -5.3e-4,0 -0.031,-0.01 -0.0734,0 -0.10801,0 a 0.4989504,0.4989504 0 0 0 -0.15192,-0.02 z m 30.25809,0.016 a 0.4989504,0.4989504 0 0 0 -0.12866,0.011 c -0.0355,0 -0.0782,0 -0.11007,0 a 0.4989504,0.4989504 0 0 0 -0.0263,0.01 l -3.27784,0.8453 a 0.4989504,0.4989504 0 0 0 -5.3e-4,6e-4 c -0.41762,0.1082 -0.67821,0.5503 -0.5705,0.9681 0.10795,0.4177 0.54962,0.6784 0.96737,0.5709 a 0.4989504,0.4989504 0 0 0 5.3e-4,-5e-4 l 3.27731,-0.8459 c 0.41873,-0.1077 0.67953,-0.5498 0.57156,-0.9681 -0.0806,-0.3125 -0.3455,-0.5424 -0.65321,-0.5874 a 0.4989504,0.4989504 0 0 0 -0.0496,0 z m -21.23434,1.8597 0.003,6e-4 c -0.43397,-0.035 -0.82248,0.3029 -0.85473,0.7329 -0.0319,0.4291 0.30287,0.8188 0.73226,0.8517 a 0.4989504,0.4989504 0 0 0 5e-4,0 l 3.37603,0.2532 -0.003,-6e-4 c 0.43394,0.035 0.82245,-0.3029 0.85473,-0.7329 0.0319,-0.4291 -0.30287,-0.8188 -0.73226,-0.8517 a 0.4989504,0.4989504 0 0 0 -5.3e-4,0 z m 12.20234,0.019 -3.3755,0.2532 a 0.4989504,0.4989504 0 0 0 -0.003,0 c -0.42633,0.034 -0.76192,0.422 -0.72967,0.8515 0.0323,0.4302 0.4214,0.7649 0.85161,0.7329 l 3.37603,-0.2533 a 0.4989504,0.4989504 0 0 0 0.003,0 c 0.42611,-0.034 0.76158,-0.4217 0.72967,-0.8511 -0.0321,-0.4302 -0.42053,-0.7657 -0.85164,-0.7332 z"
         id="path22766"
         inkscape:connector-curvature="0" />
    </g>
  </g>
</svg>
