<?xml version="1.0" encoding="UTF-8" standalone="no"?>
<!-- Created with Inkscape (http://www.inkscape.org/) -->

<svg
   xmlns:dc="http://purl.org/dc/elements/1.1/"
   xmlns:cc="http://creativecommons.org/ns#"
   xmlns:rdf="http://www.w3.org/1999/02/22-rdf-syntax-ns#"
   xmlns:svg="http://www.w3.org/2000/svg"
   xmlns="http://www.w3.org/2000/svg"
   xmlns:xlink="http://www.w3.org/1999/xlink"
   xmlns:sodipodi="http://sodipodi.sourceforge.net/DTD/sodipodi-0.dtd"
   xmlns:inkscape="http://www.inkscape.org/namespaces/inkscape"
   width="0.61004943mm"
   height="0.60676354mm"
   viewBox="0 0 0.61004943 0.60676354"
   version="1.1"
   id="svg7524"
   inkscape:version="0.92.4 (5da689c313, 2019-01-14)"
   sodipodi:docname="mine_mortuary.svg">
  <defs
     id="defs7518">
    <linearGradient
       inkscape:collect="always"
       xlink:href="#linearGradient8117"
       id="linearGradient8119"
       x1="483.12918"
       y1="-1150.0327"
       x2="483.12918"
       y2="-1145.7465"
       gradientUnits="userSpaceOnUse"
       gradientTransform="matrix(1.0833441,0,0,1.1110931,-40.243907,127.52258)" />
    <linearGradient
       inkscape:collect="always"
       id="linearGradient8117">
      <stop
         style="stop-color:#343058;stop-opacity:1"
         offset="0"
         id="stop8113" />
      <stop
         style="stop-color:#201834;stop-opacity:1"
         offset="1"
         id="stop8115" />
    </linearGradient>
  </defs>
  <sodipodi:namedview
     id="base"
     pagecolor="#ffffff"
     bordercolor="#666666"
     borderopacity="1.0"
     inkscape:pageopacity="0.0"
     inkscape:pageshadow="2"
     inkscape:zoom="179.2"
     inkscape:cx="0.87074434"
     inkscape:cy="1.3438356"
     inkscape:document-units="mm"
     inkscape:current-layer="layer1"
     showgrid="false"
     inkscape:object-paths="true"
     inkscape:snap-intersection-paths="true"
     inkscape:snap-smooth-nodes="true"
     inkscape:snap-midpoints="true"
     inkscape:snap-object-midpoints="true"
     inkscape:window-width="1920"
     inkscape:window-height="1057"
     inkscape:window-x="-8"
     inkscape:window-y="-8"
     inkscape:window-maximized="1" />
  <metadata
     id="metadata7521">
    <rdf:RDF>
      <cc:Work
         rdf:about="">
        <dc:format>image/svg+xml</dc:format>
        <dc:type
           rdf:resource="http://purl.org/dc/dcmitype/StillImage" />
        <dc:title></dc:title>
      </cc:Work>
    </rdf:RDF>
  </metadata>
  <g
     inkscape:label="Layer 1"
     inkscape:groupmode="layer"
     id="layer1"
     transform="translate(-50.521259,-113.84702)">
    <g
       transform="matrix(0.06153845,0,0,0.06153845,21.123494,184.75121)"
       id="g7003">
      <rect
         ry="1.8521322"
         y="-1147.8895"
         x="478.10208"
         height="5.5562091"
         width="9.5249939"
         id="rect19227-0-4-9-7-8-1"
         style="opacity:0.18000004;fill:#000000;fill-opacity:0.99590167;fill-rule:nonzero;stroke:none;stroke-width:3.93971252;stroke-linecap:round;stroke-linejoin:round;stroke-miterlimit:4;stroke-dasharray:none;stroke-dashoffset:0;stroke-opacity:1;paint-order:markers stroke fill;filter:url(#filter1957)" />
      <rect
         ry="4.5210494e-05"
         y="-1150.5354"
         x="479.42496"
         height="5.291626"
         width="6.8792233"
         id="rect8070"
         style="opacity:1;fill:url(#linearGradient8119);fill-opacity:1;fill-rule:nonzero;stroke:none;stroke-width:1.11557603;stroke-linecap:round;stroke-linejoin:miter;stroke-miterlimit:4;stroke-dasharray:none;stroke-dashoffset:0;stroke-opacity:1;paint-order:markers stroke fill" />
      <path
         style="color:#000000;font-style:normal;font-variant:normal;font-weight:normal;font-stretch:normal;font-size:medium;line-height:normal;font-family:sans-serif;font-variant-ligatures:normal;font-variant-position:normal;font-variant-caps:normal;font-variant-numeric:normal;font-variant-alternates:normal;font-feature-settings:normal;text-indent:0;text-align:start;text-decoration:none;text-decoration-line:none;text-decoration-style:solid;text-decoration-color:#000000;letter-spacing:normal;word-spacing:normal;text-transform:none;writing-mode:lr-tb;direction:ltr;text-orientation:mixed;dominant-baseline:auto;baseline-shift:baseline;text-anchor:start;white-space:normal;shape-padding:0;clip-rule:nonzero;display:inline;overflow:visible;visibility:visible;opacity:1;isolation:auto;mix-blend-mode:normal;color-interpolation:sRGB;color-interpolation-filters:linearRGB;solid-color:#000000;solid-opacity:1;vector-effect:none;fill:#003458;fill-opacity:1;fill-rule:nonzero;stroke:none;stroke-width:1.05833328;stroke-linecap:round;stroke-linejoin:miter;stroke-miterlimit:4;stroke-dasharray:none;stroke-dashoffset:0;stroke-opacity:1;paint-order:markers stroke fill;color-rendering:auto;image-rendering:auto;shape-rendering:auto;text-rendering:auto;enable-background:accumulate"
         d="m 480.48333,-1151.8584 c -1.31006,0 -2.38125,1.0712 -2.38125,2.3813 v 3.175 c 0,1.3101 1.07119,2.3812 2.38125,2.3812 h 4.7625 c 1.31006,0 2.38125,-1.0711 2.38125,-2.3812 v -3.175 c 0,-1.3101 -1.07119,-2.3813 -2.38125,-2.3813 z m 0.10438,1.5875 h 4.55374 c 0.50692,0 0.89813,0.3912 0.89813,0.8982 v 2.9657 c 0,0.5069 -0.39142,0.8986 -0.89813,0.8986 h -4.55374 c -0.5067,0 -0.89813,-0.3917 -0.89813,-0.8986 v -2.9657 c 0,-0.507 0.39121,-0.8982 0.89813,-0.8982 z"
         id="path8066"
         inkscape:connector-curvature="0" />
      <path
         inkscape:connector-curvature="0"
         style="opacity:1;fill:#445ca4;fill-opacity:1;fill-rule:nonzero;stroke:none;stroke-width:1.05833328;stroke-linecap:round;stroke-linejoin:miter;stroke-miterlimit:4;stroke-dasharray:none;stroke-dashoffset:0;stroke-opacity:1;paint-order:markers stroke fill"
         d="m 480.48333,-1151.3292 c -1.02608,0 -1.85208,0.826 -1.85208,1.8521 v 3.175 c 0,1.0261 0.826,1.8521 1.85208,1.8521 h 4.7625 c 1.02608,0 1.85208,-0.826 1.85208,-1.8521 v -3.175 c 0,-1.0261 -0.826,-1.8521 -1.85208,-1.8521 z m 0.10438,0.5292 h 4.55374 c 0.79084,0 1.4273,0.6364 1.4273,1.4273 v 2.9657 c 0,0.7908 -0.63646,1.4278 -1.4273,1.4278 h -4.55374 c -0.79084,0 -1.4273,-0.637 -1.4273,-1.4278 v -2.9657 c 0,-0.7909 0.63646,-1.4273 1.4273,-1.4273 z"
         id="path8068" />
      <path
         inkscape:connector-curvature="0"
         id="path8093"
         transform="scale(0.26458333)"
         d="m 1816,-4351.4805 c -3.8781,0 -7,3.1219 -7,7 v 1 c 0,-3.8781 3.1219,-7 7,-7 h 18 c 3.8781,0 7,3.1219 7,7 v -1 c 0,-3.8781 -3.1219,-7 -7,-7 z m -5,18.6035 v 1 c 0,2.9889 2.4055,5.3965 5.3945,5.3965 h 17.211 c 2.989,0 5.3945,-2.4076 5.3945,-5.3965 v -1 c 0,2.9889 -2.4055,5.3965 -5.3945,5.3965 h -17.211 c -2.989,0 -5.3945,-2.4076 -5.3945,-5.3965 z"
         style="opacity:1;fill:#5c74b0;fill-opacity:1;fill-rule:nonzero;stroke:none;stroke-width:3.99999976;stroke-linecap:round;stroke-linejoin:miter;stroke-miterlimit:4;stroke-dasharray:none;stroke-dashoffset:0;stroke-opacity:1;paint-order:markers stroke fill" />
      <path
         sodipodi:nodetypes="ccccccccccc"
         inkscape:connector-curvature="0"
         id="path8072"
         d="m 477.97801,-1149.6489 0.32183,-0.376 0.32216,0.1334 0.009,-0.3793 0.58381,-0.4722 4.14936,6.0906 -0.45018,0.1958 -0.4339,-0.5006 -0.17475,0.6601 -0.78991,0.3276 z"
         style="opacity:1;fill:#00ff00;fill-opacity:1;stroke:none;stroke-width:0.60000002;stroke-linecap:butt;stroke-linejoin:round;stroke-miterlimit:4;stroke-dasharray:none;stroke-opacity:1;paint-order:markers stroke fill" />
      <path
         inkscape:connector-curvature="0"
         transform="scale(0.26458333)"
         id="path8099"
         d="m 1830.207,-4354.7461 a 1.0001001,1.0001001 0 0 0 -0.791,0.3828 l -0.5527,0.709 -0.4512,-0.4727 a 1.0001001,1.0001001 0 0 0 -0.9141,-0.2792 l -2.2148,0.4433 a 1.0001001,1.0001001 0 0 0 -0.7246,1.3574 l 10.7559,26.2578 a 1.0001001,1.0001001 0 0 0 1.5293,0.42 l 2.414,-1.8223 a 1.0001001,1.0001001 0 0 0 0.3164,-0.4062 l 0.1172,-0.2872 a 1.0001001,1.0001001 0 0 0 1.3965,0.1329 l 1.0547,-0.8575 a 1.0001001,1.0001001 0 0 0 0.3183,-1.0918 l -7.8925,-23.7988 a 1.0001001,1.0001001 0 0 0 -0.9434,-0.6875 z"
         style="color:#000000;font-style:normal;font-variant:normal;font-weight:normal;font-stretch:normal;font-size:medium;line-height:normal;font-family:sans-serif;font-variant-ligatures:normal;font-variant-position:normal;font-variant-caps:normal;font-variant-numeric:normal;font-variant-alternates:normal;font-feature-settings:normal;text-indent:0;text-align:start;text-decoration:none;text-decoration-line:none;text-decoration-style:solid;text-decoration-color:#000000;letter-spacing:normal;word-spacing:normal;text-transform:none;writing-mode:lr-tb;direction:ltr;text-orientation:mixed;dominant-baseline:auto;baseline-shift:baseline;text-anchor:start;white-space:normal;shape-padding:0;clip-rule:nonzero;display:inline;overflow:visible;visibility:visible;opacity:1;isolation:auto;mix-blend-mode:normal;color-interpolation:sRGB;color-interpolation-filters:linearRGB;solid-color:#000000;solid-opacity:1;vector-effect:none;fill:#972458;fill-opacity:1;fill-rule:nonzero;stroke:none;stroke-width:2.00000024;stroke-linecap:butt;stroke-linejoin:round;stroke-miterlimit:4;stroke-dasharray:none;stroke-dashoffset:0;stroke-opacity:1;paint-order:markers stroke fill;color-rendering:auto;image-rendering:auto;shape-rendering:auto;text-rendering:auto;enable-background:accumulate" />
      <path
         sodipodi:nodetypes="ccccccccccc"
         inkscape:connector-curvature="0"
         id="path8074"
         d="m 482.99202,-1151.7265 2.84738,6.9467 0.63865,-0.4816 0.25576,-0.5997 0.22084,0.4578 0.27922,-0.2279 -2.08776,-6.2971 h -0.90435 l -0.33329,0.4263 -0.33142,-0.3425 z"
         style="opacity:1;fill:#d85c90;fill-opacity:1;stroke:none;stroke-width:0.5291667;stroke-linecap:butt;stroke-linejoin:round;stroke-miterlimit:4;stroke-dasharray:none;stroke-opacity:1;paint-order:markers stroke fill" />
      <path
         sodipodi:nodetypes="cccccccccccccccccccccccccccccccccccccccccccccccccccccccccccccccccccccccccccccccccc"
         inkscape:connector-curvature="0"
         id="path8101"
         transform="scale(0.26458333)"
         d="m 1811.1758,-4350.2656 c -0.066,0 -0.1325,0.01 -0.1973,0.025 -0.033,0.01 -0.066,0.018 -0.098,0.029 -0.1099,0.038 -0.2124,0.095 -0.3028,0.1679 l -2.207,1.7871 c -0.1562,0.1267 -0.2705,0.2976 -0.3281,0.4903 v 0 c -0.024,0.082 -0.038,0.1666 -0.041,0.252 -0.065,-0.017 -0.1307,-0.028 -0.1973,-0.031 -0.066,0 -0.1332,0 -0.1992,0.01 -0.033,0 -0.065,0.011 -0.098,0.02 -0.065,0.016 -0.1287,0.038 -0.1894,0.066 -0.03,0.014 -0.059,0.03 -0.088,0.047 -0.057,0.034 -0.1109,0.074 -0.1602,0.1191 -0.025,0.022 -0.048,0.046 -0.07,0.07 0,0 -0.01,0.01 -0.01,0.012 l -1.2168,1.4258 c -0.021,0.025 -0.042,0.051 -0.061,0.078 v 0 c -0.057,0.082 -0.1022,0.1723 -0.1328,0.2676 -0.019,0.064 -0.033,0.1291 -0.039,0.1953 -0.01,0.066 -0.01,0.1329 0,0.1992 0.01,0.066 0.02,0.1317 0.039,0.1953 v 0 c 0.025,0.082 0.06,0.1611 0.1055,0.2343 l 13.3691,21.4649 c 0.018,0.028 0.036,0.056 0.057,0.082 v 0 c 0.02,0.026 0.042,0.051 0.064,0.074 0.023,0.025 0.047,0.048 0.072,0.07 0.075,0.066 0.1604,0.1197 0.2519,0.1602 0.03,0.014 0.061,0.026 0.092,0.037 0.032,0.01 0.065,0.019 0.098,0.025 0.032,0.01 0.065,0.013 0.098,0.017 v 0 c 0.065,0.01 0.1302,0.01 0.1953,0 0.042,0 0.084,-0.01 0.125,-0.02 0.026,0 0.051,-0.011 0.076,-0.018 0.031,-0.01 0.062,-0.019 0.092,-0.031 6e-4,-7e-4 0,0 0,0 0,-6e-4 0.01,0 0.01,0 l 2.9824,-1.2403 c 0.031,-0.013 0.061,-0.027 0.09,-0.043 0.06,-0.031 0.1159,-0.069 0.168,-0.1114 0.1216,-0.1 0.218,-0.227 0.2812,-0.3711 l 0.125,-0.2949 0.9981,0.2578 c 0.035,0.01 0.07,0.015 0.1055,0.02 0.099,0.015 0.1998,0.015 0.2988,0 0.03,0 0.06,-0.01 0.09,-0.018 0.055,-0.014 0.1097,-0.032 0.1621,-0.055 l 1.6973,-0.7383 c 0.061,-0.027 0.1193,-0.059 0.1738,-0.098 0.055,-0.038 0.1061,-0.082 0.1524,-0.1309 0.023,-0.024 0.044,-0.048 0.064,-0.074 v 0 c 0.02,-0.026 0.039,-0.052 0.057,-0.08 v 0 c 0.018,-0.028 0.034,-0.056 0.049,-0.086 v 0 c 0.015,-0.029 0.029,-0.059 0.041,-0.09 v 0 c 0.023,-0.062 0.04,-0.1261 0.051,-0.1914 v 0 c 0.01,-0.065 0.014,-0.1313 0.012,-0.1973 v 0 c 0,0 0,-0.01 0,-0.01 -0.01,-0.087 -0.022,-0.173 -0.049,-0.2558 0,-0.01 -0.01,-0.02 -0.01,-0.029 -0.011,-0.031 -0.023,-0.061 -0.037,-0.09 -7e-4,-6e-4 0,0 0,0 -0.021,-0.046 -0.046,-0.091 -0.074,-0.1328 l -15.6797,-23.0235 v 0 c -0.038,-0.054 -0.081,-0.1047 -0.1289,-0.1504 -0.048,-0.047 -0.1002,-0.089 -0.1563,-0.125 -0.1071,-0.069 -0.2265,-0.1165 -0.3515,-0.1406 -0.01,0 -0.012,0 -0.018,0 v 0 c -0.065,-0.011 -0.1312,-0.016 -0.1973,-0.014 v 0 z"
         style="color:#000000;font-style:normal;font-variant:normal;font-weight:normal;font-stretch:normal;font-size:medium;line-height:normal;font-family:sans-serif;font-variant-ligatures:normal;font-variant-position:normal;font-variant-caps:normal;font-variant-numeric:normal;font-variant-alternates:normal;font-feature-settings:normal;text-indent:0;text-align:start;text-decoration:none;text-decoration-line:none;text-decoration-style:solid;text-decoration-color:#000000;letter-spacing:normal;word-spacing:normal;text-transform:none;writing-mode:lr-tb;direction:ltr;text-orientation:mixed;dominant-baseline:auto;baseline-shift:baseline;text-anchor:start;white-space:normal;shape-padding:0;clip-rule:nonzero;display:inline;overflow:visible;visibility:visible;opacity:1;isolation:auto;mix-blend-mode:normal;color-interpolation:sRGB;color-interpolation-filters:linearRGB;solid-color:#000000;solid-opacity:1;vector-effect:none;fill:#972458;fill-opacity:1;fill-rule:nonzero;stroke:none;stroke-width:2.00000024;stroke-linecap:butt;stroke-linejoin:round;stroke-miterlimit:4;stroke-dasharray:none;stroke-dashoffset:0;stroke-opacity:1;paint-order:markers stroke fill;color-rendering:auto;image-rendering:auto;shape-rendering:auto;text-rendering:auto;enable-background:accumulate" />
      <path
         style="opacity:1;fill:#d85c90;fill-opacity:1;stroke:none;stroke-width:0.5291667;stroke-linecap:butt;stroke-linejoin:round;stroke-miterlimit:4;stroke-dasharray:none;stroke-opacity:1;paint-order:markers stroke fill"
         d="m 477.97801,-1149.6489 0.32183,-0.376 0.32216,0.1334 0.009,-0.3793 0.58381,-0.4722 4.14936,6.0906 -0.45018,0.1958 -0.48371,-0.1274 -0.12494,0.2869 -0.78991,0.3276 z"
         id="path8076"
         inkscape:connector-curvature="0"
         sodipodi:nodetypes="ccccccccccc" />
      <path
         inkscape:connector-curvature="0"
         style="opacity:1;fill:#dc68a0;fill-opacity:1;stroke:none;stroke-width:0.60000002;stroke-linecap:butt;stroke-linejoin:round;stroke-miterlimit:4;stroke-dasharray:none;stroke-opacity:1;paint-order:markers stroke fill"
         d="m 479.21468,-1150.7432 -0.58343,0.4723 -0.009,0.3793 -0.32194,-0.1333 -0.32195,0.3762 0.20725,0.3328 0.1147,-0.1338 0.32194,0.1333 0.009,-0.3793 0.58343,-0.4723 3.8473,5.6472 0.30232,-0.1318 z"
         id="path8078" />
      <path
         sodipodi:nodetypes="ccccccccccccc"
         inkscape:connector-curvature="0"
         style="opacity:1;fill:#a44474;fill-opacity:1;stroke:none;stroke-width:0.60000002;stroke-linecap:butt;stroke-linejoin:round;stroke-miterlimit:4;stroke-dasharray:none;stroke-opacity:1;paint-order:markers stroke fill"
         d="m 478.15685,-1149.858 -0.17881,0.2093 3.53727,5.6793 0.79012,-0.3277 0.12485,-0.2869 0.48391,0.1272 0.45011,-0.1958 -0.26046,-0.3824 -0.18965,0.082 -0.48391,-0.1272 -0.12485,0.2863 -0.79012,0.3277 z"
         id="path8080" />
      <path
         inkscape:connector-curvature="0"
         style="opacity:1;fill:#dc68a0;fill-opacity:1;stroke:none;stroke-width:0.60000002;stroke-linecap:butt;stroke-linejoin:round;stroke-miterlimit:4;stroke-dasharray:none;stroke-opacity:1;paint-order:markers stroke fill"
         d="m 484.24176,-1151.9281 -0.33332,0.4263 -0.33123,-0.3426 -0.585,0.1178 0.21757,0.5313 0.36743,-0.074 0.33123,0.3426 0.33332,-0.4264 h 0.90432 l 1.93789,5.8441 0.14986,-0.1224 -2.08775,-6.2968 z"
         id="path8082" />
      <path
         inkscape:connector-curvature="0"
         style="opacity:1;fill:#a44474;fill-opacity:1;stroke:none;stroke-width:0.60000002;stroke-linecap:butt;stroke-linejoin:round;stroke-miterlimit:4;stroke-dasharray:none;stroke-opacity:1;paint-order:markers stroke fill"
         d="m 483.18033,-1151.7643 -0.18812,0.038 2.84737,6.9469 0.6382,-0.4817 0.2558,-0.5999 0.22119,0.4578 0.27906,-0.2278 -0.1292,-0.3902 -0.14986,0.1219 -0.22119,-0.4578 -0.2558,0.5995 -0.6382,0.4816 z"
         id="path8084" />
    </g>
  </g>
</svg>
