<?xml version="1.0" encoding="UTF-8" standalone="no"?>
<!-- Created with Inkscape (http://www.inkscape.org/) -->

<svg
   xmlns:dc="http://purl.org/dc/elements/1.1/"
   xmlns:cc="http://creativecommons.org/ns#"
   xmlns:rdf="http://www.w3.org/1999/02/22-rdf-syntax-ns#"
   xmlns:svg="http://www.w3.org/2000/svg"
   xmlns="http://www.w3.org/2000/svg"
   xmlns:xlink="http://www.w3.org/1999/xlink"
   xmlns:sodipodi="http://sodipodi.sourceforge.net/DTD/sodipodi-0.dtd"
   xmlns:inkscape="http://www.inkscape.org/namespaces/inkscape"
   width="0.44149175mm"
   height="0.44149303mm"
   viewBox="0 0 0.44149175 0.44149303"
   version="1.1"
   id="svg16054"
   inkscape:version="0.92.3 (2405546, 2018-03-11)"
   sodipodi:docname="player_blue.svg">
  <defs
     id="defs16048">
    <radialGradient
       inkscape:collect="always"
       xlink:href="#linearGradient23624"
       id="radialGradient9348"
       gradientUnits="userSpaceOnUse"
       gradientTransform="matrix(3.7794356,4.2394193e-6,-4.084543e-6,3.7795276,-0.15749582,0.00705071)"
       cx="-1665.2294"
       cy="-1051.5808"
       fx="-1665.2294"
       fy="-1051.5808"
       r="4.0912886" />
    <linearGradient
       inkscape:collect="always"
       id="linearGradient23624">
      <stop
         style="stop-color:#0da2ef;stop-opacity:0.30737704"
         offset="0"
         id="stop23620" />
      <stop
         id="stop23626"
         offset="0.80853212"
         style="stop-color:#0da2ef;stop-opacity:1" />
      <stop
         style="stop-color:#0da2ef;stop-opacity:1"
         offset="1"
         id="stop23622" />
    </linearGradient>
  </defs>
  <sodipodi:namedview
     id="base"
     pagecolor="#ffffff"
     bordercolor="#666666"
     borderopacity="1.0"
     inkscape:pageopacity="0.0"
     inkscape:pageshadow="2"
     inkscape:zoom="44.8"
     inkscape:cx="5.5535651"
     inkscape:cy="3.7056054"
     inkscape:document-units="mm"
     inkscape:current-layer="layer1"
     showgrid="false"
     inkscape:window-width="1920"
     inkscape:window-height="1057"
     inkscape:window-x="-8"
     inkscape:window-y="-8"
     inkscape:window-maximized="1"
     inkscape:snap-smooth-nodes="true"
     inkscape:object-paths="true"
     inkscape:snap-midpoints="true" />
  <metadata
     id="metadata16051">
    <rdf:RDF>
      <cc:Work
         rdf:about="">
        <dc:format>image/svg+xml</dc:format>
        <dc:type
           rdf:resource="http://purl.org/dc/dcmitype/StillImage" />
        <dc:title></dc:title>
      </cc:Work>
    </rdf:RDF>
  </metadata>
  <g
     inkscape:label="Layer 1"
     inkscape:groupmode="layer"
     id="layer1"
     transform="translate(-35.097009,-211.07915)">
    <g
       inkscape:export-ydpi="650"
       inkscape:export-xdpi="650"
       inkscape:export-filename="C:\Users\Donatas\Documents\ShareX\Screenshots\2019-01\AssetTest.png"
       style="opacity:0.98000004;filter:url(#filter1957)"
       id="g9312"
       transform="matrix(0.04858621,0,0,0.04858621,116.22495,262.39222)">
      <path
         style="opacity:1;fill:#005682;fill-opacity:0.98039216;fill-rule:nonzero;stroke:none;stroke-width:3.74173212;stroke-linecap:round;stroke-linejoin:round;stroke-miterlimit:4;stroke-dasharray:none;stroke-dashoffset:0;stroke-opacity:1;paint-order:markers stroke fill"
         d="m -6293.7812,-3991.6504 a 17.172047,17.172047 0 0 0 -17.1719,17.1719 17.172047,17.172047 0 0 0 17.1719,17.1719 17.172047,17.172047 0 0 0 17.1718,-17.1719 17.172047,17.172047 0 0 0 -17.1718,-17.1719 z m 0,1.709 a 15.463138,15.463138 0 0 1 15.4628,15.4629 15.463138,15.463138 0 0 1 -15.4628,15.4629 15.463138,15.463138 0 0 1 -15.4629,-15.4629 15.463138,15.463138 0 0 1 15.4629,-15.4629 z m 0,2.9609 a 12.502128,12.502128 0 0 1 1.0683,0.053 12.502128,12.502128 0 0 0 -1.0683,-0.053 z m -1.0684,0.053 a 12.502128,12.502128 0 0 0 -0.6016,0.074 12.502128,12.502128 0 0 1 0.6016,-0.074 z m 2.7598,0.076 a 12.502128,12.502128 0 0 1 0.6015,0.09 12.502128,12.502128 0 0 0 -0.6015,-0.09 z m -4.0079,0.096 a 12.502128,12.502128 0 0 0 -0.5703,0.1289 12.502128,12.502128 0 0 1 0.5703,-0.1289 z m 5.2442,0.1368 a 12.502128,12.502128 0 0 1 0.5918,0.1523 12.502128,12.502128 0 0 0 -0.5918,-0.1523 z m -6.4492,0.1523 a 12.502128,12.502128 0 0 0 -0.5996,0.2012 12.502128,12.502128 0 0 1 0.5996,-0.2012 z m 7.6425,0.2012 a 12.502128,12.502128 0 0 1 0.5645,0.2051 12.502128,12.502128 0 0 0 -0.5645,-0.2051 z m -8.8066,0.2051 a 12.502128,12.502128 0 0 0 -0.5879,0.2617 12.502128,12.502128 0 0 1 0.5879,-0.2617 z m 9.9785,0.2714 a 12.502128,12.502128 0 0 1 0.5235,0.252 12.502128,12.502128 0 0 0 -0.5235,-0.252 z m -11.1269,0.2618 a 12.502128,12.502128 0 0 0 -0.541,0.3105 12.502128,12.502128 0 0 1 0.541,-0.3105 z m 12.2519,0.3359 a 12.502128,12.502128 0 0 1 0.4649,0.2852 12.502128,12.502128 0 0 0 -0.4649,-0.2852 z m -13.3144,0.2949 a 12.502128,12.502128 0 0 0 -0.5274,0.377 12.502128,12.502128 0 0 1 0.5274,-0.377 z m 14.3418,0.3906 a 12.502128,12.502128 0 0 1 0.455,0.3477 12.502128,12.502128 0 0 0 -0.455,-0.3477 z m -15.3457,0.3477 a 12.502128,12.502128 0 0 0 -0.5079,0.4453 12.502128,12.502128 0 0 1 0.5079,-0.4453 z m 16.2871,0.4258 a 12.502128,12.502128 0 0 1 0.4492,0.4179 12.502128,12.502128 0 0 0 -0.4492,-0.4179 z m -17.209,0.4062 a 12.502128,12.502128 0 0 0 -0.4434,0.4746 12.502128,12.502128 0 0 1 0.4434,-0.4746 z m 18.0762,0.461 a 12.502128,12.502128 0 0 1 0.4238,0.4843 12.502128,12.502128 0 0 0 -0.4238,-0.4843 z m -18.9317,0.4843 a 12.502128,12.502128 0 0 0 -0.3633,0.4786 12.502128,12.502128 0 0 1 0.3633,-0.4786 z m 19.7402,0.5059 a 12.502128,12.502128 0 0 1 0.3379,0.4727 12.502128,12.502128 0 0 0 -0.3379,-0.4727 z m -20.4804,0.5 a 12.502128,12.502128 0 0 0 -0.3203,0.5215 12.502128,12.502128 0 0 1 0.3203,-0.5215 z m 21.1914,0.582 a 12.502128,12.502128 0 0 1 0.2676,0.4649 12.502128,12.502128 0 0 0 -0.2676,-0.4649 z m -21.8223,0.4805 a 12.502128,12.502128 0 0 0 -0.2715,0.5605 12.502128,12.502128 0 0 1 0.2715,-0.5605 z m 22.3789,0.584 a 12.502128,12.502128 0 0 1 0.2481,0.5547 12.502128,12.502128 0 0 0 -0.2481,-0.5547 z m -22.9121,0.5644 a 12.502128,12.502128 0 0 0 -0.2051,0.5645 12.502128,12.502128 0 0 1 0.2051,-0.5645 z m 23.375,0.5762 a 12.502128,12.502128 0 0 1 0.1934,0.5859 12.502128,12.502128 0 0 0 -0.1934,-0.5859 z m -23.7812,0.5879 a 12.502128,12.502128 0 0 0 -0.1602,0.6348 12.502128,12.502128 0 0 1 0.1602,-0.6348 z m 24.1367,0.6348 a 12.502128,12.502128 0 0 1 0.1289,0.5703 12.502128,12.502128 0 0 0 -0.1289,-0.5703 z m -24.4258,0.5703 a 12.502128,12.502128 0 0 0 -0.098,0.6465 12.502128,12.502128 0 0 1 0.098,-0.6465 z m 24.6524,0.6465 a 12.502128,12.502128 0 0 1 0.074,0.6015 12.502128,12.502128 0 0 0 -0.074,-0.6015 z m -24.8243,0.6015 a 12.502128,12.502128 0 0 0 -0.053,1.0684 12.502128,12.502128 0 0 1 0.053,-1.0684 z m 24.9512,1.0684 a 12.502128,12.502128 0 0 1 -0.053,1.0683 12.502128,12.502128 0 0 0 0.053,-1.0683 z m -24.9512,1.0683 a 12.502128,12.502128 0 0 0 0.074,0.6016 12.502128,12.502128 0 0 1 -0.074,-0.6016 z m 24.8223,0.6231 a 12.502128,12.502128 0 0 1 -0.09,0.6016 12.502128,12.502128 0 0 0 0.09,-0.6016 z m -24.6504,0.625 a 12.502128,12.502128 0 0 0 0.1289,0.5703 12.502128,12.502128 0 0 1 -0.1289,-0.5703 z m 24.418,0.6113 a 12.502128,12.502128 0 0 1 -0.1524,0.5918 12.502128,12.502128 0 0 0 0.1524,-0.5918 z m -24.1289,0.5938 a 12.502128,12.502128 0 0 0 0.2011,0.5996 12.502128,12.502128 0 0 1 -0.2011,-0.5996 z m 23.7754,0.5996 a 12.502128,12.502128 0 0 1 -0.2051,0.5644 12.502128,12.502128 0 0 0 0.2051,-0.5644 z m -23.3711,0.5605 a 12.502128,12.502128 0 0 0 0.2812,0.6289 12.502128,12.502128 0 0 1 -0.2812,-0.6289 z m 22.8945,0.6114 a 12.502128,12.502128 0 0 1 -0.252,0.5234 12.502128,12.502128 0 0 0 0.252,-0.5234 z m -22.3672,0.5214 a 12.502128,12.502128 0 0 0 0.3301,0.5762 12.502128,12.502128 0 0 1 -0.3301,-0.5762 z m 21.7754,0.5918 a 12.502128,12.502128 0 0 1 -0.2988,0.4883 12.502128,12.502128 0 0 0 0.2988,-0.4883 z m -21.1367,0.4903 a 12.502128,12.502128 0 0 0 0.3769,0.5273 12.502128,12.502128 0 0 1 -0.3769,-0.5273 z m 20.459,0.5273 a 12.502128,12.502128 0 0 1 -0.3633,0.4785 12.502128,12.502128 0 0 0 0.3633,-0.4785 z m -19.7188,0.4785 a 12.502128,12.502128 0 0 0 0.4121,0.4707 12.502128,12.502128 0 0 1 -0.4121,-0.4707 z m 18.9317,0.4844 a 12.502128,12.502128 0 0 1 -0.418,0.4492 12.502128,12.502128 0 0 0 0.418,-0.4492 z m -18.0782,0.459 a 12.502128,12.502128 0 0 0 0.4395,0.4082 12.502128,12.502128 0 0 1 -0.4395,-0.4082 z m 17.211,0.4082 a 12.502128,12.502128 0 0 1 -0.4844,0.4238 12.502128,12.502128 0 0 0 0.4844,-0.4238 z m -16.2989,0.416 a 12.502128,12.502128 0 0 0 0.5,0.3789 12.502128,12.502128 0 0 1 -0.5,-0.3789 z m 15.3262,0.3789 a 12.502128,12.502128 0 0 1 -0.5058,0.3613 12.502128,12.502128 0 0 0 0.5058,-0.3613 z m -14.3105,0.3692 a 12.502128,12.502128 0 0 0 0.5215,0.3203 12.502128,12.502128 0 0 1 -0.5215,-0.3203 z m 13.2422,0.3378 a 12.502128,12.502128 0 0 1 -0.5,0.2872 12.502128,12.502128 0 0 0 0.5,-0.2872 z m -12.1817,0.2911 a 12.502128,12.502128 0 0 0 0.5781,0.2793 12.502128,12.502128 0 0 1 -0.5781,-0.2793 z m 11.086,0.2832 a 12.502128,12.502128 0 0 1 -0.5547,0.248 12.502128,12.502128 0 0 0 0.5547,-0.248 z m -9.9434,0.248 a 12.502128,12.502128 0 0 0 0.5937,0.2168 12.502128,12.502128 0 0 1 -0.5937,-0.2168 z m 8.7949,0.2168 a 12.502128,12.502128 0 0 1 -0.5703,0.1895 12.502128,12.502128 0 0 0 0.5703,-0.1895 z m -7.6308,0.1895 a 12.502128,12.502128 0 0 0 0.6582,0.1679 12.502128,12.502128 0 0 1 -0.6582,-0.1679 z m 6.4082,0.1679 a 12.502128,12.502128 0 0 1 -0.5625,0.125 12.502128,12.502128 0 0 0 0.5625,-0.125 z m -5.1973,0.125 a 12.502128,12.502128 0 0 0 0.6523,0.1 12.502128,12.502128 0 0 1 -0.6523,-0.1 z m 3.9883,0.098 a 12.502128,12.502128 0 0 1 -0.6016,0.074 12.502128,12.502128 0 0 0 0.6016,-0.074 z m -2.7383,0.074 a 12.502128,12.502128 0 0 0 1.0684,0.053 12.502128,12.502128 0 0 1 -1.0684,-0.053 z"
         id="path9304"
         transform="scale(0.26458333)"
         inkscape:connector-curvature="0" />
      <path
         style="opacity:1;fill:url(#radialGradient9348);fill-opacity:1;fill-rule:nonzero;stroke:none;stroke-width:3.74173212;stroke-linecap:round;stroke-linejoin:round;stroke-miterlimit:4;stroke-dasharray:none;stroke-dashoffset:0;stroke-opacity:1;paint-order:markers stroke fill"
         d="m -6293.7812,-3989.9414 a 15.463138,15.463138 0 0 0 -15.4629,15.4629 15.463138,15.463138 0 0 0 15.4629,15.4629 15.463138,15.463138 0 0 0 15.4628,-15.4629 15.463138,15.463138 0 0 0 -15.4628,-15.4629 z m 0,2.9609 a 12.502128,12.502128 0 0 1 12.5019,12.502 12.502128,12.502128 0 0 1 -12.5019,12.5019 12.502128,12.502128 0 0 1 -12.502,-12.5019 12.502128,12.502128 0 0 1 12.502,-12.502 z"
         id="path9306"
         transform="scale(0.26458333)"
         inkscape:connector-curvature="0" />
      <circle
         style="opacity:1;fill:#0da2ef;fill-opacity:0.5098038;fill-rule:nonzero;stroke:none;stroke-width:0.98999995;stroke-linecap:round;stroke-linejoin:round;stroke-miterlimit:4;stroke-dasharray:none;stroke-dashoffset:0;stroke-opacity:1;paint-order:markers stroke fill"
         id="circle9308"
         cx="-1665.2295"
         cy="-1051.5808"
         r="3.3078547" />
      <rect
         ry="0"
         y="-1054.3036"
         x="-1667.9524"
         height="5.4456277"
         width="5.4456277"
         id="rect9310"
         style="opacity:0.18999999;fill:none;fill-opacity:1;fill-rule:nonzero;stroke:none;stroke-width:3.33504486;stroke-linecap:round;stroke-linejoin:round;stroke-miterlimit:4;stroke-dasharray:none;stroke-dashoffset:0;stroke-opacity:1;paint-order:markers stroke fill;filter:url(#filter1957)" />
    </g>
  </g>
</svg>
