<?xml version="1.0" encoding="UTF-8" standalone="no"?>
<!-- Created with Inkscape (http://www.inkscape.org/) -->

<svg
   xmlns:dc="http://purl.org/dc/elements/1.1/"
   xmlns:cc="http://creativecommons.org/ns#"
   xmlns:rdf="http://www.w3.org/1999/02/22-rdf-syntax-ns#"
   xmlns:svg="http://www.w3.org/2000/svg"
   xmlns="http://www.w3.org/2000/svg"
   xmlns:sodipodi="http://sodipodi.sourceforge.net/DTD/sodipodi-0.dtd"
   xmlns:inkscape="http://www.inkscape.org/namespaces/inkscape"
   width="1.523955mm"
   height="1.5239588mm"
   viewBox="0 0 1.523955 1.5239588"
   version="1.1"
   id="svg28708"
   inkscape:version="0.92.3 (2405546, 2018-03-11)"
   sodipodi:docname="player_boss.svg">
  <defs
     id="defs28702" />
  <sodipodi:namedview
     id="base"
     pagecolor="#ffffff"
     bordercolor="#666666"
     borderopacity="1.0"
     inkscape:pageopacity="0.0"
     inkscape:pageshadow="2"
     inkscape:zoom="64"
     inkscape:cx="8.6133811"
     inkscape:cy="4.1392095"
     inkscape:document-units="mm"
     inkscape:current-layer="layer1"
     showgrid="false"
     inkscape:snap-midpoints="true"
     inkscape:snap-smooth-nodes="true"
     inkscape:snap-intersection-paths="false"
     inkscape:object-paths="true"
     inkscape:window-width="1920"
     inkscape:window-height="1057"
     inkscape:window-x="-8"
     inkscape:window-y="-8"
     inkscape:window-maximized="1" />
  <metadata
     id="metadata28705">
    <rdf:RDF>
      <cc:Work
         rdf:about="">
        <dc:format>image/svg+xml</dc:format>
        <dc:type
           rdf:resource="http://purl.org/dc/dcmitype/StillImage" />
        <dc:title></dc:title>
      </cc:Work>
    </rdf:RDF>
  </metadata>
  <g
     inkscape:label="Layer 1"
     inkscape:groupmode="layer"
     id="layer1"
     transform="translate(72.298553,-75.874168)">
    <g
       transform="matrix(0.144667,0,0,0.144667,-15.821317,320.48829)"
       id="g28672">
      <g
         inkscape:export-ydpi="650"
         inkscape:export-xdpi="650"
         inkscape:export-filename="C:\Users\Donatas\Documents\ShareX\Screenshots\2019-01\AssetTest.png"
         transform="matrix(1.1593314,0,0,1.1593314,1545.4253,-466.47942)"
         id="g28642"
         style="opacity:1;filter:url(#filter1957)">
        <path
           inkscape:connector-curvature="0"
           style="opacity:1;fill:#b01a1d;fill-opacity:1;fill-rule:nonzero;stroke:none;stroke-width:4.33790731;stroke-linecap:round;stroke-linejoin:round;stroke-miterlimit:4;stroke-dasharray:none;stroke-dashoffset:0;stroke-opacity:1;paint-order:markers stroke fill"
           d="m -1455.5996,-6386.7168 a 19.908093,19.908093 0 0 0 -19.9082,19.9082 19.908093,19.908093 0 0 0 19.9082,19.9063 19.908093,19.908093 0 0 0 19.9062,-19.9063 19.908093,19.908093 0 0 0 -19.9062,-19.9082 z m 0,1.582 a 18.324656,18.324656 0 0 1 18.3262,18.3243 18.324656,18.324656 0 0 1 -18.3262,18.3261 18.324656,18.324656 0 0 1 -18.3242,-18.3261 18.324656,18.324656 0 0 1 18.3242,-18.3243 z m 0,3.8321 a 14.494109,14.494109 0 0 1 1.2383,0.061 14.494109,14.494109 0 0 0 -1.2383,-0.061 z m -1.2402,0.061 a 14.494109,14.494109 0 0 0 -0.6973,0.086 14.494109,14.494109 0 0 1 0.6973,-0.086 z m 3.1992,0.088 a 14.494109,14.494109 0 0 1 0.6992,0.1055 14.494109,14.494109 0 0 0 -0.6992,-0.1055 z m -4.6465,0.1113 a 14.494109,14.494109 0 0 0 -0.6602,0.1504 14.494109,14.494109 0 0 1 0.6602,-0.1504 z m 6.0801,0.1582 a 14.494109,14.494109 0 0 1 0.6875,0.1778 14.494109,14.494109 0 0 0 -0.6875,-0.1778 z m -7.4766,0.1778 a 14.494109,14.494109 0 0 0 -0.6953,0.2324 14.494109,14.494109 0 0 1 0.6953,-0.2324 z m 8.8613,0.2324 a 14.494109,14.494109 0 0 1 0.6543,0.2383 14.494109,14.494109 0 0 0 -0.6543,-0.2383 z m -10.2109,0.2383 a 14.494109,14.494109 0 0 0 -0.6816,0.3027 14.494109,14.494109 0 0 1 0.6816,-0.3027 z m 11.5684,0.3144 a 14.494109,14.494109 0 0 1 0.6074,0.293 14.494109,14.494109 0 0 0 -0.6074,-0.293 z m -12.8985,0.3028 a 14.494109,14.494109 0 0 0 -0.6289,0.3613 14.494109,14.494109 0 0 1 0.6289,-0.3613 z m 14.2031,0.3906 a 14.494109,14.494109 0 0 1 0.5391,0.3301 14.494109,14.494109 0 0 0 -0.5391,-0.3301 z m -15.4355,0.3418 a 14.494109,14.494109 0 0 0 -0.6113,0.4375 14.494109,14.494109 0 0 1 0.6113,-0.4375 z m 16.6269,0.4531 a 14.494109,14.494109 0 0 1 0.5274,0.4024 14.494109,14.494109 0 0 0 -0.5274,-0.4024 z m -17.791,0.4024 a 14.494109,14.494109 0 0 0 -0.5879,0.5156 14.494109,14.494109 0 0 1 0.5879,-0.5156 z m -1.0683,0.9648 a 14.494109,14.494109 0 0 0 -0.5137,0.5508 14.494109,14.494109 0 0 1 0.5137,-0.5508 z m -0.9922,1.0957 a 14.494109,14.494109 0 0 0 -0.4219,0.5547 14.494109,14.494109 0 0 1 0.4219,-0.5547 z m 22.8848,0.5859 a 14.494109,14.494109 0 0 1 0.3925,0.5489 14.494109,14.494109 0 0 0 -0.3925,-0.5489 z m -23.7422,0.5801 a 14.494109,14.494109 0 0 0 -0.3731,0.6055 14.494109,14.494109 0 0 1 0.3731,-0.6055 z m 24.5664,0.6758 a 14.494109,14.494109 0 0 1 0.3105,0.5391 14.494109,14.494109 0 0 0 -0.3105,-0.5391 z m -25.2989,0.5566 a 14.494109,14.494109 0 0 0 -0.3144,0.6504 14.494109,14.494109 0 0 1 0.3144,-0.6504 z m 25.9454,0.6758 a 14.494109,14.494109 0 0 1 0.2871,0.6445 14.494109,14.494109 0 0 0 -0.2871,-0.6445 z m -26.5625,0.6563 a 14.494109,14.494109 0 0 0 -0.2383,0.6543 14.494109,14.494109 0 0 1 0.2383,-0.6543 z m 27.0996,0.6679 a 14.494109,14.494109 0 0 1 0.2226,0.6778 14.494109,14.494109 0 0 0 -0.2226,-0.6778 z m -27.5703,0.6797 a 14.494109,14.494109 0 0 0 -0.1875,0.7364 14.494109,14.494109 0 0 1 0.1875,-0.7364 z m 27.9824,0.7364 a 14.494109,14.494109 0 0 1 0.1484,0.6621 14.494109,14.494109 0 0 0 -0.1484,-0.6621 z m -28.3184,0.6621 a 14.494109,14.494109 0 0 0 -0.1133,0.75 14.494109,14.494109 0 0 1 0.1133,-0.75 z m 28.5801,0.75 a 14.494109,14.494109 0 0 1 0.086,0.6972 14.494109,14.494109 0 0 0 -0.086,-0.6972 z m -28.7793,0.6972 a 14.494109,14.494109 0 0 0 -0.062,1.2383 14.494109,14.494109 0 0 1 0.062,-1.2383 z m 28.9258,1.2383 a 14.494109,14.494109 0 0 1 -0.061,1.2383 14.494109,14.494109 0 0 0 0.061,-1.2383 z m -28.9258,1.2383 a 14.494109,14.494109 0 0 0 0.086,0.6973 14.494109,14.494109 0 0 1 -0.086,-0.6973 z m 28.7773,0.7226 a 14.494109,14.494109 0 0 1 -0.1054,0.6973 14.494109,14.494109 0 0 0 0.1054,-0.6973 z m -28.5781,0.7247 a 14.494109,14.494109 0 0 0 0.1485,0.6601 14.494109,14.494109 0 0 1 -0.1485,-0.6601 z m 28.3086,0.7089 a 14.494109,14.494109 0 0 1 -0.1777,0.6856 14.494109,14.494109 0 0 0 0.1777,-0.6856 z m -27.9726,0.6875 a 14.494109,14.494109 0 0 0 0.2324,0.6954 14.494109,14.494109 0 0 1 -0.2324,-0.6954 z m 27.5625,0.6954 a 14.494109,14.494109 0 0 1 -0.2383,0.6542 14.494109,14.494109 0 0 0 0.2383,-0.6542 z m -27.0938,0.6503 a 14.494109,14.494109 0 0 0 0.3242,0.7286 14.494109,14.494109 0 0 1 -0.3242,-0.7286 z m 0.6094,1.3125 a 14.494109,14.494109 0 0 0 0.3828,0.668 14.494109,14.494109 0 0 1 -0.3828,-0.668 z m 25.2461,0.6856 a 14.494109,14.494109 0 0 1 -0.3457,0.5664 14.494109,14.494109 0 0 0 0.3457,-0.5664 z m -24.5039,0.5683 a 14.494109,14.494109 0 0 0 0.4355,0.6114 14.494109,14.494109 0 0 1 -0.4355,-0.6114 z m 23.7187,0.6114 a 14.494109,14.494109 0 0 1 -0.4219,0.5547 14.494109,14.494109 0 0 0 0.4219,-0.5547 z m -22.8613,0.5547 a 14.494109,14.494109 0 0 0 0.4785,0.5468 14.494109,14.494109 0 0 1 -0.4785,-0.5468 z m 21.9473,0.5625 a 14.494109,14.494109 0 0 1 -0.4844,0.5214 14.494109,14.494109 0 0 0 0.4844,-0.5214 z m -20.9571,0.5312 a 14.494109,14.494109 0 0 0 0.5078,0.4746 14.494109,14.494109 0 0 1 -0.5078,-0.4746 z m 19.9531,0.4746 a 14.494109,14.494109 0 0 1 -0.5625,0.4903 14.494109,14.494109 0 0 0 0.5625,-0.4903 z m -18.8964,0.4824 a 14.494109,14.494109 0 0 0 0.58,0.4395 14.494109,14.494109 0 0 1 -0.58,-0.4395 z m 17.7675,0.4395 a 14.494109,14.494109 0 0 1 -0.5859,0.418 14.494109,14.494109 0 0 0 0.5859,-0.418 z m -16.5898,0.4277 a 14.494109,14.494109 0 0 0 0.6035,0.3711 14.494109,14.494109 0 0 1 -0.6035,-0.3711 z m 15.3516,0.3907 a 14.494109,14.494109 0 0 1 -0.5801,0.3339 14.494109,14.494109 0 0 0 0.5801,-0.3339 z m -14.1231,0.3378 a 14.494109,14.494109 0 0 0 0.6719,0.3243 14.494109,14.494109 0 0 1 -0.6719,-0.3243 z m 12.8535,0.3282 a 14.494109,14.494109 0 0 1 -0.6425,0.2871 14.494109,14.494109 0 0 0 0.6425,-0.2871 z m -11.5273,0.2871 a 14.494109,14.494109 0 0 0 0.6875,0.2519 14.494109,14.494109 0 0 1 -0.6875,-0.2519 z m 10.1953,0.2519 a 14.494109,14.494109 0 0 1 -0.6602,0.2188 14.494109,14.494109 0 0 0 0.6602,-0.2188 z m -8.8457,0.2188 a 14.494109,14.494109 0 0 0 0.7617,0.1953 14.494109,14.494109 0 0 1 -0.7617,-0.1953 z m 7.4277,0.1953 a 14.494109,14.494109 0 0 1 -0.6523,0.1445 14.494109,14.494109 0 0 0 0.6523,-0.1445 z m -6.0254,0.1445 a 14.494109,14.494109 0 0 0 0.7579,0.1172 14.494109,14.494109 0 0 1 -0.7579,-0.1172 z m 1.4493,0.1992 a 14.494109,14.494109 0 0 0 1.2402,0.062 14.494109,14.494109 0 0 1 -1.2402,-0.062 z"
           transform="matrix(0.22822062,0,0,0.22822062,-1333.0315,401.45647)"
           id="path28634" />
        <path
           inkscape:connector-curvature="0"
           style="opacity:1;fill:#e55154;fill-opacity:1;fill-rule:nonzero;stroke:none;stroke-width:4.43435001;stroke-linecap:round;stroke-linejoin:round;stroke-miterlimit:4;stroke-dasharray:none;stroke-dashoffset:0;stroke-opacity:1;paint-order:markers stroke fill"
           d="m -1455.6016,-6385.1348 a 18.32546,18.32546 0 0 0 -18.3242,18.3243 18.32546,18.32546 0 0 0 18.3242,18.3261 18.32546,18.32546 0 0 0 18.3262,-18.3261 18.32546,18.32546 0 0 0 -18.3262,-18.3243 z m 0,1.9297 a 16.394459,16.394459 0 0 1 16.3945,16.3946 16.394459,16.394459 0 0 1 -16.3945,16.3945 16.394459,16.394459 0 0 1 -16.3945,-16.3945 16.394459,16.394459 0 0 1 16.3945,-16.3946 z"
           transform="matrix(0.22822062,0,0,0.22822062,-1333.0315,401.45647)"
           id="path28636" />
        <circle
           r="3.7415535"
           cy="-1051.5808"
           cx="-1665.2295"
           id="circle28638"
           style="opacity:1;fill:#e55254;fill-opacity:0.63934428;fill-rule:nonzero;stroke:none;stroke-width:1.11980069;stroke-linecap:round;stroke-linejoin:round;stroke-miterlimit:4;stroke-dasharray:none;stroke-dashoffset:0;stroke-opacity:1;paint-order:markers stroke fill" />
        <rect
           style="opacity:1;fill:none;fill-opacity:1;fill-rule:nonzero;stroke:none;stroke-width:3.33504486;stroke-linecap:round;stroke-linejoin:round;stroke-miterlimit:4;stroke-dasharray:none;stroke-dashoffset:0;stroke-opacity:1;paint-order:markers stroke fill;filter:url(#filter1957)"
           id="rect28640"
           width="5.4456277"
           height="5.4456277"
           x="-1667.9524"
           y="-1054.3036"
           ry="0" />
      </g>
      <g
         id="g28668"
         transform="matrix(0.71920157,0,0,0.71920157,-115.7834,-474.59192)"
         style="opacity:1">
        <path
           id="path28644"
           transform="scale(0.26458333)"
           d="m -1415.7324,-6377.5605 v 0.01 a 1.3501912,1.3501912 0 0 0 -0.1582,0 c -0.3776,0 -0.755,-2e-4 -1.1309,0.053 -0.847,0.087 -1.6829,0.2569 -2.4961,0.5079 -2.4547,0.7593 -4.6231,2.2413 -6.2207,4.2539 a 1.3501912,1.3501912 0 0 0 -0.092,0.1289 c -0.2283,0.2948 -0.4485,0.5949 -0.6504,0.9082 a 1.3501912,1.3501912 0 0 0 -0.1269,0.25 c -0.3952,0.6455 -0.7545,1.3123 -1.0293,2.0176 a 1.3501912,1.3501912 0 0 0 -0.045,0.1308 c -0.1331,0.3553 -0.2562,0.7138 -0.3575,1.0781 a 1.3501912,1.3501912 0 0 0 -0.045,0.2579 c -0.1878,0.737 -0.333,1.4852 -0.3867,2.2441 a 1.3501912,1.3501912 0 0 0 0,0.096 c -0.019,0.2684 -0.031,0.5363 -0.031,0.8047 0,0.4256 0.026,0.8505 0.07,1.2734 v 0 c 0.03,0.3061 0.082,0.6133 0.1367,0.9179 a 1.3501912,1.3501912 0 0 0 0.024,0.1973 l 2.2324,11.6992 a 1.3501912,1.3501912 0 0 0 1.5801,1.0723 l 22.4082,-4.2754 a 1.3501912,1.3501912 0 0 0 1.0722,-1.5801 l -0.8086,-4.2343 c 0.2952,-0.9052 0.5345,-1.8328 0.5371,-2.7872 0,-1.7933 -0.6655,-3.4566 -1.6386,-4.9375 l 1.4551,-1.0937 a 1.3501912,1.3501912 0 0 0 0.3007,-1.8457 l -3.1269,-4.5352 a 1.3501912,1.3501912 0 0 0 -2.0645,-0.1933 l -0.9707,0.9687 c -0.5903,-0.5325 -1.1433,-1.1127 -1.8242,-1.5273 v 0 c -0.3534,-0.2155 -0.7172,-0.4115 -1.0898,-0.5918 h -0.012 a 1.3501912,1.3501912 0 0 0 -0.045,-0.039 h -0.029 c 0,0 -0.01,0 -0.012,0 -0.01,0 -0.016,0 -0.027,0 -0.3402,-0.1587 -0.6863,-0.3063 -1.0391,-0.4355 -0.046,0 -0.093,-0.038 -0.1387,-0.049 v 0 c -0.3387,-0.1209 -0.6819,-0.2257 -1.0293,-0.3164 a 1.3501912,1.3501912 0 0 0 -0.01,0 c -0.085,-0.038 -0.172,-0.042 -0.2578,-0.061 h -0.016 c -0.3084,-0.075 -0.6207,-0.1364 -0.9336,-0.1855 a 1.3501912,1.3501912 0 0 0 -0.012,0 c -0.1214,0 -0.2432,-0.038 -0.3653,-0.053 h -0.019 c -0.2808,-0.038 -0.5629,-0.069 -0.8457,-0.088 v 0 c -0.243,0 -0.4869,-0.037 -0.7304,-0.037 z"
           style="color:#000000;font-style:normal;font-variant:normal;font-weight:normal;font-stretch:normal;font-size:medium;line-height:normal;font-family:sans-serif;font-variant-ligatures:normal;font-variant-position:normal;font-variant-caps:normal;font-variant-numeric:normal;font-variant-alternates:normal;font-feature-settings:normal;text-indent:0;text-align:start;text-decoration:none;text-decoration-line:none;text-decoration-style:solid;text-decoration-color:#000000;letter-spacing:normal;word-spacing:normal;text-transform:none;writing-mode:lr-tb;direction:ltr;text-orientation:mixed;dominant-baseline:auto;baseline-shift:baseline;text-anchor:start;white-space:normal;shape-padding:0;clip-rule:nonzero;display:inline;overflow:visible;visibility:visible;opacity:1;isolation:auto;mix-blend-mode:normal;color-interpolation:sRGB;color-interpolation-filters:linearRGB;solid-color:#000000;solid-opacity:1;vector-effect:none;fill:#ffffff;fill-opacity:1;fill-rule:nonzero;stroke:none;stroke-width:2.70011234;stroke-linecap:round;stroke-linejoin:round;stroke-miterlimit:4;stroke-dasharray:none;stroke-dashoffset:0;stroke-opacity:1;paint-order:markers stroke fill;color-rendering:auto;image-rendering:auto;shape-rendering:auto;text-rendering:auto;enable-background:accumulate"
           inkscape:connector-curvature="0" />
        <path
           id="path28646"
           transform="scale(0.26458333)"
           d="m -1403.6699,-6384.043 -2.7637,6.7813 2.4844,1.5625 4.4375,-5.9434 z m -12.0625,6.4825 v 0.01 a 1.3501912,1.3501912 0 0 0 -0.1582,0 c -0.3776,0 -0.755,-2e-4 -1.1309,0.053 -0.847,0.087 -1.6829,0.2569 -2.4961,0.5079 -2.4547,0.7593 -4.6231,2.2413 -6.2207,4.2539 a 1.3501912,1.3501912 0 0 0 -0.092,0.1289 c -0.2283,0.2948 -0.4485,0.5949 -0.6504,0.9082 a 1.3501912,1.3501912 0 0 0 -0.1269,0.25 c -0.3952,0.6455 -0.7545,1.3123 -1.0293,2.0176 a 1.3501912,1.3501912 0 0 0 -0.045,0.1308 c -0.1331,0.3553 -0.2562,0.7139 -0.3575,1.0781 a 1.3501912,1.3501912 0 0 0 -0.045,0.2579 c -0.1878,0.737 -0.333,1.4852 -0.3867,2.2441 a 1.3501912,1.3501912 0 0 0 0,0.096 c -0.019,0.2684 -0.031,0.5363 -0.031,0.8047 0,0.4256 0.026,0.8505 0.07,1.2734 v 0 c 0.03,0.3061 0.082,0.6133 0.1367,0.9179 a 1.3501912,1.3501912 0 0 0 0.024,0.1973 l 2.2324,11.6992 a 1.3501912,1.3501912 0 0 0 1.5801,1.0723 l 22.4082,-4.2754 a 1.3501912,1.3501912 0 0 0 1.0722,-1.5801 l -0.8086,-4.2343 c 0.2952,-0.9052 0.5345,-1.8328 0.5371,-2.7872 0,-1.7933 -0.6655,-3.4566 -1.6386,-4.9375 l 1.4551,-1.0937 a 1.3501912,1.3501912 0 0 0 0.3007,-1.8457 l -3.1269,-4.5352 a 1.3501912,1.3501912 0 0 0 -2.0645,-0.1933 l -0.9707,0.9687 c -0.5903,-0.5325 -1.1433,-1.1127 -1.8242,-1.5273 v 0 c -0.3534,-0.2155 -0.7172,-0.4115 -1.0898,-0.5918 h -0.012 a 1.3501912,1.3501912 0 0 0 -0.045,-0.039 h -0.029 c 0,0 -0.01,0 -0.012,0 -0.01,0 -0.016,0 -0.027,0 -0.3402,-0.1587 -0.6863,-0.3063 -1.0391,-0.4355 -0.046,0 -0.093,-0.038 -0.1387,-0.049 v 0 c -0.3387,-0.1209 -0.6819,-0.2257 -1.0293,-0.3164 a 1.3501912,1.3501912 0 0 0 -0.01,0 c -0.085,-0.038 -0.172,-0.042 -0.2578,-0.061 h -0.016 c -0.3084,-0.075 -0.6207,-0.1364 -0.9336,-0.1855 a 1.3501912,1.3501912 0 0 0 -0.012,0 c -0.1214,0 -0.2432,-0.038 -0.3653,-0.053 h -0.019 c -0.2808,-0.038 -0.5629,-0.069 -0.8457,-0.088 v 0 c -0.243,0 -0.4869,-0.037 -0.7304,-0.037 z m 18.0351,0.4101 -4.5488,2.6504 0.8359,2.0391 5.2188,-1.3125 z"
           style="color:#000000;font-style:normal;font-variant:normal;font-weight:normal;font-stretch:normal;font-size:medium;line-height:normal;font-family:sans-serif;font-variant-ligatures:normal;font-variant-position:normal;font-variant-caps:normal;font-variant-numeric:normal;font-variant-alternates:normal;font-feature-settings:normal;text-indent:0;text-align:start;text-decoration:none;text-decoration-line:none;text-decoration-style:solid;text-decoration-color:#000000;letter-spacing:normal;word-spacing:normal;text-transform:none;writing-mode:lr-tb;direction:ltr;text-orientation:mixed;dominant-baseline:auto;baseline-shift:baseline;text-anchor:start;white-space:normal;shape-padding:0;clip-rule:nonzero;display:inline;overflow:visible;visibility:visible;opacity:1;isolation:auto;mix-blend-mode:normal;color-interpolation:sRGB;color-interpolation-filters:linearRGB;solid-color:#000000;solid-opacity:1;vector-effect:none;fill:#ffffff;fill-opacity:1;fill-rule:nonzero;stroke:#a60c10;stroke-width:2.70011234;stroke-linecap:round;stroke-linejoin:round;stroke-miterlimit:4;stroke-dasharray:none;stroke-dashoffset:0;stroke-opacity:1;paint-order:markers stroke fill;color-rendering:auto;image-rendering:auto;shape-rendering:auto;text-rendering:auto;enable-background:accumulate"
           inkscape:connector-curvature="0" />
        <path
           id="path28648"
           transform="scale(0.26458333)"
           d="m -1415.7422,-6376.2051 v 0 a 11.405574,11.405574 0 0 0 -1.1387,0.057 11.405574,11.405574 0 0 0 -2.2324,0.4531 11.405574,11.405574 0 0 0 -5.5625,3.8047 11.405574,11.405574 0 0 0 -0.6641,0.9258 11.405574,11.405574 0 0 0 -1.0332,2.0274 11.405574,11.405574 0 0 0 -0.3594,1.0801 11.405574,11.405574 0 0 0 -0.3867,2.2422 11.405574,11.405574 0 0 0 -0.029,0.8066 11.405574,11.405574 0 0 0 0.062,1.1387 11.405574,11.405574 0 0 0 0.1484,0.998 h -0.01 l 2.2325,11.6993 22.4082,-4.2754 -0.8457,-4.4239 a 7.7962506,7.7962506 0 0 0 0.5507,-2.8554 7.7962506,7.7962506 0 0 0 -2.0742,-5.2891 l 2.4297,-1.8242 -3.1269,-4.5352 -1.834,1.8262 a 11.405574,11.405574 0 0 0 -2.6153,-2.1894 11.405574,11.405574 0 0 0 -0.9882,-0.5391 11.405574,11.405574 0 0 0 -0.012,-0.01 11.405574,11.405574 0 0 0 -0.023,-0.01 11.405574,11.405574 0 0 0 -0.9883,-0.416 11.405574,11.405574 0 0 0 -0.125,-0.045 11.405574,11.405574 0 0 0 -0.9219,-0.2832 11.405574,11.405574 0 0 0 -0.2421,-0.059 11.405574,11.405574 0 0 0 -0.8458,-0.1699 11.405574,11.405574 0 0 0 -0.3437,-0.047 11.405574,11.405574 0 0 0 -0.7754,-0.078 11.405574,11.405574 0 0 0 -0.6543,-0.025 z"
           style="opacity:1;fill:#ffffff;fill-opacity:1;fill-rule:nonzero;stroke:#ffffff;stroke-width:2.70011234;stroke-linecap:round;stroke-linejoin:round;stroke-miterlimit:4;stroke-dasharray:none;stroke-dashoffset:0;stroke-opacity:1;paint-order:markers stroke fill"
           inkscape:connector-curvature="0" />
        <circle
           r="2.0627582"
           cy="-1683.4149"
           cx="-373.168"
           id="circle28650"
           style="opacity:1;fill:#a60c10;fill-opacity:1;fill-rule:nonzero;stroke:none;stroke-width:0.31057924;stroke-linecap:round;stroke-linejoin:round;stroke-miterlimit:4;stroke-dasharray:none;stroke-dashoffset:0;stroke-opacity:1;paint-order:markers stroke fill" />
        <path
           id="path28652"
           d="m -376.93461,-1685.5263 c -0.11781,0.01 -0.2396,0.073 -0.36526,0.2012 a 3.0177249,3.0177249 0 0 0 -0.30019,1.3058 3.0177249,3.0177249 0 0 0 0.0556,0.5653 h -0.002 l 0.59069,3.0958 1.8835,-0.3595 c -0.39119,-2.1385 -1.02646,-4.8679 -1.86227,-4.809 z"
           style="opacity:1;fill:#a60c10;fill-opacity:1;stroke:none;stroke-width:0.11813723px;stroke-linecap:butt;stroke-linejoin:miter;stroke-opacity:1"
           inkscape:connector-curvature="0" />
        <ellipse
           cx="-28.577372"
           cy="-1723.5748"
           rx="0.65295351"
           ry="1.16908"
           transform="rotate(-11.664469)"
           style="opacity:1;fill:#ffffff;fill-opacity:1;fill-rule:nonzero;stroke:none;stroke-width:0.12444445;stroke-linecap:round;stroke-linejoin:round;stroke-miterlimit:4;stroke-dasharray:none;stroke-dashoffset:0;stroke-opacity:1;paint-order:markers stroke fill"
           id="ellipse28654" />
        <ellipse
           transform="rotate(46.884324)"
           ry="0.5586977"
           rx="0.42201477"
           style="opacity:1;fill:#a60c10;fill-opacity:1;fill-rule:nonzero;stroke:none;stroke-width:0.09844194;stroke-linecap:round;stroke-linejoin:round;stroke-miterlimit:4;stroke-dasharray:none;stroke-dashoffset:0;stroke-opacity:1;paint-order:markers stroke fill"
           id="ellipse28656"
           cx="-1487.8081"
           cy="-877.80023" />
        <circle
           style="opacity:1;fill:#ffffff;fill-opacity:1;fill-rule:nonzero;stroke:none;stroke-width:0.19700335;stroke-linecap:round;stroke-linejoin:round;stroke-miterlimit:4;stroke-dasharray:none;stroke-dashoffset:0;stroke-opacity:1;paint-order:markers stroke fill"
           id="circle28658"
           cx="-372.87302"
           cy="-1683.5247"
           r="1.3084269" />
        <path
           sodipodi:nodetypes="ccccccc"
           inkscape:connector-curvature="0"
           id="path28660"
           d="m -374.84691,-1686.0988 -0.46885,1.4915 2.67655,0.5316 1.62807,-1.222 -0.82713,-1.1999 -1.01137,1.0079 z"
           style="opacity:1;fill:#a60c10;fill-opacity:1;stroke:#ffffff;stroke-width:0.40000001;stroke-linecap:butt;stroke-linejoin:miter;stroke-miterlimit:4;stroke-dasharray:none;stroke-opacity:1;paint-order:markers stroke fill" />
        <ellipse
           cy="-999.17413"
           cx="-1405.7656"
           id="ellipse28662"
           style="opacity:1;fill:#a60c10;fill-opacity:1;fill-rule:nonzero;stroke:none;stroke-width:0.06362779;stroke-linecap:round;stroke-linejoin:round;stroke-miterlimit:4;stroke-dasharray:none;stroke-dashoffset:0;stroke-opacity:1;paint-order:markers stroke fill"
           rx="0.23181669"
           ry="0.36111331"
           transform="rotate(42.087075)" />
        <path
           sodipodi:nodetypes="ccccc"
           inkscape:connector-curvature="0"
           id="path28664"
           d="m -372.11867,-1687.3172 0.65714,0.4135 1.17399,-1.5727 -1.10016,-0.635 z"
           style="opacity:1;fill:#ffffff;stroke:none;stroke-width:0.11813723px;stroke-linecap:butt;stroke-linejoin:miter;stroke-opacity:1" />
        <path
           inkscape:connector-curvature="0"
           id="path28666"
           d="m -371.01114,-1686.5862 0.22151,0.539 1.38073,-0.347 -0.39871,-0.8934 z"
           style="opacity:1;fill:#ffffff;stroke:none;stroke-width:0.11813723px;stroke-linecap:butt;stroke-linejoin:miter;stroke-opacity:1" />
      </g>
      <rect
         transform="scale(-1,1)"
         style="opacity:1;fill:none;fill-opacity:1;fill-rule:nonzero;stroke:none;stroke-width:1.12007427;stroke-linecap:round;stroke-linejoin:round;stroke-miterlimit:4;stroke-dasharray:none;stroke-dashoffset:0;stroke-opacity:1;paint-order:markers stroke fill;filter:url(#filter1957)"
         id="rect28670"
         width="1.8289131"
         height="1.8289131"
         x="384.21317"
         y="-1685.4662"
         ry="0" />
    </g>
  </g>
</svg>
