<?xml version="1.0" encoding="UTF-8" standalone="no"?>
<!-- Created with Inkscape (http://www.inkscape.org/) -->

<svg
   xmlns:dc="http://purl.org/dc/elements/1.1/"
   xmlns:cc="http://creativecommons.org/ns#"
   xmlns:rdf="http://www.w3.org/1999/02/22-rdf-syntax-ns#"
   xmlns:svg="http://www.w3.org/2000/svg"
   xmlns="http://www.w3.org/2000/svg"
   xmlns:sodipodi="http://sodipodi.sourceforge.net/DTD/sodipodi-0.dtd"
   xmlns:inkscape="http://www.inkscape.org/namespaces/inkscape"
   width="0.26458332mm"
   height="0.47265998mm"
   viewBox="0 0 0.26458332 0.47265997"
   version="1.1"
   id="svg6262"
   inkscape:version="0.92.3 (2405546, 2018-03-11)"
   sodipodi:docname="tires.svg">
  <defs
     id="defs6256" />
  <sodipodi:namedview
     id="base"
     pagecolor="#ffffff"
     bordercolor="#666666"
     borderopacity="1.0"
     inkscape:pageopacity="0.0"
     inkscape:pageshadow="2"
     inkscape:zoom="256"
     inkscape:cx="1.1495344"
     inkscape:cy="0.58857758"
     inkscape:document-units="mm"
     inkscape:current-layer="layer1"
     showgrid="false"
     inkscape:window-width="1920"
     inkscape:window-height="1057"
     inkscape:window-x="-8"
     inkscape:window-y="-8"
     inkscape:window-maximized="1"
     inkscape:snap-midpoints="true"
     inkscape:snap-smooth-nodes="true"
     inkscape:object-paths="true" />
  <metadata
     id="metadata6259">
    <rdf:RDF>
      <cc:Work
         rdf:about="">
        <dc:format>image/svg+xml</dc:format>
        <dc:type
           rdf:resource="http://purl.org/dc/dcmitype/StillImage" />
        <dc:title />
      </cc:Work>
    </rdf:RDF>
  </metadata>
  <g
     inkscape:label="Layer 1"
     inkscape:groupmode="layer"
     id="layer1"
     transform="translate(155.34847,-93.367454)">
    <g
       transform="matrix(0.04999514,0,0,0.04999514,-165.62688,144.32978)"
       id="g6233">
      <rect
         ry="2.6460907"
         y="-1015.2301"
         x="205.58818"
         height="5.3386211"
         width="5.292181"
         id="rect12944"
         style="opacity:0.18000004;fill:#000000;fill-opacity:0.99590167;fill-rule:nonzero;stroke:none;stroke-width:3.94009185;stroke-linecap:round;stroke-linejoin:round;stroke-miterlimit:4;stroke-dasharray:none;stroke-dashoffset:0;stroke-opacity:1;paint-order:markers stroke fill;filter:url(#filter1957)" />
      <path
         inkscape:connector-curvature="0"
         id="path6079"
         d="m 208.23505,-1016.6762 c -1.21391,0 -2.14612,0.8794 -2.14612,1.9218 v 1.155 c 0,1.0423 0.93221,1.9219 2.14612,1.9219 1.21391,0 2.14457,-0.8796 2.14457,-1.9219 v -1.155 c 0,-1.0424 -0.93066,-1.9218 -2.14457,-1.9218 z"
         style="opacity:1;fill:#2c2c34;fill-opacity:1;fill-rule:nonzero;stroke:#202430;stroke-width:1;stroke-linecap:round;stroke-linejoin:round;stroke-miterlimit:4;stroke-dasharray:none;stroke-dashoffset:0;stroke-opacity:1;paint-order:stroke markers fill" />
      <path
         inkscape:connector-curvature="0"
         id="path6039"
         d="m 208.23505,-1015.5212 c -0.71343,0 -1.32785,0.3048 -1.71462,0.7668 h -0.4315 v 1.155 c 0,1.0423 0.93221,1.9219 2.14612,1.9219 1.21391,0 2.14457,-0.8796 2.14457,-1.9219 v -1.155 h -0.43098 c -0.38633,-0.462 -1.00016,-0.7668 -1.71359,-0.7668 z"
         style="opacity:1;fill:#2c2c34;fill-opacity:1;fill-rule:nonzero;stroke:none;stroke-width:1.23126531;stroke-linecap:round;stroke-linejoin:round;stroke-miterlimit:4;stroke-dasharray:none;stroke-dashoffset:0;stroke-opacity:0.94509804;paint-order:stroke markers fill" />
      <path
         style="opacity:1;fill:#3b3c48;fill-opacity:1;fill-rule:nonzero;stroke:none;stroke-width:1.23126531;stroke-linecap:round;stroke-linejoin:round;stroke-miterlimit:4;stroke-dasharray:none;stroke-dashoffset:0;stroke-opacity:0.94509804;paint-order:stroke markers fill"
         d="m 208.23505,-1016.6763 c -1.21391,0 -2.14612,0.8794 -2.14612,1.9219 0,1.0423 0.93221,1.9218 2.14612,1.9218 1.21391,0 2.14457,-0.8795 2.14457,-1.9218 0,-1.0425 -0.93066,-1.9219 -2.14457,-1.9219 z"
         id="path6043"
         inkscape:connector-curvature="0" />
      <path
         inkscape:connector-curvature="0"
         id="path6074"
         d="m 208.23505,-1018.8456 c -1.21391,0 -2.14612,0.8794 -2.14612,1.9219 v 1.2485 c 0,1.0423 0.93221,1.9218 2.14612,1.9218 1.21391,0 2.14457,-0.8795 2.14457,-1.9218 v -1.2485 c 0,-1.0425 -0.93066,-1.9219 -2.14457,-1.9219 z"
         style="opacity:1;fill:#2c2c34;fill-opacity:1;fill-rule:nonzero;stroke:#202430;stroke-width:1;stroke-linecap:round;stroke-linejoin:round;stroke-miterlimit:4;stroke-dasharray:none;stroke-dashoffset:0;stroke-opacity:1;paint-order:stroke markers fill" />
      <path
         inkscape:connector-curvature="0"
         id="path6027"
         d="m 208.23505,-1017.5971 c -0.664,0 -1.24246,0.2644 -1.63142,0.6734 h -0.5147 v 1.2485 c 0,1.0423 0.93221,1.9218 2.14612,1.9218 1.21391,0 2.14457,-0.8795 2.14457,-1.9218 v -1.2485 h -0.51418 c -0.38854,-0.409 -0.96642,-0.6734 -1.63039,-0.6734 z"
         style="opacity:1;fill:#2c2c34;fill-opacity:1;fill-rule:nonzero;stroke:none;stroke-width:1.23126531;stroke-linecap:round;stroke-linejoin:round;stroke-miterlimit:4;stroke-dasharray:none;stroke-dashoffset:0;stroke-opacity:0.94509804;paint-order:stroke markers fill" />
      <path
         inkscape:connector-curvature="0"
         id="path6020"
         d="m 208.23505,-1018.8454 c -1.21391,0 -2.14612,0.8794 -2.14612,1.9219 0,1.0423 0.93221,1.9218 2.14612,1.9218 1.21391,0 2.14457,-0.8795 2.14457,-1.9218 0,-1.0425 -0.93066,-1.9219 -2.14457,-1.9219 z"
         style="opacity:1;fill:#3b3c48;fill-opacity:1;fill-rule:nonzero;stroke:none;stroke-width:1.23126531;stroke-linecap:round;stroke-linejoin:round;stroke-miterlimit:4;stroke-dasharray:none;stroke-dashoffset:0;stroke-opacity:0.94509804;paint-order:stroke markers fill" />
      <path
         style="opacity:1;fill:#676f77;fill-opacity:1;fill-rule:nonzero;stroke:none;stroke-width:0.9152934;stroke-linecap:round;stroke-linejoin:round;stroke-miterlimit:4;stroke-dasharray:none;stroke-dashoffset:0;stroke-opacity:0.94509804;paint-order:stroke markers fill"
         d="m 208.23485,-1018.3522 c -0.90239,0 -1.59537,0.6537 -1.59537,1.4287 0,0.7748 0.69298,1.4286 1.59537,1.4286 0.90239,0 1.59422,-0.6538 1.59422,-1.4286 0,-0.775 -0.69183,-1.4287 -1.59422,-1.4287 z"
         id="path6031"
         inkscape:connector-curvature="0" />
      <path
         inkscape:connector-curvature="0"
         id="path6033"
         d="m 208.23464,-1017.8233 c -0.56829,0 -1.00469,0.4117 -1.00469,0.8998 0,0.4879 0.4364,0.8997 1.00469,0.8997 0.56828,0 1.00396,-0.4118 1.00396,-0.8997 0,-0.4881 -0.43568,-0.8998 -1.00396,-0.8998 z"
         style="opacity:1;fill:#30384c;fill-opacity:1;fill-rule:nonzero;stroke:none;stroke-width:0.57640898;stroke-linecap:round;stroke-linejoin:round;stroke-miterlimit:4;stroke-dasharray:none;stroke-dashoffset:0;stroke-opacity:0.94509804;paint-order:stroke markers fill" />
      <path
         style="opacity:1;fill:#5c7098;fill-opacity:1;fill-rule:nonzero;stroke:none;stroke-width:0.47686589;stroke-linecap:round;stroke-linejoin:round;stroke-miterlimit:4;stroke-dasharray:none;stroke-dashoffset:0;stroke-opacity:0.94509804;paint-order:stroke markers fill"
         d="m 208.23458,-1017.7051 c -0.47016,0 -0.83119,0.3406 -0.83119,0.7444 0,0.4035 0.36103,0.7443 0.83119,0.7443 0.47013,0 0.83058,-0.3408 0.83058,-0.7443 0,-0.4038 -0.36045,-0.7444 -0.83058,-0.7444 z"
         id="path6035"
         inkscape:connector-curvature="0" />
      <path
         inkscape:connector-curvature="0"
         id="path6068"
         d="m 208.23454,-1017.7051 c -0.23582,0 -0.44211,0.087 -0.59118,0.2238 0.0247,0 0.0478,-0.01 0.0729,-0.01 0.61517,0 1.10579,0.3725 1.2547,0.863 0.0585,-0.1017 0.0941,-0.215 0.0941,-0.3359 0,-0.4038 -0.36031,-0.7442 -0.83044,-0.7442 z"
         style="opacity:1;fill:#8f9fbb;fill-opacity:1;fill-rule:nonzero;stroke:none;stroke-width:0.47686589;stroke-linecap:round;stroke-linejoin:round;stroke-miterlimit:4;stroke-dasharray:none;stroke-dashoffset:0;stroke-opacity:0.94509804;paint-order:stroke markers fill" />
      <rect
         ry="0"
         y="-1016.4692"
         x="-210.88036"
         height="5.2916708"
         width="5.2916708"
         id="rect8548-7-7-5"
         style="opacity:0.15800003;fill:none;fill-opacity:1;fill-rule:nonzero;stroke:none;stroke-width:3.24075794;stroke-linecap:round;stroke-linejoin:round;stroke-miterlimit:4;stroke-dasharray:none;stroke-dashoffset:0;stroke-opacity:1;paint-order:markers stroke fill;filter:url(#filter1957)"
         transform="scale(-1,1)" />
    </g>
  </g>
</svg>
