<?xml version="1.0" encoding="UTF-8" standalone="no"?>
<!-- Created with Inkscape (http://www.inkscape.org/) -->

<svg
   xmlns:dc="http://purl.org/dc/elements/1.1/"
   xmlns:cc="http://creativecommons.org/ns#"
   xmlns:rdf="http://www.w3.org/1999/02/22-rdf-syntax-ns#"
   xmlns:svg="http://www.w3.org/2000/svg"
   xmlns="http://www.w3.org/2000/svg"
   xmlns:xlink="http://www.w3.org/1999/xlink"
   xmlns:sodipodi="http://sodipodi.sourceforge.net/DTD/sodipodi-0.dtd"
   xmlns:inkscape="http://www.inkscape.org/namespaces/inkscape"
   width="0.54495579mm"
   height="0.73110348mm"
   viewBox="0 0 0.54495579 0.73110348"
   version="1.1"
   id="svg15799"
   inkscape:version="0.92.3 (2405546, 2018-03-11)"
   sodipodi:docname="vault_offset.svg">
  <defs
     id="defs15793">
    <linearGradient
       inkscape:collect="always"
       xlink:href="#linearGradient13702"
       id="linearGradient15708"
       gradientUnits="userSpaceOnUse"
       x1="-1438.7855"
       y1="590.37762"
       x2="-1444.5308"
       y2="590.33344" />
    <linearGradient
       inkscape:collect="always"
       id="linearGradient13702">
      <stop
         style="stop-color:#98bef1;stop-opacity:1;"
         offset="0"
         id="stop13693" />
      <stop
         style="stop-color:#5881c7;stop-opacity:1"
         offset="1"
         id="stop13695" />
    </linearGradient>
    <linearGradient
       inkscape:collect="always"
       xlink:href="#linearGradient13660"
       id="linearGradient15710"
       gradientUnits="userSpaceOnUse"
       x1="-386.08084"
       y1="147.63309"
       x2="-386.08084"
       y2="149.19997"
       gradientTransform="matrix(0.18363372,0,0,0.18363372,71.835738,-27.008161)" />
    <linearGradient
       inkscape:collect="always"
       id="linearGradient13660">
      <stop
         style="stop-color:#cce5fb;stop-opacity:1"
         offset="0"
         id="stop13656" />
      <stop
         style="stop-color:#a5c4f4;stop-opacity:1"
         offset="1"
         id="stop13658" />
    </linearGradient>
    <clipPath
       clipPathUnits="userSpaceOnUse"
       id="clipPath13535">
      <rect
         ry="0.94551259"
         y="148.17261"
         x="-390.07361"
         height="9.4264736"
         width="7.9938788"
         id="rect13537"
         style="opacity:1;fill:#7faffc;fill-opacity:1;fill-rule:nonzero;stroke:none;stroke-width:0.99999994;stroke-linecap:round;stroke-linejoin:round;stroke-miterlimit:4;stroke-dasharray:none;stroke-dashoffset:0;stroke-opacity:1;paint-order:markers stroke fill" />
    </clipPath>
    <linearGradient
       inkscape:collect="always"
       xlink:href="#linearGradient13974"
       id="linearGradient15712"
       gradientUnits="userSpaceOnUse"
       x1="-390.38327"
       y1="155.58417"
       x2="-387.88934"
       y2="155.33125"
       gradientTransform="matrix(0.18363372,0,0,0.18363372,71.835738,-27.008161)" />
    <linearGradient
       inkscape:collect="always"
       id="linearGradient13974">
      <stop
         style="stop-color:#9dc4f6;stop-opacity:1"
         offset="0"
         id="stop13970" />
      <stop
         style="stop-color:#7eb2f9;stop-opacity:1"
         offset="1"
         id="stop13972" />
    </linearGradient>
    <linearGradient
       inkscape:collect="always"
       xlink:href="#linearGradient13443"
       id="linearGradient15714"
       gradientUnits="userSpaceOnUse"
       gradientTransform="matrix(0.19952328,0,0,0.18363365,77.987502,-26.973792)"
       x1="-386.07666"
       y1="153.5634"
       x2="-386.07666"
       y2="158.74554" />
    <linearGradient
       inkscape:collect="always"
       id="linearGradient13443">
      <stop
         style="stop-color:#73a4ef;stop-opacity:1;"
         offset="0"
         id="stop13439" />
      <stop
         style="stop-color:#647ac4;stop-opacity:1"
         offset="1"
         id="stop13441" />
    </linearGradient>
    <linearGradient
       inkscape:collect="always"
       xlink:href="#linearGradient13443"
       id="linearGradient915"
       gradientUnits="userSpaceOnUse"
       gradientTransform="matrix(0.1995232,0,0,0.18363358,77.987468,-26.973783)"
       x1="-386.07666"
       y1="153.5634"
       x2="-386.07666"
       y2="158.74554" />
  </defs>
  <sodipodi:namedview
     id="base"
     pagecolor="#ffffff"
     bordercolor="#666666"
     borderopacity="1.0"
     inkscape:pageopacity="0.0"
     inkscape:pageshadow="2"
     inkscape:zoom="128"
     inkscape:cx="3.119688"
     inkscape:cy="2.0660559"
     inkscape:document-units="mm"
     inkscape:current-layer="g15742"
     showgrid="false"
     inkscape:object-paths="true"
     inkscape:snap-midpoints="true"
     inkscape:window-width="1920"
     inkscape:window-height="1057"
     inkscape:window-x="-8"
     inkscape:window-y="-8"
     inkscape:window-maximized="1"
     inkscape:snap-intersection-paths="false"
     inkscape:snap-smooth-nodes="true" />
  <metadata
     id="metadata15796">
    <rdf:RDF>
      <cc:Work
         rdf:about="">
        <dc:format>image/svg+xml</dc:format>
        <dc:type
           rdf:resource="http://purl.org/dc/dcmitype/StillImage" />
        <dc:title />
      </cc:Work>
    </rdf:RDF>
  </metadata>
  <g
     inkscape:label="Layer 1"
     inkscape:groupmode="layer"
     id="layer1"
     transform="translate(110.86907,-198.02962)">
    <g
       transform="matrix(0.26458323,0,0,0.26458323,-9.5476665,267.5498)"
       id="g15742">
      <path
         id="path15670"
         d="m -382.53648,-262.66167 c -0.17664,0 -0.31885,0.0894 -0.31885,0.20041 v 0.24294 0.35529 0.20041 l 0.0819,0.68515 c 0,0.0547 0.011,0.10678 0.0309,0.15411 v 10e-5 c 0.0599,0.14194 0.2001,0.24113 0.36431,0.24113 h 0.37009 0.37009 c 0.16781,0 0.31037,-0.10359 0.36791,-0.25053 0.0174,0.0417 0.0585,0.071 0.10647,0.071 0.0637,-10e-6 0.1153,-0.0561 0.1153,-0.11529 0,-0.0592 0.0665,-0.38794 0.0665,-0.38794 10e-4,-0.009 0.002,-0.019 0.002,-0.0287 0,-0.0389 -0.0122,-0.0749 -0.0327,-0.10466 -4.9e-4,-9.6e-4 -9.7e-4,-0.002 -0.002,-0.003 0.0102,-0.02 0.0155,-0.0419 0.0156,-0.0641 0,-0.0822 -0.0704,-0.14877 -0.15733,-0.14879 v -10e-5 c -0.004,5e-5 -0.008,2.4e-4 -0.0115,5.7e-4 l 0.006,-0.0492 v -0.19928 c 0,-3.9e-4 0,-7.5e-4 0,-0.001 v -0.59822 c 0,-0.11104 -0.14221,-0.20042 -0.31885,-0.20042 z"
         style="opacity:1;fill:#7eb3fc;fill-opacity:1;fill-rule:nonzero;stroke:#2b3a53;stroke-width:0.18363379;stroke-linecap:round;stroke-linejoin:round;stroke-miterlimit:4;stroke-dasharray:none;stroke-dashoffset:0;stroke-opacity:1;paint-order:markers stroke fill"
         inkscape:connector-curvature="0" />
      <g
         id="g15678"
         transform="matrix(0.18363379,0,0,0.18363379,-311.11142,-289.76171)">
        <path
           style="opacity:1;fill:url(#linearGradient15708);fill-opacity:1;fill-rule:nonzero;stroke:none;stroke-width:8.50393677;stroke-linecap:round;stroke-linejoin:round;stroke-miterlimit:4;stroke-dasharray:none;stroke-dashoffset:0;stroke-opacity:1;paint-order:markers stroke fill"
           d="m -1441.8125,582.12891 c -2.097,-10e-6 -3.7969,1.69991 -3.7969,3.79687 3e-4,0.20943 0.018,0.41848 0.053,0.625 v 0 0.0215 l 1.377,7.92773 c 2e-4,1.31049 1.0625,2.3728 2.373,2.37305 1.3105,-1.9e-4 2.3731,-1.15439 2.3731,-2.37305 0,-1.21866 1.3691,-7.98438 1.3691,-7.98438 v 0 c 0.032,-0.19499 0.049,-0.3922 0.051,-0.58984 0,-2.09696 -1.6999,-3.79688 -3.7969,-3.79687 z"
           transform="scale(0.26458333)"
           id="path15672"
           inkscape:connector-curvature="0"
           sodipodi:nodetypes="ccccccczccccc" />
        <ellipse
           ry="0.76244378"
           rx="0.83685786"
           cy="154.77176"
           cx="-381.41339"
           id="ellipse15674"
           style="opacity:1;fill:#5b6f96;fill-opacity:1;fill-rule:nonzero;stroke:none;stroke-width:2.25000024;stroke-linecap:round;stroke-linejoin:round;stroke-miterlimit:4;stroke-dasharray:none;stroke-dashoffset:0;stroke-opacity:1;paint-order:markers stroke fill" />
        <ellipse
           ry="0.81028652"
           rx="0.8570587"
           style="opacity:1;fill:#a5c4f4;fill-opacity:1;fill-rule:nonzero;stroke:none;stroke-width:2.25;stroke-linecap:round;stroke-linejoin:round;stroke-miterlimit:4;stroke-dasharray:none;stroke-dashoffset:0;stroke-opacity:1;paint-order:markers stroke fill"
           id="ellipse15676"
           cx="-381.43277"
           cy="154.09193" />
      </g>
      <path
         style="opacity:1;fill:url(#linearGradient15710);fill-opacity:1;fill-rule:nonzero;stroke:none;stroke-width:0.18363379;stroke-linecap:round;stroke-linejoin:round;stroke-miterlimit:4;stroke-dasharray:none;stroke-dashoffset:0;stroke-opacity:1;paint-order:markers stroke fill"
         d="M 0.41015625 0.091796875 C 0.23351528 0.091796875 0.091796875 0.18193663 0.091796875 0.29296875 L 0.091796875 1.0917969 L 0.17382812 1.7753906 C 0.17382812 1.8300906 0.18517813 1.8823575 0.20507812 1.9296875 C 0.22836452 1.9848712 0.27215738 2.0255113 0.31640625 2.0644531 C 0.34935921 2.0716571 0.37320233 2.0898438 0.41015625 2.0898438 L 1.4667969 2.0898438 C 1.5055924 2.0898438 1.5320746 2.072359 1.5664062 2.0644531 C 1.6183196 2.0175849 1.666254 1.9631452 1.6875 1.8945312 C 1.699 1.8573313 1.7050781 1.8164506 1.7050781 1.7753906 L 1.7871094 1.0917969 L 1.7871094 0.29296875 C 1.7871094 0.18193663 1.6434378 0.091796875 1.4667969 0.091796875 L 0.41015625 0.091796875 z "
         transform="translate(-382.94719,-262.75354)"
         id="rect15680" />
      <rect
         style="opacity:1;fill:#7faffc;fill-opacity:1;fill-rule:nonzero;stroke:none;stroke-width:0.18363379;stroke-linecap:round;stroke-linejoin:round;stroke-miterlimit:4;stroke-dasharray:none;stroke-dashoffset:0;stroke-opacity:1;paint-order:markers stroke fill"
         id="rect15682"
         width="1.4679463"
         height="1.731019"
         x="-382.74213"
         y="-262.55222"
         ry="0.17362806"
         rx="0.24049062" />
      <rect
         style="opacity:1;fill:#92baf7;fill-opacity:1;fill-rule:nonzero;stroke:none;stroke-width:1;stroke-linecap:round;stroke-linejoin:round;stroke-miterlimit:4;stroke-dasharray:none;stroke-dashoffset:0;stroke-opacity:1;paint-order:markers stroke fill"
         id="rect15684"
         width="8.7373438"
         height="10.880989"
         x="-390.44534"
         y="152.34734"
         ry="1.0914001"
         clip-path="url(#clipPath13535)"
         transform="matrix(0.18363379,0,0,0.18363379,-311.11142,-289.76171)" />
      <path
         style="opacity:1;fill:#364a75;fill-opacity:1;fill-rule:nonzero;stroke:none;stroke-width:0.18363379;stroke-linecap:round;stroke-linejoin:round;stroke-miterlimit:4;stroke-dasharray:none;stroke-dashoffset:0;stroke-opacity:1;paint-order:markers stroke fill"
         d="M 0.33789062 1.0175781 C 0.22685912 1.0175781 0.13671875 1.1057654 0.13671875 1.2167969 L 0.13671875 1.4667969 L 0.17382812 1.7753906 C 0.17382812 1.8300906 0.18517813 1.8823575 0.20507812 1.9296875 C 0.2649781 2.0716374 0.40414944 2.171875 0.56835938 2.171875 L 0.93945312 2.171875 L 1.3085938 2.171875 C 1.4865237 2.171875 1.63761 2.0556512 1.6875 1.8945312 C 1.699 1.8573313 1.7050781 1.8164506 1.7050781 1.7753906 L 1.7421875 1.4667969 L 1.7421875 1.2167969 C 1.7421875 1.1057654 1.6520471 1.0175781 1.5410156 1.0175781 L 0.33789062 1.0175781 z "
         transform="translate(-382.94719,-262.75354)"
         id="rect15686" />
      <path
         style="opacity:1;fill:url(#linearGradient15712);fill-opacity:1;fill-rule:nonzero;stroke:none;stroke-width:0.18363379;stroke-linecap:round;stroke-linejoin:round;stroke-miterlimit:4;stroke-dasharray:none;stroke-dashoffset:0;stroke-opacity:1;paint-order:markers stroke fill"
         d="M 0.33789062 1.1015625 C 0.22602299 1.1015625 0.13671875 1.1868044 0.13671875 1.2929688 L 0.13671875 1.4667969 L 0.17382812 1.7753906 C 0.17382812 1.8300906 0.18517813 1.8823575 0.20507812 1.9296875 C 0.2649781 2.0716374 0.40414944 2.171875 0.56835938 2.171875 L 0.93945312 2.171875 L 1.3085938 2.171875 C 1.4865237 2.171875 1.63761 2.0556512 1.6875 1.8945312 C 1.699 1.8573313 1.7050781 1.8164506 1.7050781 1.7753906 L 1.7421875 1.4667969 L 1.7421875 1.2929688 C 1.7421875 1.1868044 1.6509301 1.1015625 1.5390625 1.1015625 L 0.33789062 1.1015625 z "
         transform="translate(-382.94719,-262.75354)"
         id="rect15688" />
      <path
         style="opacity:1;fill:url(#linearGradient915);fill-opacity:1;fill-rule:nonzero;stroke:none;stroke-width:0.18363377;stroke-linecap:round;stroke-linejoin:round;stroke-miterlimit:4;stroke-dasharray:none;stroke-dashoffset:0;stroke-opacity:1;paint-order:markers stroke fill"
         d="M 0.45898438 1.2265625 C 0.33010453 1.2265625 0.21206253 1.3309244 0.2265625 1.4589844 L 0.29296875 2.0351562 C 0.29331552 2.0355291 0.29262057 2.0367379 0.29296875 2.0371094 C 0.36463889 2.1135846 0.45483768 2.171875 0.56835938 2.171875 L 0.93945312 2.171875 L 1.3085938 2.171875 C 1.4620052 2.171875 1.5825933 2.0763006 1.6484375 1.9492188 L 1.6855469 1.4589844 C 1.6952169 1.3304744 1.5819947 1.2265625 1.453125 1.2265625 L 0.45898438 1.2265625 z "
         transform="translate(-382.94719,-262.75354)"
         id="path15690" />
      <ellipse
         ry="0.28281233"
         rx="0.46416089"
         cy="-261.03436"
         cx="-382.01828"
         id="ellipse15692"
         style="opacity:1;fill:#465f95;fill-opacity:1;fill-rule:nonzero;stroke:none;stroke-width:0.41317603;stroke-linecap:round;stroke-linejoin:round;stroke-miterlimit:4;stroke-dasharray:none;stroke-dashoffset:0;stroke-opacity:1;paint-order:markers stroke fill" />
      <path
         inkscape:connector-curvature="0"
         id="path15694"
         d="m -382.01858,-261.19109 a 0.4067395,0.25137885 0 0 0 -0.0341,10e-4 0.40673952,0.25137885 0 0 0 -0.0234,0.002 0.4067395,0.25137885 0 0 0 -0.0163,10e-4 0.40673952,0.25137885 0 0 0 -0.0225,0.003 0.4067395,0.25137885 0 0 0 -0.0183,0.003 0.40673952,0.25137885 0 0 0 -0.0185,0.004 0.4067395,0.25137885 0 0 0 -0.0201,0.005 0.40673952,0.25137885 0 0 0 -0.0164,0.005 0.4067395,0.25137885 0 0 0 -0.0212,0.006 0.40673952,0.25137885 0 0 0 -0.0141,0.005 0.4067395,0.25137885 0 0 0 -0.0206,0.008 0.40673952,0.25137885 0 0 0 -0.0135,0.006 0.4067395,0.25137885 0 0 0 -0.0192,0.009 0.40673952,0.25137885 0 0 0 -0.0119,0.006 0.4067395,0.25137885 0 0 0 -0.0185,0.0107 0.40673952,0.25137885 0 0 0 -0.01,0.007 0.4067395,0.25137885 0 0 0 -0.0171,0.0121 0.40673952,0.25137885 0 0 0 -0.009,0.007 0.4067395,0.25137885 0 0 0 -0.0149,0.0128 0.40673952,0.25137885 0 0 0 -0.008,0.008 0.4067395,0.25137885 0 0 0 -0.0129,0.0139 0.40673952,0.25137885 0 0 0 -0.007,0.009 0.4067395,0.25137885 0 0 0 -0.01,0.0133 0.40673952,0.25137885 0 0 0 -0.006,0.0103 0.4067395,0.25137885 0 0 0 -0.007,0.0135 0.40673952,0.25137885 0 0 0 -0.005,0.0111 0.4067395,0.25137885 0 0 0 -0.005,0.013 0.40673952,0.25137885 0 0 0 -0.003,0.0119 0.4067395,0.25137885 0 0 0 -0.003,0.0131 0.40673952,0.25137885 0 0 0 -0.001,0.0175 0.4067395,0.25137885 0 0 0 -5.5e-4,0.004 0.4067395,0.25137885 0 0 0 0.002,0.02 0.40673952,0.25137885 0 0 0 10e-4,0.009 0.4067395,0.25137885 0 0 0 0.004,0.0156 0.40673952,0.25137885 0 0 0 0.003,0.009 0.4067395,0.25137885 0 0 0 0.006,0.0145 0.40673952,0.25137885 0 0 0 0.005,0.0102 0.4067395,0.25137885 0 0 0 0.009,0.0142 0.40673952,0.25137885 0 0 0 0.006,0.008 0.4067395,0.25137885 0 0 0 0.0113,0.0145 0.40673952,0.25137885 0 0 0 0.007,0.008 0.4067395,0.25137885 0 0 0 0.0141,0.0141 0.40673952,0.25137885 0 0 0 0.007,0.007 l -5.5e-4,10e-5 0.15671,0.13576 5.5e-4,1.8e-4 v 0 a 0.20299739,0.1254593 0 0 0 0.0111,0.0105 0.20299739,0.1254593 0 0 0 0.0127,0.01 0.20299739,0.1254593 0 0 0 0.0138,0.009 0.20299739,0.1254593 0 0 0 7.3e-4,3.7e-4 0.20299739,0.1254593 0 0 0 0.0141,0.007 0.20299739,0.1254593 0 0 0 10e-4,5.5e-4 0.20299739,0.1254593 0 0 0 0.001,5.6e-4 0.20299739,0.1254593 0 0 0 0.0128,0.005 0.20299739,0.1254593 0 0 0 0.005,0.002 0.20299739,0.1254593 0 0 0 0.0142,0.005 0.20299739,0.1254593 0 0 0 0.002,5.5e-4 0.20299739,0.1254593 0 0 0 0.0152,0.004 0.20299739,0.1254593 0 0 0 0.005,10e-4 0.20299739,0.1254593 0 0 0 0.0127,0.002 0.20299739,0.1254593 0 0 0 0.009,0.001 0.20299739,0.1254593 0 0 0 0.009,10e-4 0.20299739,0.1254593 0 0 0 0.0101,9.2e-4 0.20299739,0.1254593 0 0 0 0.011,7.4e-4 0.20299739,0.1254593 0 0 0 0.014,3.6e-4 0.20299739,0.1254593 0 0 0 0.014,-3.6e-4 0.20299739,0.1254593 0 0 0 0.011,-7.4e-4 0.20299739,0.1254593 0 0 0 0.0101,-9.2e-4 0.20299739,0.1254593 0 0 0 0.009,-10e-4 0.20299739,0.1254593 0 0 0 0.009,-0.001 0.20299739,0.1254593 0 0 0 0.0127,-0.002 0.20299739,0.1254593 0 0 0 0.005,-10e-4 0.20299739,0.1254593 0 0 0 0.0152,-0.004 0.20299739,0.1254593 0 0 0 0.002,-5.5e-4 0.20299739,0.1254593 0 0 0 0.0164,-0.005 0.20299739,0.1254593 0 0 0 5.5e-4,-1e-4 0.20299739,0.1254593 0 0 0 5.5e-4,-1.8e-4 0.20299739,0.1254593 0 0 0 0.0154,-0.006 0.20299739,0.1254593 0 0 0 0.002,-0.001 0.20299739,0.1254593 0 0 0 0.0141,-0.007 0.20299739,0.1254593 0 0 0 7.4e-4,-3.7e-4 0.20299739,0.1254593 0 0 0 0.0138,-0.009 0.20299739,0.1254593 0 0 0 0.0127,-0.01 0.20299739,0.1254593 0 0 0 0.0111,-0.0105 l 5.5e-4,-1.8e-4 0.1567,-0.13576 -5.5e-4,-1e-4 a 0.4067395,0.25137885 0 0 0 0.008,-0.008 0.40673952,0.25137885 0 0 0 0.0122,-0.0122 0.4067395,0.25137885 0 0 0 0.009,-0.01 0.40673952,0.25137885 0 0 0 0.01,-0.0124 0.4067395,0.25137885 0 0 0 0.007,-0.0107 0.40673952,0.25137885 0 0 0 0.007,-0.0119 0.4067395,0.25137885 0 0 0 0.006,-0.0123 0.40673952,0.25137885 0 0 0 0.005,-0.0122 0.4067395,0.25137885 0 0 0 0.004,-0.0117 0.40673952,0.25137885 0 0 0 0.003,-0.0131 0.4067395,0.25137885 0 0 0 0.002,-0.0118 0.40673952,0.25137885 0 0 0 10e-4,-0.0187 0.4067395,0.25137885 0 0 0 -0.002,-0.022 0.40673952,0.25137885 0 0 0 -0.002,-0.0102 0.4067395,0.25137885 0 0 0 -0.004,-0.0149 0.40673952,0.25137885 0 0 0 -0.004,-0.0101 0.4067395,0.25137885 0 0 0 -0.006,-0.0139 0.40673952,0.25137885 0 0 0 -0.006,-0.011 0.4067395,0.25137885 0 0 0 -0.008,-0.0128 0.40673952,0.25137885 0 0 0 -0.008,-0.0107 0.4067395,0.25137885 0 0 0 -0.009,-0.0116 0.40673952,0.25137885 0 0 0 -0.0109,-0.0116 0.4067395,0.25137885 0 0 0 -0.01,-0.01 0.40673952,0.25137885 0 0 0 -0.0125,-0.0109 0.4067395,0.25137885 0 0 0 -0.0115,-0.009 0.40673952,0.25137885 0 0 0 -0.0148,-0.0104 0.4067395,0.25137885 0 0 0 -0.0123,-0.008 0.40673952,0.25137885 0 0 0 -0.0162,-0.009 0.4067395,0.25137885 0 0 0 -0.0142,-0.008 0.40673952,0.25137885 0 0 0 -0.0169,-0.008 0.4067395,0.25137885 0 0 0 -0.0158,-0.007 0.40673952,0.25137885 0 0 0 -0.0184,-0.007 0.4067395,0.25137885 0 0 0 -0.0162,-0.006 0.40673952,0.25137885 0 0 0 -0.0195,-0.006 0.4067395,0.25137885 0 0 0 -0.0181,-0.005 0.40673952,0.25137885 0 0 0 -0.0186,-0.004 0.4067395,0.25137885 0 0 0 -0.0199,-0.004 0.40673952,0.25137885 0 0 0 -0.0188,-0.003 0.4067395,0.25137885 0 0 0 -0.0202,-0.003 0.40673952,0.25137885 0 0 0 -0.0231,-0.002 0.4067395,0.25137885 0 0 0 -0.0161,-10e-4 0.40673952,0.25137885 0 0 0 -0.0359,-0.001 0.40673952,0.25137885 0 0 0 -5.5e-4,0 z"
         style="opacity:1;fill:#dd9621;fill-opacity:1;fill-rule:nonzero;stroke:none;stroke-width:0.69404906;stroke-linecap:round;stroke-linejoin:round;stroke-miterlimit:4;stroke-dasharray:none;stroke-dashoffset:0;stroke-opacity:1;paint-order:markers stroke fill" />
      <path
         id="path15696"
         d="m -381.92957,-261.04588 -5.5e-4,9e-5 -0.0231,0.20773 10e-4,3.7e-4 a 0.21660144,0.12914073 0 0 1 0.0522,0.0149 l 9.1e-4,3.7e-4 0.12337,-0.15952 a 0.31280703,0.19332538 0 0 0 -9.2e-4,-7.4e-4 0.31280703,0.19332538 0 0 0 -0.0114,-0.008 0.31280703,0.19332538 0 0 0 -0.01,-0.006 0.31280703,0.19332538 0 0 0 -0.0124,-0.007 0.31280703,0.19332538 0 0 0 -0.0109,-0.006 0.31280703,0.19332538 0 0 0 -0.013,-0.006 0.31280703,0.19332538 0 0 0 -0.0121,-0.005 0.31280703,0.19332538 0 0 0 -0.0141,-0.005 0.31280703,0.19332538 0 0 0 -0.0124,-0.004 0.31280703,0.19332538 0 0 0 -0.015,-0.005 0.31280703,0.19332538 0 0 0 -0.014,-0.004 0.31280703,0.19332538 0 0 0 -0.0143,-0.003 0.31280703,0.19332538 0 0 0 -0.0142,-0.003 z"
         style="opacity:1;fill:#d0831c;fill-opacity:1;fill-rule:nonzero;stroke:none;stroke-width:0.694049;stroke-linecap:round;stroke-linejoin:round;stroke-miterlimit:4;stroke-dasharray:none;stroke-dashoffset:0;stroke-opacity:1;paint-order:markers stroke fill"
         inkscape:connector-curvature="0" />
      <path
         id="path15698"
         d="m -382.10674,-261.04579 a 0.31280703,0.19332538 0 0 0 -0.0142,0.003 0.31280703,0.19332538 0 0 0 -0.0154,0.003 0.31280703,0.19332538 0 0 0 -0.0127,0.004 0.31280703,0.19332538 0 0 0 -0.0163,0.005 0.31280703,0.19332538 0 0 0 -0.0108,0.004 0.31280703,0.19332538 0 0 0 -0.0158,0.006 0.31280703,0.19332538 0 0 0 -0.0104,0.005 0.31280703,0.19332538 0 0 0 -0.0148,0.007 0.31280703,0.19332538 0 0 0 -0.009,0.005 0.31280703,0.19332538 0 0 0 -0.0142,0.008 0.31280703,0.19332538 0 0 0 -0.008,0.005 0.31280703,0.19332538 0 0 0 -0.0132,0.009 l 0.12346,0.15961 5.5e-4,-1.8e-4 a 0.21660144,0.12914073 0 0 1 0.0512,-0.0146 l 0.003,-7.4e-4 z"
         style="opacity:1;fill:#d0831c;fill-opacity:1;fill-rule:nonzero;stroke:none;stroke-width:0.694049;stroke-linecap:round;stroke-linejoin:round;stroke-miterlimit:4;stroke-dasharray:none;stroke-dashoffset:0;stroke-opacity:1;paint-order:markers stroke fill"
         inkscape:connector-curvature="0" />
      <ellipse
         ry="0.062569693"
         rx="0.10494508"
         cy="-260.71487"
         cx="-382.01831"
         id="ellipse15700"
         style="opacity:1;fill:#d0861b;fill-opacity:1;fill-rule:nonzero;stroke:none;stroke-width:0.41317603;stroke-linecap:round;stroke-linejoin:round;stroke-miterlimit:4;stroke-dasharray:none;stroke-dashoffset:0;stroke-opacity:1;paint-order:markers stroke fill" />
      <path
         style="opacity:1;fill:#c78318;fill-opacity:1;fill-rule:nonzero;stroke:none;stroke-width:0.69404906;stroke-linecap:round;stroke-linejoin:round;stroke-miterlimit:4;stroke-dasharray:none;stroke-dashoffset:0;stroke-opacity:1;paint-order:markers stroke fill"
         d="m -382.01858,-261.23129 a 0.4067395,0.25137885 0 0 0 -0.0341,10e-4 0.4067395,0.25137885 0 0 0 -0.0233,0.002 0.4067395,0.25137885 0 0 0 -0.0164,0.001 0.4067395,0.25137885 0 0 0 -0.0225,0.003 0.4067395,0.25137885 0 0 0 -0.0183,0.003 0.4067395,0.25137885 0 0 0 -0.0185,0.004 0.4067395,0.25137885 0 0 0 -0.02,0.005 0.4067395,0.25137885 0 0 0 -0.0164,0.005 0.4067395,0.25137885 0 0 0 -0.0213,0.006 0.4067395,0.25137885 0 0 0 -0.0141,0.005 0.4067395,0.25137885 0 0 0 -0.0205,0.008 0.4067395,0.25137885 0 0 0 -0.0136,0.006 0.4067395,0.25137885 0 0 0 -0.0192,0.009 0.4067395,0.25137885 0 0 0 -0.012,0.006 0.4067395,0.25137885 0 0 0 -0.0185,0.0107 0.4067395,0.25137885 0 0 0 -0.01,0.007 0.4067395,0.25137885 0 0 0 -0.0172,0.0121 0.4067395,0.25137885 0 0 0 -0.009,0.007 0.4067395,0.25137885 0 0 0 -0.0148,0.0128 0.4067395,0.25137885 0 0 0 -0.008,0.008 0.4067395,0.25137885 0 0 0 -0.0129,0.014 0.4067395,0.25137885 0 0 0 -0.007,0.009 0.4067395,0.25137885 0 0 0 -0.01,0.0133 0.4067395,0.25137885 0 0 0 -0.006,0.0102 0.4067395,0.25137885 0 0 0 -0.007,0.0136 0.4067395,0.25137885 0 0 0 -0.005,0.011 0.4067395,0.25137885 0 0 0 -0.005,0.0131 0.4067395,0.25137885 0 0 0 -0.003,0.0119 0.4067395,0.25137885 0 0 0 -0.003,0.0131 0.4067395,0.25137885 0 0 0 -10e-4,0.0176 0.4067395,0.25137885 0 0 0 -5.5e-4,0.004 0.4067395,0.25137885 0 0 0 0.002,0.02 0.4067395,0.25137885 0 0 0 5.5e-4,0.003 0.4067395,0.2276285 0 0 1 0.002,-0.0107 0.4067395,0.2276285 0 0 1 0.003,-0.0108 0.4067395,0.2276285 0 0 1 0.005,-0.0118 0.4067395,0.2276285 0 0 1 0.005,-0.0101 0.4067395,0.2276285 0 0 1 0.007,-0.0122 0.4067395,0.2276285 0 0 1 0.006,-0.009 0.4067395,0.2276285 0 0 1 0.01,-0.012 0.4067395,0.2276285 0 0 1 0.007,-0.008 0.4067395,0.2276285 0 0 1 0.0129,-0.0126 0.4067395,0.2276285 0 0 1 0.008,-0.007 0.4067395,0.2276285 0 0 1 0.0148,-0.0117 0.4067395,0.2276285 0 0 1 0.009,-0.007 0.4067395,0.2276285 0 0 1 0.0172,-0.011 0.4067395,0.2276285 0 0 1 0.01,-0.006 0.4067395,0.2276285 0 0 1 0.0185,-0.01 0.4067395,0.2276285 0 0 1 0.012,-0.006 0.4067395,0.2276285 0 0 1 0.0192,-0.008 0.4067395,0.2276285 0 0 1 0.0136,-0.005 0.4067395,0.2276285 0 0 1 0.0205,-0.007 0.4067395,0.2276285 0 0 1 0.0141,-0.004 0.4067395,0.2276285 0 0 1 0.0213,-0.006 0.4067395,0.2276285 0 0 1 0.0164,-0.004 0.4067395,0.2276285 0 0 1 0.02,-0.004 0.4067395,0.2276285 0 0 1 0.0185,-0.004 0.4067395,0.2276285 0 0 1 0.0183,-0.003 0.4067395,0.2276285 0 0 1 0.0225,-0.003 0.4067395,0.2276285 0 0 1 0.0164,-0.001 0.4067395,0.2276285 0 0 1 0.0233,-0.002 0.4067395,0.2276285 0 0 1 0.0341,-9.1e-4 l -1e-4,5.5e-4 a 0.4067395,0.2276285 0 0 1 5.5e-4,0 0.4067395,0.2276285 0 0 1 0.0359,9.1e-4 0.4067395,0.2276285 0 0 1 0.016,9.2e-4 0.4067395,0.2276285 0 0 1 0.0232,0.002 0.4067395,0.2276285 0 0 1 0.0201,0.003 0.4067395,0.2276285 0 0 1 0.0188,0.003 0.4067395,0.2276285 0 0 1 0.0199,0.004 0.4067395,0.2276285 0 0 1 0.0186,0.004 0.4067395,0.2276285 0 0 1 0.0181,0.004 0.4067395,0.2276285 0 0 1 0.0195,0.005 0.4067395,0.2276285 0 0 1 0.0161,0.005 0.4067395,0.2276285 0 0 1 0.0184,0.006 0.4067395,0.2276285 0 0 1 0.0158,0.006 0.4067395,0.2276285 0 0 1 0.0169,0.007 0.4067395,0.2276285 0 0 1 0.0142,0.007 0.4067395,0.2276285 0 0 1 0.0162,0.008 0.4067395,0.2276285 0 0 1 0.0123,0.007 0.4067395,0.2276285 0 0 1 0.0148,0.009 0.4067395,0.2276285 0 0 1 0.0115,0.009 0.4067395,0.2276285 0 0 1 0.0125,0.01 0.4067395,0.2276285 0 0 1 0.01,0.009 0.4067395,0.2276285 0 0 1 0.0109,0.0105 0.4067395,0.2276285 0 0 1 0.009,0.0105 0.4067395,0.2276285 0 0 1 0.008,0.01 0.4067395,0.2276285 0 0 1 0.008,0.0117 0.4067395,0.2276285 0 0 1 0.006,0.01 0.4067395,0.2276285 0 0 1 0.006,0.0126 0.4067395,0.2276285 0 0 1 0.004,0.009 0.4067395,0.2276285 0 0 1 0.004,0.0135 0.4067395,0.2276285 0 0 1 0.002,0.008 0.4067395,0.25137885 0 0 0 5.5e-4,-0.003 0.4067395,0.25137885 0 0 0 0.001,-0.0187 0.4067395,0.25137885 0 0 0 -0.002,-0.022 0.4067395,0.25137885 0 0 0 -0.002,-0.0102 0.4067395,0.25137885 0 0 0 -0.004,-0.0148 0.4067395,0.25137885 0 0 0 -0.004,-0.0102 0.4067395,0.25137885 0 0 0 -0.006,-0.0139 0.4067395,0.25137885 0 0 0 -0.006,-0.011 0.4067395,0.25137885 0 0 0 -0.008,-0.0128 0.4067395,0.25137885 0 0 0 -0.008,-0.0106 0.4067395,0.25137885 0 0 0 -0.009,-0.0116 0.4067395,0.25137885 0 0 0 -0.0109,-0.0116 0.4067395,0.25137885 0 0 0 -0.01,-0.01 0.4067395,0.25137885 0 0 0 -0.0125,-0.0108 0.4067395,0.25137885 0 0 0 -0.0115,-0.009 0.4067395,0.25137885 0 0 0 -0.0148,-0.0104 0.4067395,0.25137885 0 0 0 -0.0123,-0.008 0.4067395,0.25137885 0 0 0 -0.0162,-0.009 0.4067395,0.25137885 0 0 0 -0.0142,-0.008 0.4067395,0.25137885 0 0 0 -0.0169,-0.008 0.4067395,0.25137885 0 0 0 -0.0158,-0.007 0.4067395,0.25137885 0 0 0 -0.0184,-0.007 0.4067395,0.25137885 0 0 0 -0.0161,-0.006 0.4067395,0.25137885 0 0 0 -0.0195,-0.006 0.4067395,0.25137885 0 0 0 -0.0181,-0.005 0.4067395,0.25137885 0 0 0 -0.0186,-0.004 0.4067395,0.25137885 0 0 0 -0.0199,-0.004 0.4067395,0.25137885 0 0 0 -0.0188,-0.003 0.4067395,0.25137885 0 0 0 -0.0201,-0.003 0.4067395,0.25137885 0 0 0 -0.0231,-0.002 0.4067395,0.25137885 0 0 0 -0.016,-0.001 0.4067395,0.25137885 0 0 0 -0.0359,-10e-4 0.4067395,0.25137885 0 0 0 -5.5e-4,0 z"
         id="path15702"
         inkscape:connector-curvature="0" />
    </g>
  </g>
</svg>
