<?xml version="1.0" encoding="UTF-8" standalone="no"?>
<!-- Created with Inkscape (http://www.inkscape.org/) -->

<svg
   xmlns:dc="http://purl.org/dc/elements/1.1/"
   xmlns:cc="http://creativecommons.org/ns#"
   xmlns:rdf="http://www.w3.org/1999/02/22-rdf-syntax-ns#"
   xmlns:svg="http://www.w3.org/2000/svg"
   xmlns="http://www.w3.org/2000/svg"
   xmlns:xlink="http://www.w3.org/1999/xlink"
   xmlns:sodipodi="http://sodipodi.sourceforge.net/DTD/sodipodi-0.dtd"
   xmlns:inkscape="http://www.inkscape.org/namespaces/inkscape"
   width="0.28819469mm"
   height="0.46572804mm"
   viewBox="0 0 0.28819469 0.46572804"
   version="1.1"
   id="svg22817"
   inkscape:version="0.92.3 (2405546, 2018-03-11)"
   sodipodi:docname="fence_cor_lunar.svg">
  <defs
     id="defs22811">
    <radialGradient
       inkscape:collect="always"
       xlink:href="#linearGradient19679"
       id="radialGradient22005-1-1"
       gradientUnits="userSpaceOnUse"
       gradientTransform="matrix(1,0,0,0.74443221,-60.149007,-383.8177)"
       cx="-423.91953"
       cy="-1455.5212"
       fx="-423.91953"
       fy="-1455.5212"
       r="2.4707947" />
    <linearGradient
       id="linearGradient19679"
       inkscape:collect="always"
       gradientTransform="scale(0.46595833,2.1461146)"
       x1="-3637.3557"
       y1="-521.77808"
       x2="-3634.9612"
       y2="-521.77808"
       gradientUnits="userSpaceOnUse">
      <stop
         id="stop19675"
         offset="0"
         style="stop-color:#efbec1;stop-opacity:1" />
      <stop
         id="stop19677"
         offset="1"
         style="stop-color:#f3bcc1;stop-opacity:1" />
    </linearGradient>
  </defs>
  <sodipodi:namedview
     id="base"
     pagecolor="#ffffff"
     bordercolor="#666666"
     borderopacity="1.0"
     inkscape:pageopacity="0.0"
     inkscape:pageshadow="2"
     inkscape:zoom="256"
     inkscape:cx="0.24153002"
     inkscape:cy="0.96525197"
     inkscape:document-units="mm"
     inkscape:current-layer="layer1"
     showgrid="false"
     inkscape:snap-midpoints="true"
     inkscape:object-paths="true"
     inkscape:window-width="1920"
     inkscape:window-height="1057"
     inkscape:window-x="-8"
     inkscape:window-y="-8"
     inkscape:window-maximized="1" />
  <metadata
     id="metadata22814">
    <rdf:RDF>
      <cc:Work
         rdf:about="">
        <dc:format>image/svg+xml</dc:format>
        <dc:type
           rdf:resource="http://purl.org/dc/dcmitype/StillImage" />
        <dc:title />
      </cc:Work>
    </rdf:RDF>
  </metadata>
  <g
     inkscape:label="Layer 1"
     inkscape:groupmode="layer"
     id="layer1"
     transform="translate(128.86812,-275.01182)">
    <g
       transform="matrix(0.0485802,0,0,0.0485802,-105.20787,346.4096)"
       id="g22023-5-6">
      <rect
         style="opacity:0.12348005;fill:none;fill-opacity:1;fill-rule:nonzero;stroke:none;stroke-width:3.33504486;stroke-linecap:round;stroke-linejoin:round;stroke-miterlimit:4;stroke-dasharray:none;stroke-dashoffset:0;stroke-opacity:1;paint-order:markers stroke fill;filter:url(#filter1957)"
         id="rect21987-7-4"
         width="5.4456277"
         height="5.4456277"
         x="-486.79135"
         y="-1466.8717"
         ry="0" />
      <rect
         ry="1.148874"
         y="-1464.6467"
         x="-486.79132"
         height="4.5433207"
         width="5.4455566"
         id="rect21989-1-5"
         style="opacity:0.17640004;fill:#000000;fill-opacity:0.99590167;fill-rule:nonzero;stroke:none;stroke-width:4.05429649;stroke-linecap:round;stroke-linejoin:round;stroke-miterlimit:4;stroke-dasharray:none;stroke-dashoffset:0;stroke-opacity:1;paint-order:markers stroke fill;filter:url(#filter1957)" />
      <rect
         style="opacity:1;fill:#e998a9;fill-opacity:1;fill-rule:nonzero;stroke:#793a43;stroke-width:0.99000001;stroke-linecap:round;stroke-linejoin:round;stroke-miterlimit:4;stroke-dasharray:none;stroke-dashoffset:0;stroke-opacity:1;paint-order:markers stroke fill"
         id="rect21985-16-4"
         width="4.9415903"
         height="7.2670498"
         x="-486.53934"
         y="-1469.194"
         ry="0.77890831" />
      <rect
         ry="0.77890831"
         y="-1469.194"
         x="-486.53934"
         height="7.2670498"
         width="4.9415903"
         id="rect19702-1"
         style="opacity:1;fill:#e998a9;fill-opacity:1;fill-rule:nonzero;stroke:none;stroke-width:0.99000001;stroke-linecap:round;stroke-linejoin:round;stroke-miterlimit:4;stroke-dasharray:none;stroke-dashoffset:0;stroke-opacity:1;paint-order:markers stroke fill" />
      <path
         inkscape:connector-curvature="0"
         style="opacity:1;fill:#f8b4c1;fill-opacity:1;fill-rule:nonzero;stroke:none;stroke-width:3.74173236;stroke-linecap:round;stroke-linejoin:round;stroke-miterlimit:4;stroke-dasharray:none;stroke-dashoffset:0;stroke-opacity:0.32786889;paint-order:markers stroke fill"
         d="m -1504.1562,-9173.1621 c -1.1277,0.4119 -1.9317,1.4841 -1.9317,2.7578 v 21.5781 c 0,1.2737 0.804,2.344 1.9317,2.7559 z m 14.8124,0 v 27.0918 c 1.1277,-0.4119 1.9317,-1.4822 1.9317,-2.7559 v -21.5781 c 0,-1.2737 -0.804,-2.3459 -1.9317,-2.7578 z"
         transform="matrix(0.26458333,0,0,0.26458333,-88.053437,957.92126)"
         id="rect19698-0" />
      <rect
         ry="0.77890831"
         y="-1469.194"
         x="-486.53934"
         height="3.6786783"
         width="4.9415894"
         id="rect21999-8-3"
         style="opacity:1;fill:url(#radialGradient22005-1-1);fill-opacity:1;fill-rule:nonzero;stroke:none;stroke-width:0.99000001;stroke-linecap:round;stroke-linejoin:round;stroke-miterlimit:4;stroke-dasharray:none;stroke-dashoffset:0;stroke-opacity:1;paint-order:markers stroke fill" />
      <rect
         style="opacity:1;fill:#f0bec1;fill-opacity:1;fill-rule:nonzero;stroke:none;stroke-width:0.99000001;stroke-linecap:round;stroke-linejoin:round;stroke-miterlimit:4;stroke-dasharray:none;stroke-dashoffset:0;stroke-opacity:1;paint-order:markers stroke fill"
         id="rect22001-7-1"
         width="3.7179017"
         height="2.9014893"
         x="-485.92749"
         y="-1468.8054"
         ry="0.77890831" />
      <path
         inkscape:connector-curvature="0"
         style="opacity:1;fill:#da9fa5;fill-opacity:1;stroke:none;stroke-width:0.26458332px;stroke-linecap:butt;stroke-linejoin:miter;stroke-opacity:1"
         d="m -485.14839,-1468.8054 c -0.16182,0 -0.31181,0.049 -0.43614,0.1328 -0.0414,0.028 -0.08,0.06 -0.11525,0.095 -0.1407,0.1407 -0.22788,0.3352 -0.22788,0.5508 v 1.3436 c 0,0.4315 0.34776,0.7793 0.77927,0.7793 h 2.16009 c 0.21574,0 0.41008,-0.087 0.55086,-0.2279 0.0352,-0.035 0.0672,-0.074 0.0951,-0.1152 0.0279,-0.041 0.0522,-0.086 0.0718,-0.1323 0.0393,-0.093 0.061,-0.196 0.061,-0.3039 v -1.3436 c 0,-0.03 -0.006,-0.058 -0.009,-0.087 l -0.31313,-0.019 c 0,0 -1.79197,-0.087 -2.17922,0.1369 -0.38724,0.2236 -0.33919,0.5772 -0.23616,0.8057 0.10305,0.2286 0.24971,0.2329 0.52969,0.2449 0.27998,0.012 0.91829,-0.3441 0.91829,-0.3441 0,0 -0.84542,0.083 -0.97099,0.013 -0.12557,-0.07 -0.20072,-0.1681 -0.0134,-0.3318 0.18727,-0.1637 1.21047,-0.1242 1.48053,0.01 0.27003,0.1335 0.2718,0.6868 -0.0377,1.0067 -0.30962,0.3157 -1.94168,0.3716 -2.25362,-0.01 -0.31192,-0.3773 -0.34573,-1.2635 0.014,-1.6707 0.33359,-0.3777 1.36906,-0.3253 2.70992,-0.4139 -0.0772,-0.049 -0.16317,-0.086 -0.2558,-0.1055 -0.0553,-0.01 -0.13986,-0.017 -0.16227,-0.017 z"
         id="path22003-6-9" />
    </g>
  </g>
</svg>
