<?xml version="1.0" encoding="UTF-8" standalone="no"?>
<!-- Created with Inkscape (http://www.inkscape.org/) -->

<svg
   xmlns:dc="http://purl.org/dc/elements/1.1/"
   xmlns:cc="http://creativecommons.org/ns#"
   xmlns:rdf="http://www.w3.org/1999/02/22-rdf-syntax-ns#"
   xmlns:svg="http://www.w3.org/2000/svg"
   xmlns="http://www.w3.org/2000/svg"
   xmlns:sodipodi="http://sodipodi.sourceforge.net/DTD/sodipodi-0.dtd"
   xmlns:inkscape="http://www.inkscape.org/namespaces/inkscape"
   width="0.35022497mm"
   height="0.39359701mm"
   viewBox="0 0 0.35022497 0.39359701"
   version="1.1"
   id="svg24876"
   inkscape:version="0.92.3 (2405546, 2018-03-11)"
   sodipodi:docname="brawlball.svg">
  <defs
     id="defs24870" />
  <sodipodi:namedview
     id="base"
     pagecolor="#ffffff"
     bordercolor="#666666"
     borderopacity="1.0"
     inkscape:pageopacity="0.0"
     inkscape:pageshadow="2"
     inkscape:zoom="256"
     inkscape:cx="-0.096323614"
     inkscape:cy="0.99107419"
     inkscape:document-units="mm"
     inkscape:current-layer="g17734"
     showgrid="false"
     inkscape:snap-midpoints="true"
     inkscape:object-paths="true"
     inkscape:snap-smooth-nodes="true"
     inkscape:window-width="1920"
     inkscape:window-height="1057"
     inkscape:window-x="-8"
     inkscape:window-y="-8"
     inkscape:window-maximized="1" />
  <metadata
     id="metadata24873">
    <rdf:RDF>
      <cc:Work
         rdf:about="">
        <dc:format>image/svg+xml</dc:format>
        <dc:type
           rdf:resource="http://purl.org/dc/dcmitype/StillImage" />
        <dc:title />
      </cc:Work>
    </rdf:RDF>
  </metadata>
  <g
     inkscape:label="Layer 1"
     inkscape:groupmode="layer"
     id="layer1"
     transform="translate(459.54699,128.43024)">
    <g
       id="g17734"
       transform="matrix(0.04858667,0,0,0.04858667,-440.60045,-28.044944)">
      <rect
         ry="3.3334057"
         y="-2064.7322"
         x="-389.68274"
         height="6.7253151"
         width="6.666811"
         id="rect17708"
         style="opacity:0.18000004;fill:#000000;fill-opacity:0.99590167;fill-rule:nonzero;stroke:none;stroke-width:4.96352005;stroke-linecap:round;stroke-linejoin:round;stroke-miterlimit:4;stroke-dasharray:none;stroke-dashoffset:0;stroke-opacity:1;paint-order:markers stroke fill;filter:url(#filter1957)" />
      <circle
         style="opacity:1;fill:#cc9434;fill-opacity:1;fill-rule:nonzero;stroke:#302828;stroke-width:0.86883485;stroke-linecap:round;stroke-linejoin:round;stroke-miterlimit:4;stroke-dasharray:none;stroke-dashoffset:0;stroke-opacity:1;paint-order:markers stroke fill"
         id="circle17710"
         cx="-386.3493"
         cy="-2062.5037"
         r="3.1697087" />
      <circle
         r="3.1697087"
         cy="-2062.5037"
         cx="-386.3493"
         id="circle17712"
         style="opacity:1;fill:#cc9434;fill-opacity:1;fill-rule:nonzero;stroke:none;stroke-width:0.4049947;stroke-linecap:round;stroke-linejoin:round;stroke-miterlimit:4;stroke-dasharray:none;stroke-dashoffset:0;stroke-opacity:1;paint-order:markers stroke fill" />
      <circle
         style="opacity:1;fill:#c07c10;fill-opacity:1;fill-rule:nonzero;stroke:none;stroke-width:0.33722314;stroke-linecap:round;stroke-linejoin:round;stroke-miterlimit:4;stroke-dasharray:none;stroke-dashoffset:0;stroke-opacity:1;paint-order:markers stroke fill"
         id="circle17714"
         cx="-386.3493"
         cy="-2062.5037"
         r="2.6392915" />
      <path
         id="path17716"
         d="m -386.34933,-2064.229 c -1.23909,0 -2.3475,0.4005 -3.0899,1.0306 a 3.1697087,3.1697087 0 0 0 -0.0474,0.2689 c 0.74208,-0.594 1.872,-0.9735 3.13735,-0.9738 1.26516,0 2.39511,0.3794 3.13734,0.9737 a 3.1697087,3.1697087 0 0 0 -0.0489,-0.27 c -0.7424,-0.6294 -1.85023,-1.0292 -3.08856,-1.0292 z"
         style="opacity:1;fill:#a06418;fill-opacity:1;fill-rule:nonzero;stroke:none;stroke-width:0.4383007;stroke-linecap:round;stroke-linejoin:round;stroke-miterlimit:4;stroke-dasharray:none;stroke-dashoffset:0;stroke-opacity:1;paint-order:markers stroke fill"
         inkscape:connector-curvature="0" />
      <path
         id="path17718"
         d="m -386.34933,-2063.9033 a 4.0473017,2.6392916 0 0 0 -3.13735,0.9741 3.1697087,3.1697087 0 0 0 -0.0268,0.3149 4.0473017,2.6392916 0 0 1 3.16414,-1.0017 4.0473017,2.6392916 0 0 1 3.16547,0.9959 3.1697087,3.1697087 0 0 0 -0.028,-0.3082 4.0473017,2.6392916 0 0 0 -3.13749,-0.975 z"
         style="opacity:1;fill:#d09c4c;fill-opacity:1;fill-rule:nonzero;stroke:none;stroke-width:0.41759613;stroke-linecap:round;stroke-linejoin:round;stroke-miterlimit:4;stroke-dasharray:none;stroke-dashoffset:0;stroke-opacity:1;paint-order:markers stroke fill"
         inkscape:connector-curvature="0" />
      <path
         inkscape:connector-curvature="0"
         style="opacity:1;fill:#b86410;fill-opacity:1;fill-rule:nonzero;stroke:none;stroke-width:0.33722314;stroke-linecap:round;stroke-linejoin:round;stroke-miterlimit:4;stroke-dasharray:none;stroke-dashoffset:0;stroke-opacity:1;paint-order:markers stroke fill"
         d="m -388.98845,-2062.5067 a 2.6392916,2.6392916 0 0 0 -1.6e-4,0 2.6392916,2.6392916 0 0 0 2.63928,2.6393 2.6392916,2.6392916 0 0 0 2.63927,-2.6393 2.6392916,2.6392916 0 0 0 -1.5e-4,0 3.1697087,2.7674199 0 0 1 -2.63912,1.2377 3.1697087,2.7674199 0 0 1 -2.63912,-1.2378 z"
         id="path17720" />
      <path
         inkscape:connector-curvature="0"
         style="opacity:1;fill:#c47c34;fill-opacity:1;fill-rule:nonzero;stroke:none;stroke-width:0.41759613;stroke-linecap:round;stroke-linejoin:round;stroke-miterlimit:4;stroke-dasharray:none;stroke-dashoffset:0;stroke-opacity:1;paint-order:markers stroke fill"
         d="m -383.7602,-2063.0045 a 2.6392916,2.6392916 0 0 1 0.0501,0.5008 2.6392916,2.6392916 0 0 1 -2.63927,2.6393 2.6392916,2.6392916 0 0 1 -2.63928,-2.6393 2.6392916,2.6392916 0 0 1 0.0487,-0.4971 4.0473017,2.6392916 0 0 0 -0.57335,0.3825 3.1697084,3.1697084 0 0 0 -0.006,0.1146 3.1697084,3.1697084 0 0 0 3.16967,3.1697 3.1697084,3.1697084 0 0 0 3.16966,-3.1697 3.1697084,3.1697084 0 0 0 -0.006,-0.1185 4.0473017,2.6392916 0 0 0 -0.57455,-0.3823 z"
         id="path17722" />
      <path
         id="path17724"
         d="m -386.34933,-2064.229 c -0.87973,0 -1.69322,0.2023 -2.35716,0.5448 a 2.6392916,2.6392916 0 0 0 -0.14472,0.3472 c 0.68874,-0.3542 1.5574,-0.5661 2.50188,-0.5663 0.94374,0 1.81186,0.2115 2.50053,0.5654 a 2.6392916,2.6392916 0 0 0 -0.14008,-0.3445 c -0.66458,-0.3435 -1.47935,-0.5464 -2.36061,-0.5464 z"
         style="opacity:1;fill:#8c4c08;fill-opacity:1;fill-rule:nonzero;stroke:none;stroke-width:0.4383007;stroke-linecap:round;stroke-linejoin:round;stroke-miterlimit:4;stroke-dasharray:none;stroke-dashoffset:0;stroke-opacity:1;paint-order:markers stroke fill"
         inkscape:connector-curvature="0" />
      <path
         id="path17726"
         d="m -386.34933,-2063.9033 a 4.0473017,2.6392916 0 0 0 -2.50278,0.5688 2.6392916,2.6392916 0 0 0 -0.0885,0.3366 4.0473017,2.6392916 0 0 1 2.59123,-0.6181 4.0473017,2.6392916 0 0 1 2.58943,0.6123 2.6392916,2.6392916 0 0 0 -0.089,-0.3349 4.0473017,2.6392916 0 0 0 -2.50039,-0.5647 z"
         style="opacity:1;fill:#c48c34;fill-opacity:1;fill-rule:nonzero;stroke:none;stroke-width:0.41759613;stroke-linecap:round;stroke-linejoin:round;stroke-miterlimit:4;stroke-dasharray:none;stroke-dashoffset:0;stroke-opacity:1;paint-order:markers stroke fill"
         inkscape:connector-curvature="0" />
      <rect
         rx="0"
         style="opacity:1;fill:#dcc4b4;fill-opacity:1;fill-rule:nonzero;stroke:#502c08;stroke-width:0.57922322;stroke-linecap:round;stroke-linejoin:round;stroke-miterlimit:4;stroke-dasharray:none;stroke-dashoffset:0;stroke-opacity:1;paint-order:markers stroke fill"
         id="rect17728"
         width="1.3984319"
         height="2.2269549"
         x="-387.05078"
         y="-2064.8479"
         ry="0.61450535" />
      <rect
         ry="0.61450535"
         y="-2064.8479"
         x="-387.05078"
         height="2.2269549"
         width="1.3984319"
         id="rect17730"
         style="opacity:1;fill:#dcc4b4;fill-opacity:1;fill-rule:nonzero;stroke:none;stroke-width:0.38947949;stroke-linecap:round;stroke-linejoin:round;stroke-miterlimit:4;stroke-dasharray:none;stroke-dashoffset:0;stroke-opacity:1;paint-order:markers stroke fill"
         rx="0" />
      <path
         inkscape:connector-curvature="0"
         style="opacity:1;fill:#c09c78;fill-opacity:1;fill-rule:nonzero;stroke:none;stroke-width:0.38947949;stroke-linecap:round;stroke-linejoin:round;stroke-miterlimit:4;stroke-dasharray:none;stroke-dashoffset:0;stroke-opacity:1;paint-order:markers stroke fill"
         d="m -386.43629,-2064.2993 c -0.34043,0 -0.6145,0.274 -0.6145,0.6145 v 0.4494 c 0,0.3405 0.27407,0.6145 0.6145,0.6145 h 0.16942 c 0.34044,0 0.61451,-0.274 0.61451,-0.6145 v -0.4494 c 0,-0.3405 -0.27407,-0.6145 -0.61451,-0.6145 z"
         id="path17732" />
    </g>
  </g>
</svg>
