<?xml version="1.0" ?><svg xmlns:dc="http://purl.org/dc/elements/1.1/" xmlns:cc="http://creativecommons.org/ns#" xmlns:rdf="http://www.w3.org/1999/02/22-rdf-syntax-ns#" xmlns:svg="http://www.w3.org/2000/svg" xmlns="http://www.w3.org/2000/svg" xmlns:sodipodi="http://sodipodi.sourceforge.net/DTD/sodipodi-0.dtd" xmlns:inkscape="http://www.inkscape.org/namespaces/inkscape" sodipodi:docname="bandstand_wall.svg" inkscape:version="1.0 (4035a4fb49, 2020-05-01)" id="svg3893" version="1.1" viewBox="0 0 0.26458335 0.47624886" height="0.47624886mm" width="0.26458335mm">
  <defs id="defs3887"/>
  <sodipodi:namedview inkscape:window-maximized="1" inkscape:window-y="-8" inkscape:window-x="-8" inkscape:window-height="1057" inkscape:window-width="1920" showgrid="false" inkscape:document-rotation="0" inkscape:current-layer="layer1" inkscape:document-units="px" inkscape:cy="1.4164237" inkscape:cx="-0.31728723" inkscape:zoom="256" inkscape:pageshadow="2" inkscape:pageopacity="0.0" borderopacity="1.0" bordercolor="#666666" pagecolor="#ffffff" id="base"/>
  <metadata id="metadata3890">
    <rdf:RDF>
      <cc:Work rdf:about="">
        <dc:format>image/svg+xml</dc:format>
        <dc:type rdf:resource="http://purl.org/dc/dcmitype/StillImage"/>
        <dc:title/>
      </cc:Work>
    </rdf:RDF>
  </metadata>
  <g transform="translate(-65.389881,-61.76132)" id="layer1" inkscape:groupmode="layer" inkscape:label="Layer 1">
    <g transform="matrix(0.04999997,0,0,0.04999997,51.56541,66.32538)" id="g3005">
      <path d="m 277.42414,-84.931252 h 3.42202 c 0.51774,0 0.93455,0.41683 0.93455,0.934596 v 1.305794 c 0,0.517766 -0.41681,0.934595 -0.93455,0.934595 h -3.42202 c -0.51774,0 -0.93455,-0.416829 -0.93455,-0.934595 v -1.305794 c 0,-0.517766 0.41681,-0.934596 0.93455,-0.934596 z" style="opacity:1;fill:#000000;fill-opacity:0.18;fill-rule:nonzero;stroke:none;stroke-width:3.9397;stroke-linecap:round;stroke-linejoin:round;stroke-miterlimit:4;stroke-dasharray:none;stroke-dashoffset:0;stroke-opacity:1;paint-order:markers stroke fill;filter:url(#filter1957)" id="rect2435"/>
      <path d="m 276.48958,-91.28125 h 5.29167 v 7.9375 h -5.29167 z" style="fill:#004030;fill-opacity:1;stroke-width:0.0264583;stroke-linecap:square;paint-order:markers fill stroke" id="path2413"/>
      <path id="path2433" style="fill:#005c3c;fill-opacity:1;stroke-width:0.0264583;stroke-linecap:square;paint-order:markers fill stroke" d="m 277.01875,-90.752085 h 4.23334 v 6.87917 h -4.23334 z"/>
      <path d="m 278.34168,-86.518752 h 1.58747 v 0.529167 h -1.58747 z" style="fill:#00402c;fill-opacity:1;stroke-width:0.0264583;stroke-linecap:square;paint-order:markers fill stroke" id="path2421"/>
      <path d="m 277.01876,-90.752084 h 4.23334 v 3.704165 h -4.23334 z" style="fill:#18b890;fill-opacity:1;stroke-width:0.0264583;stroke-linecap:square;paint-order:markers fill stroke" id="path2423"/>
      <path id="path2425" style="fill:#00a47c;fill-opacity:1;stroke-width:0.0264583;stroke-linecap:square;paint-order:markers fill stroke" d="m 277.54794,-90.222918 h 3.17498 v 2.645832 h -3.17498 z"/>
      <path d="m 277.01874,-85.989584 h 4.23334 v 2.116671 h -4.23334 z" style="fill:#c46c00;fill-opacity:1;stroke-width:0.0264583;stroke-linecap:square;paint-order:markers fill stroke" id="path2429"/>
      <path id="path2415" style="fill:#cc8024;fill-opacity:1;stroke-width:0.0264583;stroke-linecap:square;paint-order:markers fill stroke" d="m 278.34167,-85.460418 c -0.14658,0 -0.26459,0.118004 -0.26459,0.264584 v 1.322916 h 2.11667 v -1.322916 c 0,-0.14658 -0.118,-0.264584 -0.26458,-0.264584 H 279.4 278.87083 Z"/>
      <path id="path2417" style="fill:#a84020;fill-opacity:1;stroke-width:0.0264583;stroke-linecap:square;paint-order:markers fill stroke" d="m 278.60625,-85.460418 c -0.14658,0 -0.26458,0.118004 -0.26458,0.264584 v 1.322916 h 1.5875 v -1.322916 c 0,-0.14658 -0.11801,-0.264584 -0.26459,-0.264584 z"/>
      <path id="path2419" style="fill:#8c341c;fill-opacity:1;stroke-width:0.0264583;stroke-linecap:square;paint-order:markers fill stroke" d="m 278.60625,-85.460418 c -0.14658,0 -0.26458,0.118004 -0.26458,0.264584 v 0.529166 c 0,-0.146579 0.118,-0.264583 0.26458,-0.264583 h 1.05833 c 0.14658,0 0.26459,0.118004 0.26459,0.264583 v -0.529166 c 0,-0.14658 -0.11801,-0.264584 -0.26459,-0.264584 z"/>
    </g>
  </g>
</svg>