<?xml version="1.0" encoding="UTF-8" standalone="no"?>
<svg
   width="0.35718754mm"
   height="0.41010416mm"
   viewBox="0 0 0.35718754 0.41010416"
   version="1.1"
   id="svg3893"
   inkscape:version="1.1 (c68e22c387, 2021-05-23)"
   sodipodi:docname="basketball.svg"
   xmlns:inkscape="http://www.inkscape.org/namespaces/inkscape"
   xmlns:sodipodi="http://sodipodi.sourceforge.net/DTD/sodipodi-0.dtd"
   xmlns="http://www.w3.org/2000/svg"
   xmlns:svg="http://www.w3.org/2000/svg"
   xmlns:rdf="http://www.w3.org/1999/02/22-rdf-syntax-ns#"
   xmlns:cc="http://creativecommons.org/ns#"
   xmlns:dc="http://purl.org/dc/elements/1.1/">
  <defs
     id="defs3887" />
  <sodipodi:namedview
     id="base"
     pagecolor="#ffffff"
     bordercolor="#666666"
     borderopacity="1.0"
     inkscape:pageopacity="0.0"
     inkscape:pageshadow="2"
     inkscape:zoom="3.959798"
     inkscape:cx="11.616754"
     inkscape:cy="-14.268405"
     inkscape:document-units="px"
     inkscape:current-layer="layer1"
     inkscape:document-rotation="0"
     showgrid="false"
     inkscape:pagecheckerboard="0"
     inkscape:window-width="1920"
     inkscape:window-height="1057"
     inkscape:window-x="-8"
     inkscape:window-y="-8"
     inkscape:window-maximized="1" />
  <metadata
     id="metadata3890">
    <rdf:RDF>
      <cc:Work
         rdf:about="">
        <dc:format>image/svg+xml</dc:format>
        <dc:type
           rdf:resource="http://purl.org/dc/dcmitype/StillImage" />
      </cc:Work>
    </rdf:RDF>
  </metadata>
  <g
     inkscape:label="Layer 1"
     inkscape:groupmode="layer"
     id="layer1"
     transform="translate(-164.24956,-314.15491)">
    <g
       id="g362998"
       transform="matrix(0.04999606,0,0,0.0499937,109.88197,318.48035)"
       style="stroke-width:20.002">
      <path
         id="path356755"
         style="color:#000000;fill:#000000;fill-opacity:0.180392;stroke-width:21.1688;stroke-linecap:round;-inkscape-stroke:none;paint-order:markers fill stroke"
         d="m 1091.0099,-85.461451 c -1.9664,0 -3.5724,1.605976 -3.5724,3.572393 0,1.966418 1.606,3.572391 3.5724,3.572391 1.9664,0 3.5719,-1.605973 3.5719,-3.572391 0,-1.966417 -1.6055,-3.572393 -3.5719,-3.572393 z" />
      <path
         id="path355201"
         style="color:#000000;fill:#302c28;fill-opacity:1;stroke-width:80.008;stroke-linecap:round;-inkscape-stroke:none;paint-order:markers fill stroke"
         d="m 4123.502,-327.00391 c -7.4321,0 -13.502,6.06983 -13.502,13.50196 0,7.43213 6.0699,13.50195 13.502,13.50195 7.432,0 13.5,-6.06982 13.5,-13.50195 0,-7.43213 -6.068,-13.50196 -13.5,-13.50196 z"
         transform="scale(0.26458333)" />
      <path
         id="ellipse341800"
         style="opacity:1;fill:#c07834;fill-opacity:1;stroke:none;stroke-width:40.0042;stroke-linecap:round;stroke-miterlimit:4;stroke-dasharray:none;paint-order:markers fill stroke"
         d="m 4123.5,-325 a 11.499825,11.499995 0 0 1 0.4785,0.0117 A 11.499825,11.499995 0 0 0 4123.5,-325 Z m 0.5039,0.0117 v 9.05273 c 3.0957,-0.23486 6.2098,-2.60703 7.0879,-5.88476 l 0.066,-0.25781 a 11.499825,11.499995 0 0 0 -7.1543,-2.91016 z m 7.1543,2.91016 a 11.499825,11.499995 0 0 1 0.8106,0.79882 11.499825,11.499995 0 0 0 -0.8106,-0.79882 z m 0.8106,0.79882 c -1.1013,3.59818 -4.4821,6.1208 -7.9649,6.34375 v 2.98828 c 4.2509,-0.041 7.9931,-0.60978 10.7695,-1.99804 l 0.2129,-0.10742 a 11.499825,11.499995 0 0 0 -3.0175,-7.22657 z m -8.9688,-3.7031 a 11.499825,11.499995 0 0 0 -7.1582,2.91015 v 0.002 l 0.07,0.25 c 0.8782,3.27792 3.9917,5.65014 7.0879,5.88476 z m -7.1719,2.92383 a 11.499825,11.499995 0 0 0 -0.7929,0.77734 11.499825,11.499995 0 0 1 0.7929,-0.77734 z m -0.7949,0.77929 a 11.499825,11.499995 0 0 0 -3.0117,7.23047 l 0.2012,0.10352 c 2.7764,1.38826 6.5256,1.95709 10.7773,1.99804 v -2.9707 -0.0176 c -3.4832,-0.22296 -6.8658,-2.74527 -7.9668,-6.34375 z m 19.9531,7.25391 a 11.499825,11.499995 0 0 1 0.014,0.52539 11.499825,11.499995 0 0 0 -0.014,-0.52539 z m -22.9648,1.08789 a 11.499825,11.499995 0 0 0 4.0937,8.24219 c 1.5756,-1.96051 4.2138,-3.21112 6.8848,-3.35157 v -0.0137 -2.8789 -0.004 c -4.2242,-0.0391 -8.0136,-0.58182 -10.9785,-1.99414 z m 4.0937,8.24219 a 11.499825,11.499995 0 0 0 0.8067,0.62304 11.499825,11.499995 0 0 1 -0.8067,-0.62304 z m 0.8067,0.62304 a 11.499825,11.499995 0 0 0 6.0781,2.05469 v -5.03125 c -2.3578,0.14571 -4.6992,1.30215 -6.0781,2.97656 z m 18.0566,-8.86328 c -2.9644,1.41093 -6.7527,1.95316 -10.9746,1.99219 v 0.004 2.8789 0.0137 c 2.6699,0.14088 5.3076,1.39192 6.8828,3.35157 a 11.499825,11.499995 0 0 0 4.0918,-8.24024 z m -10.9746,5.88672 v 5.03125 a 11.499825,11.499995 0 0 0 6.0762,-2.05469 c -1.379,-1.67391 -3.7188,-2.83087 -6.0762,-2.97656 z m 6.875,2.35938 a 11.499825,11.499995 0 0 1 -0.7695,0.59375 11.499825,11.499995 0 0 0 0.7695,-0.59375 z"
         transform="scale(0.26458333)" />
      <path
         id="ellipse341802"
         style="opacity:1;fill:#b86410;fill-opacity:1;stroke:none;stroke-width:40.0042;stroke-linecap:round;stroke-miterlimit:4;stroke-dasharray:none;paint-order:markers fill stroke"
         d="m 4124.0039,-323.48633 v 7.55078 c 2.6723,-0.20273 5.3559,-2.00005 6.6055,-4.5957 a 9.9998537,10.000001 0 0 0 -6.6055,-2.95508 z m -1.0039,0.004 a 9.9998537,10.000001 0 0 0 -6.6035,2.95508 c 1.2504,2.59366 3.9322,4.38937 6.6035,4.59179 z m -7.3164,3.74609 a 9.9998537,10.000001 0 0 0 -2.1836,6.23633 9.9998537,10.000001 0 0 0 0,0.10938 c 2.6048,0.98612 5.8659,1.40839 9.4961,1.44335 v -2.9707 -0.0176 c -2.9592,-0.18942 -5.8398,-2.0422 -7.3164,-4.80078 z m 15.6348,0 c -1.4765,2.75846 -4.3556,4.61137 -7.3145,4.80078 v 2.98828 c 3.6309,-0.035 6.8884,-0.45646 9.4922,-1.44335 a 9.9998537,10.000001 0 0 0 0,-0.10938 9.9998537,10.000001 0 0 0 -2.1816,-6.23633 z m -17.7403,7.4336 a 9.9998537,10.000001 0 0 0 3.5879,6.53515 c 1.5692,-1.33652 3.6898,-2.16655 5.834,-2.2793 v -0.0137 -2.8789 -0.004 c -3.518,-0.0325 -6.7321,-0.41681 -9.4219,-1.35937 z m 19.8438,0.002 c -2.6891,0.94158 -5.902,1.32492 -9.418,1.35742 v 0.004 2.8789 0.0137 c 2.1429,0.11308 4.2633,0.94162 5.832,2.27735 a 9.9998537,10.000001 0 0 0 3.586,-6.53125 z M 4123,-307.04883 c -1.8134,0.11207 -3.6149,0.82458 -4.9785,1.90821 a 9.9998537,10.000001 0 0 0 4.9785,1.62304 z m 1.0039,0 v 3.53125 a 9.9998537,10.000001 0 0 0 4.9766,-1.625 c -1.3631,-1.0831 -3.1639,-1.79422 -4.9766,-1.90625 z"
         transform="scale(0.26458333)" />
      <path
         id="ellipse345862"
         style="opacity:1;fill:#cc9434;fill-opacity:1;stroke:none;stroke-width:40.0042;stroke-linecap:round;stroke-miterlimit:4;stroke-dasharray:none;paint-order:markers fill stroke"
         d="m 4123,-324.9668 a 11.499825,11.499995 0 0 0 -7.1523,2.91797 l 0.064,0.22852 c 0.8782,3.27792 3.9917,5.65014 7.0879,5.88476 z m 1.0039,0.002 v 9.02929 c 3.0957,-0.23486 6.2098,-2.60703 7.0879,-5.88476 l 0.059,-0.23047 a 11.499825,11.499995 0 0 0 -7.1465,-2.91406 z m -8.6758,3.39648 a 11.499825,11.499995 0 0 0 -0.2207,0.21484 11.499825,11.499995 0 0 1 0.2207,-0.21484 z m 16.3672,0.0195 a 11.499825,11.499995 0 0 1 0.1953,0.19141 11.499825,11.499995 0 0 0 -0.1953,-0.19141 z m -16.6582,0.28125 a 11.499825,11.499995 0 0 0 -2.9961,6.83789 13.499918,11.500004 0 0 0 0.5508,0.65821 c 2.7358,1.26039 6.3412,1.78504 10.4082,1.82421 v -2.9707 -0.0176 c -3.4794,-0.22271 -6.8581,-2.73987 -7.9629,-6.33203 z m 16.9277,0 c -1.1051,3.59186 -4.4819,6.10933 -7.9609,6.33203 v 2.98828 c 4.0702,-0.0392 7.672,-0.56506 10.4082,-1.82812 a 13.499918,11.500004 0 0 0 0.5488,-0.65625 11.499825,11.499995 0 0 0 -2.9961,-6.83594 z m -17.58,9.23047 a 13.499918,11.500004 0 0 0 8.6152,3.00977 v -1.91211 -0.004 c -3.1722,-0.0293 -6.0985,-0.34138 -8.6152,-1.09375 z m 18.2324,0 c -2.5161,0.75163 -5.4428,1.06444 -8.6133,1.09375 v 0.004 1.91211 a 13.499918,11.500004 0 0 0 8.6133,-3.00977 z"
         transform="scale(0.26458333)" />
      <path
         id="ellipse345860"
         style="opacity:1;fill:#c07c10;fill-opacity:1;stroke:none;stroke-width:40.0042;stroke-linecap:round;stroke-miterlimit:4;stroke-dasharray:none;paint-order:markers fill stroke"
         d="m 4123,-323.4668 a 9.9998535,10.000001 0 0 0 -6.6035,2.93555 c 1.2497,2.59535 3.9311,4.3932 6.6035,4.5957 z m 1.0039,0 v 7.53125 c 2.6715,-0.20267 5.3534,-1.99937 6.6035,-4.59375 a 9.9998535,10.000001 0 0 0 -6.6035,-2.9375 z m -8.3164,3.74024 a 9.9998535,10.000001 0 0 0 -2.1875,6.22656 9.9998535,10.000001 0 0 0 0,0.10938 c 2.6048,0.98612 5.8659,1.40839 9.4961,1.44335 v -2.9707 -0.0176 c -2.9559,-0.18921 -5.8344,-2.03753 -7.3125,-4.79101 z m 15.625,0.002 c -1.4783,2.75207 -4.3538,4.59992 -7.3086,4.78906 v 2.98828 c 3.6328,-0.035 6.8916,-0.45731 9.4961,-1.44531 a 9.9998535,10.000001 0 0 0 0,-0.10742 9.9998535,10.000001 0 0 0 -2.1875,-6.22461 z m -16.9121,7.69141 a 13.499918,11.500004 0 0 0 8.5996,3.00781 v -1.91406 -0.004 c -3.1657,-0.0293 -6.0863,-0.3408 -8.5996,-1.08984 z m 18.2012,0 c -2.5127,0.7483 -5.4337,1.06059 -8.5977,1.08984 v 0.004 1.91406 a 13.499918,11.500004 0 0 0 8.5977,-3.00781 z"
         transform="scale(0.26458333)" />
    </g>
  </g>
</svg>
