<?xml version="1.0" encoding="UTF-8" standalone="no"?>
<svg
   xmlns:dc="http://purl.org/dc/elements/1.1/"
   xmlns:cc="http://creativecommons.org/ns#"
   xmlns:rdf="http://www.w3.org/1999/02/22-rdf-syntax-ns#"
   xmlns:svg="http://www.w3.org/2000/svg"
   xmlns="http://www.w3.org/2000/svg"
   xmlns:xlink="http://www.w3.org/1999/xlink"
   xmlns:sodipodi="http://sodipodi.sourceforge.net/DTD/sodipodi-0.dtd"
   xmlns:inkscape="http://www.inkscape.org/namespaces/inkscape"
   sodipodi:docname="cactus_ball.svg"
   inkscape:version="1.0 (4035a4fb49, 2020-05-01)"
   id="svg3893"
   version="1.1"
   viewBox="0 0 0.28885883 0.33728662"
   height="0.33728662mm"
   width="0.28885883mm">
  <defs
     id="defs3887">
    <linearGradient
       inkscape:collect="always"
       xlink:href="#linearGradient7043"
       id="linearGradient7037"
       x1="777.08124"
       y1="-78.581253"
       x2="777.08124"
       y2="-76.729164"
       gradientUnits="userSpaceOnUse" />
    <linearGradient
       inkscape:collect="always"
       id="linearGradient7043">
      <stop
         style="stop-color:#48ac84;stop-opacity:1"
         offset="0"
         id="stop7039" />
      <stop
         style="stop-color:#249428;stop-opacity:1"
         offset="1"
         id="stop7041" />
    </linearGradient>
    <linearGradient
       inkscape:collect="always"
       xlink:href="#linearGradient7049"
       id="linearGradient7051"
       x1="2933"
       y1="-297"
       x2="2933"
       y2="-290"
       gradientUnits="userSpaceOnUse" />
    <linearGradient
       inkscape:collect="always"
       id="linearGradient7049">
      <stop
         style="stop-color:#409c74;stop-opacity:1"
         offset="0"
         id="stop7045" />
      <stop
         style="stop-color:#208828;stop-opacity:1"
         offset="1"
         id="stop7047" />
    </linearGradient>
  </defs>
  <sodipodi:namedview
     inkscape:window-maximized="1"
     inkscape:window-y="-8"
     inkscape:window-x="-8"
     inkscape:window-height="1057"
     inkscape:window-width="1920"
     fit-margin-bottom="0"
     fit-margin-right="0"
     fit-margin-left="0"
     fit-margin-top="0"
     showgrid="false"
     inkscape:document-rotation="0"
     inkscape:current-layer="layer1"
     inkscape:document-units="px"
     inkscape:cy="1.3234689"
     inkscape:cx="1.081643"
     inkscape:zoom="253.42707"
     inkscape:pageshadow="2"
     inkscape:pageopacity="0.0"
     borderopacity="1.0"
     bordercolor="#666666"
     pagecolor="#ffffff"
     id="base" />
  <metadata
     id="metadata3890">
    <rdf:RDF>
      <cc:Work
         rdf:about="">
        <dc:format>image/svg+xml</dc:format>
        <dc:type
           rdf:resource="http://purl.org/dc/dcmitype/StillImage" />
        <dc:title></dc:title>
      </cc:Work>
    </rdf:RDF>
  </metadata>
  <g
     transform="translate(-121.08755,-105.48422)"
     id="layer1"
     inkscape:groupmode="layer"
     inkscape:label="Layer 1">
    <g
       transform="matrix(0.04999913,0,0,0.04999913,82.37856,109.51238)"
       id="g7096">
      <ellipse
         ry="2.6458247"
         rx="2.6458435"
         cy="-76.464577"
         cx="777.08124"
         id="ellipse3144-2"
         style="opacity:1;fill:#000000;fill-opacity:0.18;fill-rule:nonzero;stroke:none;stroke-width:1.05833;stroke-linecap:round;stroke-linejoin:round;stroke-miterlimit:4;stroke-dasharray:none;stroke-dashoffset:0;stroke-opacity:1;paint-order:markers fill stroke" />
      <path
         transform="scale(0.26458333)"
         d="m 2933.8223,-304.49609 a 2.0001938,2.0001938 0 0 0 -1.9942,1.7207 c -0.1164,0.83513 -0.4452,1.7585 -0.8261,2.73047 -2.3232,1.54818 -4.0004,3.83266 -4.002,6.54101 a 2.0001938,2.0001938 0 0 0 0,0.008 c 2e-4,0.61014 0.2109,1.18867 0.3613,1.77929 -0.1353,0.34927 -0.2956,0.68269 -0.6699,1.04688 a 2.0001938,2.0001938 0 0 0 0.043,2.91015 c 1.7989,1.64137 3.7766,1.4819 5.1894,1.59375 1.5548,0.77469 3.3015,1.16626 5.0782,1.16602 4.4094,-9e-5 8.4641,-2.41059 9.6718,-6.3418 0.4064,-1.11985 0.6048,-1.998 0.9883,-2.67773 a 2.0001938,2.0001938 0 0 0 -0.4433,-2.50391 c -0.6491,-0.55443 -1.4513,-1.40067 -2.295,-2.14844 a 2.0001938,2.0001938 0 0 0 -0.5605,-0.3457 c -1.7307,-1.66239 -4.0175,-2.6315 -6.5332,-2.8125 -0.9904,-0.99399 -2.0244,-1.89773 -3.1153,-2.45117 a 2.0001938,2.0001938 0 0 0 -0.8925,-0.21484 z"
         style="color:#000000;font-style:normal;font-variant:normal;font-weight:normal;font-stretch:normal;font-size:medium;line-height:normal;font-family:sans-serif;font-variant-ligatures:normal;font-variant-position:normal;font-variant-caps:normal;font-variant-numeric:normal;font-variant-alternates:normal;font-variant-east-asian:normal;font-feature-settings:normal;font-variation-settings:normal;text-indent:0;text-align:start;text-decoration:none;text-decoration-line:none;text-decoration-style:solid;text-decoration-color:#000000;letter-spacing:normal;word-spacing:normal;text-transform:none;writing-mode:lr-tb;direction:ltr;text-orientation:mixed;dominant-baseline:auto;baseline-shift:baseline;text-anchor:start;white-space:normal;shape-padding:0;shape-margin:0;inline-size:0;clip-rule:nonzero;display:inline;overflow:visible;visibility:visible;isolation:auto;mix-blend-mode:normal;color-interpolation:sRGB;color-interpolation-filters:linearRGB;solid-color:#000000;solid-opacity:1;vector-effect:none;fill:#08500c;fill-opacity:1;fill-rule:nonzero;stroke:none;stroke-width:3.99999;stroke-linecap:round;stroke-linejoin:round;stroke-miterlimit:4;stroke-dasharray:none;stroke-dashoffset:0;stroke-opacity:1;paint-order:markers stroke fill;color-rendering:auto;image-rendering:auto;shape-rendering:auto;text-rendering:auto;enable-background:accumulate;stop-color:#000000"
         id="path7067" />
      <ellipse
         style="opacity:1;fill:url(#linearGradient7037);fill-opacity:1;stroke:none;stroke-width:1.05833;stroke-linecap:round;stroke-miterlimit:4;stroke-dasharray:none;paint-order:markers stroke fill"
         id="ellipse7016"
         cx="777.08124"
         cy="-77.655205"
         rx="2.116679"
         ry="1.7197897" />
      <path
         transform="scale(0.26458333)"
         d="m 2936.8926,-300 a 8.0000466,6.4999925 0 0 0 -7.8926,6.5 8.0000466,6.4999925 0 0 0 8,6.5 8.0000466,6.4999925 0 0 0 0.01,0 5.9999497,7.5000049 0 0 1 -3.0078,-6.5 5.9999497,7.5000049 0 0 1 3.0078,-6.5 8.0000466,6.4999925 0 0 0 -0.01,0 8.0000466,6.4999925 0 0 0 -0.1074,0 z"
         style="opacity:1;fill:url(#linearGradient7051);fill-opacity:1;stroke:none;stroke-width:3.99999;stroke-linecap:round;stroke-miterlimit:4;stroke-dasharray:none;paint-order:markers stroke fill"
         id="ellipse7026" />
      <path
         style="opacity:1;fill:#8ce090;fill-opacity:1;stroke:none;stroke-width:0.264583px;stroke-linecap:butt;stroke-linejoin:miter;stroke-opacity:1"
         d="m 775.07806,-77.099608 c -0.0607,0.219717 -0.18587,0.407145 -0.35557,0.572337 0.337,0.30749 0.81298,0.277482 1.25172,0.337896 0.0978,-0.436191 -0.36817,-1.048661 -0.89615,-0.910233 z"
         id="path7018"
         sodipodi:nodetypes="cccc" />
      <path
         style="opacity:1;fill:#8ce090;fill-opacity:1;stroke:none;stroke-width:0.264583px;stroke-linecap:butt;stroke-linejoin:miter;stroke-opacity:1"
         d="m 775.9627,-79.115254 c 0.1212,-0.300672 0.22994,-0.603836 0.27403,-0.919929 0.30252,0.153496 0.58865,0.358891 0.84449,0.660193 0.0439,0.430216 -0.88049,0.69403 -1.11852,0.259736 z"
         id="path7020"
         sodipodi:nodetypes="cccc" />
      <path
         style="opacity:1;fill:#8ce090;fill-opacity:1;stroke:none;stroke-width:0.264583;stroke-linecap:butt;stroke-linejoin:miter;stroke-miterlimit:4;stroke-dasharray:none;stroke-opacity:1"
         d="m 778.82655,-78.62823 c 0.19497,0.172823 0.41019,0.400946 0.61529,0.576157 -0.1545,0.273878 -0.20986,0.552517 -0.30687,0.813186 -0.44356,0.361133 -0.96888,-1.422845 -0.30842,-1.389343 z"
         id="path7022"
         sodipodi:nodetypes="cccc" />
    </g>
  </g>
</svg>
