<?xml version="1.0" encoding="UTF-8" standalone="no"?>
<svg
   xmlns:dc="http://purl.org/dc/elements/1.1/"
   xmlns:cc="http://creativecommons.org/ns#"
   xmlns:rdf="http://www.w3.org/1999/02/22-rdf-syntax-ns#"
   xmlns:svg="http://www.w3.org/2000/svg"
   xmlns="http://www.w3.org/2000/svg"
   xmlns:sodipodi="http://sodipodi.sourceforge.net/DTD/sodipodi-0.dtd"
   xmlns:inkscape="http://www.inkscape.org/namespaces/inkscape"
   width="0.26458335mm"
   height="0.52916241mm"
   viewBox="0 0 0.26458335 0.52916241"
   version="1.1"
   id="svg3893"
   inkscape:version="1.0 (4035a4fb49, 2020-05-01)"
   sodipodi:docname="metal_crate_2.svg">
  <defs
     id="defs3887" />
  <sodipodi:namedview
     id="base"
     pagecolor="#ffffff"
     bordercolor="#666666"
     borderopacity="1.0"
     inkscape:pageopacity="0.0"
     inkscape:pageshadow="2"
     inkscape:zoom="63.356768"
     inkscape:cx="0.66012865"
     inkscape:cy="2.8592787"
     inkscape:document-units="px"
     inkscape:current-layer="layer1"
     inkscape:document-rotation="0"
     showgrid="false"
     inkscape:window-width="1920"
     inkscape:window-height="1057"
     inkscape:window-x="-8"
     inkscape:window-y="-8"
     inkscape:window-maximized="1" />
  <metadata
     id="metadata3890">
    <rdf:RDF>
      <cc:Work
         rdf:about="">
        <dc:format>image/svg+xml</dc:format>
        <dc:type
           rdf:resource="http://purl.org/dc/dcmitype/StillImage" />
        <dc:title />
      </cc:Work>
    </rdf:RDF>
  </metadata>
  <g
     inkscape:label="Layer 1"
     inkscape:groupmode="layer"
     id="layer1"
     transform="translate(-152.31604,-107.36195)">
    <g
       id="g3020"
       transform="matrix(0.04999967,0,0,0.04999967,128.43755,111.91275)">
      <rect
         ry="0.93459511"
         y="-83.60833"
         x="477.57294"
         height="3.1749845"
         width="5.2916713"
         id="rect19227-0-4-8-8"
         style="opacity:1;fill:#000000;fill-opacity:0.180392;fill-rule:nonzero;stroke:none;stroke-width:3.93973;stroke-linecap:round;stroke-linejoin:round;stroke-miterlimit:4;stroke-dasharray:none;stroke-dashoffset:0;stroke-opacity:1;paint-order:markers stroke fill;filter:url(#filter1957)" />
      <rect
         style="opacity:1;fill:#302450;fill-opacity:1;stroke-width:1.4967;stroke-linecap:round;paint-order:markers stroke fill"
         id="rect3500"
         width="5.2916565"
         height="5.5562401"
         x="477.57291"
         y="-87.57708" />
      <rect
         y="-86.254166"
         x="478.10208"
         height="3.7041631"
         width="4.2333446"
         id="rect3502"
         style="opacity:1;fill:#202430;fill-opacity:1;stroke-width:1.33869;stroke-linecap:round;paint-order:markers stroke fill" />
      <path
         sodipodi:nodetypes="ccccccccccccccccccccccc"
         id="path3566"
         style="opacity:1;fill:#484c68;fill-opacity:1;stroke-width:1.05833;stroke-linecap:round;paint-order:markers stroke fill"
         d="m 477.8375,-85.989583 v 0.793749 h 0.79375 l 0.96997,1.058334 -0.96997,0.79375 H 477.8375 V -82.55 l 1.05834,-0.264584 1.32291,-1.058332 1.32292,1.058332 L 482.6,-82.55 v -0.79375 h -0.79375 l -0.96996,-0.79375 0.96996,-1.058334 H 482.6 v -0.793749 h -1.05833 V -85.725 l -1.32292,1.082623 -1.32291,-1.082623 v -0.264583 z" />
      <path
         sodipodi:nodetypes="ccccccccccccccccccccccccccc"
         d="m 477.83751,-85.724998 v 0.79375 h 0.79375 l 0.96996,0.79375 v 0.264583 l -0.96996,0.79375 h -0.79375 v 0.79375 h 1.05833 v -0.264583 l 1.32292,-1.082622 1.32292,1.082622 v 0.264583 h 1.05833 v -0.79375 h -0.79375 l -0.96996,-0.79375 v -0.264583 l 0.96996,-0.79375 h 0.79375 v -0.79375 h -1.05833 v 0.264583 l -1.32292,1.082622 -1.32292,-1.082622 v -0.264583 z"
         style="opacity:1;fill:#2c304c;fill-opacity:1;stroke-width:1.05833;stroke-linecap:round;paint-order:markers stroke fill"
         id="path3568" />
      <rect
         ry="1.0583291"
         y="-91.016663"
         x="477.57291"
         height="5.2916641"
         width="5.2916565"
         id="rect3498"
         style="opacity:1;fill:#0c3858;fill-opacity:1;stroke-width:2.15412;stroke-linecap:round;paint-order:markers stroke fill" />
      <rect
         ry="0.5291695"
         style="opacity:1;fill:#207cc4;fill-opacity:1;stroke-width:1.33869;stroke-linecap:round;paint-order:markers stroke fill"
         id="rect3504"
         width="4.2333446"
         height="3.7041631"
         x="478.10208"
         y="-89.958328" />
      <path
         id="rect3506"
         style="opacity:1;fill:#d4e8f4;fill-opacity:1;stroke-width:5.05962;stroke-linecap:round;paint-order:markers stroke fill"
         d="m 1809,-342 c -1.108,0 -2,0.89199 -2,2 v 10 c 0,1.10801 0.892,2 2,2 h 12 c 1.108,0 2,-0.89199 2,-2 v -10 c 0,-1.10801 -0.892,-2 -2,-2 z m 1,4 h 2 v 1 h -2 z m 8,0 h 2 v 1 h -2 z m -8,7 h 2 v 1 h -2 z m 8,0 h 2 v 1 h -2 z"
         sodipodi:nodetypes="ssssssssscccccccccccccccccccc"
         transform="scale(0.26458333)" />
      <path
         id="rect3508"
         style="opacity:1;fill:#a4cce8;fill-opacity:1;stroke-width:3.70328;stroke-linecap:round;paint-order:markers stroke fill"
         d="m 1810,-340 c -0.554,0 -1,0.44599 -1,1 v 8 c 0,0.55401 0.446,1 1,1 v -1 -1 -1 h 2 v 1 1 1 h 6 v -1 -1 -1 h 2 v 1 1 1 c 0.554,0 1,-0.44599 1,-1 v -8 c 0,-0.55401 -0.446,-1 -1,-1 v 1 1 1 h -2 v -1 -1 -1 h -6 v 1 1 1 h -2 v -1 -1 z"
         transform="scale(0.26458333)" />
    </g>
  </g>
</svg>
