<?xml version="1.0" ?><!-- Created with Inkscape (http://www.inkscape.org/) --><svg xmlns:dc="http://purl.org/dc/elements/1.1/" xmlns:cc="http://creativecommons.org/ns#" xmlns:rdf="http://www.w3.org/1999/02/22-rdf-syntax-ns#" xmlns:svg="http://www.w3.org/2000/svg" xmlns="http://www.w3.org/2000/svg" xmlns:xlink="http://www.w3.org/1999/xlink" xmlns:sodipodi="http://sodipodi.sourceforge.net/DTD/sodipodi-0.dtd" xmlns:inkscape="http://www.inkscape.org/namespaces/inkscape" width="0.23812567mm" height="0.30427086mm" viewBox="0 0 0.23812567 0.30427086" version="1.1" id="svg16004" inkscape:version="0.92.4 (5da689c313, 2019-01-14)" sodipodi:docname="round_shot.svg">
  <defs id="defs15998">
    <radialGradient inkscape:collect="always" xlink:href="#linearGradient15758" id="radialGradient15760" cx="1954.0994" cy="-4865.5493" fx="1954.0994" fy="-4865.5493" r="2.25" gradientTransform="matrix(0.54699294,-0.11759442,0.13310141,0.61912401,96.257949,1954.58)" gradientUnits="userSpaceOnUse"/>
    <linearGradient inkscape:collect="always" id="linearGradient15758">
      <stop style="stop-color:#5c546c;stop-opacity:1;" offset="0" id="stop15754"/>
      <stop style="stop-color:#5c546c;stop-opacity:0;" offset="1" id="stop15756"/>
    </linearGradient>
  </defs>
  <sodipodi:namedview id="base" pagecolor="#ffffff" bordercolor="#666666" borderopacity="1.0" inkscape:pageopacity="0.0" inkscape:pageshadow="2" inkscape:zoom="256" inkscape:cx="1.1250187" inkscape:cy="0.74481774" inkscape:document-units="mm" inkscape:current-layer="layer1" showgrid="false" inkscape:snap-global="true" inkscape:object-paths="true" inkscape:snap-midpoints="true" inkscape:snap-smooth-nodes="true" inkscape:window-width="1920" inkscape:window-height="1057" inkscape:window-x="-8" inkscape:window-y="-8" inkscape:window-maximized="1"/>
  <metadata id="metadata16001">
    <rdf:RDF>
      <cc:Work rdf:about="">
        <dc:format>image/svg+xml</dc:format>
        <dc:type rdf:resource="http://purl.org/dc/dcmitype/StillImage"/>
        <dc:title/>
      </cc:Work>
    </rdf:RDF>
  </metadata>
  <g inkscape:label="Layer 1" inkscape:groupmode="layer" id="layer1" transform="translate(102.16698,-196.17296)">
    <g transform="matrix(0.05000014,0,0,0.05000014,-127.83164,260.632)" id="g15975">
      <path style="opacity:1;fill:#000000;fill-opacity:0.18000004;fill-rule:nonzero;stroke:none;stroke-width:1.0580467;stroke-linecap:round;stroke-linejoin:round;stroke-miterlimit:4;stroke-dasharray:none;stroke-dashoffset:0;stroke-opacity:1;paint-order:markers stroke fill" d="m 515.67421,-1283.0917 c -1.30845,0 -2.38254,-1.0717 -2.38254,-2.3802 0,-1.3087 1.07409,-2.3824 2.38254,-2.3824 1.30843,0 2.37996,1.0737 2.37996,2.3824 0,1.3085 -1.07153,2.3802 -2.37996,2.3802 z" id="path15771" inkscape:connector-curvature="0"/>
      <path inkscape:connector-curvature="0" id="circle15762" d="m 515.67421,-1284.4146 c -1.30845,0 -2.38254,-1.0717 -2.38254,-2.3802 0,-1.3086 1.07409,-2.3823 2.38254,-2.3823 1.30843,0 2.37996,1.0737 2.37996,2.3823 0,1.3085 -1.07153,2.3802 -2.37996,2.3802 z" style="opacity:1;fill:#202040;fill-opacity:1;fill-rule:nonzero;stroke:none;stroke-width:1.0580467;stroke-linecap:round;stroke-linejoin:round;stroke-miterlimit:4;stroke-dasharray:none;stroke-dashoffset:0;stroke-opacity:1;paint-order:markers stroke fill"/>
      <circle r="1.8520833" cy="-1286.7959" cx="515.67291" id="path15735" style="opacity:1;fill:#3c3450;fill-opacity:1;fill-rule:nonzero;stroke:none;stroke-width:1.05833328;stroke-linecap:round;stroke-linejoin:round;stroke-miterlimit:4;stroke-dasharray:none;stroke-dashoffset:0;stroke-opacity:1;paint-order:markers stroke fill"/>
      <path inkscape:connector-curvature="0" id="circle15958" transform="scale(0.26458333)" d="m 1949,-4870.4805 a 7,7 0 0 0 -7,7 7,7 0 0 0 7,7 7,7 0 0 0 7,-7 7,7 0 0 0 -7,-7 z m 0,1 a 6.0000152,6.0000152 0 0 1 6,6 6.0000152,6.0000152 0 0 1 -6,6 6.0000152,6.0000152 0 0 1 -6,-6 6.0000152,6.0000152 0 0 1 6,-6 z" style="opacity:1;fill:#48405c;fill-opacity:1;fill-rule:nonzero;stroke:none;stroke-width:3.99999976;stroke-linecap:round;stroke-linejoin:round;stroke-miterlimit:4;stroke-dasharray:none;stroke-dashoffset:0;stroke-opacity:1;paint-order:markers stroke fill"/>
      <path inkscape:connector-curvature="0" id="circle15739" d="m 516.61137,-1288.3901 a 1.7197835,1.7197835 0 0 0 -0.27699,0.9328 1.7197835,1.7197835 0 0 0 0.96634,1.5436 1.8520833,1.8520833 0 0 0 0.22429,-0.8822 1.8520833,1.8520833 0 0 0 -0.91364,-1.5942 z" style="opacity:1;fill:url(#radialGradient15760);fill-opacity:1;fill-rule:nonzero;stroke:none;stroke-width:0.98273337;stroke-linecap:round;stroke-linejoin:round;stroke-miterlimit:4;stroke-dasharray:none;stroke-dashoffset:0;stroke-opacity:1;paint-order:markers stroke fill"/>
      <path inkscape:connector-curvature="0" id="circle15747" d="m 515.12153,-1288.5616 a 1.8520833,1.8520833 0 0 0 -1.30069,1.7657 1.8520833,1.8520833 0 0 0 1.85208,1.8521 1.8520833,1.8520833 0 0 0 1.08056,-0.3508 1.8520833,1.8520833 0 0 1 -0.55139,0.086 1.8520833,1.8520833 0 0 1 -1.85208,-1.852 1.8520833,1.8520833 0 0 1 0.77152,-1.5012 z" style="opacity:1;fill:#302c40;fill-opacity:1;fill-rule:nonzero;stroke:none;stroke-width:1.05833328;stroke-linecap:round;stroke-linejoin:round;stroke-miterlimit:4;stroke-dasharray:none;stroke-dashoffset:0;stroke-opacity:1;paint-order:markers stroke fill"/>
      <path inkscape:connector-curvature="0" id="rect15743" d="m 515.43676,-1288.0686 c -0.0308,0 -0.0613,0.014 -0.0899,0.03 l -0.2739,0.1576 c -0.11467,0.066 -0.15353,0.212 -0.0873,0.3266 l 0.27753,0.4806 -0.48059,0.2775 c -0.11467,0.066 -0.15354,0.2115 -0.0873,0.3261 l 0.15761,0.2739 c 0.0662,0.1147 0.21193,0.1535 0.3266,0.087 l 0.48059,-0.2775 0.2775,0.4806 c 0.0662,0.1147 0.2114,0.1536 0.32607,0.087 l 0.27389,-0.1576 c 0.11468,-0.066 0.15354,-0.2119 0.0873,-0.3265 l -0.27752,-0.4806 0.48059,-0.2775 c 0.11467,-0.066 0.15354,-0.2115 0.0873,-0.3261 l -0.15761,-0.2739 c -0.0662,-0.1147 -0.21193,-0.1535 -0.3266,-0.087 l -0.48059,0.2775 -0.2775,-0.4806 c -0.0497,-0.086 -0.14372,-0.1294 -0.23616,-0.1178 z" style="opacity:1;fill:#b0b0b8;fill-opacity:1;fill-rule:nonzero;stroke:none;stroke-width:1.29617667;stroke-linecap:round;stroke-linejoin:round;stroke-miterlimit:4;stroke-dasharray:none;stroke-dashoffset:0;stroke-opacity:1;paint-order:markers stroke fill"/>
      <path inkscape:connector-curvature="0" id="path15961" transform="scale(0.26458333)" d="m 1946.916,-4870.1543 a 6.9999999,6.9999999 0 0 0 -4.666,4.8242 6.9999999,6.9999999 0 0 0 -0.01,0.025 6.9999999,6.9999999 0 0 0 -0.2265,1.3418 6.9999999,6.9999999 0 0 0 -0.018,0.4824 6.9999999,6.9999999 0 0 0 7,7 6.9999999,6.9999999 0 0 0 4.084,-1.3261 6.9999999,6.9999999 0 0 1 -2.084,0.3261 6.9999999,6.9999999 0 0 1 -1.0156,-0.084 6.0000151,6.0000151 0 0 1 -0.9844,0.084 6.0000151,6.0000151 0 0 1 -6,-6 6.0000151,6.0000151 0 0 1 1.8516,-4.332 6.9999999,6.9999999 0 0 1 2.0644,-2.3418 z" style="opacity:1;fill:#383448;fill-opacity:1;fill-rule:nonzero;stroke:none;stroke-width:3.99999976;stroke-linecap:round;stroke-linejoin:round;stroke-miterlimit:4;stroke-dasharray:none;stroke-dashoffset:0;stroke-opacity:1;paint-order:markers stroke fill"/>
    </g>
  </g>
</svg>