<?xml version="1.0" encoding="UTF-8" standalone="no"?>
<svg
   xmlns:dc="http://purl.org/dc/elements/1.1/"
   xmlns:cc="http://creativecommons.org/ns#"
   xmlns:rdf="http://www.w3.org/1999/02/22-rdf-syntax-ns#"
   xmlns:svg="http://www.w3.org/2000/svg"
   xmlns="http://www.w3.org/2000/svg"
   xmlns:sodipodi="http://sodipodi.sourceforge.net/DTD/sodipodi-0.dtd"
   xmlns:inkscape="http://www.inkscape.org/namespaces/inkscape"
   width="0.30427083mm"
   height="0.37041676mm"
   viewBox="0 0 0.30427083 0.37041676"
   version="1.1"
   id="svg3893"
   inkscape:version="1.0 (4035a4fb49, 2020-05-01)"
   sodipodi:docname="snowballs.svg">
  <defs
     id="defs3887" />
  <sodipodi:namedview
     id="base"
     pagecolor="#ffffff"
     bordercolor="#666666"
     borderopacity="1.0"
     inkscape:pageopacity="0.0"
     inkscape:pageshadow="2"
     inkscape:zoom="256"
     inkscape:cx="1.1054235"
     inkscape:cy="1.3156753"
     inkscape:document-units="px"
     inkscape:current-layer="layer1"
     inkscape:document-rotation="0"
     showgrid="false"
     inkscape:window-width="1920"
     inkscape:window-height="1057"
     inkscape:window-x="-8"
     inkscape:window-y="-8"
     inkscape:window-maximized="1" />
  <metadata
     id="metadata3890">
    <rdf:RDF>
      <cc:Work
         rdf:about="">
        <dc:format>image/svg+xml</dc:format>
        <dc:type
           rdf:resource="http://purl.org/dc/dcmitype/StillImage" />
        <dc:title />
      </cc:Work>
    </rdf:RDF>
  </metadata>
  <g
     inkscape:label="Layer 1"
     inkscape:groupmode="layer"
     id="layer1"
     transform="translate(-122.44539,-177.7244)">
    <g
       transform="matrix(0.05,0,0,0.05,105.37979,181.91805)"
       id="g2726">
      <ellipse
         ry="2.6458247"
         rx="2.6458435"
         cy="-79.110405"
         cx="344.48749"
         id="path6763-8-9-1-6-9-3"
         style="opacity:1;fill:#000000;fill-opacity:0.18000001;fill-rule:nonzero;stroke:none;stroke-width:1.05833;stroke-linecap:round;stroke-linejoin:round;stroke-miterlimit:4;stroke-dasharray:none;stroke-dashoffset:0;stroke-opacity:1;paint-order:markers fill stroke" />
      <path
         id="circle2681"
         style="opacity:1;fill:#0c4470;fill-opacity:1;stroke-width:1.57391;stroke-linecap:square;paint-order:markers stroke fill"
         d="m 1301.5,-317 a 5.5000569,5.5000569 0 0 0 -5.5,5.5 5.5000569,5.5000569 0 0 0 0.1035,1.05078 5.4999881,5.4999881 0 0 0 -3.1035,4.94922 5.4999881,5.4999881 0 0 0 0,0.10156 5.5000343,5.5000343 0 0 0 -3.002,4.89844 5.5000343,5.5000343 0 0 0 5.5,5.5 5.5000343,5.5000343 0 0 0 3,-0.89062 5.500007,5.500007 0 0 0 3,0.89062 5.500007,5.500007 0 0 0 3,-0.89062 5.4999651,5.4999651 0 0 0 3,0.89062 5.4999651,5.4999651 0 0 0 5.5,-5.5 5.4999651,5.4999651 0 0 0 -3.002,-4.90039 5.5000112,5.5000112 0 0 0 0,-0.0996 5.5000112,5.5000112 0 0 0 -3.1016,-4.94922 5.5000569,5.5000569 0 0 0 0.1016,-1.05078 5.5000569,5.5000569 0 0 0 -5.5,-5.5 z"
         transform="scale(0.26458333)" />
      <path
         id="circle2671"
         style="opacity:1;fill:#244870;fill-opacity:1;stroke-width:1.00157;stroke-linecap:square;paint-order:markers stroke fill"
         d="m 1298.5,-309 a 3.5,3.5 0 0 0 -3.5,3.5 3.5,3.5 0 0 0 0.3398,1.50391 3.5,3.5 0 0 0 -3.3398,3.49609 3.5,3.5 0 0 0 3.5,3.5 3.5,3.5 0 0 0 3,-1.69727 3.5,3.5 0 0 0 3,1.69727 3.5,3.5 0 0 0 3,-1.69727 3.5,3.5 0 0 0 3,1.69727 3.5,3.5 0 0 0 3.5,-3.5 3.5,3.5 0 0 0 -3.3398,-3.49609 3.5,3.5 0 0 0 0.3398,-1.50391 3.5,3.5 0 0 0 -3.5,-3.5 3.5,3.5 0 0 0 -3,1.69727 3.5,3.5 0 0 0 -3,-1.69727 z"
         transform="scale(0.26458333)" />
      <path
         id="circle2498"
         style="opacity:1;fill:#207cc4;fill-opacity:1;stroke-width:1.00157;stroke-linecap:square;paint-order:markers stroke fill"
         d="m 1301.5,-315 a 3.5,3.5 0 0 0 -3.5,3.5 3.5,3.5 0 0 0 3.5,3.5 3.5,3.5 0 0 0 3.5,-3.5 3.5,3.5 0 0 0 -3.5,-3.5 z m -3.6934,6.07031 A 3.4999999,3.4999999 0 0 0 1295,-305.5 a 3.4999999,3.4999999 0 0 0 3.5,3.5 3.4999999,3.4999999 0 0 0 3.5,-3.5 3.4999999,3.4999999 0 0 0 -0.3398,-1.50391 4.4999969,4.4999969 0 0 1 -0.1602,0.004 4.4999969,4.4999969 0 0 1 -3.6934,-1.92969 z m 7.3868,0 a 4.4999968,4.4999968 0 0 1 -2.5176,1.77344 c 0.2091,0.52706 0.3241,1.08745 0.3242,1.65625 0,0.96771 -0.3179,1.86136 -0.8438,2.59766 A 3.4999999,3.4999999 0 0 0 1304.5,-302 a 3.4999999,3.4999999 0 0 0 3.5,-3.5 3.4999999,3.4999999 0 0 0 -2.8066,-3.42969 z m -10.8536,5.12891 c -1.4013,0.49235 -2.3392,1.81551 -2.3398,3.30078 0,1.933 1.567,3.5 3.5,3.5 0.9016,0 1.7154,-0.3502 2.3359,-0.91016 -0.5219,-0.73462 -0.8359,-1.62607 -0.8359,-2.58984 0,-0.2341 0.016,-0.46984 0.055,-0.70508 l 0.01,-0.0391 c -1.2307,-0.42107 -2.2272,-1.35972 -2.7207,-2.55664 z m 14.3204,0 c -0.4935,1.19692 -1.49,2.13557 -2.7207,2.55664 l 0.01,0.041 c 0.036,0.23048 0.055,0.46584 0.055,0.70312 0,0.96377 -0.314,1.85522 -0.8359,2.58984 0.6205,0.55996 1.4343,0.91016 2.3359,0.91016 1.933,0 3.5,-1.567 3.5,-3.5 -6e-4,-1.48527 -0.9385,-2.80843 -2.3398,-3.30078 z m -7.168,1.64453 c -0.7965,0.71566 -1.8443,1.15625 -2.9922,1.15625 -0.1563,0 -0.3047,-0.0311 -0.457,-0.0469 -0.029,0.18089 -0.043,0.36374 -0.043,0.54688 0,1.933 1.567,3.5 3.5,3.5 1.933,0 3.5,-1.567 3.5,-3.5 -10e-5,-0.185 -0.015,-0.3682 -0.043,-0.54688 -0.1523,0.0158 -0.3007,0.0469 -0.457,0.0469 -1.1107,-5.9e-4 -2.1823,-0.41322 -3.0078,-1.15625 z"
         transform="scale(0.26458333)" />
      <path
         id="path2500"
         style="opacity:1;fill:#20d4fc;fill-opacity:1;stroke-width:1.00157;stroke-linecap:square;paint-order:markers stroke fill"
         d="m 1301.5,-315 c -0.9244,1.3e-4 -1.8112,0.36594 -2.4668,1.01758 -0.022,0.15985 -0.033,0.32104 -0.033,0.48242 0,1.933 1.567,3.5 3.5,3.5 0.9244,-1.3e-4 1.8112,-0.36594 2.4668,-1.01758 0.022,-0.15985 0.033,-0.32104 0.033,-0.48242 0,-1.933 -1.567,-3.5 -3.5,-3.5 z m -3.7012,6.07031 c 0,0 0,0.002 0,0.002 l 0.01,-0.002 z m 0,0.002 v 0 c -0.05,0.01 -0.099,0.0211 -0.1485,0.0332 -0.05,0.0126 -0.099,0.0262 -0.1484,0.041 -0.05,0.0152 -0.099,0.0315 -0.1484,0.0488 -0.049,0.0171 -0.098,0.0354 -0.1465,0.0547 -0.035,0.0138 -0.069,0.0281 -0.1035,0.043 -0.026,0.0114 -0.052,0.0232 -0.078,0.0351 -0.033,0.0151 -0.065,0.0308 -0.098,0.0469 -0.01,0.005 -0.02,0.0104 -0.029,0.0156 -0.026,0.0133 -0.052,0.027 -0.078,0.041 -0.034,0.019 -0.067,0.0385 -0.1,0.0586 -0.01,0.006 -0.02,0.0117 -0.029,0.0176 -0.023,0.0134 -0.046,0.0271 -0.068,0.041 -0.037,0.0234 -0.073,0.0475 -0.1094,0.0723 -0.043,0.0297 -0.085,0.0603 -0.1269,0.0918 -0.042,0.0316 -0.083,0.0642 -0.1231,0.0977 v 0.002 c -0.033,0.028 -0.066,0.0567 -0.098,0.0859 -0.011,0.009 -0.021,0.0182 -0.031,0.0273 -0.033,0.03 -0.066,0.0606 -0.098,0.0918 -0.022,0.15985 -0.033,0.32104 -0.033,0.48242 0,1.933 1.567,3.5 3.5,3.5 0.9234,-1.4e-4 1.8093,-0.3652 2.4648,-1.01562 v -0.002 c 7e-4,-0.007 0,-0.013 0,-0.0195 0.01,-0.0455 0.011,-0.091 0.016,-0.13672 7e-4,-0.007 0,-0.013 0,-0.0195 7e-4,-0.0124 0,-0.0247 0,-0.0371 0,-0.0403 0.01,-0.0807 0.01,-0.12109 v -0.13672 -0.0117 c -10e-5,-0.52033 -0.1163,-1.0341 -0.3399,-1.50391 -0.053,0.002 -0.1067,0.004 -0.1601,0.004 -1.4718,-1e-4 -2.8501,-0.72025 -3.6914,-1.92773 z m 7.3926,-0.002 c -0.6045,0.86883 -1.4959,1.49677 -2.5176,1.77344 0.2091,0.52706 0.3241,1.08745 0.3242,1.65625 0,0.13889 -0.028,0.27046 -0.041,0.40625 0.6609,0.69805 1.5797,1.09357 2.541,1.09375 0.9244,-1.3e-4 1.8112,-0.36594 2.4668,-1.01758 0.022,-0.15985 0.033,-0.32104 0.033,-0.48242 -4e-4,-1.66535 -1.1743,-3.09976 -2.8066,-3.42969 z m -10.8536,5.12891 c -0.4909,0.17228 -0.9373,0.45185 -1.3066,0.81836 -0.022,0.15985 -0.033,0.32104 -0.033,0.48242 0,1.933 1.567,3.5 3.5,3.5 0.2492,-4e-5 0.4945,-0.0324 0.7344,-0.084 -0.1505,-0.44536 -0.2344,-0.92069 -0.2344,-1.41602 0,-0.2341 0.016,-0.46984 0.055,-0.70508 l 0.01,-0.0391 c -1.2307,-0.42107 -2.2272,-1.35972 -2.7207,-2.55664 z m 14.2911,0.004 c -0.4942,1.18967 -1.4741,2.12384 -2.6934,2.54493 l 0.01,0.0488 c 0.036,0.23048 0.055,0.46584 0.055,0.70312 0,0.13537 -0.023,0.26434 -0.035,0.39648 0.6365,0.67576 1.533,1.10352 2.5352,1.10352 0.9244,-1.3e-4 1.8112,-0.36594 2.4668,-1.01758 0.022,-0.15985 0.033,-0.32104 0.033,-0.48242 0,-1.53506 -0.9942,-2.82493 -2.3691,-3.29688 z m -7.1446,1.63672 c -0.6059,0.54085 -1.3532,0.9264 -2.1836,1.07813 0.5605,1.26498 1.8137,2.081 3.1973,2.08203 0.9244,-1.3e-4 1.8112,-0.36594 2.4668,-1.01758 0.022,-0.15985 0.033,-0.32104 0.033,-0.48242 -1e-4,-0.18167 -0.014,-0.36152 -0.041,-0.53711 -0.152,0.0159 -0.3029,0.0371 -0.459,0.0371 -1.1131,-5.9e-4 -2.1875,-0.41413 -3.0137,-1.16016 z"
         transform="scale(0.26458333)" />
    </g>
  </g>
</svg>
