<?xml version="1.0" encoding="UTF-8" standalone="no"?>
<svg
   xmlns:dc="http://purl.org/dc/elements/1.1/"
   xmlns:cc="http://creativecommons.org/ns#"
   xmlns:rdf="http://www.w3.org/1999/02/22-rdf-syntax-ns#"
   xmlns:svg="http://www.w3.org/2000/svg"
   xmlns="http://www.w3.org/2000/svg"
   xmlns:sodipodi="http://sodipodi.sourceforge.net/DTD/sodipodi-0.dtd"
   xmlns:inkscape="http://www.inkscape.org/namespaces/inkscape"
   sodipodi:docname="spacestation_wall_bl.svg"
   inkscape:version="1.0 (4035a4fb49, 2020-05-01)"
   id="svg3893"
   version="1.1"
   viewBox="0 0 0.26458359 0.50270885"
   height="0.50270885mm"
   width="0.26458359mm">
  <defs
     id="defs3887" />
  <sodipodi:namedview
     inkscape:window-maximized="1"
     inkscape:window-y="-8"
     inkscape:window-x="-8"
     inkscape:window-height="1057"
     inkscape:window-width="1920"
     showgrid="false"
     inkscape:document-rotation="0"
     inkscape:current-layer="layer1"
     inkscape:document-units="px"
     inkscape:cy="0.70193963"
     inkscape:cx="0.86481371"
     inkscape:zoom="256"
     inkscape:pageshadow="2"
     inkscape:pageopacity="0.0"
     borderopacity="1.0"
     bordercolor="#666666"
     pagecolor="#ffffff"
     id="base" />
  <metadata
     id="metadata3890">
    <rdf:RDF>
      <cc:Work
         rdf:about="">
        <dc:format>image/svg+xml</dc:format>
        <dc:type
           rdf:resource="http://purl.org/dc/dcmitype/StillImage" />
        <dc:title></dc:title>
      </cc:Work>
    </rdf:RDF>
  </metadata>
  <g
     transform="translate(-123.8439,-147.15936)"
     id="layer1"
     inkscape:groupmode="layer"
     inkscape:label="Layer 1">
    <g
       id="g10712"
       transform="matrix(0.05000005,0,0,0.05000005,98.311582,151.08843)">
      <path
         sodipodi:nodetypes="ccccsc"
         transform="scale(0.26458333)"
         d="m 1950,-280.4668 -20,13 c 0,2.82227 0,5.64453 0,8.4668 h 10.0195 c 5.5152,-0.0107 9.9805,-4.48476 9.9805,-10 z"
         style="opacity:1;fill:#000000;fill-opacity:0.180392;fill-rule:nonzero;stroke:none;stroke-width:14.8903;stroke-linecap:round;stroke-linejoin:round;stroke-miterlimit:4;stroke-dasharray:none;stroke-dashoffset:0;stroke-opacity:1;paint-order:markers stroke fill;filter:url(#filter1957)"
         id="path10694" />
      <path
         id="path10696"
         style="color:#000000;font-style:normal;font-variant:normal;font-weight:normal;font-stretch:normal;font-size:medium;line-height:normal;font-family:sans-serif;font-variant-ligatures:normal;font-variant-position:normal;font-variant-caps:normal;font-variant-numeric:normal;font-variant-alternates:normal;font-variant-east-asian:normal;font-feature-settings:normal;font-variation-settings:normal;text-indent:0;text-align:start;text-decoration:none;text-decoration-line:none;text-decoration-style:solid;text-decoration-color:#000000;letter-spacing:normal;word-spacing:normal;text-transform:none;writing-mode:lr-tb;direction:ltr;text-orientation:mixed;dominant-baseline:auto;baseline-shift:baseline;text-anchor:start;white-space:normal;shape-padding:0;shape-margin:0;inline-size:0;clip-rule:nonzero;display:inline;overflow:visible;visibility:visible;isolation:auto;mix-blend-mode:normal;color-interpolation:sRGB;color-interpolation-filters:linearRGB;solid-color:#000000;solid-opacity:1;vector-effect:none;fill:#243454;fill-opacity:1;fill-rule:nonzero;stroke:none;stroke-width:3.99999;stroke-linecap:round;stroke-linejoin:round;stroke-miterlimit:4;stroke-dasharray:none;stroke-dashoffset:0;stroke-opacity:1;paint-order:markers stroke fill;color-rendering:auto;image-rendering:auto;shape-rendering:auto;text-rendering:auto;enable-background:accumulate;stop-color:#000000"
         d="m 1935,-297 a 2.0002,2.0002 0 0 0 -1.4141,0.58594 c -0.7257,0.72577 -1.0464,1.44486 -1.4863,2.42773 -0.2672,0.59745 -0.4999,1.37348 -0.7461,2.09571 A 2.0002,2.0002 0 0 0 1930,-290 v 23 a 2.0002,2.0002 0 0 0 2,2 h 12.834 c 1.5664,0 3.166,-1.19522 3.166,-3 v -4.38477 c 1.6681,-2.34428 2,-5.34281 2,-7.61523 v -5 c 0,-2.34258 -0.5526,-4.74078 -1.2285,-6.76562 -0.3379,-1.01243 -0.7076,-1.92664 -1.084,-2.69532 -0.3764,-0.76867 -0.6725,-1.35219 -1.2734,-1.95312 A 2.0002,2.0002 0 0 0 1945,-297 Z"
         transform="scale(0.26458333)" />
      <path
         id="path10698"
         style="fill:#485070;fill-opacity:1;stroke:none;stroke-width:6.29435;stroke-linecap:round;stroke-linejoin:miter;stroke-miterlimit:4;stroke-dasharray:none;paint-order:markers stroke fill"
         d="m 1936,-295 -4,7 v 10 l 12,-17 z"
         sodipodi:nodetypes="ccccc"
         transform="scale(0.26458333)" />
      <path
         id="path10700"
         style="fill:#484864;fill-opacity:1;stroke:none;stroke-width:0.571565;stroke-linecap:round;stroke-linejoin:round;stroke-miterlimit:4;stroke-dasharray:none;paint-order:markers stroke fill"
         d="m 511.175,-71.966667 v 1.322918 h 3.39548 c 0.17101,0 0.30868,-0.118004 0.30868,-0.264583 v -1.587502 z"
         sodipodi:nodetypes="cccscc" />
      <rect
         style="fill:#485070;fill-opacity:1;stroke:none;stroke-width:1.05833;stroke-linecap:round;stroke-linejoin:miter;stroke-miterlimit:4;stroke-dasharray:none;paint-order:markers stroke fill"
         id="rect10702"
         width="2.1166666"
         height="0.79374999"
         x="512.23328"
         y="-78.052086" />
      <path
         id="path10704"
         style="fill:#80a8d0;fill-opacity:1;stroke:none;stroke-width:2.04302;stroke-linecap:round;stroke-linejoin:round;stroke-miterlimit:4;stroke-dasharray:none;paint-order:markers stroke fill"
         d="m 1935,-295 c -0.8387,0.83875 -2.3662,4.47551 -2.8418,8 H 1933 c 1.108,0 2,0.892 2,2 0,1.108 -0.892,2 -2,2 h -1 v 11 h 12 c 3,0 4,-5 4,-8 v -5 c 0,-4.02217 -2,-8.99997 -3,-10 h -2 c 0,1.108 -0.892,2 -2,2 h -2 c -1.108,0 -2,-0.892 -2,-2 z"
         transform="scale(0.26458333)"
         sodipodi:nodetypes="ccssscccssccsscc" />
      <path
         id="path10706"
         style="opacity:1;fill:#f0f8ff;fill-opacity:1;stroke:none;stroke-width:7.99998;stroke-linecap:round;stroke-linejoin:miter;stroke-miterlimit:4;stroke-dasharray:none;paint-order:markers stroke fill"
         d="m 1935,-295 v 3.5 c 0,0.82843 -0.6716,1.5 -1.5,1.5 h -1.5 v 3 h 1 c 1.108,0 2,0.892 2,2 0,1.108 -0.892,2 -2,2 h -1 v 3 h 9 c 2.2091,0 4,-1.79086 4,-4 v -11 h -2 c 0,1.108 -0.892,2 -2,2 h -2 c -1.108,0 -2,-0.892 -2,-2 z"
         transform="scale(0.26458333)" />
      <path
         id="path10708"
         style="color:#000000;font-style:normal;font-variant:normal;font-weight:normal;font-stretch:normal;font-size:medium;line-height:normal;font-family:sans-serif;font-variant-ligatures:normal;font-variant-position:normal;font-variant-caps:normal;font-variant-numeric:normal;font-variant-alternates:normal;font-variant-east-asian:normal;font-feature-settings:normal;font-variation-settings:normal;text-indent:0;text-align:start;text-decoration:none;text-decoration-line:none;text-decoration-style:solid;text-decoration-color:#000000;letter-spacing:normal;word-spacing:normal;text-transform:none;writing-mode:lr-tb;direction:ltr;text-orientation:mixed;dominant-baseline:auto;baseline-shift:baseline;text-anchor:start;white-space:normal;shape-padding:0;shape-margin:0;inline-size:0;clip-rule:nonzero;display:inline;overflow:visible;visibility:visible;isolation:auto;mix-blend-mode:normal;color-interpolation:sRGB;color-interpolation-filters:linearRGB;solid-color:#000000;solid-opacity:1;vector-effect:none;fill:#b8e0ff;fill-opacity:1;fill-rule:nonzero;stroke:none;stroke-width:2;stroke-linecap:round;stroke-linejoin:miter;stroke-miterlimit:4;stroke-dasharray:none;stroke-dashoffset:0;stroke-opacity:1;paint-order:markers stroke fill;color-rendering:auto;image-rendering:auto;shape-rendering:auto;text-rendering:auto;enable-background:accumulate;stop-color:#000000"
         d="m 1935.9961,-295 v 3.49609 c 0,1.36888 -1.1253,2.50196 -2.4941,2.50196 H 1932 V -287 h 1 c 1.108,0 2,0.892 2,2 0,1.108 -0.892,2 -2,2 h -1 v 2.00195 h 9.002 c 1.6686,0 2.996,-1.33718 2.996,-3.00586 V -295 H 1943 c 0,1.108 -0.892,2 -2,2 h -2 c -1.108,0 -2,-0.892 -2,-2 z"
         transform="scale(0.26458333)" />
      <rect
         y="-71.172913"
         x="511.17499"
         height="0.26458332"
         width="3.7041612"
         id="rect10710"
         style="fill:#545c7c;fill-opacity:1;stroke:none;stroke-width:0.571565;stroke-linecap:round;stroke-linejoin:round;stroke-miterlimit:4;stroke-dasharray:none;paint-order:markers stroke fill" />
    </g>
  </g>
</svg>
