<?xml version="1.0" encoding="UTF-8" standalone="no"?>
<svg
   width="0.35718751mm"
   height="0.41010422mm"
   viewBox="0 0 0.35718751 0.41010422"
   version="1.1"
   id="svg3893"
   inkscape:version="1.1 (c68e22c387, 2021-05-23)"
   sodipodi:docname="volleyball.svg"
   xmlns:inkscape="http://www.inkscape.org/namespaces/inkscape"
   xmlns:sodipodi="http://sodipodi.sourceforge.net/DTD/sodipodi-0.dtd"
   xmlns="http://www.w3.org/2000/svg"
   xmlns:svg="http://www.w3.org/2000/svg"
   xmlns:rdf="http://www.w3.org/1999/02/22-rdf-syntax-ns#"
   xmlns:cc="http://creativecommons.org/ns#"
   xmlns:dc="http://purl.org/dc/elements/1.1/">
  <defs
     id="defs3887" />
  <sodipodi:namedview
     id="base"
     pagecolor="#ffffff"
     bordercolor="#666666"
     borderopacity="1.0"
     inkscape:pageopacity="0.0"
     inkscape:pageshadow="2"
     inkscape:zoom="179.2"
     inkscape:cx="1.7578125"
     inkscape:cy="1.8331473"
     inkscape:document-units="px"
     inkscape:current-layer="layer1"
     inkscape:document-rotation="0"
     showgrid="false"
     inkscape:pagecheckerboard="0"
     inkscape:window-width="1920"
     inkscape:window-height="1057"
     inkscape:window-x="-8"
     inkscape:window-y="-8"
     inkscape:window-maximized="1" />
  <metadata
     id="metadata3890">
    <rdf:RDF>
      <cc:Work
         rdf:about="">
        <dc:format>image/svg+xml</dc:format>
        <dc:type
           rdf:resource="http://purl.org/dc/dcmitype/StillImage" />
      </cc:Work>
    </rdf:RDF>
  </metadata>
  <g
     inkscape:label="Layer 1"
     inkscape:groupmode="layer"
     id="layer1"
     transform="translate(-129.47574,-116.09539)">
    <g
       id="g336637"
       transform="matrix(0.05000735,0,0,0.0500063,75.558937,120.42182)"
       style="stroke-width:19.9973">
      <path
         id="path336589"
         style="color:#000000;fill:#000000;fill-opacity:0.18;stroke-width:21.1636;stroke-linecap:round;-inkscape-stroke:none;paint-order:markers fill stroke"
         d="m 1081.7479,-85.459385 c -1.9664,0 -3.5703,1.605976 -3.5703,3.572394 0,1.966418 1.6039,3.570324 3.5703,3.570324 1.9664,0 3.5724,-1.603906 3.5724,-3.570324 0,-1.966418 -1.606,-3.572394 -3.5724,-3.572394 z" />
      <path
         id="path335316"
         style="color:#000000;fill:#302c28;fill-opacity:1;stroke-width:21.1636;stroke-linecap:round;-inkscape-stroke:none;paint-order:markers fill stroke"
         d="m 1081.7479,-86.517718 c -1.9664,0 -3.5703,1.605976 -3.5703,3.572394 0,1.966418 1.6039,3.570324 3.5703,3.570324 1.9664,0 3.5724,-1.603906 3.5724,-3.570324 0,-1.966418 -1.606,-3.572394 -3.5724,-3.572394 z" />
      <ellipse
         style="opacity:1;fill:#bcc4c8;fill-opacity:1;stroke:none;stroke-width:10.5819;stroke-linecap:round;stroke-miterlimit:4;stroke-dasharray:none;paint-order:markers fill stroke"
         id="ellipse314806"
         cx="1081.7489"
         cy="-82.94635"
         rx="3.0426621"
         ry="3.042707" />
      <ellipse
         style="opacity:1;fill:#a8b8c4;fill-opacity:1;stroke:none;stroke-width:10.5819;stroke-linecap:round;stroke-miterlimit:4;stroke-dasharray:none;paint-order:markers fill stroke"
         id="ellipse314808"
         cx="1081.7489"
         cy="-82.94635"
         rx="2.6457946"
         ry="2.6458335" />
      <path
         id="ellipse318784"
         style="opacity:1;fill:#e8f0f8;fill-opacity:1;stroke:none;stroke-width:10.5819;stroke-linecap:round;stroke-miterlimit:4;stroke-dasharray:none;paint-order:markers fill stroke"
         d="m 1081.7489,-85.989067 a 3.042662,3.042707 0 0 0 -2.977,2.421557 3.1749523,3.1749992 0 0 0 2.977,2.07636 3.1749523,3.1749992 0 0 0 2.9776,-2.078943 3.042662,3.042707 0 0 0 -2.9776,-2.418974 z" />
      <path
         id="path314810"
         style="color:#000000;fill:#848c94;fill-opacity:1;stroke-width:19.9973;stroke-linecap:square;-inkscape-stroke:none"
         d="m 1080.5661,-85.747738 a 3.042662,3.042707 0 0 0 -0.2625,0.12609 c 0.031,1.002765 0.3274,2.018435 1.3141,2.78846 -0.049,0.543017 -0.2109,0.988909 -0.4506,1.365292 -0.4598,-0.190357 -0.9675,-0.670931 -1.3328,-1.255736 -0.3923,-0.627902 -0.6204,-1.37151 -0.5157,-1.974557 l -0.05,-0.0083 a 3.042662,3.042707 0 0 0 -0.2408,0.400492 c 0.019,0.579937 0.2494,1.189447 0.5814,1.720823 0.3751,0.60071 0.8801,1.104855 1.4024,1.337387 -0.2566,0.33256 -0.5761,0.606899 -0.9275,0.84646 a 3.042662,3.042707 0 0 0 0.2516,0.147278 c 0.7888,-0.566039 1.4381,-1.354428 1.5451,-2.56005 0.5516,-0.323271 1.086,-0.440671 1.6041,-0.427882 0.1651,1.185373 -0.5103,2.56512 -1.4191,3.319696 a 3.042662,3.042707 0 0 0 0.4884,-0.0925 c 0.7998,-0.824902 1.3419,-2.063975 1.2014,-3.208592 0.3527,0.03895 0.698,0.133364 1.0357,0.260451 a 3.042662,3.042707 0 0 0 -0.016,-0.287322 c -0.4365,-0.154109 -0.8959,-0.255746 -1.3709,-0.254764 -0.5315,0.0011 -1.0831,0.12923 -1.6408,0.451651 -0.4306,-0.339783 -0.7164,-0.724024 -0.9002,-1.135329 0.381,-0.322165 1.1069,-0.562859 1.8614,-0.623219 0.5353,-0.04282 1.0834,0.0039 1.5338,0.146762 a 3.042662,3.042707 0 0 0 -0.2775,-0.3483 c -0.4051,-0.08057 -0.8462,-0.09655 -1.278,-0.06201 -0.7546,0.06038 -1.4816,0.272423 -1.9415,0.627354 -0.1413,-0.415386 -0.1924,-0.854179 -0.1963,-1.299663 z" />
      <path
         id="ellipse305355"
         style="opacity:1;fill:#d0e0f4;fill-opacity:1;stroke:none;stroke-width:10.5819;stroke-linecap:round;stroke-miterlimit:4;stroke-dasharray:none;paint-order:markers fill stroke"
         d="m 1081.7489,-85.592192 a 2.6457946,2.6458336 0 0 0 -2.6458,2.645833 2.6457946,2.6458336 0 0 0 10e-4,0.03462 3.1749523,3.1749992 0 0 0 2.6448,1.420585 3.1749523,3.1749992 0 0 0 2.6443,-1.420585 2.6457946,2.6458336 0 0 0 0,-0.03462 2.6457946,2.6458336 0 0 0 -2.6459,-2.645833 z" />
      <path
         id="ellipse318782"
         style="opacity:1;fill:#acb4c0;fill-opacity:1;stroke:none;stroke-width:10.5819;stroke-linecap:round;stroke-miterlimit:4;stroke-dasharray:none;paint-order:markers fill stroke"
         d="m 1080.5661,-85.747738 a 3.042662,3.042707 0 0 0 -0.2625,0.12609 c 0.031,1.002765 0.3274,2.018435 1.3141,2.78846 -0.046,0.509598 -0.1924,0.932632 -0.4083,1.293979 a 3.1749523,3.1749992 0 0 0 0.2791,0.03669 c 0.2063,-0.37352 0.3478,-0.805344 0.3927,-1.311547 0.5516,-0.323271 1.086,-0.440671 1.6041,-0.427882 0.059,0.423146 0.01,0.870977 -0.1184,1.306381 a 3.1749523,3.1749992 0 0 0 0.339,-0.231511 c 0.072,-0.351321 0.093,-0.708107 0.05,-1.056267 0.2486,0.02746 0.4932,0.08355 0.7344,0.158131 a 3.1749523,3.1749992 0 0 0 0.1255,-0.238744 c -0.3883,-0.123539 -0.7934,-0.201885 -1.2107,-0.201022 -0.5315,0.0011 -1.0831,0.12923 -1.6408,0.451651 -0.4306,-0.339783 -0.7164,-0.724024 -0.9002,-1.135329 0.381,-0.322165 1.1069,-0.562859 1.8614,-0.623219 0.5353,-0.04282 1.0834,0.0039 1.5338,0.146762 a 3.042662,3.042707 0 0 0 -0.2775,-0.3483 c -0.4051,-0.08057 -0.8462,-0.09655 -1.278,-0.06201 -0.7546,0.06038 -1.4816,0.272423 -1.9415,0.627354 -0.1413,-0.415386 -0.1924,-0.854179 -0.1963,-1.299663 z m -1.2971,1.041281 a 3.042662,3.042707 0 0 0 -0.2408,0.400492 c 0.019,0.579937 0.2494,1.189447 0.5814,1.720823 0.1364,0.21853 0.2903,0.423691 0.4557,0.608233 a 3.1749523,3.1749992 0 0 0 0.8305,0.366903 c -0.38,-0.238509 -0.7669,-0.642094 -1.0615,-1.113626 -0.3923,-0.627902 -0.6204,-1.37151 -0.5157,-1.974557 z" />
      <path
         id="ellipse315062"
         style="opacity:1;fill:#485464;fill-opacity:1;stroke:none;stroke-width:10.5819;stroke-linecap:round;stroke-miterlimit:4;stroke-dasharray:none;paint-order:markers fill stroke"
         d="m 1080.5862,-85.322441 a 2.6457946,2.6458336 0 0 0 -0.2501,0.141076 c 0.1004,0.854516 0.4393,1.69084 1.2816,2.348177 -0.049,0.543017 -0.2109,0.988909 -0.4506,1.365292 -0.4598,-0.190357 -0.9675,-0.670931 -1.3328,-1.255736 -0.2517,-0.402974 -0.435,-0.853612 -0.5069,-1.284161 a 2.6457946,2.6458336 0 0 0 -0.1587,0.475941 c 0.103,0.327395 0.2551,0.649374 0.4409,0.94671 0.3751,0.60071 0.8801,1.104855 1.4024,1.337387 -0.1705,0.22102 -0.3689,0.416261 -0.586,0.59273 a 2.6457946,2.6458336 0 0 0 0.2558,0.127641 c 0.6261,-0.541341 1.1086,-1.263166 1.1994,-2.286683 0.5516,-0.323271 1.086,-0.440671 1.6041,-0.427882 0.1328,0.95318 -0.2783,2.031739 -0.9168,2.810166 a 2.6457946,2.6458336 0 0 0 0.4956,-0.219109 c 0.5045,-0.759931 0.7998,-1.693727 0.6919,-2.572454 0.2145,0.02368 0.4258,0.06964 0.6347,0.129194 a 2.6457946,2.6458336 0 0 0 -0.032,-0.283189 c -0.3091,-0.07988 -0.6277,-0.128315 -0.9539,-0.12764 -0.5315,0.0011 -1.0831,0.12923 -1.6408,0.451651 -0.4306,-0.339783 -0.7164,-0.724024 -0.9002,-1.135329 0.381,-0.322165 1.1069,-0.562859 1.8614,-0.623219 0.3085,-0.02468 0.6209,-0.01851 0.9168,0.01757 a 2.6457946,2.6458336 0 0 0 -0.3421,-0.295071 c -0.1979,-0.0068 -0.3981,-0.0019 -0.5964,0.01395 -0.7546,0.06038 -1.4816,0.272423 -1.9415,0.627354 -0.096,-0.282406 -0.15,-0.575575 -0.1762,-0.874366 z" />
      <path
         id="ellipse318780"
         style="opacity:1;fill:#586878;fill-opacity:1;stroke:none;stroke-width:10.5819;stroke-linecap:round;stroke-miterlimit:4;stroke-dasharray:none;paint-order:markers fill stroke"
         d="m 1080.5862,-85.322441 a 2.6457945,2.6458336 0 0 0 -0.2501,0.141076 c 0.1004,0.854516 0.4393,1.69084 1.2816,2.348177 -0.046,0.509598 -0.1924,0.932632 -0.4083,1.293979 a 3.1749523,3.1749992 0 0 0 0.2796,0.03669 c 0.2065,-0.373274 0.3473,-0.805349 0.3922,-1.311547 0.5516,-0.323271 1.086,-0.440671 1.6041,-0.427882 0.059,0.423045 0.01,0.870625 -0.1173,1.305865 a 3.1749523,3.1749992 0 0 0 0.3374,-0.230476 c 0.072,-0.35138 0.093,-0.708451 0.051,-1.056786 0.2145,0.02368 0.4258,0.06964 0.6347,0.129194 a 2.6457945,2.6458336 0 0 0 -0.032,-0.283189 c -0.3091,-0.07988 -0.6277,-0.128315 -0.9539,-0.12764 -0.5315,0.0011 -1.0831,0.12923 -1.6408,0.451651 -0.4306,-0.339783 -0.7164,-0.724024 -0.9002,-1.135329 0.381,-0.322165 1.1069,-0.562859 1.8614,-0.623219 0.3085,-0.02468 0.6209,-0.01851 0.9168,0.01757 a 2.6457945,2.6458336 0 0 0 -0.3421,-0.295071 c -0.1979,-0.0068 -0.3981,-0.0019 -0.5964,0.01395 -0.7546,0.06038 -1.4816,0.272423 -1.9415,0.627354 -0.096,-0.282406 -0.15,-0.575575 -0.1762,-0.874367 z m -1.2588,1.314648 a 2.6457945,2.6458336 0 0 0 -0.1587,0.475941 c 0.103,0.327395 0.2551,0.649374 0.4409,0.94671 0.1362,0.218171 0.2896,0.423408 0.4547,0.607717 a 3.1749523,3.1749992 0 0 0 0.8315,0.367419 c -0.38,-0.238509 -0.7669,-0.642094 -1.0615,-1.113626 -0.2517,-0.402974 -0.435,-0.853612 -0.5069,-1.284161 z" />
    </g>
  </g>
</svg>
