<?xml version="1.0" ?><svg xmlns:dc="http://purl.org/dc/elements/1.1/" xmlns:cc="http://creativecommons.org/ns#" xmlns:rdf="http://www.w3.org/1999/02/22-rdf-syntax-ns#" xmlns:svg="http://www.w3.org/2000/svg" xmlns="http://www.w3.org/2000/svg" xmlns:sodipodi="http://sodipodi.sourceforge.net/DTD/sodipodi-0.dtd" xmlns:inkscape="http://www.inkscape.org/namespaces/inkscape" sodipodi:docname="wall_band_bl.svg" inkscape:version="1.0 (4035a4fb49, 2020-05-01)" id="svg3893" version="1.1" viewBox="0 0 0.22489533 0.60854167" height="0.60854167mm" width="0.22489533mm">
  <defs id="defs3887"/>
  <sodipodi:namedview inkscape:window-maximized="1" inkscape:window-y="-8" inkscape:window-x="-8" inkscape:window-height="1057" inkscape:window-width="1920" showgrid="false" inkscape:document-rotation="0" inkscape:current-layer="layer1" inkscape:document-units="px" inkscape:cy="1.4745162" inkscape:cx="0.90666401" inkscape:zoom="256" inkscape:pageshadow="2" inkscape:pageopacity="0.0" borderopacity="1.0" bordercolor="#666666" pagecolor="#ffffff" id="base"/>
  <metadata id="metadata3890">
    <rdf:RDF>
      <cc:Work rdf:about="">
        <dc:format>image/svg+xml</dc:format>
        <dc:type rdf:resource="http://purl.org/dc/dcmitype/StillImage"/>
        <dc:title/>
      </cc:Work>
    </rdf:RDF>
  </metadata>
  <g transform="translate(-102.82842,-187.43843)" id="layer1" inkscape:groupmode="layer" inkscape:label="Layer 1">
    <g style="stroke-width:20" id="g11813" transform="matrix(0.04999989,0,0,0.04999989,86.622725,254.25193)">
      <path style="opacity:1;fill:#000000;fill-opacity:0.18;fill-rule:nonzero;stroke:none;stroke-width:297.807;stroke-linecap:round;stroke-linejoin:round;stroke-miterlimit:4;stroke-dasharray:none;stroke-dashoffset:0;stroke-opacity:1;paint-order:markers stroke fill;filter:url(#filter1957)" d="m 1234.125,-5022.4805 v 6 h -1.25 -4.3418 H 1225 v 3.5332 4.9336 3.5332 h 3.5332 4.3418 5.5918 c 1.9569,0 3.5332,-1.5763 3.5332,-3.5332 v -2.4668 -2.4668 -9.5332 z" transform="scale(0.26458333)" id="rect19227-0-4-9-9-3-8-0-8-1"/>
      <path id="path11708" transform="scale(0.26458333)" d="m 1228,-5050.4806 v 6.5001 c 0,1.228 -0.8597,2.2172 -1.9941,2.4493 v 0 c -0.1636,0.038 -0.3296,0.049 -0.5039,0.049 H 1225 v 31.0018 h 9 c 4.3945,0 8,-3.6052 8,-8 v -32 z" style="opacity:1;fill:#004030;fill-opacity:1;fill-rule:nonzero;stroke:none;stroke-width:80.0002;stroke-linecap:square;stroke-linejoin:round;stroke-miterlimit:4;stroke-dasharray:none;stroke-dashoffset:0;stroke-opacity:1;paint-order:markers stroke fill" inkscape:connector-curvature="0" sodipodi:nodetypes="ccccsccsccc"/>
      <path sodipodi:nodetypes="cssccsccc" inkscape:connector-curvature="0" id="path11634" d="m 325.4375,-1335.7437 v 1.1906 c 0,0.6575 -0.53306,1.1906 -1.19063,1.1906 h -0.13229 v 7.1437 h 2.38125 c 0.87675,0 1.5875,-0.7107 1.5875,-1.5875 v -7.9374 z" style="opacity:1;fill:#287054;fill-opacity:1;fill-rule:nonzero;stroke:none;stroke-width:21.1666;stroke-linecap:round;stroke-linejoin:round;stroke-miterlimit:4;stroke-dasharray:none;stroke-dashoffset:0;stroke-opacity:1;paint-order:markers stroke fill"/>
      <path sodipodi:nodetypes="cccccsccc" inkscape:connector-curvature="0" id="path11636" d="m 325.4375,-1336.2729 v 1.7198 c 0,0.6575 -0.53306,1.1906 -1.19063,1.1906 h -0.13229 v 2.6458 h 1.32292 c 1.46124,0 2.64583,-1.1846 2.64583,-2.6458 v -2.9104 z" style="opacity:1;fill:#00a87c;fill-opacity:1;fill-rule:nonzero;stroke:none;stroke-width:21.1666;stroke-linecap:round;stroke-linejoin:round;stroke-miterlimit:4;stroke-dasharray:none;stroke-dashoffset:0;stroke-opacity:1;paint-order:markers stroke fill"/>
      <path id="path11638" d="m 328.08333,-1330.7167 c 0,0.8768 -0.71075,1.5875 -1.5875,1.5875 h -2.38125 v 2.9104 h 2.38125 c 0.87675,0 1.5875,-0.7108 1.5875,-1.5875 z" style="opacity:1;fill:#9c2864;fill-opacity:1;fill-rule:nonzero;stroke:none;stroke-width:21.1666;stroke-linecap:round;stroke-linejoin:round;stroke-miterlimit:4;stroke-dasharray:none;stroke-dashoffset:0;stroke-opacity:1;paint-order:markers stroke fill" inkscape:connector-curvature="0" sodipodi:nodetypes="csccssc"/>
      <path id="path11644" d="m 324.11458,-1329.1291 v 2.9104 l 1.5875,-1e-4 c 0.43837,0 0.79374,-0.4738 0.79375,-1.0583 v -1.8521 h -0.79375 -0.52916 z" style="opacity:1;fill:#a43068;fill-opacity:1;fill-rule:nonzero;stroke:none;stroke-width:21.1666;stroke-linecap:round;stroke-linejoin:round;stroke-miterlimit:4;stroke-dasharray:none;stroke-dashoffset:0;stroke-opacity:1;paint-order:markers stroke fill" inkscape:connector-curvature="0" sodipodi:nodetypes="ccsccccc"/>
      <path id="path11646" d="m 326.49583,-1330.9384 c -0.3243,0.1419 -0.68175,0.2217 -1.05833,0.2217 h -1.32292 v 1.5875 h 1.32292 c 0.58449,0 1.05832,-0.5923 1.05833,-1.3229 z" style="opacity:1;fill:#006c50;fill-opacity:1;fill-rule:nonzero;stroke:none;stroke-width:21.1666;stroke-linecap:round;stroke-linejoin:round;stroke-miterlimit:4;stroke-dasharray:none;stroke-dashoffset:0;stroke-opacity:1;paint-order:markers stroke fill" inkscape:connector-curvature="0" sodipodi:nodetypes="ccccccc"/>
    </g>
  </g>
</svg>