<?xml version="1.0" encoding="UTF-8" standalone="no"?>
<svg
   width="0.23812498mm"
   height="0.50271308mm"
   viewBox="0 0 0.23812498 0.50271308"
   version="1.1"
   id="svg3893"
   inkscape:version="1.1 (c68e22c387, 2021-05-23)"
   sodipodi:docname="waterpark_fence_br.svg"
   xmlns:inkscape="http://www.inkscape.org/namespaces/inkscape"
   xmlns:sodipodi="http://sodipodi.sourceforge.net/DTD/sodipodi-0.dtd"
   xmlns="http://www.w3.org/2000/svg"
   xmlns:svg="http://www.w3.org/2000/svg"
   xmlns:rdf="http://www.w3.org/1999/02/22-rdf-syntax-ns#"
   xmlns:cc="http://creativecommons.org/ns#"
   xmlns:dc="http://purl.org/dc/elements/1.1/">
  <defs
     id="defs3887" />
  <sodipodi:namedview
     id="base"
     pagecolor="#ffffff"
     bordercolor="#666666"
     borderopacity="1.0"
     inkscape:pageopacity="0.0"
     inkscape:pageshadow="2"
     inkscape:zoom="11.2"
     inkscape:cx="1.5178571"
     inkscape:cy="22.544643"
     inkscape:document-units="px"
     inkscape:current-layer="layer1"
     inkscape:document-rotation="0"
     showgrid="false"
     inkscape:pagecheckerboard="0"
     inkscape:window-width="1920"
     inkscape:window-height="1057"
     inkscape:window-x="-8"
     inkscape:window-y="-8"
     inkscape:window-maximized="1" />
  <metadata
     id="metadata3890">
    <rdf:RDF>
      <cc:Work
         rdf:about="">
        <dc:format>image/svg+xml</dc:format>
        <dc:type
           rdf:resource="http://purl.org/dc/dcmitype/StillImage" />
      </cc:Work>
    </rdf:RDF>
  </metadata>
  <g
     inkscape:label="Layer 1"
     inkscape:groupmode="layer"
     id="layer1"
     transform="translate(-135.95805,-202.10386)">
    <g
       id="g59799"
       transform="matrix(0.05000039,0,0,0.05000039,90.581656,206.13879)"
       style="stroke-width:19.9998">
      <path
         id="path104614"
         style="fill:#000000;fill-opacity:0.18;stroke:none;stroke-width:199.998;stroke-linecap:round;stroke-linejoin:round;paint-order:markers fill stroke"
         d="m 907.78544,-74.347899 v 2.645833 c 0,0.586317 0.47202,1.058333 1.05833,1.058333 h 3.43954 v -3.704166 z"
         sodipodi:nodetypes="cscccc" />
      <path
         id="path104616"
         style="color:#000000;fill:#18483c;fill-opacity:1;stroke-width:21.1664;stroke-linecap:round;stroke-linejoin:round;-inkscape-stroke:none;paint-order:markers fill stroke"
         d="m 909.63731,-80.697916 c -0.57758,0 -1.0573,0.481698 -1.0573,1.058852 v 1.392677 c -0.47927,0.335777 -0.79478,0.891421 -0.79478,1.516187 v 1.786972 c -0.0119,0.01061 -0.0238,0.0217 -0.0351,0.03307 v 0.0021 c -0.30567,0.305271 -0.30567,0.815592 0,1.120863 v 0.0016 c 0.0116,0.01154 0.0233,0.02273 0.0351,0.03411 v 0.460435 c -3e-5,1.016514 0.83513,1.853658 1.85208,1.853634 1.01695,3.2e-5 1.85211,-0.837115 1.85208,-1.853634 v -0.26312 h 0.79395 v -2.38125 h -0.79395 v -0.79478 c 3e-5,-0.623594 -0.31496,-1.17815 -0.79271,-1.514118 v -1.394746 c 0,-0.577164 -0.48178,-1.058852 -1.05937,-1.058852 z"
         sodipodi:nodetypes="sscsccccccsssccccscss" />
      <path
         id="path104618"
         style="opacity:1;fill:#0c6454;fill-opacity:1;stroke:none;stroke-width:21.1664;stroke-linecap:round;stroke-linejoin:round;stroke-miterlimit:4;stroke-dasharray:none;paint-order:markers fill stroke"
         d="m 909.63749,-78.052066 c -0.73062,-1.9e-5 -1.32294,0.592283 -1.32291,1.322917 v 3.439583 c -3e-5,0.730634 0.59229,1.322935 1.32291,1.322917 0.73065,2.3e-5 1.32295,-0.592281 1.32292,-1.322917 v -3.439583 c 3e-5,-0.730637 -0.59227,-1.322941 -1.32292,-1.322917 z m 1.85209,2.645833 v 0.464056 c 0.0116,0.01024 0.0235,0.02098 0.0346,0.03204 0.22125,0.219681 0.28282,0.546796 0.1855,0.826823 h 0.57362 v -1.322917 z" />
      <path
         style="color:#000000;opacity:1;fill:#08745c;fill-opacity:1;stroke-width:19.9998;stroke-linecap:round;stroke-linejoin:round;-inkscape-stroke:none"
         d="m 908.31505,-74.613267 a 0.2645835,0.2645835 0 0 0 -0.1875,0.07813 0.2645835,0.2645835 0 0 0 0,0.375 c 0.327,0.327008 0.89243,0.605469 1.50976,0.605469 0.61733,0 1.18276,-0.278461 1.50977,-0.605469 a 0.2645835,0.2645835 0 0 0 0,-0.375 0.2645835,0.2645835 0 0 0 -0.37305,0 c -0.20231,0.202313 -0.69573,0.451172 -1.13672,0.451172 -0.44099,0 -0.93245,-0.248859 -1.13476,-0.451172 a 0.2645835,0.2645835 0 0 0 -0.1875,-0.07813 z"
         id="path104620" />
      <path
         id="path104622"
         style="opacity:1;fill:#087c64;fill-opacity:1;stroke:none;stroke-width:79.9992;stroke-linecap:round;stroke-linejoin:round;stroke-miterlimit:4;stroke-dasharray:none;paint-order:markers fill stroke"
         d="m 3437.9473,-303 c -1.0839,0.0273 -1.9473,0.90931 -1.9473,2 v 4.29492 c 0.6346,-0.19105 1.3061,-0.29496 2,-0.29492 0.6942,-2e-5 1.3651,0.10368 2,0.29492 V -301 c 0,-1.108 -0.892,-2 -2,-2 -0.017,0 -0.035,-4.3e-4 -0.053,0 z m 0.053,16 v 15 c 2.7615,8e-5 5.0001,-2.23854 5,-5 v -10 z m 7,2 v 1.75391 c 0.044,0.0387 0.089,0.0793 0.1309,0.12109 0.3269,0.32477 0.5606,0.71103 0.7031,1.125 H 3448 v -3 z"
         transform="scale(0.26458333)" />
      <path
         id="path104624"
         style="color:#000000;opacity:1;fill:#048c6c;fill-opacity:1;stroke-width:19.9998;stroke-linecap:round;stroke-linejoin:round;-inkscape-stroke:none"
         d="m 910.96035,-74.611969 a 0.26458349,0.26458349 0 0 0 -0.18656,0.077 c -0.2023,0.202314 -0.69538,0.451136 -1.13636,0.451136 v 0.529167 c 0.61733,0 1.18245,-0.278641 1.50948,-0.60565 a 0.26458349,0.26458349 0 0 0 0,-0.374653 0.26458349,0.26458349 0 0 0 -0.18656,-0.077 z" />
      <path
         id="path104626"
         style="opacity:1;fill:#0c9478;fill-opacity:1;stroke:none;stroke-width:21.1664;stroke-linecap:round;stroke-linejoin:round;stroke-miterlimit:4;stroke-dasharray:none;paint-order:markers fill stroke"
         d="m 910.43124,-76.729149 v 4.4974 c 0.33298,-0.249724 0.52901,-0.641598 0.52917,-1.057817 v -3.439583 z m 1.05834,1.322916 v 0.264584 h 0.79375 v -0.264584 z" />
      <path
         id="path104628"
         style="color:#000000;opacity:1;fill:#08a080;fill-opacity:1;stroke-width:19.9998;stroke-linecap:round;stroke-linejoin:round;-inkscape-stroke:none"
         d="m 910.96035,-74.611969 a 0.26458349,0.26458349 0 0 0 -0.18656,0.077 c -0.0777,0.07772 -0.19846,0.16197 -0.34261,0.236678 v 0.591695 c 0.28914,-0.112148 0.53774,-0.275754 0.71573,-0.45372 a 0.26458349,0.26458349 0 0 0 0.078,-0.180351 0.26458349,0.26458349 0 0 0 0,-0.01395 0.26458349,0.26458349 0 0 0 -0.078,-0.180351 0.26458349,0.26458349 0 0 0 -0.18656,-0.077 z" />
      <circle
         style="opacity:1;fill:#38b89c;fill-opacity:1;stroke:none;stroke-width:21.1664;stroke-linecap:round;stroke-linejoin:round;stroke-miterlimit:4;stroke-dasharray:none;paint-order:markers fill stroke"
         id="circle104630"
         cx="909.63751"
         cy="-76.729195"
         r="1.3228778" />
      <path
         id="path104636"
         style="fill:#08705c;fill-opacity:1;stroke:none;stroke-width:21.1664;stroke-linecap:round;stroke-linejoin:miter;stroke-miterlimit:4;stroke-dasharray:none;paint-order:markers fill stroke"
         d="m 909.63744,-80.168751 c -0.14658,0 -0.26458,0.118007 -0.26458,0.264583 v 1.342038 c 0.0865,-0.01256 0.17478,-0.01912 0.26458,-0.01912 0.0898,-3e-6 0.17807,0.0066 0.26459,0.01912 v -1.342038 c 0,-0.146576 -0.11801,-0.264583 -0.26459,-0.264583 z"
         sodipodi:nodetypes="sscscss" />
      <circle
         style="fill:#04241c;fill-opacity:1;stroke:none;stroke-width:21.1664;stroke-linecap:round;stroke-linejoin:round;stroke-miterlimit:4;stroke-dasharray:none;paint-order:markers fill stroke"
         id="circle129968-8"
         cx="909.63751"
         cy="-76.729195"
         r="0.66145915" />
    </g>
  </g>
</svg>
