<?xml version="1.0" encoding="UTF-8" standalone="no"?>
<!-- Created with Inkscape (http://www.inkscape.org/) -->

<svg
   xmlns:dc="http://purl.org/dc/elements/1.1/"
   xmlns:cc="http://creativecommons.org/ns#"
   xmlns:rdf="http://www.w3.org/1999/02/22-rdf-syntax-ns#"
   xmlns:svg="http://www.w3.org/2000/svg"
   xmlns="http://www.w3.org/2000/svg"
   xmlns:sodipodi="http://sodipodi.sourceforge.net/DTD/sodipodi-0.dtd"
   xmlns:inkscape="http://www.inkscape.org/namespaces/inkscape"
   width="2.4341667mm"
   height="2.4341667mm"
   viewBox="0 0 2.4341667 2.4341667"
   version="1.1"
   id="svg29559"
   inkscape:version="0.92.4 (5da689c313, 2019-01-14)"
   sodipodi:docname="hot_zone_blue.svg">
  <defs
     id="defs29553" />
  <sodipodi:namedview
     id="base"
     pagecolor="#ffffff"
     bordercolor="#666666"
     borderopacity="1.0"
     inkscape:pageopacity="0.0"
     inkscape:pageshadow="2"
     inkscape:zoom="44.8"
     inkscape:cx="8.1556368"
     inkscape:cy="1.2827619"
     inkscape:document-units="mm"
     inkscape:current-layer="layer1"
     showgrid="false"
     inkscape:window-width="1920"
     inkscape:window-height="1057"
     inkscape:window-x="-8"
     inkscape:window-y="-8"
     inkscape:window-maximized="1" />
  <metadata
     id="metadata29556">
    <rdf:RDF>
      <cc:Work
         rdf:about="">
        <dc:format>image/svg+xml</dc:format>
        <dc:type
           rdf:resource="http://purl.org/dc/dcmitype/StillImage" />
        <dc:title />
      </cc:Work>
    </rdf:RDF>
  </metadata>
  <g
     inkscape:label="Layer 1"
     inkscape:groupmode="layer"
     id="layer1"
     transform="translate(229.96071,-153.35394)">
    <g
       id="g29480"
       transform="matrix(0.05,0,0,0.05,-221.4742,215.82181)">
      <path
         inkscape:connector-curvature="0"
         style="opacity:1;fill:#00ccff;fill-opacity:1;fill-rule:nonzero;stroke:none;stroke-width:34.77165604;stroke-linecap:round;stroke-linejoin:miter;stroke-miterlimit:4;stroke-dasharray:none;stroke-dashoffset:0;stroke-opacity:1;paint-order:markers stroke fill"
         d="m -735.5,-4721.9805 a 91.999996,91.999996 0 0 0 -92,92 91.999996,91.999996 0 0 0 92,92 91.999996,91.999996 0 0 0 92,-92 91.999996,91.999996 0 0 0 -92,-92 z m 0,5 a 86.999995,86.999995 0 0 1 87,87 86.999995,86.999995 0 0 1 -87,87 86.999995,86.999995 0 0 1 -87,-87 86.999995,86.999995 0 0 1 87,-87 z m -22.5,76.5 0.004,0.045 11.39257,5.6972 0.0273,-0.031 z m 47,0 -11.34375,5.6719 0.0625,0.07 11.27344,-5.6367 z"
         transform="matrix(0.26458333,0,0,0.26458333,49.212495,0)"
         id="path29468" />
      <path
         style="opacity:0.70800003;fill:#1197c4;fill-opacity:1;fill-rule:nonzero;stroke:none;stroke-width:32.88188934;stroke-linecap:round;stroke-linejoin:miter;stroke-miterlimit:4;stroke-dasharray:none;stroke-dashoffset:0;stroke-opacity:1;paint-order:markers stroke fill"
         d="m -549.5,-4716.9805 a 86.999997,86.999997 0 0 0 -87,87 86.999997,86.999997 0 0 0 87,87 86.999997,86.999997 0 0 0 87,-87 86.999997,86.999997 0 0 0 -87,-87 z m 1,69.5 11.5,13 12,-6 -2,27 h -43 l -2,-27 12,6 z"
         transform="scale(0.26458333)"
         id="path29472"
         inkscape:connector-curvature="0" />
      <rect
         y="-1229.6459"
         x="-145.25627"
         height="0.26458332"
         width="0.26458332"
         id="rect29474"
         style="opacity:0.181;fill:#ff0000;fill-opacity:1;fill-rule:nonzero;stroke:none;stroke-width:3;stroke-linecap:round;stroke-linejoin:miter;stroke-miterlimit:4;stroke-dasharray:none;stroke-dashoffset:0;stroke-opacity:1;paint-order:markers stroke fill" />
      <path
         id="path29476"
         d="m -145.15293,-1230.174 a 0.52921955,0.52921955 0 0 0 -0.3669,0.1778 l -2.77347,3.1347 -2.81068,-1.4062 a 0.52921955,0.52921955 0 0 0 -0.76585,0.5137 l 0.52968,7.1427 a 0.52921955,0.52921955 0 0 0 0.52711,0.4904 h 11.37708 a 0.52921955,0.52921955 0 0 0 0.52916,-0.4904 l 0.5271,-7.1427 a 0.52921955,0.52921955 0 0 0 -0.76326,-0.5137 l -2.81068,1.4062 -2.77347,-3.1347 a 0.52921955,0.52921955 0 0 0 -0.42582,-0.1778 z m 0.0289,0.5281 3.04271,3.4396 3.175,-1.5875 -0.52917,7.1438 h -11.37708 l -0.52917,-7.1438 3.175,1.5875 z"
         style="color:#000000;font-style:normal;font-variant:normal;font-weight:normal;font-stretch:normal;font-size:medium;line-height:normal;font-family:sans-serif;font-variant-ligatures:normal;font-variant-position:normal;font-variant-caps:normal;font-variant-numeric:normal;font-variant-alternates:normal;font-feature-settings:normal;text-indent:0;text-align:start;text-decoration:none;text-decoration-line:none;text-decoration-style:solid;text-decoration-color:#000000;letter-spacing:normal;word-spacing:normal;text-transform:none;writing-mode:lr-tb;direction:ltr;text-orientation:mixed;dominant-baseline:auto;baseline-shift:baseline;text-anchor:start;white-space:normal;shape-padding:0;clip-rule:nonzero;display:inline;overflow:visible;visibility:visible;opacity:1;isolation:auto;mix-blend-mode:normal;color-interpolation:sRGB;color-interpolation-filters:linearRGB;solid-color:#000000;solid-opacity:1;vector-effect:none;fill:#00ccff;fill-opacity:1;fill-rule:nonzero;stroke:none;stroke-width:1.05833328;stroke-linecap:butt;stroke-linejoin:round;stroke-miterlimit:4;stroke-dasharray:none;stroke-dashoffset:0;stroke-opacity:1;color-rendering:auto;image-rendering:auto;shape-rendering:auto;text-rendering:auto;enable-background:accumulate"
         inkscape:connector-curvature="0" />
      <path
         style="opacity:0.7;fill:#00ccff;fill-opacity:1;stroke:none;stroke-width:1.05833328;stroke-linecap:butt;stroke-linejoin:round;stroke-miterlimit:4;stroke-dasharray:none;stroke-opacity:1"
         d="m -150.81253,-1220.65 -0.52916,-7.1437 3.17499,1.5875 3.04271,-3.4397 3.04271,3.4397 3.175,-1.5875 -0.52917,7.1437 z"
         id="path29478"
         inkscape:connector-curvature="0" />
    </g>
  </g>
</svg>
