<?xml version="1.0" encoding="UTF-8" standalone="no"?>
<svg
   xmlns:dc="http://purl.org/dc/elements/1.1/"
   xmlns:cc="http://creativecommons.org/ns#"
   xmlns:rdf="http://www.w3.org/1999/02/22-rdf-syntax-ns#"
   xmlns:svg="http://www.w3.org/2000/svg"
   xmlns="http://www.w3.org/2000/svg"
   xmlns:sodipodi="http://sodipodi.sourceforge.net/DTD/sodipodi-0.dtd"
   xmlns:inkscape="http://www.inkscape.org/namespaces/inkscape"
   sodipodi:docname="merch_display.svg"
   inkscape:version="1.0 (4035a4fb49, 2020-05-01)"
   id="svg3893"
   version="1.1"
   viewBox="0 0 0.26458332 0.42333284"
   height="0.42333284mm"
   width="0.26458332mm">
  <defs
     id="defs3887" />
  <sodipodi:namedview
     inkscape:window-maximized="1"
     inkscape:window-y="-8"
     inkscape:window-x="-8"
     inkscape:window-height="1057"
     inkscape:window-width="1920"
     showgrid="false"
     inkscape:document-rotation="0"
     inkscape:current-layer="layer1"
     inkscape:document-units="px"
     inkscape:cy="1.2529807"
     inkscape:cx="1.1669711"
     inkscape:zoom="256"
     inkscape:pageshadow="2"
     inkscape:pageopacity="0.0"
     borderopacity="1.0"
     bordercolor="#666666"
     pagecolor="#ffffff"
     id="base" />
  <metadata
     id="metadata3890">
    <rdf:RDF>
      <cc:Work
         rdf:about="">
        <dc:format>image/svg+xml</dc:format>
        <dc:type
           rdf:resource="http://purl.org/dc/dcmitype/StillImage" />
        <dc:title></dc:title>
      </cc:Work>
    </rdf:RDF>
  </metadata>
  <g
     transform="translate(-123.59821,-143.17739)"
     id="layer1"
     inkscape:groupmode="layer"
     inkscape:label="Layer 1">
    <g
       style="stroke-width:20"
       transform="matrix(0.05,0,0,0.05,119.69561,147.46364)"
       id="g1824">
      <rect
         style="opacity:0.18;fill:#000000;fill-opacity:0.995902;fill-rule:nonzero;stroke:none;stroke-width:78.794;stroke-linecap:round;stroke-linejoin:round;stroke-miterlimit:4;stroke-dasharray:none;stroke-dashoffset:0;stroke-opacity:1;paint-order:markers stroke fill;filter:url(#filter1957)"
         id="rect19227-0-4-9-9-1-1"
         width="5.2911124"
         height="3.1749845"
         x="78.052361"
         y="-80.433327"
         ry="0.93459511" />
      <path
         id="path1763"
         style="color:#000000;font-style:normal;font-variant:normal;font-weight:normal;font-stretch:normal;font-size:medium;line-height:normal;font-family:sans-serif;font-variant-ligatures:normal;font-variant-position:normal;font-variant-caps:normal;font-variant-numeric:normal;font-variant-alternates:normal;font-variant-east-asian:normal;font-feature-settings:normal;font-variation-settings:normal;text-indent:0;text-align:start;text-decoration:none;text-decoration-line:none;text-decoration-style:solid;text-decoration-color:#000000;letter-spacing:normal;word-spacing:normal;text-transform:none;writing-mode:lr-tb;direction:ltr;text-orientation:mixed;dominant-baseline:auto;baseline-shift:baseline;text-anchor:start;white-space:normal;shape-padding:0;shape-margin:0;inline-size:0;clip-rule:nonzero;display:inline;overflow:visible;visibility:visible;isolation:auto;mix-blend-mode:normal;color-interpolation:sRGB;color-interpolation-filters:linearRGB;solid-color:#000000;solid-opacity:1;vector-effect:none;fill:#102c64;fill-opacity:1;fill-rule:nonzero;stroke:none;stroke-width:79.9998;stroke-linecap:square;stroke-linejoin:round;stroke-miterlimit:4;stroke-dasharray:none;stroke-dashoffset:0;stroke-opacity:1;paint-order:markers fill stroke;color-rendering:auto;image-rendering:auto;shape-rendering:auto;text-rendering:auto;enable-background:accumulate;stop-color:#000000"
         d="m 299,-324 c -2.18142,0 -4,1.81858 -4,4 v 2 10 6 c 0,2.18142 1.81858,4 4,4 h 2.53711 a 2.0002,2.0002 0 0 0 1.73242,-1 c 0.35875,-0.62139 1.01295,-0.99978 1.73047,-1 0.71787,-1.3e-4 1.37349,0.3783 1.73242,1 a 2.0002,2.0002 0 0 0 1.73242,1 H 311 c 2.18142,0 4,-1.81858 4,-4 v -6 -10 -2 c 0,-2.18142 -1.81858,-4 -4,-4 z"
         transform="scale(0.26458333)" />
      <path
         id="rect1713"
         style="opacity:1;fill:#303880;fill-opacity:1;stroke:none;stroke-width:79.9998;stroke-linecap:square;paint-order:markers fill stroke"
         d="m 299,-320 c -1.10799,0 -2,0.89201 -2,2 v 16 c 0,1.10799 0.89201,2 2,2 h 2.53711 a 3.9999999,3.9999999 0 0 1 3.46289,-2 3.9999999,3.9999999 0 0 1 3.46484,2 H 311 c 1.10799,0 2,-0.89201 2,-2 v -16 c 0,-1.10799 -0.89201,-2 -2,-2 z"
         transform="scale(0.26458333)" />
      <path
         id="path1792"
         style="opacity:1;fill:#50589c;fill-opacity:1;stroke:none;stroke-width:79.9998;stroke-linecap:square;paint-order:markers fill stroke"
         d="m 298,-319.72461 c -0.5958,0.34556 -1,0.98355 -1,1.72461 v 16 c 0,0.74106 0.4042,1.37905 1,1.72461 z m 14,0 v 19.44922 c 0.5958,-0.34556 1,-0.98355 1,-1.72461 v -16 c 0,-0.74106 -0.4042,-1.37905 -1,-1.72461 z"
         transform="scale(0.26458333)" />
      <rect
         style="opacity:1;fill:#3c4cb0;fill-opacity:1;stroke:none;stroke-width:21.1666;stroke-linecap:square;paint-order:markers fill stroke"
         id="rect1717"
         width="4.2333298"
         height="4.2333341"
         x="78.581245"
         y="-85.195831"
         ry="0.52916402" />
      <rect
         ry="0.79374391"
         y="-84.931244"
         x="78.845833"
         height="3.7041593"
         width="3.7041554"
         id="rect1719"
         style="opacity:1;fill:#64900c;fill-opacity:1;stroke:none;stroke-width:21.1666;stroke-linecap:square;paint-order:markers fill stroke" />
      <rect
         style="opacity:1;fill:#9ad721;fill-opacity:1;stroke:none;stroke-width:21.1666;stroke-linecap:square;paint-order:markers fill stroke"
         id="rect1721"
         width="3.704155"
         height="3.1750009"
         x="78.845833"
         y="-85.195831"
         ry="0.79374796" />
      <circle
         inkscape:export-ydpi="96"
         inkscape:export-xdpi="96"
         inkscape:export-filename="C:\Users\Donatas\Dropbox\Brawl Stars (Edited)\icons\brawler_icons_pictograms\spike\hero_icon_spike_robo.png"
         style="opacity:1;fill:#000000;fill-opacity:1;fill-rule:nonzero;stroke:none;stroke-width:5.29166;stroke-linecap:round;stroke-linejoin:round;stroke-miterlimit:4;stroke-dasharray:none;stroke-dashoffset:0;stroke-opacity:1;paint-order:markers stroke fill;filter:url(#filter1957)"
         id="circle1723"
         cx="79.819778"
         cy="-83.979355"
         r="0.57717806" />
      <circle
         inkscape:export-ydpi="96"
         inkscape:export-xdpi="96"
         inkscape:export-filename="C:\Users\Donatas\Dropbox\Brawl Stars (Edited)\icons\brawler_icons_pictograms\spike\hero_icon_spike_robo.png"
         r="0.57717806"
         cy="-83.979355"
         cx="-81.575844"
         id="circle1725"
         style="opacity:1;fill:#000000;fill-opacity:1;fill-rule:nonzero;stroke:none;stroke-width:5.29166;stroke-linecap:round;stroke-linejoin:round;stroke-miterlimit:4;stroke-dasharray:none;stroke-dashoffset:0;stroke-opacity:1;paint-order:markers stroke fill;filter:url(#filter1957)"
         transform="scale(-1,1)" />
      <path
         inkscape:export-ydpi="96"
         inkscape:export-xdpi="96"
         inkscape:export-filename="C:\Users\Donatas\Dropbox\Brawl Stars (Edited)\icons\brawler_icons_pictograms\spike\hero_icon_spike_robo.png"
         sodipodi:nodetypes="ssczcscccczcccs"
         inkscape:connector-curvature="0"
         id="path1728"
         d="m 80.33759,-83.319116 c -0.262154,0 -0.474659,0.212501 -0.474659,0.474754 0,0.262117 0.239189,0.428683 0.459067,0.487977 0.107532,0.02862 0.243488,0.04634 0.375905,0.04634 0.132436,0 0.268391,-0.01772 0.375918,-0.04634 0.219892,-0.05861 0.459081,-0.22586 0.459081,-0.487977 0,-0.262253 -0.212519,-0.474754 -0.474673,-0.474754 v 0 c -0.08432,0 -0.167091,0.02317 -0.239768,0.06543 v 0 c -0.01578,0.01363 -0.07434,0.02181 -0.120263,0.02181 -0.04594,0 -0.102434,-0.01363 -0.120277,-0.02181 v 0 c -0.07268,-0.04226 -0.155434,-0.06543 -0.239768,-0.06543 z"
         style="opacity:1;fill:#000000;fill-opacity:1;fill-rule:nonzero;stroke:none;stroke-width:5.29166;stroke-linecap:round;stroke-linejoin:round;stroke-miterlimit:4;stroke-dasharray:none;stroke-dashoffset:0;stroke-opacity:1;paint-order:markers stroke fill;filter:url(#filter1957)" />
      <path
         id="rect1785"
         style="opacity:1;fill:#5c6cc0;fill-opacity:1;stroke:none;stroke-width:79.9998;stroke-linecap:square;paint-order:markers fill stroke"
         d="m 299,-322 c -1.10799,0 -2,0.89201 -2,2 v 12 c 0,0.74107 0.4042,1.37905 1,1.72461 V -320 c 0,-1.10799 0.89201,-2 2,-2 z m 11,0 c 1.10799,0 2,0.89201 2,2 v 13.72461 c 0.5958,-0.34556 1,-0.98354 1,-1.72461 v -12 c 0,-1.10799 -0.89201,-2 -2,-2 z"
         transform="scale(0.26458333)" />
    </g>
  </g>
</svg>
