<?xml version="1.0" encoding="UTF-8" standalone="no"?>
<!-- Created with Inkscape (http://www.inkscape.org/) -->

<svg
   xmlns:dc="http://purl.org/dc/elements/1.1/"
   xmlns:cc="http://creativecommons.org/ns#"
   xmlns:rdf="http://www.w3.org/1999/02/22-rdf-syntax-ns#"
   xmlns:svg="http://www.w3.org/2000/svg"
   xmlns="http://www.w3.org/2000/svg"
   xmlns:sodipodi="http://sodipodi.sourceforge.net/DTD/sodipodi-0.dtd"
   xmlns:inkscape="http://www.inkscape.org/namespaces/inkscape"
   width="0.26491004mm"
   height="0.39677057mm"
   viewBox="0 0 0.26491004 0.39677056"
   version="1.1"
   id="svg6210"
   sodipodi:docname="neon_railing_r.svg"
   inkscape:version="0.92.3 (2405546, 2018-03-11)">
  <defs
     id="defs6204" />
  <sodipodi:namedview
     id="base"
     pagecolor="#ffffff"
     bordercolor="#666666"
     borderopacity="1.0"
     inkscape:pageopacity="0.0"
     inkscape:pageshadow="2"
     inkscape:zoom="256"
     inkscape:cx="0.56757489"
     inkscape:cy="0.92473046"
     inkscape:document-units="mm"
     inkscape:current-layer="layer1"
     showgrid="false"
     inkscape:object-paths="true"
     inkscape:window-width="1920"
     inkscape:window-height="1057"
     inkscape:window-x="-8"
     inkscape:window-y="-8"
     inkscape:window-maximized="1" />
  <metadata
     id="metadata6207">
    <rdf:RDF>
      <cc:Work
         rdf:about="">
        <dc:format>image/svg+xml</dc:format>
        <dc:type
           rdf:resource="http://purl.org/dc/dcmitype/StillImage" />
        <dc:title />
      </cc:Work>
    </rdf:RDF>
  </metadata>
  <g
     inkscape:label="Layer 1"
     inkscape:groupmode="layer"
     id="layer1"
     transform="translate(232.18673,-28.085431)">
    <g
       transform="matrix(0.05000007,0,0,0.05000007,-245.88542,79.885329)"
       id="g6177">
      <path
         style="color:#000000;font-style:normal;font-variant:normal;font-weight:normal;font-stretch:normal;font-size:medium;line-height:normal;font-family:sans-serif;font-variant-ligatures:normal;font-variant-position:normal;font-variant-caps:normal;font-variant-numeric:normal;font-variant-alternates:normal;font-feature-settings:normal;text-indent:0;text-align:start;text-decoration:none;text-decoration-line:none;text-decoration-style:solid;text-decoration-color:#000000;letter-spacing:normal;word-spacing:normal;text-transform:none;writing-mode:lr-tb;direction:ltr;text-orientation:mixed;dominant-baseline:auto;baseline-shift:baseline;text-anchor:start;white-space:normal;shape-padding:0;clip-rule:nonzero;display:inline;overflow:visible;visibility:visible;opacity:1;isolation:auto;mix-blend-mode:normal;color-interpolation:sRGB;color-interpolation-filters:linearRGB;solid-color:#000000;solid-opacity:1;vector-effect:none;fill:#202440;fill-opacity:1;fill-rule:nonzero;stroke:none;stroke-width:1;stroke-linecap:round;stroke-linejoin:miter;stroke-miterlimit:4;stroke-dasharray:none;stroke-dashoffset:0;stroke-opacity:1;paint-order:markers stroke fill;color-rendering:auto;image-rendering:auto;shape-rendering:auto;text-rendering:auto;enable-background:accumulate"
         d="m 275.20748,-1035.2126 v 0.5002 1.9963 c -0.53993,0.2058 -0.93189,0.7215 -0.93173,1.3296 1.9e-4,0.7847 0.64728,1.4317 1.43196,1.4315 h 0.69865 v 0.6149 c -1.3e-4,0.7001 0.57732,1.2787 1.27744,1.279 0.70046,2e-4 1.27966,-0.5786 1.27952,-1.279 v -0.6149 h 0.30644 v -5.2576 z m 1.00045,1.0005 h 2.56161 v 3.2566 h -2.75643 -0.3054 c -0.24422,10e-5 -0.43143,-0.1868 -0.43151,-0.431 -6e-5,-0.2443 0.18719,-0.4315 0.43151,-0.4315 h 0.50022 z m 1.19837,4.2571 h 0.55655 v 0.6149 c 3e-5,0.1598 -0.11715,0.2791 -0.27696,0.2791 -0.15976,-10e-5 -0.27961,-0.1193 -0.27959,-0.2791 z"
         id="path18094-7"
         inkscape:connector-curvature="0"
         sodipodi:nodetypes="cccccccccccccccccccccccccccc" />
      <path
         sodipodi:nodetypes="cccccccccccc"
         inkscape:connector-curvature="0"
         style="opacity:1;fill:#343a70;fill-opacity:1;fill-rule:nonzero;stroke:none;stroke-width:1;stroke-linecap:round;stroke-linejoin:miter;stroke-miterlimit:4;stroke-dasharray:none;stroke-dashoffset:0;stroke-opacity:1;paint-order:markers stroke fill"
         d="m 276.01297,-1033.4747 v 3.0194 h 1.06971 c -0.1139,0.1391 -0.17616,0.3133 -0.17624,0.493 v 0.6227 c -8e-5,0.43 0.34833,0.7786 0.77825,0.7788 0.43016,10e-5 0.77885,-0.3486 0.77877,-0.7788 v -0.6227 c -8e-5,-0.1797 -0.0623,-0.3539 -0.17621,-0.493 h 0.98251 v -3.0194 z"
         id="path18096-2" />
      <path
         style="opacity:1;fill:#343a70;fill-opacity:1;fill-rule:nonzero;stroke:none;stroke-width:1.02439713;stroke-linecap:round;stroke-linejoin:miter;stroke-miterlimit:4;stroke-dasharray:none;stroke-dashoffset:0;stroke-opacity:1;paint-order:fill markers stroke"
         d="m 277.68468,-1030.1178 a 0.77859074,0.77859074 0 0 0 -0.46558,0.1555 h -0.31266 v 0.6227 a 0.77859074,0.77859074 0 0 0 0.77824,0.7788 0.77859074,0.77859074 0 0 0 0.77878,-0.7788 v -0.6227 h -0.31316 a 0.77859074,0.77859074 0 0 0 -0.46562,-0.1555 z"
         id="path18098-7"
         inkscape:connector-curvature="0" />
      <circle
         r="0.77859074"
         cy="-1029.9624"
         cx="277.68488"
         id="circle18100-8"
         style="opacity:1;fill:#4d5493;fill-opacity:1;fill-rule:nonzero;stroke:none;stroke-width:1.02439713;stroke-linecap:round;stroke-linejoin:miter;stroke-miterlimit:4;stroke-dasharray:none;stroke-dashoffset:0;stroke-opacity:1;paint-order:fill markers stroke" />
      <path
         style="opacity:1;fill:#404477;fill-opacity:1;fill-rule:nonzero;stroke:none;stroke-width:0.62223893;stroke-linecap:round;stroke-linejoin:miter;stroke-miterlimit:4;stroke-dasharray:none;stroke-dashoffset:0;stroke-opacity:1;paint-order:fill markers stroke"
         d="m 277.21185,-1030.6961 v 0.7338 a 0.47293133,0.47293133 0 0 0 0.47283,0.4729 0.47293133,0.47293133 0 0 0 0.47337,-0.4729 v -0.7338 z"
         id="path18102-3"
         inkscape:connector-curvature="0" />
      <path
         style="opacity:1;fill:#222647;fill-opacity:1;fill-rule:nonzero;stroke:none;stroke-width:0.85260379;stroke-linecap:round;stroke-linejoin:miter;stroke-miterlimit:4;stroke-dasharray:none;stroke-dashoffset:0;stroke-opacity:1;paint-order:fill markers stroke"
         d="m 277.68468,-1030.741 a 0.77859074,0.77859074 0 0 0 -0.69297,0.4263 h 1.3875 a 0.77859074,0.77859074 0 0 0 -0.69453,-0.4263 z"
         id="path18104-2"
         inkscape:connector-curvature="0" />
      <path
         style="opacity:1;fill:#262c50;fill-opacity:1;fill-rule:nonzero;stroke:none;stroke-width:0.85260379;stroke-linecap:round;stroke-linejoin:miter;stroke-miterlimit:4;stroke-dasharray:none;stroke-dashoffset:0;stroke-opacity:1;paint-order:fill markers stroke"
         d="m 277.21185,-1030.6961 v 0.3814 h 0.15814 0.62942 0.15864 v -0.3814 z"
         id="path18106-7"
         inkscape:connector-curvature="0" />
      <path
         style="opacity:1;fill:#303860;fill-opacity:1;fill-rule:nonzero;stroke:none;stroke-width:1;stroke-linecap:round;stroke-linejoin:miter;stroke-miterlimit:4;stroke-dasharray:none;stroke-dashoffset:0;stroke-opacity:1;paint-order:fill markers stroke"
         d="m 275.70771,-1035.4978 v 3.1796 a 0.93146519,0.93146519 0 0 0 -0.93174,0.9317 0.93146519,0.93146519 0 0 0 0.93174,0.9312 h 3.56205 v -5.0425 z"
         id="path18108-8"
         inkscape:connector-curvature="0" />
      <path
         style="opacity:1;fill:#54608c;fill-opacity:1;fill-rule:nonzero;stroke:none;stroke-width:0.78478551;stroke-linecap:round;stroke-linejoin:miter;stroke-miterlimit:4;stroke-dasharray:none;stroke-dashoffset:0;stroke-opacity:1;paint-order:fill markers stroke"
         d="m 275.70771,-1035.4978 v 2.4096 0.77 a 0.93146519,0.93146519 0 0 0 -0.84749,0.5467 0.93146519,0.93146519 0 0 0 0.84749,0.5462 h 3.56205 v -4.2725 z"
         id="path18110-8"
         inkscape:connector-curvature="0" />
      <circle
         r="0.47293133"
         cy="-1031.9619"
         cx="277.68488"
         id="circle18112-7"
         style="opacity:1;fill:#404578;fill-opacity:1;fill-rule:nonzero;stroke:none;stroke-width:0.62223893;stroke-linecap:round;stroke-linejoin:miter;stroke-miterlimit:4;stroke-dasharray:none;stroke-dashoffset:0;stroke-opacity:1;paint-order:fill markers stroke" />
      <path
         style="color:#000000;font-style:normal;font-variant:normal;font-weight:normal;font-stretch:normal;font-size:medium;line-height:normal;font-family:sans-serif;font-variant-ligatures:normal;font-variant-position:normal;font-variant-caps:normal;font-variant-numeric:normal;font-variant-alternates:normal;font-feature-settings:normal;text-indent:0;text-align:start;text-decoration:none;text-decoration-line:none;text-decoration-style:solid;text-decoration-color:#000000;letter-spacing:normal;word-spacing:normal;text-transform:none;writing-mode:lr-tb;direction:ltr;text-orientation:mixed;dominant-baseline:auto;baseline-shift:baseline;text-anchor:start;white-space:normal;shape-padding:0;clip-rule:nonzero;display:inline;overflow:visible;visibility:visible;opacity:1;isolation:auto;mix-blend-mode:normal;color-interpolation:sRGB;color-interpolation-filters:linearRGB;solid-color:#000000;solid-opacity:1;vector-effect:none;fill:#7c182c;fill-opacity:1;fill-rule:nonzero;stroke:none;stroke-width:1;stroke-linecap:round;stroke-linejoin:miter;stroke-miterlimit:4;stroke-dasharray:none;stroke-dashoffset:0;stroke-opacity:1;paint-order:markers stroke fill;color-rendering:auto;image-rendering:auto;shape-rendering:auto;text-rendering:auto;enable-background:accumulate"
         d="m 275.40707,-1035.928 h -0.0414 -0.004 c -0.18066,0.01 -0.35838,0.047 -0.52401,0.1199 h -0.003 v 0 c -0.022,0.01 -0.042,0.02 -0.0605,0.029 -0.003,0 -0.003,0 -0.004,0 0,0 -0.003,0 -0.004,0 -0.0183,0.01 -0.0345,0.018 -0.0465,0.024 h -0.006 -0.005 c -0.0265,0.015 -0.0492,0.029 -0.0677,0.041 -0.0127,0.01 -0.0265,0.017 -0.0424,0.028 h -0.004 -0.004 c -0.0196,0.014 -0.0417,0.03 -0.0646,0.048 h -0.003 c -0.003,0 -0.004,0 -0.006,0 -0.0103,0.01 -0.0206,0.016 -0.03,0.024 h -0.004 -0.004 c -0.0185,0.016 -0.0381,0.033 -0.0579,0.052 h -0.003 v 0 c -0.0156,0.015 -0.0302,0.03 -0.045,0.045 -0.0212,0.022 -0.0389,0.042 -0.0532,0.059 -0.0116,0.014 -0.023,0.028 -0.0341,0.041 h -0.003 -0.003 c -0.0164,0.021 -0.0302,0.041 -0.0429,0.059 -1.6e-4,0 0,0 0,0 0,0 -0.003,0 -0.003,0 -0.0109,0.016 -0.0225,0.032 -0.0351,0.052 h -0.003 -0.003 c -0.013,0.021 -0.0238,0.041 -0.0336,0.058 -0.0143,0.025 -0.0262,0.048 -0.0362,0.069 h -0.003 -0.003 c -0.008,0.017 -0.0151,0.033 -0.0212,0.046 v 0 0 c -0.0101,0.022 -0.0209,0.049 -0.032,0.079 v 0 0 c -0.006,0.017 -0.0122,0.035 -0.018,0.053 v 0 c 0,0 0,0 -0.003,0 -0.008,0.025 -0.0151,0.048 -0.0206,0.069 v 0 0 c -0.007,0.024 -0.0111,0.044 -0.0151,0.062 0,0 0,0 -0.003,0.01 v 0 c -0.004,0.019 -0.008,0.039 -0.0124,0.063 v 0 0 c -0.005,0.031 -0.007,0.051 -0.009,0.067 -2.1e-4,0 0,0 0,0.01 -0.004,0.031 -0.007,0.063 -0.008,0.094 v 0 c -0.003,0.036 0,0.048 0,0.037 v 0.023 1.0748 c 0,0.01 0,0.038 0.005,0.081 0.003,0.026 0.003,0.06 0.004,0.07 -0.006,-0.028 0.006,0.056 0.009,0.084 0.0116,0.1002 0.0487,0.2169 0.0847,0.3029 0.036,0.086 0.0588,0.1165 0.0886,0.1747 0.0471,0.082 0.10219,0.1595 0.16434,0.2305 0.14512,0.1655 0.3266,0.2958 0.5302,0.3798 0.17055,0.071 0.35515,0.1093 0.54517,0.1096 v 0 h 3.86413 v -3.9377 h -0.49815 v 0 h -1.98261 v 0 z"
         id="path18114-7"
         inkscape:connector-curvature="0"
         sodipodi:nodetypes="ccccccccccccccccccccccccccccccccccccccccccccccccccccccccccccccccsccczcccccccccccc" />
      <path
         style="opacity:1;fill:#9c1c3c;fill-opacity:1;fill-rule:nonzero;stroke:none;stroke-width:1;stroke-linecap:round;stroke-linejoin:miter;stroke-miterlimit:4;stroke-dasharray:none;stroke-dashoffset:0;stroke-opacity:1;paint-order:markers stroke fill"
         d="m 275.37801,-1035.4978 v 0 a 0.93108176,0.93108176 0 0 0 -0.34108,0.078 0.93108176,0.93108176 0 0 0 -0.0439,0.021 0.93108176,0.93108176 0 0 0 -0.0388,0.02 0.93108176,0.93108176 0 0 0 -0.045,0.027 0.93108176,0.93108176 0 0 0 -0.031,0.02 0.93108176,0.93108176 0 0 0 -0.048,0.036 0.93108176,0.93108176 0 0 0 -0.0243,0.019 0.93108176,0.93108176 0 0 0 -0.0419,0.038 0.93108176,0.93108176 0 0 0 -0.0294,0.029 0.93108176,0.93108176 0 0 0 -0.0336,0.038 0.93108176,0.93108176 0 0 0 -0.0265,0.032 0.93108176,0.93108176 0 0 0 -0.0289,0.04 0.93108176,0.93108176 0 0 0 -0.0254,0.038 0.93108176,0.93108176 0 0 0 -0.0233,0.04 0.93108176,0.93108176 0 0 0 -0.0233,0.044 0.93108176,0.93108176 0 0 0 -0.0161,0.035 0.93108176,0.93108176 0 0 0 -0.0201,0.049 0.93108176,0.93108176 0 0 0 -0.0135,0.04 0.93108176,0.93108176 0 0 0 -0.0146,0.049 0.93108176,0.93108176 0 0 0 -0.01,0.042 0.93108176,0.93108176 0 0 0 -0.009,0.046 0.93108176,0.93108176 0 0 0 -0.006,0.048 0.93108176,0.93108176 0 0 0 -0.006,0.062 0.93108176,0.93108176 0 0 0 0,0.014 v 0 0.023 1.0748 c 0,0.012 -8e-5,0.024 0.003,0.035 0,0.023 0.003,0.046 0.005,0.069 0,0.01 0.003,0.016 0.004,0.024 0.003,0.024 0.008,0.049 0.013,0.073 0.0201,0.091 0.0541,0.1784 0.10027,0.2594 v 0 c 0.0306,0.053 0.0665,0.1036 0.10698,0.1499 0.0945,0.1078 0.21261,0.1923 0.34517,0.247 0.11258,0.047 0.23318,0.072 0.35502,0.072 h 3.86075 v -2.9378 h -3.86125 z"
         id="path18116-9"
         inkscape:connector-curvature="0" />
      <path
         style="opacity:1;fill:#eb315d;fill-opacity:1;fill-rule:nonzero;stroke:none;stroke-width:0.51812226;stroke-linecap:round;stroke-linejoin:miter;stroke-miterlimit:4;stroke-dasharray:none;stroke-dashoffset:0;stroke-opacity:1;paint-order:fill markers stroke"
         d="m 275.40902,-1035.4984 a 0.93146519,0.93146519 0 0 0 -0.9312,0.9318 0.93146519,0.93146519 0 0 0 0.9312,0.9312 0.93146519,0.93146519 0 0 0 0.0135,0 h 3.84731 v -1.8624 z"
         id="path18118-8"
         inkscape:connector-curvature="0" />
      <path
         style="opacity:1;fill:#e04870;fill-opacity:1;fill-rule:nonzero;stroke:none;stroke-width:0.31067616;stroke-linecap:round;stroke-linejoin:miter;stroke-miterlimit:4;stroke-dasharray:none;stroke-dashoffset:0;stroke-opacity:1;paint-order:fill markers stroke"
         d="m 274.81524,-1035.2844 a 0.93146519,0.93146519 0 0 0 -0.33742,0.7178 0.93146519,0.93146519 0 0 0 0.9312,0.9312 h 3.86074 v -0.6698 h -3.67368 -0.0103 v 0 a 0.80100309,0.80100309 0 0 1 -0.79118,-0.8004 0.80100309,0.80100309 0 0 1 0.0206,-0.1783 z"
         id="path18120-5"
         inkscape:connector-curvature="0" />
      <rect
         style="opacity:1;fill:none;fill-opacity:1;fill-rule:nonzero;stroke:none;stroke-width:1.84638071;stroke-linecap:round;stroke-linejoin:round;stroke-miterlimit:4;stroke-dasharray:none;stroke-dashoffset:0;stroke-opacity:1;paint-order:stroke markers fill"
         id="rect4621-7"
         width="0.91471344"
         height="0.91471344"
         x="274.47833"
         y="-1033.4747" />
      <rect
         style="opacity:1;fill:none;fill-opacity:1;fill-rule:nonzero;stroke:none;stroke-width:1.04928815;stroke-linecap:round;stroke-linejoin:miter;stroke-miterlimit:4;stroke-dasharray:none;stroke-dashoffset:0;stroke-opacity:1;paint-order:stroke markers fill"
         id="rect5485-6"
         width="5.2916546"
         height="5.2916546"
         x="273.97986"
         y="-1033.3528" />
    </g>
  </g>
</svg>
