<?xml version="1.0" encoding="UTF-8" standalone="no"?>
<!-- Created with Inkscape (http://www.inkscape.org/) -->

<svg
   xmlns:dc="http://purl.org/dc/elements/1.1/"
   xmlns:cc="http://creativecommons.org/ns#"
   xmlns:rdf="http://www.w3.org/1999/02/22-rdf-syntax-ns#"
   xmlns:svg="http://www.w3.org/2000/svg"
   xmlns="http://www.w3.org/2000/svg"
   xmlns:sodipodi="http://sodipodi.sourceforge.net/DTD/sodipodi-0.dtd"
   xmlns:inkscape="http://www.inkscape.org/namespaces/inkscape"
   width="6.433938mm"
   height="3.7074625mm"
   viewBox="0 0 6.433938 3.7074625"
   version="1.1"
   id="svg23654"
   inkscape:version="0.92.3 (2405546, 2018-03-11)"
   sodipodi:docname="turret_base_red_range.svg">
  <defs
     id="defs23648" />
  <sodipodi:namedview
     id="base"
     pagecolor="#ffffff"
     bordercolor="#666666"
     borderopacity="1.0"
     inkscape:pageopacity="0.0"
     inkscape:pageshadow="2"
     inkscape:zoom="22.4"
     inkscape:cx="17.671159"
     inkscape:cy="10.804549"
     inkscape:document-units="mm"
     inkscape:current-layer="layer1"
     showgrid="false"
     inkscape:window-width="1920"
     inkscape:window-height="1057"
     inkscape:window-x="-8"
     inkscape:window-y="-8"
     inkscape:window-maximized="1" />
  <metadata
     id="metadata23651">
    <rdf:RDF>
      <cc:Work
         rdf:about="">
        <dc:format>image/svg+xml</dc:format>
        <dc:type
           rdf:resource="http://purl.org/dc/dcmitype/StillImage" />
        <dc:title></dc:title>
      </cc:Work>
    </rdf:RDF>
  </metadata>
  <g
     inkscape:label="Layer 1"
     inkscape:groupmode="layer"
     id="layer1"
     transform="translate(17.580064,-156.05103)">
    <g
       id="g22728"
       transform="matrix(0.06119328,0,0,0.06119328,9.2712011,330.92398)">
      <path
         transform="scale(0.26458333)"
         id="rect16685"
         d="m -1265.5801,-10798.924 c -0.6172,0.05 -1.0775,0.58 -1.0312,1.197 l 0.957,12.76 c 0.046,0.617 0.582,1.078 1.1992,1.031 0.6173,-0.05 1.0756,-0.58 1.0293,-1.197 l -0.957,-12.76 c -0.046,-0.617 -0.58,-1.077 -1.1973,-1.031 z m -388.3261,0.848 c -0.6173,-0.05 -1.151,0.414 -1.1973,1.031 l -0.957,12.76 c -0.046,0.617 0.412,1.151 1.0293,1.197 0.6172,0.05 1.1529,-0.414 1.1992,-1.031 l 0.957,-12.76 c 0.046,-0.617 -0.414,-1.151 -1.0312,-1.197 z m 389.9374,32.74 c -0.6172,-0.05 -1.1529,0.412 -1.1992,1.029 l -0.955,12.76 c -0.046,0.617 0.412,1.151 1.0292,1.197 0.6173,0.05 1.151,-0.412 1.1973,-1.029 l 0.957,-12.76 c 0.046,-0.617 -0.412,-1.151 -1.0293,-1.197 z m -391.5488,0.846 c -0.6172,0.05 -1.0756,0.582 -1.0293,1.199 l 0.9571,12.758 c 0.046,0.617 0.58,1.077 1.1972,1.031 0.6173,-0.05 1.0776,-0.58 1.0313,-1.197 l -0.9571,-12.76 c -0.046,-0.617 -0.5819,-1.078 -1.1992,-1.031 z m 387.4375,34.074 c -0.431,0.06 -0.8028,0.375 -0.9199,0.824 l -3.2285,12.381 c -0.1562,0.599 0.1999,1.207 0.7988,1.363 0.599,0.157 1.2071,-0.2 1.3633,-0.798 l 3.2285,-12.381 c 0.1562,-0.599 -0.1999,-1.207 -0.7988,-1.364 -0.1498,-0.04 -0.2997,-0.05 -0.4434,-0.02 z m -383.1933,0.648 c -0.1437,-0.02 -0.2937,-0.01 -0.4434,0.03 -0.5987,0.157 -0.9539,0.766 -0.7969,1.365 l 3.2461,12.375 c 0.1571,0.599 0.7665,0.956 1.3653,0.799 0.5987,-0.157 0.9539,-0.767 0.7968,-1.365 l -3.248,-12.377 c -0.1178,-0.449 -0.4889,-0.761 -0.9199,-0.823 z m 373.2226,32.725 c -0.4353,-0.01 -0.8544,0.232 -1.0469,0.654 l -5.3046,11.645 c -0.2566,0.563 -0.01,1.224 0.5546,1.48 0.5633,0.257 1.222,0 1.4786,-0.554 l 5.3046,-11.645 c 0.2566,-0.563 0.01,-1.222 -0.5546,-1.478 -0.1409,-0.06 -0.2866,-0.1 -0.4317,-0.102 z m -363.2539,0.129 c -0.1451,0 -0.2912,0.04 -0.4316,0.103 -0.5619,0.26 -0.8046,0.921 -0.5449,1.483 l 5.3671,11.615 c 0.2597,0.562 0.9206,0.805 1.4825,0.545 0.5618,-0.26 0.8045,-0.921 0.5449,-1.482 l -5.3672,-11.616 c -0.1947,-0.421 -0.6156,-0.663 -1.0508,-0.648 z m 16.5938,30.568 c -0.2812,-0.05 -0.5821,0 -0.836,0.184 -0.5076,0.354 -0.6295,1.049 -0.2754,1.557 l 7.3203,10.494 c 0.3542,0.507 1.0471,0.631 1.5547,0.277 0.5077,-0.354 0.6315,-1.049 0.2774,-1.557 l -7.3203,-10.494 c -0.1771,-0.254 -0.4396,-0.411 -0.7207,-0.461 z m 329.9765,0.1 c -0.2811,0.05 -0.544,0.209 -0.7207,0.463 l -7.3047,10.506 c -0.3534,0.508 -0.2288,1.201 0.2793,1.554 0.5082,0.354 1.2013,0.229 1.5547,-0.279 l 7.3047,-10.504 c 0.3534,-0.508 0.2289,-1.203 -0.2793,-1.556 -0.2541,-0.177 -0.5529,-0.235 -0.834,-0.184 z m -20.748,26.965 c -0.2856,0 -0.5702,0.109 -0.7891,0.328 l -9.0488,9.049 c -0.4377,0.437 -0.4377,1.142 0,1.58 0.4377,0.438 1.1424,0.438 1.5801,0 l 9.0488,-9.049 c 0.4377,-0.438 0.4377,-1.142 0,-1.58 -0.2188,-0.219 -0.5054,-0.328 -0.791,-0.328 z m -288.3496,0 c -0.2856,0 -0.5722,0.109 -0.791,0.328 -0.4377,0.438 -0.4377,1.142 0,1.58 l 9.0488,9.047 c 0.4377,0.438 1.1424,0.438 1.5801,0 0.4376,-0.438 0.4376,-1.143 0,-1.58 l -9.0489,-9.047 c -0.2188,-0.219 -0.5034,-0.328 -0.789,-0.328 z m 262.582,23.728 c -0.281,-0.05 -0.5814,0 -0.8359,0.182 l -10.5235,7.279 c -0.509,0.352 -0.6353,1.046 -0.2832,1.555 0.3521,0.509 1.0457,0.635 1.5547,0.283 l 10.5215,-7.279 c 0.509,-0.352 0.6353,-1.046 0.2832,-1.555 -0.1761,-0.254 -0.4358,-0.414 -0.7168,-0.465 z m -237.125,0.05 c -0.2809,0.05 -0.5431,0.21 -0.7188,0.465 -0.3513,0.509 -0.2224,1.203 0.2872,1.555 l 10.5332,7.263 c 0.5095,0.352 1.2013,0.225 1.5527,-0.285 0.3514,-0.509 0.2244,-1.203 -0.2852,-1.555 l -10.5332,-7.263 c -0.2547,-0.176 -0.555,-0.232 -0.8359,-0.18 z m 207.6875,18.148 c -0.1451,0 -0.2912,0.04 -0.4316,0.104 l -11.6153,5.367 c -0.5619,0.26 -0.8045,0.923 -0.5449,1.485 0.2596,0.561 0.9205,0.804 1.4824,0.544 l 11.6153,-5.367 c 0.5618,-0.259 0.8045,-0.92 0.5449,-1.482 -0.1947,-0.422 -0.6156,-0.665 -1.0508,-0.651 z m -178.3145,0.116 c -0.4353,-0.01 -0.8544,0.232 -1.0468,0.654 -0.2566,0.563 -0.011,1.224 0.5527,1.48 l 11.6445,5.303 c 0.5633,0.257 1.2239,0 1.4805,-0.554 0.2566,-0.564 0.011,-1.222 -0.5527,-1.479 l -11.6446,-5.305 c -0.1408,-0.06 -0.2885,-0.1 -0.4336,-0.1 z m 32.1114,13.187 c -0.4308,0.06 -0.8007,0.379 -0.916,0.828 -0.1539,0.6 0.2051,1.206 0.8046,1.36 l 12.3946,3.181 c 0.5995,0.154 1.2055,-0.205 1.3594,-0.804 0.1538,-0.6 -0.2052,-1.208 -0.8047,-1.362 l -12.3946,-3.179 c -0.1499,-0.04 -0.2997,-0.05 -0.4433,-0.02 z m 114.2207,0.06 c -0.1436,-0.02 -0.2955,-0.01 -0.4453,0.02 l -12.3887,3.197 c -0.5993,0.155 -0.9574,0.762 -0.8027,1.362 0.1547,0.599 0.762,0.957 1.3613,0.803 l 12.3887,-3.198 c 0.5993,-0.154 0.9574,-0.762 0.8027,-1.361 -0.116,-0.45 -0.4852,-0.763 -0.916,-0.826 z m -80.3106,7.023 c -0.6172,-0.05 -1.1509,0.414 -1.1972,1.031 -0.046,0.618 0.412,1.151 1.0293,1.198 l 12.7597,0.957 c 0.6173,0.05 1.151,-0.414 1.1973,-1.031 0.046,-0.618 -0.4121,-1.151 -1.0293,-1.198 z m 46.4024,0.07 -12.7598,0.957 c -0.6172,0.05 -1.0756,0.58 -1.0293,1.197 0.046,0.617 0.58,1.077 1.1973,1.031 l 12.7597,-0.957 c 0.6173,-0.05 1.0756,-0.58 1.0293,-1.197 -0.046,-0.617 -0.58,-1.078 -1.1972,-1.031 z"
         style="opacity:1;fill:none;fill-opacity:1;fill-rule:nonzero;stroke:#ff6f6a;stroke-width:3.77121639;stroke-linecap:butt;stroke-linejoin:round;stroke-miterlimit:4;stroke-dasharray:none;stroke-dashoffset:0;stroke-opacity:1;paint-order:markers fill stroke"
         inkscape:connector-curvature="0" />
    </g>
  </g>
</svg>
