<?xml version="1.0" encoding="UTF-8" standalone="no"?>
<!-- Created with Inkscape (http://www.inkscape.org/) -->

<svg
   xmlns:dc="http://purl.org/dc/elements/1.1/"
   xmlns:cc="http://creativecommons.org/ns#"
   xmlns:rdf="http://www.w3.org/1999/02/22-rdf-syntax-ns#"
   xmlns:svg="http://www.w3.org/2000/svg"
   xmlns="http://www.w3.org/2000/svg"
   xmlns:xlink="http://www.w3.org/1999/xlink"
   xmlns:sodipodi="http://sodipodi.sourceforge.net/DTD/sodipodi-0.dtd"
   xmlns:inkscape="http://www.inkscape.org/namespaces/inkscape"
   width="0.54494458mm"
   height="0.5987978mm"
   viewBox="0 0 0.54494458 0.5987978"
   version="1.1"
   id="svg15799"
   inkscape:version="0.92.3 (2405546, 2018-03-11)"
   sodipodi:docname="vault.svg">
  <defs
     id="defs15793">
    <linearGradient
       inkscape:collect="always"
       xlink:href="#linearGradient13702"
       id="linearGradient15708"
       gradientUnits="userSpaceOnUse"
       x1="-1438.7855"
       y1="590.37762"
       x2="-1444.5308"
       y2="590.33344" />
    <linearGradient
       inkscape:collect="always"
       id="linearGradient13702">
      <stop
         style="stop-color:#98bef1;stop-opacity:1;"
         offset="0"
         id="stop13693" />
      <stop
         style="stop-color:#5881c7;stop-opacity:1"
         offset="1"
         id="stop13695" />
    </linearGradient>
    <clipPath
       clipPathUnits="userSpaceOnUse"
       id="clipPath13434">
      <path
         inkscape:connector-curvature="0"
         style="opacity:1;fill:#cde4fb;fill-opacity:1;fill-rule:nonzero;stroke:none;stroke-width:0.99999994;stroke-linecap:round;stroke-linejoin:round;stroke-miterlimit:4;stroke-dasharray:none;stroke-dashoffset:0;stroke-opacity:1;paint-order:markers stroke fill"
         d="m -389.59896,147.57656 c -0.60465,0 -1.0914,0.48678 -1.0914,1.09141 v 4.34909 l 0.44595,3.73103 c 0,0.29814 0.0599,0.5815 0.16849,0.83923 0,0 0,5.3e-4 0,5.3e-4 0.32594,0.77296 1.0896,1.3131 1.98384,1.3131 h 2.01539 2.01538 c 0.96896,0 1.78403,-0.63415 2.05568,-1.51154 0.0627,-0.20247 0.0967,-0.4177 0.0967,-0.6413 l 0.44595,-3.73104 v -4.34909 c 0,-0.60463 -0.48675,-1.09141 -1.0914,-1.09141 z"
         id="path13437" />
    </clipPath>
    <linearGradient
       inkscape:collect="always"
       xlink:href="#linearGradient13660"
       id="linearGradient15710"
       gradientUnits="userSpaceOnUse"
       x1="-386.08084"
       y1="147.63309"
       x2="-386.08084"
       y2="149.19997" />
    <linearGradient
       inkscape:collect="always"
       id="linearGradient13660">
      <stop
         style="stop-color:#cce5fb;stop-opacity:1"
         offset="0"
         id="stop13656" />
      <stop
         style="stop-color:#a5c4f4;stop-opacity:1"
         offset="1"
         id="stop13658" />
    </linearGradient>
    <clipPath
       clipPathUnits="userSpaceOnUse"
       id="clipPath13535">
      <rect
         ry="0.94551259"
         y="148.17261"
         x="-390.07361"
         height="9.4264736"
         width="7.9938788"
         id="rect13537"
         style="opacity:1;fill:#7faffc;fill-opacity:1;fill-rule:nonzero;stroke:none;stroke-width:0.99999994;stroke-linecap:round;stroke-linejoin:round;stroke-miterlimit:4;stroke-dasharray:none;stroke-dashoffset:0;stroke-opacity:1;paint-order:markers stroke fill" />
    </clipPath>
    <linearGradient
       inkscape:collect="always"
       xlink:href="#linearGradient13974"
       id="linearGradient15712"
       gradientUnits="userSpaceOnUse"
       x1="-390.38327"
       y1="155.58417"
       x2="-387.88934"
       y2="155.33125" />
    <linearGradient
       inkscape:collect="always"
       id="linearGradient13974">
      <stop
         style="stop-color:#9dc4f6;stop-opacity:1"
         offset="0"
         id="stop13970" />
      <stop
         style="stop-color:#7eb2f9;stop-opacity:1"
         offset="1"
         id="stop13972" />
    </linearGradient>
    <linearGradient
       inkscape:collect="always"
       xlink:href="#linearGradient13443"
       id="linearGradient15714"
       gradientUnits="userSpaceOnUse"
       gradientTransform="matrix(1.086529,0,0,1,33.500366,0.18708867)"
       x1="-386.07666"
       y1="153.5634"
       x2="-386.07666"
       y2="158.74554" />
    <linearGradient
       inkscape:collect="always"
       id="linearGradient13443">
      <stop
         style="stop-color:#73a4ef;stop-opacity:1;"
         offset="0"
         id="stop13439" />
      <stop
         style="stop-color:#647ac4;stop-opacity:1"
         offset="1"
         id="stop13441" />
    </linearGradient>
  </defs>
  <sodipodi:namedview
     id="base"
     pagecolor="#ffffff"
     bordercolor="#666666"
     borderopacity="1.0"
     inkscape:pageopacity="0.0"
     inkscape:pageshadow="2"
     inkscape:zoom="128"
     inkscape:cx="1.4994819"
     inkscape:cy="0.14688874"
     inkscape:document-units="mm"
     inkscape:current-layer="layer1"
     showgrid="false"
     inkscape:object-paths="true"
     inkscape:snap-midpoints="true"
     inkscape:window-width="1920"
     inkscape:window-height="1057"
     inkscape:window-x="-8"
     inkscape:window-y="-8"
     inkscape:window-maximized="1" />
  <metadata
     id="metadata15796">
    <rdf:RDF>
      <cc:Work
         rdf:about="">
        <dc:format>image/svg+xml</dc:format>
        <dc:type
           rdf:resource="http://purl.org/dc/dcmitype/StillImage" />
        <dc:title></dc:title>
      </cc:Work>
    </rdf:RDF>
  </metadata>
  <g
     inkscape:label="Layer 1"
     inkscape:groupmode="layer"
     id="layer1"
     transform="translate(110.85356,-198.15391)">
    <g
       transform="matrix(0.26458323,0,0,0.26458323,-9.5321635,267.67408)"
       id="g15742">
      <g
         id="g15706"
         transform="matrix(0.18363379,0,0,0.18363379,-311.11142,-289.76171)">
        <path
           inkscape:connector-curvature="0"
           style="opacity:1;fill:#7eb3fc;fill-opacity:1;fill-rule:nonzero;stroke:#2b3a53;stroke-width:3.77952743;stroke-linecap:round;stroke-linejoin:round;stroke-miterlimit:4;stroke-dasharray:none;stroke-dashoffset:0;stroke-opacity:1;paint-order:markers stroke fill"
           d="m -1359.2227,557.76953 c -3.6356,0 -6.5625,1.83975 -6.5625,4.125 v 5 7.3125 4.125 l 1.6856,14.10156 c 0,1.12683 0.2262,2.19778 0.6367,3.17188 v 0.002 c 1.2319,2.92143 4.1183,4.96289 7.4981,4.96289 h 7.6171 7.6172 c 3.4538,0 6.388,-2.13202 7.5723,-5.15625 0.3576,0.85767 1.2041,1.46077 2.1914,1.46094 1.3105,-1.9e-4 2.373,-1.15438 2.373,-2.37305 0,-1.21863 1.3692,-7.98437 1.3692,-7.98437 0.03,-0.19503 0.049,-0.39221 0.051,-0.58985 0,-0.80088 -0.2507,-1.54182 -0.6739,-2.15429 -0.01,-0.0196 -0.02,-0.0392 -0.031,-0.0586 0.2094,-0.41138 0.3188,-0.86182 0.3203,-1.31836 0,-1.69101 -1.4497,-3.06199 -3.2383,-3.0625 v -0.002 c -0.079,10e-4 -0.1577,0.005 -0.2363,0.0117 l 0.1211,-1.01172 v -4.10156 c 1e-4,-0.008 0,-0.0155 0,-0.0234 v -12.3125 c 0,-2.28525 -2.9269,-4.125 -6.5625,-4.125 z"
           transform="matrix(0.26458333,0,0,0.26458333,-29.326149,0)"
           id="path15670" />
        <g
           id="g15678">
          <path
             sodipodi:nodetypes="ccccccczccccc"
             inkscape:connector-curvature="0"
             id="path15672"
             transform="scale(0.26458333)"
             d="m -1441.8125,582.12891 c -2.097,-10e-6 -3.7969,1.69991 -3.7969,3.79687 3e-4,0.20943 0.018,0.41848 0.053,0.625 v 0 0.0215 l 1.377,7.92773 c 2e-4,1.31049 1.0625,2.3728 2.373,2.37305 1.3105,-1.9e-4 2.3731,-1.15439 2.3731,-2.37305 0,-1.21866 1.3691,-7.98438 1.3691,-7.98438 v 0 c 0.032,-0.19499 0.049,-0.3922 0.051,-0.58984 0,-2.09696 -1.6999,-3.79688 -3.7969,-3.79687 z"
             style="opacity:1;fill:url(#linearGradient15708);fill-opacity:1;fill-rule:nonzero;stroke:none;stroke-width:8.50393677;stroke-linecap:round;stroke-linejoin:round;stroke-miterlimit:4;stroke-dasharray:none;stroke-dashoffset:0;stroke-opacity:1;paint-order:markers stroke fill" />
          <ellipse
             style="opacity:1;fill:#5b6f96;fill-opacity:1;fill-rule:nonzero;stroke:none;stroke-width:2.25000024;stroke-linecap:round;stroke-linejoin:round;stroke-miterlimit:4;stroke-dasharray:none;stroke-dashoffset:0;stroke-opacity:1;paint-order:markers stroke fill"
             id="ellipse15674"
             cx="-381.41339"
             cy="154.77176"
             rx="0.83685786"
             ry="0.76244378" />
          <ellipse
             cy="154.09193"
             cx="-381.43277"
             id="ellipse15676"
             style="opacity:1;fill:#a5c4f4;fill-opacity:1;fill-rule:nonzero;stroke:none;stroke-width:2.25;stroke-linecap:round;stroke-linejoin:round;stroke-miterlimit:4;stroke-dasharray:none;stroke-dashoffset:0;stroke-opacity:1;paint-order:markers stroke fill"
             rx="0.8570587"
             ry="0.81028652" />
        </g>
        <g
           id="g15704"
           clip-path="url(#clipPath13434)">
          <rect
             ry="1.0914062"
             y="147.57657"
             x="-390.69034"
             height="10.880989"
             width="9.2273436"
             id="rect15680"
             style="opacity:1;fill:url(#linearGradient15710);fill-opacity:1;fill-rule:nonzero;stroke:none;stroke-width:1;stroke-linecap:round;stroke-linejoin:round;stroke-miterlimit:4;stroke-dasharray:none;stroke-dashoffset:0;stroke-opacity:1;paint-order:markers stroke fill"
             rx="1.736318" />
          <rect
             style="opacity:1;fill:#7faffc;fill-opacity:1;fill-rule:nonzero;stroke:none;stroke-width:1;stroke-linecap:round;stroke-linejoin:round;stroke-miterlimit:4;stroke-dasharray:none;stroke-dashoffset:0;stroke-opacity:1;paint-order:markers stroke fill"
             id="rect15682"
             width="7.9938788"
             height="9.4264736"
             x="-390.07361"
             y="148.17261"
             ry="0.94551259"
             rx="1.3096207" />
          <rect
             style="opacity:1;fill:#92baf7;fill-opacity:1;fill-rule:nonzero;stroke:none;stroke-width:1;stroke-linecap:round;stroke-linejoin:round;stroke-miterlimit:4;stroke-dasharray:none;stroke-dashoffset:0;stroke-opacity:1;paint-order:markers stroke fill"
             id="rect15684"
             width="8.7373438"
             height="10.880989"
             x="-390.44534"
             y="152.34734"
             ry="1.0914001"
             clip-path="url(#clipPath13535)" />
          <rect
             ry="1.0914001"
             y="152.61627"
             x="-390.44534"
             height="10.880989"
             width="8.7373438"
             id="rect15686"
             style="opacity:1;fill:#364a75;fill-opacity:1;fill-rule:nonzero;stroke:none;stroke-width:1;stroke-linecap:round;stroke-linejoin:round;stroke-miterlimit:4;stroke-dasharray:none;stroke-dashoffset:0;stroke-opacity:1;paint-order:markers stroke fill" />
          <rect
             rx="1.099619"
             style="opacity:1;fill:url(#linearGradient15712);fill-opacity:1;fill-rule:nonzero;stroke:none;stroke-width:1;stroke-linecap:round;stroke-linejoin:round;stroke-miterlimit:4;stroke-dasharray:none;stroke-dashoffset:0;stroke-opacity:1;paint-order:markers stroke fill"
             id="rect15688"
             width="8.7373524"
             height="10.880989"
             x="-390.44534"
             y="153.0723"
             ry="1.0435578" />
          <path
             style="opacity:1;fill:url(#linearGradient15714);fill-opacity:1;fill-rule:nonzero;stroke:none;stroke-width:0.99999994;stroke-linecap:round;stroke-linejoin:round;stroke-miterlimit:4;stroke-dasharray:none;stroke-dashoffset:0;stroke-opacity:1;paint-order:markers stroke fill"
             d="m -388.68745,153.75049 h 5.40859 c 0.7018,0 1.31947,0.56697 1.26679,1.26679 l -0.62839,8.3474 c -0.0527,0.69983 -0.56499,1.2668 -1.26679,1.2668 h -3.83762 c -0.70181,0 -1.18806,-0.56943 -1.2668,-1.2668 l -0.94258,-8.3474 c -0.0788,-0.69736 0.56499,-1.26679 1.2668,-1.26679 z"
             id="path15690"
             inkscape:connector-curvature="0"
             sodipodi:nodetypes="sssssssss" />
          <ellipse
             ry="1.5400888"
             rx="2.5276442"
             cy="156.43819"
             cx="-386.13196"
             id="ellipse15692"
             style="opacity:1;fill:#465f95;fill-opacity:1;fill-rule:nonzero;stroke:none;stroke-width:2.25;stroke-linecap:round;stroke-linejoin:round;stroke-miterlimit:4;stroke-dasharray:none;stroke-dashoffset:0;stroke-opacity:1;paint-order:markers stroke fill" />
          <path
             inkscape:connector-curvature="0"
             id="path15694"
             d="m -386.13353,155.58478 a 2.2149491,1.3689139 0 0 0 -0.18549,0.006 2.2149492,1.3689139 0 0 0 -0.1274,0.01 2.2149491,1.3689139 0 0 0 -0.089,0.008 2.2149492,1.3689139 0 0 0 -0.12259,0.017 2.2149491,1.3689139 0 0 0 -0.0997,0.016 2.2149492,1.3689139 0 0 0 -0.10073,0.0208 2.2149491,1.3689139 0 0 0 -0.10927,0.0245 2.2149492,1.3689139 0 0 0 -0.0895,0.025 2.2149491,1.3689139 0 0 0 -0.11566,0.0346 2.2149492,1.3689139 0 0 0 -0.0768,0.0267 2.2149491,1.3689139 0 0 0 -0.11192,0.0426 2.2149492,1.3689139 0 0 0 -0.0736,0.0325 2.2149491,1.3689139 0 0 0 -0.10446,0.049 2.2149492,1.3689139 0 0 0 -0.065,0.0352 2.2149491,1.3689139 0 0 0 -0.10073,0.0581 2.2149492,1.3689139 0 0 0 -0.0544,0.0357 2.2149491,1.3689139 0 0 0 -0.0933,0.0661 2.2149492,1.3689139 0 0 0 -0.0496,0.0405 2.2149491,1.3689139 0 0 0 -0.081,0.0698 2.2149492,1.3689139 0 0 0 -0.0416,0.0421 2.2149491,1.3689139 0 0 0 -0.0704,0.0757 2.2149492,1.3689139 0 0 0 -0.0379,0.049 2.2149491,1.3689139 0 0 0 -0.0528,0.0725 2.2149492,1.3689139 0 0 0 -0.0331,0.056 2.2149491,1.3689139 0 0 0 -0.04,0.0736 2.2149492,1.3689139 0 0 0 -0.0246,0.0602 2.2149491,1.3689139 0 0 0 -0.0256,0.0709 2.2149492,1.3689139 0 0 0 -0.0161,0.065 2.2149491,1.3689139 0 0 0 -0.0139,0.0714 2.2149492,1.3689139 0 0 0 -0.008,0.0954 2.2149491,1.3689139 0 0 0 -0.003,0.0197 2.2149491,1.3689139 0 0 0 0.0101,0.10873 2.2149492,1.3689139 0 0 0 0.008,0.0512 2.2149491,1.3689139 0 0 0 0.0208,0.0848 2.2149492,1.3689139 0 0 0 0.0166,0.0512 2.2149491,1.3689139 0 0 0 0.0331,0.0789 2.2149492,1.3689139 0 0 0 0.0273,0.0554 2.2149491,1.3689139 0 0 0 0.0464,0.0773 2.2149492,1.3689139 0 0 0 0.0315,0.0458 2.2149491,1.3689139 0 0 0 0.0618,0.0789 2.2149492,1.3689139 0 0 0 0.0378,0.0432 2.2149491,1.3689139 0 0 0 0.0767,0.0768 2.2149492,1.3689139 0 0 0 0.0384,0.0363 l -0.003,5.4e-4 0.85338,0.7393 0.003,10e-4 v 0 a 1.1054468,0.68320379 0 0 0 0.0602,0.057 1.1054468,0.68320379 0 0 0 0.0693,0.0533 1.1054468,0.68320379 0 0 0 0.0752,0.048 1.1054468,0.68320379 0 0 0 0.004,0.002 1.1054468,0.68320379 0 0 0 0.0768,0.0394 1.1054468,0.68320379 0 0 0 0.006,0.003 1.1054468,0.68320379 0 0 0 0.007,0.003 1.1054468,0.68320379 0 0 0 0.0698,0.0293 1.1054468,0.68320379 0 0 0 0.0277,0.0107 1.1054468,0.68320379 0 0 0 0.0773,0.0256 1.1054468,0.68320379 0 0 0 0.0128,0.003 1.1054468,0.68320379 0 0 0 0.0826,0.0219 1.1054468,0.68320379 0 0 0 0.0277,0.006 1.1054468,0.68320379 0 0 0 0.0693,0.0128 1.1054468,0.68320379 0 0 0 0.0469,0.007 1.1054468,0.68320379 0 0 0 0.0512,0.006 1.1054468,0.68320379 0 0 0 0.0549,0.005 1.1054468,0.68320379 0 0 0 0.0597,0.004 1.1054468,0.68320379 0 0 0 0.0762,0.002 1.1054468,0.68320379 0 0 0 0.0762,-0.002 1.1054468,0.68320379 0 0 0 0.0597,-0.004 1.1054468,0.68320379 0 0 0 0.0549,-0.005 1.1054468,0.68320379 0 0 0 0.0512,-0.006 1.1054468,0.68320379 0 0 0 0.0469,-0.007 1.1054468,0.68320379 0 0 0 0.0693,-0.0128 1.1054468,0.68320379 0 0 0 0.0277,-0.006 1.1054468,0.68320379 0 0 0 0.0826,-0.0219 1.1054468,0.68320379 0 0 0 0.0112,-0.003 1.1054468,0.68320379 0 0 0 0.0895,-0.0299 1.1054468,0.68320379 0 0 0 0.003,-5.4e-4 1.1054468,0.68320379 0 0 0 0.003,-0.001 1.1054468,0.68320379 0 0 0 0.0837,-0.0341 1.1054468,0.68320379 0 0 0 0.0123,-0.006 1.1054468,0.68320379 0 0 0 0.0768,-0.0394 1.1054468,0.68320379 0 0 0 0.004,-0.002 1.1054468,0.68320379 0 0 0 0.0751,-0.048 1.1054468,0.68320379 0 0 0 0.0693,-0.0533 1.1054468,0.68320379 0 0 0 0.0603,-0.057 l 0.003,-0.001 0.85335,-0.7393 -0.003,-5.5e-4 a 2.2149491,1.3689139 0 0 0 0.0437,-0.0416 2.2149492,1.3689139 0 0 0 0.0666,-0.0666 2.2149491,1.3689139 0 0 0 0.0474,-0.0538 2.2149492,1.3689139 0 0 0 0.0533,-0.0677 2.2149491,1.3689139 0 0 0 0.0389,-0.0581 2.2149492,1.3689139 0 0 0 0.0394,-0.065 2.2149491,1.3689139 0 0 0 0.0331,-0.0672 2.2149492,1.3689139 0 0 0 0.0277,-0.0666 2.2149491,1.3689139 0 0 0 0.0208,-0.064 2.2149492,1.3689139 0 0 0 0.0175,-0.0714 2.2149491,1.3689139 0 0 0 0.0106,-0.0645 2.2149492,1.3689139 0 0 0 0.008,-0.10181 2.2149491,1.3689139 0 0 0 -0.01,-0.11993 2.2149492,1.3689139 0 0 0 -0.0112,-0.0554 2.2149491,1.3689139 0 0 0 -0.0196,-0.081 2.2149492,1.3689139 0 0 0 -0.0196,-0.0549 2.2149491,1.3689139 0 0 0 -0.0309,-0.0757 2.2149492,1.3689139 0 0 0 -0.0325,-0.0597 2.2149491,1.3689139 0 0 0 -0.0416,-0.0698 2.2149492,1.3689139 0 0 0 -0.0421,-0.0581 2.2149491,1.3689139 0 0 0 -0.0485,-0.0629 2.2149492,1.3689139 0 0 0 -0.0592,-0.0634 2.2149491,1.3689139 0 0 0 -0.0533,-0.0538 2.2149492,1.3689139 0 0 0 -0.0682,-0.0592 2.2149491,1.3689139 0 0 0 -0.0624,-0.0512 2.2149492,1.3689139 0 0 0 -0.0805,-0.0565 2.2149491,1.3689139 0 0 0 -0.0672,-0.0448 2.2149492,1.3689139 0 0 0 -0.0885,-0.0506 2.2149491,1.3689139 0 0 0 -0.0773,-0.0421 2.2149492,1.3689139 0 0 0 -0.0922,-0.0427 2.2149491,1.3689139 0 0 0 -0.0858,-0.0384 2.2149492,1.3689139 0 0 0 -0.10018,-0.0379 2.2149491,1.3689139 0 0 0 -0.088,-0.0309 2.2149492,1.3689139 0 0 0 -0.10608,-0.032 2.2149491,1.3689139 0 0 0 -0.0986,-0.0272 2.2149492,1.3689139 0 0 0 -0.10128,-0.0229 2.2149491,1.3689139 0 0 0 -0.1082,-0.0224 2.2149492,1.3689139 0 0 0 -0.10234,-0.016 2.2149491,1.3689139 0 0 0 -0.1098,-0.0155 2.2149492,1.3689139 0 0 0 -0.12581,-0.0117 2.2149491,1.3689139 0 0 0 -0.0874,-0.006 2.2149492,1.3689139 0 0 0 -0.19562,-0.006 2.2149492,1.3689139 0 0 0 -0.003,0 z"
             style="opacity:1;fill:#dd9621;fill-opacity:1;fill-rule:nonzero;stroke:none;stroke-width:3.7795279;stroke-linecap:round;stroke-linejoin:round;stroke-miterlimit:4;stroke-dasharray:none;stroke-dashoffset:0;stroke-opacity:1;paint-order:markers stroke fill" />
          <path
             id="path15696"
             d="m -385.6488,156.3755 -0.003,5.3e-4 -0.12607,1.1312 0.007,0.002 a 1.1795293,0.70325148 0 0 1 0.28422,0.0811 l 0.005,0.002 0.67181,-0.86868 a 1.7034285,1.0527767 0 0 0 -0.005,-0.004 1.7034285,1.0527767 0 0 0 -0.062,-0.0434 1.7034285,1.0527767 0 0 0 -0.0517,-0.0341 1.7034285,1.0527767 0 0 0 -0.0677,-0.0393 1.7034285,1.0527767 0 0 0 -0.0594,-0.032 1.7034285,1.0527767 0 0 0 -0.0708,-0.0331 1.7034285,1.0527767 0 0 0 -0.0661,-0.0294 1.7034285,1.0527767 0 0 0 -0.077,-0.0289 1.7034285,1.0527767 0 0 0 -0.0677,-0.0238 1.7034285,1.0527767 0 0 0 -0.0817,-0.0248 1.7034285,1.0527767 0 0 0 -0.076,-0.0207 1.7034285,1.0527767 0 0 0 -0.078,-0.0176 1.7034285,1.0527767 0 0 0 -0.0775,-0.0165 z"
             style="opacity:1;fill:#d0831c;fill-opacity:1;fill-rule:nonzero;stroke:none;stroke-width:3.77952766;stroke-linecap:round;stroke-linejoin:round;stroke-miterlimit:4;stroke-dasharray:none;stroke-dashoffset:0;stroke-opacity:1;paint-order:markers stroke fill"
             inkscape:connector-curvature="0" />
          <path
             id="path15698"
             d="m -386.61361,156.37602 a 1.7034285,1.0527767 0 0 0 -0.0775,0.016 1.7034285,1.0527767 0 0 0 -0.0837,0.0186 1.7034285,1.0527767 0 0 0 -0.0693,0.0196 1.7034285,1.0527767 0 0 0 -0.0889,0.0264 1.7034285,1.0527767 0 0 0 -0.0589,0.0207 1.7034285,1.0527767 0 0 0 -0.0858,0.0326 1.7034285,1.0527767 0 0 0 -0.0568,0.0253 1.7034285,1.0527767 0 0 0 -0.0806,0.0377 1.7034285,1.0527767 0 0 0 -0.0496,0.0269 1.7034285,1.0527767 0 0 0 -0.0775,0.045 1.7034285,1.0527767 0 0 0 -0.0419,0.0274 1.7034285,1.0527767 0 0 0 -0.0718,0.0506 l 0.6723,0.8692 0.003,-0.001 a 1.1795293,0.70325148 0 0 1 0.27905,-0.0796 l 0.014,-0.004 z"
             style="opacity:1;fill:#d0831c;fill-opacity:1;fill-rule:nonzero;stroke:none;stroke-width:3.77952766;stroke-linecap:round;stroke-linejoin:round;stroke-miterlimit:4;stroke-dasharray:none;stroke-dashoffset:0;stroke-opacity:1;paint-order:markers stroke fill"
             inkscape:connector-curvature="0" />
          <ellipse
             ry="0.34073082"
             rx="0.57149112"
             cy="158.17802"
             cx="-386.13199"
             id="ellipse15700"
             style="opacity:1;fill:#d0861b;fill-opacity:1;fill-rule:nonzero;stroke:none;stroke-width:2.25;stroke-linecap:round;stroke-linejoin:round;stroke-miterlimit:4;stroke-dasharray:none;stroke-dashoffset:0;stroke-opacity:1;paint-order:markers stroke fill" />
          <path
             style="opacity:1;fill:#c78318;fill-opacity:1;fill-rule:nonzero;stroke:none;stroke-width:3.7795279;stroke-linecap:round;stroke-linejoin:round;stroke-miterlimit:4;stroke-dasharray:none;stroke-dashoffset:0;stroke-opacity:1;paint-order:markers stroke fill"
             d="m -386.13352,155.36586 a 2.2149491,1.3689139 0 0 0 -0.18553,0.006 2.2149491,1.3689139 0 0 0 -0.12713,0.0103 2.2149491,1.3689139 0 0 0 -0.0894,0.008 2.2149491,1.3689139 0 0 0 -0.12248,0.0171 2.2149491,1.3689139 0 0 0 -0.0997,0.016 2.2149491,1.3689139 0 0 0 -0.10078,0.0207 2.2149491,1.3689139 0 0 0 -0.10903,0.0248 2.2149491,1.3689139 0 0 0 -0.0894,0.0248 2.2149491,1.3689139 0 0 0 -0.11575,0.0346 2.2149491,1.3689139 0 0 0 -0.077,0.0269 2.2149491,1.3689139 0 0 0 -0.11163,0.0424 2.2149491,1.3689139 0 0 0 -0.0739,0.0326 2.2149491,1.3689139 0 0 0 -0.10438,0.0491 2.2149491,1.3689139 0 0 0 -0.0651,0.0351 2.2149491,1.3689139 0 0 0 -0.10078,0.0584 2.2149491,1.3689139 0 0 0 -0.0542,0.0357 2.2149491,1.3689139 0 0 0 -0.0935,0.0661 2.2149491,1.3689139 0 0 0 -0.0496,0.0403 2.2149491,1.3689139 0 0 0 -0.0806,0.0698 2.2149491,1.3689139 0 0 0 -0.0419,0.0419 2.2149491,1.3689139 0 0 0 -0.0703,0.076 2.2149491,1.3689139 0 0 0 -0.0377,0.0491 2.2149491,1.3689139 0 0 0 -0.0527,0.0723 2.2149491,1.3689139 0 0 0 -0.0336,0.0558 2.2149491,1.3689139 0 0 0 -0.0398,0.0739 2.2149491,1.3689139 0 0 0 -0.0248,0.06 2.2149491,1.3689139 0 0 0 -0.0254,0.0713 2.2149491,1.3689139 0 0 0 -0.016,0.0646 2.2149491,1.3689139 0 0 0 -0.0139,0.0713 2.2149491,1.3689139 0 0 0 -0.008,0.0956 2.2149491,1.3689139 0 0 0 -0.003,0.0196 2.2149491,1.3689139 0 0 0 0.01,0.10904 2.2149491,1.3689139 0 0 0 0.003,0.0145 2.2149491,1.2395785 0 0 1 0.0124,-0.0584 2.2149491,1.2395785 0 0 1 0.016,-0.0589 2.2149491,1.2395785 0 0 1 0.0254,-0.0641 2.2149491,1.2395785 0 0 1 0.0248,-0.0548 2.2149491,1.2395785 0 0 1 0.0398,-0.0667 2.2149491,1.2395785 0 0 1 0.0336,-0.0506 2.2149491,1.2395785 0 0 1 0.0527,-0.0656 2.2149491,1.2395785 0 0 1 0.0377,-0.0444 2.2149491,1.2395785 0 0 1 0.0703,-0.0687 2.2149491,1.2395785 0 0 1 0.0419,-0.0377 2.2149491,1.2395785 0 0 1 0.0806,-0.0636 2.2149491,1.2395785 0 0 1 0.0496,-0.0367 2.2149491,1.2395785 0 0 1 0.0935,-0.0599 2.2149491,1.2395785 0 0 1 0.0542,-0.032 2.2149491,1.2395785 0 0 1 0.10078,-0.0527 2.2149491,1.2395785 0 0 1 0.0651,-0.032 2.2149491,1.2395785 0 0 1 0.10438,-0.0444 2.2149491,1.2395785 0 0 1 0.0739,-0.0289 2.2149491,1.2395785 0 0 1 0.11163,-0.0388 2.2149491,1.2395785 0 0 1 0.077,-0.0243 2.2149491,1.2395785 0 0 1 0.11575,-0.0315 2.2149491,1.2395785 0 0 1 0.0894,-0.0222 2.2149491,1.2395785 0 0 1 0.10903,-0.0222 2.2149491,1.2395785 0 0 1 0.10078,-0.0191 2.2149491,1.2395785 0 0 1 0.0997,-0.0145 2.2149491,1.2395785 0 0 1 0.12248,-0.0155 2.2149491,1.2395785 0 0 1 0.0894,-0.007 2.2149491,1.2395785 0 0 1 0.12713,-0.009 2.2149491,1.2395785 0 0 1 0.18553,-0.005 l -5.3e-4,0.003 a 2.2149491,1.2395785 0 0 1 0.003,0 2.2149491,1.2395785 0 0 1 0.19534,0.005 2.2149491,1.2395785 0 0 1 0.0873,0.005 2.2149491,1.2395785 0 0 1 0.12607,0.0103 2.2149491,1.2395785 0 0 1 0.10956,0.014 2.2149491,1.2395785 0 0 1 0.10232,0.015 2.2149491,1.2395785 0 0 1 0.10853,0.0202 2.2149491,1.2395785 0 0 1 0.10128,0.0207 2.2149491,1.2395785 0 0 1 0.0987,0.0243 2.2149491,1.2395785 0 0 1 0.10594,0.0294 2.2149491,1.2395785 0 0 1 0.0879,0.0279 2.2149491,1.2395785 0 0 1 0.10025,0.0341 2.2149491,1.2395785 0 0 1 0.0858,0.0346 2.2149491,1.2395785 0 0 1 0.092,0.0387 2.2149491,1.2395785 0 0 1 0.0775,0.0382 2.2149491,1.2395785 0 0 1 0.0884,0.046 2.2149491,1.2395785 0 0 1 0.0672,0.0403 2.2149491,1.2395785 0 0 1 0.0806,0.0512 2.2149491,1.2395785 0 0 1 0.0625,0.0465 2.2149491,1.2395785 0 0 1 0.0682,0.0537 2.2149491,1.2395785 0 0 1 0.0532,0.0486 2.2149491,1.2395785 0 0 1 0.0594,0.0574 2.2149491,1.2395785 0 0 1 0.0481,0.0574 2.2149491,1.2395785 0 0 1 0.0424,0.0522 2.2149491,1.2395785 0 0 1 0.0414,0.0636 2.2149491,1.2395785 0 0 1 0.0325,0.0537 2.2149491,1.2395785 0 0 1 0.031,0.0687 2.2149491,1.2395785 0 0 1 0.0196,0.0496 2.2149491,1.2395785 0 0 1 0.0196,0.0734 2.2149491,1.2395785 0 0 1 0.01,0.0439 2.2149491,1.3689139 0 0 0 0.003,-0.0181 2.2149491,1.3689139 0 0 0 0.008,-0.1018 2.2149491,1.3689139 0 0 0 -0.01,-0.11989 2.2149491,1.3689139 0 0 0 -0.0114,-0.0558 2.2149491,1.3689139 0 0 0 -0.0196,-0.0806 2.2149491,1.3689139 0 0 0 -0.0196,-0.0553 2.2149491,1.3689139 0 0 0 -0.031,-0.0755 2.2149491,1.3689139 0 0 0 -0.0325,-0.0599 2.2149491,1.3689139 0 0 0 -0.0414,-0.0698 2.2149491,1.3689139 0 0 0 -0.0424,-0.0579 2.2149491,1.3689139 0 0 0 -0.0481,-0.063 2.2149491,1.3689139 0 0 0 -0.0594,-0.063 2.2149491,1.3689139 0 0 0 -0.0532,-0.0543 2.2149491,1.3689139 0 0 0 -0.0682,-0.0589 2.2149491,1.3689139 0 0 0 -0.0625,-0.0512 2.2149491,1.3689139 0 0 0 -0.0806,-0.0568 2.2149491,1.3689139 0 0 0 -0.0672,-0.0444 2.2149491,1.3689139 0 0 0 -0.0884,-0.0506 2.2149491,1.3689139 0 0 0 -0.0775,-0.0424 2.2149491,1.3689139 0 0 0 -0.092,-0.0424 2.2149491,1.3689139 0 0 0 -0.0858,-0.0387 2.2149491,1.3689139 0 0 0 -0.10025,-0.0377 2.2149491,1.3689139 0 0 0 -0.0879,-0.031 2.2149491,1.3689139 0 0 0 -0.10594,-0.032 2.2149491,1.3689139 0 0 0 -0.0987,-0.0269 2.2149491,1.3689139 0 0 0 -0.10128,-0.0233 2.2149491,1.3689139 0 0 0 -0.10853,-0.0222 2.2149491,1.3689139 0 0 0 -0.10232,-0.016 2.2149491,1.3689139 0 0 0 -0.10956,-0.0155 2.2149491,1.3689139 0 0 0 -0.12607,-0.0119 2.2149491,1.3689139 0 0 0 -0.0873,-0.006 2.2149491,1.3689139 0 0 0 -0.19534,-0.006 2.2149491,1.3689139 0 0 0 -0.003,0 z"
             id="path15702"
             inkscape:connector-curvature="0" />
        </g>
      </g>
    </g>
  </g>
</svg>
